<?xml version="1.0" standalone="no"?>
 <!DOCTYPE svg PUBLIC "-//W3C//DTD SVG 1.1//EN" 
 "http://www.w3.org/Graphics/SVG/1.1/DTD/svg11.dtd"> 
<svg xmlns="http://www.w3.org/2000/svg" version="1.1" 
    width="29.7002cm" height="21.0007cm" viewBox="0 0 116930 82680 ">
<title>SVG Picture created as foodSampler_v10-F_SilkS.svg date 2019/10/02 16:16:15 </title>
  <desc>Picture generated by PCBNEW </desc>
<g style="fill:#000000; fill-opacity:1;stroke:#000000; stroke-opacity:1;
stroke-linecap:round; stroke-linejoin:round; "
 transform="translate(0 0) scale(1 1)">
</g>
<g style="fill:#000000; fill-opacity:0.0; 
stroke:#000000; stroke-width:-0.000393701; stroke-opacity:1; 
stroke-linecap:round; stroke-linejoin:round;">
</g>
<g style="fill:#000000; fill-opacity:0.0; 
stroke:#000000; stroke-width:39.3701; stroke-opacity:1; 
stroke-linecap:round; stroke-linejoin:round;">
</g>
<g style="fill:#000000; fill-opacity:0.0; 
stroke:#000000; stroke-width:59.0551; stroke-opacity:1; 
stroke-linecap:round; stroke-linejoin:round;">
<rect x="69685.9" y="65357.2" width="42519.7" height="12598.4" rx="0" />
</g>
<g style="fill:#000000; fill-opacity:0.0; 
stroke:#000000; stroke-width:39.3701; stroke-opacity:1; 
stroke-linecap:round; stroke-linejoin:round;">
</g>
<g style="fill:#000000; fill-opacity:0.0; 
stroke:#000000; stroke-width:59.0551; stroke-opacity:1; 
stroke-linecap:round; stroke-linejoin:round;">
<rect x="3937.01" y="3937.01" width="109056" height="74806" rx="0" />
</g>
<g style="fill:#000000; fill-opacity:0.0; 
stroke:#000000; stroke-width:39.3701; stroke-opacity:1; 
stroke-linecap:round; stroke-linejoin:round;">
</g>
<g style="fill:#000000; fill-opacity:0.0; 
stroke:#000000; stroke-width:59.0551; stroke-opacity:1; 
stroke-linecap:round; stroke-linejoin:round;">
<rect x="4724.41" y="4724.41" width="107481" height="73231.2" rx="0" />
</g>
<g style="fill:#000000; fill-opacity:0.0; 
stroke:#000000; stroke-width:39.3701; stroke-opacity:1; 
stroke-linecap:round; stroke-linejoin:round;">
</g>
<g style="fill:#000000; fill-opacity:0.0; 
stroke:#000000; stroke-width:59.0551; stroke-opacity:1; 
stroke-linecap:round; stroke-linejoin:round;">
<path d="M23622 4724
L23622 3937
" />
</g>
<g style="fill:#000000; fill-opacity:0.0; 
stroke:#000000; stroke-width:39.3701; stroke-opacity:1; 
stroke-linecap:round; stroke-linejoin:round;">
</g>
<g style="fill:#000000; fill-opacity:0.0; 
stroke:#000000; stroke-width:59.0551; stroke-opacity:1; 
stroke-linecap:round; stroke-linejoin:round;">
<path d="M43307 4724
L43307 3937
" />
</g>
<g style="fill:#000000; fill-opacity:0.0; 
stroke:#000000; stroke-width:39.3701; stroke-opacity:1; 
stroke-linecap:round; stroke-linejoin:round;">
</g>
<g style="fill:#000000; fill-opacity:0.0; 
stroke:#000000; stroke-width:59.0551; stroke-opacity:1; 
stroke-linecap:round; stroke-linejoin:round;">
<path d="M62992 4724
L62992 3937
" />
</g>
<g style="fill:#000000; fill-opacity:0.0; 
stroke:#000000; stroke-width:39.3701; stroke-opacity:1; 
stroke-linecap:round; stroke-linejoin:round;">
</g>
<g style="fill:#000000; fill-opacity:0.0; 
stroke:#000000; stroke-width:59.0551; stroke-opacity:1; 
stroke-linecap:round; stroke-linejoin:round;">
<path d="M82677 4724
L82677 3937
" />
</g>
<g style="fill:#000000; fill-opacity:0.0; 
stroke:#000000; stroke-width:39.3701; stroke-opacity:1; 
stroke-linecap:round; stroke-linejoin:round;">
</g>
<g style="fill:#000000; fill-opacity:0.0; 
stroke:#000000; stroke-width:59.0551; stroke-opacity:1; 
stroke-linecap:round; stroke-linejoin:round;">
<path d="M102362 4724
L102362 3937
" />
</g>
<g style="fill:#000000; fill-opacity:0.0; 
stroke:#000000; stroke-width:39.3701; stroke-opacity:1; 
stroke-linecap:round; stroke-linejoin:round;">
</g>
<g style="fill:#000000; fill-opacity:0.0; 
stroke:#000000; stroke-width:59.0551; stroke-opacity:1; 
stroke-linecap:round; stroke-linejoin:round;">
<path d="M14199 4562
L13906 4562
" />
<path d="M14052 4562
L14052 4050
L14004 4123
L13955 4172
L13906 4196
" />
</g>
<g style="fill:#000000; fill-opacity:0.0; 
stroke:#000000; stroke-width:39.3701; stroke-opacity:1; 
stroke-linecap:round; stroke-linejoin:round;">
</g>
<g style="fill:#000000; fill-opacity:0.0; 
stroke:#000000; stroke-width:59.0551; stroke-opacity:1; 
stroke-linecap:round; stroke-linejoin:round;">
<path d="M33591 4099
L33615 4074
L33664 4050
L33786 4050
L33835 4074
L33859 4099
L33884 4147
L33884 4196
L33859 4269
L33567 4562
L33884 4562
" />
</g>
<g style="fill:#000000; fill-opacity:0.0; 
stroke:#000000; stroke-width:39.3701; stroke-opacity:1; 
stroke-linecap:round; stroke-linejoin:round;">
</g>
<g style="fill:#000000; fill-opacity:0.0; 
stroke:#000000; stroke-width:59.0551; stroke-opacity:1; 
stroke-linecap:round; stroke-linejoin:round;">
<path d="M53252 4050
L53569 4050
L53398 4245
L53471 4245
L53520 4269
L53544 4294
L53569 4342
L53569 4464
L53544 4513
L53520 4537
L53471 4562
L53325 4562
L53276 4537
L53252 4513
" />
</g>
<g style="fill:#000000; fill-opacity:0.0; 
stroke:#000000; stroke-width:39.3701; stroke-opacity:1; 
stroke-linecap:round; stroke-linejoin:round;">
</g>
<g style="fill:#000000; fill-opacity:0.0; 
stroke:#000000; stroke-width:59.0551; stroke-opacity:1; 
stroke-linecap:round; stroke-linejoin:round;">
<path d="M73205 4221
L73205 4562
" />
<path d="M73083 4026
L72961 4391
L73278 4391
" />
</g>
<g style="fill:#000000; fill-opacity:0.0; 
stroke:#000000; stroke-width:39.3701; stroke-opacity:1; 
stroke-linecap:round; stroke-linejoin:round;">
</g>
<g style="fill:#000000; fill-opacity:0.0; 
stroke:#000000; stroke-width:59.0551; stroke-opacity:1; 
stroke-linecap:round; stroke-linejoin:round;">
<path d="M92914 4050
L92671 4050
L92646 4294
L92671 4269
L92719 4245
L92841 4245
L92890 4269
L92914 4294
L92939 4342
L92939 4464
L92914 4513
L92890 4537
L92841 4562
L92719 4562
L92671 4537
L92646 4513
" />
</g>
<g style="fill:#000000; fill-opacity:0.0; 
stroke:#000000; stroke-width:39.3701; stroke-opacity:1; 
stroke-linecap:round; stroke-linejoin:round;">
</g>
<g style="fill:#000000; fill-opacity:0.0; 
stroke:#000000; stroke-width:59.0551; stroke-opacity:1; 
stroke-linecap:round; stroke-linejoin:round;">
<path d="M112575 4050
L112477 4050
L112429 4074
L112404 4099
L112356 4172
L112331 4269
L112331 4464
L112356 4513
L112380 4537
L112429 4562
L112526 4562
L112575 4537
L112599 4513
L112624 4464
L112624 4342
L112599 4294
L112575 4269
L112526 4245
L112429 4245
L112380 4269
L112356 4294
L112331 4342
" />
</g>
<g style="fill:#000000; fill-opacity:0.0; 
stroke:#000000; stroke-width:39.3701; stroke-opacity:1; 
stroke-linecap:round; stroke-linejoin:round;">
</g>
<g style="fill:#000000; fill-opacity:0.0; 
stroke:#000000; stroke-width:59.0551; stroke-opacity:1; 
stroke-linecap:round; stroke-linejoin:round;">
<path d="M23622 77955
L23622 78742
" />
</g>
<g style="fill:#000000; fill-opacity:0.0; 
stroke:#000000; stroke-width:39.3701; stroke-opacity:1; 
stroke-linecap:round; stroke-linejoin:round;">
</g>
<g style="fill:#000000; fill-opacity:0.0; 
stroke:#000000; stroke-width:59.0551; stroke-opacity:1; 
stroke-linecap:round; stroke-linejoin:round;">
<path d="M43307 77955
L43307 78742
" />
</g>
<g style="fill:#000000; fill-opacity:0.0; 
stroke:#000000; stroke-width:39.3701; stroke-opacity:1; 
stroke-linecap:round; stroke-linejoin:round;">
</g>
<g style="fill:#000000; fill-opacity:0.0; 
stroke:#000000; stroke-width:59.0551; stroke-opacity:1; 
stroke-linecap:round; stroke-linejoin:round;">
<path d="M62992 77955
L62992 78742
" />
</g>
<g style="fill:#000000; fill-opacity:0.0; 
stroke:#000000; stroke-width:39.3701; stroke-opacity:1; 
stroke-linecap:round; stroke-linejoin:round;">
</g>
<g style="fill:#000000; fill-opacity:0.0; 
stroke:#000000; stroke-width:59.0551; stroke-opacity:1; 
stroke-linecap:round; stroke-linejoin:round;">
<path d="M82677 77955
L82677 78742
" />
</g>
<g style="fill:#000000; fill-opacity:0.0; 
stroke:#000000; stroke-width:39.3701; stroke-opacity:1; 
stroke-linecap:round; stroke-linejoin:round;">
</g>
<g style="fill:#000000; fill-opacity:0.0; 
stroke:#000000; stroke-width:59.0551; stroke-opacity:1; 
stroke-linecap:round; stroke-linejoin:round;">
<path d="M102362 77955
L102362 78742
" />
</g>
<g style="fill:#000000; fill-opacity:0.0; 
stroke:#000000; stroke-width:39.3701; stroke-opacity:1; 
stroke-linecap:round; stroke-linejoin:round;">
</g>
<g style="fill:#000000; fill-opacity:0.0; 
stroke:#000000; stroke-width:59.0551; stroke-opacity:1; 
stroke-linecap:round; stroke-linejoin:round;">
<path d="M14199 78580
L13906 78580
" />
<path d="M14052 78580
L14052 78069
L14004 78142
L13955 78190
L13906 78215
" />
</g>
<g style="fill:#000000; fill-opacity:0.0; 
stroke:#000000; stroke-width:39.3701; stroke-opacity:1; 
stroke-linecap:round; stroke-linejoin:round;">
</g>
<g style="fill:#000000; fill-opacity:0.0; 
stroke:#000000; stroke-width:59.0551; stroke-opacity:1; 
stroke-linecap:round; stroke-linejoin:round;">
<path d="M33591 78117
L33615 78093
L33664 78069
L33786 78069
L33835 78093
L33859 78117
L33884 78166
L33884 78215
L33859 78288
L33567 78580
L33884 78580
" />
</g>
<g style="fill:#000000; fill-opacity:0.0; 
stroke:#000000; stroke-width:39.3701; stroke-opacity:1; 
stroke-linecap:round; stroke-linejoin:round;">
</g>
<g style="fill:#000000; fill-opacity:0.0; 
stroke:#000000; stroke-width:59.0551; stroke-opacity:1; 
stroke-linecap:round; stroke-linejoin:round;">
<path d="M53252 78069
L53569 78069
L53398 78263
L53471 78263
L53520 78288
L53544 78312
L53569 78361
L53569 78483
L53544 78532
L53520 78556
L53471 78580
L53325 78580
L53276 78556
L53252 78532
" />
</g>
<g style="fill:#000000; fill-opacity:0.0; 
stroke:#000000; stroke-width:39.3701; stroke-opacity:1; 
stroke-linecap:round; stroke-linejoin:round;">
</g>
<g style="fill:#000000; fill-opacity:0.0; 
stroke:#000000; stroke-width:59.0551; stroke-opacity:1; 
stroke-linecap:round; stroke-linejoin:round;">
<path d="M73205 78239
L73205 78580
" />
<path d="M73083 78044
L72961 78410
L73278 78410
" />
</g>
<g style="fill:#000000; fill-opacity:0.0; 
stroke:#000000; stroke-width:39.3701; stroke-opacity:1; 
stroke-linecap:round; stroke-linejoin:round;">
</g>
<g style="fill:#000000; fill-opacity:0.0; 
stroke:#000000; stroke-width:59.0551; stroke-opacity:1; 
stroke-linecap:round; stroke-linejoin:round;">
<path d="M92914 78069
L92671 78069
L92646 78312
L92671 78288
L92719 78263
L92841 78263
L92890 78288
L92914 78312
L92939 78361
L92939 78483
L92914 78532
L92890 78556
L92841 78580
L92719 78580
L92671 78556
L92646 78532
" />
</g>
<g style="fill:#000000; fill-opacity:0.0; 
stroke:#000000; stroke-width:39.3701; stroke-opacity:1; 
stroke-linecap:round; stroke-linejoin:round;">
</g>
<g style="fill:#000000; fill-opacity:0.0; 
stroke:#000000; stroke-width:59.0551; stroke-opacity:1; 
stroke-linecap:round; stroke-linejoin:round;">
<path d="M112575 78069
L112477 78069
L112429 78093
L112404 78117
L112356 78190
L112331 78288
L112331 78483
L112356 78532
L112380 78556
L112429 78580
L112526 78580
L112575 78556
L112599 78532
L112624 78483
L112624 78361
L112599 78312
L112575 78288
L112526 78263
L112429 78263
L112380 78288
L112356 78312
L112331 78361
" />
</g>
<g style="fill:#000000; fill-opacity:0.0; 
stroke:#000000; stroke-width:39.3701; stroke-opacity:1; 
stroke-linecap:round; stroke-linejoin:round;">
</g>
<g style="fill:#000000; fill-opacity:0.0; 
stroke:#000000; stroke-width:59.0551; stroke-opacity:1; 
stroke-linecap:round; stroke-linejoin:round;">
<path d="M3937 23622
L4724 23622
" />
</g>
<g style="fill:#000000; fill-opacity:0.0; 
stroke:#000000; stroke-width:39.3701; stroke-opacity:1; 
stroke-linecap:round; stroke-linejoin:round;">
</g>
<g style="fill:#000000; fill-opacity:0.0; 
stroke:#000000; stroke-width:59.0551; stroke-opacity:1; 
stroke-linecap:round; stroke-linejoin:round;">
<path d="M3937 43307
L4724 43307
" />
</g>
<g style="fill:#000000; fill-opacity:0.0; 
stroke:#000000; stroke-width:39.3701; stroke-opacity:1; 
stroke-linecap:round; stroke-linejoin:round;">
</g>
<g style="fill:#000000; fill-opacity:0.0; 
stroke:#000000; stroke-width:59.0551; stroke-opacity:1; 
stroke-linecap:round; stroke-linejoin:round;">
<path d="M3937 62992
L4724 62992
" />
</g>
<g style="fill:#000000; fill-opacity:0.0; 
stroke:#000000; stroke-width:39.3701; stroke-opacity:1; 
stroke-linecap:round; stroke-linejoin:round;">
</g>
<g style="fill:#000000; fill-opacity:0.0; 
stroke:#000000; stroke-width:59.0551; stroke-opacity:1; 
stroke-linecap:round; stroke-linejoin:round;">
<path d="M4208 13864
L4452 13864
" />
<path d="M4160 14011
L4330 13499
L4501 14011
" />
</g>
<g style="fill:#000000; fill-opacity:0.0; 
stroke:#000000; stroke-width:39.3701; stroke-opacity:1; 
stroke-linecap:round; stroke-linejoin:round;">
</g>
<g style="fill:#000000; fill-opacity:0.0; 
stroke:#000000; stroke-width:59.0551; stroke-opacity:1; 
stroke-linecap:round; stroke-linejoin:round;">
<path d="M4367 33428
L4440 33452
L4464 33476
L4489 33525
L4489 33598
L4464 33647
L4440 33671
L4391 33696
L4196 33696
L4196 33184
L4367 33184
L4416 33208
L4440 33233
L4464 33281
L4464 33330
L4440 33379
L4416 33403
L4367 33428
L4196 33428
" />
</g>
<g style="fill:#000000; fill-opacity:0.0; 
stroke:#000000; stroke-width:39.3701; stroke-opacity:1; 
stroke-linecap:round; stroke-linejoin:round;">
</g>
<g style="fill:#000000; fill-opacity:0.0; 
stroke:#000000; stroke-width:59.0551; stroke-opacity:1; 
stroke-linecap:round; stroke-linejoin:round;">
<path d="M4489 53332
L4464 53356
L4391 53381
L4342 53381
L4269 53356
L4221 53308
L4196 53259
L4172 53161
L4172 53088
L4196 52991
L4221 52942
L4269 52893
L4342 52869
L4391 52869
L4464 52893
L4489 52918
" />
</g>
<g style="fill:#000000; fill-opacity:0.0; 
stroke:#000000; stroke-width:39.3701; stroke-opacity:1; 
stroke-linecap:round; stroke-linejoin:round;">
</g>
<g style="fill:#000000; fill-opacity:0.0; 
stroke:#000000; stroke-width:59.0551; stroke-opacity:1; 
stroke-linecap:round; stroke-linejoin:round;">
<path d="M4196 73066
L4196 72554
L4318 72554
L4391 72578
L4440 72627
L4464 72676
L4489 72773
L4489 72846
L4464 72944
L4440 72993
L4391 73041
L4318 73066
L4196 73066
" />
</g>
<g style="fill:#000000; fill-opacity:0.0; 
stroke:#000000; stroke-width:39.3701; stroke-opacity:1; 
stroke-linecap:round; stroke-linejoin:round;">
</g>
<g style="fill:#000000; fill-opacity:0.0; 
stroke:#000000; stroke-width:59.0551; stroke-opacity:1; 
stroke-linecap:round; stroke-linejoin:round;">
<path d="M112992 23622
L112205 23622
" />
</g>
<g style="fill:#000000; fill-opacity:0.0; 
stroke:#000000; stroke-width:39.3701; stroke-opacity:1; 
stroke-linecap:round; stroke-linejoin:round;">
</g>
<g style="fill:#000000; fill-opacity:0.0; 
stroke:#000000; stroke-width:59.0551; stroke-opacity:1; 
stroke-linecap:round; stroke-linejoin:round;">
<path d="M112992 43307
L112205 43307
" />
</g>
<g style="fill:#000000; fill-opacity:0.0; 
stroke:#000000; stroke-width:39.3701; stroke-opacity:1; 
stroke-linecap:round; stroke-linejoin:round;">
</g>
<g style="fill:#000000; fill-opacity:0.0; 
stroke:#000000; stroke-width:59.0551; stroke-opacity:1; 
stroke-linecap:round; stroke-linejoin:round;">
<path d="M112992 62992
L112205 62992
" />
</g>
<g style="fill:#000000; fill-opacity:0.0; 
stroke:#000000; stroke-width:39.3701; stroke-opacity:1; 
stroke-linecap:round; stroke-linejoin:round;">
</g>
<g style="fill:#000000; fill-opacity:0.0; 
stroke:#000000; stroke-width:59.0551; stroke-opacity:1; 
stroke-linecap:round; stroke-linejoin:round;">
<path d="M112477 13864
L112721 13864
" />
<path d="M112428 14011
L112599 13499
L112769 14011
" />
</g>
<g style="fill:#000000; fill-opacity:0.0; 
stroke:#000000; stroke-width:39.3701; stroke-opacity:1; 
stroke-linecap:round; stroke-linejoin:round;">
</g>
<g style="fill:#000000; fill-opacity:0.0; 
stroke:#000000; stroke-width:59.0551; stroke-opacity:1; 
stroke-linecap:round; stroke-linejoin:round;">
<path d="M112635 33428
L112708 33452
L112733 33476
L112757 33525
L112757 33598
L112733 33647
L112708 33671
L112660 33696
L112465 33696
L112465 33184
L112635 33184
L112684 33208
L112708 33233
L112733 33281
L112733 33330
L112708 33379
L112684 33403
L112635 33428
L112465 33428
" />
</g>
<g style="fill:#000000; fill-opacity:0.0; 
stroke:#000000; stroke-width:39.3701; stroke-opacity:1; 
stroke-linecap:round; stroke-linejoin:round;">
</g>
<g style="fill:#000000; fill-opacity:0.0; 
stroke:#000000; stroke-width:59.0551; stroke-opacity:1; 
stroke-linecap:round; stroke-linejoin:round;">
<path d="M112757 53332
L112733 53356
L112660 53381
L112611 53381
L112538 53356
L112489 53308
L112465 53259
L112440 53161
L112440 53088
L112465 52991
L112489 52942
L112538 52893
L112611 52869
L112660 52869
L112733 52893
L112757 52918
" />
</g>
<g style="fill:#000000; fill-opacity:0.0; 
stroke:#000000; stroke-width:39.3701; stroke-opacity:1; 
stroke-linecap:round; stroke-linejoin:round;">
</g>
<g style="fill:#000000; fill-opacity:0.0; 
stroke:#000000; stroke-width:59.0551; stroke-opacity:1; 
stroke-linecap:round; stroke-linejoin:round;">
<path d="M112465 73066
L112465 72554
L112587 72554
L112660 72578
L112708 72627
L112733 72676
L112757 72773
L112757 72846
L112733 72944
L112708 72993
L112660 73041
L112587 73066
L112465 73066
" />
</g>
<g style="fill:#000000; fill-opacity:0.0; 
stroke:#000000; stroke-width:39.3701; stroke-opacity:1; 
stroke-linecap:round; stroke-linejoin:round;">
</g>
<g style="fill:#000000; fill-opacity:0.0; 
stroke:#000000; stroke-width:59.0551; stroke-opacity:1; 
stroke-linecap:round; stroke-linejoin:round;">
<path d="M78911 76293
L78911 75703
L79051 75703
L79136 75731
L79192 75787
L79220 75843
L79248 75956
L79248 76040
L79220 76153
L79192 76209
L79136 76265
L79051 76293
L78911 76293
" />
<path d="M79754 76293
L79754 75984
L79726 75928
L79670 75899
L79557 75899
L79501 75928
" />
<path d="M79754 76265
L79698 76293
L79557 76293
L79501 76265
L79473 76209
L79473 76153
L79501 76096
L79557 76068
L79698 76068
L79754 76040
" />
<path d="M79951 75899
L80176 75899
" />
<path d="M80036 75703
L80036 76209
L80064 76265
L80120 76293
L80176 76293
" />
<path d="M80598 76265
L80542 76293
L80429 76293
L80373 76265
L80345 76209
L80345 75984
L80373 75928
L80429 75899
L80542 75899
L80598 75928
L80626 75984
L80626 76040
L80345 76096
" />
<path d="M80879 76237
L80907 76265
L80879 76293
L80851 76265
L80879 76237
L80879 76293
" />
<path d="M80879 75928
L80907 75956
L80879 75984
L80851 75956
L80879 75928
L80879 75984
" />
</g>
<g style="fill:#000000; fill-opacity:0.0; 
stroke:#000000; stroke-width:39.3701; stroke-opacity:1; 
stroke-linecap:round; stroke-linejoin:round;">
</g>
<g style="fill:#000000; fill-opacity:0.0; 
stroke:#000000; stroke-width:59.0551; stroke-opacity:1; 
stroke-linecap:round; stroke-linejoin:round;">
<path d="M69685 76577
L112205 76577
" />
</g>
<g style="fill:#000000; fill-opacity:0.0; 
stroke:#000000; stroke-width:39.3701; stroke-opacity:1; 
stroke-linecap:round; stroke-linejoin:round;">
</g>
<g style="fill:#000000; fill-opacity:0.0; 
stroke:#000000; stroke-width:59.0551; stroke-opacity:1; 
stroke-linecap:round; stroke-linejoin:round;">
<path d="M70249 77395
L70249 76805
" />
<path d="M70587 77395
L70334 77058
" />
<path d="M70587 76805
L70249 77142
" />
<path d="M70840 77395
L70840 77002
" />
<path d="M70840 76805
L70812 76833
L70840 76861
L70868 76833
L70840 76805
L70840 76861
" />
<path d="M71458 77339
L71430 77367
L71346 77395
L71290 77395
L71205 77367
L71149 77311
L71121 77255
L71093 77142
L71093 77058
L71121 76946
L71149 76889
L71205 76833
L71290 76805
L71346 76805
L71430 76833
L71458 76861
" />
<path d="M71965 77395
L71965 77086
L71937 77030
L71880 77002
L71768 77002
L71712 77030
" />
<path d="M71965 77367
L71908 77395
L71768 77395
L71712 77367
L71683 77311
L71683 77255
L71712 77199
L71768 77171
L71908 77171
L71965 77142
" />
<path d="M72499 77395
L72499 76805
" />
<path d="M72499 77367
L72443 77395
L72330 77395
L72274 77367
L72246 77339
L72218 77283
L72218 77114
L72246 77058
L72274 77030
L72330 77002
L72443 77002
L72499 77030
" />
<path d="M73230 77086
L73427 77086
" />
<path d="M73511 77395
L73230 77395
L73230 76805
L73511 76805
" />
<path d="M73764 77339
L73793 77367
L73764 77395
L73736 77367
L73764 77339
L73764 77395
" />
<path d="M74046 77395
L74046 76805
L74186 76805
L74271 76833
L74327 76889
L74355 76946
L74383 77058
L74383 77142
L74355 77255
L74327 77311
L74271 77367
L74186 77395
L74046 77395
" />
<path d="M74636 77339
L74664 77367
L74636 77395
L74608 77367
L74636 77339
L74636 77395
" />
<path d="M74889 77227
L75171 77227
" />
<path d="M74833 77395
L75030 76805
L75227 77395
" />
<path d="M75424 77339
L75452 77367
L75424 77395
L75395 77367
L75424 77339
L75424 77395
" />
<path d="M76605 77395
L76605 76805
" />
<path d="M76661 77171
L76830 77395
" />
<path d="M76830 77002
L76605 77227
" />
<path d="M77083 77395
L77083 77002
" />
<path d="M77083 76805
L77055 76833
L77083 76861
L77111 76833
L77083 76805
L77083 76861
" />
<path d="M77617 77367
L77561 77395
L77448 77395
L77392 77367
L77364 77339
L77336 77283
L77336 77114
L77364 77058
L77392 77030
L77448 77002
L77561 77002
L77617 77030
" />
<path d="M78123 77395
L78123 77086
L78095 77030
L78039 77002
L77926 77002
L77870 77030
" />
<path d="M78123 77367
L78067 77395
L77926 77395
L77870 77367
L77842 77311
L77842 77255
L77870 77199
L77926 77171
L78067 77171
L78123 77142
" />
<path d="M78658 77395
L78658 76805
" />
<path d="M78658 77367
L78601 77395
L78489 77395
L78433 77367
L78404 77339
L78376 77283
L78376 77114
L78404 77058
L78433 77030
L78489 77002
L78601 77002
L78658 77030
" />
<path d="M79557 77620
L79529 77592
L79473 77508
L79445 77452
L79417 77367
L79389 77227
L79389 77114
L79417 76974
L79445 76889
L79473 76833
L79529 76749
L79557 76721
" />
<path d="M80064 76805
L79782 76805
L79754 77086
L79782 77058
L79839 77030
L79979 77030
L80036 77058
L80064 77086
L80092 77142
L80092 77283
L80064 77339
L80036 77367
L79979 77395
L79839 77395
L79782 77367
L79754 77339
" />
<path d="M80345 77339
L80373 77367
L80345 77395
L80317 77367
L80345 77339
L80345 77395
" />
<path d="M80935 77395
L80598 77395
" />
<path d="M80767 77395
L80767 76805
L80710 76889
L80654 76946
L80598 76974
" />
<path d="M81188 77339
L81217 77367
L81188 77395
L81160 77367
L81188 77339
L81188 77395
" />
<path d="M81582 76805
L81638 76805
L81695 76833
L81723 76861
L81751 76917
L81779 77030
L81779 77171
L81751 77283
L81723 77339
L81695 77367
L81638 77395
L81582 77395
L81526 77367
L81498 77339
L81470 77283
L81442 77171
L81442 77030
L81470 76917
L81498 76861
L81526 76833
L81582 76805
" />
<path d="M82032 77171
L82482 77171
" />
<path d="M82876 76805
L82932 76805
L82988 76833
L83016 76861
L83045 76917
L83073 77030
L83073 77171
L83045 77283
L83016 77339
L82988 77367
L82932 77395
L82876 77395
L82820 77367
L82791 77339
L82763 77283
L82735 77171
L82735 77030
L82763 76917
L82791 76861
L82820 76833
L82876 76805
" />
<path d="M83269 77620
L83298 77592
L83354 77508
L83382 77452
L83410 77367
L83438 77227
L83438 77114
L83410 76974
L83382 76889
L83354 76833
L83298 76749
L83269 76721
" />
</g>
<g style="fill:#000000; fill-opacity:0.0; 
stroke:#000000; stroke-width:39.3701; stroke-opacity:1; 
stroke-linecap:round; stroke-linejoin:round;">
</g>
<g style="fill:#000000; fill-opacity:0.0; 
stroke:#000000; stroke-width:59.0551; stroke-opacity:1; 
stroke-linecap:round; stroke-linejoin:round;">
<path d="M69685 75396
L112205 75396
" />
</g>
<g style="fill:#000000; fill-opacity:0.0; 
stroke:#000000; stroke-width:39.3701; stroke-opacity:1; 
stroke-linecap:round; stroke-linejoin:round;">
</g>
<g style="fill:#000000; fill-opacity:0.0; 
stroke:#000000; stroke-width:118.11; stroke-opacity:1; 
stroke-linecap:round; stroke-linejoin:round;">
<path d="M104099 76293
L103902 76012
" />
<path d="M103761 76293
L103761 75703
L103986 75703
L104042 75731
L104070 75759
L104099 75815
L104099 75899
L104070 75956
L104042 75984
L103986 76012
L103761 76012
" />
<path d="M104577 76265
L104520 76293
L104408 76293
L104352 76265
L104323 76209
L104323 75984
L104352 75928
L104408 75899
L104520 75899
L104577 75928
L104605 75984
L104605 76040
L104323 76096
" />
<path d="M104802 75899
L104942 76293
L105083 75899
" />
<path d="M105308 76237
L105336 76265
L105308 76293
L105280 76265
L105308 76237
L105308 76293
" />
<path d="M105308 75928
L105336 75956
L105308 75984
L105280 75956
L105308 75928
L105308 75984
" />
</g>
<g style="fill:#000000; fill-opacity:0.0; 
stroke:#000000; stroke-width:39.3701; stroke-opacity:1; 
stroke-linecap:round; stroke-linejoin:round;">
</g>
<g style="fill:#000000; fill-opacity:0.0; 
stroke:#000000; stroke-width:59.0551; stroke-opacity:1; 
stroke-linecap:round; stroke-linejoin:round;">
<path d="M70221 76265
L70305 76293
L70446 76293
L70502 76265
L70530 76237
L70559 76181
L70559 76124
L70530 76068
L70502 76040
L70446 76012
L70334 75984
L70277 75956
L70249 75928
L70221 75871
L70221 75815
L70249 75759
L70277 75731
L70334 75703
L70474 75703
L70559 75731
" />
<path d="M70812 76293
L70812 75899
" />
<path d="M70812 75703
L70784 75731
L70812 75759
L70840 75731
L70812 75703
L70812 75759
" />
<path d="M71037 75899
L71346 75899
L71037 76293
L71346 76293
" />
<path d="M71796 76265
L71740 76293
L71627 76293
L71571 76265
L71543 76209
L71543 75984
L71571 75928
L71627 75899
L71740 75899
L71796 75928
L71824 75984
L71824 76040
L71543 76096
" />
<path d="M72077 76237
L72105 76265
L72077 76293
L72049 76265
L72077 76237
L72077 76293
" />
<path d="M72077 75928
L72105 75956
L72077 75984
L72049 75956
L72077 75928
L72077 75984
" />
<path d="M72780 76124
L73061 76124
" />
<path d="M72724 76293
L72921 75703
L73118 76293
" />
<path d="M73568 75899
L73568 76293
" />
<path d="M73427 75674
L73286 76096
L73652 76096
" />
</g>
<g style="fill:#000000; fill-opacity:0.0; 
stroke:#000000; stroke-width:39.3701; stroke-opacity:1; 
stroke-linecap:round; stroke-linejoin:round;">
</g>
<g style="fill:#000000; fill-opacity:0.0; 
stroke:#000000; stroke-width:59.0551; stroke-opacity:1; 
stroke-linecap:round; stroke-linejoin:round;">
<path d="M103714 77395
L103714 76805
" />
<path d="M104248 77395
L104248 76805
" />
<path d="M104248 77367
L104192 77395
L104079 77395
L104023 77367
L103995 77339
L103967 77283
L103967 77114
L103995 77058
L104023 77030
L104079 77002
L104192 77002
L104248 77030
" />
<path d="M104529 77339
L104557 77367
L104529 77395
L104501 77367
L104529 77339
L104529 77395
" />
<path d="M104529 77030
L104557 77058
L104529 77086
L104501 77058
L104529 77030
L104529 77086
" />
<path d="M105570 77395
L105232 77395
" />
<path d="M105401 77395
L105401 76805
L105345 76889
L105289 76946
L105232 76974
" />
<path d="M106245 76777
L105739 77536
" />
<path d="M106751 77395
L106413 77395
" />
<path d="M106582 77395
L106582 76805
L106526 76889
L106470 76946
L106413 76974
" />
</g>
<g style="fill:#000000; fill-opacity:0.0; 
stroke:#000000; stroke-width:39.3701; stroke-opacity:1; 
stroke-linecap:round; stroke-linejoin:round;">
</g>
<g style="fill:#000000; fill-opacity:0.0; 
stroke:#000000; stroke-width:59.0551; stroke-opacity:1; 
stroke-linecap:round; stroke-linejoin:round;">
<path d="M69685 73821
L112205 73821
" />
</g>
<g style="fill:#000000; fill-opacity:0.0; 
stroke:#000000; stroke-width:39.3701; stroke-opacity:1; 
stroke-linecap:round; stroke-linejoin:round;">
</g>
<g style="fill:#000000; fill-opacity:0.0; 
stroke:#000000; stroke-width:157.48; stroke-opacity:1; 
stroke-linecap:round; stroke-linejoin:round;">
<path d="M70360 74099
L70810 74099
" />
<path d="M70486 74886
L70585 74099
" />
<path d="M70974 74886
L71039 74361
" />
<path d="M71072 74099
L71030 74136
L71063 74174
L71105 74136
L71072 74099
L71063 74174
" />
<path d="M71302 74361
L71602 74361
" />
<path d="M71447 74099
L71363 74774
L71391 74849
L71461 74886
L71536 74886
" />
<path d="M71911 74886
L71841 74849
L71813 74774
L71897 74099
" />
<path d="M72516 74849
L72436 74886
L72286 74886
L72216 74849
L72187 74774
L72225 74474
L72272 74399
L72352 74361
L72501 74361
L72572 74399
L72600 74474
L72591 74549
L72206 74624
" />
<path d="M72895 74811
L72928 74849
L72886 74886
L72853 74849
L72895 74811
L72886 74886
" />
<path d="M72947 74399
L72980 74436
L72937 74474
L72905 74436
L72947 74399
L72937 74474
" />
</g>
<g style="fill:#000000; fill-opacity:0.0; 
stroke:#000000; stroke-width:39.3701; stroke-opacity:1; 
stroke-linecap:round; stroke-linejoin:round;">
</g>
<g style="fill:#000000; fill-opacity:0.0; 
stroke:#000000; stroke-width:59.0551; stroke-opacity:1; 
stroke-linecap:round; stroke-linejoin:round;">
<path d="M70446 73070
L70249 73070
" />
<path d="M70249 73380
L70249 72789
L70530 72789
" />
<path d="M70755 73380
L70755 72986
" />
<path d="M70755 72789
L70727 72817
L70755 72845
L70784 72817
L70755 72789
L70755 72845
" />
<path d="M71121 73380
L71065 73352
L71037 73295
L71037 72789
" />
<path d="M71571 73352
L71515 73380
L71402 73380
L71346 73352
L71318 73295
L71318 73070
L71346 73014
L71402 72986
L71515 72986
L71571 73014
L71599 73070
L71599 73127
L71318 73183
" />
<path d="M71852 73323
L71880 73352
L71852 73380
L71824 73352
L71852 73323
L71852 73380
" />
<path d="M71852 73014
L71880 73042
L71852 73070
L71824 73042
L71852 73014
L71852 73070
" />
<path d="M72499 72986
L72724 72986
" />
<path d="M72583 73380
L72583 72874
L72611 72817
L72668 72789
L72724 72789
" />
<path d="M73005 73380
L72949 73352
L72921 73323
L72893 73267
L72893 73099
L72921 73042
L72949 73014
L73005 72986
L73090 72986
L73146 73014
L73174 73042
L73202 73099
L73202 73267
L73174 73323
L73146 73352
L73090 73380
L73005 73380
" />
<path d="M73539 73380
L73483 73352
L73455 73323
L73427 73267
L73427 73099
L73455 73042
L73483 73014
L73539 72986
L73624 72986
L73680 73014
L73708 73042
L73736 73099
L73736 73267
L73708 73323
L73680 73352
L73624 73380
L73539 73380
" />
<path d="M74242 73380
L74242 72789
" />
<path d="M74242 73352
L74186 73380
L74074 73380
L74018 73352
L73989 73323
L73961 73267
L73961 73099
L73989 73042
L74018 73014
L74074 72986
L74186 72986
L74242 73014
" />
<path d="M74496 73352
L74580 73380
L74721 73380
L74777 73352
L74805 73323
L74833 73267
L74833 73211
L74805 73155
L74777 73127
L74721 73099
L74608 73070
L74552 73042
L74524 73014
L74496 72958
L74496 72902
L74524 72845
L74552 72817
L74608 72789
L74749 72789
L74833 72817
" />
<path d="M75339 73380
L75339 73070
L75311 73014
L75255 72986
L75142 72986
L75086 73014
" />
<path d="M75339 73352
L75283 73380
L75142 73380
L75086 73352
L75058 73295
L75058 73239
L75086 73183
L75142 73155
L75283 73155
L75339 73127
" />
<path d="M75620 73380
L75620 72986
" />
<path d="M75620 73042
L75649 73014
L75705 72986
L75789 72986
L75845 73014
L75874 73070
L75874 73380
" />
<path d="M75874 73070
L75902 73014
L75958 72986
L76042 72986
L76099 73014
L76127 73070
L76127 73380
" />
<path d="M76408 72986
L76408 73577
" />
<path d="M76408 73014
L76464 72986
L76577 72986
L76633 73014
L76661 73042
L76689 73099
L76689 73267
L76661 73323
L76633 73352
L76577 73380
L76464 73380
L76408 73352
" />
<path d="M77027 73380
L76970 73352
L76942 73295
L76942 72789
" />
<path d="M77476 73352
L77420 73380
L77308 73380
L77251 73352
L77223 73295
L77223 73070
L77251 73014
L77308 72986
L77420 72986
L77476 73014
L77505 73070
L77505 73127
L77223 73183
" />
<path d="M77758 73380
L77758 72986
" />
<path d="M77758 73099
L77786 73042
L77814 73014
L77870 72986
L77926 72986
" />
<path d="M77983 73436
L78433 73436
" />
<path d="M78517 72986
L78658 73380
L78798 72986
" />
<path d="M79332 73380
L78995 73380
" />
<path d="M79164 73380
L79164 72789
L79108 72874
L79051 72930
L78995 72958
" />
<path d="M79698 72789
L79754 72789
L79811 72817
L79839 72845
L79867 72902
L79895 73014
L79895 73155
L79867 73267
L79839 73323
L79811 73352
L79754 73380
L79698 73380
L79642 73352
L79614 73323
L79586 73267
L79557 73155
L79557 73014
L79586 72902
L79614 72845
L79642 72817
L79698 72789
" />
<path d="M80148 73323
L80176 73352
L80148 73380
L80120 73352
L80148 73323
L80148 73380
" />
<path d="M80429 73380
L80429 72789
" />
<path d="M80485 73155
L80654 73380
" />
<path d="M80654 72986
L80429 73211
" />
<path d="M80907 73380
L80907 72986
" />
<path d="M80907 72789
L80879 72817
L80907 72845
L80935 72817
L80907 72789
L80907 72845
" />
<path d="M81442 73352
L81385 73380
L81273 73380
L81217 73352
L81188 73323
L81160 73267
L81160 73099
L81188 73042
L81217 73014
L81273 72986
L81385 72986
L81442 73014
" />
<path d="M81948 73380
L81948 73070
L81920 73014
L81863 72986
L81751 72986
L81695 73014
" />
<path d="M81948 73352
L81892 73380
L81751 73380
L81695 73352
L81667 73295
L81667 73239
L81695 73183
L81751 73155
L81892 73155
L81948 73127
" />
<path d="M82482 73380
L82482 72789
" />
<path d="M82482 73352
L82426 73380
L82313 73380
L82257 73352
L82229 73323
L82201 73267
L82201 73099
L82229 73042
L82257 73014
L82313 72986
L82426 72986
L82482 73014
" />
<path d="M82623 73436
L83073 73436
" />
<path d="M83213 72986
L83213 73577
" />
<path d="M83213 73014
L83269 72986
L83382 72986
L83438 73014
L83466 73042
L83494 73099
L83494 73267
L83466 73323
L83438 73352
L83382 73380
L83269 73380
L83213 73352
" />
<path d="M84001 73352
L83944 73380
L83832 73380
L83776 73352
L83748 73323
L83719 73267
L83719 73099
L83748 73042
L83776 73014
L83832 72986
L83944 72986
L84001 73014
" />
<path d="M84254 73380
L84254 72789
" />
<path d="M84254 73014
L84310 72986
L84422 72986
L84479 73014
L84507 73042
L84535 73099
L84535 73267
L84507 73323
L84479 73352
L84422 73380
L84310 73380
L84254 73352
" />
</g>
<g style="fill:#000000; fill-opacity:0.0; 
stroke:#000000; stroke-width:39.3701; stroke-opacity:1; 
stroke-linecap:round; stroke-linejoin:round;">
</g>
<g style="fill:#000000; fill-opacity:0.0; 
stroke:#000000; stroke-width:59.0551; stroke-opacity:1; 
stroke-linecap:round; stroke-linejoin:round;">
<path d="M69685 71459
L112205 71459
" />
</g>
<g style="fill:#000000; fill-opacity:0.0; 
stroke:#000000; stroke-width:39.3701; stroke-opacity:1; 
stroke-linecap:round; stroke-linejoin:round;">
</g>
<g style="fill:#000000; fill-opacity:0.0; 
stroke:#000000; stroke-width:59.0551; stroke-opacity:1; 
stroke-linecap:round; stroke-linejoin:round;">
<path d="M70221 72289
L70305 72317
L70446 72317
L70502 72289
L70530 72260
L70559 72204
L70559 72148
L70530 72092
L70502 72064
L70446 72036
L70334 72007
L70277 71979
L70249 71951
L70221 71895
L70221 71839
L70249 71782
L70277 71754
L70334 71726
L70474 71726
L70559 71754
" />
<path d="M70812 72317
L70812 71726
" />
<path d="M71065 72317
L71065 72007
L71037 71951
L70980 71923
L70896 71923
L70840 71951
L70812 71979
" />
<path d="M71571 72289
L71515 72317
L71402 72317
L71346 72289
L71318 72232
L71318 72007
L71346 71951
L71402 71923
L71515 71923
L71571 71951
L71599 72007
L71599 72064
L71318 72120
" />
<path d="M72077 72289
L72021 72317
L71908 72317
L71852 72289
L71824 72232
L71824 72007
L71852 71951
L71908 71923
L72021 71923
L72077 71951
L72105 72007
L72105 72064
L71824 72120
" />
<path d="M72274 71923
L72499 71923
" />
<path d="M72358 71726
L72358 72232
L72386 72289
L72443 72317
L72499 72317
" />
<path d="M72696 72260
L72724 72289
L72696 72317
L72668 72289
L72696 72260
L72696 72317
" />
<path d="M72696 71951
L72724 71979
L72696 72007
L72668 71979
L72696 71951
L72696 72007
" />
</g>
<g style="fill:#000000; fill-opacity:0.0; 
stroke:#000000; stroke-width:39.3701; stroke-opacity:1; 
stroke-linecap:round; stroke-linejoin:round;">
</g>
<g style="fill:#000000; fill-opacity:0.0; 
stroke:#000000; stroke-width:59.0551; stroke-opacity:1; 
stroke-linecap:round; stroke-linejoin:round;">
<path d="M77559 75396
L77559 76577
" />
</g>
<g style="fill:#000000; fill-opacity:0.0; 
stroke:#000000; stroke-width:39.3701; stroke-opacity:1; 
stroke-linecap:round; stroke-linejoin:round;">
</g>
<g style="fill:#000000; fill-opacity:0.0; 
stroke:#000000; stroke-width:59.0551; stroke-opacity:1; 
stroke-linecap:round; stroke-linejoin:round;">
<path d="M102756 75396
L102756 77955
" />
<path d="M24370 20551
L29094 20551
" />
<path d="M29094 20551
L29094 25275
" />
<path d="M29094 25275
L24370 25275
" />
<path d="M24370 25275
L24370 20551
" />
<path d="M24173 21141
L24173 20354
" />
<path d="M24173 20354
L24763 20354
" />
<path d="M24763 20354
L24960 20354
" />
<path d="M24763 26653
L24960 26653
" />
<path d="M24173 26653
L24763 26653
" />
<path d="M24173 27440
L24173 26653
" />
<path d="M24370 31574
L24370 26850
" />
<path d="M29094 31574
L24370 31574
" />
<path d="M29094 26850
L29094 31574
" />
<path d="M24370 26850
L29094 26850
" />
<path d="M24370 33149
L29094 33149
" />
<path d="M29094 33149
L29094 37874
" />
<path d="M29094 37874
L24370 37874
" />
<path d="M24370 37874
L24370 33149
" />
<path d="M24173 33740
L24173 32952
" />
<path d="M24173 32952
L24763 32952
" />
<path d="M24763 32952
L24960 32952
" />
<path d="M24763 39251
L24960 39251
" />
<path d="M24173 39251
L24763 39251
" />
<path d="M24173 40039
L24173 39251
" />
<path d="M24370 44173
L24370 39448
" />
<path d="M29094 44173
L24370 44173
" />
<path d="M29094 39448
L29094 44173
" />
<path d="M24370 39448
L29094 39448
" />
<path d="M24370 45748
L29094 45748
" />
<path d="M29094 45748
L29094 50472
" />
<path d="M29094 50472
L24370 50472
" />
<path d="M24370 50472
L24370 45748
" />
<path d="M24173 46338
L24173 45551
" />
<path d="M24173 45551
L24763 45551
" />
<path d="M24763 45551
L24960 45551
" />
<path d="M24763 51850
L24960 51850
" />
<path d="M24173 51850
L24763 51850
" />
<path d="M24173 52637
L24173 51850
" />
<path d="M24370 56771
L24370 52047
" />
<path d="M29094 56771
L24370 56771
" />
<path d="M29094 52047
L29094 56771
" />
<path d="M24370 52047
L29094 52047
" />
<path d="M24370 58346
L29094 58346
" />
<path d="M29094 58346
L29094 63070
" />
<path d="M29094 63070
L24370 63070
" />
<path d="M24370 63070
L24370 58346
" />
<path d="M24173 58937
L24173 58149
" />
<path d="M24173 58149
L24763 58149
" />
<path d="M24763 58149
L24960 58149
" />
</g>
<g style="fill:#000000; fill-opacity:1.0; 
stroke:#000000; stroke-width:3.93701; stroke-opacity:1; 
stroke-linecap:round; stroke-linejoin:round;">
<path style="fill:#000000; fill-opacity:1.0; 
stroke:#000000; stroke-width:3.93701; stroke-opacity:1; 
stroke-linecap:round; stroke-linejoin:round;fill-rule:evenodd;"
d="M 25167,16258
25171,16265
25172,16275
25172,16280
25167,16304
25157,16327
25144,16349
25125,16371
25111,16386
25101,16395
25091,16404
25080,16414
25068,16424
25054,16435
25037,16447
25018,16462
24995,16478
24968,16497
24961,16502
24927,16526
24897,16548
24871,16568
24849,16585
24830,16602
24814,16616
24800,16630
24788,16644
24777,16657
24775,16660
24763,16679
24754,16696
24749,16713
24747,16731
24746,16734
24747,16761
24752,16784
24761,16804
24773,16820
24790,16833
24810,16841
24833,16845
24844,16846
24873,16843
24903,16835
24934,16822
24965,16804
24997,16781
25011,16769
25024,16759
25033,16753
25040,16751
25044,16753
25045,16760
25043,16771
25039,16787
25032,16808
25032,16811
25011,16864
24987,16916
24958,16968
24926,17018
24891,17066
24853,17112
24813,17154
24772,17193
24729,17227
24693,17251
24653,17273
24612,17291
24570,17305
24540,17312
24523,17315
24505,17317
24489,17319
24475,17319
24465,17319
24460,17318
24455,17314
24454,17310
24458,17305
24467,17299
24481,17291
24490,17287
24505,17280
24520,17272
24533,17263
24536,17261
24562,17239
24587,17213
24609,17185
24628,17157
24641,17132
24649,17112
24657,17089
24665,17063
24671,17037
24677,17011
24681,16987
24684,16966
24685,16952
24684,16942
24684,16936
24682,16933
24680,16932
24679,16932
24675,16934
24670,16940
24663,16950
24661,16955
24651,16969
24638,16985
24623,17002
24607,17017
24592,17030
24578,17040
24553,17052
24529,17060
24506,17064
24485,17062
24467,17056
24451,17045
24438,17030
24428,17012
24421,16993
24419,16972
24421,16953
24423,16944
24427,16934
24431,16924
24437,16912
24445,16899
24455,16882
24468,16863
24476,16850
24488,16832
24499,16814
24509,16797
24518,16782
24525,16770
24528,16764
24535,16748
24541,16731
24546,16715
24550,16700
24551,16689
24551,16687
24550,16680
24548,16677
24544,16678
24538,16684
24530,16694
24519,16709
24515,16714
24495,16742
24471,16769
24442,16796
24408,16824
24394,16835
24378,16848
24358,16863
24339,16878
24321,16891
24317,16895
24293,16914
24270,16934
24249,16954
24230,16973
24213,16992
24202,17007
24187,17030
24176,17052
24167,17074
24160,17097
24156,17122
24153,17151
24152,17176
24151,17199
24150,17217
24148,17231
24146,17240
24144,17246
24141,17248
24139,17248
24135,17246
24131,17239
24126,17228
24122,17211
24116,17189
24111,17165
24103,17111
24099,17060
24101,17011
24107,16964
24119,16918
24136,16874
24158,16831
24186,16789
24190,16783
24221,16746
24257,16709
24297,16674
24342,16640
24392,16608
24445,16577
24501,16549
24546,16530
24561,16523
24576,16518
24592,16512
24609,16506
24629,16500
24650,16494
24675,16487
24704,16479
24737,16470
24771,16461
24794,16455
24818,16448
24840,16442
24861,16436
24879,16431
24893,16427
24897,16426
24946,16409
24990,16391
25029,16371
25065,16350
25097,16327
25114,16313
25125,16303
25133,16294
25140,16285
25145,16275
25146,16274
25151,16263
25155,16257
25159,16255
25161,16255
25167,16258
Z" /> 
<path style="fill:#000000; fill-opacity:1.0; 
stroke:#000000; stroke-width:3.93701; stroke-opacity:1; 
stroke-linecap:round; stroke-linejoin:round;fill-rule:evenodd;"
d="M 29050,17367
29081,17370
29111,17374
29132,17379
29143,17382
29143,17507
29117,17505
29096,17503
29074,17503
29052,17503
29032,17504
29016,17505
29009,17506
28995,17510
28981,17516
28976,17519
28967,17524
28961,17531
28955,17539
28951,17547
28942,17566
28941,17650
28940,17734
29121,17734
29121,17840
28940,17840
28939,18525
28865,18525
28845,18526
28827,18526
28812,18525
28800,18525
28792,18525
28789,18524
28789,18521
28789,18513
28789,18500
28788,18482
28788,18461
28788,18435
28788,18406
28788,18373
28788,18338
28787,18300
28787,18260
28787,18219
28787,18181
28787,17840
28635,17840
28635,17734
28787,17734
28788,17642
28788,17617
28789,17596
28789,17580
28790,17567
28790,17556
28791,17548
28792,17540
28794,17533
28796,17526
28797,17523
28808,17490
28823,17462
28842,17437
28866,17415
28894,17398
28926,17383
28962,17373
28967,17372
28992,17368
29020,17366
29050,17367
Z" /> 
<path style="fill:#000000; fill-opacity:1.0; 
stroke:#000000; stroke-width:3.93701; stroke-opacity:1; 
stroke-linecap:round; stroke-linejoin:round;fill-rule:evenodd;"
d="M 28471,18526
28321,18526
28321,17390
28471,17390
28471,18526
Z" /> 
<path style="fill:#000000; fill-opacity:1.0; 
stroke:#000000; stroke-width:3.93701; stroke-opacity:1; 
stroke-linecap:round; stroke-linejoin:round;fill-rule:evenodd;"
d="M 26620,17390
26660,17390
26696,17390
26729,17391
26757,17391
26781,17391
26800,17392
26815,17392
26824,17393
26826,17393
26881,17401
26933,17414
26982,17431
27028,17452
27069,17478
27108,17508
27142,17542
27173,17580
27201,17622
27212,17643
27235,17693
27253,17746
27267,17801
27277,17858
27282,17916
27283,17975
27279,18033
27272,18091
27259,18147
27243,18201
27228,18238
27205,18285
27179,18328
27148,18367
27114,18401
27076,18432
27035,18458
26990,18480
26941,18497
26914,18505
26901,18508
26890,18511
26878,18514
26867,18516
26856,18518
26844,18519
26831,18521
26816,18522
26799,18523
26780,18523
26758,18524
26733,18524
26704,18525
26670,18525
26632,18525
26589,18525
26582,18525
26357,18527
26357,18388
26515,18388
26666,18386
26699,18386
26727,18386
26750,18386
26770,18385
26786,18385
26799,18385
26809,18384
26817,18383
26824,18383
26830,18382
26836,18381
26840,18380
26883,18367
26922,18350
26957,18330
26989,18305
27017,18277
27042,18244
27064,18206
27082,18165
27097,18121
27107,18073
27114,18022
27116,17967
27116,17957
27115,17913
27112,17874
27107,17838
27099,17803
27090,17771
27073,17727
27053,17688
27029,17653
27001,17621
26970,17594
26936,17571
26900,17553
26861,17540
26850,17537
26839,17534
26828,17532
26816,17531
26803,17529
26788,17528
26770,17527
26750,17527
26725,17526
26697,17526
26664,17526
26651,17526
26515,17526
26515,18388
26357,18388
26357,17390
26578,17390
26620,17390
Z" /> 
<path style="fill:#000000; fill-opacity:1.0; 
stroke:#000000; stroke-width:3.93701; stroke-opacity:1; 
stroke-linecap:round; stroke-linejoin:round;fill-rule:evenodd;"
d="M 24812,17609
24460,17609
24460,18526
24146,18526
24146,17609
23793,17609
23793,17390
24812,17390
24812,17609
Z" /> 
<path style="fill:#000000; fill-opacity:1.0; 
stroke:#000000; stroke-width:3.93701; stroke-opacity:1; 
stroke-linecap:round; stroke-linejoin:round;fill-rule:evenodd;"
d="M 29491,17523
29492,17531
29492,17543
29492,17559
29493,17577
29493,17599
29493,17622
29493,17627
29493,17734
29673,17734
29673,17840
29493,17840
29493,18106
29493,18372
29499,18386
29510,18402
29525,18415
29540,18424
29552,18428
29568,18430
29587,18431
29608,18431
29629,18430
29649,18427
29662,18424
29668,18423
29668,18481
29668,18499
29668,18514
29667,18527
29667,18535
29666,18540
29666,18540
29662,18540
29655,18541
29644,18543
29631,18544
29631,18544
29608,18546
29583,18547
29556,18548
29531,18547
29508,18546
29501,18545
29470,18540
29441,18532
29416,18522
29395,18509
29382,18498
29369,18484
29360,18467
29352,18448
29348,18435
29347,18431
29346,18428
29345,18424
29344,18419
29344,18414
29343,18407
29343,18399
29343,18388
29342,18375
29342,18359
29342,18341
29342,18319
29341,18293
29341,18263
29341,18228
29341,18189
29341,18145
29341,18127
29340,17840
29207,17840
29207,17734
29340,17734
29341,17651
29342,17567
29415,17544
29434,17538
29452,17532
29467,17528
29479,17524
29487,17521
29491,17521
29491,17521
29491,17523
Z" /> 
<path style="fill:#000000; fill-opacity:1.0; 
stroke:#000000; stroke-width:3.93701; stroke-opacity:1; 
stroke-linecap:round; stroke-linejoin:round;fill-rule:evenodd;"
d="M 27807,17713
27829,17714
27850,17715
27868,17717
27878,17719
27917,17730
27953,17744
27985,17761
28015,17782
28037,17802
28064,17832
28087,17866
28106,17904
28122,17946
28133,17992
28134,17994
28135,18007
28137,18026
28138,18051
28139,18080
28139,18088
28141,18159
27579,18159
27579,18167
27579,18173
27580,18183
27581,18195
27582,18207
27588,18250
27597,18289
27609,18323
27624,18353
27643,18379
27665,18400
27689,18417
27717,18429
27728,18432
27745,18435
27767,18437
27790,18438
27813,18437
27834,18435
27844,18433
27873,18425
27899,18412
27920,18396
27939,18375
27953,18349
27964,18320
27968,18305
27974,18279
28132,18279
28130,18289
28121,18331
28107,18370
28088,18404
28066,18436
28040,18463
28009,18487
27975,18507
27936,18523
27894,18536
27848,18544
27847,18544
27831,18546
27811,18547
27790,18548
27769,18548
27750,18548
27735,18547
27732,18546
27692,18540
27653,18529
27616,18515
27583,18497
27576,18493
27563,18484
27549,18471
27534,18457
27520,18443
27509,18429
27508,18429
27485,18394
27466,18356
27451,18314
27439,18267
27431,18217
27427,18162
27427,18162
27427,18109
27431,18058
27432,18054
27582,18054
27982,18054
27982,18036
27979,17999
27971,17963
27959,17928
27955,17918
27939,17892
27920,17869
27898,17851
27882,17842
27854,17831
27824,17824
27793,17821
27762,17822
27733,17827
27706,17837
27706,17837
27678,17853
27653,17873
27632,17897
27615,17925
27601,17958
27591,17993
27584,18033
27584,18041
27582,18054
27432,18054
27440,18009
27452,17964
27467,17921
27487,17882
27510,17846
27536,17814
27566,17786
27598,17762
27622,17749
27643,17740
27668,17731
27694,17723
27720,17717
27726,17716
27742,17714
27762,17713
27784,17713
27807,17713
Z" /> 
<path style="fill:#000000; fill-opacity:1.0; 
stroke:#000000; stroke-width:3.93701; stroke-opacity:1; 
stroke-linecap:round; stroke-linejoin:round;fill-rule:evenodd;"
d="M 25275,18139
25282,18166
25294,18200
25310,18230
25330,18257
25353,18280
25379,18298
25396,18306
25414,18314
25432,18319
25451,18322
25473,18325
25488,18325
25515,18326
25539,18324
25560,18321
25581,18315
25591,18312
25614,18303
25635,18291
25654,18275
25665,18265
25686,18240
25703,18212
25715,18181
25724,18146
25726,18129
25727,18122
25727,18110
25727,18093
25728,18070
25728,18042
25728,18009
25729,17971
25729,17929
25729,17882
25729,17830
25729,17774
25729,17748
25729,17390
26043,17390
26043,17768
26043,17824
26043,17874
26043,17919
26043,17960
26043,17996
26042,18028
26042,18056
26042,18081
26042,18103
26041,18122
26041,18138
26040,18153
26039,18165
26038,18175
26037,18185
26036,18193
26035,18201
26034,18208
26032,18215
26030,18222
26028,18229
26028,18230
26013,18275
25994,18316
25970,18355
25942,18389
25910,18421
25873,18449
25833,18474
25788,18496
25738,18514
25685,18529
25628,18539
25615,18541
25604,18543
25588,18544
25569,18545
25549,18546
25527,18546
25505,18547
25484,18547
25466,18547
25451,18547
25440,18547
25439,18547
25414,18544
25394,18542
25376,18539
25360,18537
25344,18534
25337,18533
25283,18520
25233,18504
25187,18484
25144,18460
25106,18433
25072,18402
25042,18369
25017,18332
24996,18292
24980,18249
24975,18231
24973,18224
24971,18216
24969,18209
24968,18202
24966,18195
24965,18187
24964,18178
24963,18168
24962,18157
24962,18143
24961,18128
24961,18110
24960,18089
24960,18065
24960,18038
24960,18007
24960,17973
24960,17934
24960,17890
24960,17842
24960,17789
24960,17770
24960,17390
25273,17390
25275,18139
Z" /> 
</g>
<g style="fill:#000000; fill-opacity:0.0; 
stroke:#000000; stroke-width:3.93701; stroke-opacity:1; 
stroke-linecap:round; stroke-linejoin:round;">
</g>
<g style="fill:#000000; fill-opacity:0.0; 
stroke:#000000; stroke-width:59.0551; stroke-opacity:1; 
stroke-linecap:round; stroke-linejoin:round;">
<path d="M27594 21104
L27650 21122
L27744 21122
L27782 21104
L27800 21085
L27819 21047
L27819 21010
L27800 20973
L27782 20954
L27744 20935
L27669 20916
L27632 20898
L27613 20879
L27594 20841
L27594 20804
L27613 20766
L27632 20748
L27669 20729
L27763 20729
L27819 20748
" />
<path d="M27950 20729
L28044 21122
L28119 20841
L28194 21122
L28288 20729
" />
<path d="M28644 21122
L28419 21122
" />
<path d="M28532 21122
L28532 20729
L28494 20785
L28457 20823
L28419 20841
" />
<path d="M28888 20729
L28925 20729
L28963 20748
L28982 20766
L29000 20804
L29019 20879
L29019 20973
L29000 21047
L28982 21085
L28963 21104
L28925 21122
L28888 21122
L28850 21104
L28832 21085
L28813 21047
L28794 20973
L28794 20879
L28813 20804
L28832 20766
L28850 20748
L28888 20729
" />
<path d="M27594 27403
L27650 27422
L27744 27422
L27782 27403
L27800 27384
L27819 27347
L27819 27309
L27800 27272
L27782 27253
L27744 27234
L27669 27215
L27632 27197
L27613 27178
L27594 27140
L27594 27103
L27613 27065
L27632 27047
L27669 27028
L27763 27028
L27819 27047
" />
<path d="M27950 27028
L28044 27422
L28119 27140
L28194 27422
L28288 27028
" />
<path d="M28419 27065
L28438 27047
L28475 27028
L28569 27028
L28607 27047
L28625 27065
L28644 27103
L28644 27140
L28625 27197
L28400 27422
L28644 27422
" />
<path d="M28888 27028
L28925 27028
L28963 27047
L28982 27065
L29000 27103
L29019 27178
L29019 27272
L29000 27347
L28982 27384
L28963 27403
L28925 27422
L28888 27422
L28850 27403
L28832 27384
L28813 27347
L28794 27272
L28794 27178
L28813 27103
L28832 27065
L28850 27047
L28888 27028
" />
<path d="M27594 33702
L27650 33721
L27744 33721
L27782 33702
L27800 33683
L27819 33646
L27819 33608
L27800 33571
L27782 33552
L27744 33533
L27669 33515
L27632 33496
L27613 33477
L27594 33440
L27594 33402
L27613 33365
L27632 33346
L27669 33327
L27763 33327
L27819 33346
" />
<path d="M27950 33327
L28044 33721
L28119 33440
L28194 33721
L28288 33327
" />
<path d="M28400 33327
L28644 33327
L28513 33477
L28569 33477
L28607 33496
L28625 33515
L28644 33552
L28644 33646
L28625 33683
L28607 33702
L28569 33721
L28457 33721
L28419 33702
L28400 33683
" />
<path d="M28888 33327
L28925 33327
L28963 33346
L28982 33365
L29000 33402
L29019 33477
L29019 33571
L29000 33646
L28982 33683
L28963 33702
L28925 33721
L28888 33721
L28850 33702
L28832 33683
L28813 33646
L28794 33571
L28794 33477
L28813 33402
L28832 33365
L28850 33346
L28888 33327
" />
<path d="M27594 40001
L27650 40020
L27744 40020
L27782 40001
L27800 39983
L27819 39945
L27819 39908
L27800 39870
L27782 39851
L27744 39833
L27669 39814
L27632 39795
L27613 39776
L27594 39739
L27594 39701
L27613 39664
L27632 39645
L27669 39626
L27763 39626
L27819 39645
" />
<path d="M27950 39626
L28044 40020
L28119 39739
L28194 40020
L28288 39626
" />
<path d="M28607 39758
L28607 40020
" />
<path d="M28513 39608
L28419 39889
L28663 39889
" />
<path d="M28888 39626
L28925 39626
L28963 39645
L28982 39664
L29000 39701
L29019 39776
L29019 39870
L29000 39945
L28982 39983
L28963 40001
L28925 40020
L28888 40020
L28850 40001
L28832 39983
L28813 39945
L28794 39870
L28794 39776
L28813 39701
L28832 39664
L28850 39645
L28888 39626
" />
<path d="M27594 52600
L27650 52619
L27744 52619
L27782 52600
L27800 52581
L27819 52544
L27819 52506
L27800 52469
L27782 52450
L27744 52431
L27669 52412
L27632 52394
L27613 52375
L27594 52337
L27594 52300
L27613 52262
L27632 52244
L27669 52225
L27763 52225
L27819 52244
" />
<path d="M27950 52225
L28044 52619
L28119 52337
L28194 52619
L28288 52225
" />
<path d="M28607 52225
L28532 52225
L28494 52244
L28475 52262
L28438 52319
L28419 52394
L28419 52544
L28438 52581
L28457 52600
L28494 52619
L28569 52619
L28607 52600
L28625 52581
L28644 52544
L28644 52450
L28625 52412
L28607 52394
L28569 52375
L28494 52375
L28457 52394
L28438 52412
L28419 52450
" />
<path d="M28888 52225
L28925 52225
L28963 52244
L28982 52262
L29000 52300
L29019 52375
L29019 52469
L29000 52544
L28982 52581
L28963 52600
L28925 52619
L28888 52619
L28850 52600
L28832 52581
L28813 52544
L28794 52469
L28794 52375
L28813 52300
L28832 52262
L28850 52244
L28888 52225
" />
<path d="M27594 58899
L27650 58918
L27744 58918
L27782 58899
L27800 58880
L27819 58843
L27819 58805
L27800 58768
L27782 58749
L27744 58730
L27669 58712
L27632 58693
L27613 58674
L27594 58637
L27594 58599
L27613 58562
L27632 58543
L27669 58524
L27763 58524
L27819 58543
" />
<path d="M27950 58524
L28044 58918
L28119 58637
L28194 58918
L28288 58524
" />
<path d="M28400 58524
L28663 58524
L28494 58918
" />
<path d="M28888 58524
L28925 58524
L28963 58543
L28982 58562
L29000 58599
L29019 58674
L29019 58768
L29000 58843
L28982 58880
L28963 58899
L28925 58918
L28888 58918
L28850 58899
L28832 58880
L28813 58843
L28794 58768
L28794 58674
L28813 58599
L28832 58562
L28850 58543
L28888 58524
" />
<g >
</g>
<path d="M21614 64251
L21614 15433
" />
<path d="M49173 65826
L21614 65826
" />
<path d="M49173 15433
L49173 65826
" />
<path d="M21614 15433
L49173 15433
" />
<g >
</g>
<g >
</g>
<g >
</g>
<g >
</g>
<g >
</g>
<g >
</g>
<g >
</g>
<g >
</g>
<g >
</g>
<g >
</g>
<g >
</g>
<g >
</g>
<g >
</g>
<g >
</g>
<g >
</g>
<g >
</g>
<g >
</g>
<g >
</g>
<g >
</g>
<g >
</g>
<g >
</g>
<g >
</g>
<g >
</g>
<g >
</g>
<g >
</g>
<g >
</g>
<g >
</g>
<g >
</g>
<g >
</g>
<g >
</g>
<g >
</g>
<g >
</g>
<g >
</g>
<g >
</g>
<g >
</g>
<g >
</g>
<g >
</g>
<g >
</g>
<g >
</g>
<g >
</g>
<g >
</g>
<g >
</g>
<g >
</g>
<g >
</g>
<g >
</g>
<g >
</g>
<g >
</g>
<g >
</g>
<g >
</g>
<g >
</g>
<g >
</g>
</g> 
</svg>
