<?xml version="1.0" encoding="utf-8"?>
<!-- Generator: Adobe Illustrator 21.0.2, SVG Export Plug-In . SVG Version: 6.00 Build 0)  -->
<svg version="1.1" id="Layer_1" xmlns="http://www.w3.org/2000/svg" xmlns:xlink="http://www.w3.org/1999/xlink" x="0px" y="0px"
	 viewBox="0 0 576.1 564.2" style="enable-background:new 0 0 576.1 564.2;" xml:space="preserve">
<style type="text/css">
	.st0{fill-opacity:0;stroke:#000000;stroke-width:0.5;stroke-linecap:round;stroke-linejoin:round;}
	.st1{stroke:#000000;stroke-width:0.5;stroke-linecap:round;stroke-linejoin:round;}
	.st2{opacity:0;}
	.st3{fill:none;stroke:#000000;stroke-width:0.5;stroke-linecap:round;stroke-linejoin:round;}
</style>
<title>SVG Picture created as foodSampler_v10-brd.svg date 2019/10/02 16:17:09</title>
<desc>Picture generated by PCBNEW</desc>
<g transform="translate(0 0) scale(1 1)">
</g>
<path d="M165.2,460.9l0.3,0.1l0.9,0.4l0.8,0.5l0.7,0.7l0.5,0.8l0.4,0.9l0.2,0.9v0.9l-0.2,0.9l-0.4,0.8l-0.5,0.8l-0.7,0.6l-0.8,0.5
	l-0.9,0.4l-0.3,0.1l-0.6,0.1h-0.9l-0.6-0.1l-0.3-0.1l-0.8-0.4l-0.8-0.5l-0.6-0.6l-0.5-0.8l-0.4-0.8l-0.2-0.9V465l0.2-0.9l0.4-0.9
	l0.5-0.8l0.6-0.7l0.8-0.5l0.8-0.4l0.3-0.1l0.6-0.1h0.9L165.2,460.9z"/>
<path d="M193.3,447.3l0.5,0.2l0,0l0.4,0.3l0.4,0.4l0,0l0.3,0.4l0.2,0.5l0.1,0.5v0.5l-0.1,0.5l-0.2,0.5l0,0l-0.3,0.4l-0.4,0.4
	l-0.2,0.1l-0.2,0.2l-0.3,0.1l-0.1,0l-0.1,0l0,0.1l0,0.1l0,0.1l0,0.1l0,0.1l0,0.1l0,0.1l0,0.1l0.1,0l0.1,0l0.3,0.1l0,0l0.4,0.3
	l0.4,0.4l0,0l0.3,0.4l0.2,0.5l0.1,0.5v0.5l-0.1,0.5l-0.2,0.5l0,0l-0.3,0.4l-0.4,0.4l-0.2,0.2l-0.2,0.1l-0.5,0.2l-0.5,0.1h-0.5
	l-0.5-0.1l-0.5-0.2l-0.2-0.1l-0.2-0.2l-0.4-0.4l-0.3-0.4l0,0l-0.2-0.5l-0.1-0.5v-0.5l0.1-0.5l0.2-0.5l0.3-0.4l0,0l0.4-0.4l0.4-0.3
	l0,0l0.3-0.1l0.1,0l0.1,0l0-0.1l0-0.1l0-0.1v-0.1v-0.1l0-0.1l0-0.1l0-0.1l-0.1,0l-0.1,0l-0.3-0.1l-0.2-0.2l-0.2-0.1l-0.4-0.4
	l-0.3-0.4l0,0l-0.2-0.5l-0.1-0.5v-0.5l0.1-0.5l0.2-0.5l0.3-0.4l0,0l0.4-0.4l0.4-0.3l0,0l0.5-0.2l0.5-0.1h0.5L193.3,447.3z"/>
<path d="M211,441.6l0.5,0.2l0,0l0.4,0.3l0.4,0.4l0,0l0.3,0.4l0.2,0.5l0.1,0.5v0.5l-0.1,0.5l-0.2,0.5l0,0l-0.3,0.4l-0.4,0.4l-0.2,0.2
	l-0.2,0.1l-0.5,0.2l-0.5,0.1h-0.5l-0.5-0.1l-0.5-0.2l-0.2-0.1l-0.2-0.2l-0.4-0.4l-0.3-0.4l0,0l-0.2-0.5l-0.1-0.5v-0.5l0.1-0.5
	l0.2-0.5l0.3-0.4l0,0l0.4-0.4l0.4-0.3l0,0l0.5-0.2l0.5-0.1h0.5L211,441.6z"/>
<path d="M175.5,441.6l0.5,0.2l0,0l0.4,0.3l0.4,0.4l0,0l0.3,0.4l0.2,0.5l0.1,0.5v0.5l-0.1,0.5l-0.2,0.5l0,0l-0.3,0.4l-0.4,0.4
	l-0.2,0.2l-0.2,0.1l-0.5,0.2l-0.5,0.1h-0.5l-0.5-0.1l-0.5-0.2l-0.2-0.1l-0.2-0.2l-0.4-0.4l-0.3-0.4l0,0l-0.2-0.5l-0.1-0.5v-0.5
	l0.1-0.5l0.2-0.5l0.3-0.4l0,0l0.4-0.4l0.4-0.3l0,0l0.5-0.2l0.5-0.1h0.5L175.5,441.6z"/>
<path d="M211,427.4l0.5,0.2l0,0l0.4,0.3l0.4,0.4l0,0l0.3,0.4l0.2,0.5l0.1,0.5v0.5l-0.1,0.5l-0.2,0.5l0,0l-0.3,0.4l-0.4,0.4l-0.2,0.1
	l-0.2,0.2l-0.5,0.2l-0.5,0.1h-0.5l-0.5-0.1l-0.5-0.2l-0.2-0.2l-0.2-0.1l-0.4-0.4l-0.3-0.4l0,0l-0.2-0.5l-0.1-0.5v-0.5l0.1-0.5
	l0.2-0.5l0.3-0.4l0,0l0.4-0.4l0.4-0.3l0,0l0.5-0.2l0.5-0.1h0.5L211,427.4z"/>
<path d="M175.5,427.4l0.5,0.2l0,0l0.4,0.3l0.4,0.4l0,0l0.3,0.4l0.2,0.5l0.1,0.5v0.5l-0.1,0.5l-0.2,0.5l0,0l-0.3,0.4l-0.4,0.4
	l-0.2,0.1l-0.2,0.2l-0.5,0.2l-0.5,0.1h-0.5l-0.5-0.1l-0.5-0.2l-0.2-0.2l-0.2-0.1l-0.4-0.4l-0.3-0.4l0,0l-0.2-0.5l-0.1-0.5v-0.5
	l0.1-0.5l0.2-0.5l0.3-0.4l0,0l0.4-0.4l0.4-0.3l0,0l0.5-0.2l0.5-0.1h0.5L175.5,427.4z"/>
<path d="M193.3,416.1l0.5,0.2l0,0l0.4,0.3l0.4,0.4l0,0l0.3,0.4l0.2,0.5l0.1,0.5v0.5l-0.1,0.5l-0.2,0.5l0,0l-0.3,0.4l-0.4,0.4
	l-0.2,0.2l-0.2,0.1l-0.3,0.1l-0.1,0l-0.1,0l0,0.1l0,0.1l0,0.1l0,0.1l0,0.1l0,0.1l0,0.1l0,0.1l0.1,0l0.1,0l0.3,0.1l0,0l0.4,0.3
	l0.4,0.4l0,0l0.3,0.4l0.2,0.5l0.1,0.5v0.5l-0.1,0.5l-0.2,0.5l0,0l-0.3,0.4l-0.4,0.4l-0.2,0.2l-0.2,0.1l-0.5,0.2l-0.5,0.1h-0.5
	l-0.5-0.1l-0.5-0.2l-0.2-0.1l-0.2-0.2l-0.4-0.4l-0.3-0.4l0,0l-0.2-0.5l-0.1-0.5v-0.5l0.1-0.5l0.2-0.5l0.3-0.4l0,0l0.4-0.4l0.4-0.3
	l0,0l0.3-0.1l0.1,0l0.1,0l0-0.1l0-0.1l0-0.1v-0.1v-0.1l0-0.1l0-0.1l0-0.1l-0.1,0l-0.1,0l-0.3-0.1l-0.2-0.1l-0.2-0.2l-0.4-0.4
	l-0.3-0.4l0,0l-0.2-0.5l-0.1-0.5v-0.5l0.1-0.5l0.2-0.5l0.3-0.4l0,0l0.4-0.4l0.4-0.3l0,0l0.5-0.2l0.5-0.1h0.5L193.3,416.1z"/>
<path d="M193.3,401.9l0.5,0.2l0,0l0.4,0.3l0.4,0.4l0,0l0.3,0.4l0.2,0.5l0.1,0.5v0.5l-0.1,0.5l-0.2,0.5l0,0l-0.3,0.4l-0.4,0.4
	l-0.2,0.1l-0.3,0.2l-0.3,0.1l-0.1,0l-0.1,0.1l0,0.1l0,0.1l0,0.1l0,0.1l0,0.1l0,0.1l0,0.1l0,0.1l0.1,0l0.1,0l0.3,0.1l0,0l0.4,0.3
	l0.4,0.4l0,0l0.3,0.4l0.2,0.5l0.1,0.5v0.5l-0.1,0.5l-0.2,0.5l0,0l-0.3,0.4l-0.4,0.4l-0.2,0.1l-0.2,0.2l-0.5,0.2l-0.5,0.1h-0.5
	l-0.5-0.1l-0.5-0.2l-0.2-0.2l-0.2-0.1l-0.4-0.4l-0.3-0.4l0,0l-0.2-0.5l-0.1-0.5v-0.5l0.1-0.5l0.2-0.5l0.3-0.4l0,0l0.4-0.4l0.4-0.3
	l0,0l0.3-0.1l0.1,0l0.1,0l0-0.1l0-0.1l0-0.1v-0.1v-0.1l0-0.1l0-0.1l0-0.1l-0.1-0.1l-0.1,0l-0.3-0.1l-0.3-0.2l-0.2-0.1l-0.4-0.4
	l-0.3-0.4l0,0l-0.2-0.5l-0.1-0.5v-0.5l0.1-0.5l0.2-0.5l0.3-0.4l0,0l0.4-0.4l0.4-0.3l0,0l0.5-0.2l0.5-0.1h0.5L193.3,401.9z"/>
<path d="M175.5,396.2l0.5,0.2l0,0l0.4,0.3l0.4,0.4l0,0l0.3,0.4l0.2,0.5l0.1,0.5v0.5l-0.1,0.5l-0.2,0.5l0,0l-0.3,0.4l-0.4,0.4
	l-0.2,0.2l-0.2,0.1l-0.5,0.2l-0.5,0.1h-0.5l-0.5-0.1l-0.5-0.2l-0.2-0.1l-0.2-0.2l-0.4-0.4l-0.3-0.4l0,0l-0.2-0.5l-0.1-0.5v-0.5
	l0.1-0.5l0.2-0.5l0.3-0.4l0,0l0.4-0.4l0.4-0.3l0,0l0.5-0.2l0.5-0.1h0.5L175.5,396.2z"/>
<path d="M211,396.2l0.5,0.2l0,0l0.4,0.3l0.4,0.4l0,0l0.3,0.4l0.2,0.5l0.1,0.5v0.5l-0.1,0.5l-0.2,0.5l0,0l-0.3,0.4l-0.4,0.4l-0.2,0.2
	l-0.2,0.1l-0.5,0.2l-0.5,0.1h-0.5l-0.5-0.1l-0.5-0.2l-0.2-0.1l-0.2-0.2l-0.4-0.4l-0.3-0.4l0,0l-0.2-0.5l-0.1-0.5v-0.5l0.1-0.5
	l0.2-0.5l0.3-0.4l0,0l0.4-0.4l0.4-0.3l0,0l0.5-0.2l0.5-0.1h0.5L211,396.2z"/>
<path d="M175.5,382.1l0.5,0.2l0,0l0.4,0.3l0.4,0.4l0,0l0.3,0.4l0.2,0.5l0.1,0.5v0.5l-0.1,0.5l-0.2,0.5l0,0l-0.3,0.4l-0.4,0.4
	l-0.2,0.1L176,387l-0.5,0.2l-0.5,0.1h-0.5l-0.5-0.1l-0.5-0.2l-0.2-0.1l-0.2-0.1l-0.4-0.4l-0.3-0.4l0,0l-0.2-0.5l-0.1-0.5v-0.5
	l0.1-0.5l0.2-0.5l0.3-0.4l0,0l0.4-0.4l0.4-0.3l0,0l0.5-0.2l0.5-0.1h0.5L175.5,382.1z"/>
<path d="M211,382.1l0.5,0.2l0,0l0.4,0.3l0.4,0.4l0,0l0.3,0.4l0.2,0.5l0.1,0.5v0.5l-0.1,0.5l-0.2,0.5l0,0l-0.3,0.4l-0.4,0.4l-0.2,0.1
	l-0.2,0.1l-0.5,0.2l-0.5,0.1h-0.5l-0.5-0.1l-0.5-0.2l-0.2-0.1l-0.2-0.1l-0.4-0.4l-0.3-0.4l0,0l-0.2-0.5l-0.1-0.5v-0.5l0.1-0.5
	l0.2-0.5l0.3-0.4l0,0l0.4-0.4l0.4-0.3l0,0l0.5-0.2l0.5-0.1h0.5L211,382.1z"/>
<path d="M193.3,370.7l0.5,0.2l0,0l0.4,0.3l0.4,0.4l0,0l0.3,0.4l0.2,0.5l0.1,0.5v0.5l-0.1,0.5l-0.2,0.5l0,0l-0.3,0.4l-0.4,0.4
	l-0.2,0.1l-0.2,0.2l-0.3,0.1l-0.1,0l-0.1,0l0,0.1l0,0.1l0,0.1l0,0.1l0,0.1l0,0.1l0,0.1l0,0.1l0.1,0.1l0.1,0l0.3,0.1l0,0l0.4,0.3
	l0.4,0.4l0,0l0.3,0.4l0.2,0.5l0.1,0.5v0.5l-0.1,0.5l-0.2,0.5l0,0l-0.3,0.4l-0.4,0.4l-0.2,0.2l-0.2,0.1l-0.5,0.2l-0.5,0.1h-0.5
	l-0.5-0.1l-0.5-0.2l-0.2-0.1l-0.2-0.2l-0.4-0.4l-0.3-0.4l0,0l-0.2-0.5l-0.1-0.5v-0.5l0.1-0.5l0.2-0.5l0.3-0.4l0,0l0.4-0.4l0.4-0.3
	l0,0l0.3-0.1l0.1,0l0.1-0.1l0-0.1l0-0.1l0-0.1v-0.1v-0.1l0-0.1l0-0.1l0-0.1l-0.1,0l-0.1,0l-0.3-0.1l-0.2-0.2l-0.2-0.1l-0.4-0.4
	l-0.3-0.4l0,0l-0.2-0.5l-0.1-0.5V373l0.1-0.5l0.2-0.5l0.3-0.4l0,0l0.4-0.4l0.4-0.3l0,0l0.5-0.2l0.5-0.1h0.5L193.3,370.7z"/>
<path d="M193.3,356.5l0.5,0.2l0,0l0.4,0.3l0.4,0.4l0,0l0.3,0.4l0.2,0.5l0.1,0.5v0.5l-0.1,0.5l-0.2,0.5l0,0l-0.3,0.4l-0.4,0.4
	l-0.2,0.2l-0.2,0.1l-0.3,0.1l-0.1,0l-0.1,0l0,0.1l0,0.1l0,0.1l0,0.1l0,0.1l0,0.1l0,0.1l0,0.1l0.1,0l0.1,0l0.3,0.1l0,0l0.4,0.3
	l0.4,0.4l0,0l0.3,0.4l0.2,0.5l0.1,0.5v0.5l-0.1,0.5l-0.2,0.5l0,0l-0.3,0.4l-0.4,0.4L194,367l-0.2,0.2l-0.5,0.2l-0.5,0.1h-0.5
	l-0.5-0.1l-0.5-0.2L191,367l-0.2-0.1l-0.4-0.4l-0.3-0.4l0,0l-0.2-0.5l-0.1-0.5v-0.5l0.1-0.5l0.2-0.5l0.3-0.4l0,0l0.4-0.4l0.4-0.3
	l0,0l0.3-0.1l0.1,0l0.1,0l0-0.1l0-0.1l0-0.1V362v-0.1l0-0.1l0-0.1l0-0.1l-0.1,0l-0.1,0l-0.3-0.1l-0.2-0.1l-0.2-0.2l-0.4-0.4
	l-0.3-0.4l0,0l-0.2-0.5l-0.1-0.5v-0.5l0.1-0.5l0.2-0.5l0.3-0.4l0,0l0.4-0.4l0.4-0.3l0,0l0.5-0.2l0.5-0.1h0.5L193.3,356.5z"/>
<path d="M211,350.9l0.5,0.2l0,0l0.4,0.3l0.4,0.4l0,0l0.3,0.4l0.2,0.5l0.1,0.5v0.5l-0.1,0.5l-0.2,0.5l0,0l-0.3,0.4l-0.4,0.4l-0.2,0.1
	l-0.2,0.2l-0.5,0.2l-0.5,0.1h-0.5l-0.5-0.1l-0.5-0.2l-0.2-0.2l-0.2-0.1l-0.4-0.4l-0.3-0.4l0,0l-0.2-0.5l-0.1-0.5v-0.5l0.1-0.5
	l0.2-0.5l0.3-0.4l0,0l0.4-0.4l0.4-0.3l0,0l0.5-0.2l0.5-0.1h0.5L211,350.9z"/>
<path d="M175.5,350.9l0.5,0.2l0,0l0.4,0.3l0.4,0.4l0,0l0.3,0.4l0.2,0.5l0.1,0.5v0.5l-0.1,0.5l-0.2,0.5l0,0l-0.3,0.4l-0.4,0.4
	l-0.2,0.1l-0.2,0.2l-0.5,0.2l-0.5,0.1h-0.5l-0.5-0.1l-0.5-0.2l-0.2-0.2l-0.2-0.1l-0.4-0.4l-0.3-0.4l0,0l-0.2-0.5l-0.1-0.5v-0.5
	l0.1-0.5l0.2-0.5l0.3-0.4l0,0l0.4-0.4l0.4-0.3l0,0l0.5-0.2l0.5-0.1h0.5L175.5,350.9z"/>
<path d="M211,336.7l0.5,0.2l0,0l0.4,0.3l0.4,0.4l0,0l0.3,0.4l0.2,0.5l0.1,0.5v0.5l-0.1,0.5l-0.2,0.5l0,0l-0.3,0.4l-0.4,0.4l-0.2,0.2
	l-0.2,0.1l-0.5,0.2l-0.5,0.1h-0.5l-0.5-0.1l-0.5-0.2l-0.2-0.1l-0.2-0.2l-0.4-0.4l-0.3-0.4l0,0l-0.2-0.5l-0.1-0.5V339l0.1-0.5
	l0.2-0.5l0.3-0.4l0,0l0.4-0.4l0.4-0.3l0,0l0.5-0.2l0.5-0.1h0.5L211,336.7z"/>
<path d="M175.5,336.7l0.5,0.2l0,0l0.4,0.3l0.4,0.4l0,0l0.3,0.4l0.2,0.5l0.1,0.5v0.5l-0.1,0.5l-0.2,0.5l0,0l-0.3,0.4l-0.4,0.4
	l-0.2,0.2l-0.2,0.1l-0.5,0.2L175,342h-0.5l-0.5-0.1l-0.5-0.2l-0.2-0.1l-0.2-0.2l-0.4-0.4l-0.3-0.4l0,0l-0.2-0.5l-0.1-0.5V339
	l0.1-0.5l0.2-0.5l0.3-0.4l0,0l0.4-0.4l0.4-0.3l0,0l0.5-0.2l0.5-0.1h0.5L175.5,336.7z"/>
<path d="M193.3,325.4l0.5,0.2l0,0l0.4,0.3l0.4,0.4l0,0l0.3,0.4l0.2,0.5l0.1,0.5v0.5l-0.1,0.5l-0.2,0.5l0,0l-0.3,0.4l-0.4,0.4
	l-0.2,0.1l-0.2,0.1l-0.3,0.1l-0.1,0l-0.1,0.1l0,0.1l0,0.1l0,0.1l0,0.1l0,0.1l0,0.1l0,0.1l0,0.1l0.1,0l0.1,0l0.3,0.1l0,0l0.4,0.3
	l0.4,0.4l0,0l0.3,0.4l0.2,0.5l0.1,0.5v0.5l-0.1,0.5l-0.2,0.5l0,0l-0.3,0.4l-0.4,0.4l-0.2,0.2l-0.2,0.1l-0.5,0.2l-0.5,0.1h-0.5
	l-0.5-0.1l-0.5-0.2l-0.2-0.1l-0.2-0.2l-0.4-0.4l-0.3-0.4l0,0l-0.2-0.5l-0.1-0.5v-0.5l0.1-0.5l0.2-0.5l0.3-0.4l0,0l0.4-0.4l0.4-0.3
	l0,0l0.3-0.1l0.1,0l0.1,0l0-0.1l0-0.1l0-0.1v-0.1v-0.1l0-0.1l0-0.1l0-0.1l-0.1-0.1l-0.1,0l-0.3-0.1l-0.2-0.1l-0.2-0.1l-0.4-0.4
	l-0.3-0.4l0,0l-0.2-0.5l-0.1-0.5v-0.5l0.1-0.5l0.2-0.5l0.3-0.4l0,0l0.4-0.4l0.4-0.3l0,0l0.5-0.2l0.5-0.1h0.5L193.3,325.4z"/>
<path d="M193.3,311.2l0.5,0.2l0,0l0.4,0.3l0.4,0.4l0,0l0.3,0.4l0.2,0.5l0.1,0.5v0.5l-0.1,0.5l-0.2,0.5l0,0l-0.3,0.4l-0.4,0.4
	L194,316l-0.2,0.1l-0.3,0.1l-0.1,0l-0.1,0l0,0.1l0,0.1l0,0.1l0,0.1l0,0.1l0,0.1l0,0.1l0,0.1l0.1,0l0.1,0l0.3,0.1l0,0l0.4,0.3
	l0.4,0.4l0,0l0.3,0.4l0.2,0.5l0.1,0.5v0.5l-0.1,0.5l-0.2,0.5l0,0l-0.3,0.4l-0.4,0.4l-0.2,0.2l-0.2,0.1l-0.5,0.2l-0.5,0.1h-0.5
	l-0.5-0.1l-0.5-0.2l-0.2-0.1l-0.2-0.2l-0.4-0.4l-0.3-0.4l0,0l-0.2-0.5l-0.1-0.5v-0.5l0.1-0.5l0.2-0.5l0.3-0.4l0,0l0.4-0.4l0.4-0.3
	l0,0l0.3-0.1l0.1,0l0.1,0l0-0.1l0-0.1l0-0.1v-0.1v-0.1l0-0.1l0-0.1l0-0.1l-0.1,0l-0.1,0l-0.3-0.1L191,316l-0.2-0.2l-0.4-0.4
	l-0.3-0.4l0,0l-0.2-0.5l-0.1-0.5v-0.5l0.1-0.5l0.2-0.5l0.3-0.4l0,0l0.4-0.4l0.4-0.3l0,0l0.5-0.2l0.5-0.1h0.5L193.3,311.2z"/>
<path d="M211,305.5l0.5,0.2l0,0l0.4,0.3l0.4,0.4l0,0l0.3,0.4l0.2,0.5l0.1,0.5v0.5l-0.1,0.5l-0.2,0.5l0,0l-0.3,0.4l-0.4,0.4l-0.2,0.1
	l-0.2,0.2l-0.5,0.2l-0.5,0.1h-0.5l-0.5-0.1l-0.5-0.2l-0.2-0.2l-0.2-0.1l-0.4-0.4l-0.3-0.4l0,0l-0.2-0.5l-0.1-0.5v-0.5l0.1-0.5
	l0.2-0.5l0.3-0.4l0,0l0.4-0.4l0.4-0.3l0,0l0.5-0.2l0.5-0.1h0.5L211,305.5z"/>
<path d="M175.5,305.5l0.5,0.2l0,0l0.4,0.3l0.4,0.4l0,0l0.3,0.4l0.2,0.5l0.1,0.5v0.5l-0.1,0.5l-0.2,0.5l0,0l-0.3,0.4l-0.4,0.4
	l-0.2,0.1l-0.2,0.2l-0.5,0.2l-0.5,0.1h-0.5l-0.5-0.1l-0.5-0.2l-0.2-0.2l-0.2-0.1l-0.4-0.4l-0.3-0.4l0,0l-0.2-0.5l-0.1-0.5v-0.5
	l0.1-0.5l0.2-0.5l0.3-0.4l0,0l0.4-0.4l0.4-0.3l0,0l0.5-0.2l0.5-0.1h0.5L175.5,305.5z"/>
<path d="M211,291.3l0.5,0.2l0,0l0.4,0.3l0.4,0.4l0,0l0.3,0.4l0.2,0.5l0.1,0.5v0.5l-0.1,0.5l-0.2,0.5l0,0l-0.3,0.4l-0.4,0.4l-0.2,0.2
	l-0.2,0.1l-0.5,0.2l-0.5,0.1h-0.5l-0.5-0.1l-0.5-0.2l-0.2-0.1l-0.2-0.2l-0.4-0.4l-0.3-0.4l0,0l-0.2-0.5l-0.1-0.5v-0.5l0.1-0.5
	l0.2-0.5l0.3-0.4l0,0l0.4-0.4l0.4-0.3l0,0l0.5-0.2l0.5-0.1h0.5L211,291.3z"/>
<path d="M175.5,291.3l0.5,0.2l0,0l0.4,0.3l0.4,0.4l0,0l0.3,0.4l0.2,0.5l0.1,0.5v0.5l-0.1,0.5l-0.2,0.5l0,0l-0.3,0.4l-0.4,0.4
	l-0.2,0.2l-0.2,0.1l-0.5,0.2l-0.5,0.1h-0.5l-0.5-0.1l-0.5-0.2l-0.2-0.1L173,296l-0.4-0.4l-0.3-0.4l0,0l-0.2-0.5l-0.1-0.5v-0.5
	l0.1-0.5l0.2-0.5l0.3-0.4l0,0l0.4-0.4l0.4-0.3l0,0l0.5-0.2l0.5-0.1h0.5L175.5,291.3z"/>
<path d="M193.3,280l0.5,0.2l0,0l0.4,0.3l0.4,0.4l0,0l0.3,0.4l0.2,0.5l0.1,0.5v0.5l-0.1,0.5l-0.2,0.5l0,0l-0.3,0.4l-0.4,0.4l-0.2,0.2
	l-0.2,0.1l-0.3,0.1l-0.1,0l-0.1,0l0,0.1l0,0.1l0,0.1l0,0.1l0,0.1l0,0.1l0,0.1l0,0.1l0.1,0l0.1,0l0.3,0.1l0,0l0.4,0.3l0.4,0.4l0,0
	l0.3,0.4l0.2,0.5l0.1,0.5v0.5l-0.1,0.5l-0.2,0.5l0,0l-0.3,0.4l-0.4,0.4l-0.2,0.1l-0.2,0.2l-0.5,0.2l-0.5,0.1h-0.5l-0.5-0.1l-0.5-0.2
	l-0.2-0.2l-0.2-0.1l-0.4-0.4l-0.3-0.4l0,0l-0.2-0.5l-0.1-0.5V288l0.1-0.5l0.2-0.5l0.3-0.4l0,0l0.4-0.4l0.4-0.3l0,0l0.3-0.1l0.1,0
	l0.1,0l0-0.1l0-0.1l0-0.1v-0.1v-0.1l0-0.1l0-0.1l0-0.1l-0.1,0l-0.1,0l-0.3-0.1l-0.2-0.1l-0.2-0.2l-0.4-0.4l-0.3-0.4l0,0l-0.2-0.5
	l-0.1-0.5v-0.5l0.1-0.5l0.2-0.5l0.3-0.4l0,0l0.4-0.4l0.4-0.3l0,0l0.5-0.2l0.5-0.1h0.5L193.3,280z"/>
<path d="M193.3,265.8l0.5,0.2l0,0l0.4,0.3l0.4,0.4l0,0l0.3,0.4l0.2,0.5l0.1,0.5v0.5l-0.1,0.5l-0.2,0.5l0,0l-0.3,0.4l-0.4,0.4
	l-0.2,0.1l-0.2,0.2l-0.3,0.1l-0.1,0l-0.1,0l0,0.1l0,0.1l0,0.1l0,0.1l0,0.1l0,0.1l0,0.1l0,0.1l0.1,0.1l0.1,0l0.3,0.1l0,0l0.4,0.3
	l0.4,0.4l0,0l0.3,0.4l0.2,0.5l0.1,0.5v0.5l-0.1,0.5l-0.2,0.5l0,0l-0.3,0.4l-0.4,0.4l-0.2,0.2l-0.2,0.1l-0.5,0.2l-0.5,0.1h-0.5
	l-0.5-0.1l-0.5-0.2l-0.2-0.1l-0.2-0.2l-0.4-0.4l-0.3-0.4l0,0l-0.2-0.5l-0.1-0.5v-0.5l0.1-0.5l0.2-0.5l0.3-0.4l0,0l0.4-0.4l0.4-0.3
	l0,0l0.3-0.1l0.1,0l0.1-0.1l0-0.1l0-0.1l0-0.1v-0.1v-0.1l0-0.1l0-0.1l0-0.1l-0.1,0l-0.1,0l-0.3-0.1l-0.2-0.2l-0.2-0.1l-0.4-0.4
	l-0.3-0.4l0,0l-0.2-0.5l-0.1-0.5v-0.5l0.1-0.5l0.2-0.5l0.3-0.4l0,0l0.4-0.4l0.4-0.3l0,0l0.5-0.2l0.5-0.1h0.5L193.3,265.8z"/>
<path d="M211,260.2l0.5,0.2l0,0l0.4,0.3l0.4,0.4l0,0l0.3,0.4l0.2,0.5l0.1,0.5v0.5l-0.1,0.5l-0.2,0.5l0,0l-0.3,0.4l-0.4,0.4l-0.2,0.2
	l-0.2,0.1l-0.5,0.2l-0.5,0.1h-0.5l-0.5-0.1l-0.5-0.2l-0.2-0.1l-0.2-0.2l-0.4-0.4l-0.3-0.4l0,0l-0.2-0.5l-0.1-0.5v-0.5l0.1-0.5
	l0.2-0.5l0.3-0.4l0,0l0.4-0.4l0.4-0.3l0,0l0.5-0.2l0.5-0.1h0.5L211,260.2z"/>
<path d="M175.5,260.2l0.5,0.2l0,0l0.4,0.3l0.4,0.4l0,0l0.3,0.4l0.2,0.5l0.1,0.5v0.5l-0.1,0.5l-0.2,0.5l0,0l-0.3,0.4l-0.4,0.4
	l-0.2,0.2l-0.2,0.1l-0.5,0.2l-0.5,0.1h-0.5l-0.5-0.1l-0.5-0.2l-0.2-0.1l-0.2-0.2l-0.4-0.4l-0.3-0.4l0,0l-0.2-0.5l-0.1-0.5v-0.5
	l0.1-0.5l0.2-0.5l0.3-0.4l0,0l0.4-0.4l0.4-0.3l0,0l0.5-0.2l0.5-0.1h0.5L175.5,260.2z"/>
<path d="M211,246l0.5,0.2l0,0l0.4,0.3l0.4,0.4l0,0l0.3,0.4l0.2,0.5l0.1,0.5v0.5l-0.1,0.5l-0.2,0.5l0,0l-0.3,0.4l-0.4,0.4l-0.2,0.2
	l-0.2,0.1l-0.5,0.2l-0.5,0.1h-0.5l-0.5-0.1l-0.5-0.2l-0.2-0.1l-0.2-0.2l-0.4-0.4l-0.3-0.4l0,0l-0.2-0.5l-0.1-0.5v-0.5l0.1-0.5
	l0.2-0.5l0.3-0.4l0,0l0.4-0.4l0.4-0.3l0,0l0.5-0.2l0.5-0.1h0.5L211,246z"/>
<path d="M175.5,246l0.5,0.2l0,0l0.4,0.3l0.4,0.4l0,0l0.3,0.4l0.2,0.5l0.1,0.5v0.5l-0.1,0.5l-0.2,0.5l0,0l-0.3,0.4l-0.4,0.4l-0.2,0.2
	L176,251l-0.5,0.2l-0.5,0.1h-0.5l-0.5-0.1l-0.5-0.2l-0.2-0.1l-0.2-0.2l-0.4-0.4l-0.3-0.4l0,0l-0.2-0.5l-0.1-0.5v-0.5l0.1-0.5
	l0.2-0.5l0.3-0.4l0,0l0.4-0.4l0.4-0.3l0,0l0.5-0.2l0.5-0.1h0.5L175.5,246z"/>
<path d="M193.3,234.7l0.5,0.2l0,0l0.4,0.3l0.4,0.4l0,0l0.3,0.4l0.2,0.5l0.1,0.5v0.5l-0.1,0.5l-0.2,0.5l0,0l-0.3,0.4l-0.4,0.4
	l-0.2,0.2l-0.2,0.1l-0.3,0.1l-0.1,0l-0.1,0l0,0.1l0,0.1l0,0.1l0,0.1l0,0.1l0,0.1l0,0.1l0,0.1l0.1,0l0.1,0l0.3,0.1l0,0l0.4,0.3
	l0.4,0.4l0,0l0.3,0.4l0.2,0.5l0.1,0.5v0.5l-0.1,0.5l-0.2,0.5l0,0l-0.3,0.4l-0.4,0.4l-0.2,0.2l-0.2,0.1l-0.5,0.2l-0.5,0.1h-0.5
	l-0.5-0.1l-0.5-0.2l-0.2-0.1l-0.2-0.2l-0.4-0.4l-0.3-0.4l0,0l-0.2-0.5l-0.1-0.5v-0.5l0.1-0.5l0.2-0.5l0.3-0.4l0,0l0.4-0.4l0.4-0.3
	l0,0l0.3-0.1l0.1,0l0.1,0l0-0.1l0-0.1l0-0.1v-0.1V240l0-0.1l0-0.1l0-0.1l-0.1,0l-0.1,0l-0.3-0.1l-0.2-0.1l-0.2-0.2l-0.4-0.4
	l-0.3-0.4l0,0l-0.2-0.5l-0.1-0.5V237l0.1-0.5l0.2-0.5l0.3-0.4l0,0l0.4-0.4l0.4-0.3l0,0l0.5-0.2l0.5-0.1h0.5L193.3,234.7z"/>
<path d="M193.3,220.5l0.5,0.2l0,0l0.4,0.3l0.4,0.4l0,0l0.3,0.4l0.2,0.5l0.1,0.5v0.5l-0.1,0.5l-0.2,0.5l0,0l-0.3,0.4l-0.4,0.4
	l-0.2,0.1l-0.2,0.2l-0.3,0.1l-0.1,0l-0.1,0l0,0.1l0,0.1l0,0.1l0,0.1l0,0.1l0,0.1l0,0.1l0,0.1l0.1,0l0.1,0l0.3,0.1l0,0l0.4,0.3
	l0.4,0.4l0,0l0.3,0.4l0.2,0.5l0.1,0.5v0.5l-0.1,0.5l-0.2,0.5l0,0l-0.3,0.4l-0.4,0.4L194,231l-0.2,0.1l-0.5,0.2l-0.5,0.1h-0.5
	l-0.5-0.1l-0.5-0.2L191,231l-0.2-0.2l-0.4-0.4l-0.3-0.4l0,0l-0.2-0.5l-0.1-0.5v-0.5l0.1-0.5l0.2-0.5l0.3-0.4l0,0l0.4-0.4l0.4-0.3
	l0,0l0.3-0.1l0.1,0l0.1,0l0-0.1l0-0.1l0-0.1v-0.1v-0.1l0-0.1l0-0.1l0-0.1l-0.1,0l-0.1,0l-0.3-0.1l-0.2-0.2l-0.2-0.1l-0.4-0.4
	l-0.3-0.4l0,0l-0.2-0.5l-0.1-0.5v-0.5l0.1-0.5l0.2-0.5l0.3-0.4l0,0l0.4-0.4l0.4-0.3l0,0l0.5-0.2l0.5-0.1h0.5L193.3,220.5z"/>
<path d="M175.5,214.8l0.5,0.2l0,0l0.4,0.3l0.4,0.4l0,0l0.3,0.4l0.2,0.5l0.1,0.5v0.5l-0.1,0.5l-0.2,0.5l0,0l-0.3,0.4l-0.4,0.4
	l-0.2,0.2l-0.2,0.1l-0.5,0.2l-0.5,0.1h-0.5L174,220l-0.5-0.2l-0.2-0.1l-0.2-0.2l-0.4-0.4l-0.3-0.4l0,0l-0.2-0.5l-0.1-0.5v-0.5
	l0.1-0.5l0.2-0.5l0.3-0.4l0,0l0.4-0.4l0.4-0.3l0,0l0.5-0.2l0.5-0.1h0.5L175.5,214.8z"/>
<path d="M211,214.8l0.5,0.2l0,0l0.4,0.3l0.4,0.4l0,0l0.3,0.4l0.2,0.5l0.1,0.5v0.5l-0.1,0.5l-0.2,0.5l0,0l-0.3,0.4l-0.4,0.4l-0.2,0.2
	l-0.2,0.1L211,220l-0.5,0.1h-0.5l-0.5-0.1l-0.5-0.2l-0.2-0.1l-0.2-0.2l-0.4-0.4l-0.3-0.4l0,0l-0.2-0.5l-0.1-0.5v-0.5l0.1-0.5
	l0.2-0.5l0.3-0.4l0,0l0.4-0.4l0.4-0.3l0,0l0.5-0.2l0.5-0.1h0.5L211,214.8z"/>
<path d="M175.5,200.6l0.5,0.2l0,0l0.4,0.3l0.4,0.4l0,0l0.3,0.4l0.2,0.5l0.1,0.5v0.5l-0.1,0.5l-0.2,0.5l0,0l-0.3,0.4l-0.4,0.4
	l-0.2,0.1l-0.2,0.2l-0.5,0.2l-0.5,0.1h-0.5l-0.5-0.1l-0.5-0.2l-0.2-0.2l-0.2-0.1l-0.4-0.4l-0.3-0.4l0,0l-0.2-0.5l-0.1-0.5V203
	l0.1-0.5l0.2-0.5l0.3-0.4l0,0l0.4-0.4l0.4-0.3l0,0l0.5-0.2l0.5-0.1h0.5L175.5,200.6z"/>
<path d="M211,200.6l0.5,0.2l0,0l0.4,0.3l0.4,0.4l0,0l0.3,0.4l0.2,0.5l0.1,0.5v0.5l-0.1,0.5l-0.2,0.5l0,0l-0.3,0.4l-0.4,0.4l-0.2,0.1
	l-0.2,0.2l-0.5,0.2l-0.5,0.1h-0.5l-0.5-0.1l-0.5-0.2l-0.2-0.2l-0.2-0.1l-0.4-0.4l-0.3-0.4l0,0l-0.2-0.5l-0.1-0.5V203l0.1-0.5
	l0.2-0.5l0.3-0.4l0,0l0.4-0.4l0.4-0.3l0,0l0.5-0.2l0.5-0.1h0.5L211,200.6z"/>
<path d="M193.3,189.3l0.5,0.2l0,0l0.4,0.3l0.4,0.4l0,0l0.3,0.4l0.2,0.5l0.1,0.5v0.5l-0.1,0.5l-0.2,0.5l0,0l-0.3,0.4l-0.4,0.4
	l-0.2,0.1l-0.2,0.2l-0.3,0.1l-0.1,0l-0.1,0l0,0.1l0,0.1l0,0.1l0,0.1l0,0.1l0,0.1l0,0.1l0,0.1l0.1,0l0.1,0l0.3,0.1l0,0l0.4,0.3
	l0.4,0.4l0,0l0.3,0.4l0.2,0.5l0.1,0.5v0.5l-0.1,0.5l-0.2,0.5l0,0l-0.3,0.4l-0.4,0.4l-0.2,0.2l-0.2,0.1l-0.5,0.2l-0.5,0.1h-0.5
	l-0.5-0.1l-0.5-0.2l-0.2-0.1l-0.2-0.2l-0.4-0.4l-0.3-0.4l0,0l-0.2-0.5l-0.1-0.5v-0.5l0.1-0.5l0.2-0.5l0.3-0.4l0,0l0.4-0.4l0.4-0.3
	l0,0l0.3-0.1l0.1,0l0.1,0l0-0.1l0-0.1l0-0.1v-0.1v-0.1l0-0.1l0-0.1l0-0.1l-0.1,0l-0.1,0l-0.3-0.1l-0.2-0.2l-0.2-0.1l-0.4-0.4
	l-0.3-0.4l0,0l-0.2-0.5l-0.1-0.5v-0.5l0.1-0.5l0.2-0.5l0.3-0.4l0,0l0.4-0.4l0.4-0.3l0,0l0.5-0.2l0.5-0.1h0.5L193.3,189.3z"/>
<path d="M193.3,175.1l0.5,0.2l0,0l0.4,0.3l0.4,0.4l0,0l0.3,0.4l0.2,0.5l0.1,0.5v0.5l-0.1,0.5l-0.2,0.5l0,0l-0.3,0.4l-0.4,0.4
	L194,180l-0.2,0.1l-0.3,0.1l-0.1,0l-0.1,0l0,0.1l0,0.1l0,0.1l0,0.1l0,0.1l0,0.1l0,0.1l0,0.1l0.1,0l0.1,0l0.3,0.1l0,0l0.4,0.3
	l0.4,0.4l0,0l0.3,0.4l0.2,0.5l0.1,0.5v0.5l-0.1,0.5l-0.2,0.5l0,0l-0.3,0.4l-0.4,0.4l-0.2,0.1l-0.2,0.2l-0.5,0.2l-0.5,0.1h-0.5
	l-0.5-0.1l-0.5-0.2l-0.2-0.2l-0.2-0.1l-0.4-0.4l-0.3-0.4l0,0l-0.2-0.5l-0.1-0.5v-0.5l0.1-0.5l0.2-0.5l0.3-0.4l0,0l0.4-0.4l0.4-0.3
	l0,0l0.3-0.1l0.1,0l0.1,0l0-0.1l0-0.1l0-0.1v-0.1v-0.1l0-0.1l0-0.1l0-0.1l-0.1,0l-0.1,0l-0.3-0.1L191,180l-0.2-0.2l-0.4-0.4
	l-0.3-0.4l0,0l-0.2-0.5l-0.1-0.5v-0.5l0.1-0.5l0.2-0.5l0.3-0.4l0,0l0.4-0.4l0.4-0.3l0,0l0.5-0.2l0.5-0.1h0.5L193.3,175.1z"/>
<path d="M175.5,169.5l0.5,0.2l0,0l0.4,0.3l0.4,0.4l0,0l0.3,0.4l0.2,0.5l0.1,0.5v0.5l-0.1,0.5l-0.2,0.5l0,0l-0.3,0.4l-0.4,0.4
	l-0.2,0.2l-0.2,0.1l-0.5,0.2l-0.5,0.1h-0.5l-0.5-0.1l-0.5-0.2l-0.2-0.1l-0.2-0.2l-0.4-0.4l-0.3-0.4l0,0l-0.2-0.5l-0.1-0.5v-0.5
	l0.1-0.5l0.2-0.5l0.3-0.4l0,0l0.4-0.4l0.4-0.3l0,0l0.5-0.2l0.5-0.1h0.5L175.5,169.5z"/>
<path d="M211,169.5l0.5,0.2l0,0l0.4,0.3l0.4,0.4l0,0l0.3,0.4l0.2,0.5l0.1,0.5v0.5l-0.1,0.5l-0.2,0.5l0,0l-0.3,0.4l-0.4,0.4l-0.2,0.2
	l-0.2,0.1l-0.5,0.2l-0.5,0.1h-0.5l-0.5-0.1l-0.5-0.2l-0.2-0.1l-0.2-0.2l-0.4-0.4l-0.3-0.4l0,0l-0.2-0.5l-0.1-0.5v-0.5l0.1-0.5
	l0.2-0.5l0.3-0.4l0,0l0.4-0.4l0.4-0.3l0,0l0.5-0.2l0.5-0.1h0.5L211,169.5z"/>
<path d="M211,155.3l0.5,0.2l0,0l0.4,0.3l0.4,0.4l0,0l0.3,0.4l0.2,0.5l0.1,0.5v0.5l-0.1,0.5l-0.2,0.5l0,0l-0.3,0.4l-0.4,0.4l-0.2,0.2
	l-0.2,0.1l-0.5,0.2l-0.5,0.1h-0.5l-0.5-0.1l-0.5-0.2l-0.2-0.1l-0.2-0.2l-0.4-0.4l-0.3-0.4l0,0l-0.2-0.5l-0.1-0.5v-0.5l0.1-0.5
	l0.2-0.5l0.3-0.4l0,0l0.4-0.4l0.4-0.3l0,0l0.5-0.2l0.5-0.1h0.5L211,155.3z"/>
<path d="M175.5,155.3l0.5,0.2l0,0l0.4,0.3l0.4,0.4l0,0l0.3,0.4l0.2,0.5l0.1,0.5v0.5l-0.1,0.5l-0.2,0.5l0,0l-0.3,0.4l-0.4,0.4
	l-0.2,0.2l-0.2,0.1l-0.5,0.2l-0.5,0.1h-0.5l-0.5-0.1l-0.5-0.2l-0.2-0.1L173,160l-0.4-0.4l-0.3-0.4l0,0l-0.2-0.5l-0.1-0.5v-0.5
	l0.1-0.5l0.2-0.5l0.3-0.4l0,0l0.4-0.4l0.4-0.3l0,0l0.5-0.2l0.5-0.1h0.5L175.5,155.3z"/>
<path d="M193.3,143.9l0.5,0.2l0,0l0.4,0.3l0.4,0.4l0,0l0.3,0.4l0.2,0.5l0.1,0.5v0.5l-0.1,0.5l-0.2,0.5l0,0l-0.3,0.4l-0.4,0.4
	l-0.2,0.1l-0.2,0.2l-0.3,0.1l-0.1,0l-0.1,0l0,0.1l0,0.1l0,0.1l0,0.1l0,0.1l0,0.1l0,0.1l0,0.1l0.1,0l0.1,0l0.3,0.1l0,0l0.4,0.3
	l0.4,0.4l0,0l0.3,0.4l0.2,0.5l0.1,0.5v0.5l-0.1,0.5l-0.2,0.5l0,0l-0.3,0.4l-0.4,0.4l-0.2,0.2l-0.2,0.1l-0.5,0.2l-0.5,0.1h-0.5
	l-0.5-0.1l-0.5-0.2l-0.2-0.1l-0.2-0.2l-0.4-0.4l-0.3-0.4l0,0l-0.2-0.5l-0.1-0.5v-0.5l0.1-0.5l0.2-0.5l0.3-0.4l0,0l0.4-0.4l0.4-0.3
	l0,0l0.3-0.1l0.1,0l0.1,0l0-0.1l0-0.1l0-0.1v-0.1v-0.1l0-0.1l0-0.1l0-0.1l-0.1,0l-0.1,0l-0.3-0.1l-0.2-0.2l-0.2-0.1l-0.4-0.4
	l-0.3-0.4l0,0l-0.2-0.5l-0.1-0.5v-0.5l0.1-0.5l0.2-0.5l0.3-0.4l0,0l0.4-0.4l0.4-0.3l0,0l0.5-0.2l0.5-0.1h0.5L193.3,143.9z"/>
<path d="M165.2,115l0.3,0.1l0.9,0.4l0.8,0.5l0.7,0.6l0.5,0.8l0.4,0.8l0.2,0.9v0.9l-0.2,0.9l-0.4,0.9l-0.5,0.8l-0.7,0.7l-0.8,0.5
	l-0.9,0.4l-0.3,0.1l-0.6,0.1h-0.9l-0.6-0.1l-0.3-0.1l-0.8-0.4l-0.8-0.5l-0.6-0.7l-0.5-0.8l-0.4-0.9l-0.2-0.9v-0.9l0.2-0.9l0.4-0.8
	l0.5-0.8l0.6-0.6l0.8-0.5l0.8-0.4l0.3-0.1l0.6-0.1h0.9L165.2,115z"/>
<path d="M346.6,115l0.3,0.1l0.9,0.4l0.8,0.5l0.7,0.6l0.5,0.8l0.4,0.8l0.2,0.9v0.9L350,121l-0.4,0.9l-0.5,0.8l-0.7,0.7l-0.8,0.5
	l-0.9,0.4l-0.3,0.1l-0.6,0.1h-0.9l-0.6-0.1l-0.3-0.1l-0.8-0.4l-0.8-0.5l-0.6-0.7l-0.5-0.8L341,121l-0.2-0.9v-0.9l0.2-0.9l0.4-0.8
	l0.5-0.8l0.6-0.6l0.8-0.5l0.8-0.4l0.3-0.1l0.6-0.1h0.9L346.6,115z"/>
<g>
	<path class="st0" d="M175.5,148h34"/>
	<path class="st0" d="M209.5,148v34"/>
	<path class="st0" d="M209.5,182h-34"/>
	<path class="st0" d="M175.5,182v-34"/>
	<path class="st0" d="M174,152.2v-5.7"/>
	<path class="st0" d="M174,146.5h4.2"/>
	<path class="st0" d="M178.3,146.5h1.4"/>
	<path class="st0" d="M178.3,191.9h1.4"/>
	<path class="st0" d="M174,191.9h4.2"/>
	<path class="st0" d="M174,197.6v-5.7"/>
	<path class="st0" d="M175.5,227.3v-34"/>
	<path class="st0" d="M209.5,227.3h-34"/>
	<path class="st0" d="M209.5,193.3v34"/>
	<path class="st0" d="M175.5,193.3h34"/>
	<path class="st0" d="M175.5,238.7h34"/>
	<path class="st0" d="M209.5,238.7v34"/>
	<path class="st0" d="M209.5,272.7h-34"/>
	<path class="st0" d="M175.5,272.7v-34"/>
	<path class="st0" d="M174,242.9v-5.7"/>
	<path class="st0" d="M174,237.2h4.2"/>
	<path class="st0" d="M178.3,237.2h1.4"/>
	<path class="st0" d="M178.3,282.6h1.4"/>
	<path class="st0" d="M174,282.6h4.2"/>
	<path class="st0" d="M174,288.3v-5.7"/>
	<path class="st0" d="M175.5,318v-34"/>
	<path class="st0" d="M209.5,318h-34"/>
	<path class="st0" d="M209.5,284v34"/>
	<path class="st0" d="M175.5,284h34"/>
	<path class="st0" d="M175.5,329.4h34"/>
	<path class="st0" d="M209.5,329.4v34"/>
	<path class="st0" d="M209.5,363.4h-34"/>
	<path class="st0" d="M175.5,363.4v-34"/>
	<path class="st0" d="M174,333.6V328"/>
	<path class="st0" d="M174,328h4.2"/>
	<path class="st0" d="M178.3,328h1.4"/>
	<path class="st0" d="M178.3,373.3h1.4"/>
	<path class="st0" d="M174,373.3h4.2"/>
	<path class="st0" d="M174,379v-5.7"/>
	<path class="st0" d="M175.5,408.7v-34"/>
	<path class="st0" d="M209.5,408.7h-34"/>
	<path class="st0" d="M209.5,374.7v34"/>
	<path class="st0" d="M175.5,374.7h34"/>
	<path class="st0" d="M175.5,420.1h34"/>
	<path class="st0" d="M209.5,420.1v34"/>
	<path class="st0" d="M209.5,454.1h-34"/>
	<path class="st0" d="M175.5,454.1v-34"/>
	<path class="st0" d="M174,424.3v-5.7"/>
	<path class="st0" d="M174,418.7h4.2"/>
	<path class="st0" d="M178.3,418.7h1.4"/>
</g>
<g>
	<path class="st1" d="M181.2,117L181.2,117l0,0.1v0l0,0.2l-0.1,0.2l-0.1,0.2l-0.1,0.2l-0.1,0.1l-0.1,0.1l-0.1,0.1l-0.1,0.1l-0.1,0.1
		l-0.1,0.1l-0.1,0.1l-0.1,0.1l-0.2,0.1l-0.2,0.1l-0.1,0l-0.2,0.2l-0.2,0.2l-0.2,0.1l-0.2,0.1l-0.1,0.1l-0.1,0.1l-0.1,0.1l-0.1,0.1
		l-0.1,0.1l0,0l-0.1,0.1l-0.1,0.1l0,0.1l0,0.1l0,0l0,0.2l0,0.2l0.1,0.1l0.1,0.1l0.1,0.1l0.1,0.1l0.2,0l0.1,0l0.2,0l0.2-0.1l0.2-0.1
		l0.2-0.1l0.2-0.2l0.1-0.1l0.1-0.1l0.1,0l0.1,0l0,0l0,0.1l0,0.1l0,0.1l-0.1,0.2v0l-0.2,0.4l-0.2,0.4l-0.2,0.4l-0.2,0.4l-0.3,0.3
		l-0.3,0.3l-0.3,0.3l-0.3,0.3L178,124l-0.3,0.2l-0.3,0.2l-0.3,0.1l-0.3,0.1l-0.2,0.1l-0.1,0l-0.1,0l-0.1,0h-0.1h-0.1l0,0l0,0l0,0
		l0,0l0.1,0l0.1-0.1l0.1,0l0.1-0.1l0.1-0.1l0.1-0.1l0,0l0.2-0.2l0.2-0.2l0.2-0.2l0.1-0.2l0.1-0.2l0.1-0.1l0.1-0.2l0.1-0.2l0-0.2
		l0-0.2l0-0.2l0-0.2l0-0.1l0-0.1v0l0,0l0,0h0l0,0l0,0l-0.1,0.1l0,0l-0.1,0.1l-0.1,0.1l-0.1,0.1l-0.1,0.1l-0.1,0.1l-0.1,0.1l-0.2,0.1
		l-0.2,0.1l-0.2,0l-0.2,0l-0.1,0l-0.1-0.1l-0.1-0.1l-0.1-0.1l-0.1-0.1l0-0.2l0-0.1l0-0.1l0-0.1l0-0.1l0-0.1l0.1-0.1l0.1-0.1l0.1-0.1
		l0.1-0.1l0.1-0.1l0.1-0.1l0.1-0.1l0.1-0.1l0.1-0.1l0,0l0.1-0.1l0-0.1l0-0.1l0-0.1l0-0.1v0l0-0.1l0,0l0,0l0,0l-0.1,0.1l-0.1,0.1l0,0
		l-0.1,0.2l-0.2,0.2l-0.2,0.2l-0.2,0.2l-0.1,0.1l-0.1,0.1l-0.1,0.1l-0.1,0.1l-0.1,0.1l0,0l-0.2,0.1l-0.2,0.1l-0.2,0.1l-0.1,0.1
		l-0.1,0.1l-0.1,0.1l-0.1,0.2l-0.1,0.2l-0.1,0.2l-0.1,0.2l0,0.2l0,0.2l0,0.2l0,0.2l0,0.1l0,0.1l0,0.1l0,0l0,0h0l0,0l0-0.1l0-0.1
		l0-0.1l0-0.2l0-0.2l-0.1-0.4l0-0.4l0-0.4l0-0.3l0.1-0.3l0.1-0.3l0.2-0.3l0.2-0.3l0,0l0.2-0.3l0.3-0.3l0.3-0.3l0.3-0.2l0.4-0.2
		l0.4-0.2l0.4-0.2l0.3-0.1l0.1-0.1l0.1,0l0.1,0l0.1,0l0.1,0l0.2,0l0.2-0.1l0.2-0.1l0.2-0.1l0.2-0.1l0.2,0l0.2-0.1l0.2,0l0.2,0l0.1,0
		l0.1,0l0,0l0.4-0.1l0.3-0.1l0.3-0.1l0.3-0.2l0.2-0.2l0.1-0.1l0.1-0.1l0.1-0.1l0.1-0.1l0-0.1l0,0l0-0.1L181.2,117L181.2,117
		L181.2,117L181.2,117z"/>
	<path class="st1" d="M209.2,125l0.2,0l0.2,0l0.2,0l0.1,0v0.9l-0.2,0l-0.2,0h-0.2h-0.2l-0.1,0l-0.1,0l-0.1,0l-0.1,0l-0.1,0l0,0
		l-0.1,0l0,0.1l0,0.1l0,0.1l-0.1,0.1l0,0.6l0,0.6h1.3v0.8h-1.3l0,4.9h-0.5l-0.1,0h-0.1l-0.1,0h-0.1h-0.1l0,0v0v-0.1v-0.1l0-0.1v-0.2
		v-0.2v-0.2v-0.2V132l0-0.3v-0.3v-0.3v-0.3v-2.5h-1.1v-0.8h1.1l0-0.7v-0.2l0-0.2v-0.1l0-0.1v-0.1l0-0.1l0-0.1l0-0.1l0-0.1l0,0
		l0.1-0.2l0.1-0.2l0.1-0.2l0.2-0.2l0.2-0.1l0.2-0.1l0.3-0.1l0,0l0.2,0l0.2,0L209.2,125z"/>
	<path class="st1" d="M205,133.4h-1.1v-8.2h1.1V133.4z"/>
	<path class="st1" d="M191.7,125.2h0.3h0.3l0.2,0h0.2h0.2l0.1,0h0.1l0.1,0h0l0.4,0.1l0.4,0.1l0.4,0.1l0.3,0.2l0.3,0.2l0.3,0.2
		l0.2,0.2l0.2,0.3l0.2,0.3l0.1,0.2l0.2,0.4l0.1,0.4l0.1,0.4l0.1,0.4l0,0.4l0,0.4l0,0.4l-0.1,0.4l-0.1,0.4l-0.1,0.4l-0.1,0.3
		l-0.2,0.3l-0.2,0.3l-0.2,0.3l-0.2,0.2l-0.3,0.2l-0.3,0.2l-0.3,0.2l-0.4,0.1l-0.2,0.1l-0.1,0l-0.1,0l-0.1,0l-0.1,0l-0.1,0l-0.1,0
		l-0.1,0l-0.1,0l-0.1,0h-0.1l-0.2,0h-0.2l-0.2,0H192h-0.3h-0.3h-0.1l-1.6,0v-1h1.1l1.1,0h0.2h0.2h0.2l0.1,0h0.1h0.1l0.1,0l0.1,0h0.1
		l0,0l0,0l0,0l0.3-0.1l0.3-0.1l0.3-0.1l0.2-0.2l0.2-0.2l0.2-0.2l0.2-0.3l0.1-0.3l0.1-0.3l0.1-0.3l0.1-0.4l0-0.4v-0.1l0-0.3l0-0.3
		l0-0.3l-0.1-0.3l-0.1-0.2l-0.1-0.3l-0.1-0.3l-0.2-0.3l-0.2-0.2l-0.2-0.2l-0.2-0.2l-0.3-0.1l-0.3-0.1l-0.1,0l-0.1,0l-0.1,0l-0.1,0
		l-0.1,0l-0.1,0l-0.1,0h-0.1l-0.2,0h-0.2H192h-0.1h-1v6.2h-1.1v-7.2h1.6H191.7z"/>
	<path class="st1" d="M178.6,126.8h-2.5v6.6h-2.3v-6.6h-2.5v-1.6h7.3V126.8z"/>
	<path class="st1" d="M212.3,126.2L212.3,126.2l0,0.1v0.1l0,0.1v0.2v0.2v0v0.8h1.3v0.8h-1.3v1.9v1.9l0,0.1l0.1,0.1l0.1,0.1l0.1,0.1
		l0.1,0l0.1,0l0.1,0h0.2l0.2,0l0.1,0l0.1,0l0,0v0.4v0.1v0.1l0,0.1v0.1l0,0l0,0h0l-0.1,0l-0.1,0l-0.1,0l0,0l-0.2,0l-0.2,0l-0.2,0
		l-0.2,0l-0.2,0l-0.1,0l-0.2,0l-0.2-0.1l-0.2-0.1l-0.2-0.1l-0.1-0.1l-0.1-0.1l-0.1-0.1l-0.1-0.1l0-0.1l0,0l0,0l0,0l0,0v0l0-0.1v-0.1
		v-0.1l0-0.1v-0.1V132v-0.2l0-0.2v-0.2v-0.3V131v-0.3v-0.1l0-2.1h-1v-0.8h1l0-0.6l0-0.6l0.5-0.2l0.1,0l0.1,0l0.1,0L212.3,126.2
		L212.3,126.2L212.3,126.2L212.3,126.2L212.3,126.2z"/>
	<path class="st1" d="M200.2,127.5l0.2,0l0.2,0l0.1,0l0.1,0l0.3,0.1l0.3,0.1l0.2,0.1l0.2,0.2l0.2,0.1l0.2,0.2l0.2,0.2l0.1,0.3
		l0.1,0.3l0.1,0.3l0,0l0,0.1l0,0.1l0,0.2l0,0.2v0.1l0,0.5h-4v0.1v0l0,0.1l0,0.1l0,0.1l0,0.3l0.1,0.3l0.1,0.2l0.1,0.2l0.1,0.2
		l0.2,0.2l0.2,0.1l0.2,0.1l0.1,0l0.1,0l0.2,0l0.2,0l0.2,0l0.2,0l0.1,0l0.2-0.1l0.2-0.1l0.2-0.1l0.1-0.2l0.1-0.2l0.1-0.2l0-0.1l0-0.2
		h1.1l0,0.1l-0.1,0.3l-0.1,0.3l-0.1,0.2l-0.2,0.2l-0.2,0.2l-0.2,0.2l-0.2,0.1l-0.3,0.1l-0.3,0.1l-0.3,0.1h0l-0.1,0l-0.1,0l-0.2,0
		h-0.2h-0.1l-0.1,0l0,0l-0.3,0l-0.3-0.1l-0.3-0.1l-0.2-0.1l-0.1,0l-0.1-0.1l-0.1-0.1l-0.1-0.1l-0.1-0.1l-0.1-0.1h0l-0.2-0.3
		l-0.1-0.3l-0.1-0.3l-0.1-0.3l-0.1-0.4l0-0.4l0,0v-0.4l0-0.4l0,0h1.1h2.9v-0.1l0-0.3l-0.1-0.3l-0.1-0.3l0-0.1l-0.1-0.2l-0.1-0.2
		l-0.2-0.1l-0.1-0.1l-0.2-0.1l-0.2-0.1l-0.2,0l-0.2,0l-0.2,0l-0.2,0.1l0,0l-0.2,0.1l-0.2,0.1l-0.2,0.2l-0.1,0.2l-0.1,0.2l-0.1,0.3
		l-0.1,0.3v0.1l0,0.1h-1.1l0.1-0.3l0.1-0.3l0.1-0.3l0.1-0.3l0.2-0.3l0.2-0.2l0.2-0.2l0.2-0.2l0.2-0.1l0.2-0.1l0.2-0.1l0.2-0.1l0.2,0
		l0,0l0.1,0l0.1,0h0.2H200.2z"/>
	<path class="st1" d="M182,130.6l0.1,0.2l0.1,0.2l0.1,0.2l0.1,0.2l0.2,0.2l0.2,0.1l0.1,0.1l0.1,0.1l0.1,0l0.1,0l0.2,0h0.1l0.2,0
		l0.2,0l0.2,0l0.2,0l0.1,0l0.2-0.1l0.2-0.1l0.1-0.1l0.1-0.1l0.2-0.2l0.1-0.2l0.1-0.2l0.1-0.3l0-0.1l0-0.1v-0.1v-0.1l0-0.2v-0.2v-0.2
		l0-0.3v-0.3v-0.3v-0.4V128v-0.2v-2.6h2.3v2.7v0.4v0.4v0.3v0.3v0.3l0,0.2v0.2v0.2v0.2l0,0.1v0.1l0,0.1l0,0.1l0,0.1l0,0.1l0,0.1
		l0,0.1l0,0.1l0,0.1l0,0.1l0,0.1v0l-0.1,0.3l-0.1,0.3l-0.2,0.3l-0.2,0.2l-0.2,0.2l-0.3,0.2L186,133l-0.3,0.2l-0.4,0.1l-0.4,0.1
		l-0.4,0.1l-0.1,0l-0.1,0l-0.1,0l-0.1,0l-0.1,0h-0.2l-0.2,0h-0.2h-0.1h-0.1h-0.1h0l-0.2,0l-0.1,0l-0.1,0l-0.1,0l-0.1,0l-0.1,0
		l-0.4-0.1l-0.4-0.1l-0.3-0.1l-0.3-0.2l-0.3-0.2l-0.2-0.2l-0.2-0.2l-0.2-0.3l-0.2-0.3l-0.1-0.3l0-0.1l0-0.1l0-0.1l0-0.1l0-0.1l0-0.1
		l0-0.1l0-0.1l0-0.1l0-0.1v-0.1l0-0.1v-0.1l0-0.2v-0.2v-0.2v-0.2v-0.2v-0.3v-0.3v-0.3v-0.4v-0.1v-2.7h2.3L182,130.6z"/>
</g>
<circle class="st0" cx="164.1" cy="465.4" r="8.6"/>
<circle class="st0" cx="345.5" cy="465.4" r="8.6"/>
<circle class="st0" cx="345.5" cy="119.6" r="8.6"/>
<circle class="st0" cx="164.1" cy="119.6" r="8.6"/>
<g>
	<path class="st0" d="M109.6,135.4v-2.6l1.6,1.4v-0.6l0.2-0.4l0.2-0.2l0.4-0.2h1l0.4,0.2l0.2,0.2l0.2,0.4v1.2l-0.2,0.4l-0.2,0.2"/>
	<path class="st0" d="M113.5,130.9l0.2-0.2l0.2,0.2l-0.2,0.2L113.5,130.9h0.4"/>
	<path class="st0" d="M110,129.1l-0.2-0.2l-0.2-0.4v-1l0.2-0.4l0.2-0.2l0.4-0.2h0.4l0.6,0.2l2.4,2.4v-2.6"/>
	<path class="st0" d="M109.6,124.1v-0.4l0.2-0.4l0.2-0.2l0.4-0.2l0.8-0.2h1l0.8,0.2l0.4,0.2l0.2,0.2l0.2,0.4v0.4l-0.2,0.4l-0.2,0.2
		l-0.4,0.2l-0.8,0.2h-1l-0.8-0.2l-0.4-0.2l-0.2-0.2L109.6,124.1"/>
	<path class="st0" d="M109.6,120v-0.4l0.2-0.4l0.2-0.2l0.4-0.2l0.8-0.2h1l0.8,0.2l0.4,0.2l0.2,0.2l0.2,0.4v0.4l-0.2,0.4l-0.2,0.2
		l-0.4,0.2l-0.8,0.2h-1l-0.8-0.2l-0.4-0.2l-0.2-0.2L109.6,120"/>
	<path class="st0" d="M113.9,113.5h-2.8"/>
	<path class="st0" d="M111.5,113.5l-0.2-0.2l-0.2-0.4v-0.6l0.2-0.4l0.4-0.2h2.2"/>
	<path class="st0" d="M111.7,111.7l-0.4-0.2l-0.2-0.4v-0.6l0.2-0.4l0.4-0.2h2.2"/>
	<path class="st0" d="M113.9,107.9h-2.8"/>
	<path class="st0" d="M111.5,107.9l-0.2-0.2l-0.2-0.4v-0.6l0.2-0.4l0.4-0.2h2.2"/>
	<path class="st0" d="M111.7,106l-0.4-0.2l-0.2-0.4v-0.6l0.2-0.4l0.4-0.2h2.2"/>
	<path class="st0" d="M117.9,124.1v-9.1"/>
	<path class="st0" d="M164.1,124.1h-47.9"/>
	<path class="st0" d="M164.1,115.1h-47.9"/>
	<path class="st0" d="M117.9,115.1l1.7,3.2"/>
	<path class="st0" d="M117.9,115.1l-1.7,3.2"/>
	<path class="st0" d="M117.9,124.1l1.7-3.2"/>
	<path class="st0" d="M117.9,124.1l-1.7-3.2"/>
	<path class="st0" d="M403.4,275.3v-2.4"/>
	<path class="st0" d="M403.4,274.1h4.2l-0.6-0.4l-0.4-0.4l-0.2-0.4"/>
	<path class="st0" d="M407.3,276.9l0.2,0.2l0.2,0.4v1l-0.2,0.4l-0.2,0.2l-0.4,0.2h-0.4l-0.6-0.2l-2.4-2.4v2.6"/>
	<path class="st0" d="M407.3,281l0.2,0.2l0.2,0.4v1l-0.2,0.4l-0.2,0.2l-0.4,0.2h-0.4l-0.6-0.2l-2.4-2.4v2.6"/>
	<path class="st0" d="M403.8,285.2l-0.2,0.2l-0.2-0.2l0.2-0.2L403.8,285.2h-0.4"/>
	<path class="st0" d="M407.7,288.1v0.4l-0.2,0.4l-0.2,0.2l-0.4,0.2l-0.8,0.2h-1l-0.8-0.2l-0.4-0.2l-0.2-0.2l-0.2-0.4v-0.4l0.2-0.4
		l0.2-0.2l0.4-0.2l0.8-0.2h1l0.8,0.2l0.4,0.2l0.2,0.2L407.7,288.1"/>
	<path class="st0" d="M407.7,292.1v0.4l-0.2,0.4l-0.2,0.2l-0.4,0.2l-0.8,0.2h-1l-0.8-0.2l-0.4-0.2l-0.2-0.2l-0.2-0.4v-0.4l0.2-0.4
		l0.2-0.2l0.4-0.2l0.8-0.2h1l0.8,0.2l0.4,0.2l0.2,0.2L407.7,292.1"/>
	<path class="st0" d="M407.7,296.2v0.4l-0.2,0.4l-0.2,0.2l-0.4,0.2l-0.8,0.2h-1l-0.8-0.2l-0.4-0.2l-0.2-0.2l-0.2-0.4v-0.4l0.2-0.4
		l0.2-0.2l0.4-0.2l0.8-0.2h1l0.8,0.2l0.4,0.2l0.2,0.2L407.7,296.2"/>
	<path class="st0" d="M403.4,302.6h2.8"/>
	<path class="st0" d="M405.9,302.6l0.2,0.2l0.2,0.4v0.6l-0.2,0.4l-0.4,0.2h-2.2"/>
	<path class="st0" d="M405.7,304.5l0.4,0.2l0.2,0.4v0.6l-0.2,0.4l-0.4,0.2h-2.2"/>
	<path class="st0" d="M403.4,308.3h2.8"/>
	<path class="st0" d="M405.9,308.3l0.2,0.2l0.2,0.4v0.6l-0.2,0.4l-0.4,0.2h-2.2"/>
	<path class="st0" d="M405.7,310.1l0.4,0.2l0.2,0.4v0.6l-0.2,0.4l-0.4,0.2h-2.2"/>
	<path class="st0" d="M399.4,119.6v345.8"/>
	<path class="st0" d="M345.5,119.6h55.5"/>
	<path class="st0" d="M345.5,465.4h55.5"/>
	<path class="st0" d="M399.4,465.4l-1.7-3.2"/>
	<path class="st0" d="M399.4,465.4l1.7-3.2"/>
	<path class="st0" d="M399.4,119.6l-1.7,3.2"/>
	<path class="st0" d="M399.4,119.6l1.7,3.2"/>
	<path class="st0" d="M239.2,68.8h-0.8L238,69l-0.2,0.2l-0.4,0.6l-0.2,0.8v1.6l0.2,0.4l0.2,0.2l0.4,0.2h0.8l0.4-0.2l0.2-0.2l0.2-0.4
		v-1l-0.2-0.4l-0.2-0.2l-0.4-0.2H238l-0.4,0.2l-0.2,0.2l-0.2,0.4"/>
	<path class="st0" d="M243.3,70.2v2.8"/>
	<path class="st0" d="M242.3,68.6l-1,3h2.6"/>
	<path class="st0" d="M245.5,72.7l0.2,0.2l-0.2,0.2l-0.2-0.2L245.5,72.7v0.4"/>
	<path class="st0" d="M248.3,68.8h0.4l0.4,0.2l0.2,0.2l0.2,0.4l0.2,0.8v1l-0.2,0.8l-0.2,0.4l-0.2,0.2l-0.4,0.2h-0.4l-0.4-0.2
		l-0.2-0.2l-0.2-0.4l-0.2-0.8v-1l0.2-0.8l0.2-0.4l0.2-0.2L248.3,68.8"/>
	<path class="st0" d="M252.4,68.8h0.4l0.4,0.2l0.2,0.2l0.2,0.4l0.2,0.8v1l-0.2,0.8l-0.2,0.4l-0.2,0.2l-0.4,0.2h-0.4l-0.4-0.2
		l-0.2-0.2l-0.2-0.4l-0.2-0.8v-1l0.2-0.8l0.2-0.4L252,69L252.4,68.8"/>
	<path class="st0" d="M256.4,68.8h0.4l0.4,0.2l0.2,0.2l0.2,0.4l0.2,0.8v1l-0.2,0.8l-0.2,0.4l-0.2,0.2l-0.4,0.2h-0.4l-0.4-0.2
		l-0.2-0.2l-0.2-0.4l-0.2-0.8v-1l0.2-0.8l0.2-0.4L256,69L256.4,68.8"/>
	<path class="st0" d="M262.9,73.1v-2.8"/>
	<path class="st0" d="M262.9,70.6l0.2-0.2l0.4-0.2h0.6l0.4,0.2l0.2,0.4v2.2"/>
	<path class="st0" d="M264.7,70.8l0.2-0.4l0.4-0.2h0.6l0.4,0.2l0.2,0.4v2.2"/>
	<path class="st0" d="M268.6,73.1v-2.8"/>
	<path class="st0" d="M268.6,70.6l0.2-0.2l0.4-0.2h0.6l0.4,0.2l0.2,0.4v2.2"/>
	<path class="st0" d="M270.4,70.8l0.2-0.4l0.4-0.2h0.6l0.4,0.2l0.2,0.4v2.2"/>
	<path class="st0" d="M164.1,77.1h181.4"/>
	<path class="st0" d="M164.1,119.6V75.4"/>
	<path class="st0" d="M345.5,119.6V75.4"/>
	<path class="st0" d="M345.5,77.1l-3.2,1.7"/>
	<path class="st0" d="M345.5,77.1l-3.2-1.7"/>
	<path class="st0" d="M164.1,77.1l3.2,1.7"/>
	<path class="st0" d="M164.1,77.1l3.2-1.7"/>
	<path class="st0" d="M426.1,275.3v-2.4"/>
	<path class="st0" d="M426.1,274.1h4.3l-0.6-0.4l-0.4-0.4l-0.2-0.4"/>
	<path class="st0" d="M429.9,276.9l0.2,0.2l0.2,0.4v1l-0.2,0.4l-0.2,0.2l-0.4,0.2h-0.4l-0.6-0.2l-2.4-2.4v2.6"/>
	<path class="st0" d="M428.5,281.8l0.2-0.4l0.2-0.2l0.4-0.2h0.2l0.4,0.2l0.2,0.2l0.2,0.4v0.8l-0.2,0.4l-0.2,0.2l-0.4,0.2h-0.2
		l-0.4-0.2l-0.2-0.2l-0.2-0.4V281.8l-0.2-0.4l-0.2-0.2l-0.4-0.2h-0.8l-0.4,0.2l-0.2,0.2l-0.2,0.4v0.8l0.2,0.4l0.2,0.2l0.4,0.2h0.8
		l0.4-0.2l0.2-0.2l0.2-0.4"/>
	<path class="st0" d="M426.5,285.2l-0.2,0.2l-0.2-0.2l0.2-0.2L426.5,285.2h-0.4"/>
	<path class="st0" d="M430.4,288.1v0.4l-0.2,0.4l-0.2,0.2l-0.4,0.2l-0.8,0.2h-1l-0.8-0.2l-0.4-0.2l-0.2-0.2l-0.2-0.4v-0.4l0.2-0.4
		l0.2-0.2l0.4-0.2l0.8-0.2h1l0.8,0.2l0.4,0.2l0.2,0.2L430.4,288.1"/>
	<path class="st0" d="M430.4,292.1v0.4l-0.2,0.4l-0.2,0.2l-0.4,0.2l-0.8,0.2h-1l-0.8-0.2l-0.4-0.2l-0.2-0.2l-0.2-0.4v-0.4l0.2-0.4
		l0.2-0.2l0.4-0.2l0.8-0.2h1l0.8,0.2l0.4,0.2l0.2,0.2L430.4,292.1"/>
	<path class="st0" d="M430.4,296.2v0.4l-0.2,0.4l-0.2,0.2l-0.4,0.2l-0.8,0.2h-1l-0.8-0.2l-0.4-0.2l-0.2-0.2l-0.2-0.4v-0.4l0.2-0.4
		l0.2-0.2l0.4-0.2l0.8-0.2h1l0.8,0.2l0.4,0.2l0.2,0.2L430.4,296.2"/>
	<path class="st0" d="M426.1,302.6h2.8"/>
	<path class="st0" d="M428.5,302.6l0.2,0.2l0.2,0.4v0.6l-0.2,0.4l-0.4,0.2h-2.2"/>
	<path class="st0" d="M428.3,304.5l0.4,0.2l0.2,0.4v0.6l-0.2,0.4l-0.4,0.2h-2.2"/>
	<path class="st0" d="M426.1,308.3h2.8"/>
	<path class="st0" d="M428.5,308.3l0.2,0.2l0.2,0.4v0.6l-0.2,0.4l-0.4,0.2h-2.2"/>
	<path class="st0" d="M428.3,310.1l0.4,0.2l0.2,0.4v0.6l-0.2,0.4l-0.4,0.2h-2.2"/>
	<path class="st0" d="M422.1,111.1v362.8"/>
	<path class="st0" d="M354,111.1h69.7"/>
	<path class="st0" d="M354,473.9h69.7"/>
	<path class="st0" d="M422.1,473.9l-1.7-3.2"/>
	<path class="st0" d="M422.1,473.9l1.7-3.2"/>
	<path class="st0" d="M422.1,111.1l-1.7,3.2"/>
	<path class="st0" d="M422.1,111.1l1.7,3.2"/>
	<path class="st0" d="M237,51.8h2.8L238,56"/>
	<path class="st0" d="M242.3,51.8h0.4l0.4,0.2l0.2,0.2l0.2,0.4l0.2,0.8v1l-0.2,0.8l-0.2,0.4l-0.2,0.2l-0.4,0.2h-0.4l-0.4-0.2
		l-0.2-0.2l-0.2-0.4l-0.2-0.8v-1l0.2-0.8l0.2-0.4l0.2-0.2L242.3,51.8"/>
	<path class="st0" d="M245.5,55.6l0.2,0.2l-0.2,0.2l-0.2-0.2L245.5,55.6V56"/>
	<path class="st0" d="M248.3,51.8h0.4l0.4,0.2l0.2,0.2l0.2,0.4l0.2,0.8v1l-0.2,0.8l-0.2,0.4l-0.2,0.2l-0.4,0.2h-0.4l-0.4-0.2
		l-0.2-0.2l-0.2-0.4l-0.2-0.8v-1l0.2-0.8l0.2-0.4l0.2-0.2L248.3,51.8"/>
	<path class="st0" d="M252.4,51.8h0.4l0.4,0.2l0.2,0.2l0.2,0.4l0.2,0.8v1l-0.2,0.8l-0.2,0.4l-0.2,0.2l-0.4,0.2h-0.4l-0.4-0.2
		l-0.2-0.2l-0.2-0.4l-0.2-0.8v-1l0.2-0.8l0.2-0.4L252,52L252.4,51.8"/>
	<path class="st0" d="M256.4,51.8h0.4l0.4,0.2l0.2,0.2l0.2,0.4l0.2,0.8v1l-0.2,0.8l-0.2,0.4l-0.2,0.2l-0.4,0.2h-0.4l-0.4-0.2
		l-0.2-0.2l-0.2-0.4l-0.2-0.8v-1l0.2-0.8l0.2-0.4L256,52L256.4,51.8"/>
	<path class="st0" d="M262.9,56v-2.8"/>
	<path class="st0" d="M262.9,53.6l0.2-0.2l0.4-0.2h0.6l0.4,0.2l0.2,0.4V56"/>
	<path class="st0" d="M264.7,53.8l0.2-0.4l0.4-0.2h0.6l0.4,0.2l0.2,0.4V56"/>
	<path class="st0" d="M268.6,56v-2.8"/>
	<path class="st0" d="M268.6,53.6l0.2-0.2l0.4-0.2h0.6l0.4,0.2l0.2,0.4V56"/>
	<path class="st0" d="M270.4,53.8l0.2-0.4l0.4-0.2h0.6l0.4,0.2l0.2,0.4V56"/>
	<path class="st0" d="M155.6,60.1H354"/>
	<path class="st0" d="M155.6,111.1V58.4"/>
	<path class="st0" d="M354,111.1V58.4"/>
	<path class="st0" d="M354,60.1l-3.2,1.7"/>
	<path class="st0" d="M354,60.1l-3.2-1.7"/>
	<path class="st0" d="M155.6,60.1l3.2,1.7"/>
	<path class="st0" d="M155.6,60.1l3.2-1.7"/>
</g>
<path class="st0" d="M174.2,166.1l0.4,0.1h0.7l0.3-0.1l0.1-0.1l0.1-0.3v-0.3l-0.1-0.3l-0.1-0.1l-0.3-0.1l-0.5-0.1l-0.3-0.1l-0.1-0.1
	l-0.1-0.3v-0.3l0.1-0.3l0.1-0.1l0.3-0.1h0.7l0.4,0.1"/>
<path class="st0" d="M176.7,163.4l0.7,2.8l0.5-2l0.5,2l0.7-2.8"/>
<path class="st0" d="M180.2,166.2v-2.8"/>
<path class="st0" d="M181.2,163.4h1.6"/>
<path class="st0" d="M182,166.2v-2.8"/>
<path class="st0" d="M185.4,166l-0.1,0.1l-0.4,0.1h-0.3l-0.4-0.1l-0.3-0.3l-0.1-0.3l-0.1-0.5v-0.4l0.1-0.5l0.1-0.3l0.3-0.3l0.4-0.1
	h0.3l0.4,0.1l0.1,0.1"/>
<path class="st0" d="M186.6,166.2v-2.8"/>
<path class="st0" d="M186.6,164.8h1.6"/>
<path class="st0" d="M188.2,166.2v-2.8"/>
<path class="st0" d="M188.9,166.5h2.2"/>
<path class="st0" d="M191.6,166.1l0.4,0.1h0.7l0.3-0.1l0.1-0.1l0.1-0.3v-0.3l-0.1-0.3l-0.1-0.1l-0.3-0.1l-0.5-0.1l-0.3-0.1l-0.1-0.1
	l-0.1-0.3v-0.3l0.1-0.3l0.1-0.1l0.3-0.1h0.7l0.4,0.1"/>
<path class="st0" d="M197.1,166.1l0.4,0.1h0.7l0.3-0.1l0.1-0.1l0.1-0.3v-0.3l-0.1-0.3l-0.1-0.1l-0.3-0.1l-0.5-0.1l-0.3-0.1l-0.1-0.1
	l-0.1-0.3v-0.3l0.1-0.3l0.1-0.1l0.3-0.1h0.7l0.4,0.1"/>
<path class="st0" d="M199.6,163.4h1.6"/>
<path class="st0" d="M200.4,166.2v-2.8"/>
<path class="st0" d="M201.4,166.5h2.2"/>
<path class="st0" d="M205.6,166.2h-1.4v-2.8"/>
<path class="st0" d="M206.6,164.8h0.9"/>
<path class="st0" d="M207.9,166.2h-1.3v-2.8h1.3"/>
<path class="st0" d="M209.1,166.2v-2.8h0.7l0.4,0.1l0.3,0.3l0.1,0.3l0.1,0.5v0.4l-0.1,0.5l-0.1,0.3l-0.3,0.3l-0.4,0.1H209.1"/>
<path class="st0" d="M174.2,211.5l0.4,0.1h0.7l0.3-0.1l0.1-0.1l0.1-0.3v-0.3l-0.1-0.3l-0.1-0.1l-0.3-0.1l-0.5-0.1l-0.3-0.1l-0.1-0.1
	l-0.1-0.3v-0.3l0.1-0.3l0.1-0.1l0.3-0.1h0.7l0.4,0.1"/>
<path class="st0" d="M176.7,208.8l0.7,2.8l0.5-2l0.5,2l0.7-2.8"/>
<path class="st0" d="M180.2,211.6v-2.8"/>
<path class="st0" d="M181.2,208.8h1.6"/>
<path class="st0" d="M182,211.6v-2.8"/>
<path class="st0" d="M185.4,211.3l-0.1,0.1l-0.4,0.1h-0.3l-0.4-0.1l-0.3-0.3l-0.1-0.3l-0.1-0.5V210l0.1-0.5l0.1-0.3l0.3-0.3l0.4-0.1
	h0.3l0.4,0.1l0.1,0.1"/>
<path class="st0" d="M186.6,211.6v-2.8"/>
<path class="st0" d="M186.6,210.1h1.6"/>
<path class="st0" d="M188.2,211.6v-2.8"/>
<path class="st0" d="M188.9,211.9h2.2"/>
<path class="st0" d="M191.6,211.5l0.4,0.1h0.7l0.3-0.1l0.1-0.1l0.1-0.3v-0.3l-0.1-0.3l-0.1-0.1l-0.3-0.1l-0.5-0.1l-0.3-0.1l-0.1-0.1
	l-0.1-0.3v-0.3l0.1-0.3l0.1-0.1l0.3-0.1h0.7l0.4,0.1"/>
<path class="st0" d="M194.4,211.6v-2.8h1.1l0.3,0.1l0.1,0.1l0.1,0.3v0.4l-0.1,0.3l-0.1,0.1l-0.3,0.1h-1.1"/>
<path class="st0" d="M197.1,211.5l0.4,0.1h0.7l0.3-0.1l0.1-0.1l0.1-0.3v-0.3l-0.1-0.3l-0.1-0.1l-0.3-0.1l-0.5-0.1l-0.3-0.1l-0.1-0.1
	l-0.1-0.3v-0.3l0.1-0.3l0.1-0.1l0.3-0.1h0.7l0.4,0.1"/>
<path class="st0" d="M199.6,208.8h1.6"/>
<path class="st0" d="M200.4,211.6v-2.8"/>
<path class="st0" d="M201.4,211.9h2.2"/>
<path class="st0" d="M205.6,211.6h-1.4v-2.8"/>
<path class="st0" d="M206.6,210.1h0.9"/>
<path class="st0" d="M207.9,211.6h-1.3v-2.8h1.3"/>
<path class="st0" d="M209.1,211.6v-2.8h0.7l0.4,0.1l0.3,0.3l0.1,0.3l0.1,0.5v0.4l-0.1,0.5l-0.1,0.3l-0.3,0.3l-0.4,0.1H209.1"/>
<path class="st0" d="M174.2,256.8l0.4,0.1h0.7l0.3-0.1l0.1-0.1l0.1-0.3v-0.3l-0.1-0.3l-0.1-0.1l-0.3-0.1l-0.5-0.1l-0.3-0.1l-0.1-0.1
	l-0.1-0.3v-0.3l0.1-0.3l0.1-0.1l0.3-0.1h0.7l0.4,0.1"/>
<path class="st0" d="M176.7,254.1l0.7,2.8l0.5-2l0.5,2l0.7-2.8"/>
<path class="st0" d="M180.2,257v-2.8"/>
<path class="st0" d="M181.2,254.1h1.6"/>
<path class="st0" d="M182,257v-2.8"/>
<path class="st0" d="M185.4,256.7l-0.1,0.1l-0.4,0.1h-0.3l-0.4-0.1l-0.3-0.3l-0.1-0.3l-0.1-0.5v-0.4l0.1-0.5l0.1-0.3l0.3-0.3
	l0.4-0.1h0.3l0.4,0.1l0.1,0.1"/>
<path class="st0" d="M186.6,257v-2.8"/>
<path class="st0" d="M186.6,255.5h1.6"/>
<path class="st0" d="M188.2,257v-2.8"/>
<path class="st0" d="M188.9,257.2h2.2"/>
<path class="st0" d="M191.6,256.8l0.4,0.1h0.7l0.3-0.1l0.1-0.1l0.1-0.3v-0.3l-0.1-0.3l-0.1-0.1l-0.3-0.1l-0.5-0.1l-0.3-0.1l-0.1-0.1
	l-0.1-0.3v-0.3l0.1-0.3l0.1-0.1l0.3-0.1h0.7l0.4,0.1"/>
<path class="st0" d="M194.4,257v-2.8h1.1l0.3,0.1l0.1,0.1l0.1,0.3v0.4l-0.1,0.3l-0.1,0.1l-0.3,0.1h-1.1"/>
<path class="st0" d="M197.1,256.8l0.4,0.1h0.7l0.3-0.1l0.1-0.1l0.1-0.3v-0.3l-0.1-0.3l-0.1-0.1l-0.3-0.1l-0.5-0.1l-0.3-0.1l-0.1-0.1
	l-0.1-0.3v-0.3l0.1-0.3l0.1-0.1l0.3-0.1h0.7l0.4,0.1"/>
<path class="st0" d="M199.6,254.1h1.6"/>
<path class="st0" d="M200.4,257v-2.8"/>
<path class="st0" d="M201.4,257.2h2.2"/>
<path class="st0" d="M205.6,257h-1.4v-2.8"/>
<path class="st0" d="M206.6,255.5h0.9"/>
<path class="st0" d="M207.9,257h-1.3v-2.8h1.3"/>
<path class="st0" d="M209.1,257v-2.8h0.7l0.4,0.1l0.3,0.3l0.1,0.3l0.1,0.5v0.4l-0.1,0.5l-0.1,0.3l-0.3,0.3l-0.4,0.1H209.1"/>
<path class="st0" d="M174.2,302.2l0.4,0.1h0.7l0.3-0.1l0.1-0.1l0.1-0.3v-0.3l-0.1-0.3l-0.1-0.1l-0.3-0.1l-0.5-0.1l-0.3-0.1l-0.1-0.1
	l-0.1-0.3V300l0.1-0.3l0.1-0.1l0.3-0.1h0.7l0.4,0.1"/>
<path class="st0" d="M176.7,299.5l0.7,2.8l0.5-2l0.5,2l0.7-2.8"/>
<path class="st0" d="M180.2,302.3v-2.8"/>
<path class="st0" d="M181.2,299.5h1.6"/>
<path class="st0" d="M182,302.3v-2.8"/>
<path class="st0" d="M185.4,302l-0.1,0.1l-0.4,0.1h-0.3l-0.4-0.1l-0.3-0.3l-0.1-0.3l-0.1-0.5v-0.4l0.1-0.5l0.1-0.3l0.3-0.3l0.4-0.1
	h0.3l0.4,0.1l0.1,0.1"/>
<path class="st0" d="M186.6,302.3v-2.8"/>
<path class="st0" d="M186.6,300.8h1.6"/>
<path class="st0" d="M188.2,302.3v-2.8"/>
<path class="st0" d="M188.9,302.6h2.2"/>
<path class="st0" d="M191.6,302.2l0.4,0.1h0.7l0.3-0.1l0.1-0.1l0.1-0.3v-0.3l-0.1-0.3l-0.1-0.1l-0.3-0.1l-0.5-0.1l-0.3-0.1l-0.1-0.1
	l-0.1-0.3V300l0.1-0.3l0.1-0.1l0.3-0.1h0.7l0.4,0.1"/>
<path class="st0" d="M194.4,302.3v-2.8h1.1l0.3,0.1l0.1,0.1l0.1,0.3v0.4l-0.1,0.3l-0.1,0.1l-0.3,0.1h-1.1"/>
<path class="st0" d="M197.1,302.2l0.4,0.1h0.7l0.3-0.1l0.1-0.1l0.1-0.3v-0.3l-0.1-0.3l-0.1-0.1l-0.3-0.1l-0.5-0.1l-0.3-0.1l-0.1-0.1
	l-0.1-0.3V300l0.1-0.3l0.1-0.1l0.3-0.1h0.7l0.4,0.1"/>
<path class="st0" d="M199.6,299.5h1.6"/>
<path class="st0" d="M200.4,302.3v-2.8"/>
<path class="st0" d="M201.4,302.6h2.2"/>
<path class="st0" d="M205.6,302.3h-1.4v-2.8"/>
<path class="st0" d="M206.6,300.8h0.9"/>
<path class="st0" d="M207.9,302.3h-1.3v-2.8h1.3"/>
<path class="st0" d="M209.1,302.3v-2.8h0.7l0.4,0.1l0.3,0.3l0.1,0.3l0.1,0.5v0.4l-0.1,0.5l-0.1,0.3l-0.3,0.3l-0.4,0.1H209.1"/>
<path class="st0" d="M174.2,347.5l0.4,0.1h0.7l0.3-0.1l0.1-0.1l0.1-0.3v-0.3l-0.1-0.3l-0.1-0.1l-0.3-0.1l-0.5-0.1l-0.3-0.1l-0.1-0.1
	l-0.1-0.3v-0.3l0.1-0.3l0.1-0.1l0.3-0.1h0.7l0.4,0.1"/>
<path class="st0" d="M176.7,344.8l0.7,2.8l0.5-2l0.5,2l0.7-2.8"/>
<path class="st0" d="M180.2,347.7v-2.8"/>
<path class="st0" d="M181.2,344.8h1.6"/>
<path class="st0" d="M182,347.7v-2.8"/>
<path class="st0" d="M185.4,347.4l-0.1,0.1l-0.4,0.1h-0.3l-0.4-0.1l-0.3-0.3l-0.1-0.3l-0.1-0.5V346l0.1-0.5l0.1-0.3l0.3-0.3l0.4-0.1
	h0.3l0.4,0.1l0.1,0.1"/>
<path class="st0" d="M186.6,347.7v-2.8"/>
<path class="st0" d="M186.6,346.2h1.6"/>
<path class="st0" d="M188.2,347.7v-2.8"/>
<path class="st0" d="M188.9,347.9h2.2"/>
<path class="st0" d="M191.6,347.5l0.4,0.1h0.7l0.3-0.1l0.1-0.1l0.1-0.3v-0.3l-0.1-0.3l-0.1-0.1l-0.3-0.1l-0.5-0.1l-0.3-0.1l-0.1-0.1
	l-0.1-0.3v-0.3l0.1-0.3l0.1-0.1l0.3-0.1h0.7l0.4,0.1"/>
<path class="st0" d="M194.4,347.7v-2.8h1.1l0.3,0.1l0.1,0.1l0.1,0.3v0.4l-0.1,0.3l-0.1,0.1l-0.3,0.1h-1.1"/>
<path class="st0" d="M197.1,347.5l0.4,0.1h0.7l0.3-0.1l0.1-0.1l0.1-0.3v-0.3l-0.1-0.3l-0.1-0.1l-0.3-0.1l-0.5-0.1l-0.3-0.1l-0.1-0.1
	l-0.1-0.3v-0.3l0.1-0.3l0.1-0.1l0.3-0.1h0.7l0.4,0.1"/>
<path class="st0" d="M199.6,344.8h1.6"/>
<path class="st0" d="M200.4,347.7v-2.8"/>
<path class="st0" d="M201.4,347.9h2.2"/>
<path class="st0" d="M205.6,347.7h-1.4v-2.8"/>
<path class="st0" d="M206.6,346.2h0.9"/>
<path class="st0" d="M207.9,347.7h-1.3v-2.8h1.3"/>
<path class="st0" d="M209.1,347.7v-2.8h0.7l0.4,0.1l0.3,0.3l0.1,0.3l0.1,0.5v0.4l-0.1,0.5l-0.1,0.3l-0.3,0.3l-0.4,0.1H209.1"/>
<path class="st0" d="M174.2,392.9l0.4,0.1h0.7l0.3-0.1l0.1-0.1l0.1-0.3v-0.3l-0.1-0.3l-0.1-0.1l-0.3-0.1l-0.5-0.1l-0.3-0.1l-0.1-0.1
	l-0.1-0.3v-0.3l0.1-0.3l0.1-0.1l0.3-0.1h0.7l0.4,0.1"/>
<path class="st0" d="M176.7,390.2l0.7,2.8l0.5-2l0.5,2l0.7-2.8"/>
<path class="st0" d="M180.2,393v-2.8"/>
<path class="st0" d="M181.2,390.2h1.6"/>
<path class="st0" d="M182,393v-2.8"/>
<path class="st0" d="M185.4,392.7l-0.1,0.1l-0.4,0.1h-0.3l-0.4-0.1l-0.3-0.3l-0.1-0.3l-0.1-0.5v-0.4l0.1-0.5l0.1-0.3l0.3-0.3
	l0.4-0.1h0.3l0.4,0.1l0.1,0.1"/>
<path class="st0" d="M186.6,393v-2.8"/>
<path class="st0" d="M186.6,391.5h1.6"/>
<path class="st0" d="M188.2,393v-2.8"/>
<path class="st0" d="M188.9,393.3h2.2"/>
<path class="st0" d="M191.6,392.9l0.4,0.1h0.7l0.3-0.1l0.1-0.1l0.1-0.3v-0.3l-0.1-0.3l-0.1-0.1l-0.3-0.1l-0.5-0.1l-0.3-0.1l-0.1-0.1
	l-0.1-0.3v-0.3l0.1-0.3l0.1-0.1l0.3-0.1h0.7l0.4,0.1"/>
<path class="st0" d="M194.4,393v-2.8h1.1l0.3,0.1l0.1,0.1l0.1,0.3v0.4l-0.1,0.3l-0.1,0.1l-0.3,0.1h-1.1"/>
<path class="st0" d="M197.1,392.9l0.4,0.1h0.7l0.3-0.1l0.1-0.1l0.1-0.3v-0.3l-0.1-0.3l-0.1-0.1l-0.3-0.1l-0.5-0.1l-0.3-0.1l-0.1-0.1
	l-0.1-0.3v-0.3l0.1-0.3l0.1-0.1l0.3-0.1h0.7l0.4,0.1"/>
<path class="st0" d="M199.6,390.2h1.6"/>
<path class="st0" d="M200.4,393v-2.8"/>
<path class="st0" d="M201.4,393.3h2.2"/>
<path class="st0" d="M205.6,393h-1.4v-2.8"/>
<path class="st0" d="M206.6,391.5h0.9"/>
<path class="st0" d="M207.9,393h-1.3v-2.8h1.3"/>
<path class="st0" d="M209.1,393v-2.8h0.7l0.4,0.1l0.3,0.3l0.1,0.3l0.1,0.5v0.4l-0.1,0.5l-0.1,0.3l-0.3,0.3l-0.4,0.1H209.1"/>
<path class="st0" d="M174.2,438.2l0.4,0.1h0.7l0.3-0.1l0.1-0.1l0.1-0.3v-0.3l-0.1-0.3l-0.1-0.1l-0.3-0.1l-0.5-0.1l-0.3-0.1l-0.1-0.1
	l-0.1-0.3v-0.3l0.1-0.3l0.1-0.1l0.3-0.1h0.7l0.4,0.1"/>
<path class="st0" d="M176.7,435.5l0.7,2.8l0.5-2l0.5,2l0.7-2.8"/>
<path class="st0" d="M180.2,438.4v-2.8"/>
<path class="st0" d="M181.2,435.5h1.6"/>
<path class="st0" d="M182,438.4v-2.8"/>
<path class="st0" d="M185.4,438.1l-0.1,0.1l-0.4,0.1h-0.3l-0.4-0.1l-0.3-0.3l-0.1-0.3l-0.1-0.5v-0.4l0.1-0.5l0.1-0.3l0.3-0.3
	l0.4-0.1h0.3l0.4,0.1l0.1,0.1"/>
<path class="st0" d="M186.6,438.4v-2.8"/>
<path class="st0" d="M186.6,436.9h1.6"/>
<path class="st0" d="M188.2,438.4v-2.8"/>
<path class="st0" d="M188.9,438.6h2.2"/>
<path class="st0" d="M191.6,438.2l0.4,0.1h0.7l0.3-0.1l0.1-0.1l0.1-0.3v-0.3l-0.1-0.3l-0.1-0.1l-0.3-0.1l-0.5-0.1l-0.3-0.1l-0.1-0.1
	l-0.1-0.3v-0.3l0.1-0.3l0.1-0.1l0.3-0.1h0.7l0.4,0.1"/>
<path class="st0" d="M194.4,438.4v-2.8h1.1l0.3,0.1l0.1,0.1l0.1,0.3v0.4l-0.1,0.3l-0.1,0.1l-0.3,0.1h-1.1"/>
<path class="st0" d="M197.1,438.2l0.4,0.1h0.7l0.3-0.1l0.1-0.1l0.1-0.3v-0.3l-0.1-0.3l-0.1-0.1l-0.3-0.1l-0.5-0.1l-0.3-0.1l-0.1-0.1
	l-0.1-0.3v-0.3l0.1-0.3l0.1-0.1l0.3-0.1h0.7l0.4,0.1"/>
<path class="st0" d="M199.6,435.5h1.6"/>
<path class="st0" d="M200.4,438.4v-2.8"/>
<path class="st0" d="M201.4,438.6h2.2"/>
<path class="st0" d="M205.6,438.4h-1.4v-2.8"/>
<path class="st0" d="M206.6,436.9h0.9"/>
<path class="st0" d="M207.9,438.4h-1.3v-2.8h1.3"/>
<path class="st0" d="M209.1,438.4v-2.8h0.7l0.4,0.1l0.3,0.3l0.1,0.3l0.1,0.5v0.4l-0.1,0.5l-0.1,0.3l-0.3,0.3l-0.4,0.1H209.1"/>
<path class="st0" d="M182.4,186.8v1.3h-2.8"/>
<path class="st0" d="M182.4,185.8h-2.8"/>
<path class="st0" d="M182.4,184.5h-2.8v-1.1l0.1-0.3l0.1-0.1l0.3-0.1h0.4l0.3,0.1l0.1,0.1l0.1,0.3v1.1"/>
<path class="st0" d="M179.6,181.1v-0.5l0.1-0.3l0.3-0.3l0.5-0.1h0.9l0.5,0.1l0.3,0.3l0.1,0.3v0.5l-0.1,0.3l-0.3,0.3l-0.5,0.1h-0.9
	l-0.5-0.1l-0.3-0.3L179.6,181.1"/>
<path class="st0" d="M182.7,179.3v-2.2"/>
<path class="st0" d="M179.6,176.8V175l1.1,0.9v-0.4l0.1-0.3l0.1-0.1l0.3-0.1h0.7l0.3,0.1l0.1,0.1l0.1,0.3v0.8l-0.1,0.3l-0.1,0.1"/>
<path class="st0" d="M179.6,174.2l2.8-0.9l-2.8-0.9"/>
<path class="st0" d="M182.7,169.3v-2.2"/>
<path class="st0" d="M179.8,166.6l-0.1-0.1l-0.1-0.3v-0.7l0.1-0.3l0.1-0.1l0.3-0.1h0.3l0.4,0.1l1.6,1.6V165"/>
<path class="st0" d="M181.6,163.9v-1.3"/>
<path class="st0" d="M182.4,164.2l-2.8-0.9l2.8-1"/>
<path class="st0" d="M182.7,162.1v-2.2"/>
<path class="st0" d="M179.6,157.9v1.3l1.4,0.1l-0.1-0.1l-0.1-0.3v-0.7l0.1-0.3l0.1-0.1l0.3-0.1h0.7l0.3,0.1l0.1,0.1l0.1,0.3v0.7
	l-0.1,0.3l-0.1,0.1"/>
<path class="st0" d="M179.6,156v-0.3l0.1-0.3l0.1-0.1l0.3-0.1l0.5-0.1h0.7l0.5,0.1l0.3,0.1l0.1,0.1l0.1,0.3v0.3l-0.1,0.3l-0.1,0.1
	l-0.3,0.1l-0.5,0.1h-0.7l-0.5-0.1l-0.3-0.1l-0.1-0.1L179.6,156"/>
<path class="st0" d="M182.4,154.1l-1.9-1.5"/>
<path class="st0" d="M180.5,154.1l1.9-1.5"/>
<path class="st0" d="M179.6,150.3v0.5l0.1,0.3l0.1,0.1l0.4,0.3l0.5,0.1h1.1l0.3-0.1l0.1-0.1l0.1-0.3v-0.5l-0.1-0.3l-0.1-0.1
	l-0.3-0.1h-0.7l-0.3,0.1l-0.1,0.1l-0.1,0.3v0.5l0.1,0.3l0.1,0.1l0.3,0.1"/>
<path class="st0" d="M179.6,148.3V148l0.1-0.3l0.1-0.1l0.3-0.1l0.5-0.1h0.7l0.5,0.1l0.3,0.1l0.1,0.1l0.1,0.3v0.3l-0.1,0.3l-0.1,0.1
	l-0.3,0.1l-0.5,0.1h-0.7l-0.5-0.1l-0.3-0.1l-0.1-0.1L179.6,148.3"/>
<path class="st0" d="M161.2,466.7l-0.9-1.3"/>
<path class="st0" d="M311,477.5v-2.8l0.9,2l1-2v2.8"/>
<path class="st0" d="M314.6,477.5l-0.3-0.1l-0.1-0.1l-0.1-0.3v-0.8l0.1-0.3l0.1-0.1l0.3-0.1h0.4l0.3,0.1l0.1,0.1l0.1,0.3v0.8
	l-0.1,0.3l-0.1,0.1l-0.3,0.1H314.6"/>
<path class="st0" d="M318,475.6v1.9"/>
<path class="st0" d="M316.8,475.6v1.5l0.1,0.3l0.3,0.1h0.4l0.3-0.1l0.1-0.1"/>
<path class="st0" d="M319.4,475.6v1.9"/>
<path class="st0" d="M319.4,475.9l0.1-0.1l0.3-0.1h0.4l0.3,0.1l0.1,0.3v1.5"/>
<path class="st0" d="M321.5,475.6h1.1"/>
<path class="st0" d="M321.9,474.7v2.4l0.1,0.3l0.3,0.1h0.3"/>
<path class="st0" d="M323.5,477.5v-1.9"/>
<path class="st0" d="M323.5,474.7l-0.1,0.1l0.1,0.1l0.1-0.1L323.5,474.7v0.3"/>
<path class="st0" d="M324.9,475.6v1.9"/>
<path class="st0" d="M324.9,475.9l0.1-0.1l0.3-0.1h0.4l0.3,0.1l0.1,0.3v1.5"/>
<path class="st0" d="M328.7,475.6v2.3l-0.1,0.3l-0.1,0.1l-0.3,0.1h-0.4l-0.3-0.1"/>
<path class="st0" d="M328.7,477.4l-0.3,0.1h-0.5l-0.3-0.1l-0.1-0.1l-0.1-0.3v-0.8l0.1-0.3l0.1-0.1l0.3-0.1h0.5l0.3,0.1"/>
<path class="st0" d="M330,477.5v-2.8"/>
<path class="st0" d="M330,476h1.6"/>
<path class="st0" d="M331.6,477.5v-2.8"/>
<path class="st0" d="M333.4,477.5l-0.3-0.1l-0.1-0.1l-0.1-0.3v-0.8l0.1-0.3l0.1-0.1l0.3-0.1h0.4l0.3,0.1l0.1,0.1l0.1,0.3v0.8
	l-0.1,0.3l-0.1,0.1l-0.3,0.1H333.4"/>
<path class="st0" d="M336,477.5l-0.3-0.1l-0.1-0.3v-2.4"/>
<path class="st0" d="M338.1,477.4l-0.3,0.1h-0.5l-0.3-0.1l-0.1-0.3V476l0.1-0.3l0.3-0.1h0.5l0.3,0.1l0.1,0.3v0.3l-1.3,0.3"/>
<path class="st0" d="M338.8,477.8h2.2"/>
<path class="st0" d="M341.3,474.7h1.8l-0.9,1.1h0.4l0.3,0.1l0.1,0.1l0.1,0.3v0.7l-0.1,0.3l-0.1,0.1l-0.3,0.1h-0.8l-0.3-0.1l-0.1-0.1
	"/>
<path class="st0" d="M344.3,477.2l0.1,0.1l-0.1,0.1l-0.1-0.1L344.3,477.2v0.3"/>
<path class="st0" d="M345.5,474.9l0.1-0.1l0.3-0.1h0.7l0.3,0.1l0.1,0.1l0.1,0.3v0.3l-0.1,0.4l-1.6,1.6h1.8"/>
<path class="st0" d="M348.4,477.5v-1.9"/>
<path class="st0" d="M348.4,475.9l0.1-0.1l0.3-0.1h0.4l0.3,0.1l0.1,0.3v1.5"/>
<path class="st0" d="M349.6,476l0.1-0.3l0.3-0.1h0.4l0.3,0.1l0.1,0.3v1.5"/>
<path class="st0" d="M352.1,477.5v-1.9"/>
<path class="st0" d="M352.1,475.9l0.1-0.1l0.3-0.1h0.4l0.3,0.1l0.1,0.3v1.5"/>
<path class="st0" d="M353.4,476l0.1-0.3l0.3-0.1h0.4l0.3,0.1l0.1,0.3v1.5"/>
<path class="st0" d="M355.3,477.8h2.2"/>
<path class="st0" d="M358.1,477.5v-2.8l0.9,2l1-2v2.8"/>
<path class="st0" d="M361.1,474.7h1.7l-0.9,1.1h0.4l0.3,0.1l0.1,0.1l0.1,0.3v0.7l-0.1,0.3l-0.1,0.1l-0.3,0.1h-0.8l-0.3-0.1l-0.1-0.1
	"/>
<path class="st0" d="M363.4,477.8h2.2"/>
<path class="st0" d="M366.2,477.5v-2.8h0.7l0.4,0.1l0.3,0.3l0.1,0.3l0.1,0.5v0.4l-0.1,0.5l-0.1,0.3l-0.3,0.3l-0.4,0.1H366.2"/>
<path class="st0" d="M369,477.5v-2.8"/>
<path class="st0" d="M370.4,477.5v-2.8l1.6,2.8v-2.8"/>
<path class="st0" d="M373.5,477.5h0.5l0.3-0.1l0.1-0.1l0.3-0.4l0.1-0.5v-1.1l-0.1-0.3l-0.1-0.1l-0.3-0.1h-0.5l-0.3,0.1l-0.1,0.1
	l-0.1,0.3v0.7l0.1,0.3l0.1,0.1l0.3,0.1h0.5l0.3-0.1l0.1-0.1l0.1-0.3"/>
<path class="st0" d="M377.3,474.7h-0.5l-0.3,0.1l-0.1,0.1l-0.3,0.4l-0.1,0.5v1.1l0.1,0.3l0.1,0.1l0.3,0.1h0.5l0.3-0.1l0.1-0.1
	l0.1-0.3v-0.7l-0.1-0.3l-0.1-0.1l-0.3-0.1h-0.5l-0.3,0.1L376,476l-0.1,0.3"/>
<path class="st0" d="M380.1,474.7h-1.3l-0.1,1.3l0.1-0.1l0.3-0.1h0.7l0.3,0.1l0.1,0.1l0.1,0.3v0.7l-0.1,0.3l-0.1,0.1l-0.3,0.1H379
	l-0.3-0.1l-0.1-0.1"/>
<path class="st0" d="M342.6,120.9l-0.9-1.4"/>
<path class="st0" d="M343.8,119.4h0.9"/>
<path class="st0" d="M347.3,119.4h-0.9"/>
<path class="st0" d="M349.2,118.1v0.7"/>
<path class="st0" d="M348.5,118.5l0.7,0.3l0.7-0.3"/>
<path class="st0" d="M348.8,119.3l0.4-0.5l0.4,0.5"/>
<path class="st0" d="M354,473.9H155.6"/>
<path class="st0" d="M354,111.1v362.8"/>
<g>
	<path class="st0" d="M155.6,462.6V111.1"/>
	<path class="st0" d="M155.6,111.1H354"/>
</g>
<g>
	<g class="st2">
		<polygon points="354,452 353.1,451.4 351.3,450.6 350.2,450.2 347.1,449.6 344,449.6 340.9,450.2 339.8,450.6 338,451.4 
			335.4,453.1 333.2,455.3 331.5,457.9 331.3,458.2 330.3,460.8 329.7,463.9 329.7,467 330.3,470.1 330.3,470.1 331.5,473 
			332.1,473.9 354,473.9 		"/>
	</g>
	<g>
		<polygon class="st3" points="354,452 353.1,451.4 351.3,450.6 350.2,450.2 347.1,449.6 344,449.6 340.9,450.2 339.8,450.6 
			338,451.4 335.4,453.1 333.2,455.3 331.5,457.9 331.3,458.2 330.3,460.8 329.7,463.9 329.7,467 330.3,470.1 330.3,470.1 
			331.5,473 332.1,473.9 354,473.9 		"/>
	</g>
</g>
</svg>
