G04 #@! TF.GenerationSoftware,KiCad,Pcbnew,(5.0.1-3-g963ef8bb5)*
G04 #@! TF.CreationDate,2021-04-06T11:18:42+02:00*
G04 #@! TF.ProjectId,foodSampler_v20,666F6F6453616D706C65725F7632302E,rev?*
G04 #@! TF.SameCoordinates,Original*
G04 #@! TF.FileFunction,Profile,NP*
%FSLAX46Y46*%
G04 Gerber Fmt 4.6, Leading zero omitted, Abs format (unit mm)*
G04 Created by KiCad (PCBNEW (5.0.1-3-g963ef8bb5)) date 2021 April 06, Tuesday 11:18:42*
%MOMM*%
%LPD*%
G01*
G04 APERTURE LIST*
%ADD10C,0.150000*%
G04 APERTURE END LIST*
D10*
X123300000Y-47000000D02*
G75*
G03X123300000Y-47000000I-4300000J0D01*
G01*
X123300000Y-79000000D02*
G75*
G03X123300000Y-79000000I-4300000J0D01*
G01*
X123300000Y-63000000D02*
G75*
G03X123300000Y-63000000I-4300000J0D01*
G01*
X123300000Y-95000000D02*
G75*
G03X123300000Y-95000000I-4300000J0D01*
G01*
X123300000Y-111000000D02*
G75*
G03X123300000Y-111000000I-4300000J0D01*
G01*
X123300000Y-127000000D02*
G75*
G03X123300000Y-127000000I-4300000J0D01*
G01*
X123300000Y-143000000D02*
G75*
G03X123300000Y-143000000I-4300000J0D01*
G01*
X184000000Y-31000000D02*
G75*
G02X188000000Y-35000000I0J-4000000D01*
G01*
X108000000Y-35000000D02*
G75*
G02X112000000Y-31000000I4000000J0D01*
G01*
X188000000Y-155000000D02*
G75*
G02X184000000Y-159000000I-4000000J0D01*
G01*
X112000000Y-159000000D02*
G75*
G02X108000000Y-155000000I0J4000000D01*
G01*
X184000000Y-159000000D02*
X112000000Y-159000000D01*
X188000000Y-35000000D02*
X188000000Y-155000000D01*
X112000000Y-31000000D02*
X184000000Y-31000000D01*
X108000000Y-155000000D02*
X108000000Y-35000000D01*
X44000000Y-31000000D02*
G75*
G02X48000000Y-35000000I0J-4000000D01*
G01*
X98000000Y-106000000D02*
G75*
G02X102000000Y-102000000I4000000J0D01*
G01*
X102000000Y-102000000D02*
G75*
G02X106000000Y-106000000I0J-4000000D01*
G01*
X51000000Y-109000000D02*
G75*
G02X48000000Y-106000000I0J3000000D01*
G01*
X98000000Y-109000000D02*
X98000000Y-106000000D01*
X69000000Y-109000000D02*
X98000000Y-109000000D01*
X66000000Y-109000000D02*
X69000000Y-109000000D01*
X51000000Y-109000000D02*
X66000000Y-109000000D01*
X48000000Y-102000000D02*
X48000000Y-106000000D01*
X30000000Y-159000000D02*
G75*
G02X26000000Y-155000000I0J4000000D01*
G01*
X26000000Y-35000000D02*
G75*
G02X30000000Y-31000000I4000000J0D01*
G01*
X106000000Y-155000000D02*
G75*
G02X102000000Y-159000000I-4000000J0D01*
G01*
X26000000Y-155000000D02*
X26000000Y-35000000D01*
X102000000Y-159000000D02*
X30000000Y-159000000D01*
X106000000Y-106000000D02*
X106000000Y-155000000D01*
X48000000Y-35000000D02*
X48000000Y-102000000D01*
X30000000Y-31000000D02*
X44000000Y-31000000D01*
M02*
