G04 #@! TF.GenerationSoftware,KiCad,Pcbnew,(5.0.1-3-g963ef8bb5)*
G04 #@! TF.CreationDate,2021-04-06T11:18:42+02:00*
G04 #@! TF.ProjectId,foodSampler_v20,666F6F6453616D706C65725F7632302E,rev?*
G04 #@! TF.SameCoordinates,Original*
G04 #@! TF.FileFunction,Legend,Top*
G04 #@! TF.FilePolarity,Positive*
%FSLAX46Y46*%
G04 Gerber Fmt 4.6, Leading zero omitted, Abs format (unit mm)*
G04 Created by KiCad (PCBNEW (5.0.1-3-g963ef8bb5)) date 2021 April 06, Tuesday 11:18:42*
%MOMM*%
%LPD*%
G01*
G04 APERTURE LIST*
%ADD10C,0.200000*%
%ADD11C,0.300000*%
%ADD12C,0.120000*%
%ADD13C,0.150000*%
%ADD14C,0.100000*%
%ADD15C,0.010000*%
G04 APERTURE END LIST*
D10*
X101761904Y-134852380D02*
X102380952Y-134852380D01*
X102047619Y-135233333D01*
X102190476Y-135233333D01*
X102285714Y-135280952D01*
X102333333Y-135328571D01*
X102380952Y-135423809D01*
X102380952Y-135661904D01*
X102333333Y-135757142D01*
X102285714Y-135804761D01*
X102190476Y-135852380D01*
X101904761Y-135852380D01*
X101809523Y-135804761D01*
X101761904Y-135757142D01*
X102666666Y-134852380D02*
X103000000Y-135852380D01*
X103333333Y-134852380D01*
X103571428Y-134852380D02*
X104190476Y-134852380D01*
X103857142Y-135233333D01*
X104000000Y-135233333D01*
X104095238Y-135280952D01*
X104142857Y-135328571D01*
X104190476Y-135423809D01*
X104190476Y-135661904D01*
X104142857Y-135757142D01*
X104095238Y-135804761D01*
X104000000Y-135852380D01*
X103714285Y-135852380D01*
X103619047Y-135804761D01*
X103571428Y-135757142D01*
X64966666Y-138152380D02*
X65300000Y-139152380D01*
X65633333Y-138152380D01*
X66300000Y-138628571D02*
X66442857Y-138676190D01*
X66490476Y-138723809D01*
X66538095Y-138819047D01*
X66538095Y-138961904D01*
X66490476Y-139057142D01*
X66442857Y-139104761D01*
X66347619Y-139152380D01*
X65966666Y-139152380D01*
X65966666Y-138152380D01*
X66300000Y-138152380D01*
X66395238Y-138200000D01*
X66442857Y-138247619D01*
X66490476Y-138342857D01*
X66490476Y-138438095D01*
X66442857Y-138533333D01*
X66395238Y-138580952D01*
X66300000Y-138628571D01*
X65966666Y-138628571D01*
X66966666Y-138152380D02*
X66966666Y-138961904D01*
X67014285Y-139057142D01*
X67061904Y-139104761D01*
X67157142Y-139152380D01*
X67347619Y-139152380D01*
X67442857Y-139104761D01*
X67490476Y-139057142D01*
X67538095Y-138961904D01*
X67538095Y-138152380D01*
X67966666Y-139104761D02*
X68109523Y-139152380D01*
X68347619Y-139152380D01*
X68442857Y-139104761D01*
X68490476Y-139057142D01*
X68538095Y-138961904D01*
X68538095Y-138866666D01*
X68490476Y-138771428D01*
X68442857Y-138723809D01*
X68347619Y-138676190D01*
X68157142Y-138628571D01*
X68061904Y-138580952D01*
X68014285Y-138533333D01*
X67966666Y-138438095D01*
X67966666Y-138342857D01*
X68014285Y-138247619D01*
X68061904Y-138200000D01*
X68157142Y-138152380D01*
X68395238Y-138152380D01*
X68538095Y-138200000D01*
X75528571Y-150371428D02*
X76290476Y-150371428D01*
X75909523Y-150752380D02*
X75909523Y-149990476D01*
X77100000Y-150228571D02*
X77242857Y-150276190D01*
X77290476Y-150323809D01*
X77338095Y-150419047D01*
X77338095Y-150561904D01*
X77290476Y-150657142D01*
X77242857Y-150704761D01*
X77147619Y-150752380D01*
X76766666Y-150752380D01*
X76766666Y-149752380D01*
X77100000Y-149752380D01*
X77195238Y-149800000D01*
X77242857Y-149847619D01*
X77290476Y-149942857D01*
X77290476Y-150038095D01*
X77242857Y-150133333D01*
X77195238Y-150180952D01*
X77100000Y-150228571D01*
X76766666Y-150228571D01*
X77719047Y-150466666D02*
X78195238Y-150466666D01*
X77623809Y-150752380D02*
X77957142Y-149752380D01*
X78290476Y-150752380D01*
X78480952Y-149752380D02*
X79052380Y-149752380D01*
X78766666Y-150752380D02*
X78766666Y-149752380D01*
X79242857Y-149752380D02*
X79814285Y-149752380D01*
X79528571Y-150752380D02*
X79528571Y-149752380D01*
X35538095Y-152600000D02*
X35442857Y-152552380D01*
X35300000Y-152552380D01*
X35157142Y-152600000D01*
X35061904Y-152695238D01*
X35014285Y-152790476D01*
X34966666Y-152980952D01*
X34966666Y-153123809D01*
X35014285Y-153314285D01*
X35061904Y-153409523D01*
X35157142Y-153504761D01*
X35300000Y-153552380D01*
X35395238Y-153552380D01*
X35538095Y-153504761D01*
X35585714Y-153457142D01*
X35585714Y-153123809D01*
X35395238Y-153123809D01*
X36014285Y-153552380D02*
X36014285Y-152552380D01*
X36585714Y-153552380D01*
X36585714Y-152552380D01*
X37061904Y-153552380D02*
X37061904Y-152552380D01*
X37300000Y-152552380D01*
X37442857Y-152600000D01*
X37538095Y-152695238D01*
X37585714Y-152790476D01*
X37633333Y-152980952D01*
X37633333Y-153123809D01*
X37585714Y-153314285D01*
X37538095Y-153409523D01*
X37442857Y-153504761D01*
X37300000Y-153552380D01*
X37061904Y-153552380D01*
X52633333Y-151352380D02*
X52966666Y-152352380D01*
X53300000Y-151352380D01*
X53966666Y-151828571D02*
X54109523Y-151876190D01*
X54157142Y-151923809D01*
X54204761Y-152019047D01*
X54204761Y-152161904D01*
X54157142Y-152257142D01*
X54109523Y-152304761D01*
X54014285Y-152352380D01*
X53633333Y-152352380D01*
X53633333Y-151352380D01*
X53966666Y-151352380D01*
X54061904Y-151400000D01*
X54109523Y-151447619D01*
X54157142Y-151542857D01*
X54157142Y-151638095D01*
X54109523Y-151733333D01*
X54061904Y-151780952D01*
X53966666Y-151828571D01*
X53633333Y-151828571D01*
X54633333Y-151352380D02*
X54633333Y-152161904D01*
X54680952Y-152257142D01*
X54728571Y-152304761D01*
X54823809Y-152352380D01*
X55014285Y-152352380D01*
X55109523Y-152304761D01*
X55157142Y-152257142D01*
X55204761Y-152161904D01*
X55204761Y-151352380D01*
X55633333Y-152304761D02*
X55776190Y-152352380D01*
X56014285Y-152352380D01*
X56109523Y-152304761D01*
X56157142Y-152257142D01*
X56204761Y-152161904D01*
X56204761Y-152066666D01*
X56157142Y-151971428D01*
X56109523Y-151923809D01*
X56014285Y-151876190D01*
X55823809Y-151828571D01*
X55728571Y-151780952D01*
X55680952Y-151733333D01*
X55633333Y-151638095D01*
X55633333Y-151542857D01*
X55680952Y-151447619D01*
X55728571Y-151400000D01*
X55823809Y-151352380D01*
X56061904Y-151352380D01*
X56204761Y-151400000D01*
X56395238Y-152447619D02*
X57157142Y-152447619D01*
X57966666Y-152352380D02*
X57633333Y-151876190D01*
X57395238Y-152352380D02*
X57395238Y-151352380D01*
X57776190Y-151352380D01*
X57871428Y-151400000D01*
X57919047Y-151447619D01*
X57966666Y-151542857D01*
X57966666Y-151685714D01*
X57919047Y-151780952D01*
X57871428Y-151828571D01*
X57776190Y-151876190D01*
X57395238Y-151876190D01*
X58395238Y-151828571D02*
X58728571Y-151828571D01*
X58871428Y-152352380D02*
X58395238Y-152352380D01*
X58395238Y-151352380D01*
X58871428Y-151352380D01*
X59823809Y-151400000D02*
X59728571Y-151352380D01*
X59585714Y-151352380D01*
X59442857Y-151400000D01*
X59347619Y-151495238D01*
X59300000Y-151590476D01*
X59252380Y-151780952D01*
X59252380Y-151923809D01*
X59300000Y-152114285D01*
X59347619Y-152209523D01*
X59442857Y-152304761D01*
X59585714Y-152352380D01*
X59680952Y-152352380D01*
X59823809Y-152304761D01*
X59871428Y-152257142D01*
X59871428Y-151923809D01*
X59680952Y-151923809D01*
D11*
X49607142Y-121117857D02*
X49107142Y-121117857D01*
X49107142Y-121903571D02*
X49107142Y-120403571D01*
X49821428Y-120403571D01*
X50607142Y-121903571D02*
X50464285Y-121832142D01*
X50392857Y-121760714D01*
X50321428Y-121617857D01*
X50321428Y-121189285D01*
X50392857Y-121046428D01*
X50464285Y-120975000D01*
X50607142Y-120903571D01*
X50821428Y-120903571D01*
X50964285Y-120975000D01*
X51035714Y-121046428D01*
X51107142Y-121189285D01*
X51107142Y-121617857D01*
X51035714Y-121760714D01*
X50964285Y-121832142D01*
X50821428Y-121903571D01*
X50607142Y-121903571D01*
X51964285Y-121903571D02*
X51821428Y-121832142D01*
X51750000Y-121760714D01*
X51678571Y-121617857D01*
X51678571Y-121189285D01*
X51750000Y-121046428D01*
X51821428Y-120975000D01*
X51964285Y-120903571D01*
X52178571Y-120903571D01*
X52321428Y-120975000D01*
X52392857Y-121046428D01*
X52464285Y-121189285D01*
X52464285Y-121617857D01*
X52392857Y-121760714D01*
X52321428Y-121832142D01*
X52178571Y-121903571D01*
X51964285Y-121903571D01*
X53750000Y-121903571D02*
X53750000Y-120403571D01*
X53750000Y-121832142D02*
X53607142Y-121903571D01*
X53321428Y-121903571D01*
X53178571Y-121832142D01*
X53107142Y-121760714D01*
X53035714Y-121617857D01*
X53035714Y-121189285D01*
X53107142Y-121046428D01*
X53178571Y-120975000D01*
X53321428Y-120903571D01*
X53607142Y-120903571D01*
X53750000Y-120975000D01*
X54392857Y-121832142D02*
X54607142Y-121903571D01*
X54964285Y-121903571D01*
X55107142Y-121832142D01*
X55178571Y-121760714D01*
X55250000Y-121617857D01*
X55250000Y-121475000D01*
X55178571Y-121332142D01*
X55107142Y-121260714D01*
X54964285Y-121189285D01*
X54678571Y-121117857D01*
X54535714Y-121046428D01*
X54464285Y-120975000D01*
X54392857Y-120832142D01*
X54392857Y-120689285D01*
X54464285Y-120546428D01*
X54535714Y-120475000D01*
X54678571Y-120403571D01*
X55035714Y-120403571D01*
X55250000Y-120475000D01*
X56535714Y-121903571D02*
X56535714Y-121117857D01*
X56464285Y-120975000D01*
X56321428Y-120903571D01*
X56035714Y-120903571D01*
X55892857Y-120975000D01*
X56535714Y-121832142D02*
X56392857Y-121903571D01*
X56035714Y-121903571D01*
X55892857Y-121832142D01*
X55821428Y-121689285D01*
X55821428Y-121546428D01*
X55892857Y-121403571D01*
X56035714Y-121332142D01*
X56392857Y-121332142D01*
X56535714Y-121260714D01*
X57250000Y-121903571D02*
X57250000Y-120903571D01*
X57250000Y-121046428D02*
X57321428Y-120975000D01*
X57464285Y-120903571D01*
X57678571Y-120903571D01*
X57821428Y-120975000D01*
X57892857Y-121117857D01*
X57892857Y-121903571D01*
X57892857Y-121117857D02*
X57964285Y-120975000D01*
X58107142Y-120903571D01*
X58321428Y-120903571D01*
X58464285Y-120975000D01*
X58535714Y-121117857D01*
X58535714Y-121903571D01*
X59250000Y-120903571D02*
X59250000Y-122403571D01*
X59250000Y-120975000D02*
X59392857Y-120903571D01*
X59678571Y-120903571D01*
X59821428Y-120975000D01*
X59892857Y-121046428D01*
X59964285Y-121189285D01*
X59964285Y-121617857D01*
X59892857Y-121760714D01*
X59821428Y-121832142D01*
X59678571Y-121903571D01*
X59392857Y-121903571D01*
X59250000Y-121832142D01*
X60821428Y-121903571D02*
X60678571Y-121832142D01*
X60607142Y-121689285D01*
X60607142Y-120403571D01*
X61964285Y-121832142D02*
X61821428Y-121903571D01*
X61535714Y-121903571D01*
X61392857Y-121832142D01*
X61321428Y-121689285D01*
X61321428Y-121117857D01*
X61392857Y-120975000D01*
X61535714Y-120903571D01*
X61821428Y-120903571D01*
X61964285Y-120975000D01*
X62035714Y-121117857D01*
X62035714Y-121260714D01*
X61321428Y-121403571D01*
X62678571Y-121903571D02*
X62678571Y-120903571D01*
X62678571Y-121189285D02*
X62750000Y-121046428D01*
X62821428Y-120975000D01*
X62964285Y-120903571D01*
X63107142Y-120903571D01*
X64535714Y-120403571D02*
X65035714Y-121903571D01*
X65535714Y-120403571D01*
X65964285Y-120546428D02*
X66035714Y-120475000D01*
X66178571Y-120403571D01*
X66535714Y-120403571D01*
X66678571Y-120475000D01*
X66750000Y-120546428D01*
X66821428Y-120689285D01*
X66821428Y-120832142D01*
X66750000Y-121046428D01*
X65892857Y-121903571D01*
X66821428Y-121903571D01*
X67464285Y-121760714D02*
X67535714Y-121832142D01*
X67464285Y-121903571D01*
X67392857Y-121832142D01*
X67464285Y-121760714D01*
X67464285Y-121903571D01*
X68464285Y-120403571D02*
X68607142Y-120403571D01*
X68750000Y-120475000D01*
X68821428Y-120546428D01*
X68892857Y-120689285D01*
X68964285Y-120975000D01*
X68964285Y-121332142D01*
X68892857Y-121617857D01*
X68821428Y-121760714D01*
X68750000Y-121832142D01*
X68607142Y-121903571D01*
X68464285Y-121903571D01*
X68321428Y-121832142D01*
X68250000Y-121760714D01*
X68178571Y-121617857D01*
X68107142Y-121332142D01*
X68107142Y-120975000D01*
X68178571Y-120689285D01*
X68250000Y-120546428D01*
X68321428Y-120475000D01*
X68464285Y-120403571D01*
X52607142Y-123096428D02*
X52678571Y-123025000D01*
X52821428Y-122953571D01*
X53178571Y-122953571D01*
X53321428Y-123025000D01*
X53392857Y-123096428D01*
X53464285Y-123239285D01*
X53464285Y-123382142D01*
X53392857Y-123596428D01*
X52535714Y-124453571D01*
X53464285Y-124453571D01*
X54892857Y-124453571D02*
X54035714Y-124453571D01*
X54464285Y-124453571D02*
X54464285Y-122953571D01*
X54321428Y-123167857D01*
X54178571Y-123310714D01*
X54035714Y-123382142D01*
X55821428Y-122953571D02*
X55964285Y-122953571D01*
X56107142Y-123025000D01*
X56178571Y-123096428D01*
X56249999Y-123239285D01*
X56321428Y-123525000D01*
X56321428Y-123882142D01*
X56249999Y-124167857D01*
X56178571Y-124310714D01*
X56107142Y-124382142D01*
X55964285Y-124453571D01*
X55821428Y-124453571D01*
X55678571Y-124382142D01*
X55607142Y-124310714D01*
X55535714Y-124167857D01*
X55464285Y-123882142D01*
X55464285Y-123525000D01*
X55535714Y-123239285D01*
X55607142Y-123096428D01*
X55678571Y-123025000D01*
X55821428Y-122953571D01*
X56821428Y-122953571D02*
X57749999Y-122953571D01*
X57249999Y-123525000D01*
X57464285Y-123525000D01*
X57607142Y-123596428D01*
X57678571Y-123667857D01*
X57749999Y-123810714D01*
X57749999Y-124167857D01*
X57678571Y-124310714D01*
X57607142Y-124382142D01*
X57464285Y-124453571D01*
X57035714Y-124453571D01*
X56892857Y-124382142D01*
X56821428Y-124310714D01*
X58249999Y-122953571D02*
X59178571Y-122953571D01*
X58678571Y-123525000D01*
X58892857Y-123525000D01*
X59035714Y-123596428D01*
X59107142Y-123667857D01*
X59178571Y-123810714D01*
X59178571Y-124167857D01*
X59107142Y-124310714D01*
X59035714Y-124382142D01*
X58892857Y-124453571D01*
X58464285Y-124453571D01*
X58321428Y-124382142D01*
X58249999Y-124310714D01*
X60607142Y-124453571D02*
X59749999Y-124453571D01*
X60178571Y-124453571D02*
X60178571Y-122953571D01*
X60035714Y-123167857D01*
X59892857Y-123310714D01*
X59749999Y-123382142D01*
X61249999Y-124453571D02*
X61249999Y-122953571D01*
X61749999Y-124025000D01*
X62249999Y-122953571D01*
X62249999Y-124453571D01*
X63821428Y-124310714D02*
X63750000Y-124382142D01*
X63535714Y-124453571D01*
X63392857Y-124453571D01*
X63178571Y-124382142D01*
X63035714Y-124239285D01*
X62964285Y-124096428D01*
X62892857Y-123810714D01*
X62892857Y-123596428D01*
X62964285Y-123310714D01*
X63035714Y-123167857D01*
X63178571Y-123025000D01*
X63392857Y-122953571D01*
X63535714Y-122953571D01*
X63750000Y-123025000D01*
X63821428Y-123096428D01*
X64464285Y-124453571D02*
X64464285Y-122953571D01*
X64464285Y-123667857D02*
X65321428Y-123667857D01*
X65321428Y-124453571D02*
X65321428Y-122953571D01*
X102178571Y-115678571D02*
X101678571Y-114964285D01*
X101321428Y-115678571D02*
X101321428Y-114178571D01*
X101892857Y-114178571D01*
X102035714Y-114250000D01*
X102107142Y-114321428D01*
X102178571Y-114464285D01*
X102178571Y-114678571D01*
X102107142Y-114821428D01*
X102035714Y-114892857D01*
X101892857Y-114964285D01*
X101321428Y-114964285D01*
X102750000Y-115607142D02*
X102964285Y-115678571D01*
X103321428Y-115678571D01*
X103464285Y-115607142D01*
X103535714Y-115535714D01*
X103607142Y-115392857D01*
X103607142Y-115250000D01*
X103535714Y-115107142D01*
X103464285Y-115035714D01*
X103321428Y-114964285D01*
X103035714Y-114892857D01*
X102892857Y-114821428D01*
X102821428Y-114750000D01*
X102750000Y-114607142D01*
X102750000Y-114464285D01*
X102821428Y-114321428D01*
X102892857Y-114250000D01*
X103035714Y-114178571D01*
X103392857Y-114178571D01*
X103607142Y-114250000D01*
X104035714Y-114178571D02*
X104892857Y-114178571D01*
X104464285Y-115678571D02*
X104464285Y-114178571D01*
X94964285Y-114892857D02*
X95178571Y-114964285D01*
X95250000Y-115035714D01*
X95321428Y-115178571D01*
X95321428Y-115392857D01*
X95250000Y-115535714D01*
X95178571Y-115607142D01*
X95035714Y-115678571D01*
X94464285Y-115678571D01*
X94464285Y-114178571D01*
X94964285Y-114178571D01*
X95107142Y-114250000D01*
X95178571Y-114321428D01*
X95250000Y-114464285D01*
X95250000Y-114607142D01*
X95178571Y-114750000D01*
X95107142Y-114821428D01*
X94964285Y-114892857D01*
X94464285Y-114892857D01*
X96250000Y-114178571D02*
X96535714Y-114178571D01*
X96678571Y-114250000D01*
X96821428Y-114392857D01*
X96892857Y-114678571D01*
X96892857Y-115178571D01*
X96821428Y-115464285D01*
X96678571Y-115607142D01*
X96535714Y-115678571D01*
X96250000Y-115678571D01*
X96107142Y-115607142D01*
X95964285Y-115464285D01*
X95892857Y-115178571D01*
X95892857Y-114678571D01*
X95964285Y-114392857D01*
X96107142Y-114250000D01*
X96250000Y-114178571D01*
X97821428Y-114178571D02*
X98107142Y-114178571D01*
X98250000Y-114250000D01*
X98392857Y-114392857D01*
X98464285Y-114678571D01*
X98464285Y-115178571D01*
X98392857Y-115464285D01*
X98250000Y-115607142D01*
X98107142Y-115678571D01*
X97821428Y-115678571D01*
X97678571Y-115607142D01*
X97535714Y-115464285D01*
X97464285Y-115178571D01*
X97464285Y-114678571D01*
X97535714Y-114392857D01*
X97678571Y-114250000D01*
X97821428Y-114178571D01*
X98892857Y-114178571D02*
X99750000Y-114178571D01*
X99321428Y-115678571D02*
X99321428Y-114178571D01*
D12*
G04 #@! TO.C,R41*
X86162779Y-131490000D02*
X85837221Y-131490000D01*
X86162779Y-132510000D02*
X85837221Y-132510000D01*
G04 #@! TO.C,C00*
X71113194Y-138363158D02*
X71113194Y-137846002D01*
X72533194Y-138363158D02*
X72533194Y-137846002D01*
G04 #@! TO.C,C01*
X78533194Y-138363158D02*
X78533194Y-137846002D01*
X77113194Y-138363158D02*
X77113194Y-137846002D01*
G04 #@! TO.C,C10*
X97162779Y-116490000D02*
X96837221Y-116490000D01*
X97162779Y-117510000D02*
X96837221Y-117510000D01*
G04 #@! TO.C,C11*
X103162779Y-117510000D02*
X102837221Y-117510000D01*
X103162779Y-116490000D02*
X102837221Y-116490000D01*
G04 #@! TO.C,C12*
X93162779Y-130510000D02*
X92837221Y-130510000D01*
X93162779Y-129490000D02*
X92837221Y-129490000D01*
G04 #@! TO.C,C20*
X98341422Y-141890000D02*
X98858578Y-141890000D01*
X98341422Y-143310000D02*
X98858578Y-143310000D01*
G04 #@! TO.C,C21*
X95058578Y-141890000D02*
X94541422Y-141890000D01*
X95058578Y-143310000D02*
X94541422Y-143310000D01*
G04 #@! TO.C,C22*
X95058578Y-140910000D02*
X94541422Y-140910000D01*
X95058578Y-139490000D02*
X94541422Y-139490000D01*
G04 #@! TO.C,C23*
X98341422Y-140910000D02*
X98858578Y-140910000D01*
X98341422Y-139490000D02*
X98858578Y-139490000D01*
G04 #@! TO.C,C30*
X57110000Y-144158578D02*
X57110000Y-143641422D01*
X55690000Y-144158578D02*
X55690000Y-143641422D01*
G04 #@! TO.C,C31*
X69303922Y-113290000D02*
X69821078Y-113290000D01*
X69303922Y-114710000D02*
X69821078Y-114710000D01*
G04 #@! TO.C,C33*
X60410000Y-137737221D02*
X60410000Y-138062779D01*
X59390000Y-137737221D02*
X59390000Y-138062779D01*
G04 #@! TO.C,C34*
X57110000Y-140141422D02*
X57110000Y-140658578D01*
X55690000Y-140141422D02*
X55690000Y-140658578D01*
G04 #@! TO.C,C40*
X46510000Y-52837221D02*
X46510000Y-53162779D01*
X45490000Y-52837221D02*
X45490000Y-53162779D01*
G04 #@! TO.C,C41*
X45490000Y-68837221D02*
X45490000Y-69162779D01*
X46510000Y-68837221D02*
X46510000Y-69162779D01*
G04 #@! TO.C,C42*
X45490000Y-84837221D02*
X45490000Y-85162779D01*
X46510000Y-84837221D02*
X46510000Y-85162779D01*
G04 #@! TO.C,C43*
X45490000Y-100837221D02*
X45490000Y-101162779D01*
X46510000Y-100837221D02*
X46510000Y-101162779D01*
G04 #@! TO.C,C44*
X46510000Y-116837221D02*
X46510000Y-117162779D01*
X45490000Y-116837221D02*
X45490000Y-117162779D01*
G04 #@! TO.C,C45*
X45490000Y-132837221D02*
X45490000Y-133162779D01*
X46510000Y-132837221D02*
X46510000Y-133162779D01*
G04 #@! TO.C,C46*
X46510000Y-148837221D02*
X46510000Y-149162779D01*
X45490000Y-148837221D02*
X45490000Y-149162779D01*
G04 #@! TO.C,D00*
X82903194Y-140844580D02*
X82903194Y-142304580D01*
X79743194Y-140844580D02*
X79743194Y-143004580D01*
X79743194Y-140844580D02*
X80673194Y-140844580D01*
X82903194Y-140844580D02*
X81973194Y-140844580D01*
G04 #@! TO.C,Q00*
X76403194Y-137344580D02*
X75473194Y-137344580D01*
X73243194Y-137344580D02*
X74173194Y-137344580D01*
X73243194Y-137344580D02*
X73243194Y-139504580D01*
X76403194Y-137344580D02*
X76403194Y-138804580D01*
G04 #@! TO.C,Q10*
X98580000Y-119240000D02*
X97650000Y-119240000D01*
X95420000Y-119240000D02*
X96350000Y-119240000D01*
X95420000Y-119240000D02*
X95420000Y-121400000D01*
X98580000Y-119240000D02*
X98580000Y-120700000D01*
G04 #@! TO.C,Q11*
X104580000Y-119240000D02*
X104580000Y-120700000D01*
X101420000Y-119240000D02*
X101420000Y-121400000D01*
X101420000Y-119240000D02*
X102350000Y-119240000D01*
X104580000Y-119240000D02*
X103650000Y-119240000D01*
G04 #@! TO.C,R00*
X80833194Y-138267359D02*
X80833194Y-137941801D01*
X79813194Y-138267359D02*
X79813194Y-137941801D01*
G04 #@! TO.C,R01*
X81813194Y-138267359D02*
X81813194Y-137941801D01*
X82833194Y-138267359D02*
X82833194Y-137941801D01*
G04 #@! TO.C,R10*
X97162779Y-123510000D02*
X96837221Y-123510000D01*
X97162779Y-122490000D02*
X96837221Y-122490000D01*
G04 #@! TO.C,R11*
X103162779Y-122490000D02*
X102837221Y-122490000D01*
X103162779Y-123510000D02*
X102837221Y-123510000D01*
G04 #@! TO.C,R20*
X91862779Y-150210000D02*
X91537221Y-150210000D01*
X91862779Y-149190000D02*
X91537221Y-149190000D01*
G04 #@! TO.C,R21*
X96350279Y-149190000D02*
X96024721Y-149190000D01*
X96350279Y-150210000D02*
X96024721Y-150210000D01*
G04 #@! TO.C,R22*
X96350279Y-151810000D02*
X96024721Y-151810000D01*
X96350279Y-150790000D02*
X96024721Y-150790000D01*
G04 #@! TO.C,R23*
X92975279Y-150790000D02*
X92649721Y-150790000D01*
X92975279Y-151810000D02*
X92649721Y-151810000D01*
G04 #@! TO.C,R32*
X62390000Y-138062779D02*
X62390000Y-137737221D01*
X63410000Y-138062779D02*
X63410000Y-137737221D01*
G04 #@! TO.C,R33*
X55197936Y-136490000D02*
X56402064Y-136490000D01*
X55197936Y-138310000D02*
X56402064Y-138310000D01*
G04 #@! TO.C,R40*
X85837221Y-133490000D02*
X86162779Y-133490000D01*
X85837221Y-134510000D02*
X86162779Y-134510000D01*
G04 #@! TO.C,RL40*
X27490000Y-52837221D02*
X27490000Y-53162779D01*
X28510000Y-52837221D02*
X28510000Y-53162779D01*
G04 #@! TO.C,RL41*
X28510000Y-68837221D02*
X28510000Y-69162779D01*
X27490000Y-68837221D02*
X27490000Y-69162779D01*
G04 #@! TO.C,RL42*
X27490000Y-84837221D02*
X27490000Y-85162779D01*
X28510000Y-84837221D02*
X28510000Y-85162779D01*
G04 #@! TO.C,RL43*
X28510000Y-100837221D02*
X28510000Y-101162779D01*
X27490000Y-100837221D02*
X27490000Y-101162779D01*
G04 #@! TO.C,RL44*
X27490000Y-116837221D02*
X27490000Y-117162779D01*
X28510000Y-116837221D02*
X28510000Y-117162779D01*
G04 #@! TO.C,RL45*
X28510000Y-132837221D02*
X28510000Y-133162779D01*
X27490000Y-132837221D02*
X27490000Y-133162779D01*
G04 #@! TO.C,RL46*
X27490000Y-148837221D02*
X27490000Y-149162779D01*
X28510000Y-148837221D02*
X28510000Y-149162779D01*
G04 #@! TO.C,RS40*
X46510000Y-49337221D02*
X46510000Y-49662779D01*
X45490000Y-49337221D02*
X45490000Y-49662779D01*
G04 #@! TO.C,RS41*
X46510000Y-65337221D02*
X46510000Y-65662779D01*
X45490000Y-65337221D02*
X45490000Y-65662779D01*
G04 #@! TO.C,RS42*
X45490000Y-81337221D02*
X45490000Y-81662779D01*
X46510000Y-81337221D02*
X46510000Y-81662779D01*
G04 #@! TO.C,RS43*
X45490000Y-97337221D02*
X45490000Y-97662779D01*
X46510000Y-97337221D02*
X46510000Y-97662779D01*
G04 #@! TO.C,RS44*
X45490000Y-113337221D02*
X45490000Y-113662779D01*
X46510000Y-113337221D02*
X46510000Y-113662779D01*
G04 #@! TO.C,RS45*
X46510000Y-129337221D02*
X46510000Y-129662779D01*
X45490000Y-129337221D02*
X45490000Y-129662779D01*
G04 #@! TO.C,RS46*
X45490000Y-145337221D02*
X45490000Y-145662779D01*
X46510000Y-145337221D02*
X46510000Y-145662779D01*
D13*
G04 #@! TO.C,SW40*
X31000000Y-41000000D02*
X43000000Y-41000000D01*
X43000000Y-41000000D02*
X43000000Y-53000000D01*
X43000000Y-53000000D02*
X31000000Y-53000000D01*
X31000000Y-53000000D02*
X31000000Y-41000000D01*
X30500000Y-42500000D02*
X30500000Y-40500000D01*
X30500000Y-40500000D02*
X32000000Y-40500000D01*
X32000000Y-40500000D02*
X32500000Y-40500000D01*
G04 #@! TO.C,SW41*
X32000000Y-56500000D02*
X32500000Y-56500000D01*
X30500000Y-56500000D02*
X32000000Y-56500000D01*
X30500000Y-58500000D02*
X30500000Y-56500000D01*
X31000000Y-69000000D02*
X31000000Y-57000000D01*
X43000000Y-69000000D02*
X31000000Y-69000000D01*
X43000000Y-57000000D02*
X43000000Y-69000000D01*
X31000000Y-57000000D02*
X43000000Y-57000000D01*
G04 #@! TO.C,SW42*
X31000000Y-73000000D02*
X43000000Y-73000000D01*
X43000000Y-73000000D02*
X43000000Y-85000000D01*
X43000000Y-85000000D02*
X31000000Y-85000000D01*
X31000000Y-85000000D02*
X31000000Y-73000000D01*
X30500000Y-74500000D02*
X30500000Y-72500000D01*
X30500000Y-72500000D02*
X32000000Y-72500000D01*
X32000000Y-72500000D02*
X32500000Y-72500000D01*
G04 #@! TO.C,SW43*
X31000000Y-89000000D02*
X43000000Y-89000000D01*
X43000000Y-89000000D02*
X43000000Y-101000000D01*
X43000000Y-101000000D02*
X31000000Y-101000000D01*
X31000000Y-101000000D02*
X31000000Y-89000000D01*
X30500000Y-90500000D02*
X30500000Y-88500000D01*
X30500000Y-88500000D02*
X32000000Y-88500000D01*
X32000000Y-88500000D02*
X32500000Y-88500000D01*
G04 #@! TO.C,SW44*
X32000000Y-104500000D02*
X32500000Y-104500000D01*
X30500000Y-104500000D02*
X32000000Y-104500000D01*
X30500000Y-106500000D02*
X30500000Y-104500000D01*
X31000000Y-117000000D02*
X31000000Y-105000000D01*
X43000000Y-117000000D02*
X31000000Y-117000000D01*
X43000000Y-105000000D02*
X43000000Y-117000000D01*
X31000000Y-105000000D02*
X43000000Y-105000000D01*
G04 #@! TO.C,SW45*
X31000000Y-121000000D02*
X43000000Y-121000000D01*
X43000000Y-121000000D02*
X43000000Y-133000000D01*
X43000000Y-133000000D02*
X31000000Y-133000000D01*
X31000000Y-133000000D02*
X31000000Y-121000000D01*
X30500000Y-122500000D02*
X30500000Y-120500000D01*
X30500000Y-120500000D02*
X32000000Y-120500000D01*
X32000000Y-120500000D02*
X32500000Y-120500000D01*
G04 #@! TO.C,SW46*
X32000000Y-136500000D02*
X32500000Y-136500000D01*
X30500000Y-136500000D02*
X32000000Y-136500000D01*
X30500000Y-138500000D02*
X30500000Y-136500000D01*
X31000000Y-149000000D02*
X31000000Y-137000000D01*
X43000000Y-149000000D02*
X31000000Y-149000000D01*
X43000000Y-137000000D02*
X43000000Y-149000000D01*
X31000000Y-137000000D02*
X43000000Y-137000000D01*
D12*
G04 #@! TO.C,TH30*
X71920000Y-111500000D02*
G75*
G03X71920000Y-111500000I-920000J0D01*
G01*
X70080000Y-111500000D02*
X69460000Y-111500000D01*
D13*
G04 #@! TO.C,U00*
X72623194Y-146329580D02*
X77023194Y-146329580D01*
X71048194Y-140804580D02*
X77023194Y-140804580D01*
G04 #@! TO.C,U10*
X103365000Y-126925000D02*
X104475000Y-126925000D01*
X104475000Y-131075000D02*
X103365000Y-131075000D01*
X95525000Y-131075000D02*
X96635000Y-131075000D01*
X95525000Y-126925000D02*
X96635000Y-126925000D01*
X104475000Y-126925000D02*
X104475000Y-131075000D01*
X95525000Y-126925000D02*
X95525000Y-131075000D01*
X103365000Y-126925000D02*
X103365000Y-125800000D01*
D12*
G04 #@! TO.C,U40*
X73880000Y-127600000D02*
X73880000Y-128380000D01*
X73880000Y-128380000D02*
X74880000Y-128380000D01*
X92120000Y-127600000D02*
X92120000Y-128380000D01*
X92120000Y-128380000D02*
X91120000Y-128380000D01*
X73880000Y-102635000D02*
X92120000Y-102635000D01*
X92120000Y-102635000D02*
X92120000Y-109055000D01*
X73880000Y-102635000D02*
X73880000Y-109055000D01*
X73880000Y-109055000D02*
X73500000Y-109055000D01*
G04 #@! TO.C,SW10*
X95380000Y-110880000D02*
X98620000Y-110880000D01*
X98620000Y-110880000D02*
X98620000Y-110980000D01*
X95380000Y-110880000D02*
X95380000Y-110980000D01*
X95380000Y-113120000D02*
X98620000Y-113120000D01*
X98620000Y-113020000D02*
X98620000Y-113120000D01*
X95380000Y-113020000D02*
X95380000Y-113120000D01*
G04 #@! TO.C,SW11*
X101380000Y-113020000D02*
X101380000Y-113120000D01*
X104620000Y-113020000D02*
X104620000Y-113120000D01*
X101380000Y-113120000D02*
X104620000Y-113120000D01*
X101380000Y-110880000D02*
X101380000Y-110980000D01*
X104620000Y-110880000D02*
X104620000Y-110980000D01*
X101380000Y-110880000D02*
X104620000Y-110880000D01*
G04 #@! TO.C,D10*
X91420000Y-133760000D02*
X92350000Y-133760000D01*
X94580000Y-133760000D02*
X93650000Y-133760000D01*
X94580000Y-133760000D02*
X94580000Y-131600000D01*
X91420000Y-133760000D02*
X91420000Y-132300000D01*
D14*
G04 #@! TO.C,L30*
X51400000Y-144700000D02*
X50400000Y-144700000D01*
X50400000Y-144700000D02*
X50400000Y-139500000D01*
X50400000Y-139500000D02*
X51400000Y-139500000D01*
X54600000Y-144700000D02*
X55600000Y-144700000D01*
X55600000Y-144700000D02*
X55600000Y-139500000D01*
X55600000Y-139500000D02*
X54600000Y-139500000D01*
G04 #@! TO.C,U30*
X59900000Y-141900000D02*
X59900000Y-144900000D01*
X59900000Y-144900000D02*
X62900000Y-144900000D01*
X62900000Y-144900000D02*
X62900000Y-141900000D01*
X62900000Y-141900000D02*
X59900000Y-141900000D01*
X59700000Y-142400000D02*
X59700000Y-141700000D01*
X59700000Y-141700000D02*
X60000000Y-141700000D01*
D12*
G04 #@! TO.C,C24*
X88890000Y-145258578D02*
X88890000Y-144741422D01*
X90310000Y-145258578D02*
X90310000Y-144741422D01*
D14*
G04 #@! TO.C,U20*
X92300000Y-147500000D02*
X92300000Y-144500000D01*
X97300000Y-147500000D02*
X97300000Y-144500000D01*
D12*
G04 #@! TO.C,C32*
X60890000Y-138062779D02*
X60890000Y-137737221D01*
X61910000Y-138062779D02*
X61910000Y-137737221D01*
D15*
G04 #@! TO.C,G\002A\002A\002A*
G36*
X121025334Y-32096269D02*
X121035484Y-32114913D01*
X121038910Y-32140407D01*
X121037894Y-32153084D01*
X121024233Y-32213325D01*
X121000569Y-32270826D01*
X120965895Y-32327339D01*
X120919206Y-32384615D01*
X120883867Y-32421195D01*
X120858944Y-32445099D01*
X120833224Y-32468501D01*
X120805386Y-32492424D01*
X120774109Y-32517891D01*
X120738072Y-32545923D01*
X120695953Y-32577544D01*
X120646432Y-32613777D01*
X120588188Y-32655645D01*
X120519899Y-32704170D01*
X120502154Y-32716718D01*
X120415492Y-32778555D01*
X120339874Y-32833886D01*
X120274300Y-32883559D01*
X120217773Y-32928423D01*
X120169292Y-32969327D01*
X120127858Y-33007119D01*
X120092474Y-33042648D01*
X120062140Y-33076764D01*
X120035857Y-33110314D01*
X120030952Y-33117096D01*
X119999356Y-33165324D01*
X119977558Y-33208845D01*
X119964072Y-33251429D01*
X119957415Y-33296846D01*
X119956851Y-33305203D01*
X119958263Y-33373235D01*
X119970505Y-33432923D01*
X119993125Y-33483747D01*
X120025671Y-33525187D01*
X120067689Y-33556722D01*
X120118727Y-33577834D01*
X120178332Y-33588002D01*
X120203873Y-33588889D01*
X120277756Y-33582105D01*
X120354331Y-33561983D01*
X120432846Y-33528868D01*
X120512544Y-33483106D01*
X120592673Y-33425042D01*
X120630032Y-33393806D01*
X120661402Y-33368177D01*
X120685391Y-33352770D01*
X120702165Y-33347932D01*
X120711891Y-33354006D01*
X120714735Y-33371340D01*
X120710862Y-33400278D01*
X120700440Y-33441164D01*
X120683633Y-33494346D01*
X120681492Y-33500695D01*
X120630046Y-33635021D01*
X120567430Y-33768621D01*
X120494807Y-33899986D01*
X120413338Y-34027607D01*
X120324183Y-34149972D01*
X120228505Y-34265574D01*
X120127465Y-34372902D01*
X120022223Y-34470447D01*
X119913940Y-34556699D01*
X119820588Y-34619876D01*
X119720495Y-34675553D01*
X119615946Y-34721482D01*
X119510244Y-34756345D01*
X119433916Y-34774114D01*
X119389075Y-34781614D01*
X119344741Y-34787254D01*
X119303703Y-34790837D01*
X119268751Y-34792168D01*
X119242673Y-34791052D01*
X119230319Y-34788370D01*
X119215956Y-34779162D01*
X119213656Y-34768244D01*
X119223783Y-34755243D01*
X119246702Y-34739787D01*
X119282775Y-34721505D01*
X119305758Y-34711231D01*
X119343095Y-34693111D01*
X119382048Y-34671028D01*
X119415985Y-34648805D01*
X119422975Y-34643625D01*
X119488915Y-34587184D01*
X119551400Y-34522321D01*
X119607830Y-34452230D01*
X119655607Y-34380103D01*
X119688475Y-34317386D01*
X119709429Y-34266083D01*
X119729892Y-34206640D01*
X119749106Y-34142157D01*
X119766313Y-34075735D01*
X119780757Y-34010474D01*
X119791681Y-33949474D01*
X119798327Y-33895838D01*
X119800055Y-33860419D01*
X119799694Y-33833334D01*
X119798116Y-33817448D01*
X119794578Y-33809858D01*
X119788340Y-33807660D01*
X119786561Y-33807611D01*
X119776595Y-33812522D01*
X119763367Y-33827984D01*
X119745996Y-33855095D01*
X119739756Y-33865820D01*
X119714923Y-33903167D01*
X119681880Y-33944251D01*
X119643718Y-33985884D01*
X119603530Y-34024883D01*
X119564408Y-34058060D01*
X119529990Y-34081911D01*
X119465426Y-34114495D01*
X119403758Y-34134810D01*
X119345799Y-34142738D01*
X119292364Y-34138159D01*
X119248255Y-34122974D01*
X119207354Y-34095402D01*
X119173260Y-34057648D01*
X119147247Y-34012511D01*
X119130590Y-33962791D01*
X119124565Y-33911287D01*
X119129893Y-33863071D01*
X119136560Y-33838223D01*
X119145089Y-33813667D01*
X119156439Y-33787606D01*
X119171571Y-33758246D01*
X119191446Y-33723790D01*
X119217023Y-33682443D01*
X119249265Y-33632410D01*
X119270970Y-33599349D01*
X119300300Y-33554098D01*
X119328917Y-33508511D01*
X119355245Y-33465208D01*
X119377706Y-33426811D01*
X119394723Y-33395940D01*
X119401475Y-33382518D01*
X119419237Y-33341556D01*
X119435191Y-33298319D01*
X119448246Y-33256371D01*
X119457311Y-33219277D01*
X119461295Y-33190601D01*
X119461388Y-33186770D01*
X119459532Y-33168748D01*
X119453629Y-33161137D01*
X119443180Y-33164316D01*
X119427683Y-33178664D01*
X119406638Y-33204561D01*
X119379545Y-33242388D01*
X119370335Y-33255866D01*
X119318504Y-33324957D01*
X119256574Y-33393852D01*
X119183478Y-33463613D01*
X119098150Y-33535304D01*
X119062750Y-33562927D01*
X119020155Y-33595566D01*
X118971579Y-33632800D01*
X118922225Y-33670639D01*
X118877292Y-33705098D01*
X118865312Y-33714287D01*
X118805964Y-33761938D01*
X118747967Y-33812495D01*
X118693462Y-33863861D01*
X118644592Y-33913937D01*
X118603501Y-33960626D01*
X118573548Y-34000034D01*
X118536609Y-34057849D01*
X118507355Y-34113102D01*
X118484950Y-34168641D01*
X118468557Y-34227309D01*
X118457341Y-34291953D01*
X118450465Y-34365418D01*
X118447639Y-34428500D01*
X118445418Y-34487234D01*
X118442429Y-34533068D01*
X118438458Y-34567205D01*
X118433290Y-34590845D01*
X118426710Y-34605190D01*
X118418503Y-34611441D01*
X118414802Y-34611945D01*
X118404533Y-34606276D01*
X118393760Y-34588947D01*
X118382322Y-34559469D01*
X118370055Y-34517356D01*
X118356794Y-34462120D01*
X118343774Y-34400278D01*
X118322234Y-34264365D01*
X118313398Y-34134267D01*
X118317381Y-34009417D01*
X118334300Y-33889252D01*
X118364273Y-33773203D01*
X118407415Y-33660707D01*
X118463844Y-33551198D01*
X118533676Y-33444108D01*
X118543926Y-33430090D01*
X118621860Y-33335070D01*
X118712928Y-33242398D01*
X118816261Y-33152696D01*
X118930987Y-33066582D01*
X119056236Y-32984678D01*
X119191139Y-32907603D01*
X119334823Y-32835978D01*
X119447277Y-32786438D01*
X119485473Y-32770916D01*
X119524122Y-32756131D01*
X119564715Y-32741627D01*
X119608740Y-32726952D01*
X119657688Y-32711653D01*
X119713048Y-32695274D01*
X119776310Y-32677364D01*
X119848962Y-32657468D01*
X119932495Y-32635133D01*
X120018777Y-32612423D01*
X120078586Y-32596600D01*
X120138519Y-32580437D01*
X120196033Y-32564642D01*
X120248584Y-32549924D01*
X120293630Y-32536989D01*
X120328626Y-32526548D01*
X120339805Y-32523047D01*
X120463641Y-32480049D01*
X120574976Y-32434127D01*
X120675253Y-32384531D01*
X120765913Y-32330512D01*
X120848399Y-32271319D01*
X120890138Y-32236862D01*
X120919047Y-32210680D01*
X120939764Y-32188490D01*
X120955640Y-32166171D01*
X120970028Y-32139599D01*
X120971277Y-32137036D01*
X120984985Y-32110459D01*
X120995404Y-32094946D01*
X121004217Y-32088354D01*
X121009906Y-32087841D01*
X121025334Y-32096269D01*
X121025334Y-32096269D01*
G37*
X121025334Y-32096269D02*
X121035484Y-32114913D01*
X121038910Y-32140407D01*
X121037894Y-32153084D01*
X121024233Y-32213325D01*
X121000569Y-32270826D01*
X120965895Y-32327339D01*
X120919206Y-32384615D01*
X120883867Y-32421195D01*
X120858944Y-32445099D01*
X120833224Y-32468501D01*
X120805386Y-32492424D01*
X120774109Y-32517891D01*
X120738072Y-32545923D01*
X120695953Y-32577544D01*
X120646432Y-32613777D01*
X120588188Y-32655645D01*
X120519899Y-32704170D01*
X120502154Y-32716718D01*
X120415492Y-32778555D01*
X120339874Y-32833886D01*
X120274300Y-32883559D01*
X120217773Y-32928423D01*
X120169292Y-32969327D01*
X120127858Y-33007119D01*
X120092474Y-33042648D01*
X120062140Y-33076764D01*
X120035857Y-33110314D01*
X120030952Y-33117096D01*
X119999356Y-33165324D01*
X119977558Y-33208845D01*
X119964072Y-33251429D01*
X119957415Y-33296846D01*
X119956851Y-33305203D01*
X119958263Y-33373235D01*
X119970505Y-33432923D01*
X119993125Y-33483747D01*
X120025671Y-33525187D01*
X120067689Y-33556722D01*
X120118727Y-33577834D01*
X120178332Y-33588002D01*
X120203873Y-33588889D01*
X120277756Y-33582105D01*
X120354331Y-33561983D01*
X120432846Y-33528868D01*
X120512544Y-33483106D01*
X120592673Y-33425042D01*
X120630032Y-33393806D01*
X120661402Y-33368177D01*
X120685391Y-33352770D01*
X120702165Y-33347932D01*
X120711891Y-33354006D01*
X120714735Y-33371340D01*
X120710862Y-33400278D01*
X120700440Y-33441164D01*
X120683633Y-33494346D01*
X120681492Y-33500695D01*
X120630046Y-33635021D01*
X120567430Y-33768621D01*
X120494807Y-33899986D01*
X120413338Y-34027607D01*
X120324183Y-34149972D01*
X120228505Y-34265574D01*
X120127465Y-34372902D01*
X120022223Y-34470447D01*
X119913940Y-34556699D01*
X119820588Y-34619876D01*
X119720495Y-34675553D01*
X119615946Y-34721482D01*
X119510244Y-34756345D01*
X119433916Y-34774114D01*
X119389075Y-34781614D01*
X119344741Y-34787254D01*
X119303703Y-34790837D01*
X119268751Y-34792168D01*
X119242673Y-34791052D01*
X119230319Y-34788370D01*
X119215956Y-34779162D01*
X119213656Y-34768244D01*
X119223783Y-34755243D01*
X119246702Y-34739787D01*
X119282775Y-34721505D01*
X119305758Y-34711231D01*
X119343095Y-34693111D01*
X119382048Y-34671028D01*
X119415985Y-34648805D01*
X119422975Y-34643625D01*
X119488915Y-34587184D01*
X119551400Y-34522321D01*
X119607830Y-34452230D01*
X119655607Y-34380103D01*
X119688475Y-34317386D01*
X119709429Y-34266083D01*
X119729892Y-34206640D01*
X119749106Y-34142157D01*
X119766313Y-34075735D01*
X119780757Y-34010474D01*
X119791681Y-33949474D01*
X119798327Y-33895838D01*
X119800055Y-33860419D01*
X119799694Y-33833334D01*
X119798116Y-33817448D01*
X119794578Y-33809858D01*
X119788340Y-33807660D01*
X119786561Y-33807611D01*
X119776595Y-33812522D01*
X119763367Y-33827984D01*
X119745996Y-33855095D01*
X119739756Y-33865820D01*
X119714923Y-33903167D01*
X119681880Y-33944251D01*
X119643718Y-33985884D01*
X119603530Y-34024883D01*
X119564408Y-34058060D01*
X119529990Y-34081911D01*
X119465426Y-34114495D01*
X119403758Y-34134810D01*
X119345799Y-34142738D01*
X119292364Y-34138159D01*
X119248255Y-34122974D01*
X119207354Y-34095402D01*
X119173260Y-34057648D01*
X119147247Y-34012511D01*
X119130590Y-33962791D01*
X119124565Y-33911287D01*
X119129893Y-33863071D01*
X119136560Y-33838223D01*
X119145089Y-33813667D01*
X119156439Y-33787606D01*
X119171571Y-33758246D01*
X119191446Y-33723790D01*
X119217023Y-33682443D01*
X119249265Y-33632410D01*
X119270970Y-33599349D01*
X119300300Y-33554098D01*
X119328917Y-33508511D01*
X119355245Y-33465208D01*
X119377706Y-33426811D01*
X119394723Y-33395940D01*
X119401475Y-33382518D01*
X119419237Y-33341556D01*
X119435191Y-33298319D01*
X119448246Y-33256371D01*
X119457311Y-33219277D01*
X119461295Y-33190601D01*
X119461388Y-33186770D01*
X119459532Y-33168748D01*
X119453629Y-33161137D01*
X119443180Y-33164316D01*
X119427683Y-33178664D01*
X119406638Y-33204561D01*
X119379545Y-33242388D01*
X119370335Y-33255866D01*
X119318504Y-33324957D01*
X119256574Y-33393852D01*
X119183478Y-33463613D01*
X119098150Y-33535304D01*
X119062750Y-33562927D01*
X119020155Y-33595566D01*
X118971579Y-33632800D01*
X118922225Y-33670639D01*
X118877292Y-33705098D01*
X118865312Y-33714287D01*
X118805964Y-33761938D01*
X118747967Y-33812495D01*
X118693462Y-33863861D01*
X118644592Y-33913937D01*
X118603501Y-33960626D01*
X118573548Y-34000034D01*
X118536609Y-34057849D01*
X118507355Y-34113102D01*
X118484950Y-34168641D01*
X118468557Y-34227309D01*
X118457341Y-34291953D01*
X118450465Y-34365418D01*
X118447639Y-34428500D01*
X118445418Y-34487234D01*
X118442429Y-34533068D01*
X118438458Y-34567205D01*
X118433290Y-34590845D01*
X118426710Y-34605190D01*
X118418503Y-34611441D01*
X118414802Y-34611945D01*
X118404533Y-34606276D01*
X118393760Y-34588947D01*
X118382322Y-34559469D01*
X118370055Y-34517356D01*
X118356794Y-34462120D01*
X118343774Y-34400278D01*
X118322234Y-34264365D01*
X118313398Y-34134267D01*
X118317381Y-34009417D01*
X118334300Y-33889252D01*
X118364273Y-33773203D01*
X118407415Y-33660707D01*
X118463844Y-33551198D01*
X118533676Y-33444108D01*
X118543926Y-33430090D01*
X118621860Y-33335070D01*
X118712928Y-33242398D01*
X118816261Y-33152696D01*
X118930987Y-33066582D01*
X119056236Y-32984678D01*
X119191139Y-32907603D01*
X119334823Y-32835978D01*
X119447277Y-32786438D01*
X119485473Y-32770916D01*
X119524122Y-32756131D01*
X119564715Y-32741627D01*
X119608740Y-32726952D01*
X119657688Y-32711653D01*
X119713048Y-32695274D01*
X119776310Y-32677364D01*
X119848962Y-32657468D01*
X119932495Y-32635133D01*
X120018777Y-32612423D01*
X120078586Y-32596600D01*
X120138519Y-32580437D01*
X120196033Y-32564642D01*
X120248584Y-32549924D01*
X120293630Y-32536989D01*
X120328626Y-32526548D01*
X120339805Y-32523047D01*
X120463641Y-32480049D01*
X120574976Y-32434127D01*
X120675253Y-32384531D01*
X120765913Y-32330512D01*
X120848399Y-32271319D01*
X120890138Y-32236862D01*
X120919047Y-32210680D01*
X120939764Y-32188490D01*
X120955640Y-32166171D01*
X120970028Y-32139599D01*
X120971277Y-32137036D01*
X120984985Y-32110459D01*
X120995404Y-32094946D01*
X121004217Y-32088354D01*
X121009906Y-32087841D01*
X121025334Y-32096269D01*
G36*
X130888920Y-34913479D02*
X130967663Y-34920240D01*
X131044143Y-34932086D01*
X131097763Y-34944211D01*
X131124222Y-34951155D01*
X131124222Y-35268618D01*
X131058958Y-35263073D01*
X131005275Y-35259712D01*
X130948974Y-35258278D01*
X130893737Y-35258711D01*
X130843247Y-35260949D01*
X130801185Y-35264931D01*
X130783959Y-35267653D01*
X130748665Y-35277189D01*
X130713915Y-35291165D01*
X130699365Y-35298893D01*
X130677789Y-35313409D01*
X130661794Y-35329279D01*
X130647420Y-35351034D01*
X130637461Y-35369708D01*
X130612694Y-35418332D01*
X130610465Y-35632499D01*
X130608235Y-35846667D01*
X131067777Y-35846667D01*
X131067777Y-36114778D01*
X130609222Y-36114778D01*
X130605638Y-37853972D01*
X130418191Y-37855849D01*
X130368112Y-37856174D01*
X130322718Y-37856132D01*
X130283903Y-37855752D01*
X130253564Y-37855063D01*
X130233597Y-37854093D01*
X130225927Y-37852909D01*
X130225319Y-37845379D01*
X130224733Y-37824597D01*
X130224174Y-37791421D01*
X130223647Y-37746709D01*
X130223156Y-37691321D01*
X130222707Y-37626115D01*
X130222303Y-37551949D01*
X130221950Y-37469683D01*
X130221653Y-37380175D01*
X130221415Y-37284283D01*
X130221243Y-37182866D01*
X130221140Y-37076783D01*
X130221111Y-36981435D01*
X130221111Y-36114778D01*
X129833055Y-36114778D01*
X129833055Y-35846667D01*
X130219469Y-35846667D01*
X130222871Y-35612070D01*
X130223849Y-35547734D01*
X130224807Y-35495648D01*
X130225879Y-35453950D01*
X130227196Y-35420779D01*
X130228891Y-35394274D01*
X130231096Y-35372573D01*
X130233944Y-35353816D01*
X130237567Y-35336141D01*
X130242096Y-35317687D01*
X130244432Y-35308760D01*
X130272559Y-35226822D01*
X130311209Y-35154169D01*
X130360449Y-35090746D01*
X130420344Y-35036492D01*
X130490960Y-34991351D01*
X130572362Y-34955264D01*
X130664615Y-34928174D01*
X130676979Y-34925403D01*
X130739793Y-34915892D01*
X130811702Y-34911974D01*
X130888920Y-34913479D01*
X130888920Y-34913479D01*
G37*
X130888920Y-34913479D02*
X130967663Y-34920240D01*
X131044143Y-34932086D01*
X131097763Y-34944211D01*
X131124222Y-34951155D01*
X131124222Y-35268618D01*
X131058958Y-35263073D01*
X131005275Y-35259712D01*
X130948974Y-35258278D01*
X130893737Y-35258711D01*
X130843247Y-35260949D01*
X130801185Y-35264931D01*
X130783959Y-35267653D01*
X130748665Y-35277189D01*
X130713915Y-35291165D01*
X130699365Y-35298893D01*
X130677789Y-35313409D01*
X130661794Y-35329279D01*
X130647420Y-35351034D01*
X130637461Y-35369708D01*
X130612694Y-35418332D01*
X130610465Y-35632499D01*
X130608235Y-35846667D01*
X131067777Y-35846667D01*
X131067777Y-36114778D01*
X130609222Y-36114778D01*
X130605638Y-37853972D01*
X130418191Y-37855849D01*
X130368112Y-37856174D01*
X130322718Y-37856132D01*
X130283903Y-37855752D01*
X130253564Y-37855063D01*
X130233597Y-37854093D01*
X130225927Y-37852909D01*
X130225319Y-37845379D01*
X130224733Y-37824597D01*
X130224174Y-37791421D01*
X130223647Y-37746709D01*
X130223156Y-37691321D01*
X130222707Y-37626115D01*
X130222303Y-37551949D01*
X130221950Y-37469683D01*
X130221653Y-37380175D01*
X130221415Y-37284283D01*
X130221243Y-37182866D01*
X130221140Y-37076783D01*
X130221111Y-36981435D01*
X130221111Y-36114778D01*
X129833055Y-36114778D01*
X129833055Y-35846667D01*
X130219469Y-35846667D01*
X130222871Y-35612070D01*
X130223849Y-35547734D01*
X130224807Y-35495648D01*
X130225879Y-35453950D01*
X130227196Y-35420779D01*
X130228891Y-35394274D01*
X130231096Y-35372573D01*
X130233944Y-35353816D01*
X130237567Y-35336141D01*
X130242096Y-35317687D01*
X130244432Y-35308760D01*
X130272559Y-35226822D01*
X130311209Y-35154169D01*
X130360449Y-35090746D01*
X130420344Y-35036492D01*
X130490960Y-34991351D01*
X130572362Y-34955264D01*
X130664615Y-34928174D01*
X130676979Y-34925403D01*
X130739793Y-34915892D01*
X130811702Y-34911974D01*
X130888920Y-34913479D01*
G36*
X129416777Y-37857500D02*
X129035777Y-37857500D01*
X129035777Y-34971778D01*
X129416777Y-34971778D01*
X129416777Y-37857500D01*
X129416777Y-37857500D01*
G37*
X129416777Y-37857500D02*
X129035777Y-37857500D01*
X129035777Y-34971778D01*
X129416777Y-34971778D01*
X129416777Y-37857500D01*
G36*
X124717330Y-34971877D02*
X124817930Y-34972170D01*
X124909756Y-34972647D01*
X124992067Y-34973300D01*
X125064126Y-34974120D01*
X125125192Y-34975098D01*
X125174528Y-34976225D01*
X125211393Y-34977493D01*
X125235049Y-34978894D01*
X125238403Y-34979218D01*
X125379322Y-35000541D01*
X125511876Y-35032932D01*
X125635890Y-35076279D01*
X125751191Y-35130471D01*
X125857605Y-35195395D01*
X125954959Y-35270939D01*
X126043080Y-35356991D01*
X126121794Y-35453439D01*
X126190928Y-35560172D01*
X126219873Y-35613486D01*
X126277366Y-35740600D01*
X126323914Y-35875128D01*
X126359475Y-36015528D01*
X126384009Y-36160255D01*
X126397473Y-36307765D01*
X126399826Y-36456516D01*
X126391025Y-36604963D01*
X126371029Y-36751562D01*
X126339796Y-36894770D01*
X126297284Y-37033044D01*
X126260817Y-37126016D01*
X126202492Y-37245328D01*
X126134707Y-37354171D01*
X126057518Y-37452500D01*
X125970979Y-37540268D01*
X125875144Y-37617428D01*
X125770069Y-37683935D01*
X125655807Y-37739742D01*
X125532415Y-37784802D01*
X125462748Y-37804460D01*
X125430398Y-37812630D01*
X125400630Y-37819825D01*
X125372340Y-37826111D01*
X125344427Y-37831555D01*
X125315787Y-37836225D01*
X125285320Y-37840187D01*
X125251923Y-37843510D01*
X125214493Y-37846259D01*
X125171928Y-37848502D01*
X125123127Y-37850307D01*
X125066986Y-37851740D01*
X125002404Y-37852869D01*
X124928279Y-37853761D01*
X124843507Y-37854482D01*
X124746988Y-37855101D01*
X124637618Y-37855684D01*
X124620763Y-37855769D01*
X124047500Y-37858645D01*
X124047500Y-37505600D01*
X124449666Y-37505600D01*
X124832430Y-37502810D01*
X124916348Y-37502171D01*
X124987447Y-37501546D01*
X125047018Y-37500881D01*
X125096354Y-37500128D01*
X125136746Y-37499235D01*
X125169486Y-37498151D01*
X125195866Y-37496825D01*
X125217177Y-37495206D01*
X125234712Y-37493244D01*
X125249762Y-37490888D01*
X125263619Y-37488087D01*
X125275166Y-37485380D01*
X125384476Y-37452757D01*
X125483577Y-37410605D01*
X125572961Y-37358591D01*
X125653120Y-37296386D01*
X125724547Y-37223658D01*
X125787346Y-37140657D01*
X125844274Y-37043784D01*
X125890814Y-36939561D01*
X125927116Y-36827415D01*
X125953328Y-36706770D01*
X125969599Y-36577053D01*
X125976077Y-36437688D01*
X125976214Y-36411111D01*
X125973690Y-36301362D01*
X125966034Y-36201871D01*
X125952816Y-36109590D01*
X125933603Y-36021471D01*
X125909258Y-35938389D01*
X125866880Y-35828921D01*
X125814925Y-35728914D01*
X125753821Y-35638802D01*
X125683998Y-35559017D01*
X125605883Y-35489992D01*
X125519906Y-35432160D01*
X125426493Y-35385953D01*
X125329397Y-35352707D01*
X125300327Y-35345079D01*
X125272353Y-35338625D01*
X125244009Y-35333251D01*
X125213828Y-35328860D01*
X125180342Y-35325356D01*
X125142087Y-35322642D01*
X125097594Y-35320622D01*
X125045397Y-35319200D01*
X124984030Y-35318280D01*
X124912026Y-35317765D01*
X124827919Y-35317559D01*
X124793625Y-35317542D01*
X124449666Y-35317500D01*
X124449666Y-37505600D01*
X124047500Y-37505600D01*
X124047500Y-34971778D01*
X124608694Y-34971778D01*
X124717330Y-34971877D01*
X124717330Y-34971877D01*
G37*
X124717330Y-34971877D02*
X124817930Y-34972170D01*
X124909756Y-34972647D01*
X124992067Y-34973300D01*
X125064126Y-34974120D01*
X125125192Y-34975098D01*
X125174528Y-34976225D01*
X125211393Y-34977493D01*
X125235049Y-34978894D01*
X125238403Y-34979218D01*
X125379322Y-35000541D01*
X125511876Y-35032932D01*
X125635890Y-35076279D01*
X125751191Y-35130471D01*
X125857605Y-35195395D01*
X125954959Y-35270939D01*
X126043080Y-35356991D01*
X126121794Y-35453439D01*
X126190928Y-35560172D01*
X126219873Y-35613486D01*
X126277366Y-35740600D01*
X126323914Y-35875128D01*
X126359475Y-36015528D01*
X126384009Y-36160255D01*
X126397473Y-36307765D01*
X126399826Y-36456516D01*
X126391025Y-36604963D01*
X126371029Y-36751562D01*
X126339796Y-36894770D01*
X126297284Y-37033044D01*
X126260817Y-37126016D01*
X126202492Y-37245328D01*
X126134707Y-37354171D01*
X126057518Y-37452500D01*
X125970979Y-37540268D01*
X125875144Y-37617428D01*
X125770069Y-37683935D01*
X125655807Y-37739742D01*
X125532415Y-37784802D01*
X125462748Y-37804460D01*
X125430398Y-37812630D01*
X125400630Y-37819825D01*
X125372340Y-37826111D01*
X125344427Y-37831555D01*
X125315787Y-37836225D01*
X125285320Y-37840187D01*
X125251923Y-37843510D01*
X125214493Y-37846259D01*
X125171928Y-37848502D01*
X125123127Y-37850307D01*
X125066986Y-37851740D01*
X125002404Y-37852869D01*
X124928279Y-37853761D01*
X124843507Y-37854482D01*
X124746988Y-37855101D01*
X124637618Y-37855684D01*
X124620763Y-37855769D01*
X124047500Y-37858645D01*
X124047500Y-37505600D01*
X124449666Y-37505600D01*
X124832430Y-37502810D01*
X124916348Y-37502171D01*
X124987447Y-37501546D01*
X125047018Y-37500881D01*
X125096354Y-37500128D01*
X125136746Y-37499235D01*
X125169486Y-37498151D01*
X125195866Y-37496825D01*
X125217177Y-37495206D01*
X125234712Y-37493244D01*
X125249762Y-37490888D01*
X125263619Y-37488087D01*
X125275166Y-37485380D01*
X125384476Y-37452757D01*
X125483577Y-37410605D01*
X125572961Y-37358591D01*
X125653120Y-37296386D01*
X125724547Y-37223658D01*
X125787346Y-37140657D01*
X125844274Y-37043784D01*
X125890814Y-36939561D01*
X125927116Y-36827415D01*
X125953328Y-36706770D01*
X125969599Y-36577053D01*
X125976077Y-36437688D01*
X125976214Y-36411111D01*
X125973690Y-36301362D01*
X125966034Y-36201871D01*
X125952816Y-36109590D01*
X125933603Y-36021471D01*
X125909258Y-35938389D01*
X125866880Y-35828921D01*
X125814925Y-35728914D01*
X125753821Y-35638802D01*
X125683998Y-35559017D01*
X125605883Y-35489992D01*
X125519906Y-35432160D01*
X125426493Y-35385953D01*
X125329397Y-35352707D01*
X125300327Y-35345079D01*
X125272353Y-35338625D01*
X125244009Y-35333251D01*
X125213828Y-35328860D01*
X125180342Y-35325356D01*
X125142087Y-35322642D01*
X125097594Y-35320622D01*
X125045397Y-35319200D01*
X124984030Y-35318280D01*
X124912026Y-35317765D01*
X124827919Y-35317559D01*
X124793625Y-35317542D01*
X124449666Y-35317500D01*
X124449666Y-37505600D01*
X124047500Y-37505600D01*
X124047500Y-34971778D01*
X124608694Y-34971778D01*
X124717330Y-34971877D01*
G36*
X120124611Y-35529167D02*
X119228555Y-35529167D01*
X119228555Y-37857500D01*
X118431277Y-37857500D01*
X118431277Y-35529167D01*
X117535222Y-35529167D01*
X117535222Y-34971778D01*
X120124611Y-34971778D01*
X120124611Y-35529167D01*
X120124611Y-35529167D01*
G37*
X120124611Y-35529167D02*
X119228555Y-35529167D01*
X119228555Y-37857500D01*
X118431277Y-37857500D01*
X118431277Y-35529167D01*
X117535222Y-35529167D01*
X117535222Y-34971778D01*
X120124611Y-34971778D01*
X120124611Y-35529167D01*
G36*
X132008934Y-35310191D02*
X132010064Y-35329581D01*
X132011069Y-35360038D01*
X132011917Y-35400038D01*
X132012578Y-35448061D01*
X132013021Y-35502582D01*
X132013215Y-35562080D01*
X132013222Y-35575028D01*
X132013222Y-35846667D01*
X132471833Y-35846667D01*
X132471833Y-36114778D01*
X132013222Y-36114778D01*
X132013291Y-36790347D01*
X132013360Y-37465917D01*
X132029812Y-37501246D01*
X132056191Y-37541848D01*
X132093509Y-37575897D01*
X132132440Y-37598118D01*
X132163341Y-37607413D01*
X132204707Y-37613508D01*
X132253256Y-37616396D01*
X132305707Y-37616069D01*
X132358779Y-37612518D01*
X132409192Y-37605735D01*
X132441847Y-37598884D01*
X132457722Y-37594915D01*
X132457722Y-37743846D01*
X132457483Y-37787973D01*
X132456816Y-37826912D01*
X132455794Y-37858607D01*
X132454490Y-37881000D01*
X132452976Y-37892035D01*
X132452430Y-37892834D01*
X132443739Y-37893684D01*
X132423977Y-37895957D01*
X132396074Y-37899308D01*
X132362958Y-37903390D01*
X132362740Y-37903418D01*
X132306163Y-37908702D01*
X132241697Y-37911815D01*
X132174372Y-37912720D01*
X132109219Y-37911375D01*
X132051270Y-37907740D01*
X132034388Y-37906009D01*
X131954664Y-37892776D01*
X131881877Y-37872592D01*
X131817746Y-37846134D01*
X131763987Y-37814081D01*
X131730798Y-37786071D01*
X131699539Y-37749654D01*
X131674699Y-37708253D01*
X131654371Y-37658327D01*
X131644365Y-37625754D01*
X131641924Y-37616841D01*
X131639757Y-37607945D01*
X131637844Y-37598205D01*
X131636167Y-37586759D01*
X131634705Y-37572744D01*
X131633441Y-37555299D01*
X131632353Y-37533561D01*
X131631424Y-37506668D01*
X131630633Y-37473758D01*
X131629962Y-37433968D01*
X131629390Y-37386437D01*
X131628899Y-37330302D01*
X131628470Y-37264702D01*
X131628083Y-37188773D01*
X131627718Y-37101655D01*
X131627357Y-37002484D01*
X131626979Y-36890398D01*
X131626825Y-36843264D01*
X131624439Y-36114778D01*
X131286500Y-36114778D01*
X131286500Y-35846667D01*
X131624959Y-35846667D01*
X131626827Y-35633610D01*
X131628694Y-35420554D01*
X131815445Y-35361972D01*
X131864347Y-35346691D01*
X131908862Y-35332897D01*
X131947211Y-35321130D01*
X131977617Y-35311932D01*
X131998302Y-35305845D01*
X132007489Y-35303411D01*
X132007709Y-35303389D01*
X132008934Y-35310191D01*
X132008934Y-35310191D01*
G37*
X132008934Y-35310191D02*
X132010064Y-35329581D01*
X132011069Y-35360038D01*
X132011917Y-35400038D01*
X132012578Y-35448061D01*
X132013021Y-35502582D01*
X132013215Y-35562080D01*
X132013222Y-35575028D01*
X132013222Y-35846667D01*
X132471833Y-35846667D01*
X132471833Y-36114778D01*
X132013222Y-36114778D01*
X132013291Y-36790347D01*
X132013360Y-37465917D01*
X132029812Y-37501246D01*
X132056191Y-37541848D01*
X132093509Y-37575897D01*
X132132440Y-37598118D01*
X132163341Y-37607413D01*
X132204707Y-37613508D01*
X132253256Y-37616396D01*
X132305707Y-37616069D01*
X132358779Y-37612518D01*
X132409192Y-37605735D01*
X132441847Y-37598884D01*
X132457722Y-37594915D01*
X132457722Y-37743846D01*
X132457483Y-37787973D01*
X132456816Y-37826912D01*
X132455794Y-37858607D01*
X132454490Y-37881000D01*
X132452976Y-37892035D01*
X132452430Y-37892834D01*
X132443739Y-37893684D01*
X132423977Y-37895957D01*
X132396074Y-37899308D01*
X132362958Y-37903390D01*
X132362740Y-37903418D01*
X132306163Y-37908702D01*
X132241697Y-37911815D01*
X132174372Y-37912720D01*
X132109219Y-37911375D01*
X132051270Y-37907740D01*
X132034388Y-37906009D01*
X131954664Y-37892776D01*
X131881877Y-37872592D01*
X131817746Y-37846134D01*
X131763987Y-37814081D01*
X131730798Y-37786071D01*
X131699539Y-37749654D01*
X131674699Y-37708253D01*
X131654371Y-37658327D01*
X131644365Y-37625754D01*
X131641924Y-37616841D01*
X131639757Y-37607945D01*
X131637844Y-37598205D01*
X131636167Y-37586759D01*
X131634705Y-37572744D01*
X131633441Y-37555299D01*
X131632353Y-37533561D01*
X131631424Y-37506668D01*
X131630633Y-37473758D01*
X131629962Y-37433968D01*
X131629390Y-37386437D01*
X131628899Y-37330302D01*
X131628470Y-37264702D01*
X131628083Y-37188773D01*
X131627718Y-37101655D01*
X131627357Y-37002484D01*
X131626979Y-36890398D01*
X131626825Y-36843264D01*
X131624439Y-36114778D01*
X131286500Y-36114778D01*
X131286500Y-35846667D01*
X131624959Y-35846667D01*
X131626827Y-35633610D01*
X131628694Y-35420554D01*
X131815445Y-35361972D01*
X131864347Y-35346691D01*
X131908862Y-35332897D01*
X131947211Y-35321130D01*
X131977617Y-35311932D01*
X131998302Y-35305845D01*
X132007489Y-35303411D01*
X132007709Y-35303389D01*
X132008934Y-35310191D01*
G36*
X127730376Y-35791774D02*
X127787817Y-35793826D01*
X127840671Y-35797451D01*
X127885448Y-35802589D01*
X127910416Y-35807120D01*
X128010834Y-35834680D01*
X128100916Y-35870051D01*
X128182734Y-35914315D01*
X128258355Y-35968556D01*
X128314297Y-36018416D01*
X128383261Y-36095051D01*
X128442180Y-36181402D01*
X128491103Y-36277564D01*
X128530079Y-36383636D01*
X128559156Y-36499713D01*
X128560464Y-36506361D01*
X128565242Y-36540119D01*
X128569199Y-36587912D01*
X128572336Y-36649757D01*
X128574655Y-36725669D01*
X128575059Y-36744486D01*
X128578704Y-36926167D01*
X127151944Y-36926167D01*
X127151968Y-36945570D01*
X127152609Y-36960303D01*
X127154327Y-36985363D01*
X127156849Y-37017028D01*
X127159395Y-37046111D01*
X127174039Y-37155551D01*
X127196959Y-37254159D01*
X127228061Y-37341791D01*
X127267249Y-37418301D01*
X127314431Y-37483544D01*
X127369511Y-37537375D01*
X127432397Y-37579648D01*
X127502992Y-37610217D01*
X127530130Y-37618290D01*
X127574600Y-37626749D01*
X127628294Y-37631787D01*
X127686736Y-37633354D01*
X127745448Y-37631403D01*
X127799954Y-37625886D01*
X127825750Y-37621471D01*
X127899329Y-37600310D01*
X127963726Y-37568484D01*
X128018986Y-37525946D01*
X128065157Y-37472646D01*
X128102285Y-37408538D01*
X128130416Y-37333572D01*
X128139999Y-37296951D01*
X128155572Y-37229556D01*
X128556639Y-37229556D01*
X128552095Y-37256014D01*
X128527557Y-37362424D01*
X128492107Y-37459940D01*
X128445903Y-37548421D01*
X128389101Y-37627726D01*
X128321857Y-37697714D01*
X128244327Y-37758245D01*
X128156669Y-37809179D01*
X128059039Y-37850375D01*
X127951592Y-37881692D01*
X127834486Y-37902990D01*
X127831665Y-37903363D01*
X127791024Y-37907434D01*
X127741973Y-37910415D01*
X127688801Y-37912222D01*
X127635799Y-37912771D01*
X127587257Y-37911979D01*
X127547466Y-37909762D01*
X127540000Y-37909042D01*
X127437915Y-37892527D01*
X127338998Y-37865621D01*
X127246009Y-37829269D01*
X127161709Y-37784417D01*
X127144900Y-37773698D01*
X127112279Y-37749539D01*
X127075001Y-37717704D01*
X127036883Y-37681798D01*
X127001744Y-37645427D01*
X126973403Y-37612196D01*
X126972136Y-37610556D01*
X126913910Y-37523280D01*
X126865225Y-37425675D01*
X126826111Y-37317829D01*
X126796593Y-37199833D01*
X126776700Y-37071778D01*
X126766459Y-36933754D01*
X126766439Y-36933222D01*
X126766555Y-36797742D01*
X126777084Y-36668140D01*
X126778775Y-36658056D01*
X127160733Y-36658056D01*
X128175000Y-36658056D01*
X128174860Y-36613959D01*
X128168050Y-36519228D01*
X128148713Y-36426073D01*
X128117594Y-36337744D01*
X128105907Y-36312334D01*
X128066523Y-36245909D01*
X128018312Y-36189439D01*
X127962253Y-36143941D01*
X127921000Y-36120205D01*
X127849944Y-36092127D01*
X127773693Y-36074273D01*
X127695133Y-36066726D01*
X127617145Y-36069571D01*
X127542615Y-36082892D01*
X127474427Y-36106773D01*
X127473599Y-36107151D01*
X127402862Y-36147164D01*
X127340615Y-36198213D01*
X127287109Y-36259875D01*
X127242599Y-36331730D01*
X127207336Y-36413354D01*
X127181574Y-36504327D01*
X127165566Y-36604226D01*
X127163616Y-36624542D01*
X127160733Y-36658056D01*
X126778775Y-36658056D01*
X126797734Y-36545041D01*
X126828211Y-36429068D01*
X126868221Y-36320845D01*
X126917470Y-36220996D01*
X126975666Y-36130144D01*
X127042514Y-36048914D01*
X127117721Y-35977929D01*
X127200992Y-35917813D01*
X127260175Y-35884419D01*
X127314758Y-35860080D01*
X127378072Y-35837283D01*
X127444738Y-35817735D01*
X127509379Y-35803145D01*
X127524497Y-35800488D01*
X127565407Y-35795651D01*
X127615682Y-35792626D01*
X127671835Y-35791354D01*
X127730376Y-35791774D01*
X127730376Y-35791774D01*
G37*
X127730376Y-35791774D02*
X127787817Y-35793826D01*
X127840671Y-35797451D01*
X127885448Y-35802589D01*
X127910416Y-35807120D01*
X128010834Y-35834680D01*
X128100916Y-35870051D01*
X128182734Y-35914315D01*
X128258355Y-35968556D01*
X128314297Y-36018416D01*
X128383261Y-36095051D01*
X128442180Y-36181402D01*
X128491103Y-36277564D01*
X128530079Y-36383636D01*
X128559156Y-36499713D01*
X128560464Y-36506361D01*
X128565242Y-36540119D01*
X128569199Y-36587912D01*
X128572336Y-36649757D01*
X128574655Y-36725669D01*
X128575059Y-36744486D01*
X128578704Y-36926167D01*
X127151944Y-36926167D01*
X127151968Y-36945570D01*
X127152609Y-36960303D01*
X127154327Y-36985363D01*
X127156849Y-37017028D01*
X127159395Y-37046111D01*
X127174039Y-37155551D01*
X127196959Y-37254159D01*
X127228061Y-37341791D01*
X127267249Y-37418301D01*
X127314431Y-37483544D01*
X127369511Y-37537375D01*
X127432397Y-37579648D01*
X127502992Y-37610217D01*
X127530130Y-37618290D01*
X127574600Y-37626749D01*
X127628294Y-37631787D01*
X127686736Y-37633354D01*
X127745448Y-37631403D01*
X127799954Y-37625886D01*
X127825750Y-37621471D01*
X127899329Y-37600310D01*
X127963726Y-37568484D01*
X128018986Y-37525946D01*
X128065157Y-37472646D01*
X128102285Y-37408538D01*
X128130416Y-37333572D01*
X128139999Y-37296951D01*
X128155572Y-37229556D01*
X128556639Y-37229556D01*
X128552095Y-37256014D01*
X128527557Y-37362424D01*
X128492107Y-37459940D01*
X128445903Y-37548421D01*
X128389101Y-37627726D01*
X128321857Y-37697714D01*
X128244327Y-37758245D01*
X128156669Y-37809179D01*
X128059039Y-37850375D01*
X127951592Y-37881692D01*
X127834486Y-37902990D01*
X127831665Y-37903363D01*
X127791024Y-37907434D01*
X127741973Y-37910415D01*
X127688801Y-37912222D01*
X127635799Y-37912771D01*
X127587257Y-37911979D01*
X127547466Y-37909762D01*
X127540000Y-37909042D01*
X127437915Y-37892527D01*
X127338998Y-37865621D01*
X127246009Y-37829269D01*
X127161709Y-37784417D01*
X127144900Y-37773698D01*
X127112279Y-37749539D01*
X127075001Y-37717704D01*
X127036883Y-37681798D01*
X127001744Y-37645427D01*
X126973403Y-37612196D01*
X126972136Y-37610556D01*
X126913910Y-37523280D01*
X126865225Y-37425675D01*
X126826111Y-37317829D01*
X126796593Y-37199833D01*
X126776700Y-37071778D01*
X126766459Y-36933754D01*
X126766439Y-36933222D01*
X126766555Y-36797742D01*
X126777084Y-36668140D01*
X126778775Y-36658056D01*
X127160733Y-36658056D01*
X128175000Y-36658056D01*
X128174860Y-36613959D01*
X128168050Y-36519228D01*
X128148713Y-36426073D01*
X128117594Y-36337744D01*
X128105907Y-36312334D01*
X128066523Y-36245909D01*
X128018312Y-36189439D01*
X127962253Y-36143941D01*
X127921000Y-36120205D01*
X127849944Y-36092127D01*
X127773693Y-36074273D01*
X127695133Y-36066726D01*
X127617145Y-36069571D01*
X127542615Y-36082892D01*
X127474427Y-36106773D01*
X127473599Y-36107151D01*
X127402862Y-36147164D01*
X127340615Y-36198213D01*
X127287109Y-36259875D01*
X127242599Y-36331730D01*
X127207336Y-36413354D01*
X127181574Y-36504327D01*
X127165566Y-36604226D01*
X127163616Y-36624542D01*
X127160733Y-36658056D01*
X126778775Y-36658056D01*
X126797734Y-36545041D01*
X126828211Y-36429068D01*
X126868221Y-36320845D01*
X126917470Y-36220996D01*
X126975666Y-36130144D01*
X127042514Y-36048914D01*
X127117721Y-35977929D01*
X127200992Y-35917813D01*
X127260175Y-35884419D01*
X127314758Y-35860080D01*
X127378072Y-35837283D01*
X127444738Y-35817735D01*
X127509379Y-35803145D01*
X127524497Y-35800488D01*
X127565407Y-35795651D01*
X127615682Y-35792626D01*
X127671835Y-35791354D01*
X127730376Y-35791774D01*
G36*
X121299502Y-36873250D02*
X121318356Y-36941759D01*
X121348625Y-37028882D01*
X121388704Y-37106421D01*
X121438280Y-37173991D01*
X121497039Y-37231202D01*
X121564668Y-37277668D01*
X121607361Y-37299330D01*
X121652990Y-37317739D01*
X121697968Y-37331021D01*
X121746346Y-37340011D01*
X121802178Y-37345545D01*
X121841204Y-37347564D01*
X121910576Y-37348449D01*
X121970404Y-37344924D01*
X122024703Y-37336482D01*
X122077488Y-37322614D01*
X122101293Y-37314654D01*
X122161191Y-37289824D01*
X122213300Y-37259568D01*
X122262451Y-37220808D01*
X122290963Y-37193760D01*
X122343803Y-37131392D01*
X122386028Y-37060442D01*
X122417818Y-36980510D01*
X122439352Y-36891196D01*
X122445634Y-36848741D01*
X122446817Y-36831665D01*
X122447903Y-36800762D01*
X122448888Y-36756315D01*
X122449772Y-36698606D01*
X122450553Y-36627920D01*
X122451227Y-36544540D01*
X122451793Y-36448748D01*
X122452248Y-36340828D01*
X122452592Y-36221064D01*
X122452820Y-36089738D01*
X122452932Y-35947135D01*
X122452944Y-35880366D01*
X122452944Y-34971778D01*
X123250222Y-34971778D01*
X123250092Y-35933097D01*
X123250072Y-36073752D01*
X123250033Y-36201062D01*
X123249950Y-36315795D01*
X123249799Y-36418715D01*
X123249554Y-36510591D01*
X123249191Y-36592188D01*
X123248685Y-36664274D01*
X123248009Y-36727614D01*
X123247141Y-36782976D01*
X123246053Y-36831125D01*
X123244722Y-36872829D01*
X123243123Y-36908853D01*
X123241229Y-36939965D01*
X123239018Y-36966931D01*
X123236462Y-36990517D01*
X123233537Y-37011491D01*
X123230219Y-37030618D01*
X123226482Y-37048665D01*
X123222302Y-37066399D01*
X123217652Y-37084586D01*
X123212509Y-37103993D01*
X123211784Y-37106715D01*
X123174817Y-37219707D01*
X123126269Y-37324761D01*
X123066313Y-37421746D01*
X122995125Y-37510532D01*
X122912878Y-37590987D01*
X122819745Y-37662980D01*
X122715902Y-37726381D01*
X122601521Y-37781057D01*
X122476776Y-37826879D01*
X122341843Y-37863715D01*
X122196894Y-37891434D01*
X122163341Y-37896342D01*
X122134405Y-37899431D01*
X122094831Y-37902353D01*
X122047316Y-37905027D01*
X121994558Y-37907372D01*
X121939253Y-37909308D01*
X121884099Y-37910754D01*
X121831794Y-37911630D01*
X121785034Y-37911854D01*
X121746518Y-37911347D01*
X121718942Y-37910027D01*
X121715638Y-37909727D01*
X121653021Y-37903214D01*
X121601113Y-37897248D01*
X121556549Y-37891369D01*
X121515963Y-37885121D01*
X121475990Y-37878042D01*
X121458111Y-37874621D01*
X121320716Y-37842160D01*
X121193046Y-37800344D01*
X121075337Y-37749369D01*
X120967826Y-37689433D01*
X120870752Y-37620734D01*
X120784351Y-37543468D01*
X120708860Y-37457834D01*
X120644518Y-37364029D01*
X120591562Y-37262250D01*
X120550228Y-37152694D01*
X120537664Y-37109238D01*
X120532329Y-37089217D01*
X120527504Y-37070709D01*
X120523162Y-37052947D01*
X120519279Y-37035161D01*
X120515829Y-37016583D01*
X120512786Y-36996445D01*
X120510125Y-36973977D01*
X120507820Y-36948412D01*
X120505845Y-36918981D01*
X120504175Y-36884915D01*
X120502784Y-36845445D01*
X120501647Y-36799804D01*
X120500738Y-36747223D01*
X120500031Y-36686932D01*
X120499501Y-36618164D01*
X120499122Y-36540151D01*
X120498868Y-36452122D01*
X120498715Y-36353311D01*
X120498636Y-36242948D01*
X120498605Y-36120265D01*
X120498598Y-35984494D01*
X120498597Y-35936625D01*
X120498555Y-34971778D01*
X121295396Y-34971778D01*
X121299502Y-36873250D01*
X121299502Y-36873250D01*
G37*
X121299502Y-36873250D02*
X121318356Y-36941759D01*
X121348625Y-37028882D01*
X121388704Y-37106421D01*
X121438280Y-37173991D01*
X121497039Y-37231202D01*
X121564668Y-37277668D01*
X121607361Y-37299330D01*
X121652990Y-37317739D01*
X121697968Y-37331021D01*
X121746346Y-37340011D01*
X121802178Y-37345545D01*
X121841204Y-37347564D01*
X121910576Y-37348449D01*
X121970404Y-37344924D01*
X122024703Y-37336482D01*
X122077488Y-37322614D01*
X122101293Y-37314654D01*
X122161191Y-37289824D01*
X122213300Y-37259568D01*
X122262451Y-37220808D01*
X122290963Y-37193760D01*
X122343803Y-37131392D01*
X122386028Y-37060442D01*
X122417818Y-36980510D01*
X122439352Y-36891196D01*
X122445634Y-36848741D01*
X122446817Y-36831665D01*
X122447903Y-36800762D01*
X122448888Y-36756315D01*
X122449772Y-36698606D01*
X122450553Y-36627920D01*
X122451227Y-36544540D01*
X122451793Y-36448748D01*
X122452248Y-36340828D01*
X122452592Y-36221064D01*
X122452820Y-36089738D01*
X122452932Y-35947135D01*
X122452944Y-35880366D01*
X122452944Y-34971778D01*
X123250222Y-34971778D01*
X123250092Y-35933097D01*
X123250072Y-36073752D01*
X123250033Y-36201062D01*
X123249950Y-36315795D01*
X123249799Y-36418715D01*
X123249554Y-36510591D01*
X123249191Y-36592188D01*
X123248685Y-36664274D01*
X123248009Y-36727614D01*
X123247141Y-36782976D01*
X123246053Y-36831125D01*
X123244722Y-36872829D01*
X123243123Y-36908853D01*
X123241229Y-36939965D01*
X123239018Y-36966931D01*
X123236462Y-36990517D01*
X123233537Y-37011491D01*
X123230219Y-37030618D01*
X123226482Y-37048665D01*
X123222302Y-37066399D01*
X123217652Y-37084586D01*
X123212509Y-37103993D01*
X123211784Y-37106715D01*
X123174817Y-37219707D01*
X123126269Y-37324761D01*
X123066313Y-37421746D01*
X122995125Y-37510532D01*
X122912878Y-37590987D01*
X122819745Y-37662980D01*
X122715902Y-37726381D01*
X122601521Y-37781057D01*
X122476776Y-37826879D01*
X122341843Y-37863715D01*
X122196894Y-37891434D01*
X122163341Y-37896342D01*
X122134405Y-37899431D01*
X122094831Y-37902353D01*
X122047316Y-37905027D01*
X121994558Y-37907372D01*
X121939253Y-37909308D01*
X121884099Y-37910754D01*
X121831794Y-37911630D01*
X121785034Y-37911854D01*
X121746518Y-37911347D01*
X121718942Y-37910027D01*
X121715638Y-37909727D01*
X121653021Y-37903214D01*
X121601113Y-37897248D01*
X121556549Y-37891369D01*
X121515963Y-37885121D01*
X121475990Y-37878042D01*
X121458111Y-37874621D01*
X121320716Y-37842160D01*
X121193046Y-37800344D01*
X121075337Y-37749369D01*
X120967826Y-37689433D01*
X120870752Y-37620734D01*
X120784351Y-37543468D01*
X120708860Y-37457834D01*
X120644518Y-37364029D01*
X120591562Y-37262250D01*
X120550228Y-37152694D01*
X120537664Y-37109238D01*
X120532329Y-37089217D01*
X120527504Y-37070709D01*
X120523162Y-37052947D01*
X120519279Y-37035161D01*
X120515829Y-37016583D01*
X120512786Y-36996445D01*
X120510125Y-36973977D01*
X120507820Y-36948412D01*
X120505845Y-36918981D01*
X120504175Y-36884915D01*
X120502784Y-36845445D01*
X120501647Y-36799804D01*
X120500738Y-36747223D01*
X120500031Y-36686932D01*
X120499501Y-36618164D01*
X120499122Y-36540151D01*
X120498868Y-36452122D01*
X120498715Y-36353311D01*
X120498636Y-36242948D01*
X120498605Y-36120265D01*
X120498598Y-35984494D01*
X120498597Y-35936625D01*
X120498555Y-34971778D01*
X121295396Y-34971778D01*
X121299502Y-36873250D01*
G04 #@! TO.C,R41*
D13*
X85357142Y-130852380D02*
X85023809Y-130376190D01*
X84785714Y-130852380D02*
X84785714Y-129852380D01*
X85166666Y-129852380D01*
X85261904Y-129900000D01*
X85309523Y-129947619D01*
X85357142Y-130042857D01*
X85357142Y-130185714D01*
X85309523Y-130280952D01*
X85261904Y-130328571D01*
X85166666Y-130376190D01*
X84785714Y-130376190D01*
X86214285Y-130185714D02*
X86214285Y-130852380D01*
X85976190Y-129804761D02*
X85738095Y-130519047D01*
X86357142Y-130519047D01*
X87261904Y-130852380D02*
X86690476Y-130852380D01*
X86976190Y-130852380D02*
X86976190Y-129852380D01*
X86880952Y-129995238D01*
X86785714Y-130090476D01*
X86690476Y-130138095D01*
G04 #@! TO.C,C00*
X72257142Y-135242857D02*
X72304761Y-135290476D01*
X72352380Y-135433333D01*
X72352380Y-135528571D01*
X72304761Y-135671428D01*
X72209523Y-135766666D01*
X72114285Y-135814285D01*
X71923809Y-135861904D01*
X71780952Y-135861904D01*
X71590476Y-135814285D01*
X71495238Y-135766666D01*
X71400000Y-135671428D01*
X71352380Y-135528571D01*
X71352380Y-135433333D01*
X71400000Y-135290476D01*
X71447619Y-135242857D01*
X71352380Y-134623809D02*
X71352380Y-134528571D01*
X71400000Y-134433333D01*
X71447619Y-134385714D01*
X71542857Y-134338095D01*
X71733333Y-134290476D01*
X71971428Y-134290476D01*
X72161904Y-134338095D01*
X72257142Y-134385714D01*
X72304761Y-134433333D01*
X72352380Y-134528571D01*
X72352380Y-134623809D01*
X72304761Y-134719047D01*
X72257142Y-134766666D01*
X72161904Y-134814285D01*
X71971428Y-134861904D01*
X71733333Y-134861904D01*
X71542857Y-134814285D01*
X71447619Y-134766666D01*
X71400000Y-134719047D01*
X71352380Y-134623809D01*
X71352380Y-133671428D02*
X71352380Y-133576190D01*
X71400000Y-133480952D01*
X71447619Y-133433333D01*
X71542857Y-133385714D01*
X71733333Y-133338095D01*
X71971428Y-133338095D01*
X72161904Y-133385714D01*
X72257142Y-133433333D01*
X72304761Y-133480952D01*
X72352380Y-133576190D01*
X72352380Y-133671428D01*
X72304761Y-133766666D01*
X72257142Y-133814285D01*
X72161904Y-133861904D01*
X71971428Y-133909523D01*
X71733333Y-133909523D01*
X71542857Y-133861904D01*
X71447619Y-133814285D01*
X71400000Y-133766666D01*
X71352380Y-133671428D01*
G04 #@! TO.C,C01*
X78257142Y-135242857D02*
X78304761Y-135290476D01*
X78352380Y-135433333D01*
X78352380Y-135528571D01*
X78304761Y-135671428D01*
X78209523Y-135766666D01*
X78114285Y-135814285D01*
X77923809Y-135861904D01*
X77780952Y-135861904D01*
X77590476Y-135814285D01*
X77495238Y-135766666D01*
X77400000Y-135671428D01*
X77352380Y-135528571D01*
X77352380Y-135433333D01*
X77400000Y-135290476D01*
X77447619Y-135242857D01*
X77352380Y-134623809D02*
X77352380Y-134528571D01*
X77400000Y-134433333D01*
X77447619Y-134385714D01*
X77542857Y-134338095D01*
X77733333Y-134290476D01*
X77971428Y-134290476D01*
X78161904Y-134338095D01*
X78257142Y-134385714D01*
X78304761Y-134433333D01*
X78352380Y-134528571D01*
X78352380Y-134623809D01*
X78304761Y-134719047D01*
X78257142Y-134766666D01*
X78161904Y-134814285D01*
X77971428Y-134861904D01*
X77733333Y-134861904D01*
X77542857Y-134814285D01*
X77447619Y-134766666D01*
X77400000Y-134719047D01*
X77352380Y-134623809D01*
X78352380Y-133338095D02*
X78352380Y-133909523D01*
X78352380Y-133623809D02*
X77352380Y-133623809D01*
X77495238Y-133719047D01*
X77590476Y-133814285D01*
X77638095Y-133909523D01*
G04 #@! TO.C,C10*
X93457142Y-117357142D02*
X93409523Y-117404761D01*
X93266666Y-117452380D01*
X93171428Y-117452380D01*
X93028571Y-117404761D01*
X92933333Y-117309523D01*
X92885714Y-117214285D01*
X92838095Y-117023809D01*
X92838095Y-116880952D01*
X92885714Y-116690476D01*
X92933333Y-116595238D01*
X93028571Y-116500000D01*
X93171428Y-116452380D01*
X93266666Y-116452380D01*
X93409523Y-116500000D01*
X93457142Y-116547619D01*
X94409523Y-117452380D02*
X93838095Y-117452380D01*
X94123809Y-117452380D02*
X94123809Y-116452380D01*
X94028571Y-116595238D01*
X93933333Y-116690476D01*
X93838095Y-116738095D01*
X95028571Y-116452380D02*
X95123809Y-116452380D01*
X95219047Y-116500000D01*
X95266666Y-116547619D01*
X95314285Y-116642857D01*
X95361904Y-116833333D01*
X95361904Y-117071428D01*
X95314285Y-117261904D01*
X95266666Y-117357142D01*
X95219047Y-117404761D01*
X95123809Y-117452380D01*
X95028571Y-117452380D01*
X94933333Y-117404761D01*
X94885714Y-117357142D01*
X94838095Y-117261904D01*
X94790476Y-117071428D01*
X94790476Y-116833333D01*
X94838095Y-116642857D01*
X94885714Y-116547619D01*
X94933333Y-116500000D01*
X95028571Y-116452380D01*
G04 #@! TO.C,C11*
X99437142Y-117367142D02*
X99389523Y-117414761D01*
X99246666Y-117462380D01*
X99151428Y-117462380D01*
X99008571Y-117414761D01*
X98913333Y-117319523D01*
X98865714Y-117224285D01*
X98818095Y-117033809D01*
X98818095Y-116890952D01*
X98865714Y-116700476D01*
X98913333Y-116605238D01*
X99008571Y-116510000D01*
X99151428Y-116462380D01*
X99246666Y-116462380D01*
X99389523Y-116510000D01*
X99437142Y-116557619D01*
X100389523Y-117462380D02*
X99818095Y-117462380D01*
X100103809Y-117462380D02*
X100103809Y-116462380D01*
X100008571Y-116605238D01*
X99913333Y-116700476D01*
X99818095Y-116748095D01*
X101341904Y-117462380D02*
X100770476Y-117462380D01*
X101056190Y-117462380D02*
X101056190Y-116462380D01*
X100960952Y-116605238D01*
X100865714Y-116700476D01*
X100770476Y-116748095D01*
G04 #@! TO.C,C12*
X89257142Y-130357142D02*
X89209523Y-130404761D01*
X89066666Y-130452380D01*
X88971428Y-130452380D01*
X88828571Y-130404761D01*
X88733333Y-130309523D01*
X88685714Y-130214285D01*
X88638095Y-130023809D01*
X88638095Y-129880952D01*
X88685714Y-129690476D01*
X88733333Y-129595238D01*
X88828571Y-129500000D01*
X88971428Y-129452380D01*
X89066666Y-129452380D01*
X89209523Y-129500000D01*
X89257142Y-129547619D01*
X90209523Y-130452380D02*
X89638095Y-130452380D01*
X89923809Y-130452380D02*
X89923809Y-129452380D01*
X89828571Y-129595238D01*
X89733333Y-129690476D01*
X89638095Y-129738095D01*
X90590476Y-129547619D02*
X90638095Y-129500000D01*
X90733333Y-129452380D01*
X90971428Y-129452380D01*
X91066666Y-129500000D01*
X91114285Y-129547619D01*
X91161904Y-129642857D01*
X91161904Y-129738095D01*
X91114285Y-129880952D01*
X90542857Y-130452380D01*
X91161904Y-130452380D01*
G04 #@! TO.C,C20*
X101657142Y-142957142D02*
X101609523Y-143004761D01*
X101466666Y-143052380D01*
X101371428Y-143052380D01*
X101228571Y-143004761D01*
X101133333Y-142909523D01*
X101085714Y-142814285D01*
X101038095Y-142623809D01*
X101038095Y-142480952D01*
X101085714Y-142290476D01*
X101133333Y-142195238D01*
X101228571Y-142100000D01*
X101371428Y-142052380D01*
X101466666Y-142052380D01*
X101609523Y-142100000D01*
X101657142Y-142147619D01*
X102038095Y-142147619D02*
X102085714Y-142100000D01*
X102180952Y-142052380D01*
X102419047Y-142052380D01*
X102514285Y-142100000D01*
X102561904Y-142147619D01*
X102609523Y-142242857D01*
X102609523Y-142338095D01*
X102561904Y-142480952D01*
X101990476Y-143052380D01*
X102609523Y-143052380D01*
X103228571Y-142052380D02*
X103323809Y-142052380D01*
X103419047Y-142100000D01*
X103466666Y-142147619D01*
X103514285Y-142242857D01*
X103561904Y-142433333D01*
X103561904Y-142671428D01*
X103514285Y-142861904D01*
X103466666Y-142957142D01*
X103419047Y-143004761D01*
X103323809Y-143052380D01*
X103228571Y-143052380D01*
X103133333Y-143004761D01*
X103085714Y-142957142D01*
X103038095Y-142861904D01*
X102990476Y-142671428D01*
X102990476Y-142433333D01*
X103038095Y-142242857D01*
X103085714Y-142147619D01*
X103133333Y-142100000D01*
X103228571Y-142052380D01*
G04 #@! TO.C,C21*
X90657142Y-142957142D02*
X90609523Y-143004761D01*
X90466666Y-143052380D01*
X90371428Y-143052380D01*
X90228571Y-143004761D01*
X90133333Y-142909523D01*
X90085714Y-142814285D01*
X90038095Y-142623809D01*
X90038095Y-142480952D01*
X90085714Y-142290476D01*
X90133333Y-142195238D01*
X90228571Y-142100000D01*
X90371428Y-142052380D01*
X90466666Y-142052380D01*
X90609523Y-142100000D01*
X90657142Y-142147619D01*
X91038095Y-142147619D02*
X91085714Y-142100000D01*
X91180952Y-142052380D01*
X91419047Y-142052380D01*
X91514285Y-142100000D01*
X91561904Y-142147619D01*
X91609523Y-142242857D01*
X91609523Y-142338095D01*
X91561904Y-142480952D01*
X90990476Y-143052380D01*
X91609523Y-143052380D01*
X92561904Y-143052380D02*
X91990476Y-143052380D01*
X92276190Y-143052380D02*
X92276190Y-142052380D01*
X92180952Y-142195238D01*
X92085714Y-142290476D01*
X91990476Y-142338095D01*
G04 #@! TO.C,C22*
X90657142Y-140557142D02*
X90609523Y-140604761D01*
X90466666Y-140652380D01*
X90371428Y-140652380D01*
X90228571Y-140604761D01*
X90133333Y-140509523D01*
X90085714Y-140414285D01*
X90038095Y-140223809D01*
X90038095Y-140080952D01*
X90085714Y-139890476D01*
X90133333Y-139795238D01*
X90228571Y-139700000D01*
X90371428Y-139652380D01*
X90466666Y-139652380D01*
X90609523Y-139700000D01*
X90657142Y-139747619D01*
X91038095Y-139747619D02*
X91085714Y-139700000D01*
X91180952Y-139652380D01*
X91419047Y-139652380D01*
X91514285Y-139700000D01*
X91561904Y-139747619D01*
X91609523Y-139842857D01*
X91609523Y-139938095D01*
X91561904Y-140080952D01*
X90990476Y-140652380D01*
X91609523Y-140652380D01*
X91990476Y-139747619D02*
X92038095Y-139700000D01*
X92133333Y-139652380D01*
X92371428Y-139652380D01*
X92466666Y-139700000D01*
X92514285Y-139747619D01*
X92561904Y-139842857D01*
X92561904Y-139938095D01*
X92514285Y-140080952D01*
X91942857Y-140652380D01*
X92561904Y-140652380D01*
G04 #@! TO.C,C23*
X101557142Y-140657142D02*
X101509523Y-140704761D01*
X101366666Y-140752380D01*
X101271428Y-140752380D01*
X101128571Y-140704761D01*
X101033333Y-140609523D01*
X100985714Y-140514285D01*
X100938095Y-140323809D01*
X100938095Y-140180952D01*
X100985714Y-139990476D01*
X101033333Y-139895238D01*
X101128571Y-139800000D01*
X101271428Y-139752380D01*
X101366666Y-139752380D01*
X101509523Y-139800000D01*
X101557142Y-139847619D01*
X101938095Y-139847619D02*
X101985714Y-139800000D01*
X102080952Y-139752380D01*
X102319047Y-139752380D01*
X102414285Y-139800000D01*
X102461904Y-139847619D01*
X102509523Y-139942857D01*
X102509523Y-140038095D01*
X102461904Y-140180952D01*
X101890476Y-140752380D01*
X102509523Y-140752380D01*
X102842857Y-139752380D02*
X103461904Y-139752380D01*
X103128571Y-140133333D01*
X103271428Y-140133333D01*
X103366666Y-140180952D01*
X103414285Y-140228571D01*
X103461904Y-140323809D01*
X103461904Y-140561904D01*
X103414285Y-140657142D01*
X103366666Y-140704761D01*
X103271428Y-140752380D01*
X102985714Y-140752380D01*
X102890476Y-140704761D01*
X102842857Y-140657142D01*
G04 #@! TO.C,C30*
X56757142Y-148042857D02*
X56804761Y-148090476D01*
X56852380Y-148233333D01*
X56852380Y-148328571D01*
X56804761Y-148471428D01*
X56709523Y-148566666D01*
X56614285Y-148614285D01*
X56423809Y-148661904D01*
X56280952Y-148661904D01*
X56090476Y-148614285D01*
X55995238Y-148566666D01*
X55900000Y-148471428D01*
X55852380Y-148328571D01*
X55852380Y-148233333D01*
X55900000Y-148090476D01*
X55947619Y-148042857D01*
X55852380Y-147709523D02*
X55852380Y-147090476D01*
X56233333Y-147423809D01*
X56233333Y-147280952D01*
X56280952Y-147185714D01*
X56328571Y-147138095D01*
X56423809Y-147090476D01*
X56661904Y-147090476D01*
X56757142Y-147138095D01*
X56804761Y-147185714D01*
X56852380Y-147280952D01*
X56852380Y-147566666D01*
X56804761Y-147661904D01*
X56757142Y-147709523D01*
X55852380Y-146471428D02*
X55852380Y-146376190D01*
X55900000Y-146280952D01*
X55947619Y-146233333D01*
X56042857Y-146185714D01*
X56233333Y-146138095D01*
X56471428Y-146138095D01*
X56661904Y-146185714D01*
X56757142Y-146233333D01*
X56804761Y-146280952D01*
X56852380Y-146376190D01*
X56852380Y-146471428D01*
X56804761Y-146566666D01*
X56757142Y-146614285D01*
X56661904Y-146661904D01*
X56471428Y-146709523D01*
X56233333Y-146709523D01*
X56042857Y-146661904D01*
X55947619Y-146614285D01*
X55900000Y-146566666D01*
X55852380Y-146471428D01*
G04 #@! TO.C,C31*
X68937142Y-116127142D02*
X68889523Y-116174761D01*
X68746666Y-116222380D01*
X68651428Y-116222380D01*
X68508571Y-116174761D01*
X68413333Y-116079523D01*
X68365714Y-115984285D01*
X68318095Y-115793809D01*
X68318095Y-115650952D01*
X68365714Y-115460476D01*
X68413333Y-115365238D01*
X68508571Y-115270000D01*
X68651428Y-115222380D01*
X68746666Y-115222380D01*
X68889523Y-115270000D01*
X68937142Y-115317619D01*
X69270476Y-115222380D02*
X69889523Y-115222380D01*
X69556190Y-115603333D01*
X69699047Y-115603333D01*
X69794285Y-115650952D01*
X69841904Y-115698571D01*
X69889523Y-115793809D01*
X69889523Y-116031904D01*
X69841904Y-116127142D01*
X69794285Y-116174761D01*
X69699047Y-116222380D01*
X69413333Y-116222380D01*
X69318095Y-116174761D01*
X69270476Y-116127142D01*
X70841904Y-116222380D02*
X70270476Y-116222380D01*
X70556190Y-116222380D02*
X70556190Y-115222380D01*
X70460952Y-115365238D01*
X70365714Y-115460476D01*
X70270476Y-115508095D01*
G04 #@! TO.C,C33*
X60257142Y-135342857D02*
X60304761Y-135390476D01*
X60352380Y-135533333D01*
X60352380Y-135628571D01*
X60304761Y-135771428D01*
X60209523Y-135866666D01*
X60114285Y-135914285D01*
X59923809Y-135961904D01*
X59780952Y-135961904D01*
X59590476Y-135914285D01*
X59495238Y-135866666D01*
X59400000Y-135771428D01*
X59352380Y-135628571D01*
X59352380Y-135533333D01*
X59400000Y-135390476D01*
X59447619Y-135342857D01*
X59352380Y-135009523D02*
X59352380Y-134390476D01*
X59733333Y-134723809D01*
X59733333Y-134580952D01*
X59780952Y-134485714D01*
X59828571Y-134438095D01*
X59923809Y-134390476D01*
X60161904Y-134390476D01*
X60257142Y-134438095D01*
X60304761Y-134485714D01*
X60352380Y-134580952D01*
X60352380Y-134866666D01*
X60304761Y-134961904D01*
X60257142Y-135009523D01*
X59352380Y-134057142D02*
X59352380Y-133438095D01*
X59733333Y-133771428D01*
X59733333Y-133628571D01*
X59780952Y-133533333D01*
X59828571Y-133485714D01*
X59923809Y-133438095D01*
X60161904Y-133438095D01*
X60257142Y-133485714D01*
X60304761Y-133533333D01*
X60352380Y-133628571D01*
X60352380Y-133914285D01*
X60304761Y-134009523D01*
X60257142Y-134057142D01*
G04 #@! TO.C,C34*
X58407142Y-141042857D02*
X58454761Y-141090476D01*
X58502380Y-141233333D01*
X58502380Y-141328571D01*
X58454761Y-141471428D01*
X58359523Y-141566666D01*
X58264285Y-141614285D01*
X58073809Y-141661904D01*
X57930952Y-141661904D01*
X57740476Y-141614285D01*
X57645238Y-141566666D01*
X57550000Y-141471428D01*
X57502380Y-141328571D01*
X57502380Y-141233333D01*
X57550000Y-141090476D01*
X57597619Y-141042857D01*
X57502380Y-140709523D02*
X57502380Y-140090476D01*
X57883333Y-140423809D01*
X57883333Y-140280952D01*
X57930952Y-140185714D01*
X57978571Y-140138095D01*
X58073809Y-140090476D01*
X58311904Y-140090476D01*
X58407142Y-140138095D01*
X58454761Y-140185714D01*
X58502380Y-140280952D01*
X58502380Y-140566666D01*
X58454761Y-140661904D01*
X58407142Y-140709523D01*
X57835714Y-139233333D02*
X58502380Y-139233333D01*
X57454761Y-139471428D02*
X58169047Y-139709523D01*
X58169047Y-139090476D01*
G04 #@! TO.C,C40*
X46357142Y-56642857D02*
X46404761Y-56690476D01*
X46452380Y-56833333D01*
X46452380Y-56928571D01*
X46404761Y-57071428D01*
X46309523Y-57166666D01*
X46214285Y-57214285D01*
X46023809Y-57261904D01*
X45880952Y-57261904D01*
X45690476Y-57214285D01*
X45595238Y-57166666D01*
X45500000Y-57071428D01*
X45452380Y-56928571D01*
X45452380Y-56833333D01*
X45500000Y-56690476D01*
X45547619Y-56642857D01*
X45785714Y-55785714D02*
X46452380Y-55785714D01*
X45404761Y-56023809D02*
X46119047Y-56261904D01*
X46119047Y-55642857D01*
X45452380Y-55071428D02*
X45452380Y-54976190D01*
X45500000Y-54880952D01*
X45547619Y-54833333D01*
X45642857Y-54785714D01*
X45833333Y-54738095D01*
X46071428Y-54738095D01*
X46261904Y-54785714D01*
X46357142Y-54833333D01*
X46404761Y-54880952D01*
X46452380Y-54976190D01*
X46452380Y-55071428D01*
X46404761Y-55166666D01*
X46357142Y-55214285D01*
X46261904Y-55261904D01*
X46071428Y-55309523D01*
X45833333Y-55309523D01*
X45642857Y-55261904D01*
X45547619Y-55214285D01*
X45500000Y-55166666D01*
X45452380Y-55071428D01*
G04 #@! TO.C,C41*
X46357142Y-72642857D02*
X46404761Y-72690476D01*
X46452380Y-72833333D01*
X46452380Y-72928571D01*
X46404761Y-73071428D01*
X46309523Y-73166666D01*
X46214285Y-73214285D01*
X46023809Y-73261904D01*
X45880952Y-73261904D01*
X45690476Y-73214285D01*
X45595238Y-73166666D01*
X45500000Y-73071428D01*
X45452380Y-72928571D01*
X45452380Y-72833333D01*
X45500000Y-72690476D01*
X45547619Y-72642857D01*
X45785714Y-71785714D02*
X46452380Y-71785714D01*
X45404761Y-72023809D02*
X46119047Y-72261904D01*
X46119047Y-71642857D01*
X46452380Y-70738095D02*
X46452380Y-71309523D01*
X46452380Y-71023809D02*
X45452380Y-71023809D01*
X45595238Y-71119047D01*
X45690476Y-71214285D01*
X45738095Y-71309523D01*
G04 #@! TO.C,C42*
X46357142Y-88642857D02*
X46404761Y-88690476D01*
X46452380Y-88833333D01*
X46452380Y-88928571D01*
X46404761Y-89071428D01*
X46309523Y-89166666D01*
X46214285Y-89214285D01*
X46023809Y-89261904D01*
X45880952Y-89261904D01*
X45690476Y-89214285D01*
X45595238Y-89166666D01*
X45500000Y-89071428D01*
X45452380Y-88928571D01*
X45452380Y-88833333D01*
X45500000Y-88690476D01*
X45547619Y-88642857D01*
X45785714Y-87785714D02*
X46452380Y-87785714D01*
X45404761Y-88023809D02*
X46119047Y-88261904D01*
X46119047Y-87642857D01*
X45547619Y-87309523D02*
X45500000Y-87261904D01*
X45452380Y-87166666D01*
X45452380Y-86928571D01*
X45500000Y-86833333D01*
X45547619Y-86785714D01*
X45642857Y-86738095D01*
X45738095Y-86738095D01*
X45880952Y-86785714D01*
X46452380Y-87357142D01*
X46452380Y-86738095D01*
G04 #@! TO.C,C43*
X46357142Y-104642857D02*
X46404761Y-104690476D01*
X46452380Y-104833333D01*
X46452380Y-104928571D01*
X46404761Y-105071428D01*
X46309523Y-105166666D01*
X46214285Y-105214285D01*
X46023809Y-105261904D01*
X45880952Y-105261904D01*
X45690476Y-105214285D01*
X45595238Y-105166666D01*
X45500000Y-105071428D01*
X45452380Y-104928571D01*
X45452380Y-104833333D01*
X45500000Y-104690476D01*
X45547619Y-104642857D01*
X45785714Y-103785714D02*
X46452380Y-103785714D01*
X45404761Y-104023809D02*
X46119047Y-104261904D01*
X46119047Y-103642857D01*
X45452380Y-103357142D02*
X45452380Y-102738095D01*
X45833333Y-103071428D01*
X45833333Y-102928571D01*
X45880952Y-102833333D01*
X45928571Y-102785714D01*
X46023809Y-102738095D01*
X46261904Y-102738095D01*
X46357142Y-102785714D01*
X46404761Y-102833333D01*
X46452380Y-102928571D01*
X46452380Y-103214285D01*
X46404761Y-103309523D01*
X46357142Y-103357142D01*
G04 #@! TO.C,C44*
X46357142Y-120642857D02*
X46404761Y-120690476D01*
X46452380Y-120833333D01*
X46452380Y-120928571D01*
X46404761Y-121071428D01*
X46309523Y-121166666D01*
X46214285Y-121214285D01*
X46023809Y-121261904D01*
X45880952Y-121261904D01*
X45690476Y-121214285D01*
X45595238Y-121166666D01*
X45500000Y-121071428D01*
X45452380Y-120928571D01*
X45452380Y-120833333D01*
X45500000Y-120690476D01*
X45547619Y-120642857D01*
X45785714Y-119785714D02*
X46452380Y-119785714D01*
X45404761Y-120023809D02*
X46119047Y-120261904D01*
X46119047Y-119642857D01*
X45785714Y-118833333D02*
X46452380Y-118833333D01*
X45404761Y-119071428D02*
X46119047Y-119309523D01*
X46119047Y-118690476D01*
G04 #@! TO.C,C45*
X46357142Y-136642857D02*
X46404761Y-136690476D01*
X46452380Y-136833333D01*
X46452380Y-136928571D01*
X46404761Y-137071428D01*
X46309523Y-137166666D01*
X46214285Y-137214285D01*
X46023809Y-137261904D01*
X45880952Y-137261904D01*
X45690476Y-137214285D01*
X45595238Y-137166666D01*
X45500000Y-137071428D01*
X45452380Y-136928571D01*
X45452380Y-136833333D01*
X45500000Y-136690476D01*
X45547619Y-136642857D01*
X45785714Y-135785714D02*
X46452380Y-135785714D01*
X45404761Y-136023809D02*
X46119047Y-136261904D01*
X46119047Y-135642857D01*
X45452380Y-134785714D02*
X45452380Y-135261904D01*
X45928571Y-135309523D01*
X45880952Y-135261904D01*
X45833333Y-135166666D01*
X45833333Y-134928571D01*
X45880952Y-134833333D01*
X45928571Y-134785714D01*
X46023809Y-134738095D01*
X46261904Y-134738095D01*
X46357142Y-134785714D01*
X46404761Y-134833333D01*
X46452380Y-134928571D01*
X46452380Y-135166666D01*
X46404761Y-135261904D01*
X46357142Y-135309523D01*
G04 #@! TO.C,C46*
X48357142Y-149642857D02*
X48404761Y-149690476D01*
X48452380Y-149833333D01*
X48452380Y-149928571D01*
X48404761Y-150071428D01*
X48309523Y-150166666D01*
X48214285Y-150214285D01*
X48023809Y-150261904D01*
X47880952Y-150261904D01*
X47690476Y-150214285D01*
X47595238Y-150166666D01*
X47500000Y-150071428D01*
X47452380Y-149928571D01*
X47452380Y-149833333D01*
X47500000Y-149690476D01*
X47547619Y-149642857D01*
X47785714Y-148785714D02*
X48452380Y-148785714D01*
X47404761Y-149023809D02*
X48119047Y-149261904D01*
X48119047Y-148642857D01*
X47452380Y-147833333D02*
X47452380Y-148023809D01*
X47500000Y-148119047D01*
X47547619Y-148166666D01*
X47690476Y-148261904D01*
X47880952Y-148309523D01*
X48261904Y-148309523D01*
X48357142Y-148261904D01*
X48404761Y-148214285D01*
X48452380Y-148119047D01*
X48452380Y-147928571D01*
X48404761Y-147833333D01*
X48357142Y-147785714D01*
X48261904Y-147738095D01*
X48023809Y-147738095D01*
X47928571Y-147785714D01*
X47880952Y-147833333D01*
X47833333Y-147928571D01*
X47833333Y-148119047D01*
X47880952Y-148214285D01*
X47928571Y-148261904D01*
X48023809Y-148309523D01*
G04 #@! TO.C,D00*
X84652380Y-142814285D02*
X83652380Y-142814285D01*
X83652380Y-142576190D01*
X83700000Y-142433333D01*
X83795238Y-142338095D01*
X83890476Y-142290476D01*
X84080952Y-142242857D01*
X84223809Y-142242857D01*
X84414285Y-142290476D01*
X84509523Y-142338095D01*
X84604761Y-142433333D01*
X84652380Y-142576190D01*
X84652380Y-142814285D01*
X83652380Y-141623809D02*
X83652380Y-141528571D01*
X83700000Y-141433333D01*
X83747619Y-141385714D01*
X83842857Y-141338095D01*
X84033333Y-141290476D01*
X84271428Y-141290476D01*
X84461904Y-141338095D01*
X84557142Y-141385714D01*
X84604761Y-141433333D01*
X84652380Y-141528571D01*
X84652380Y-141623809D01*
X84604761Y-141719047D01*
X84557142Y-141766666D01*
X84461904Y-141814285D01*
X84271428Y-141861904D01*
X84033333Y-141861904D01*
X83842857Y-141814285D01*
X83747619Y-141766666D01*
X83700000Y-141719047D01*
X83652380Y-141623809D01*
X83652380Y-140671428D02*
X83652380Y-140576190D01*
X83700000Y-140480952D01*
X83747619Y-140433333D01*
X83842857Y-140385714D01*
X84033333Y-140338095D01*
X84271428Y-140338095D01*
X84461904Y-140385714D01*
X84557142Y-140433333D01*
X84604761Y-140480952D01*
X84652380Y-140576190D01*
X84652380Y-140671428D01*
X84604761Y-140766666D01*
X84557142Y-140814285D01*
X84461904Y-140861904D01*
X84271428Y-140909523D01*
X84033333Y-140909523D01*
X83842857Y-140861904D01*
X83747619Y-140814285D01*
X83700000Y-140766666D01*
X83652380Y-140671428D01*
G04 #@! TO.C,Q00*
X75447619Y-135171428D02*
X75400000Y-135266666D01*
X75304761Y-135361904D01*
X75161904Y-135504761D01*
X75114285Y-135600000D01*
X75114285Y-135695238D01*
X75352380Y-135647619D02*
X75304761Y-135742857D01*
X75209523Y-135838095D01*
X75019047Y-135885714D01*
X74685714Y-135885714D01*
X74495238Y-135838095D01*
X74400000Y-135742857D01*
X74352380Y-135647619D01*
X74352380Y-135457142D01*
X74400000Y-135361904D01*
X74495238Y-135266666D01*
X74685714Y-135219047D01*
X75019047Y-135219047D01*
X75209523Y-135266666D01*
X75304761Y-135361904D01*
X75352380Y-135457142D01*
X75352380Y-135647619D01*
X74352380Y-134600000D02*
X74352380Y-134504761D01*
X74400000Y-134409523D01*
X74447619Y-134361904D01*
X74542857Y-134314285D01*
X74733333Y-134266666D01*
X74971428Y-134266666D01*
X75161904Y-134314285D01*
X75257142Y-134361904D01*
X75304761Y-134409523D01*
X75352380Y-134504761D01*
X75352380Y-134600000D01*
X75304761Y-134695238D01*
X75257142Y-134742857D01*
X75161904Y-134790476D01*
X74971428Y-134838095D01*
X74733333Y-134838095D01*
X74542857Y-134790476D01*
X74447619Y-134742857D01*
X74400000Y-134695238D01*
X74352380Y-134600000D01*
X74352380Y-133647619D02*
X74352380Y-133552380D01*
X74400000Y-133457142D01*
X74447619Y-133409523D01*
X74542857Y-133361904D01*
X74733333Y-133314285D01*
X74971428Y-133314285D01*
X75161904Y-133361904D01*
X75257142Y-133409523D01*
X75304761Y-133457142D01*
X75352380Y-133552380D01*
X75352380Y-133647619D01*
X75304761Y-133742857D01*
X75257142Y-133790476D01*
X75161904Y-133838095D01*
X74971428Y-133885714D01*
X74733333Y-133885714D01*
X74542857Y-133838095D01*
X74447619Y-133790476D01*
X74400000Y-133742857D01*
X74352380Y-133647619D01*
G04 #@! TO.C,Q10*
X95047619Y-120571428D02*
X95000000Y-120666666D01*
X94904761Y-120761904D01*
X94761904Y-120904761D01*
X94714285Y-121000000D01*
X94714285Y-121095238D01*
X94952380Y-121047619D02*
X94904761Y-121142857D01*
X94809523Y-121238095D01*
X94619047Y-121285714D01*
X94285714Y-121285714D01*
X94095238Y-121238095D01*
X94000000Y-121142857D01*
X93952380Y-121047619D01*
X93952380Y-120857142D01*
X94000000Y-120761904D01*
X94095238Y-120666666D01*
X94285714Y-120619047D01*
X94619047Y-120619047D01*
X94809523Y-120666666D01*
X94904761Y-120761904D01*
X94952380Y-120857142D01*
X94952380Y-121047619D01*
X94952380Y-119666666D02*
X94952380Y-120238095D01*
X94952380Y-119952380D02*
X93952380Y-119952380D01*
X94095238Y-120047619D01*
X94190476Y-120142857D01*
X94238095Y-120238095D01*
X93952380Y-119047619D02*
X93952380Y-118952380D01*
X94000000Y-118857142D01*
X94047619Y-118809523D01*
X94142857Y-118761904D01*
X94333333Y-118714285D01*
X94571428Y-118714285D01*
X94761904Y-118761904D01*
X94857142Y-118809523D01*
X94904761Y-118857142D01*
X94952380Y-118952380D01*
X94952380Y-119047619D01*
X94904761Y-119142857D01*
X94857142Y-119190476D01*
X94761904Y-119238095D01*
X94571428Y-119285714D01*
X94333333Y-119285714D01*
X94142857Y-119238095D01*
X94047619Y-119190476D01*
X94000000Y-119142857D01*
X93952380Y-119047619D01*
G04 #@! TO.C,Q11*
X101047619Y-120571428D02*
X101000000Y-120666666D01*
X100904761Y-120761904D01*
X100761904Y-120904761D01*
X100714285Y-121000000D01*
X100714285Y-121095238D01*
X100952380Y-121047619D02*
X100904761Y-121142857D01*
X100809523Y-121238095D01*
X100619047Y-121285714D01*
X100285714Y-121285714D01*
X100095238Y-121238095D01*
X100000000Y-121142857D01*
X99952380Y-121047619D01*
X99952380Y-120857142D01*
X100000000Y-120761904D01*
X100095238Y-120666666D01*
X100285714Y-120619047D01*
X100619047Y-120619047D01*
X100809523Y-120666666D01*
X100904761Y-120761904D01*
X100952380Y-120857142D01*
X100952380Y-121047619D01*
X100952380Y-119666666D02*
X100952380Y-120238095D01*
X100952380Y-119952380D02*
X99952380Y-119952380D01*
X100095238Y-120047619D01*
X100190476Y-120142857D01*
X100238095Y-120238095D01*
X100952380Y-118714285D02*
X100952380Y-119285714D01*
X100952380Y-119000000D02*
X99952380Y-119000000D01*
X100095238Y-119095238D01*
X100190476Y-119190476D01*
X100238095Y-119285714D01*
G04 #@! TO.C,R00*
X80852380Y-135242857D02*
X80376190Y-135576190D01*
X80852380Y-135814285D02*
X79852380Y-135814285D01*
X79852380Y-135433333D01*
X79900000Y-135338095D01*
X79947619Y-135290476D01*
X80042857Y-135242857D01*
X80185714Y-135242857D01*
X80280952Y-135290476D01*
X80328571Y-135338095D01*
X80376190Y-135433333D01*
X80376190Y-135814285D01*
X79852380Y-134623809D02*
X79852380Y-134528571D01*
X79900000Y-134433333D01*
X79947619Y-134385714D01*
X80042857Y-134338095D01*
X80233333Y-134290476D01*
X80471428Y-134290476D01*
X80661904Y-134338095D01*
X80757142Y-134385714D01*
X80804761Y-134433333D01*
X80852380Y-134528571D01*
X80852380Y-134623809D01*
X80804761Y-134719047D01*
X80757142Y-134766666D01*
X80661904Y-134814285D01*
X80471428Y-134861904D01*
X80233333Y-134861904D01*
X80042857Y-134814285D01*
X79947619Y-134766666D01*
X79900000Y-134719047D01*
X79852380Y-134623809D01*
X79852380Y-133671428D02*
X79852380Y-133576190D01*
X79900000Y-133480952D01*
X79947619Y-133433333D01*
X80042857Y-133385714D01*
X80233333Y-133338095D01*
X80471428Y-133338095D01*
X80661904Y-133385714D01*
X80757142Y-133433333D01*
X80804761Y-133480952D01*
X80852380Y-133576190D01*
X80852380Y-133671428D01*
X80804761Y-133766666D01*
X80757142Y-133814285D01*
X80661904Y-133861904D01*
X80471428Y-133909523D01*
X80233333Y-133909523D01*
X80042857Y-133861904D01*
X79947619Y-133814285D01*
X79900000Y-133766666D01*
X79852380Y-133671428D01*
G04 #@! TO.C,R01*
X82852380Y-135242857D02*
X82376190Y-135576190D01*
X82852380Y-135814285D02*
X81852380Y-135814285D01*
X81852380Y-135433333D01*
X81900000Y-135338095D01*
X81947619Y-135290476D01*
X82042857Y-135242857D01*
X82185714Y-135242857D01*
X82280952Y-135290476D01*
X82328571Y-135338095D01*
X82376190Y-135433333D01*
X82376190Y-135814285D01*
X81852380Y-134623809D02*
X81852380Y-134528571D01*
X81900000Y-134433333D01*
X81947619Y-134385714D01*
X82042857Y-134338095D01*
X82233333Y-134290476D01*
X82471428Y-134290476D01*
X82661904Y-134338095D01*
X82757142Y-134385714D01*
X82804761Y-134433333D01*
X82852380Y-134528571D01*
X82852380Y-134623809D01*
X82804761Y-134719047D01*
X82757142Y-134766666D01*
X82661904Y-134814285D01*
X82471428Y-134861904D01*
X82233333Y-134861904D01*
X82042857Y-134814285D01*
X81947619Y-134766666D01*
X81900000Y-134719047D01*
X81852380Y-134623809D01*
X82852380Y-133338095D02*
X82852380Y-133909523D01*
X82852380Y-133623809D02*
X81852380Y-133623809D01*
X81995238Y-133719047D01*
X82090476Y-133814285D01*
X82138095Y-133909523D01*
G04 #@! TO.C,R10*
X96357142Y-124882380D02*
X96023809Y-124406190D01*
X95785714Y-124882380D02*
X95785714Y-123882380D01*
X96166666Y-123882380D01*
X96261904Y-123930000D01*
X96309523Y-123977619D01*
X96357142Y-124072857D01*
X96357142Y-124215714D01*
X96309523Y-124310952D01*
X96261904Y-124358571D01*
X96166666Y-124406190D01*
X95785714Y-124406190D01*
X97309523Y-124882380D02*
X96738095Y-124882380D01*
X97023809Y-124882380D02*
X97023809Y-123882380D01*
X96928571Y-124025238D01*
X96833333Y-124120476D01*
X96738095Y-124168095D01*
X97928571Y-123882380D02*
X98023809Y-123882380D01*
X98119047Y-123930000D01*
X98166666Y-123977619D01*
X98214285Y-124072857D01*
X98261904Y-124263333D01*
X98261904Y-124501428D01*
X98214285Y-124691904D01*
X98166666Y-124787142D01*
X98119047Y-124834761D01*
X98023809Y-124882380D01*
X97928571Y-124882380D01*
X97833333Y-124834761D01*
X97785714Y-124787142D01*
X97738095Y-124691904D01*
X97690476Y-124501428D01*
X97690476Y-124263333D01*
X97738095Y-124072857D01*
X97785714Y-123977619D01*
X97833333Y-123930000D01*
X97928571Y-123882380D01*
G04 #@! TO.C,R11*
X102357142Y-124882380D02*
X102023809Y-124406190D01*
X101785714Y-124882380D02*
X101785714Y-123882380D01*
X102166666Y-123882380D01*
X102261904Y-123930000D01*
X102309523Y-123977619D01*
X102357142Y-124072857D01*
X102357142Y-124215714D01*
X102309523Y-124310952D01*
X102261904Y-124358571D01*
X102166666Y-124406190D01*
X101785714Y-124406190D01*
X103309523Y-124882380D02*
X102738095Y-124882380D01*
X103023809Y-124882380D02*
X103023809Y-123882380D01*
X102928571Y-124025238D01*
X102833333Y-124120476D01*
X102738095Y-124168095D01*
X104261904Y-124882380D02*
X103690476Y-124882380D01*
X103976190Y-124882380D02*
X103976190Y-123882380D01*
X103880952Y-124025238D01*
X103785714Y-124120476D01*
X103690476Y-124168095D01*
G04 #@! TO.C,R20*
X87857142Y-150152380D02*
X87523809Y-149676190D01*
X87285714Y-150152380D02*
X87285714Y-149152380D01*
X87666666Y-149152380D01*
X87761904Y-149200000D01*
X87809523Y-149247619D01*
X87857142Y-149342857D01*
X87857142Y-149485714D01*
X87809523Y-149580952D01*
X87761904Y-149628571D01*
X87666666Y-149676190D01*
X87285714Y-149676190D01*
X88238095Y-149247619D02*
X88285714Y-149200000D01*
X88380952Y-149152380D01*
X88619047Y-149152380D01*
X88714285Y-149200000D01*
X88761904Y-149247619D01*
X88809523Y-149342857D01*
X88809523Y-149438095D01*
X88761904Y-149580952D01*
X88190476Y-150152380D01*
X88809523Y-150152380D01*
X89428571Y-149152380D02*
X89523809Y-149152380D01*
X89619047Y-149200000D01*
X89666666Y-149247619D01*
X89714285Y-149342857D01*
X89761904Y-149533333D01*
X89761904Y-149771428D01*
X89714285Y-149961904D01*
X89666666Y-150057142D01*
X89619047Y-150104761D01*
X89523809Y-150152380D01*
X89428571Y-150152380D01*
X89333333Y-150104761D01*
X89285714Y-150057142D01*
X89238095Y-149961904D01*
X89190476Y-149771428D01*
X89190476Y-149533333D01*
X89238095Y-149342857D01*
X89285714Y-149247619D01*
X89333333Y-149200000D01*
X89428571Y-149152380D01*
G04 #@! TO.C,R21*
X98857142Y-150152380D02*
X98523809Y-149676190D01*
X98285714Y-150152380D02*
X98285714Y-149152380D01*
X98666666Y-149152380D01*
X98761904Y-149200000D01*
X98809523Y-149247619D01*
X98857142Y-149342857D01*
X98857142Y-149485714D01*
X98809523Y-149580952D01*
X98761904Y-149628571D01*
X98666666Y-149676190D01*
X98285714Y-149676190D01*
X99238095Y-149247619D02*
X99285714Y-149200000D01*
X99380952Y-149152380D01*
X99619047Y-149152380D01*
X99714285Y-149200000D01*
X99761904Y-149247619D01*
X99809523Y-149342857D01*
X99809523Y-149438095D01*
X99761904Y-149580952D01*
X99190476Y-150152380D01*
X99809523Y-150152380D01*
X100761904Y-150152380D02*
X100190476Y-150152380D01*
X100476190Y-150152380D02*
X100476190Y-149152380D01*
X100380952Y-149295238D01*
X100285714Y-149390476D01*
X100190476Y-149438095D01*
G04 #@! TO.C,R22*
X98857142Y-151752380D02*
X98523809Y-151276190D01*
X98285714Y-151752380D02*
X98285714Y-150752380D01*
X98666666Y-150752380D01*
X98761904Y-150800000D01*
X98809523Y-150847619D01*
X98857142Y-150942857D01*
X98857142Y-151085714D01*
X98809523Y-151180952D01*
X98761904Y-151228571D01*
X98666666Y-151276190D01*
X98285714Y-151276190D01*
X99238095Y-150847619D02*
X99285714Y-150800000D01*
X99380952Y-150752380D01*
X99619047Y-150752380D01*
X99714285Y-150800000D01*
X99761904Y-150847619D01*
X99809523Y-150942857D01*
X99809523Y-151038095D01*
X99761904Y-151180952D01*
X99190476Y-151752380D01*
X99809523Y-151752380D01*
X100190476Y-150847619D02*
X100238095Y-150800000D01*
X100333333Y-150752380D01*
X100571428Y-150752380D01*
X100666666Y-150800000D01*
X100714285Y-150847619D01*
X100761904Y-150942857D01*
X100761904Y-151038095D01*
X100714285Y-151180952D01*
X100142857Y-151752380D01*
X100761904Y-151752380D01*
G04 #@! TO.C,R23*
X88957142Y-151852380D02*
X88623809Y-151376190D01*
X88385714Y-151852380D02*
X88385714Y-150852380D01*
X88766666Y-150852380D01*
X88861904Y-150900000D01*
X88909523Y-150947619D01*
X88957142Y-151042857D01*
X88957142Y-151185714D01*
X88909523Y-151280952D01*
X88861904Y-151328571D01*
X88766666Y-151376190D01*
X88385714Y-151376190D01*
X89338095Y-150947619D02*
X89385714Y-150900000D01*
X89480952Y-150852380D01*
X89719047Y-150852380D01*
X89814285Y-150900000D01*
X89861904Y-150947619D01*
X89909523Y-151042857D01*
X89909523Y-151138095D01*
X89861904Y-151280952D01*
X89290476Y-151852380D01*
X89909523Y-151852380D01*
X90242857Y-150852380D02*
X90861904Y-150852380D01*
X90528571Y-151233333D01*
X90671428Y-151233333D01*
X90766666Y-151280952D01*
X90814285Y-151328571D01*
X90861904Y-151423809D01*
X90861904Y-151661904D01*
X90814285Y-151757142D01*
X90766666Y-151804761D01*
X90671428Y-151852380D01*
X90385714Y-151852380D01*
X90290476Y-151804761D01*
X90242857Y-151757142D01*
G04 #@! TO.C,R32*
X63452380Y-135342857D02*
X62976190Y-135676190D01*
X63452380Y-135914285D02*
X62452380Y-135914285D01*
X62452380Y-135533333D01*
X62500000Y-135438095D01*
X62547619Y-135390476D01*
X62642857Y-135342857D01*
X62785714Y-135342857D01*
X62880952Y-135390476D01*
X62928571Y-135438095D01*
X62976190Y-135533333D01*
X62976190Y-135914285D01*
X62452380Y-135009523D02*
X62452380Y-134390476D01*
X62833333Y-134723809D01*
X62833333Y-134580952D01*
X62880952Y-134485714D01*
X62928571Y-134438095D01*
X63023809Y-134390476D01*
X63261904Y-134390476D01*
X63357142Y-134438095D01*
X63404761Y-134485714D01*
X63452380Y-134580952D01*
X63452380Y-134866666D01*
X63404761Y-134961904D01*
X63357142Y-135009523D01*
X62547619Y-134009523D02*
X62500000Y-133961904D01*
X62452380Y-133866666D01*
X62452380Y-133628571D01*
X62500000Y-133533333D01*
X62547619Y-133485714D01*
X62642857Y-133438095D01*
X62738095Y-133438095D01*
X62880952Y-133485714D01*
X63452380Y-134057142D01*
X63452380Y-133438095D01*
G04 #@! TO.C,R33*
X55157142Y-136032380D02*
X54823809Y-135556190D01*
X54585714Y-136032380D02*
X54585714Y-135032380D01*
X54966666Y-135032380D01*
X55061904Y-135080000D01*
X55109523Y-135127619D01*
X55157142Y-135222857D01*
X55157142Y-135365714D01*
X55109523Y-135460952D01*
X55061904Y-135508571D01*
X54966666Y-135556190D01*
X54585714Y-135556190D01*
X55490476Y-135032380D02*
X56109523Y-135032380D01*
X55776190Y-135413333D01*
X55919047Y-135413333D01*
X56014285Y-135460952D01*
X56061904Y-135508571D01*
X56109523Y-135603809D01*
X56109523Y-135841904D01*
X56061904Y-135937142D01*
X56014285Y-135984761D01*
X55919047Y-136032380D01*
X55633333Y-136032380D01*
X55538095Y-135984761D01*
X55490476Y-135937142D01*
X56442857Y-135032380D02*
X57061904Y-135032380D01*
X56728571Y-135413333D01*
X56871428Y-135413333D01*
X56966666Y-135460952D01*
X57014285Y-135508571D01*
X57061904Y-135603809D01*
X57061904Y-135841904D01*
X57014285Y-135937142D01*
X56966666Y-135984761D01*
X56871428Y-136032380D01*
X56585714Y-136032380D01*
X56490476Y-135984761D01*
X56442857Y-135937142D01*
G04 #@! TO.C,R40*
X85357142Y-136152380D02*
X85023809Y-135676190D01*
X84785714Y-136152380D02*
X84785714Y-135152380D01*
X85166666Y-135152380D01*
X85261904Y-135200000D01*
X85309523Y-135247619D01*
X85357142Y-135342857D01*
X85357142Y-135485714D01*
X85309523Y-135580952D01*
X85261904Y-135628571D01*
X85166666Y-135676190D01*
X84785714Y-135676190D01*
X86214285Y-135485714D02*
X86214285Y-136152380D01*
X85976190Y-135104761D02*
X85738095Y-135819047D01*
X86357142Y-135819047D01*
X86928571Y-135152380D02*
X87023809Y-135152380D01*
X87119047Y-135200000D01*
X87166666Y-135247619D01*
X87214285Y-135342857D01*
X87261904Y-135533333D01*
X87261904Y-135771428D01*
X87214285Y-135961904D01*
X87166666Y-136057142D01*
X87119047Y-136104761D01*
X87023809Y-136152380D01*
X86928571Y-136152380D01*
X86833333Y-136104761D01*
X86785714Y-136057142D01*
X86738095Y-135961904D01*
X86690476Y-135771428D01*
X86690476Y-135533333D01*
X86738095Y-135342857D01*
X86785714Y-135247619D01*
X86833333Y-135200000D01*
X86928571Y-135152380D01*
G04 #@! TO.C,RL40*
X28452380Y-50047619D02*
X27976190Y-50380952D01*
X28452380Y-50619047D02*
X27452380Y-50619047D01*
X27452380Y-50238095D01*
X27500000Y-50142857D01*
X27547619Y-50095238D01*
X27642857Y-50047619D01*
X27785714Y-50047619D01*
X27880952Y-50095238D01*
X27928571Y-50142857D01*
X27976190Y-50238095D01*
X27976190Y-50619047D01*
X28452380Y-49142857D02*
X28452380Y-49619047D01*
X27452380Y-49619047D01*
X27785714Y-48380952D02*
X28452380Y-48380952D01*
X27404761Y-48619047D02*
X28119047Y-48857142D01*
X28119047Y-48238095D01*
X27452380Y-47666666D02*
X27452380Y-47571428D01*
X27500000Y-47476190D01*
X27547619Y-47428571D01*
X27642857Y-47380952D01*
X27833333Y-47333333D01*
X28071428Y-47333333D01*
X28261904Y-47380952D01*
X28357142Y-47428571D01*
X28404761Y-47476190D01*
X28452380Y-47571428D01*
X28452380Y-47666666D01*
X28404761Y-47761904D01*
X28357142Y-47809523D01*
X28261904Y-47857142D01*
X28071428Y-47904761D01*
X27833333Y-47904761D01*
X27642857Y-47857142D01*
X27547619Y-47809523D01*
X27500000Y-47761904D01*
X27452380Y-47666666D01*
G04 #@! TO.C,RL41*
X28452380Y-66047619D02*
X27976190Y-66380952D01*
X28452380Y-66619047D02*
X27452380Y-66619047D01*
X27452380Y-66238095D01*
X27500000Y-66142857D01*
X27547619Y-66095238D01*
X27642857Y-66047619D01*
X27785714Y-66047619D01*
X27880952Y-66095238D01*
X27928571Y-66142857D01*
X27976190Y-66238095D01*
X27976190Y-66619047D01*
X28452380Y-65142857D02*
X28452380Y-65619047D01*
X27452380Y-65619047D01*
X27785714Y-64380952D02*
X28452380Y-64380952D01*
X27404761Y-64619047D02*
X28119047Y-64857142D01*
X28119047Y-64238095D01*
X28452380Y-63333333D02*
X28452380Y-63904761D01*
X28452380Y-63619047D02*
X27452380Y-63619047D01*
X27595238Y-63714285D01*
X27690476Y-63809523D01*
X27738095Y-63904761D01*
G04 #@! TO.C,RL42*
X28452380Y-82047619D02*
X27976190Y-82380952D01*
X28452380Y-82619047D02*
X27452380Y-82619047D01*
X27452380Y-82238095D01*
X27500000Y-82142857D01*
X27547619Y-82095238D01*
X27642857Y-82047619D01*
X27785714Y-82047619D01*
X27880952Y-82095238D01*
X27928571Y-82142857D01*
X27976190Y-82238095D01*
X27976190Y-82619047D01*
X28452380Y-81142857D02*
X28452380Y-81619047D01*
X27452380Y-81619047D01*
X27785714Y-80380952D02*
X28452380Y-80380952D01*
X27404761Y-80619047D02*
X28119047Y-80857142D01*
X28119047Y-80238095D01*
X27547619Y-79904761D02*
X27500000Y-79857142D01*
X27452380Y-79761904D01*
X27452380Y-79523809D01*
X27500000Y-79428571D01*
X27547619Y-79380952D01*
X27642857Y-79333333D01*
X27738095Y-79333333D01*
X27880952Y-79380952D01*
X28452380Y-79952380D01*
X28452380Y-79333333D01*
G04 #@! TO.C,RL43*
X28452380Y-98047619D02*
X27976190Y-98380952D01*
X28452380Y-98619047D02*
X27452380Y-98619047D01*
X27452380Y-98238095D01*
X27500000Y-98142857D01*
X27547619Y-98095238D01*
X27642857Y-98047619D01*
X27785714Y-98047619D01*
X27880952Y-98095238D01*
X27928571Y-98142857D01*
X27976190Y-98238095D01*
X27976190Y-98619047D01*
X28452380Y-97142857D02*
X28452380Y-97619047D01*
X27452380Y-97619047D01*
X27785714Y-96380952D02*
X28452380Y-96380952D01*
X27404761Y-96619047D02*
X28119047Y-96857142D01*
X28119047Y-96238095D01*
X27452380Y-95952380D02*
X27452380Y-95333333D01*
X27833333Y-95666666D01*
X27833333Y-95523809D01*
X27880952Y-95428571D01*
X27928571Y-95380952D01*
X28023809Y-95333333D01*
X28261904Y-95333333D01*
X28357142Y-95380952D01*
X28404761Y-95428571D01*
X28452380Y-95523809D01*
X28452380Y-95809523D01*
X28404761Y-95904761D01*
X28357142Y-95952380D01*
G04 #@! TO.C,RL44*
X28452380Y-114047619D02*
X27976190Y-114380952D01*
X28452380Y-114619047D02*
X27452380Y-114619047D01*
X27452380Y-114238095D01*
X27500000Y-114142857D01*
X27547619Y-114095238D01*
X27642857Y-114047619D01*
X27785714Y-114047619D01*
X27880952Y-114095238D01*
X27928571Y-114142857D01*
X27976190Y-114238095D01*
X27976190Y-114619047D01*
X28452380Y-113142857D02*
X28452380Y-113619047D01*
X27452380Y-113619047D01*
X27785714Y-112380952D02*
X28452380Y-112380952D01*
X27404761Y-112619047D02*
X28119047Y-112857142D01*
X28119047Y-112238095D01*
X27785714Y-111428571D02*
X28452380Y-111428571D01*
X27404761Y-111666666D02*
X28119047Y-111904761D01*
X28119047Y-111285714D01*
G04 #@! TO.C,RL45*
X28452380Y-130047619D02*
X27976190Y-130380952D01*
X28452380Y-130619047D02*
X27452380Y-130619047D01*
X27452380Y-130238095D01*
X27500000Y-130142857D01*
X27547619Y-130095238D01*
X27642857Y-130047619D01*
X27785714Y-130047619D01*
X27880952Y-130095238D01*
X27928571Y-130142857D01*
X27976190Y-130238095D01*
X27976190Y-130619047D01*
X28452380Y-129142857D02*
X28452380Y-129619047D01*
X27452380Y-129619047D01*
X27785714Y-128380952D02*
X28452380Y-128380952D01*
X27404761Y-128619047D02*
X28119047Y-128857142D01*
X28119047Y-128238095D01*
X27452380Y-127380952D02*
X27452380Y-127857142D01*
X27928571Y-127904761D01*
X27880952Y-127857142D01*
X27833333Y-127761904D01*
X27833333Y-127523809D01*
X27880952Y-127428571D01*
X27928571Y-127380952D01*
X28023809Y-127333333D01*
X28261904Y-127333333D01*
X28357142Y-127380952D01*
X28404761Y-127428571D01*
X28452380Y-127523809D01*
X28452380Y-127761904D01*
X28404761Y-127857142D01*
X28357142Y-127904761D01*
G04 #@! TO.C,RL46*
X28452380Y-146047619D02*
X27976190Y-146380952D01*
X28452380Y-146619047D02*
X27452380Y-146619047D01*
X27452380Y-146238095D01*
X27500000Y-146142857D01*
X27547619Y-146095238D01*
X27642857Y-146047619D01*
X27785714Y-146047619D01*
X27880952Y-146095238D01*
X27928571Y-146142857D01*
X27976190Y-146238095D01*
X27976190Y-146619047D01*
X28452380Y-145142857D02*
X28452380Y-145619047D01*
X27452380Y-145619047D01*
X27785714Y-144380952D02*
X28452380Y-144380952D01*
X27404761Y-144619047D02*
X28119047Y-144857142D01*
X28119047Y-144238095D01*
X27452380Y-143428571D02*
X27452380Y-143619047D01*
X27500000Y-143714285D01*
X27547619Y-143761904D01*
X27690476Y-143857142D01*
X27880952Y-143904761D01*
X28261904Y-143904761D01*
X28357142Y-143857142D01*
X28404761Y-143809523D01*
X28452380Y-143714285D01*
X28452380Y-143523809D01*
X28404761Y-143428571D01*
X28357142Y-143380952D01*
X28261904Y-143333333D01*
X28023809Y-143333333D01*
X27928571Y-143380952D01*
X27880952Y-143428571D01*
X27833333Y-143523809D01*
X27833333Y-143714285D01*
X27880952Y-143809523D01*
X27928571Y-143857142D01*
X28023809Y-143904761D01*
G04 #@! TO.C,RS40*
X46452380Y-47119047D02*
X45976190Y-47452380D01*
X46452380Y-47690476D02*
X45452380Y-47690476D01*
X45452380Y-47309523D01*
X45500000Y-47214285D01*
X45547619Y-47166666D01*
X45642857Y-47119047D01*
X45785714Y-47119047D01*
X45880952Y-47166666D01*
X45928571Y-47214285D01*
X45976190Y-47309523D01*
X45976190Y-47690476D01*
X46404761Y-46738095D02*
X46452380Y-46595238D01*
X46452380Y-46357142D01*
X46404761Y-46261904D01*
X46357142Y-46214285D01*
X46261904Y-46166666D01*
X46166666Y-46166666D01*
X46071428Y-46214285D01*
X46023809Y-46261904D01*
X45976190Y-46357142D01*
X45928571Y-46547619D01*
X45880952Y-46642857D01*
X45833333Y-46690476D01*
X45738095Y-46738095D01*
X45642857Y-46738095D01*
X45547619Y-46690476D01*
X45500000Y-46642857D01*
X45452380Y-46547619D01*
X45452380Y-46309523D01*
X45500000Y-46166666D01*
X45785714Y-45309523D02*
X46452380Y-45309523D01*
X45404761Y-45547619D02*
X46119047Y-45785714D01*
X46119047Y-45166666D01*
X45452380Y-44595238D02*
X45452380Y-44500000D01*
X45500000Y-44404761D01*
X45547619Y-44357142D01*
X45642857Y-44309523D01*
X45833333Y-44261904D01*
X46071428Y-44261904D01*
X46261904Y-44309523D01*
X46357142Y-44357142D01*
X46404761Y-44404761D01*
X46452380Y-44500000D01*
X46452380Y-44595238D01*
X46404761Y-44690476D01*
X46357142Y-44738095D01*
X46261904Y-44785714D01*
X46071428Y-44833333D01*
X45833333Y-44833333D01*
X45642857Y-44785714D01*
X45547619Y-44738095D01*
X45500000Y-44690476D01*
X45452380Y-44595238D01*
G04 #@! TO.C,RS41*
X46452380Y-63119047D02*
X45976190Y-63452380D01*
X46452380Y-63690476D02*
X45452380Y-63690476D01*
X45452380Y-63309523D01*
X45500000Y-63214285D01*
X45547619Y-63166666D01*
X45642857Y-63119047D01*
X45785714Y-63119047D01*
X45880952Y-63166666D01*
X45928571Y-63214285D01*
X45976190Y-63309523D01*
X45976190Y-63690476D01*
X46404761Y-62738095D02*
X46452380Y-62595238D01*
X46452380Y-62357142D01*
X46404761Y-62261904D01*
X46357142Y-62214285D01*
X46261904Y-62166666D01*
X46166666Y-62166666D01*
X46071428Y-62214285D01*
X46023809Y-62261904D01*
X45976190Y-62357142D01*
X45928571Y-62547619D01*
X45880952Y-62642857D01*
X45833333Y-62690476D01*
X45738095Y-62738095D01*
X45642857Y-62738095D01*
X45547619Y-62690476D01*
X45500000Y-62642857D01*
X45452380Y-62547619D01*
X45452380Y-62309523D01*
X45500000Y-62166666D01*
X45785714Y-61309523D02*
X46452380Y-61309523D01*
X45404761Y-61547619D02*
X46119047Y-61785714D01*
X46119047Y-61166666D01*
X46452380Y-60261904D02*
X46452380Y-60833333D01*
X46452380Y-60547619D02*
X45452380Y-60547619D01*
X45595238Y-60642857D01*
X45690476Y-60738095D01*
X45738095Y-60833333D01*
G04 #@! TO.C,RS42*
X46452380Y-79119047D02*
X45976190Y-79452380D01*
X46452380Y-79690476D02*
X45452380Y-79690476D01*
X45452380Y-79309523D01*
X45500000Y-79214285D01*
X45547619Y-79166666D01*
X45642857Y-79119047D01*
X45785714Y-79119047D01*
X45880952Y-79166666D01*
X45928571Y-79214285D01*
X45976190Y-79309523D01*
X45976190Y-79690476D01*
X46404761Y-78738095D02*
X46452380Y-78595238D01*
X46452380Y-78357142D01*
X46404761Y-78261904D01*
X46357142Y-78214285D01*
X46261904Y-78166666D01*
X46166666Y-78166666D01*
X46071428Y-78214285D01*
X46023809Y-78261904D01*
X45976190Y-78357142D01*
X45928571Y-78547619D01*
X45880952Y-78642857D01*
X45833333Y-78690476D01*
X45738095Y-78738095D01*
X45642857Y-78738095D01*
X45547619Y-78690476D01*
X45500000Y-78642857D01*
X45452380Y-78547619D01*
X45452380Y-78309523D01*
X45500000Y-78166666D01*
X45785714Y-77309523D02*
X46452380Y-77309523D01*
X45404761Y-77547619D02*
X46119047Y-77785714D01*
X46119047Y-77166666D01*
X45547619Y-76833333D02*
X45500000Y-76785714D01*
X45452380Y-76690476D01*
X45452380Y-76452380D01*
X45500000Y-76357142D01*
X45547619Y-76309523D01*
X45642857Y-76261904D01*
X45738095Y-76261904D01*
X45880952Y-76309523D01*
X46452380Y-76880952D01*
X46452380Y-76261904D01*
G04 #@! TO.C,RS43*
X46452380Y-95119047D02*
X45976190Y-95452380D01*
X46452380Y-95690476D02*
X45452380Y-95690476D01*
X45452380Y-95309523D01*
X45500000Y-95214285D01*
X45547619Y-95166666D01*
X45642857Y-95119047D01*
X45785714Y-95119047D01*
X45880952Y-95166666D01*
X45928571Y-95214285D01*
X45976190Y-95309523D01*
X45976190Y-95690476D01*
X46404761Y-94738095D02*
X46452380Y-94595238D01*
X46452380Y-94357142D01*
X46404761Y-94261904D01*
X46357142Y-94214285D01*
X46261904Y-94166666D01*
X46166666Y-94166666D01*
X46071428Y-94214285D01*
X46023809Y-94261904D01*
X45976190Y-94357142D01*
X45928571Y-94547619D01*
X45880952Y-94642857D01*
X45833333Y-94690476D01*
X45738095Y-94738095D01*
X45642857Y-94738095D01*
X45547619Y-94690476D01*
X45500000Y-94642857D01*
X45452380Y-94547619D01*
X45452380Y-94309523D01*
X45500000Y-94166666D01*
X45785714Y-93309523D02*
X46452380Y-93309523D01*
X45404761Y-93547619D02*
X46119047Y-93785714D01*
X46119047Y-93166666D01*
X45452380Y-92880952D02*
X45452380Y-92261904D01*
X45833333Y-92595238D01*
X45833333Y-92452380D01*
X45880952Y-92357142D01*
X45928571Y-92309523D01*
X46023809Y-92261904D01*
X46261904Y-92261904D01*
X46357142Y-92309523D01*
X46404761Y-92357142D01*
X46452380Y-92452380D01*
X46452380Y-92738095D01*
X46404761Y-92833333D01*
X46357142Y-92880952D01*
G04 #@! TO.C,RS44*
X46452380Y-111119047D02*
X45976190Y-111452380D01*
X46452380Y-111690476D02*
X45452380Y-111690476D01*
X45452380Y-111309523D01*
X45500000Y-111214285D01*
X45547619Y-111166666D01*
X45642857Y-111119047D01*
X45785714Y-111119047D01*
X45880952Y-111166666D01*
X45928571Y-111214285D01*
X45976190Y-111309523D01*
X45976190Y-111690476D01*
X46404761Y-110738095D02*
X46452380Y-110595238D01*
X46452380Y-110357142D01*
X46404761Y-110261904D01*
X46357142Y-110214285D01*
X46261904Y-110166666D01*
X46166666Y-110166666D01*
X46071428Y-110214285D01*
X46023809Y-110261904D01*
X45976190Y-110357142D01*
X45928571Y-110547619D01*
X45880952Y-110642857D01*
X45833333Y-110690476D01*
X45738095Y-110738095D01*
X45642857Y-110738095D01*
X45547619Y-110690476D01*
X45500000Y-110642857D01*
X45452380Y-110547619D01*
X45452380Y-110309523D01*
X45500000Y-110166666D01*
X45785714Y-109309523D02*
X46452380Y-109309523D01*
X45404761Y-109547619D02*
X46119047Y-109785714D01*
X46119047Y-109166666D01*
X45785714Y-108357142D02*
X46452380Y-108357142D01*
X45404761Y-108595238D02*
X46119047Y-108833333D01*
X46119047Y-108214285D01*
G04 #@! TO.C,RS45*
X46452380Y-127119047D02*
X45976190Y-127452380D01*
X46452380Y-127690476D02*
X45452380Y-127690476D01*
X45452380Y-127309523D01*
X45500000Y-127214285D01*
X45547619Y-127166666D01*
X45642857Y-127119047D01*
X45785714Y-127119047D01*
X45880952Y-127166666D01*
X45928571Y-127214285D01*
X45976190Y-127309523D01*
X45976190Y-127690476D01*
X46404761Y-126738095D02*
X46452380Y-126595238D01*
X46452380Y-126357142D01*
X46404761Y-126261904D01*
X46357142Y-126214285D01*
X46261904Y-126166666D01*
X46166666Y-126166666D01*
X46071428Y-126214285D01*
X46023809Y-126261904D01*
X45976190Y-126357142D01*
X45928571Y-126547619D01*
X45880952Y-126642857D01*
X45833333Y-126690476D01*
X45738095Y-126738095D01*
X45642857Y-126738095D01*
X45547619Y-126690476D01*
X45500000Y-126642857D01*
X45452380Y-126547619D01*
X45452380Y-126309523D01*
X45500000Y-126166666D01*
X45785714Y-125309523D02*
X46452380Y-125309523D01*
X45404761Y-125547619D02*
X46119047Y-125785714D01*
X46119047Y-125166666D01*
X45452380Y-124309523D02*
X45452380Y-124785714D01*
X45928571Y-124833333D01*
X45880952Y-124785714D01*
X45833333Y-124690476D01*
X45833333Y-124452380D01*
X45880952Y-124357142D01*
X45928571Y-124309523D01*
X46023809Y-124261904D01*
X46261904Y-124261904D01*
X46357142Y-124309523D01*
X46404761Y-124357142D01*
X46452380Y-124452380D01*
X46452380Y-124690476D01*
X46404761Y-124785714D01*
X46357142Y-124833333D01*
G04 #@! TO.C,RS46*
X46452380Y-143119047D02*
X45976190Y-143452380D01*
X46452380Y-143690476D02*
X45452380Y-143690476D01*
X45452380Y-143309523D01*
X45500000Y-143214285D01*
X45547619Y-143166666D01*
X45642857Y-143119047D01*
X45785714Y-143119047D01*
X45880952Y-143166666D01*
X45928571Y-143214285D01*
X45976190Y-143309523D01*
X45976190Y-143690476D01*
X46404761Y-142738095D02*
X46452380Y-142595238D01*
X46452380Y-142357142D01*
X46404761Y-142261904D01*
X46357142Y-142214285D01*
X46261904Y-142166666D01*
X46166666Y-142166666D01*
X46071428Y-142214285D01*
X46023809Y-142261904D01*
X45976190Y-142357142D01*
X45928571Y-142547619D01*
X45880952Y-142642857D01*
X45833333Y-142690476D01*
X45738095Y-142738095D01*
X45642857Y-142738095D01*
X45547619Y-142690476D01*
X45500000Y-142642857D01*
X45452380Y-142547619D01*
X45452380Y-142309523D01*
X45500000Y-142166666D01*
X45785714Y-141309523D02*
X46452380Y-141309523D01*
X45404761Y-141547619D02*
X46119047Y-141785714D01*
X46119047Y-141166666D01*
X45452380Y-140357142D02*
X45452380Y-140547619D01*
X45500000Y-140642857D01*
X45547619Y-140690476D01*
X45690476Y-140785714D01*
X45880952Y-140833333D01*
X46261904Y-140833333D01*
X46357142Y-140785714D01*
X46404761Y-140738095D01*
X46452380Y-140642857D01*
X46452380Y-140452380D01*
X46404761Y-140357142D01*
X46357142Y-140309523D01*
X46261904Y-140261904D01*
X46023809Y-140261904D01*
X45928571Y-140309523D01*
X45880952Y-140357142D01*
X45833333Y-140452380D01*
X45833333Y-140642857D01*
X45880952Y-140738095D01*
X45928571Y-140785714D01*
X46023809Y-140833333D01*
G04 #@! TO.C,SW40*
X39190476Y-42404761D02*
X39333333Y-42452380D01*
X39571428Y-42452380D01*
X39666666Y-42404761D01*
X39714285Y-42357142D01*
X39761904Y-42261904D01*
X39761904Y-42166666D01*
X39714285Y-42071428D01*
X39666666Y-42023809D01*
X39571428Y-41976190D01*
X39380952Y-41928571D01*
X39285714Y-41880952D01*
X39238095Y-41833333D01*
X39190476Y-41738095D01*
X39190476Y-41642857D01*
X39238095Y-41547619D01*
X39285714Y-41500000D01*
X39380952Y-41452380D01*
X39619047Y-41452380D01*
X39761904Y-41500000D01*
X40095238Y-41452380D02*
X40333333Y-42452380D01*
X40523809Y-41738095D01*
X40714285Y-42452380D01*
X40952380Y-41452380D01*
X41761904Y-41785714D02*
X41761904Y-42452380D01*
X41523809Y-41404761D02*
X41285714Y-42119047D01*
X41904761Y-42119047D01*
X42476190Y-41452380D02*
X42571428Y-41452380D01*
X42666666Y-41500000D01*
X42714285Y-41547619D01*
X42761904Y-41642857D01*
X42809523Y-41833333D01*
X42809523Y-42071428D01*
X42761904Y-42261904D01*
X42714285Y-42357142D01*
X42666666Y-42404761D01*
X42571428Y-42452380D01*
X42476190Y-42452380D01*
X42380952Y-42404761D01*
X42333333Y-42357142D01*
X42285714Y-42261904D01*
X42238095Y-42071428D01*
X42238095Y-41833333D01*
X42285714Y-41642857D01*
X42333333Y-41547619D01*
X42380952Y-41500000D01*
X42476190Y-41452380D01*
G04 #@! TO.C,SW41*
X39190476Y-58404761D02*
X39333333Y-58452380D01*
X39571428Y-58452380D01*
X39666666Y-58404761D01*
X39714285Y-58357142D01*
X39761904Y-58261904D01*
X39761904Y-58166666D01*
X39714285Y-58071428D01*
X39666666Y-58023809D01*
X39571428Y-57976190D01*
X39380952Y-57928571D01*
X39285714Y-57880952D01*
X39238095Y-57833333D01*
X39190476Y-57738095D01*
X39190476Y-57642857D01*
X39238095Y-57547619D01*
X39285714Y-57500000D01*
X39380952Y-57452380D01*
X39619047Y-57452380D01*
X39761904Y-57500000D01*
X40095238Y-57452380D02*
X40333333Y-58452380D01*
X40523809Y-57738095D01*
X40714285Y-58452380D01*
X40952380Y-57452380D01*
X41761904Y-57785714D02*
X41761904Y-58452380D01*
X41523809Y-57404761D02*
X41285714Y-58119047D01*
X41904761Y-58119047D01*
X42809523Y-58452380D02*
X42238095Y-58452380D01*
X42523809Y-58452380D02*
X42523809Y-57452380D01*
X42428571Y-57595238D01*
X42333333Y-57690476D01*
X42238095Y-57738095D01*
G04 #@! TO.C,SW42*
X39190476Y-74404761D02*
X39333333Y-74452380D01*
X39571428Y-74452380D01*
X39666666Y-74404761D01*
X39714285Y-74357142D01*
X39761904Y-74261904D01*
X39761904Y-74166666D01*
X39714285Y-74071428D01*
X39666666Y-74023809D01*
X39571428Y-73976190D01*
X39380952Y-73928571D01*
X39285714Y-73880952D01*
X39238095Y-73833333D01*
X39190476Y-73738095D01*
X39190476Y-73642857D01*
X39238095Y-73547619D01*
X39285714Y-73500000D01*
X39380952Y-73452380D01*
X39619047Y-73452380D01*
X39761904Y-73500000D01*
X40095238Y-73452380D02*
X40333333Y-74452380D01*
X40523809Y-73738095D01*
X40714285Y-74452380D01*
X40952380Y-73452380D01*
X41761904Y-73785714D02*
X41761904Y-74452380D01*
X41523809Y-73404761D02*
X41285714Y-74119047D01*
X41904761Y-74119047D01*
X42238095Y-73547619D02*
X42285714Y-73500000D01*
X42380952Y-73452380D01*
X42619047Y-73452380D01*
X42714285Y-73500000D01*
X42761904Y-73547619D01*
X42809523Y-73642857D01*
X42809523Y-73738095D01*
X42761904Y-73880952D01*
X42190476Y-74452380D01*
X42809523Y-74452380D01*
G04 #@! TO.C,SW43*
X39190476Y-90404761D02*
X39333333Y-90452380D01*
X39571428Y-90452380D01*
X39666666Y-90404761D01*
X39714285Y-90357142D01*
X39761904Y-90261904D01*
X39761904Y-90166666D01*
X39714285Y-90071428D01*
X39666666Y-90023809D01*
X39571428Y-89976190D01*
X39380952Y-89928571D01*
X39285714Y-89880952D01*
X39238095Y-89833333D01*
X39190476Y-89738095D01*
X39190476Y-89642857D01*
X39238095Y-89547619D01*
X39285714Y-89500000D01*
X39380952Y-89452380D01*
X39619047Y-89452380D01*
X39761904Y-89500000D01*
X40095238Y-89452380D02*
X40333333Y-90452380D01*
X40523809Y-89738095D01*
X40714285Y-90452380D01*
X40952380Y-89452380D01*
X41761904Y-89785714D02*
X41761904Y-90452380D01*
X41523809Y-89404761D02*
X41285714Y-90119047D01*
X41904761Y-90119047D01*
X42190476Y-89452380D02*
X42809523Y-89452380D01*
X42476190Y-89833333D01*
X42619047Y-89833333D01*
X42714285Y-89880952D01*
X42761904Y-89928571D01*
X42809523Y-90023809D01*
X42809523Y-90261904D01*
X42761904Y-90357142D01*
X42714285Y-90404761D01*
X42619047Y-90452380D01*
X42333333Y-90452380D01*
X42238095Y-90404761D01*
X42190476Y-90357142D01*
G04 #@! TO.C,SW44*
X39190476Y-106404761D02*
X39333333Y-106452380D01*
X39571428Y-106452380D01*
X39666666Y-106404761D01*
X39714285Y-106357142D01*
X39761904Y-106261904D01*
X39761904Y-106166666D01*
X39714285Y-106071428D01*
X39666666Y-106023809D01*
X39571428Y-105976190D01*
X39380952Y-105928571D01*
X39285714Y-105880952D01*
X39238095Y-105833333D01*
X39190476Y-105738095D01*
X39190476Y-105642857D01*
X39238095Y-105547619D01*
X39285714Y-105500000D01*
X39380952Y-105452380D01*
X39619047Y-105452380D01*
X39761904Y-105500000D01*
X40095238Y-105452380D02*
X40333333Y-106452380D01*
X40523809Y-105738095D01*
X40714285Y-106452380D01*
X40952380Y-105452380D01*
X41761904Y-105785714D02*
X41761904Y-106452380D01*
X41523809Y-105404761D02*
X41285714Y-106119047D01*
X41904761Y-106119047D01*
X42714285Y-105785714D02*
X42714285Y-106452380D01*
X42476190Y-105404761D02*
X42238095Y-106119047D01*
X42857142Y-106119047D01*
G04 #@! TO.C,SW45*
X39190476Y-122404761D02*
X39333333Y-122452380D01*
X39571428Y-122452380D01*
X39666666Y-122404761D01*
X39714285Y-122357142D01*
X39761904Y-122261904D01*
X39761904Y-122166666D01*
X39714285Y-122071428D01*
X39666666Y-122023809D01*
X39571428Y-121976190D01*
X39380952Y-121928571D01*
X39285714Y-121880952D01*
X39238095Y-121833333D01*
X39190476Y-121738095D01*
X39190476Y-121642857D01*
X39238095Y-121547619D01*
X39285714Y-121500000D01*
X39380952Y-121452380D01*
X39619047Y-121452380D01*
X39761904Y-121500000D01*
X40095238Y-121452380D02*
X40333333Y-122452380D01*
X40523809Y-121738095D01*
X40714285Y-122452380D01*
X40952380Y-121452380D01*
X41761904Y-121785714D02*
X41761904Y-122452380D01*
X41523809Y-121404761D02*
X41285714Y-122119047D01*
X41904761Y-122119047D01*
X42761904Y-121452380D02*
X42285714Y-121452380D01*
X42238095Y-121928571D01*
X42285714Y-121880952D01*
X42380952Y-121833333D01*
X42619047Y-121833333D01*
X42714285Y-121880952D01*
X42761904Y-121928571D01*
X42809523Y-122023809D01*
X42809523Y-122261904D01*
X42761904Y-122357142D01*
X42714285Y-122404761D01*
X42619047Y-122452380D01*
X42380952Y-122452380D01*
X42285714Y-122404761D01*
X42238095Y-122357142D01*
G04 #@! TO.C,SW46*
X39190476Y-138404761D02*
X39333333Y-138452380D01*
X39571428Y-138452380D01*
X39666666Y-138404761D01*
X39714285Y-138357142D01*
X39761904Y-138261904D01*
X39761904Y-138166666D01*
X39714285Y-138071428D01*
X39666666Y-138023809D01*
X39571428Y-137976190D01*
X39380952Y-137928571D01*
X39285714Y-137880952D01*
X39238095Y-137833333D01*
X39190476Y-137738095D01*
X39190476Y-137642857D01*
X39238095Y-137547619D01*
X39285714Y-137500000D01*
X39380952Y-137452380D01*
X39619047Y-137452380D01*
X39761904Y-137500000D01*
X40095238Y-137452380D02*
X40333333Y-138452380D01*
X40523809Y-137738095D01*
X40714285Y-138452380D01*
X40952380Y-137452380D01*
X41761904Y-137785714D02*
X41761904Y-138452380D01*
X41523809Y-137404761D02*
X41285714Y-138119047D01*
X41904761Y-138119047D01*
X42714285Y-137452380D02*
X42523809Y-137452380D01*
X42428571Y-137500000D01*
X42380952Y-137547619D01*
X42285714Y-137690476D01*
X42238095Y-137880952D01*
X42238095Y-138261904D01*
X42285714Y-138357142D01*
X42333333Y-138404761D01*
X42428571Y-138452380D01*
X42619047Y-138452380D01*
X42714285Y-138404761D01*
X42761904Y-138357142D01*
X42809523Y-138261904D01*
X42809523Y-138023809D01*
X42761904Y-137928571D01*
X42714285Y-137880952D01*
X42619047Y-137833333D01*
X42428571Y-137833333D01*
X42333333Y-137880952D01*
X42285714Y-137928571D01*
X42238095Y-138023809D01*
G04 #@! TO.C,TH30*
X67938095Y-109322380D02*
X68509523Y-109322380D01*
X68223809Y-110322380D02*
X68223809Y-109322380D01*
X68842857Y-110322380D02*
X68842857Y-109322380D01*
X68842857Y-109798571D02*
X69414285Y-109798571D01*
X69414285Y-110322380D02*
X69414285Y-109322380D01*
X69795238Y-109322380D02*
X70414285Y-109322380D01*
X70080952Y-109703333D01*
X70223809Y-109703333D01*
X70319047Y-109750952D01*
X70366666Y-109798571D01*
X70414285Y-109893809D01*
X70414285Y-110131904D01*
X70366666Y-110227142D01*
X70319047Y-110274761D01*
X70223809Y-110322380D01*
X69938095Y-110322380D01*
X69842857Y-110274761D01*
X69795238Y-110227142D01*
X71033333Y-109322380D02*
X71128571Y-109322380D01*
X71223809Y-109370000D01*
X71271428Y-109417619D01*
X71319047Y-109512857D01*
X71366666Y-109703333D01*
X71366666Y-109941428D01*
X71319047Y-110131904D01*
X71271428Y-110227142D01*
X71223809Y-110274761D01*
X71128571Y-110322380D01*
X71033333Y-110322380D01*
X70938095Y-110274761D01*
X70890476Y-110227142D01*
X70842857Y-110131904D01*
X70795238Y-109941428D01*
X70795238Y-109703333D01*
X70842857Y-109512857D01*
X70890476Y-109417619D01*
X70938095Y-109370000D01*
X71033333Y-109322380D01*
G04 #@! TO.C,U00*
X73461904Y-146952380D02*
X73461904Y-147761904D01*
X73509523Y-147857142D01*
X73557142Y-147904761D01*
X73652380Y-147952380D01*
X73842857Y-147952380D01*
X73938095Y-147904761D01*
X73985714Y-147857142D01*
X74033333Y-147761904D01*
X74033333Y-146952380D01*
X74700000Y-146952380D02*
X74795238Y-146952380D01*
X74890476Y-147000000D01*
X74938095Y-147047619D01*
X74985714Y-147142857D01*
X75033333Y-147333333D01*
X75033333Y-147571428D01*
X74985714Y-147761904D01*
X74938095Y-147857142D01*
X74890476Y-147904761D01*
X74795238Y-147952380D01*
X74700000Y-147952380D01*
X74604761Y-147904761D01*
X74557142Y-147857142D01*
X74509523Y-147761904D01*
X74461904Y-147571428D01*
X74461904Y-147333333D01*
X74509523Y-147142857D01*
X74557142Y-147047619D01*
X74604761Y-147000000D01*
X74700000Y-146952380D01*
X75652380Y-146952380D02*
X75747619Y-146952380D01*
X75842857Y-147000000D01*
X75890476Y-147047619D01*
X75938095Y-147142857D01*
X75985714Y-147333333D01*
X75985714Y-147571428D01*
X75938095Y-147761904D01*
X75890476Y-147857142D01*
X75842857Y-147904761D01*
X75747619Y-147952380D01*
X75652380Y-147952380D01*
X75557142Y-147904761D01*
X75509523Y-147857142D01*
X75461904Y-147761904D01*
X75414285Y-147571428D01*
X75414285Y-147333333D01*
X75461904Y-147142857D01*
X75509523Y-147047619D01*
X75557142Y-147000000D01*
X75652380Y-146952380D01*
G04 #@! TO.C,U10*
X104852380Y-130238095D02*
X105661904Y-130238095D01*
X105757142Y-130190476D01*
X105804761Y-130142857D01*
X105852380Y-130047619D01*
X105852380Y-129857142D01*
X105804761Y-129761904D01*
X105757142Y-129714285D01*
X105661904Y-129666666D01*
X104852380Y-129666666D01*
X105852380Y-128666666D02*
X105852380Y-129238095D01*
X105852380Y-128952380D02*
X104852380Y-128952380D01*
X104995238Y-129047619D01*
X105090476Y-129142857D01*
X105138095Y-129238095D01*
X104852380Y-128047619D02*
X104852380Y-127952380D01*
X104900000Y-127857142D01*
X104947619Y-127809523D01*
X105042857Y-127761904D01*
X105233333Y-127714285D01*
X105471428Y-127714285D01*
X105661904Y-127761904D01*
X105757142Y-127809523D01*
X105804761Y-127857142D01*
X105852380Y-127952380D01*
X105852380Y-128047619D01*
X105804761Y-128142857D01*
X105757142Y-128190476D01*
X105661904Y-128238095D01*
X105471428Y-128285714D01*
X105233333Y-128285714D01*
X105042857Y-128238095D01*
X104947619Y-128190476D01*
X104900000Y-128142857D01*
X104852380Y-128047619D01*
G04 #@! TO.C,U40*
X72937619Y-125691904D02*
X72128095Y-125691904D01*
X72032857Y-125739523D01*
X71985238Y-125787142D01*
X71937619Y-125882380D01*
X71937619Y-126072857D01*
X71985238Y-126168095D01*
X72032857Y-126215714D01*
X72128095Y-126263333D01*
X72937619Y-126263333D01*
X72604285Y-127168095D02*
X71937619Y-127168095D01*
X72985238Y-126930000D02*
X72270952Y-126691904D01*
X72270952Y-127310952D01*
X72937619Y-127882380D02*
X72937619Y-127977619D01*
X72890000Y-128072857D01*
X72842380Y-128120476D01*
X72747142Y-128168095D01*
X72556666Y-128215714D01*
X72318571Y-128215714D01*
X72128095Y-128168095D01*
X72032857Y-128120476D01*
X71985238Y-128072857D01*
X71937619Y-127977619D01*
X71937619Y-127882380D01*
X71985238Y-127787142D01*
X72032857Y-127739523D01*
X72128095Y-127691904D01*
X72318571Y-127644285D01*
X72556666Y-127644285D01*
X72747142Y-127691904D01*
X72842380Y-127739523D01*
X72890000Y-127787142D01*
X72937619Y-127882380D01*
G04 #@! TO.C,SW10*
X95190476Y-110404761D02*
X95333333Y-110452380D01*
X95571428Y-110452380D01*
X95666666Y-110404761D01*
X95714285Y-110357142D01*
X95761904Y-110261904D01*
X95761904Y-110166666D01*
X95714285Y-110071428D01*
X95666666Y-110023809D01*
X95571428Y-109976190D01*
X95380952Y-109928571D01*
X95285714Y-109880952D01*
X95238095Y-109833333D01*
X95190476Y-109738095D01*
X95190476Y-109642857D01*
X95238095Y-109547619D01*
X95285714Y-109500000D01*
X95380952Y-109452380D01*
X95619047Y-109452380D01*
X95761904Y-109500000D01*
X96095238Y-109452380D02*
X96333333Y-110452380D01*
X96523809Y-109738095D01*
X96714285Y-110452380D01*
X96952380Y-109452380D01*
X97857142Y-110452380D02*
X97285714Y-110452380D01*
X97571428Y-110452380D02*
X97571428Y-109452380D01*
X97476190Y-109595238D01*
X97380952Y-109690476D01*
X97285714Y-109738095D01*
X98476190Y-109452380D02*
X98571428Y-109452380D01*
X98666666Y-109500000D01*
X98714285Y-109547619D01*
X98761904Y-109642857D01*
X98809523Y-109833333D01*
X98809523Y-110071428D01*
X98761904Y-110261904D01*
X98714285Y-110357142D01*
X98666666Y-110404761D01*
X98571428Y-110452380D01*
X98476190Y-110452380D01*
X98380952Y-110404761D01*
X98333333Y-110357142D01*
X98285714Y-110261904D01*
X98238095Y-110071428D01*
X98238095Y-109833333D01*
X98285714Y-109642857D01*
X98333333Y-109547619D01*
X98380952Y-109500000D01*
X98476190Y-109452380D01*
G04 #@! TO.C,SW11*
X101190476Y-110404761D02*
X101333333Y-110452380D01*
X101571428Y-110452380D01*
X101666666Y-110404761D01*
X101714285Y-110357142D01*
X101761904Y-110261904D01*
X101761904Y-110166666D01*
X101714285Y-110071428D01*
X101666666Y-110023809D01*
X101571428Y-109976190D01*
X101380952Y-109928571D01*
X101285714Y-109880952D01*
X101238095Y-109833333D01*
X101190476Y-109738095D01*
X101190476Y-109642857D01*
X101238095Y-109547619D01*
X101285714Y-109500000D01*
X101380952Y-109452380D01*
X101619047Y-109452380D01*
X101761904Y-109500000D01*
X102095238Y-109452380D02*
X102333333Y-110452380D01*
X102523809Y-109738095D01*
X102714285Y-110452380D01*
X102952380Y-109452380D01*
X103857142Y-110452380D02*
X103285714Y-110452380D01*
X103571428Y-110452380D02*
X103571428Y-109452380D01*
X103476190Y-109595238D01*
X103380952Y-109690476D01*
X103285714Y-109738095D01*
X104809523Y-110452380D02*
X104238095Y-110452380D01*
X104523809Y-110452380D02*
X104523809Y-109452380D01*
X104428571Y-109595238D01*
X104333333Y-109690476D01*
X104238095Y-109738095D01*
G04 #@! TO.C,D10*
X91785714Y-136052380D02*
X91785714Y-135052380D01*
X92023809Y-135052380D01*
X92166666Y-135100000D01*
X92261904Y-135195238D01*
X92309523Y-135290476D01*
X92357142Y-135480952D01*
X92357142Y-135623809D01*
X92309523Y-135814285D01*
X92261904Y-135909523D01*
X92166666Y-136004761D01*
X92023809Y-136052380D01*
X91785714Y-136052380D01*
X93309523Y-136052380D02*
X92738095Y-136052380D01*
X93023809Y-136052380D02*
X93023809Y-135052380D01*
X92928571Y-135195238D01*
X92833333Y-135290476D01*
X92738095Y-135338095D01*
X93928571Y-135052380D02*
X94023809Y-135052380D01*
X94119047Y-135100000D01*
X94166666Y-135147619D01*
X94214285Y-135242857D01*
X94261904Y-135433333D01*
X94261904Y-135671428D01*
X94214285Y-135861904D01*
X94166666Y-135957142D01*
X94119047Y-136004761D01*
X94023809Y-136052380D01*
X93928571Y-136052380D01*
X93833333Y-136004761D01*
X93785714Y-135957142D01*
X93738095Y-135861904D01*
X93690476Y-135671428D01*
X93690476Y-135433333D01*
X93738095Y-135242857D01*
X93785714Y-135147619D01*
X93833333Y-135100000D01*
X93928571Y-135052380D01*
G04 #@! TO.C,L30*
X49952380Y-142742857D02*
X49952380Y-143219047D01*
X48952380Y-143219047D01*
X48952380Y-142504761D02*
X48952380Y-141885714D01*
X49333333Y-142219047D01*
X49333333Y-142076190D01*
X49380952Y-141980952D01*
X49428571Y-141933333D01*
X49523809Y-141885714D01*
X49761904Y-141885714D01*
X49857142Y-141933333D01*
X49904761Y-141980952D01*
X49952380Y-142076190D01*
X49952380Y-142361904D01*
X49904761Y-142457142D01*
X49857142Y-142504761D01*
X48952380Y-141266666D02*
X48952380Y-141171428D01*
X49000000Y-141076190D01*
X49047619Y-141028571D01*
X49142857Y-140980952D01*
X49333333Y-140933333D01*
X49571428Y-140933333D01*
X49761904Y-140980952D01*
X49857142Y-141028571D01*
X49904761Y-141076190D01*
X49952380Y-141171428D01*
X49952380Y-141266666D01*
X49904761Y-141361904D01*
X49857142Y-141409523D01*
X49761904Y-141457142D01*
X49571428Y-141504761D01*
X49333333Y-141504761D01*
X49142857Y-141457142D01*
X49047619Y-141409523D01*
X49000000Y-141361904D01*
X48952380Y-141266666D01*
G04 #@! TO.C,U30*
X60161904Y-145852380D02*
X60161904Y-146661904D01*
X60209523Y-146757142D01*
X60257142Y-146804761D01*
X60352380Y-146852380D01*
X60542857Y-146852380D01*
X60638095Y-146804761D01*
X60685714Y-146757142D01*
X60733333Y-146661904D01*
X60733333Y-145852380D01*
X61114285Y-145852380D02*
X61733333Y-145852380D01*
X61400000Y-146233333D01*
X61542857Y-146233333D01*
X61638095Y-146280952D01*
X61685714Y-146328571D01*
X61733333Y-146423809D01*
X61733333Y-146661904D01*
X61685714Y-146757142D01*
X61638095Y-146804761D01*
X61542857Y-146852380D01*
X61257142Y-146852380D01*
X61161904Y-146804761D01*
X61114285Y-146757142D01*
X62352380Y-145852380D02*
X62447619Y-145852380D01*
X62542857Y-145900000D01*
X62590476Y-145947619D01*
X62638095Y-146042857D01*
X62685714Y-146233333D01*
X62685714Y-146471428D01*
X62638095Y-146661904D01*
X62590476Y-146757142D01*
X62542857Y-146804761D01*
X62447619Y-146852380D01*
X62352380Y-146852380D01*
X62257142Y-146804761D01*
X62209523Y-146757142D01*
X62161904Y-146661904D01*
X62114285Y-146471428D01*
X62114285Y-146233333D01*
X62161904Y-146042857D01*
X62209523Y-145947619D01*
X62257142Y-145900000D01*
X62352380Y-145852380D01*
G04 #@! TO.C,C24*
X88307142Y-145642857D02*
X88354761Y-145690476D01*
X88402380Y-145833333D01*
X88402380Y-145928571D01*
X88354761Y-146071428D01*
X88259523Y-146166666D01*
X88164285Y-146214285D01*
X87973809Y-146261904D01*
X87830952Y-146261904D01*
X87640476Y-146214285D01*
X87545238Y-146166666D01*
X87450000Y-146071428D01*
X87402380Y-145928571D01*
X87402380Y-145833333D01*
X87450000Y-145690476D01*
X87497619Y-145642857D01*
X87497619Y-145261904D02*
X87450000Y-145214285D01*
X87402380Y-145119047D01*
X87402380Y-144880952D01*
X87450000Y-144785714D01*
X87497619Y-144738095D01*
X87592857Y-144690476D01*
X87688095Y-144690476D01*
X87830952Y-144738095D01*
X88402380Y-145309523D01*
X88402380Y-144690476D01*
X87735714Y-143833333D02*
X88402380Y-143833333D01*
X87354761Y-144071428D02*
X88069047Y-144309523D01*
X88069047Y-143690476D01*
G04 #@! TO.C,U20*
X97752380Y-147238095D02*
X98561904Y-147238095D01*
X98657142Y-147190476D01*
X98704761Y-147142857D01*
X98752380Y-147047619D01*
X98752380Y-146857142D01*
X98704761Y-146761904D01*
X98657142Y-146714285D01*
X98561904Y-146666666D01*
X97752380Y-146666666D01*
X97847619Y-146238095D02*
X97800000Y-146190476D01*
X97752380Y-146095238D01*
X97752380Y-145857142D01*
X97800000Y-145761904D01*
X97847619Y-145714285D01*
X97942857Y-145666666D01*
X98038095Y-145666666D01*
X98180952Y-145714285D01*
X98752380Y-146285714D01*
X98752380Y-145666666D01*
X97752380Y-145047619D02*
X97752380Y-144952380D01*
X97800000Y-144857142D01*
X97847619Y-144809523D01*
X97942857Y-144761904D01*
X98133333Y-144714285D01*
X98371428Y-144714285D01*
X98561904Y-144761904D01*
X98657142Y-144809523D01*
X98704761Y-144857142D01*
X98752380Y-144952380D01*
X98752380Y-145047619D01*
X98704761Y-145142857D01*
X98657142Y-145190476D01*
X98561904Y-145238095D01*
X98371428Y-145285714D01*
X98133333Y-145285714D01*
X97942857Y-145238095D01*
X97847619Y-145190476D01*
X97800000Y-145142857D01*
X97752380Y-145047619D01*
G04 #@! TO.C,C32*
X61757142Y-135342857D02*
X61804761Y-135390476D01*
X61852380Y-135533333D01*
X61852380Y-135628571D01*
X61804761Y-135771428D01*
X61709523Y-135866666D01*
X61614285Y-135914285D01*
X61423809Y-135961904D01*
X61280952Y-135961904D01*
X61090476Y-135914285D01*
X60995238Y-135866666D01*
X60900000Y-135771428D01*
X60852380Y-135628571D01*
X60852380Y-135533333D01*
X60900000Y-135390476D01*
X60947619Y-135342857D01*
X60852380Y-135009523D02*
X60852380Y-134390476D01*
X61233333Y-134723809D01*
X61233333Y-134580952D01*
X61280952Y-134485714D01*
X61328571Y-134438095D01*
X61423809Y-134390476D01*
X61661904Y-134390476D01*
X61757142Y-134438095D01*
X61804761Y-134485714D01*
X61852380Y-134580952D01*
X61852380Y-134866666D01*
X61804761Y-134961904D01*
X61757142Y-135009523D01*
X60947619Y-134009523D02*
X60900000Y-133961904D01*
X60852380Y-133866666D01*
X60852380Y-133628571D01*
X60900000Y-133533333D01*
X60947619Y-133485714D01*
X61042857Y-133438095D01*
X61138095Y-133438095D01*
X61280952Y-133485714D01*
X61852380Y-134057142D01*
X61852380Y-133438095D01*
G04 #@! TD*
M02*
