G04 #@! TF.GenerationSoftware,KiCad,Pcbnew,(5.0.1-3-g963ef8bb5)*
G04 #@! TF.CreationDate,2021-04-06T11:18:42+02:00*
G04 #@! TF.ProjectId,foodSampler_v20,666F6F6453616D706C65725F7632302E,rev?*
G04 #@! TF.SameCoordinates,Original*
G04 #@! TF.FileFunction,Soldermask,Bot*
G04 #@! TF.FilePolarity,Negative*
%FSLAX46Y46*%
G04 Gerber Fmt 4.6, Leading zero omitted, Abs format (unit mm)*
G04 Created by KiCad (PCBNEW (5.0.1-3-g963ef8bb5)) date 2021 April 06, Tuesday 11:18:42*
%MOMM*%
%LPD*%
G01*
G04 APERTURE LIST*
%ADD10C,0.100000*%
G04 APERTURE END LIST*
D10*
G36*
X61838015Y-156706973D02*
X61941879Y-156738479D01*
X62037600Y-156789644D01*
X62121501Y-156858499D01*
X62190356Y-156942400D01*
X62241521Y-157038121D01*
X62273027Y-157141985D01*
X62281000Y-157222933D01*
X62281000Y-157877067D01*
X62273027Y-157958015D01*
X62241521Y-158061879D01*
X62190356Y-158157600D01*
X62121501Y-158241501D01*
X62037600Y-158310356D01*
X61941878Y-158361521D01*
X61838014Y-158393027D01*
X61730000Y-158403666D01*
X61621985Y-158393027D01*
X61518121Y-158361521D01*
X61422400Y-158310356D01*
X61338499Y-158241501D01*
X61269644Y-158157600D01*
X61218479Y-158061878D01*
X61186973Y-157958014D01*
X61179000Y-157877066D01*
X61179000Y-157222933D01*
X61186973Y-157141985D01*
X61218480Y-157038121D01*
X61269645Y-156942400D01*
X61338500Y-156858499D01*
X61422401Y-156789644D01*
X61518122Y-156738479D01*
X61621986Y-156706973D01*
X61730000Y-156696334D01*
X61838015Y-156706973D01*
X61838015Y-156706973D01*
G37*
G36*
X70378015Y-156706973D02*
X70481879Y-156738479D01*
X70577600Y-156789644D01*
X70661501Y-156858499D01*
X70730356Y-156942400D01*
X70781521Y-157038121D01*
X70813027Y-157141985D01*
X70821000Y-157222933D01*
X70821000Y-157877067D01*
X70813027Y-157958015D01*
X70781521Y-158061879D01*
X70730356Y-158157600D01*
X70661501Y-158241501D01*
X70577600Y-158310356D01*
X70481878Y-158361521D01*
X70378014Y-158393027D01*
X70270000Y-158403666D01*
X70161985Y-158393027D01*
X70058121Y-158361521D01*
X69962400Y-158310356D01*
X69878499Y-158241501D01*
X69809644Y-158157600D01*
X69758479Y-158061878D01*
X69726973Y-157958014D01*
X69719000Y-157877066D01*
X69719000Y-157222933D01*
X69726973Y-157141985D01*
X69758480Y-157038121D01*
X69809645Y-156942400D01*
X69878500Y-156858499D01*
X69962401Y-156789644D01*
X70058122Y-156738479D01*
X70161986Y-156706973D01*
X70270000Y-156696334D01*
X70378015Y-156706973D01*
X70378015Y-156706973D01*
G37*
G36*
X102375256Y-153391298D02*
X102481579Y-153412447D01*
X102611775Y-153466376D01*
X102754866Y-153525646D01*
X102782042Y-153536903D01*
X102923646Y-153631520D01*
X103052454Y-153717587D01*
X103282413Y-153947546D01*
X103282415Y-153947549D01*
X103463097Y-154217958D01*
X103587553Y-154518421D01*
X103590577Y-154533624D01*
X103651000Y-154837389D01*
X103651000Y-155162611D01*
X103612585Y-155355733D01*
X103587553Y-155481579D01*
X103463097Y-155782042D01*
X103433201Y-155826784D01*
X103282413Y-156052454D01*
X103052454Y-156282413D01*
X103052451Y-156282415D01*
X102782042Y-156463097D01*
X102481579Y-156587553D01*
X102375256Y-156608702D01*
X102162611Y-156651000D01*
X101837389Y-156651000D01*
X101624744Y-156608702D01*
X101518421Y-156587553D01*
X101217958Y-156463097D01*
X100947549Y-156282415D01*
X100947546Y-156282413D01*
X100717587Y-156052454D01*
X100566799Y-155826784D01*
X100536903Y-155782042D01*
X100412447Y-155481579D01*
X100387415Y-155355733D01*
X100349000Y-155162611D01*
X100349000Y-154837389D01*
X100409423Y-154533624D01*
X100412447Y-154518421D01*
X100536903Y-154217958D01*
X100717585Y-153947549D01*
X100717587Y-153947546D01*
X100947546Y-153717587D01*
X101076354Y-153631520D01*
X101217958Y-153536903D01*
X101245135Y-153525646D01*
X101388225Y-153466376D01*
X101518421Y-153412447D01*
X101624744Y-153391298D01*
X101837389Y-153349000D01*
X102162611Y-153349000D01*
X102375256Y-153391298D01*
X102375256Y-153391298D01*
G37*
G36*
X30375256Y-153391298D02*
X30481579Y-153412447D01*
X30611775Y-153466376D01*
X30754866Y-153525646D01*
X30782042Y-153536903D01*
X30923646Y-153631520D01*
X31052454Y-153717587D01*
X31282413Y-153947546D01*
X31282415Y-153947549D01*
X31463097Y-154217958D01*
X31587553Y-154518421D01*
X31590577Y-154533624D01*
X31651000Y-154837389D01*
X31651000Y-155162611D01*
X31612585Y-155355733D01*
X31587553Y-155481579D01*
X31463097Y-155782042D01*
X31433201Y-155826784D01*
X31282413Y-156052454D01*
X31052454Y-156282413D01*
X31052451Y-156282415D01*
X30782042Y-156463097D01*
X30481579Y-156587553D01*
X30375256Y-156608702D01*
X30162611Y-156651000D01*
X29837389Y-156651000D01*
X29624744Y-156608702D01*
X29518421Y-156587553D01*
X29217958Y-156463097D01*
X28947549Y-156282415D01*
X28947546Y-156282413D01*
X28717587Y-156052454D01*
X28566799Y-155826784D01*
X28536903Y-155782042D01*
X28412447Y-155481579D01*
X28387415Y-155355733D01*
X28349000Y-155162611D01*
X28349000Y-154837389D01*
X28409423Y-154533624D01*
X28412447Y-154518421D01*
X28536903Y-154217958D01*
X28717585Y-153947549D01*
X28717587Y-153947546D01*
X28947546Y-153717587D01*
X29076354Y-153631520D01*
X29217958Y-153536903D01*
X29245135Y-153525646D01*
X29388225Y-153466376D01*
X29518421Y-153412447D01*
X29624744Y-153391298D01*
X29837389Y-153349000D01*
X30162611Y-153349000D01*
X30375256Y-153391298D01*
X30375256Y-153391298D01*
G37*
G36*
X184375256Y-153391298D02*
X184481579Y-153412447D01*
X184611775Y-153466376D01*
X184754866Y-153525646D01*
X184782042Y-153536903D01*
X184923646Y-153631520D01*
X185052454Y-153717587D01*
X185282413Y-153947546D01*
X185282415Y-153947549D01*
X185463097Y-154217958D01*
X185587553Y-154518421D01*
X185590577Y-154533624D01*
X185651000Y-154837389D01*
X185651000Y-155162611D01*
X185612585Y-155355733D01*
X185587553Y-155481579D01*
X185463097Y-155782042D01*
X185433201Y-155826784D01*
X185282413Y-156052454D01*
X185052454Y-156282413D01*
X185052451Y-156282415D01*
X184782042Y-156463097D01*
X184481579Y-156587553D01*
X184375256Y-156608702D01*
X184162611Y-156651000D01*
X183837389Y-156651000D01*
X183624744Y-156608702D01*
X183518421Y-156587553D01*
X183217958Y-156463097D01*
X182947549Y-156282415D01*
X182947546Y-156282413D01*
X182717587Y-156052454D01*
X182566799Y-155826784D01*
X182536903Y-155782042D01*
X182412447Y-155481579D01*
X182387415Y-155355733D01*
X182349000Y-155162611D01*
X182349000Y-154837389D01*
X182409423Y-154533624D01*
X182412447Y-154518421D01*
X182536903Y-154217958D01*
X182717585Y-153947549D01*
X182717587Y-153947546D01*
X182947546Y-153717587D01*
X183076354Y-153631520D01*
X183217958Y-153536903D01*
X183245135Y-153525646D01*
X183388225Y-153466376D01*
X183518421Y-153412447D01*
X183624744Y-153391298D01*
X183837389Y-153349000D01*
X184162611Y-153349000D01*
X184375256Y-153391298D01*
X184375256Y-153391298D01*
G37*
G36*
X112375256Y-153391298D02*
X112481579Y-153412447D01*
X112611775Y-153466376D01*
X112754866Y-153525646D01*
X112782042Y-153536903D01*
X112923646Y-153631520D01*
X113052454Y-153717587D01*
X113282413Y-153947546D01*
X113282415Y-153947549D01*
X113463097Y-154217958D01*
X113587553Y-154518421D01*
X113590577Y-154533624D01*
X113651000Y-154837389D01*
X113651000Y-155162611D01*
X113612585Y-155355733D01*
X113587553Y-155481579D01*
X113463097Y-155782042D01*
X113433201Y-155826784D01*
X113282413Y-156052454D01*
X113052454Y-156282413D01*
X113052451Y-156282415D01*
X112782042Y-156463097D01*
X112481579Y-156587553D01*
X112375256Y-156608702D01*
X112162611Y-156651000D01*
X111837389Y-156651000D01*
X111624744Y-156608702D01*
X111518421Y-156587553D01*
X111217958Y-156463097D01*
X110947549Y-156282415D01*
X110947546Y-156282413D01*
X110717587Y-156052454D01*
X110566799Y-155826784D01*
X110536903Y-155782042D01*
X110412447Y-155481579D01*
X110387415Y-155355733D01*
X110349000Y-155162611D01*
X110349000Y-154837389D01*
X110409423Y-154533624D01*
X110412447Y-154518421D01*
X110536903Y-154217958D01*
X110717585Y-153947549D01*
X110717587Y-153947546D01*
X110947546Y-153717587D01*
X111076354Y-153631520D01*
X111217958Y-153536903D01*
X111245135Y-153525646D01*
X111388225Y-153466376D01*
X111518421Y-153412447D01*
X111624744Y-153391298D01*
X111837389Y-153349000D01*
X112162611Y-153349000D01*
X112375256Y-153391298D01*
X112375256Y-153391298D01*
G37*
G36*
X36462812Y-154533624D02*
X36626784Y-154601544D01*
X36774354Y-154700147D01*
X36899853Y-154825646D01*
X36998456Y-154973216D01*
X37066376Y-155137188D01*
X37101000Y-155311259D01*
X37101000Y-155488741D01*
X37066376Y-155662812D01*
X36998456Y-155826784D01*
X36899853Y-155974354D01*
X36774354Y-156099853D01*
X36626784Y-156198456D01*
X36462812Y-156266376D01*
X36288741Y-156301000D01*
X36111259Y-156301000D01*
X35937188Y-156266376D01*
X35773216Y-156198456D01*
X35625646Y-156099853D01*
X35500147Y-155974354D01*
X35401544Y-155826784D01*
X35333624Y-155662812D01*
X35299000Y-155488741D01*
X35299000Y-155311259D01*
X35333624Y-155137188D01*
X35401544Y-154973216D01*
X35500147Y-154825646D01*
X35625646Y-154700147D01*
X35773216Y-154601544D01*
X35937188Y-154533624D01*
X36111259Y-154499000D01*
X36288741Y-154499000D01*
X36462812Y-154533624D01*
X36462812Y-154533624D01*
G37*
G36*
X88132004Y-154260544D02*
X88219059Y-154277860D01*
X88355732Y-154334472D01*
X88477079Y-154415554D01*
X88478738Y-154416662D01*
X88583338Y-154521262D01*
X88583340Y-154521265D01*
X88665528Y-154644268D01*
X88722140Y-154780941D01*
X88751000Y-154926033D01*
X88751000Y-155073967D01*
X88722140Y-155219059D01*
X88665528Y-155355732D01*
X88665527Y-155355733D01*
X88583338Y-155478738D01*
X88478738Y-155583338D01*
X88478735Y-155583340D01*
X88355732Y-155665528D01*
X88219059Y-155722140D01*
X88132004Y-155739456D01*
X88073969Y-155751000D01*
X87926031Y-155751000D01*
X87867996Y-155739456D01*
X87780941Y-155722140D01*
X87644268Y-155665528D01*
X87521265Y-155583340D01*
X87521262Y-155583338D01*
X87416662Y-155478738D01*
X87334473Y-155355733D01*
X87334472Y-155355732D01*
X87277860Y-155219059D01*
X87249000Y-155073967D01*
X87249000Y-154926033D01*
X87277860Y-154780941D01*
X87334472Y-154644268D01*
X87416660Y-154521265D01*
X87416662Y-154521262D01*
X87521262Y-154416662D01*
X87522921Y-154415554D01*
X87644268Y-154334472D01*
X87780941Y-154277860D01*
X87867996Y-154260544D01*
X87926031Y-154249000D01*
X88073969Y-154249000D01*
X88132004Y-154260544D01*
X88132004Y-154260544D01*
G37*
G36*
X86132004Y-154260544D02*
X86219059Y-154277860D01*
X86355732Y-154334472D01*
X86477079Y-154415554D01*
X86478738Y-154416662D01*
X86583338Y-154521262D01*
X86583340Y-154521265D01*
X86665528Y-154644268D01*
X86722140Y-154780941D01*
X86751000Y-154926033D01*
X86751000Y-155073967D01*
X86722140Y-155219059D01*
X86665528Y-155355732D01*
X86665527Y-155355733D01*
X86583338Y-155478738D01*
X86478738Y-155583338D01*
X86478735Y-155583340D01*
X86355732Y-155665528D01*
X86219059Y-155722140D01*
X86132004Y-155739456D01*
X86073969Y-155751000D01*
X85926031Y-155751000D01*
X85867996Y-155739456D01*
X85780941Y-155722140D01*
X85644268Y-155665528D01*
X85521265Y-155583340D01*
X85521262Y-155583338D01*
X85416662Y-155478738D01*
X85334473Y-155355733D01*
X85334472Y-155355732D01*
X85277860Y-155219059D01*
X85249000Y-155073967D01*
X85249000Y-154926033D01*
X85277860Y-154780941D01*
X85334472Y-154644268D01*
X85416660Y-154521265D01*
X85416662Y-154521262D01*
X85521262Y-154416662D01*
X85522921Y-154415554D01*
X85644268Y-154334472D01*
X85780941Y-154277860D01*
X85867996Y-154260544D01*
X85926031Y-154249000D01*
X86073969Y-154249000D01*
X86132004Y-154260544D01*
X86132004Y-154260544D01*
G37*
G36*
X84132004Y-154260544D02*
X84219059Y-154277860D01*
X84355732Y-154334472D01*
X84477079Y-154415554D01*
X84478738Y-154416662D01*
X84583338Y-154521262D01*
X84583340Y-154521265D01*
X84665528Y-154644268D01*
X84722140Y-154780941D01*
X84751000Y-154926033D01*
X84751000Y-155073967D01*
X84722140Y-155219059D01*
X84665528Y-155355732D01*
X84665527Y-155355733D01*
X84583338Y-155478738D01*
X84478738Y-155583338D01*
X84478735Y-155583340D01*
X84355732Y-155665528D01*
X84219059Y-155722140D01*
X84132004Y-155739456D01*
X84073969Y-155751000D01*
X83926031Y-155751000D01*
X83867996Y-155739456D01*
X83780941Y-155722140D01*
X83644268Y-155665528D01*
X83521265Y-155583340D01*
X83521262Y-155583338D01*
X83416662Y-155478738D01*
X83334473Y-155355733D01*
X83334472Y-155355732D01*
X83277860Y-155219059D01*
X83249000Y-155073967D01*
X83249000Y-154926033D01*
X83277860Y-154780941D01*
X83334472Y-154644268D01*
X83416660Y-154521265D01*
X83416662Y-154521262D01*
X83521262Y-154416662D01*
X83522921Y-154415554D01*
X83644268Y-154334472D01*
X83780941Y-154277860D01*
X83867996Y-154260544D01*
X83926031Y-154249000D01*
X84073969Y-154249000D01*
X84132004Y-154260544D01*
X84132004Y-154260544D01*
G37*
G36*
X51430316Y-152845153D02*
X51430318Y-152845154D01*
X51430319Y-152845154D01*
X51472949Y-152862812D01*
X51648888Y-152935688D01*
X51747576Y-153001629D01*
X51845593Y-153067122D01*
X52012878Y-153234407D01*
X52056605Y-153299850D01*
X52144312Y-153431112D01*
X52234847Y-153649684D01*
X52281000Y-153881710D01*
X52281000Y-154118290D01*
X52234847Y-154350316D01*
X52144312Y-154568888D01*
X52093945Y-154644267D01*
X52012878Y-154765593D01*
X51845593Y-154932878D01*
X51747576Y-154998371D01*
X51648888Y-155064312D01*
X51511056Y-155121403D01*
X51430319Y-155154846D01*
X51430318Y-155154846D01*
X51430316Y-155154847D01*
X51198290Y-155201000D01*
X50961710Y-155201000D01*
X50729684Y-155154847D01*
X50729682Y-155154846D01*
X50729681Y-155154846D01*
X50648944Y-155121403D01*
X50511112Y-155064312D01*
X50412424Y-154998371D01*
X50314407Y-154932878D01*
X50147122Y-154765593D01*
X50066055Y-154644267D01*
X50015688Y-154568888D01*
X49925153Y-154350316D01*
X49879000Y-154118290D01*
X49879000Y-153881710D01*
X49925153Y-153649684D01*
X50015688Y-153431112D01*
X50103395Y-153299850D01*
X50147122Y-153234407D01*
X50314407Y-153067122D01*
X50412424Y-153001629D01*
X50511112Y-152935688D01*
X50687051Y-152862812D01*
X50729681Y-152845154D01*
X50729682Y-152845154D01*
X50729684Y-152845153D01*
X50961710Y-152799000D01*
X51198290Y-152799000D01*
X51430316Y-152845153D01*
X51430316Y-152845153D01*
G37*
G36*
X46350316Y-152845153D02*
X46350318Y-152845154D01*
X46350319Y-152845154D01*
X46392949Y-152862812D01*
X46568888Y-152935688D01*
X46667576Y-153001629D01*
X46765593Y-153067122D01*
X46932878Y-153234407D01*
X46976605Y-153299850D01*
X47064312Y-153431112D01*
X47154847Y-153649684D01*
X47201000Y-153881710D01*
X47201000Y-154118290D01*
X47154847Y-154350316D01*
X47064312Y-154568888D01*
X47013945Y-154644267D01*
X46932878Y-154765593D01*
X46765593Y-154932878D01*
X46667576Y-154998371D01*
X46568888Y-155064312D01*
X46431056Y-155121403D01*
X46350319Y-155154846D01*
X46350318Y-155154846D01*
X46350316Y-155154847D01*
X46118290Y-155201000D01*
X45881710Y-155201000D01*
X45649684Y-155154847D01*
X45649682Y-155154846D01*
X45649681Y-155154846D01*
X45568944Y-155121403D01*
X45431112Y-155064312D01*
X45332424Y-154998371D01*
X45234407Y-154932878D01*
X45067122Y-154765593D01*
X44986055Y-154644267D01*
X44935688Y-154568888D01*
X44845153Y-154350316D01*
X44799000Y-154118290D01*
X44799000Y-153881710D01*
X44845153Y-153649684D01*
X44935688Y-153431112D01*
X45023395Y-153299850D01*
X45067122Y-153234407D01*
X45234407Y-153067122D01*
X45332424Y-153001629D01*
X45431112Y-152935688D01*
X45607051Y-152862812D01*
X45649681Y-152845154D01*
X45649682Y-152845154D01*
X45649684Y-152845153D01*
X45881710Y-152799000D01*
X46118290Y-152799000D01*
X46350316Y-152845153D01*
X46350316Y-152845153D01*
G37*
G36*
X41270316Y-152845153D02*
X41270318Y-152845154D01*
X41270319Y-152845154D01*
X41312949Y-152862812D01*
X41488888Y-152935688D01*
X41587576Y-153001629D01*
X41685593Y-153067122D01*
X41852878Y-153234407D01*
X41896605Y-153299850D01*
X41984312Y-153431112D01*
X42074847Y-153649684D01*
X42121000Y-153881710D01*
X42121000Y-154118290D01*
X42074847Y-154350316D01*
X41984312Y-154568888D01*
X41933945Y-154644267D01*
X41852878Y-154765593D01*
X41685593Y-154932878D01*
X41587576Y-154998371D01*
X41488888Y-155064312D01*
X41351056Y-155121403D01*
X41270319Y-155154846D01*
X41270318Y-155154846D01*
X41270316Y-155154847D01*
X41038290Y-155201000D01*
X40801710Y-155201000D01*
X40569684Y-155154847D01*
X40569682Y-155154846D01*
X40569681Y-155154846D01*
X40488944Y-155121403D01*
X40351112Y-155064312D01*
X40252424Y-154998371D01*
X40154407Y-154932878D01*
X39987122Y-154765593D01*
X39906055Y-154644267D01*
X39855688Y-154568888D01*
X39765153Y-154350316D01*
X39719000Y-154118290D01*
X39719000Y-153881710D01*
X39765153Y-153649684D01*
X39855688Y-153431112D01*
X39943395Y-153299850D01*
X39987122Y-153234407D01*
X40154407Y-153067122D01*
X40252424Y-153001629D01*
X40351112Y-152935688D01*
X40527051Y-152862812D01*
X40569681Y-152845154D01*
X40569682Y-152845154D01*
X40569684Y-152845153D01*
X40801710Y-152799000D01*
X41038290Y-152799000D01*
X41270316Y-152845153D01*
X41270316Y-152845153D01*
G37*
G36*
X56562812Y-153233624D02*
X56726784Y-153301544D01*
X56874354Y-153400147D01*
X56999853Y-153525646D01*
X57098456Y-153673216D01*
X57166376Y-153837188D01*
X57201000Y-154011259D01*
X57201000Y-154188741D01*
X57166376Y-154362812D01*
X57098456Y-154526784D01*
X56999853Y-154674354D01*
X56874354Y-154799853D01*
X56726784Y-154898456D01*
X56562812Y-154966376D01*
X56388741Y-155001000D01*
X56211259Y-155001000D01*
X56037188Y-154966376D01*
X55873216Y-154898456D01*
X55725646Y-154799853D01*
X55600147Y-154674354D01*
X55501544Y-154526784D01*
X55433624Y-154362812D01*
X55399000Y-154188741D01*
X55399000Y-154011259D01*
X55433624Y-153837188D01*
X55501544Y-153673216D01*
X55600147Y-153525646D01*
X55725646Y-153400147D01*
X55873216Y-153301544D01*
X56037188Y-153233624D01*
X56211259Y-153199000D01*
X56388741Y-153199000D01*
X56562812Y-153233624D01*
X56562812Y-153233624D01*
G37*
G36*
X61838015Y-151976973D02*
X61941879Y-152008479D01*
X62037600Y-152059644D01*
X62121501Y-152128499D01*
X62190356Y-152212400D01*
X62241521Y-152308121D01*
X62273027Y-152411985D01*
X62281000Y-152492933D01*
X62281000Y-153147067D01*
X62273027Y-153228015D01*
X62241521Y-153331879D01*
X62190356Y-153427600D01*
X62121501Y-153511501D01*
X62037600Y-153580356D01*
X61941878Y-153631521D01*
X61838014Y-153663027D01*
X61730000Y-153673666D01*
X61621985Y-153663027D01*
X61518121Y-153631521D01*
X61422400Y-153580356D01*
X61338499Y-153511501D01*
X61269644Y-153427600D01*
X61218479Y-153331878D01*
X61186973Y-153228014D01*
X61179000Y-153147066D01*
X61179000Y-152492933D01*
X61186973Y-152411985D01*
X61218480Y-152308121D01*
X61269645Y-152212400D01*
X61338500Y-152128499D01*
X61422401Y-152059644D01*
X61518122Y-152008479D01*
X61621986Y-151976973D01*
X61730000Y-151966334D01*
X61838015Y-151976973D01*
X61838015Y-151976973D01*
G37*
G36*
X70378015Y-151976973D02*
X70481879Y-152008479D01*
X70577600Y-152059644D01*
X70661501Y-152128499D01*
X70730356Y-152212400D01*
X70781521Y-152308121D01*
X70813027Y-152411985D01*
X70821000Y-152492933D01*
X70821000Y-153147067D01*
X70813027Y-153228015D01*
X70781521Y-153331879D01*
X70730356Y-153427600D01*
X70661501Y-153511501D01*
X70577600Y-153580356D01*
X70481878Y-153631521D01*
X70378014Y-153663027D01*
X70270000Y-153673666D01*
X70161985Y-153663027D01*
X70058121Y-153631521D01*
X69962400Y-153580356D01*
X69878499Y-153511501D01*
X69809644Y-153427600D01*
X69758479Y-153331878D01*
X69726973Y-153228014D01*
X69719000Y-153147066D01*
X69719000Y-152492933D01*
X69726973Y-152411985D01*
X69758480Y-152308121D01*
X69809645Y-152212400D01*
X69878500Y-152128499D01*
X69962401Y-152059644D01*
X70058122Y-152008479D01*
X70161986Y-151976973D01*
X70270000Y-151966334D01*
X70378015Y-151976973D01*
X70378015Y-151976973D01*
G37*
G36*
X77862812Y-151733624D02*
X78026784Y-151801544D01*
X78174354Y-151900147D01*
X78299853Y-152025646D01*
X78398456Y-152173216D01*
X78466376Y-152337188D01*
X78501000Y-152511259D01*
X78501000Y-152688741D01*
X78466376Y-152862812D01*
X78398456Y-153026784D01*
X78299853Y-153174354D01*
X78174354Y-153299853D01*
X78026784Y-153398456D01*
X77862812Y-153466376D01*
X77688741Y-153501000D01*
X77511259Y-153501000D01*
X77337188Y-153466376D01*
X77173216Y-153398456D01*
X77025646Y-153299853D01*
X76900147Y-153174354D01*
X76801544Y-153026784D01*
X76733624Y-152862812D01*
X76699000Y-152688741D01*
X76699000Y-152511259D01*
X76733624Y-152337188D01*
X76801544Y-152173216D01*
X76900147Y-152025646D01*
X77025646Y-151900147D01*
X77173216Y-151801544D01*
X77337188Y-151733624D01*
X77511259Y-151699000D01*
X77688741Y-151699000D01*
X77862812Y-151733624D01*
X77862812Y-151733624D01*
G37*
G36*
X68815090Y-151279934D02*
X68836701Y-151291485D01*
X68860150Y-151298598D01*
X68909672Y-151308449D01*
X68909674Y-151308450D01*
X68909675Y-151308450D01*
X68978103Y-151336793D01*
X69039409Y-151377757D01*
X69039689Y-151377944D01*
X69092056Y-151430311D01*
X69092057Y-151430313D01*
X69092058Y-151430314D01*
X69133207Y-151491897D01*
X69161550Y-151560325D01*
X69161551Y-151560328D01*
X69176000Y-151632966D01*
X69176000Y-151707034D01*
X69170711Y-151733625D01*
X69161550Y-151779675D01*
X69133207Y-151848103D01*
X69098432Y-151900147D01*
X69092056Y-151909689D01*
X69039689Y-151962056D01*
X69039686Y-151962058D01*
X68978103Y-152003207D01*
X68923936Y-152025643D01*
X68909673Y-152031551D01*
X68880857Y-152037283D01*
X68857408Y-152044396D01*
X68835798Y-152055947D01*
X68816855Y-152071493D01*
X68801310Y-152090435D01*
X68789759Y-152112046D01*
X68782646Y-152135495D01*
X68780244Y-152159881D01*
X68782646Y-152184268D01*
X68789757Y-152207711D01*
X68811550Y-152260325D01*
X68826000Y-152332967D01*
X68826000Y-152407033D01*
X68811550Y-152479675D01*
X68783207Y-152548103D01*
X68746066Y-152603687D01*
X68742056Y-152609689D01*
X68689689Y-152662056D01*
X68689686Y-152662058D01*
X68628103Y-152703207D01*
X68559675Y-152731550D01*
X68559674Y-152731550D01*
X68559672Y-152731551D01*
X68487034Y-152746000D01*
X68412966Y-152746000D01*
X68340328Y-152731551D01*
X68340326Y-152731550D01*
X68340325Y-152731550D01*
X68271897Y-152703207D01*
X68210314Y-152662058D01*
X68210311Y-152662056D01*
X68157942Y-152609687D01*
X68153933Y-152603687D01*
X68138388Y-152584745D01*
X68119446Y-152569200D01*
X68097835Y-152557649D01*
X68074386Y-152550536D01*
X68049999Y-152548134D01*
X68025613Y-152550536D01*
X68002164Y-152557649D01*
X67980553Y-152569201D01*
X67961611Y-152584746D01*
X67946067Y-152603687D01*
X67942058Y-152609687D01*
X67889689Y-152662056D01*
X67889686Y-152662058D01*
X67828103Y-152703207D01*
X67759675Y-152731550D01*
X67759674Y-152731550D01*
X67759672Y-152731551D01*
X67687034Y-152746000D01*
X67612966Y-152746000D01*
X67540328Y-152731551D01*
X67540326Y-152731550D01*
X67540325Y-152731550D01*
X67471897Y-152703207D01*
X67410314Y-152662058D01*
X67410311Y-152662056D01*
X67357944Y-152609689D01*
X67353934Y-152603687D01*
X67328930Y-152566267D01*
X67313389Y-152547330D01*
X67294447Y-152531785D01*
X67272836Y-152520233D01*
X67249387Y-152513120D01*
X67225001Y-152510718D01*
X67200614Y-152513120D01*
X67177165Y-152520233D01*
X67155554Y-152531784D01*
X67136612Y-152547329D01*
X67121070Y-152566267D01*
X67096066Y-152603687D01*
X67092056Y-152609689D01*
X67039689Y-152662056D01*
X67039686Y-152662058D01*
X66978103Y-152703207D01*
X66909675Y-152731550D01*
X66909674Y-152731550D01*
X66909672Y-152731551D01*
X66837034Y-152746000D01*
X66762966Y-152746000D01*
X66690328Y-152731551D01*
X66690326Y-152731550D01*
X66690325Y-152731550D01*
X66621897Y-152703207D01*
X66560314Y-152662058D01*
X66560311Y-152662056D01*
X66507944Y-152609689D01*
X66503934Y-152603687D01*
X66466793Y-152548103D01*
X66438450Y-152479675D01*
X66424000Y-152407033D01*
X66424000Y-152332967D01*
X66438450Y-152260325D01*
X66456436Y-152216902D01*
X66463548Y-152193456D01*
X66465950Y-152169069D01*
X66463548Y-152144683D01*
X66456435Y-152121234D01*
X66444884Y-152099623D01*
X66429339Y-152080681D01*
X66410397Y-152065135D01*
X66388786Y-152053584D01*
X66365336Y-152046471D01*
X66362968Y-152046000D01*
X66362967Y-152046000D01*
X66337115Y-152040858D01*
X66290328Y-152031551D01*
X66290326Y-152031550D01*
X66290325Y-152031550D01*
X66221897Y-152003207D01*
X66160314Y-151962058D01*
X66160311Y-151962056D01*
X66107942Y-151909687D01*
X66103933Y-151903687D01*
X66088388Y-151884745D01*
X66069446Y-151869200D01*
X66047835Y-151857649D01*
X66024386Y-151850536D01*
X65999999Y-151848134D01*
X65975613Y-151850536D01*
X65952164Y-151857649D01*
X65930553Y-151869201D01*
X65911611Y-151884746D01*
X65896067Y-151903687D01*
X65892058Y-151909687D01*
X65839689Y-151962056D01*
X65839686Y-151962058D01*
X65778103Y-152003207D01*
X65709675Y-152031550D01*
X65709674Y-152031550D01*
X65709672Y-152031551D01*
X65662885Y-152040858D01*
X65637033Y-152046000D01*
X65637032Y-152046000D01*
X65634664Y-152046471D01*
X65611215Y-152053584D01*
X65589604Y-152065135D01*
X65570662Y-152080680D01*
X65555117Y-152099622D01*
X65543565Y-152121233D01*
X65536452Y-152144682D01*
X65534050Y-152169068D01*
X65536452Y-152193455D01*
X65543564Y-152216902D01*
X65561550Y-152260325D01*
X65576000Y-152332967D01*
X65576000Y-152407033D01*
X65561550Y-152479675D01*
X65533207Y-152548103D01*
X65496066Y-152603687D01*
X65492056Y-152609689D01*
X65439689Y-152662056D01*
X65439686Y-152662058D01*
X65378103Y-152703207D01*
X65309675Y-152731550D01*
X65309674Y-152731550D01*
X65309672Y-152731551D01*
X65237034Y-152746000D01*
X65162966Y-152746000D01*
X65090328Y-152731551D01*
X65090326Y-152731550D01*
X65090325Y-152731550D01*
X65021897Y-152703207D01*
X64960314Y-152662058D01*
X64960311Y-152662056D01*
X64907942Y-152609687D01*
X64903933Y-152603687D01*
X64888388Y-152584745D01*
X64869446Y-152569200D01*
X64847835Y-152557649D01*
X64824386Y-152550536D01*
X64799999Y-152548134D01*
X64775613Y-152550536D01*
X64752164Y-152557649D01*
X64730553Y-152569201D01*
X64711611Y-152584746D01*
X64696067Y-152603687D01*
X64692058Y-152609687D01*
X64639689Y-152662056D01*
X64639686Y-152662058D01*
X64578103Y-152703207D01*
X64509675Y-152731550D01*
X64509674Y-152731550D01*
X64509672Y-152731551D01*
X64437034Y-152746000D01*
X64362966Y-152746000D01*
X64290328Y-152731551D01*
X64290326Y-152731550D01*
X64290325Y-152731550D01*
X64221897Y-152703207D01*
X64160314Y-152662058D01*
X64160311Y-152662056D01*
X64107942Y-152609687D01*
X64103933Y-152603687D01*
X64088388Y-152584745D01*
X64069446Y-152569200D01*
X64047835Y-152557649D01*
X64024386Y-152550536D01*
X63999999Y-152548134D01*
X63975613Y-152550536D01*
X63952164Y-152557649D01*
X63930553Y-152569201D01*
X63911611Y-152584746D01*
X63896067Y-152603687D01*
X63892058Y-152609687D01*
X63839689Y-152662056D01*
X63839686Y-152662058D01*
X63778103Y-152703207D01*
X63709675Y-152731550D01*
X63709674Y-152731550D01*
X63709672Y-152731551D01*
X63637034Y-152746000D01*
X63562966Y-152746000D01*
X63490328Y-152731551D01*
X63490326Y-152731550D01*
X63490325Y-152731550D01*
X63421897Y-152703207D01*
X63360314Y-152662058D01*
X63360311Y-152662056D01*
X63307944Y-152609689D01*
X63303934Y-152603687D01*
X63266793Y-152548103D01*
X63238450Y-152479675D01*
X63224000Y-152407033D01*
X63224000Y-152332967D01*
X63238450Y-152260325D01*
X63256436Y-152216902D01*
X63263548Y-152193456D01*
X63265950Y-152169069D01*
X63263548Y-152144683D01*
X63256435Y-152121234D01*
X63244884Y-152099623D01*
X63229339Y-152080681D01*
X63210397Y-152065135D01*
X63188786Y-152053584D01*
X63165336Y-152046471D01*
X63162968Y-152046000D01*
X63162967Y-152046000D01*
X63137115Y-152040858D01*
X63090328Y-152031551D01*
X63090326Y-152031550D01*
X63090325Y-152031550D01*
X63021897Y-152003207D01*
X62960314Y-151962058D01*
X62960311Y-151962056D01*
X62907944Y-151909689D01*
X62901568Y-151900147D01*
X62866793Y-151848103D01*
X62838450Y-151779675D01*
X62829290Y-151733625D01*
X62824000Y-151707034D01*
X62824000Y-151632966D01*
X62838449Y-151560328D01*
X62838450Y-151560325D01*
X62866793Y-151491897D01*
X62907942Y-151430314D01*
X62907943Y-151430313D01*
X62907944Y-151430311D01*
X62960311Y-151377944D01*
X62960591Y-151377757D01*
X63021897Y-151336793D01*
X63090325Y-151308450D01*
X63090326Y-151308450D01*
X63090328Y-151308449D01*
X63139850Y-151298598D01*
X63163299Y-151291485D01*
X63184910Y-151279934D01*
X63200000Y-151267549D01*
X63215090Y-151279934D01*
X63236701Y-151291485D01*
X63260150Y-151298598D01*
X63309672Y-151308449D01*
X63309674Y-151308450D01*
X63309675Y-151308450D01*
X63378103Y-151336793D01*
X63439409Y-151377757D01*
X63439689Y-151377944D01*
X63492058Y-151430313D01*
X63496067Y-151436313D01*
X63511612Y-151455255D01*
X63530554Y-151470800D01*
X63552165Y-151482351D01*
X63575614Y-151489464D01*
X63600001Y-151491866D01*
X63624387Y-151489464D01*
X63647836Y-151482351D01*
X63669447Y-151470799D01*
X63688389Y-151455254D01*
X63703933Y-151436313D01*
X63707942Y-151430313D01*
X63760311Y-151377944D01*
X63760591Y-151377757D01*
X63821897Y-151336793D01*
X63890325Y-151308450D01*
X63890326Y-151308450D01*
X63890328Y-151308449D01*
X63939850Y-151298598D01*
X63963299Y-151291485D01*
X63984910Y-151279934D01*
X64000000Y-151267549D01*
X64015090Y-151279934D01*
X64036701Y-151291485D01*
X64060150Y-151298598D01*
X64109672Y-151308449D01*
X64109674Y-151308450D01*
X64109675Y-151308450D01*
X64178103Y-151336793D01*
X64239409Y-151377757D01*
X64239689Y-151377944D01*
X64292058Y-151430313D01*
X64296067Y-151436313D01*
X64311612Y-151455255D01*
X64330554Y-151470800D01*
X64352165Y-151482351D01*
X64375614Y-151489464D01*
X64400001Y-151491866D01*
X64424387Y-151489464D01*
X64447836Y-151482351D01*
X64469447Y-151470799D01*
X64488389Y-151455254D01*
X64503933Y-151436313D01*
X64507942Y-151430313D01*
X64560311Y-151377944D01*
X64560591Y-151377757D01*
X64621897Y-151336793D01*
X64690325Y-151308450D01*
X64690326Y-151308450D01*
X64690328Y-151308449D01*
X64739850Y-151298598D01*
X64763299Y-151291485D01*
X64784910Y-151279934D01*
X64800000Y-151267549D01*
X64815090Y-151279934D01*
X64836701Y-151291485D01*
X64860150Y-151298598D01*
X64909672Y-151308449D01*
X64909674Y-151308450D01*
X64909675Y-151308450D01*
X64978103Y-151336793D01*
X65039409Y-151377757D01*
X65039689Y-151377944D01*
X65092058Y-151430313D01*
X65096067Y-151436313D01*
X65111612Y-151455255D01*
X65130554Y-151470800D01*
X65152165Y-151482351D01*
X65175614Y-151489464D01*
X65200001Y-151491866D01*
X65224387Y-151489464D01*
X65247836Y-151482351D01*
X65269447Y-151470799D01*
X65288389Y-151455254D01*
X65303933Y-151436313D01*
X65307942Y-151430313D01*
X65360311Y-151377944D01*
X65360591Y-151377757D01*
X65421897Y-151336793D01*
X65490325Y-151308450D01*
X65490326Y-151308450D01*
X65490328Y-151308449D01*
X65539850Y-151298598D01*
X65563299Y-151291485D01*
X65584910Y-151279934D01*
X65600000Y-151267549D01*
X65615090Y-151279934D01*
X65636701Y-151291485D01*
X65660150Y-151298598D01*
X65709672Y-151308449D01*
X65709674Y-151308450D01*
X65709675Y-151308450D01*
X65778103Y-151336793D01*
X65839409Y-151377757D01*
X65839689Y-151377944D01*
X65892058Y-151430313D01*
X65896067Y-151436313D01*
X65911612Y-151455255D01*
X65930554Y-151470800D01*
X65952165Y-151482351D01*
X65975614Y-151489464D01*
X66000001Y-151491866D01*
X66024387Y-151489464D01*
X66047836Y-151482351D01*
X66069447Y-151470799D01*
X66088389Y-151455254D01*
X66103933Y-151436313D01*
X66107942Y-151430313D01*
X66160311Y-151377944D01*
X66160591Y-151377757D01*
X66221897Y-151336793D01*
X66290325Y-151308450D01*
X66290326Y-151308450D01*
X66290328Y-151308449D01*
X66339850Y-151298598D01*
X66363299Y-151291485D01*
X66384910Y-151279934D01*
X66400000Y-151267549D01*
X66415090Y-151279934D01*
X66436701Y-151291485D01*
X66460150Y-151298598D01*
X66509672Y-151308449D01*
X66509674Y-151308450D01*
X66509675Y-151308450D01*
X66578103Y-151336793D01*
X66639409Y-151377757D01*
X66639689Y-151377944D01*
X66692058Y-151430313D01*
X66696067Y-151436313D01*
X66711612Y-151455255D01*
X66730554Y-151470800D01*
X66752165Y-151482351D01*
X66775614Y-151489464D01*
X66800001Y-151491866D01*
X66824387Y-151489464D01*
X66847836Y-151482351D01*
X66869447Y-151470799D01*
X66888389Y-151455254D01*
X66903933Y-151436313D01*
X66907942Y-151430313D01*
X66960311Y-151377944D01*
X66960591Y-151377757D01*
X67021897Y-151336793D01*
X67090325Y-151308450D01*
X67090326Y-151308450D01*
X67090328Y-151308449D01*
X67139850Y-151298598D01*
X67163299Y-151291485D01*
X67184910Y-151279934D01*
X67200000Y-151267549D01*
X67215090Y-151279934D01*
X67236701Y-151291485D01*
X67260150Y-151298598D01*
X67309672Y-151308449D01*
X67309674Y-151308450D01*
X67309675Y-151308450D01*
X67378103Y-151336793D01*
X67439409Y-151377757D01*
X67439689Y-151377944D01*
X67492058Y-151430313D01*
X67496067Y-151436313D01*
X67511612Y-151455255D01*
X67530554Y-151470800D01*
X67552165Y-151482351D01*
X67575614Y-151489464D01*
X67600001Y-151491866D01*
X67624387Y-151489464D01*
X67647836Y-151482351D01*
X67669447Y-151470799D01*
X67688389Y-151455254D01*
X67703933Y-151436313D01*
X67707942Y-151430313D01*
X67760311Y-151377944D01*
X67760591Y-151377757D01*
X67821897Y-151336793D01*
X67890325Y-151308450D01*
X67890326Y-151308450D01*
X67890328Y-151308449D01*
X67939850Y-151298598D01*
X67963299Y-151291485D01*
X67984910Y-151279934D01*
X68000000Y-151267549D01*
X68015090Y-151279934D01*
X68036701Y-151291485D01*
X68060150Y-151298598D01*
X68109672Y-151308449D01*
X68109674Y-151308450D01*
X68109675Y-151308450D01*
X68178103Y-151336793D01*
X68239409Y-151377757D01*
X68239689Y-151377944D01*
X68292058Y-151430313D01*
X68296067Y-151436313D01*
X68311612Y-151455255D01*
X68330554Y-151470800D01*
X68352165Y-151482351D01*
X68375614Y-151489464D01*
X68400001Y-151491866D01*
X68424387Y-151489464D01*
X68447836Y-151482351D01*
X68469447Y-151470799D01*
X68488389Y-151455254D01*
X68503933Y-151436313D01*
X68507942Y-151430313D01*
X68560311Y-151377944D01*
X68560591Y-151377757D01*
X68621897Y-151336793D01*
X68690325Y-151308450D01*
X68690326Y-151308450D01*
X68690328Y-151308449D01*
X68739850Y-151298598D01*
X68763299Y-151291485D01*
X68784910Y-151279934D01*
X68800000Y-151267549D01*
X68815090Y-151279934D01*
X68815090Y-151279934D01*
G37*
G36*
X46584466Y-150403565D02*
X46623137Y-150415296D01*
X46658779Y-150434348D01*
X46690017Y-150459983D01*
X46715652Y-150491221D01*
X46734704Y-150526863D01*
X46746435Y-150565534D01*
X46751000Y-150611888D01*
X46751000Y-151263112D01*
X46746435Y-151309466D01*
X46734704Y-151348137D01*
X46715652Y-151383779D01*
X46690017Y-151415017D01*
X46658779Y-151440652D01*
X46623137Y-151459704D01*
X46584466Y-151471435D01*
X46538112Y-151476000D01*
X45461888Y-151476000D01*
X45415534Y-151471435D01*
X45376863Y-151459704D01*
X45341221Y-151440652D01*
X45309983Y-151415017D01*
X45284348Y-151383779D01*
X45265296Y-151348137D01*
X45253565Y-151309466D01*
X45249000Y-151263112D01*
X45249000Y-150611888D01*
X45253565Y-150565534D01*
X45265296Y-150526863D01*
X45284348Y-150491221D01*
X45309983Y-150459983D01*
X45341221Y-150434348D01*
X45376863Y-150415296D01*
X45415534Y-150403565D01*
X45461888Y-150399000D01*
X46538112Y-150399000D01*
X46584466Y-150403565D01*
X46584466Y-150403565D01*
G37*
G36*
X51684466Y-150403565D02*
X51723137Y-150415296D01*
X51758779Y-150434348D01*
X51790017Y-150459983D01*
X51815652Y-150491221D01*
X51834704Y-150526863D01*
X51846435Y-150565534D01*
X51851000Y-150611888D01*
X51851000Y-151263112D01*
X51846435Y-151309466D01*
X51834704Y-151348137D01*
X51815652Y-151383779D01*
X51790017Y-151415017D01*
X51758779Y-151440652D01*
X51723137Y-151459704D01*
X51684466Y-151471435D01*
X51638112Y-151476000D01*
X50561888Y-151476000D01*
X50515534Y-151471435D01*
X50476863Y-151459704D01*
X50441221Y-151440652D01*
X50409983Y-151415017D01*
X50384348Y-151383779D01*
X50365296Y-151348137D01*
X50353565Y-151309466D01*
X50349000Y-151263112D01*
X50349000Y-150611888D01*
X50353565Y-150565534D01*
X50365296Y-150526863D01*
X50384348Y-150491221D01*
X50409983Y-150459983D01*
X50441221Y-150434348D01*
X50476863Y-150415296D01*
X50515534Y-150403565D01*
X50561888Y-150399000D01*
X51638112Y-150399000D01*
X51684466Y-150403565D01*
X51684466Y-150403565D01*
G37*
G36*
X41484466Y-150403565D02*
X41523137Y-150415296D01*
X41558779Y-150434348D01*
X41590017Y-150459983D01*
X41615652Y-150491221D01*
X41634704Y-150526863D01*
X41646435Y-150565534D01*
X41651000Y-150611888D01*
X41651000Y-151263112D01*
X41646435Y-151309466D01*
X41634704Y-151348137D01*
X41615652Y-151383779D01*
X41590017Y-151415017D01*
X41558779Y-151440652D01*
X41523137Y-151459704D01*
X41484466Y-151471435D01*
X41438112Y-151476000D01*
X40361888Y-151476000D01*
X40315534Y-151471435D01*
X40276863Y-151459704D01*
X40241221Y-151440652D01*
X40209983Y-151415017D01*
X40184348Y-151383779D01*
X40165296Y-151348137D01*
X40153565Y-151309466D01*
X40149000Y-151263112D01*
X40149000Y-150611888D01*
X40153565Y-150565534D01*
X40165296Y-150526863D01*
X40184348Y-150491221D01*
X40209983Y-150459983D01*
X40241221Y-150434348D01*
X40276863Y-150415296D01*
X40315534Y-150403565D01*
X40361888Y-150399000D01*
X41438112Y-150399000D01*
X41484466Y-150403565D01*
X41484466Y-150403565D01*
G37*
G36*
X53979591Y-150303085D02*
X54013569Y-150313393D01*
X54044887Y-150330133D01*
X54072339Y-150352661D01*
X54094867Y-150380113D01*
X54111607Y-150411431D01*
X54121915Y-150445409D01*
X54126000Y-150486890D01*
X54126000Y-151088110D01*
X54121915Y-151129591D01*
X54111607Y-151163569D01*
X54094867Y-151194887D01*
X54072339Y-151222339D01*
X54044887Y-151244867D01*
X54013569Y-151261607D01*
X53979591Y-151271915D01*
X53938110Y-151276000D01*
X53261890Y-151276000D01*
X53220409Y-151271915D01*
X53186431Y-151261607D01*
X53155113Y-151244867D01*
X53127661Y-151222339D01*
X53105133Y-151194887D01*
X53088393Y-151163569D01*
X53078085Y-151129591D01*
X53074000Y-151088110D01*
X53074000Y-150486890D01*
X53078085Y-150445409D01*
X53088393Y-150411431D01*
X53105133Y-150380113D01*
X53127661Y-150352661D01*
X53155113Y-150330133D01*
X53186431Y-150313393D01*
X53220409Y-150303085D01*
X53261890Y-150299000D01*
X53938110Y-150299000D01*
X53979591Y-150303085D01*
X53979591Y-150303085D01*
G37*
G36*
X48879591Y-150303085D02*
X48913569Y-150313393D01*
X48944887Y-150330133D01*
X48972339Y-150352661D01*
X48994867Y-150380113D01*
X49011607Y-150411431D01*
X49021915Y-150445409D01*
X49026000Y-150486890D01*
X49026000Y-151088110D01*
X49021915Y-151129591D01*
X49011607Y-151163569D01*
X48994867Y-151194887D01*
X48972339Y-151222339D01*
X48944887Y-151244867D01*
X48913569Y-151261607D01*
X48879591Y-151271915D01*
X48838110Y-151276000D01*
X48161890Y-151276000D01*
X48120409Y-151271915D01*
X48086431Y-151261607D01*
X48055113Y-151244867D01*
X48027661Y-151222339D01*
X48005133Y-151194887D01*
X47988393Y-151163569D01*
X47978085Y-151129591D01*
X47974000Y-151088110D01*
X47974000Y-150486890D01*
X47978085Y-150445409D01*
X47988393Y-150411431D01*
X48005133Y-150380113D01*
X48027661Y-150352661D01*
X48055113Y-150330133D01*
X48086431Y-150313393D01*
X48120409Y-150303085D01*
X48161890Y-150299000D01*
X48838110Y-150299000D01*
X48879591Y-150303085D01*
X48879591Y-150303085D01*
G37*
G36*
X43879591Y-150303085D02*
X43913569Y-150313393D01*
X43944887Y-150330133D01*
X43972339Y-150352661D01*
X43994867Y-150380113D01*
X44011607Y-150411431D01*
X44021915Y-150445409D01*
X44026000Y-150486890D01*
X44026000Y-151088110D01*
X44021915Y-151129591D01*
X44011607Y-151163569D01*
X43994867Y-151194887D01*
X43972339Y-151222339D01*
X43944887Y-151244867D01*
X43913569Y-151261607D01*
X43879591Y-151271915D01*
X43838110Y-151276000D01*
X43161890Y-151276000D01*
X43120409Y-151271915D01*
X43086431Y-151261607D01*
X43055113Y-151244867D01*
X43027661Y-151222339D01*
X43005133Y-151194887D01*
X42988393Y-151163569D01*
X42978085Y-151129591D01*
X42974000Y-151088110D01*
X42974000Y-150486890D01*
X42978085Y-150445409D01*
X42988393Y-150411431D01*
X43005133Y-150380113D01*
X43027661Y-150352661D01*
X43055113Y-150330133D01*
X43086431Y-150313393D01*
X43120409Y-150303085D01*
X43161890Y-150299000D01*
X43838110Y-150299000D01*
X43879591Y-150303085D01*
X43879591Y-150303085D01*
G37*
G36*
X68951000Y-151051000D02*
X68884536Y-151051000D01*
X68860150Y-151053402D01*
X68836701Y-151060515D01*
X68815090Y-151072066D01*
X68800000Y-151084451D01*
X68784910Y-151072066D01*
X68763299Y-151060515D01*
X68739850Y-151053402D01*
X68715464Y-151051000D01*
X68084536Y-151051000D01*
X68060150Y-151053402D01*
X68036701Y-151060515D01*
X68015090Y-151072066D01*
X68000000Y-151084451D01*
X67984910Y-151072066D01*
X67963299Y-151060515D01*
X67939850Y-151053402D01*
X67915464Y-151051000D01*
X67284536Y-151051000D01*
X67260150Y-151053402D01*
X67236701Y-151060515D01*
X67215090Y-151072066D01*
X67200000Y-151084451D01*
X67184910Y-151072066D01*
X67163299Y-151060515D01*
X67139850Y-151053402D01*
X67115464Y-151051000D01*
X66484536Y-151051000D01*
X66460150Y-151053402D01*
X66436701Y-151060515D01*
X66415090Y-151072066D01*
X66400000Y-151084451D01*
X66384910Y-151072066D01*
X66363299Y-151060515D01*
X66339850Y-151053402D01*
X66315464Y-151051000D01*
X65684536Y-151051000D01*
X65660150Y-151053402D01*
X65636701Y-151060515D01*
X65615090Y-151072066D01*
X65600000Y-151084451D01*
X65584910Y-151072066D01*
X65563299Y-151060515D01*
X65539850Y-151053402D01*
X65515464Y-151051000D01*
X64884536Y-151051000D01*
X64860150Y-151053402D01*
X64836701Y-151060515D01*
X64815090Y-151072066D01*
X64800000Y-151084451D01*
X64784910Y-151072066D01*
X64763299Y-151060515D01*
X64739850Y-151053402D01*
X64715464Y-151051000D01*
X64084536Y-151051000D01*
X64060150Y-151053402D01*
X64036701Y-151060515D01*
X64015090Y-151072066D01*
X64000000Y-151084451D01*
X63984910Y-151072066D01*
X63963299Y-151060515D01*
X63939850Y-151053402D01*
X63915464Y-151051000D01*
X63284536Y-151051000D01*
X63260150Y-151053402D01*
X63236701Y-151060515D01*
X63215090Y-151072066D01*
X63200000Y-151084451D01*
X63184910Y-151072066D01*
X63163299Y-151060515D01*
X63139850Y-151053402D01*
X63115464Y-151051000D01*
X63049000Y-151051000D01*
X63049000Y-149749000D01*
X68951000Y-149749000D01*
X68951000Y-151051000D01*
X68951000Y-151051000D01*
G37*
G36*
X37277396Y-146585546D02*
X37450466Y-146657234D01*
X37606230Y-146761312D01*
X37738688Y-146893770D01*
X37842766Y-147049534D01*
X37914454Y-147222604D01*
X37951000Y-147406333D01*
X37951000Y-147593667D01*
X37914454Y-147777396D01*
X37842766Y-147950466D01*
X37738688Y-148106230D01*
X37606230Y-148238688D01*
X37450466Y-148342766D01*
X37349675Y-148384515D01*
X37328064Y-148396066D01*
X37309122Y-148411612D01*
X37293576Y-148430554D01*
X37282025Y-148452164D01*
X37274912Y-148475614D01*
X37272510Y-148500000D01*
X37274912Y-148524386D01*
X37282025Y-148547835D01*
X37293576Y-148569446D01*
X37309122Y-148588388D01*
X37328064Y-148603934D01*
X37349675Y-148615485D01*
X37450466Y-148657234D01*
X37606230Y-148761312D01*
X37738688Y-148893770D01*
X37842766Y-149049534D01*
X37914454Y-149222604D01*
X37951000Y-149406333D01*
X37951000Y-149593667D01*
X37914454Y-149777396D01*
X37842766Y-149950466D01*
X37738688Y-150106230D01*
X37606230Y-150238688D01*
X37450466Y-150342766D01*
X37277396Y-150414454D01*
X37093667Y-150451000D01*
X36906333Y-150451000D01*
X36722604Y-150414454D01*
X36549534Y-150342766D01*
X36393770Y-150238688D01*
X36261312Y-150106230D01*
X36157234Y-149950466D01*
X36085546Y-149777396D01*
X36049000Y-149593667D01*
X36049000Y-149406333D01*
X36085546Y-149222604D01*
X36157234Y-149049534D01*
X36261312Y-148893770D01*
X36393770Y-148761312D01*
X36549534Y-148657234D01*
X36650325Y-148615485D01*
X36671936Y-148603934D01*
X36690878Y-148588388D01*
X36706424Y-148569446D01*
X36717975Y-148547836D01*
X36725088Y-148524386D01*
X36727490Y-148500000D01*
X36725088Y-148475614D01*
X36717975Y-148452165D01*
X36706424Y-148430554D01*
X36690878Y-148411612D01*
X36671936Y-148396066D01*
X36650325Y-148384515D01*
X36549534Y-148342766D01*
X36393770Y-148238688D01*
X36261312Y-148106230D01*
X36157234Y-147950466D01*
X36085546Y-147777396D01*
X36049000Y-147593667D01*
X36049000Y-147406333D01*
X36085546Y-147222604D01*
X36157234Y-147049534D01*
X36261312Y-146893770D01*
X36393770Y-146761312D01*
X36549534Y-146657234D01*
X36722604Y-146585546D01*
X36906333Y-146549000D01*
X37093667Y-146549000D01*
X37277396Y-146585546D01*
X37277396Y-146585546D01*
G37*
G36*
X43879591Y-148728085D02*
X43913569Y-148738393D01*
X43944887Y-148755133D01*
X43972339Y-148777661D01*
X43994867Y-148805113D01*
X44011607Y-148836431D01*
X44021915Y-148870409D01*
X44026000Y-148911890D01*
X44026000Y-149513110D01*
X44021915Y-149554591D01*
X44011607Y-149588569D01*
X43994867Y-149619887D01*
X43972339Y-149647339D01*
X43944887Y-149669867D01*
X43913569Y-149686607D01*
X43879591Y-149696915D01*
X43838110Y-149701000D01*
X43161890Y-149701000D01*
X43120409Y-149696915D01*
X43086431Y-149686607D01*
X43055113Y-149669867D01*
X43027661Y-149647339D01*
X43005133Y-149619887D01*
X42988393Y-149588569D01*
X42978085Y-149554591D01*
X42974000Y-149513110D01*
X42974000Y-148911890D01*
X42978085Y-148870409D01*
X42988393Y-148836431D01*
X43005133Y-148805113D01*
X43027661Y-148777661D01*
X43055113Y-148755133D01*
X43086431Y-148738393D01*
X43120409Y-148728085D01*
X43161890Y-148724000D01*
X43838110Y-148724000D01*
X43879591Y-148728085D01*
X43879591Y-148728085D01*
G37*
G36*
X53979591Y-148728085D02*
X54013569Y-148738393D01*
X54044887Y-148755133D01*
X54072339Y-148777661D01*
X54094867Y-148805113D01*
X54111607Y-148836431D01*
X54121915Y-148870409D01*
X54126000Y-148911890D01*
X54126000Y-149513110D01*
X54121915Y-149554591D01*
X54111607Y-149588569D01*
X54094867Y-149619887D01*
X54072339Y-149647339D01*
X54044887Y-149669867D01*
X54013569Y-149686607D01*
X53979591Y-149696915D01*
X53938110Y-149701000D01*
X53261890Y-149701000D01*
X53220409Y-149696915D01*
X53186431Y-149686607D01*
X53155113Y-149669867D01*
X53127661Y-149647339D01*
X53105133Y-149619887D01*
X53088393Y-149588569D01*
X53078085Y-149554591D01*
X53074000Y-149513110D01*
X53074000Y-148911890D01*
X53078085Y-148870409D01*
X53088393Y-148836431D01*
X53105133Y-148805113D01*
X53127661Y-148777661D01*
X53155113Y-148755133D01*
X53186431Y-148738393D01*
X53220409Y-148728085D01*
X53261890Y-148724000D01*
X53938110Y-148724000D01*
X53979591Y-148728085D01*
X53979591Y-148728085D01*
G37*
G36*
X48879591Y-148728085D02*
X48913569Y-148738393D01*
X48944887Y-148755133D01*
X48972339Y-148777661D01*
X48994867Y-148805113D01*
X49011607Y-148836431D01*
X49021915Y-148870409D01*
X49026000Y-148911890D01*
X49026000Y-149513110D01*
X49021915Y-149554591D01*
X49011607Y-149588569D01*
X48994867Y-149619887D01*
X48972339Y-149647339D01*
X48944887Y-149669867D01*
X48913569Y-149686607D01*
X48879591Y-149696915D01*
X48838110Y-149701000D01*
X48161890Y-149701000D01*
X48120409Y-149696915D01*
X48086431Y-149686607D01*
X48055113Y-149669867D01*
X48027661Y-149647339D01*
X48005133Y-149619887D01*
X47988393Y-149588569D01*
X47978085Y-149554591D01*
X47974000Y-149513110D01*
X47974000Y-148911890D01*
X47978085Y-148870409D01*
X47988393Y-148836431D01*
X48005133Y-148805113D01*
X48027661Y-148777661D01*
X48055113Y-148755133D01*
X48086431Y-148738393D01*
X48120409Y-148728085D01*
X48161890Y-148724000D01*
X48838110Y-148724000D01*
X48879591Y-148728085D01*
X48879591Y-148728085D01*
G37*
G36*
X41484466Y-148528565D02*
X41523137Y-148540296D01*
X41558779Y-148559348D01*
X41590017Y-148584983D01*
X41615652Y-148616221D01*
X41634704Y-148651863D01*
X41646435Y-148690534D01*
X41651000Y-148736888D01*
X41651000Y-149388112D01*
X41646435Y-149434466D01*
X41634704Y-149473137D01*
X41615652Y-149508779D01*
X41590017Y-149540017D01*
X41558779Y-149565652D01*
X41523137Y-149584704D01*
X41484466Y-149596435D01*
X41438112Y-149601000D01*
X40361888Y-149601000D01*
X40315534Y-149596435D01*
X40276863Y-149584704D01*
X40241221Y-149565652D01*
X40209983Y-149540017D01*
X40184348Y-149508779D01*
X40165296Y-149473137D01*
X40153565Y-149434466D01*
X40149000Y-149388112D01*
X40149000Y-148736888D01*
X40153565Y-148690534D01*
X40165296Y-148651863D01*
X40184348Y-148616221D01*
X40209983Y-148584983D01*
X40241221Y-148559348D01*
X40276863Y-148540296D01*
X40315534Y-148528565D01*
X40361888Y-148524000D01*
X41438112Y-148524000D01*
X41484466Y-148528565D01*
X41484466Y-148528565D01*
G37*
G36*
X51684466Y-148528565D02*
X51723137Y-148540296D01*
X51758779Y-148559348D01*
X51790017Y-148584983D01*
X51815652Y-148616221D01*
X51834704Y-148651863D01*
X51846435Y-148690534D01*
X51851000Y-148736888D01*
X51851000Y-149388112D01*
X51846435Y-149434466D01*
X51834704Y-149473137D01*
X51815652Y-149508779D01*
X51790017Y-149540017D01*
X51758779Y-149565652D01*
X51723137Y-149584704D01*
X51684466Y-149596435D01*
X51638112Y-149601000D01*
X50561888Y-149601000D01*
X50515534Y-149596435D01*
X50476863Y-149584704D01*
X50441221Y-149565652D01*
X50409983Y-149540017D01*
X50384348Y-149508779D01*
X50365296Y-149473137D01*
X50353565Y-149434466D01*
X50349000Y-149388112D01*
X50349000Y-148736888D01*
X50353565Y-148690534D01*
X50365296Y-148651863D01*
X50384348Y-148616221D01*
X50409983Y-148584983D01*
X50441221Y-148559348D01*
X50476863Y-148540296D01*
X50515534Y-148528565D01*
X50561888Y-148524000D01*
X51638112Y-148524000D01*
X51684466Y-148528565D01*
X51684466Y-148528565D01*
G37*
G36*
X46584466Y-148528565D02*
X46623137Y-148540296D01*
X46658779Y-148559348D01*
X46690017Y-148584983D01*
X46715652Y-148616221D01*
X46734704Y-148651863D01*
X46746435Y-148690534D01*
X46751000Y-148736888D01*
X46751000Y-149388112D01*
X46746435Y-149434466D01*
X46734704Y-149473137D01*
X46715652Y-149508779D01*
X46690017Y-149540017D01*
X46658779Y-149565652D01*
X46623137Y-149584704D01*
X46584466Y-149596435D01*
X46538112Y-149601000D01*
X45461888Y-149601000D01*
X45415534Y-149596435D01*
X45376863Y-149584704D01*
X45341221Y-149565652D01*
X45309983Y-149540017D01*
X45284348Y-149508779D01*
X45265296Y-149473137D01*
X45253565Y-149434466D01*
X45249000Y-149388112D01*
X45249000Y-148736888D01*
X45253565Y-148690534D01*
X45265296Y-148651863D01*
X45284348Y-148616221D01*
X45309983Y-148584983D01*
X45341221Y-148559348D01*
X45376863Y-148540296D01*
X45415534Y-148528565D01*
X45461888Y-148524000D01*
X46538112Y-148524000D01*
X46584466Y-148528565D01*
X46584466Y-148528565D01*
G37*
G36*
X31027396Y-144585546D02*
X31200466Y-144657234D01*
X31356230Y-144761312D01*
X31488688Y-144893770D01*
X31592766Y-145049534D01*
X31664454Y-145222604D01*
X31701000Y-145406333D01*
X31701000Y-145593667D01*
X31664454Y-145777396D01*
X31592766Y-145950466D01*
X31488688Y-146106230D01*
X31356230Y-146238688D01*
X31200466Y-146342766D01*
X31027396Y-146414454D01*
X30843667Y-146451000D01*
X30656333Y-146451000D01*
X30472604Y-146414454D01*
X30299534Y-146342766D01*
X30143770Y-146238688D01*
X30011312Y-146106230D01*
X29907234Y-145950466D01*
X29835546Y-145777396D01*
X29799000Y-145593667D01*
X29799000Y-145406333D01*
X29835546Y-145222604D01*
X29907234Y-145049534D01*
X30011312Y-144893770D01*
X30143770Y-144761312D01*
X30299534Y-144657234D01*
X30472604Y-144585546D01*
X30656333Y-144549000D01*
X30843667Y-144549000D01*
X31027396Y-144585546D01*
X31027396Y-144585546D01*
G37*
G36*
X43527396Y-144585546D02*
X43700466Y-144657234D01*
X43856230Y-144761312D01*
X43988688Y-144893770D01*
X44092766Y-145049534D01*
X44164454Y-145222604D01*
X44201000Y-145406333D01*
X44201000Y-145593667D01*
X44164454Y-145777396D01*
X44092766Y-145950466D01*
X43988688Y-146106230D01*
X43856230Y-146238688D01*
X43700466Y-146342766D01*
X43527396Y-146414454D01*
X43343667Y-146451000D01*
X43156333Y-146451000D01*
X42972604Y-146414454D01*
X42799534Y-146342766D01*
X42643770Y-146238688D01*
X42511312Y-146106230D01*
X42407234Y-145950466D01*
X42335546Y-145777396D01*
X42299000Y-145593667D01*
X42299000Y-145406333D01*
X42335546Y-145222604D01*
X42407234Y-145049534D01*
X42511312Y-144893770D01*
X42643770Y-144761312D01*
X42799534Y-144657234D01*
X42972604Y-144585546D01*
X43156333Y-144549000D01*
X43343667Y-144549000D01*
X43527396Y-144585546D01*
X43527396Y-144585546D01*
G37*
G36*
X67162812Y-139933624D02*
X67326784Y-140001544D01*
X67474354Y-140100147D01*
X67599853Y-140225646D01*
X67698456Y-140373216D01*
X67766376Y-140537188D01*
X67801000Y-140711259D01*
X67801000Y-140888741D01*
X67766376Y-141062812D01*
X67698456Y-141226784D01*
X67599853Y-141374354D01*
X67474354Y-141499853D01*
X67326784Y-141598456D01*
X67162812Y-141666376D01*
X66988741Y-141701000D01*
X66811259Y-141701000D01*
X66637188Y-141666376D01*
X66473216Y-141598456D01*
X66325646Y-141499853D01*
X66200147Y-141374354D01*
X66101544Y-141226784D01*
X66033624Y-141062812D01*
X65999000Y-140888741D01*
X65999000Y-140711259D01*
X66033624Y-140537188D01*
X66101544Y-140373216D01*
X66200147Y-140225646D01*
X66325646Y-140100147D01*
X66473216Y-140001544D01*
X66637188Y-139933624D01*
X66811259Y-139899000D01*
X66988741Y-139899000D01*
X67162812Y-139933624D01*
X67162812Y-139933624D01*
G37*
G36*
X43527396Y-139585546D02*
X43700466Y-139657234D01*
X43856230Y-139761312D01*
X43988688Y-139893770D01*
X44092766Y-140049534D01*
X44164454Y-140222604D01*
X44201000Y-140406333D01*
X44201000Y-140593667D01*
X44164454Y-140777396D01*
X44092766Y-140950466D01*
X43988688Y-141106230D01*
X43856230Y-141238688D01*
X43700466Y-141342766D01*
X43527396Y-141414454D01*
X43343667Y-141451000D01*
X43156333Y-141451000D01*
X42972604Y-141414454D01*
X42799534Y-141342766D01*
X42643770Y-141238688D01*
X42511312Y-141106230D01*
X42407234Y-140950466D01*
X42335546Y-140777396D01*
X42299000Y-140593667D01*
X42299000Y-140406333D01*
X42335546Y-140222604D01*
X42407234Y-140049534D01*
X42511312Y-139893770D01*
X42643770Y-139761312D01*
X42799534Y-139657234D01*
X42972604Y-139585546D01*
X43156333Y-139549000D01*
X43343667Y-139549000D01*
X43527396Y-139585546D01*
X43527396Y-139585546D01*
G37*
G36*
X31027396Y-139585546D02*
X31200466Y-139657234D01*
X31356230Y-139761312D01*
X31488688Y-139893770D01*
X31592766Y-140049534D01*
X31664454Y-140222604D01*
X31701000Y-140406333D01*
X31701000Y-140593667D01*
X31664454Y-140777396D01*
X31592766Y-140950466D01*
X31488688Y-141106230D01*
X31356230Y-141238688D01*
X31200466Y-141342766D01*
X31027396Y-141414454D01*
X30843667Y-141451000D01*
X30656333Y-141451000D01*
X30472604Y-141414454D01*
X30299534Y-141342766D01*
X30143770Y-141238688D01*
X30011312Y-141106230D01*
X29907234Y-140950466D01*
X29835546Y-140777396D01*
X29799000Y-140593667D01*
X29799000Y-140406333D01*
X29835546Y-140222604D01*
X29907234Y-140049534D01*
X30011312Y-139893770D01*
X30143770Y-139761312D01*
X30299534Y-139657234D01*
X30472604Y-139585546D01*
X30656333Y-139549000D01*
X30843667Y-139549000D01*
X31027396Y-139585546D01*
X31027396Y-139585546D01*
G37*
G36*
X37277396Y-135585546D02*
X37450466Y-135657234D01*
X37606230Y-135761312D01*
X37738688Y-135893770D01*
X37842766Y-136049534D01*
X37914454Y-136222604D01*
X37951000Y-136406333D01*
X37951000Y-136593667D01*
X37914454Y-136777396D01*
X37842766Y-136950466D01*
X37738688Y-137106230D01*
X37606230Y-137238688D01*
X37450466Y-137342766D01*
X37284346Y-137411575D01*
X37262735Y-137423126D01*
X37243793Y-137438672D01*
X37228247Y-137457614D01*
X37216696Y-137479224D01*
X37209583Y-137502674D01*
X37207181Y-137527060D01*
X37209583Y-137551446D01*
X37216696Y-137574895D01*
X37228247Y-137596506D01*
X37243793Y-137615448D01*
X37262735Y-137630994D01*
X37284336Y-137642539D01*
X37426784Y-137701544D01*
X37574354Y-137800147D01*
X37699853Y-137925646D01*
X37798456Y-138073216D01*
X37866376Y-138237188D01*
X37901000Y-138411259D01*
X37901000Y-138588741D01*
X37866376Y-138762812D01*
X37798456Y-138926784D01*
X37699853Y-139074354D01*
X37574354Y-139199853D01*
X37426784Y-139298456D01*
X37262812Y-139366376D01*
X37088741Y-139401000D01*
X36911259Y-139401000D01*
X36737188Y-139366376D01*
X36573216Y-139298456D01*
X36425646Y-139199853D01*
X36300147Y-139074354D01*
X36201544Y-138926784D01*
X36133624Y-138762812D01*
X36099000Y-138588741D01*
X36099000Y-138411259D01*
X36133624Y-138237188D01*
X36201544Y-138073216D01*
X36300147Y-137925646D01*
X36425646Y-137800147D01*
X36573216Y-137701544D01*
X36715664Y-137642539D01*
X36737265Y-137630994D01*
X36756207Y-137615448D01*
X36771753Y-137596506D01*
X36783304Y-137574895D01*
X36790417Y-137551446D01*
X36792819Y-137527060D01*
X36790417Y-137502674D01*
X36783304Y-137479225D01*
X36771753Y-137457614D01*
X36756207Y-137438672D01*
X36737265Y-137423126D01*
X36715654Y-137411575D01*
X36549534Y-137342766D01*
X36393770Y-137238688D01*
X36261312Y-137106230D01*
X36157234Y-136950466D01*
X36085546Y-136777396D01*
X36049000Y-136593667D01*
X36049000Y-136406333D01*
X36085546Y-136222604D01*
X36157234Y-136049534D01*
X36261312Y-135893770D01*
X36393770Y-135761312D01*
X36549534Y-135657234D01*
X36722604Y-135585546D01*
X36906333Y-135549000D01*
X37093667Y-135549000D01*
X37277396Y-135585546D01*
X37277396Y-135585546D01*
G37*
G36*
X103262812Y-136833624D02*
X103426784Y-136901544D01*
X103574354Y-137000147D01*
X103699853Y-137125646D01*
X103798456Y-137273216D01*
X103866376Y-137437188D01*
X103901000Y-137611259D01*
X103901000Y-137788741D01*
X103866376Y-137962812D01*
X103798456Y-138126784D01*
X103699853Y-138274354D01*
X103574354Y-138399853D01*
X103426784Y-138498456D01*
X103262812Y-138566376D01*
X103088741Y-138601000D01*
X102911259Y-138601000D01*
X102737188Y-138566376D01*
X102573216Y-138498456D01*
X102425646Y-138399853D01*
X102300147Y-138274354D01*
X102201544Y-138126784D01*
X102133624Y-137962812D01*
X102099000Y-137788741D01*
X102099000Y-137611259D01*
X102133624Y-137437188D01*
X102201544Y-137273216D01*
X102300147Y-137125646D01*
X102425646Y-137000147D01*
X102573216Y-136901544D01*
X102737188Y-136833624D01*
X102911259Y-136799000D01*
X103088741Y-136799000D01*
X103262812Y-136833624D01*
X103262812Y-136833624D01*
G37*
G36*
X37277396Y-130585546D02*
X37450466Y-130657234D01*
X37606230Y-130761312D01*
X37738688Y-130893770D01*
X37842766Y-131049534D01*
X37914454Y-131222604D01*
X37951000Y-131406333D01*
X37951000Y-131593667D01*
X37914454Y-131777396D01*
X37842766Y-131950466D01*
X37738688Y-132106230D01*
X37606230Y-132238688D01*
X37450466Y-132342766D01*
X37349675Y-132384515D01*
X37328064Y-132396066D01*
X37309122Y-132411612D01*
X37293576Y-132430554D01*
X37282025Y-132452164D01*
X37274912Y-132475614D01*
X37272510Y-132500000D01*
X37274912Y-132524386D01*
X37282025Y-132547835D01*
X37293576Y-132569446D01*
X37309122Y-132588388D01*
X37328064Y-132603934D01*
X37349675Y-132615485D01*
X37450466Y-132657234D01*
X37606230Y-132761312D01*
X37738688Y-132893770D01*
X37842766Y-133049534D01*
X37914454Y-133222604D01*
X37951000Y-133406333D01*
X37951000Y-133593667D01*
X37914454Y-133777396D01*
X37842766Y-133950466D01*
X37738688Y-134106230D01*
X37606230Y-134238688D01*
X37450466Y-134342766D01*
X37277396Y-134414454D01*
X37093667Y-134451000D01*
X36906333Y-134451000D01*
X36722604Y-134414454D01*
X36549534Y-134342766D01*
X36393770Y-134238688D01*
X36261312Y-134106230D01*
X36157234Y-133950466D01*
X36085546Y-133777396D01*
X36049000Y-133593667D01*
X36049000Y-133406333D01*
X36085546Y-133222604D01*
X36157234Y-133049534D01*
X36261312Y-132893770D01*
X36393770Y-132761312D01*
X36549534Y-132657234D01*
X36650325Y-132615485D01*
X36671936Y-132603934D01*
X36690878Y-132588388D01*
X36706424Y-132569446D01*
X36717975Y-132547836D01*
X36725088Y-132524386D01*
X36727490Y-132500000D01*
X36725088Y-132475614D01*
X36717975Y-132452165D01*
X36706424Y-132430554D01*
X36690878Y-132411612D01*
X36671936Y-132396066D01*
X36650325Y-132384515D01*
X36549534Y-132342766D01*
X36393770Y-132238688D01*
X36261312Y-132106230D01*
X36157234Y-131950466D01*
X36085546Y-131777396D01*
X36049000Y-131593667D01*
X36049000Y-131406333D01*
X36085546Y-131222604D01*
X36157234Y-131049534D01*
X36261312Y-130893770D01*
X36393770Y-130761312D01*
X36549534Y-130657234D01*
X36722604Y-130585546D01*
X36906333Y-130549000D01*
X37093667Y-130549000D01*
X37277396Y-130585546D01*
X37277396Y-130585546D01*
G37*
G36*
X66262198Y-128149954D02*
X66274450Y-128150556D01*
X66292869Y-128150556D01*
X66315149Y-128152750D01*
X66399236Y-128169476D01*
X66420655Y-128175974D01*
X66499871Y-128208785D01*
X66519607Y-128219335D01*
X66590897Y-128266969D01*
X66608208Y-128281176D01*
X66668824Y-128341792D01*
X66683031Y-128359103D01*
X66730665Y-128430393D01*
X66741215Y-128450129D01*
X66774026Y-128529345D01*
X66780524Y-128550764D01*
X66797250Y-128634851D01*
X66799444Y-128657131D01*
X66799444Y-128675550D01*
X66800046Y-128687802D01*
X66801852Y-128706140D01*
X66801852Y-129243860D01*
X66800263Y-129259999D01*
X66795853Y-129274534D01*
X66790393Y-129287717D01*
X66785613Y-129311751D01*
X66785613Y-129336255D01*
X66790394Y-129360288D01*
X66799772Y-129382927D01*
X66801000Y-129384765D01*
X66801000Y-130616053D01*
X66794526Y-130628165D01*
X66787413Y-130651614D01*
X66785011Y-130676000D01*
X66787413Y-130700386D01*
X66793917Y-130718564D01*
X66793773Y-130718608D01*
X66800263Y-130740001D01*
X66801852Y-130756140D01*
X66801852Y-131293861D01*
X66800046Y-131312198D01*
X66799444Y-131324450D01*
X66799444Y-131342869D01*
X66797250Y-131365149D01*
X66780524Y-131449236D01*
X66774026Y-131470655D01*
X66741215Y-131549871D01*
X66730665Y-131569607D01*
X66683031Y-131640897D01*
X66668824Y-131658208D01*
X66608208Y-131718824D01*
X66590897Y-131733031D01*
X66519607Y-131780665D01*
X66499871Y-131791215D01*
X66420655Y-131824026D01*
X66399236Y-131830524D01*
X66315149Y-131847250D01*
X66292869Y-131849444D01*
X66274450Y-131849444D01*
X66262198Y-131850046D01*
X66243861Y-131851852D01*
X65756139Y-131851852D01*
X65737802Y-131850046D01*
X65725550Y-131849444D01*
X65707131Y-131849444D01*
X65684851Y-131847250D01*
X65600764Y-131830524D01*
X65579345Y-131824026D01*
X65500129Y-131791215D01*
X65480393Y-131780665D01*
X65409103Y-131733031D01*
X65391792Y-131718824D01*
X65331176Y-131658208D01*
X65316969Y-131640897D01*
X65269335Y-131569607D01*
X65258785Y-131549871D01*
X65225974Y-131470655D01*
X65219476Y-131449236D01*
X65202750Y-131365149D01*
X65200556Y-131342869D01*
X65200556Y-131324450D01*
X65199954Y-131312198D01*
X65198148Y-131293861D01*
X65198148Y-130756140D01*
X65199737Y-130740001D01*
X65204147Y-130725466D01*
X65209607Y-130712283D01*
X65214387Y-130688249D01*
X65214387Y-130663745D01*
X65209606Y-130639712D01*
X65200228Y-130617073D01*
X65199000Y-130615235D01*
X65199000Y-129383947D01*
X65205474Y-129371835D01*
X65212587Y-129348386D01*
X65214989Y-129324000D01*
X65212587Y-129299614D01*
X65206083Y-129281436D01*
X65206227Y-129281392D01*
X65199737Y-129259999D01*
X65198148Y-129243860D01*
X65198148Y-128706140D01*
X65199954Y-128687802D01*
X65200556Y-128675550D01*
X65200556Y-128657131D01*
X65202750Y-128634851D01*
X65219476Y-128550764D01*
X65225974Y-128529345D01*
X65258785Y-128450129D01*
X65269335Y-128430393D01*
X65316969Y-128359103D01*
X65331176Y-128341792D01*
X65391792Y-128281176D01*
X65409103Y-128266969D01*
X65480393Y-128219335D01*
X65500129Y-128208785D01*
X65579345Y-128175974D01*
X65600764Y-128169476D01*
X65684851Y-128152750D01*
X65707131Y-128150556D01*
X65725550Y-128150556D01*
X65737802Y-128149954D01*
X65756140Y-128148148D01*
X66243860Y-128148148D01*
X66262198Y-128149954D01*
X66262198Y-128149954D01*
G37*
G36*
X31027396Y-128585546D02*
X31200466Y-128657234D01*
X31356230Y-128761312D01*
X31488688Y-128893770D01*
X31592766Y-129049534D01*
X31664454Y-129222604D01*
X31701000Y-129406333D01*
X31701000Y-129593667D01*
X31664454Y-129777396D01*
X31592766Y-129950466D01*
X31488688Y-130106230D01*
X31356230Y-130238688D01*
X31200466Y-130342766D01*
X31027396Y-130414454D01*
X30843667Y-130451000D01*
X30656333Y-130451000D01*
X30472604Y-130414454D01*
X30299534Y-130342766D01*
X30143770Y-130238688D01*
X30011312Y-130106230D01*
X29907234Y-129950466D01*
X29835546Y-129777396D01*
X29799000Y-129593667D01*
X29799000Y-129406333D01*
X29835546Y-129222604D01*
X29907234Y-129049534D01*
X30011312Y-128893770D01*
X30143770Y-128761312D01*
X30299534Y-128657234D01*
X30472604Y-128585546D01*
X30656333Y-128549000D01*
X30843667Y-128549000D01*
X31027396Y-128585546D01*
X31027396Y-128585546D01*
G37*
G36*
X43527396Y-128585546D02*
X43700466Y-128657234D01*
X43856230Y-128761312D01*
X43988688Y-128893770D01*
X44092766Y-129049534D01*
X44164454Y-129222604D01*
X44201000Y-129406333D01*
X44201000Y-129593667D01*
X44164454Y-129777396D01*
X44092766Y-129950466D01*
X43988688Y-130106230D01*
X43856230Y-130238688D01*
X43700466Y-130342766D01*
X43527396Y-130414454D01*
X43343667Y-130451000D01*
X43156333Y-130451000D01*
X42972604Y-130414454D01*
X42799534Y-130342766D01*
X42643770Y-130238688D01*
X42511312Y-130106230D01*
X42407234Y-129950466D01*
X42335546Y-129777396D01*
X42299000Y-129593667D01*
X42299000Y-129406333D01*
X42335546Y-129222604D01*
X42407234Y-129049534D01*
X42511312Y-128893770D01*
X42643770Y-128761312D01*
X42799534Y-128657234D01*
X42972604Y-128585546D01*
X43156333Y-128549000D01*
X43343667Y-128549000D01*
X43527396Y-128585546D01*
X43527396Y-128585546D01*
G37*
G36*
X43527396Y-123585546D02*
X43700466Y-123657234D01*
X43856230Y-123761312D01*
X43988688Y-123893770D01*
X44092766Y-124049534D01*
X44164454Y-124222604D01*
X44201000Y-124406333D01*
X44201000Y-124593667D01*
X44164454Y-124777396D01*
X44092766Y-124950466D01*
X43988688Y-125106230D01*
X43856230Y-125238688D01*
X43700466Y-125342766D01*
X43527396Y-125414454D01*
X43343667Y-125451000D01*
X43156333Y-125451000D01*
X42972604Y-125414454D01*
X42799534Y-125342766D01*
X42643770Y-125238688D01*
X42511312Y-125106230D01*
X42407234Y-124950466D01*
X42335546Y-124777396D01*
X42299000Y-124593667D01*
X42299000Y-124406333D01*
X42335546Y-124222604D01*
X42407234Y-124049534D01*
X42511312Y-123893770D01*
X42643770Y-123761312D01*
X42799534Y-123657234D01*
X42972604Y-123585546D01*
X43156333Y-123549000D01*
X43343667Y-123549000D01*
X43527396Y-123585546D01*
X43527396Y-123585546D01*
G37*
G36*
X31027396Y-123585546D02*
X31200466Y-123657234D01*
X31356230Y-123761312D01*
X31488688Y-123893770D01*
X31592766Y-124049534D01*
X31664454Y-124222604D01*
X31701000Y-124406333D01*
X31701000Y-124593667D01*
X31664454Y-124777396D01*
X31592766Y-124950466D01*
X31488688Y-125106230D01*
X31356230Y-125238688D01*
X31200466Y-125342766D01*
X31027396Y-125414454D01*
X30843667Y-125451000D01*
X30656333Y-125451000D01*
X30472604Y-125414454D01*
X30299534Y-125342766D01*
X30143770Y-125238688D01*
X30011312Y-125106230D01*
X29907234Y-124950466D01*
X29835546Y-124777396D01*
X29799000Y-124593667D01*
X29799000Y-124406333D01*
X29835546Y-124222604D01*
X29907234Y-124049534D01*
X30011312Y-123893770D01*
X30143770Y-123761312D01*
X30299534Y-123657234D01*
X30472604Y-123585546D01*
X30656333Y-123549000D01*
X30843667Y-123549000D01*
X31027396Y-123585546D01*
X31027396Y-123585546D01*
G37*
G36*
X65859999Y-123199737D02*
X65869611Y-123202653D01*
X65878469Y-123207388D01*
X65886237Y-123213763D01*
X65896446Y-123226202D01*
X65903372Y-123236568D01*
X65920698Y-123253895D01*
X65941073Y-123267510D01*
X65963711Y-123276888D01*
X65987745Y-123281669D01*
X66012249Y-123281669D01*
X66036283Y-123276889D01*
X66058922Y-123267513D01*
X66079297Y-123253899D01*
X66096624Y-123236573D01*
X66103552Y-123226204D01*
X66113763Y-123213763D01*
X66121531Y-123207388D01*
X66130389Y-123202653D01*
X66140001Y-123199737D01*
X66156140Y-123198148D01*
X66643860Y-123198148D01*
X66662198Y-123199954D01*
X66674450Y-123200556D01*
X66692869Y-123200556D01*
X66715149Y-123202750D01*
X66799236Y-123219476D01*
X66820655Y-123225974D01*
X66899871Y-123258785D01*
X66919607Y-123269335D01*
X66990897Y-123316969D01*
X67008208Y-123331176D01*
X67068824Y-123391792D01*
X67083031Y-123409103D01*
X67130665Y-123480393D01*
X67141215Y-123500129D01*
X67174026Y-123579345D01*
X67180524Y-123600764D01*
X67197250Y-123684851D01*
X67199444Y-123707131D01*
X67199444Y-123725550D01*
X67200046Y-123737802D01*
X67201852Y-123756140D01*
X67201852Y-124243861D01*
X67200046Y-124262198D01*
X67199444Y-124274450D01*
X67199444Y-124292869D01*
X67197250Y-124315149D01*
X67180524Y-124399236D01*
X67174026Y-124420655D01*
X67141215Y-124499871D01*
X67130665Y-124519607D01*
X67083031Y-124590897D01*
X67068824Y-124608208D01*
X67008208Y-124668824D01*
X66990897Y-124683031D01*
X66919607Y-124730665D01*
X66899871Y-124741215D01*
X66820655Y-124774026D01*
X66799236Y-124780524D01*
X66715149Y-124797250D01*
X66692869Y-124799444D01*
X66674450Y-124799444D01*
X66662198Y-124800046D01*
X66643861Y-124801852D01*
X66156140Y-124801852D01*
X66140001Y-124800263D01*
X66130389Y-124797347D01*
X66121531Y-124792612D01*
X66113763Y-124786237D01*
X66103554Y-124773798D01*
X66096628Y-124763432D01*
X66079302Y-124746105D01*
X66058927Y-124732490D01*
X66036289Y-124723112D01*
X66012255Y-124718331D01*
X65987751Y-124718331D01*
X65963717Y-124723111D01*
X65941078Y-124732487D01*
X65920703Y-124746101D01*
X65903376Y-124763427D01*
X65896448Y-124773796D01*
X65886237Y-124786237D01*
X65878469Y-124792612D01*
X65869611Y-124797347D01*
X65859999Y-124800263D01*
X65843860Y-124801852D01*
X65356139Y-124801852D01*
X65337802Y-124800046D01*
X65325550Y-124799444D01*
X65307131Y-124799444D01*
X65284851Y-124797250D01*
X65200764Y-124780524D01*
X65179345Y-124774026D01*
X65100129Y-124741215D01*
X65080393Y-124730665D01*
X65009103Y-124683031D01*
X64991792Y-124668824D01*
X64931176Y-124608208D01*
X64916969Y-124590897D01*
X64869335Y-124519607D01*
X64858785Y-124499871D01*
X64825974Y-124420655D01*
X64819476Y-124399236D01*
X64802750Y-124315149D01*
X64800556Y-124292869D01*
X64800556Y-124274450D01*
X64799954Y-124262198D01*
X64798148Y-124243861D01*
X64798148Y-123756140D01*
X64799954Y-123737802D01*
X64800556Y-123725550D01*
X64800556Y-123707131D01*
X64802750Y-123684851D01*
X64819476Y-123600764D01*
X64825974Y-123579345D01*
X64858785Y-123500129D01*
X64869335Y-123480393D01*
X64916969Y-123409103D01*
X64931176Y-123391792D01*
X64991792Y-123331176D01*
X65009103Y-123316969D01*
X65080393Y-123269335D01*
X65100129Y-123258785D01*
X65179345Y-123225974D01*
X65200764Y-123219476D01*
X65284851Y-123202750D01*
X65307131Y-123200556D01*
X65325550Y-123200556D01*
X65337802Y-123199954D01*
X65356140Y-123198148D01*
X65843860Y-123198148D01*
X65859999Y-123199737D01*
X65859999Y-123199737D01*
G37*
G36*
X37277396Y-119585546D02*
X37450466Y-119657234D01*
X37606230Y-119761312D01*
X37738688Y-119893770D01*
X37842766Y-120049534D01*
X37914454Y-120222604D01*
X37951000Y-120406333D01*
X37951000Y-120593667D01*
X37914454Y-120777396D01*
X37842766Y-120950466D01*
X37738688Y-121106230D01*
X37606230Y-121238688D01*
X37450466Y-121342766D01*
X37284346Y-121411575D01*
X37262735Y-121423126D01*
X37243793Y-121438672D01*
X37228247Y-121457614D01*
X37216696Y-121479224D01*
X37209583Y-121502674D01*
X37207181Y-121527060D01*
X37209583Y-121551446D01*
X37216696Y-121574895D01*
X37228247Y-121596506D01*
X37243793Y-121615448D01*
X37262735Y-121630994D01*
X37284336Y-121642539D01*
X37426784Y-121701544D01*
X37574354Y-121800147D01*
X37699853Y-121925646D01*
X37798456Y-122073216D01*
X37866376Y-122237188D01*
X37901000Y-122411259D01*
X37901000Y-122588741D01*
X37866376Y-122762812D01*
X37798456Y-122926784D01*
X37699853Y-123074354D01*
X37574354Y-123199853D01*
X37426784Y-123298456D01*
X37262812Y-123366376D01*
X37088741Y-123401000D01*
X36911259Y-123401000D01*
X36737188Y-123366376D01*
X36573216Y-123298456D01*
X36425646Y-123199853D01*
X36300147Y-123074354D01*
X36201544Y-122926784D01*
X36133624Y-122762812D01*
X36099000Y-122588741D01*
X36099000Y-122411259D01*
X36133624Y-122237188D01*
X36201544Y-122073216D01*
X36300147Y-121925646D01*
X36425646Y-121800147D01*
X36573216Y-121701544D01*
X36715664Y-121642539D01*
X36737265Y-121630994D01*
X36756207Y-121615448D01*
X36771753Y-121596506D01*
X36783304Y-121574895D01*
X36790417Y-121551446D01*
X36792819Y-121527060D01*
X36790417Y-121502674D01*
X36783304Y-121479225D01*
X36771753Y-121457614D01*
X36756207Y-121438672D01*
X36737265Y-121423126D01*
X36715654Y-121411575D01*
X36549534Y-121342766D01*
X36393770Y-121238688D01*
X36261312Y-121106230D01*
X36157234Y-120950466D01*
X36085546Y-120777396D01*
X36049000Y-120593667D01*
X36049000Y-120406333D01*
X36085546Y-120222604D01*
X36157234Y-120049534D01*
X36261312Y-119893770D01*
X36393770Y-119761312D01*
X36549534Y-119657234D01*
X36722604Y-119585546D01*
X36906333Y-119549000D01*
X37093667Y-119549000D01*
X37277396Y-119585546D01*
X37277396Y-119585546D01*
G37*
G36*
X65859999Y-120199737D02*
X65869611Y-120202653D01*
X65878469Y-120207388D01*
X65886237Y-120213763D01*
X65896446Y-120226202D01*
X65903372Y-120236568D01*
X65920698Y-120253895D01*
X65941073Y-120267510D01*
X65963711Y-120276888D01*
X65987745Y-120281669D01*
X66012249Y-120281669D01*
X66036283Y-120276889D01*
X66058922Y-120267513D01*
X66079297Y-120253899D01*
X66096624Y-120236573D01*
X66103552Y-120226204D01*
X66113763Y-120213763D01*
X66121531Y-120207388D01*
X66130389Y-120202653D01*
X66140001Y-120199737D01*
X66156140Y-120198148D01*
X66643860Y-120198148D01*
X66662198Y-120199954D01*
X66674450Y-120200556D01*
X66692869Y-120200556D01*
X66715149Y-120202750D01*
X66799236Y-120219476D01*
X66820655Y-120225974D01*
X66899871Y-120258785D01*
X66919607Y-120269335D01*
X66990897Y-120316969D01*
X67008208Y-120331176D01*
X67068824Y-120391792D01*
X67083031Y-120409103D01*
X67130665Y-120480393D01*
X67141215Y-120500129D01*
X67174026Y-120579345D01*
X67180524Y-120600764D01*
X67197250Y-120684851D01*
X67199444Y-120707131D01*
X67199444Y-120725550D01*
X67200046Y-120737802D01*
X67201852Y-120756140D01*
X67201852Y-121243861D01*
X67200046Y-121262198D01*
X67199444Y-121274450D01*
X67199444Y-121292869D01*
X67197250Y-121315149D01*
X67180524Y-121399236D01*
X67174026Y-121420655D01*
X67141215Y-121499871D01*
X67130665Y-121519607D01*
X67083031Y-121590897D01*
X67068824Y-121608208D01*
X67008208Y-121668824D01*
X66990897Y-121683031D01*
X66919607Y-121730665D01*
X66899871Y-121741215D01*
X66820655Y-121774026D01*
X66799236Y-121780524D01*
X66715149Y-121797250D01*
X66692869Y-121799444D01*
X66674450Y-121799444D01*
X66662198Y-121800046D01*
X66643861Y-121801852D01*
X66156140Y-121801852D01*
X66140001Y-121800263D01*
X66130389Y-121797347D01*
X66121531Y-121792612D01*
X66113763Y-121786237D01*
X66103554Y-121773798D01*
X66096628Y-121763432D01*
X66079302Y-121746105D01*
X66058927Y-121732490D01*
X66036289Y-121723112D01*
X66012255Y-121718331D01*
X65987751Y-121718331D01*
X65963717Y-121723111D01*
X65941078Y-121732487D01*
X65920703Y-121746101D01*
X65903376Y-121763427D01*
X65896448Y-121773796D01*
X65886237Y-121786237D01*
X65878469Y-121792612D01*
X65869611Y-121797347D01*
X65859999Y-121800263D01*
X65843860Y-121801852D01*
X65356139Y-121801852D01*
X65337802Y-121800046D01*
X65325550Y-121799444D01*
X65307131Y-121799444D01*
X65284851Y-121797250D01*
X65200764Y-121780524D01*
X65179345Y-121774026D01*
X65100129Y-121741215D01*
X65080393Y-121730665D01*
X65009103Y-121683031D01*
X64991792Y-121668824D01*
X64931176Y-121608208D01*
X64916969Y-121590897D01*
X64869335Y-121519607D01*
X64858785Y-121499871D01*
X64825974Y-121420655D01*
X64819476Y-121399236D01*
X64802750Y-121315149D01*
X64800556Y-121292869D01*
X64800556Y-121274450D01*
X64799954Y-121262198D01*
X64798148Y-121243861D01*
X64798148Y-120756140D01*
X64799954Y-120737802D01*
X64800556Y-120725550D01*
X64800556Y-120707131D01*
X64802750Y-120684851D01*
X64819476Y-120600764D01*
X64825974Y-120579345D01*
X64858785Y-120500129D01*
X64869335Y-120480393D01*
X64916969Y-120409103D01*
X64931176Y-120391792D01*
X64991792Y-120331176D01*
X65009103Y-120316969D01*
X65080393Y-120269335D01*
X65100129Y-120258785D01*
X65179345Y-120225974D01*
X65200764Y-120219476D01*
X65284851Y-120202750D01*
X65307131Y-120200556D01*
X65325550Y-120200556D01*
X65337802Y-120199954D01*
X65356140Y-120198148D01*
X65843860Y-120198148D01*
X65859999Y-120199737D01*
X65859999Y-120199737D01*
G37*
G36*
X37277396Y-114585546D02*
X37450466Y-114657234D01*
X37606230Y-114761312D01*
X37738688Y-114893770D01*
X37842766Y-115049534D01*
X37914454Y-115222604D01*
X37951000Y-115406333D01*
X37951000Y-115593667D01*
X37914454Y-115777396D01*
X37842766Y-115950466D01*
X37738688Y-116106230D01*
X37606230Y-116238688D01*
X37450466Y-116342766D01*
X37349675Y-116384515D01*
X37328064Y-116396066D01*
X37309122Y-116411612D01*
X37293576Y-116430554D01*
X37282025Y-116452164D01*
X37274912Y-116475614D01*
X37272510Y-116500000D01*
X37274912Y-116524386D01*
X37282025Y-116547835D01*
X37293576Y-116569446D01*
X37309122Y-116588388D01*
X37328064Y-116603934D01*
X37349675Y-116615485D01*
X37450466Y-116657234D01*
X37606230Y-116761312D01*
X37738688Y-116893770D01*
X37842766Y-117049534D01*
X37914454Y-117222604D01*
X37951000Y-117406333D01*
X37951000Y-117593667D01*
X37914454Y-117777396D01*
X37842766Y-117950466D01*
X37738688Y-118106230D01*
X37606230Y-118238688D01*
X37450466Y-118342766D01*
X37277396Y-118414454D01*
X37093667Y-118451000D01*
X36906333Y-118451000D01*
X36722604Y-118414454D01*
X36549534Y-118342766D01*
X36393770Y-118238688D01*
X36261312Y-118106230D01*
X36157234Y-117950466D01*
X36085546Y-117777396D01*
X36049000Y-117593667D01*
X36049000Y-117406333D01*
X36085546Y-117222604D01*
X36157234Y-117049534D01*
X36261312Y-116893770D01*
X36393770Y-116761312D01*
X36549534Y-116657234D01*
X36650325Y-116615485D01*
X36671936Y-116603934D01*
X36690878Y-116588388D01*
X36706424Y-116569446D01*
X36717975Y-116547836D01*
X36725088Y-116524386D01*
X36727490Y-116500000D01*
X36725088Y-116475614D01*
X36717975Y-116452165D01*
X36706424Y-116430554D01*
X36690878Y-116411612D01*
X36671936Y-116396066D01*
X36650325Y-116384515D01*
X36549534Y-116342766D01*
X36393770Y-116238688D01*
X36261312Y-116106230D01*
X36157234Y-115950466D01*
X36085546Y-115777396D01*
X36049000Y-115593667D01*
X36049000Y-115406333D01*
X36085546Y-115222604D01*
X36157234Y-115049534D01*
X36261312Y-114893770D01*
X36393770Y-114761312D01*
X36549534Y-114657234D01*
X36722604Y-114585546D01*
X36906333Y-114549000D01*
X37093667Y-114549000D01*
X37277396Y-114585546D01*
X37277396Y-114585546D01*
G37*
G36*
X64127617Y-113083420D02*
X64209426Y-113108237D01*
X64250332Y-113120645D01*
X64272544Y-113132518D01*
X64363425Y-113181095D01*
X64363427Y-113181096D01*
X64363426Y-113181096D01*
X64436965Y-113241447D01*
X64462553Y-113262447D01*
X64543905Y-113361574D01*
X64543906Y-113361576D01*
X64604355Y-113474667D01*
X64616763Y-113515573D01*
X64641580Y-113597382D01*
X64651000Y-113693027D01*
X64651000Y-114306973D01*
X64641580Y-114402618D01*
X64626903Y-114451000D01*
X64604355Y-114525333D01*
X64550819Y-114625491D01*
X64543905Y-114638426D01*
X64462553Y-114737553D01*
X64363426Y-114818905D01*
X64363424Y-114818906D01*
X64250333Y-114879355D01*
X64209427Y-114891763D01*
X64127618Y-114916580D01*
X64000000Y-114929149D01*
X63872383Y-114916580D01*
X63790574Y-114891763D01*
X63749668Y-114879355D01*
X63636577Y-114818906D01*
X63636575Y-114818905D01*
X63537448Y-114737553D01*
X63456095Y-114638426D01*
X63408296Y-114549000D01*
X63395645Y-114525333D01*
X63373097Y-114451000D01*
X63358420Y-114402618D01*
X63349000Y-114306973D01*
X63349000Y-113693028D01*
X63358420Y-113597383D01*
X63395645Y-113474669D01*
X63395645Y-113474668D01*
X63432171Y-113406333D01*
X63456095Y-113361575D01*
X63537447Y-113262447D01*
X63636574Y-113181095D01*
X63671400Y-113162480D01*
X63749667Y-113120645D01*
X63790573Y-113108237D01*
X63872382Y-113083420D01*
X64000000Y-113070851D01*
X64127617Y-113083420D01*
X64127617Y-113083420D01*
G37*
G36*
X55127617Y-113083420D02*
X55209426Y-113108237D01*
X55250332Y-113120645D01*
X55272544Y-113132518D01*
X55363425Y-113181095D01*
X55363427Y-113181096D01*
X55363426Y-113181096D01*
X55436965Y-113241447D01*
X55462553Y-113262447D01*
X55543905Y-113361574D01*
X55543906Y-113361576D01*
X55604355Y-113474667D01*
X55616763Y-113515573D01*
X55641580Y-113597382D01*
X55651000Y-113693027D01*
X55651000Y-114306973D01*
X55641580Y-114402618D01*
X55626903Y-114451000D01*
X55604355Y-114525333D01*
X55550819Y-114625491D01*
X55543905Y-114638426D01*
X55462553Y-114737553D01*
X55363426Y-114818905D01*
X55363424Y-114818906D01*
X55250333Y-114879355D01*
X55209427Y-114891763D01*
X55127618Y-114916580D01*
X55000000Y-114929149D01*
X54872383Y-114916580D01*
X54790574Y-114891763D01*
X54749668Y-114879355D01*
X54636577Y-114818906D01*
X54636575Y-114818905D01*
X54537448Y-114737553D01*
X54456095Y-114638426D01*
X54408296Y-114549000D01*
X54395645Y-114525333D01*
X54373097Y-114451000D01*
X54358420Y-114402618D01*
X54349000Y-114306973D01*
X54349000Y-113693028D01*
X54358420Y-113597383D01*
X54395645Y-113474669D01*
X54395645Y-113474668D01*
X54432171Y-113406333D01*
X54456095Y-113361575D01*
X54537447Y-113262447D01*
X54636574Y-113181095D01*
X54671400Y-113162480D01*
X54749667Y-113120645D01*
X54790573Y-113108237D01*
X54872382Y-113083420D01*
X55000000Y-113070851D01*
X55127617Y-113083420D01*
X55127617Y-113083420D01*
G37*
G36*
X62491242Y-113078404D02*
X62528339Y-113089657D01*
X62562520Y-113107927D01*
X62592482Y-113132518D01*
X62617073Y-113162480D01*
X62635343Y-113196661D01*
X62646596Y-113233758D01*
X62651000Y-113278473D01*
X62651000Y-114721527D01*
X62646596Y-114766242D01*
X62635343Y-114803339D01*
X62617073Y-114837520D01*
X62592482Y-114867482D01*
X62562520Y-114892073D01*
X62528339Y-114910343D01*
X62491242Y-114921596D01*
X62446527Y-114926000D01*
X61553473Y-114926000D01*
X61508758Y-114921596D01*
X61471661Y-114910343D01*
X61437480Y-114892073D01*
X61407518Y-114867482D01*
X61382927Y-114837520D01*
X61364657Y-114803339D01*
X61353404Y-114766242D01*
X61349000Y-114721527D01*
X61349000Y-113278473D01*
X61353404Y-113233758D01*
X61364657Y-113196661D01*
X61382927Y-113162480D01*
X61407518Y-113132518D01*
X61437480Y-113107927D01*
X61471661Y-113089657D01*
X61508758Y-113078404D01*
X61553473Y-113074000D01*
X62446527Y-113074000D01*
X62491242Y-113078404D01*
X62491242Y-113078404D01*
G37*
G36*
X53491242Y-113078404D02*
X53528339Y-113089657D01*
X53562520Y-113107927D01*
X53592482Y-113132518D01*
X53617073Y-113162480D01*
X53635343Y-113196661D01*
X53646596Y-113233758D01*
X53651000Y-113278473D01*
X53651000Y-114721527D01*
X53646596Y-114766242D01*
X53635343Y-114803339D01*
X53617073Y-114837520D01*
X53592482Y-114867482D01*
X53562520Y-114892073D01*
X53528339Y-114910343D01*
X53491242Y-114921596D01*
X53446527Y-114926000D01*
X52553473Y-114926000D01*
X52508758Y-114921596D01*
X52471661Y-114910343D01*
X52437480Y-114892073D01*
X52407518Y-114867482D01*
X52382927Y-114837520D01*
X52364657Y-114803339D01*
X52353404Y-114766242D01*
X52349000Y-114721527D01*
X52349000Y-113278473D01*
X52353404Y-113233758D01*
X52364657Y-113196661D01*
X52382927Y-113162480D01*
X52407518Y-113132518D01*
X52437480Y-113107927D01*
X52471661Y-113089657D01*
X52508758Y-113078404D01*
X52553473Y-113074000D01*
X53446527Y-113074000D01*
X53491242Y-113078404D01*
X53491242Y-113078404D01*
G37*
G36*
X31027396Y-112585546D02*
X31200466Y-112657234D01*
X31356230Y-112761312D01*
X31488688Y-112893770D01*
X31592766Y-113049534D01*
X31664454Y-113222604D01*
X31701000Y-113406333D01*
X31701000Y-113593667D01*
X31664454Y-113777396D01*
X31592766Y-113950466D01*
X31488688Y-114106230D01*
X31356230Y-114238688D01*
X31200466Y-114342766D01*
X31027396Y-114414454D01*
X30843667Y-114451000D01*
X30656333Y-114451000D01*
X30472604Y-114414454D01*
X30299534Y-114342766D01*
X30143770Y-114238688D01*
X30011312Y-114106230D01*
X29907234Y-113950466D01*
X29835546Y-113777396D01*
X29799000Y-113593667D01*
X29799000Y-113406333D01*
X29835546Y-113222604D01*
X29907234Y-113049534D01*
X30011312Y-112893770D01*
X30143770Y-112761312D01*
X30299534Y-112657234D01*
X30472604Y-112585546D01*
X30656333Y-112549000D01*
X30843667Y-112549000D01*
X31027396Y-112585546D01*
X31027396Y-112585546D01*
G37*
G36*
X43527396Y-112585546D02*
X43700466Y-112657234D01*
X43856230Y-112761312D01*
X43988688Y-112893770D01*
X44092766Y-113049534D01*
X44164454Y-113222604D01*
X44201000Y-113406333D01*
X44201000Y-113593667D01*
X44164454Y-113777396D01*
X44092766Y-113950466D01*
X43988688Y-114106230D01*
X43856230Y-114238688D01*
X43700466Y-114342766D01*
X43527396Y-114414454D01*
X43343667Y-114451000D01*
X43156333Y-114451000D01*
X42972604Y-114414454D01*
X42799534Y-114342766D01*
X42643770Y-114238688D01*
X42511312Y-114106230D01*
X42407234Y-113950466D01*
X42335546Y-113777396D01*
X42299000Y-113593667D01*
X42299000Y-113406333D01*
X42335546Y-113222604D01*
X42407234Y-113049534D01*
X42511312Y-112893770D01*
X42643770Y-112761312D01*
X42799534Y-112657234D01*
X42972604Y-112585546D01*
X43156333Y-112549000D01*
X43343667Y-112549000D01*
X43527396Y-112585546D01*
X43527396Y-112585546D01*
G37*
G36*
X71128600Y-110759867D02*
X71219059Y-110777860D01*
X71355732Y-110834472D01*
X71412715Y-110872547D01*
X71478738Y-110916662D01*
X71583338Y-111021262D01*
X71583340Y-111021265D01*
X71665528Y-111144268D01*
X71722140Y-111280941D01*
X71751000Y-111426033D01*
X71751000Y-111573967D01*
X71722140Y-111719059D01*
X71665528Y-111855732D01*
X71584446Y-111977079D01*
X71583338Y-111978738D01*
X71478738Y-112083338D01*
X71478735Y-112083340D01*
X71355732Y-112165528D01*
X71219059Y-112222140D01*
X71132004Y-112239456D01*
X71073969Y-112251000D01*
X70926031Y-112251000D01*
X70867996Y-112239456D01*
X70780941Y-112222140D01*
X70644268Y-112165528D01*
X70521265Y-112083340D01*
X70521262Y-112083338D01*
X70416662Y-111978738D01*
X70415554Y-111977079D01*
X70334472Y-111855732D01*
X70277860Y-111719059D01*
X70249000Y-111573967D01*
X70249000Y-111426033D01*
X70277860Y-111280941D01*
X70334472Y-111144268D01*
X70416660Y-111021265D01*
X70416662Y-111021262D01*
X70521262Y-110916662D01*
X70587285Y-110872547D01*
X70644268Y-110834472D01*
X70780941Y-110777860D01*
X70871400Y-110759867D01*
X70926031Y-110749000D01*
X71073969Y-110749000D01*
X71128600Y-110759867D01*
X71128600Y-110759867D01*
G37*
G36*
X68533665Y-110752622D02*
X68607222Y-110759867D01*
X68748786Y-110802810D01*
X68879252Y-110872546D01*
X68993606Y-110966394D01*
X69087454Y-111080748D01*
X69157190Y-111211214D01*
X69200133Y-111352778D01*
X69214633Y-111500000D01*
X69200133Y-111647222D01*
X69157190Y-111788786D01*
X69087454Y-111919252D01*
X68993606Y-112033606D01*
X68879252Y-112127454D01*
X68748786Y-112197190D01*
X68607222Y-112240133D01*
X68533665Y-112247378D01*
X68496888Y-112251000D01*
X68423112Y-112251000D01*
X68386335Y-112247378D01*
X68312778Y-112240133D01*
X68171214Y-112197190D01*
X68040748Y-112127454D01*
X67926394Y-112033606D01*
X67832546Y-111919252D01*
X67762810Y-111788786D01*
X67719867Y-111647222D01*
X67705367Y-111500000D01*
X67719867Y-111352778D01*
X67762810Y-111211214D01*
X67832546Y-111080748D01*
X67926394Y-110966394D01*
X68040748Y-110872546D01*
X68171214Y-110802810D01*
X68312778Y-110759867D01*
X68386335Y-110752622D01*
X68423112Y-110749000D01*
X68496888Y-110749000D01*
X68533665Y-110752622D01*
X68533665Y-110752622D01*
G37*
G36*
X31027396Y-107585546D02*
X31200466Y-107657234D01*
X31356230Y-107761312D01*
X31488688Y-107893770D01*
X31592766Y-108049534D01*
X31664454Y-108222604D01*
X31701000Y-108406333D01*
X31701000Y-108593667D01*
X31664454Y-108777396D01*
X31592766Y-108950466D01*
X31488688Y-109106230D01*
X31356230Y-109238688D01*
X31200466Y-109342766D01*
X31027396Y-109414454D01*
X30843667Y-109451000D01*
X30656333Y-109451000D01*
X30472604Y-109414454D01*
X30299534Y-109342766D01*
X30143770Y-109238688D01*
X30011312Y-109106230D01*
X29907234Y-108950466D01*
X29835546Y-108777396D01*
X29799000Y-108593667D01*
X29799000Y-108406333D01*
X29835546Y-108222604D01*
X29907234Y-108049534D01*
X30011312Y-107893770D01*
X30143770Y-107761312D01*
X30299534Y-107657234D01*
X30472604Y-107585546D01*
X30656333Y-107549000D01*
X30843667Y-107549000D01*
X31027396Y-107585546D01*
X31027396Y-107585546D01*
G37*
G36*
X43527396Y-107585546D02*
X43700466Y-107657234D01*
X43856230Y-107761312D01*
X43988688Y-107893770D01*
X44092766Y-108049534D01*
X44164454Y-108222604D01*
X44201000Y-108406333D01*
X44201000Y-108593667D01*
X44164454Y-108777396D01*
X44092766Y-108950466D01*
X43988688Y-109106230D01*
X43856230Y-109238688D01*
X43700466Y-109342766D01*
X43527396Y-109414454D01*
X43343667Y-109451000D01*
X43156333Y-109451000D01*
X42972604Y-109414454D01*
X42799534Y-109342766D01*
X42643770Y-109238688D01*
X42511312Y-109106230D01*
X42407234Y-108950466D01*
X42335546Y-108777396D01*
X42299000Y-108593667D01*
X42299000Y-108406333D01*
X42335546Y-108222604D01*
X42407234Y-108049534D01*
X42511312Y-107893770D01*
X42643770Y-107761312D01*
X42799534Y-107657234D01*
X42972604Y-107585546D01*
X43156333Y-107549000D01*
X43343667Y-107549000D01*
X43527396Y-107585546D01*
X43527396Y-107585546D01*
G37*
G36*
X102375256Y-104391298D02*
X102481579Y-104412447D01*
X102782042Y-104536903D01*
X102866992Y-104593665D01*
X103052454Y-104717587D01*
X103282413Y-104947546D01*
X103282415Y-104947549D01*
X103388443Y-105106230D01*
X103463098Y-105217960D01*
X103587553Y-105518422D01*
X103651000Y-105837389D01*
X103651000Y-106162611D01*
X103608702Y-106375256D01*
X103587553Y-106481579D01*
X103463097Y-106782042D01*
X103366383Y-106926784D01*
X103282413Y-107052454D01*
X103052454Y-107282413D01*
X103052451Y-107282415D01*
X102782042Y-107463097D01*
X102481579Y-107587553D01*
X102375256Y-107608702D01*
X102162611Y-107651000D01*
X101837389Y-107651000D01*
X101624744Y-107608702D01*
X101518421Y-107587553D01*
X101217958Y-107463097D01*
X100947549Y-107282415D01*
X100947546Y-107282413D01*
X100717587Y-107052454D01*
X100633617Y-106926784D01*
X100536903Y-106782042D01*
X100412447Y-106481579D01*
X100391298Y-106375256D01*
X100349000Y-106162611D01*
X100349000Y-105837389D01*
X100412447Y-105518422D01*
X100536902Y-105217960D01*
X100611558Y-105106230D01*
X100717585Y-104947549D01*
X100717587Y-104947546D01*
X100947546Y-104717587D01*
X101133008Y-104593665D01*
X101217958Y-104536903D01*
X101518421Y-104412447D01*
X101624744Y-104391298D01*
X101837389Y-104349000D01*
X102162611Y-104349000D01*
X102375256Y-104391298D01*
X102375256Y-104391298D01*
G37*
G36*
X37277396Y-103585546D02*
X37450466Y-103657234D01*
X37606230Y-103761312D01*
X37738688Y-103893770D01*
X37842766Y-104049534D01*
X37914454Y-104222604D01*
X37951000Y-104406333D01*
X37951000Y-104593667D01*
X37914454Y-104777396D01*
X37842766Y-104950466D01*
X37738688Y-105106230D01*
X37606230Y-105238688D01*
X37450466Y-105342766D01*
X37284346Y-105411575D01*
X37262735Y-105423126D01*
X37243793Y-105438672D01*
X37228247Y-105457614D01*
X37216696Y-105479224D01*
X37209583Y-105502674D01*
X37207181Y-105527060D01*
X37209583Y-105551446D01*
X37216696Y-105574895D01*
X37228247Y-105596506D01*
X37243793Y-105615448D01*
X37262735Y-105630994D01*
X37284336Y-105642539D01*
X37426784Y-105701544D01*
X37574354Y-105800147D01*
X37699853Y-105925646D01*
X37798456Y-106073216D01*
X37866376Y-106237188D01*
X37901000Y-106411259D01*
X37901000Y-106588741D01*
X37866376Y-106762812D01*
X37798456Y-106926784D01*
X37699853Y-107074354D01*
X37574354Y-107199853D01*
X37426784Y-107298456D01*
X37262812Y-107366376D01*
X37088741Y-107401000D01*
X36911259Y-107401000D01*
X36737188Y-107366376D01*
X36573216Y-107298456D01*
X36425646Y-107199853D01*
X36300147Y-107074354D01*
X36201544Y-106926784D01*
X36133624Y-106762812D01*
X36099000Y-106588741D01*
X36099000Y-106411259D01*
X36133624Y-106237188D01*
X36201544Y-106073216D01*
X36300147Y-105925646D01*
X36425646Y-105800147D01*
X36573216Y-105701544D01*
X36715664Y-105642539D01*
X36737265Y-105630994D01*
X36756207Y-105615448D01*
X36771753Y-105596506D01*
X36783304Y-105574895D01*
X36790417Y-105551446D01*
X36792819Y-105527060D01*
X36790417Y-105502674D01*
X36783304Y-105479225D01*
X36771753Y-105457614D01*
X36756207Y-105438672D01*
X36737265Y-105423126D01*
X36715654Y-105411575D01*
X36549534Y-105342766D01*
X36393770Y-105238688D01*
X36261312Y-105106230D01*
X36157234Y-104950466D01*
X36085546Y-104777396D01*
X36049000Y-104593667D01*
X36049000Y-104406333D01*
X36085546Y-104222604D01*
X36157234Y-104049534D01*
X36261312Y-103893770D01*
X36393770Y-103761312D01*
X36549534Y-103657234D01*
X36722604Y-103585546D01*
X36906333Y-103549000D01*
X37093667Y-103549000D01*
X37277396Y-103585546D01*
X37277396Y-103585546D01*
G37*
G36*
X37277396Y-98585546D02*
X37450466Y-98657234D01*
X37606230Y-98761312D01*
X37738688Y-98893770D01*
X37842766Y-99049534D01*
X37914454Y-99222604D01*
X37951000Y-99406333D01*
X37951000Y-99593667D01*
X37914454Y-99777396D01*
X37842766Y-99950466D01*
X37738688Y-100106230D01*
X37606230Y-100238688D01*
X37450466Y-100342766D01*
X37349675Y-100384515D01*
X37328064Y-100396066D01*
X37309122Y-100411612D01*
X37293576Y-100430554D01*
X37282025Y-100452164D01*
X37274912Y-100475614D01*
X37272510Y-100500000D01*
X37274912Y-100524386D01*
X37282025Y-100547835D01*
X37293576Y-100569446D01*
X37309122Y-100588388D01*
X37328064Y-100603934D01*
X37349675Y-100615485D01*
X37450466Y-100657234D01*
X37606230Y-100761312D01*
X37738688Y-100893770D01*
X37842766Y-101049534D01*
X37914454Y-101222604D01*
X37951000Y-101406333D01*
X37951000Y-101593667D01*
X37914454Y-101777396D01*
X37842766Y-101950466D01*
X37738688Y-102106230D01*
X37606230Y-102238688D01*
X37450466Y-102342766D01*
X37277396Y-102414454D01*
X37093667Y-102451000D01*
X36906333Y-102451000D01*
X36722604Y-102414454D01*
X36549534Y-102342766D01*
X36393770Y-102238688D01*
X36261312Y-102106230D01*
X36157234Y-101950466D01*
X36085546Y-101777396D01*
X36049000Y-101593667D01*
X36049000Y-101406333D01*
X36085546Y-101222604D01*
X36157234Y-101049534D01*
X36261312Y-100893770D01*
X36393770Y-100761312D01*
X36549534Y-100657234D01*
X36650325Y-100615485D01*
X36671936Y-100603934D01*
X36690878Y-100588388D01*
X36706424Y-100569446D01*
X36717975Y-100547836D01*
X36725088Y-100524386D01*
X36727490Y-100500000D01*
X36725088Y-100475614D01*
X36717975Y-100452165D01*
X36706424Y-100430554D01*
X36690878Y-100411612D01*
X36671936Y-100396066D01*
X36650325Y-100384515D01*
X36549534Y-100342766D01*
X36393770Y-100238688D01*
X36261312Y-100106230D01*
X36157234Y-99950466D01*
X36085546Y-99777396D01*
X36049000Y-99593667D01*
X36049000Y-99406333D01*
X36085546Y-99222604D01*
X36157234Y-99049534D01*
X36261312Y-98893770D01*
X36393770Y-98761312D01*
X36549534Y-98657234D01*
X36722604Y-98585546D01*
X36906333Y-98549000D01*
X37093667Y-98549000D01*
X37277396Y-98585546D01*
X37277396Y-98585546D01*
G37*
G36*
X43527396Y-96585546D02*
X43700466Y-96657234D01*
X43856230Y-96761312D01*
X43988688Y-96893770D01*
X44092766Y-97049534D01*
X44164454Y-97222604D01*
X44201000Y-97406333D01*
X44201000Y-97593667D01*
X44164454Y-97777396D01*
X44092766Y-97950466D01*
X43988688Y-98106230D01*
X43856230Y-98238688D01*
X43700466Y-98342766D01*
X43527396Y-98414454D01*
X43343667Y-98451000D01*
X43156333Y-98451000D01*
X42972604Y-98414454D01*
X42799534Y-98342766D01*
X42643770Y-98238688D01*
X42511312Y-98106230D01*
X42407234Y-97950466D01*
X42335546Y-97777396D01*
X42299000Y-97593667D01*
X42299000Y-97406333D01*
X42335546Y-97222604D01*
X42407234Y-97049534D01*
X42511312Y-96893770D01*
X42643770Y-96761312D01*
X42799534Y-96657234D01*
X42972604Y-96585546D01*
X43156333Y-96549000D01*
X43343667Y-96549000D01*
X43527396Y-96585546D01*
X43527396Y-96585546D01*
G37*
G36*
X31027396Y-96585546D02*
X31200466Y-96657234D01*
X31356230Y-96761312D01*
X31488688Y-96893770D01*
X31592766Y-97049534D01*
X31664454Y-97222604D01*
X31701000Y-97406333D01*
X31701000Y-97593667D01*
X31664454Y-97777396D01*
X31592766Y-97950466D01*
X31488688Y-98106230D01*
X31356230Y-98238688D01*
X31200466Y-98342766D01*
X31027396Y-98414454D01*
X30843667Y-98451000D01*
X30656333Y-98451000D01*
X30472604Y-98414454D01*
X30299534Y-98342766D01*
X30143770Y-98238688D01*
X30011312Y-98106230D01*
X29907234Y-97950466D01*
X29835546Y-97777396D01*
X29799000Y-97593667D01*
X29799000Y-97406333D01*
X29835546Y-97222604D01*
X29907234Y-97049534D01*
X30011312Y-96893770D01*
X30143770Y-96761312D01*
X30299534Y-96657234D01*
X30472604Y-96585546D01*
X30656333Y-96549000D01*
X30843667Y-96549000D01*
X31027396Y-96585546D01*
X31027396Y-96585546D01*
G37*
G36*
X31027396Y-91585546D02*
X31200466Y-91657234D01*
X31356230Y-91761312D01*
X31488688Y-91893770D01*
X31592766Y-92049534D01*
X31664454Y-92222604D01*
X31701000Y-92406333D01*
X31701000Y-92593667D01*
X31664454Y-92777396D01*
X31592766Y-92950466D01*
X31488688Y-93106230D01*
X31356230Y-93238688D01*
X31200466Y-93342766D01*
X31027396Y-93414454D01*
X30843667Y-93451000D01*
X30656333Y-93451000D01*
X30472604Y-93414454D01*
X30299534Y-93342766D01*
X30143770Y-93238688D01*
X30011312Y-93106230D01*
X29907234Y-92950466D01*
X29835546Y-92777396D01*
X29799000Y-92593667D01*
X29799000Y-92406333D01*
X29835546Y-92222604D01*
X29907234Y-92049534D01*
X30011312Y-91893770D01*
X30143770Y-91761312D01*
X30299534Y-91657234D01*
X30472604Y-91585546D01*
X30656333Y-91549000D01*
X30843667Y-91549000D01*
X31027396Y-91585546D01*
X31027396Y-91585546D01*
G37*
G36*
X43527396Y-91585546D02*
X43700466Y-91657234D01*
X43856230Y-91761312D01*
X43988688Y-91893770D01*
X44092766Y-92049534D01*
X44164454Y-92222604D01*
X44201000Y-92406333D01*
X44201000Y-92593667D01*
X44164454Y-92777396D01*
X44092766Y-92950466D01*
X43988688Y-93106230D01*
X43856230Y-93238688D01*
X43700466Y-93342766D01*
X43527396Y-93414454D01*
X43343667Y-93451000D01*
X43156333Y-93451000D01*
X42972604Y-93414454D01*
X42799534Y-93342766D01*
X42643770Y-93238688D01*
X42511312Y-93106230D01*
X42407234Y-92950466D01*
X42335546Y-92777396D01*
X42299000Y-92593667D01*
X42299000Y-92406333D01*
X42335546Y-92222604D01*
X42407234Y-92049534D01*
X42511312Y-91893770D01*
X42643770Y-91761312D01*
X42799534Y-91657234D01*
X42972604Y-91585546D01*
X43156333Y-91549000D01*
X43343667Y-91549000D01*
X43527396Y-91585546D01*
X43527396Y-91585546D01*
G37*
G36*
X37277396Y-87585546D02*
X37450466Y-87657234D01*
X37606230Y-87761312D01*
X37738688Y-87893770D01*
X37842766Y-88049534D01*
X37914454Y-88222604D01*
X37951000Y-88406333D01*
X37951000Y-88593667D01*
X37914454Y-88777396D01*
X37842766Y-88950466D01*
X37738688Y-89106230D01*
X37606230Y-89238688D01*
X37450466Y-89342766D01*
X37284346Y-89411575D01*
X37262735Y-89423126D01*
X37243793Y-89438672D01*
X37228247Y-89457614D01*
X37216696Y-89479224D01*
X37209583Y-89502674D01*
X37207181Y-89527060D01*
X37209583Y-89551446D01*
X37216696Y-89574895D01*
X37228247Y-89596506D01*
X37243793Y-89615448D01*
X37262735Y-89630994D01*
X37284336Y-89642539D01*
X37426784Y-89701544D01*
X37574354Y-89800147D01*
X37699853Y-89925646D01*
X37798456Y-90073216D01*
X37866376Y-90237188D01*
X37901000Y-90411259D01*
X37901000Y-90588741D01*
X37866376Y-90762812D01*
X37798456Y-90926784D01*
X37699853Y-91074354D01*
X37574354Y-91199853D01*
X37426784Y-91298456D01*
X37262812Y-91366376D01*
X37088741Y-91401000D01*
X36911259Y-91401000D01*
X36737188Y-91366376D01*
X36573216Y-91298456D01*
X36425646Y-91199853D01*
X36300147Y-91074354D01*
X36201544Y-90926784D01*
X36133624Y-90762812D01*
X36099000Y-90588741D01*
X36099000Y-90411259D01*
X36133624Y-90237188D01*
X36201544Y-90073216D01*
X36300147Y-89925646D01*
X36425646Y-89800147D01*
X36573216Y-89701544D01*
X36715664Y-89642539D01*
X36737265Y-89630994D01*
X36756207Y-89615448D01*
X36771753Y-89596506D01*
X36783304Y-89574895D01*
X36790417Y-89551446D01*
X36792819Y-89527060D01*
X36790417Y-89502674D01*
X36783304Y-89479225D01*
X36771753Y-89457614D01*
X36756207Y-89438672D01*
X36737265Y-89423126D01*
X36715654Y-89411575D01*
X36549534Y-89342766D01*
X36393770Y-89238688D01*
X36261312Y-89106230D01*
X36157234Y-88950466D01*
X36085546Y-88777396D01*
X36049000Y-88593667D01*
X36049000Y-88406333D01*
X36085546Y-88222604D01*
X36157234Y-88049534D01*
X36261312Y-87893770D01*
X36393770Y-87761312D01*
X36549534Y-87657234D01*
X36722604Y-87585546D01*
X36906333Y-87549000D01*
X37093667Y-87549000D01*
X37277396Y-87585546D01*
X37277396Y-87585546D01*
G37*
G36*
X37277396Y-82585546D02*
X37450466Y-82657234D01*
X37606230Y-82761312D01*
X37738688Y-82893770D01*
X37842766Y-83049534D01*
X37914454Y-83222604D01*
X37951000Y-83406333D01*
X37951000Y-83593667D01*
X37914454Y-83777396D01*
X37842766Y-83950466D01*
X37738688Y-84106230D01*
X37606230Y-84238688D01*
X37450466Y-84342766D01*
X37349675Y-84384515D01*
X37328064Y-84396066D01*
X37309122Y-84411612D01*
X37293576Y-84430554D01*
X37282025Y-84452164D01*
X37274912Y-84475614D01*
X37272510Y-84500000D01*
X37274912Y-84524386D01*
X37282025Y-84547835D01*
X37293576Y-84569446D01*
X37309122Y-84588388D01*
X37328064Y-84603934D01*
X37349675Y-84615485D01*
X37450466Y-84657234D01*
X37606230Y-84761312D01*
X37738688Y-84893770D01*
X37842766Y-85049534D01*
X37914454Y-85222604D01*
X37951000Y-85406333D01*
X37951000Y-85593667D01*
X37914454Y-85777396D01*
X37842766Y-85950466D01*
X37738688Y-86106230D01*
X37606230Y-86238688D01*
X37450466Y-86342766D01*
X37277396Y-86414454D01*
X37093667Y-86451000D01*
X36906333Y-86451000D01*
X36722604Y-86414454D01*
X36549534Y-86342766D01*
X36393770Y-86238688D01*
X36261312Y-86106230D01*
X36157234Y-85950466D01*
X36085546Y-85777396D01*
X36049000Y-85593667D01*
X36049000Y-85406333D01*
X36085546Y-85222604D01*
X36157234Y-85049534D01*
X36261312Y-84893770D01*
X36393770Y-84761312D01*
X36549534Y-84657234D01*
X36650325Y-84615485D01*
X36671936Y-84603934D01*
X36690878Y-84588388D01*
X36706424Y-84569446D01*
X36717975Y-84547836D01*
X36725088Y-84524386D01*
X36727490Y-84500000D01*
X36725088Y-84475614D01*
X36717975Y-84452165D01*
X36706424Y-84430554D01*
X36690878Y-84411612D01*
X36671936Y-84396066D01*
X36650325Y-84384515D01*
X36549534Y-84342766D01*
X36393770Y-84238688D01*
X36261312Y-84106230D01*
X36157234Y-83950466D01*
X36085546Y-83777396D01*
X36049000Y-83593667D01*
X36049000Y-83406333D01*
X36085546Y-83222604D01*
X36157234Y-83049534D01*
X36261312Y-82893770D01*
X36393770Y-82761312D01*
X36549534Y-82657234D01*
X36722604Y-82585546D01*
X36906333Y-82549000D01*
X37093667Y-82549000D01*
X37277396Y-82585546D01*
X37277396Y-82585546D01*
G37*
G36*
X43527396Y-80585546D02*
X43700466Y-80657234D01*
X43856230Y-80761312D01*
X43988688Y-80893770D01*
X44092766Y-81049534D01*
X44164454Y-81222604D01*
X44201000Y-81406333D01*
X44201000Y-81593667D01*
X44164454Y-81777396D01*
X44092766Y-81950466D01*
X43988688Y-82106230D01*
X43856230Y-82238688D01*
X43700466Y-82342766D01*
X43527396Y-82414454D01*
X43343667Y-82451000D01*
X43156333Y-82451000D01*
X42972604Y-82414454D01*
X42799534Y-82342766D01*
X42643770Y-82238688D01*
X42511312Y-82106230D01*
X42407234Y-81950466D01*
X42335546Y-81777396D01*
X42299000Y-81593667D01*
X42299000Y-81406333D01*
X42335546Y-81222604D01*
X42407234Y-81049534D01*
X42511312Y-80893770D01*
X42643770Y-80761312D01*
X42799534Y-80657234D01*
X42972604Y-80585546D01*
X43156333Y-80549000D01*
X43343667Y-80549000D01*
X43527396Y-80585546D01*
X43527396Y-80585546D01*
G37*
G36*
X31027396Y-80585546D02*
X31200466Y-80657234D01*
X31356230Y-80761312D01*
X31488688Y-80893770D01*
X31592766Y-81049534D01*
X31664454Y-81222604D01*
X31701000Y-81406333D01*
X31701000Y-81593667D01*
X31664454Y-81777396D01*
X31592766Y-81950466D01*
X31488688Y-82106230D01*
X31356230Y-82238688D01*
X31200466Y-82342766D01*
X31027396Y-82414454D01*
X30843667Y-82451000D01*
X30656333Y-82451000D01*
X30472604Y-82414454D01*
X30299534Y-82342766D01*
X30143770Y-82238688D01*
X30011312Y-82106230D01*
X29907234Y-81950466D01*
X29835546Y-81777396D01*
X29799000Y-81593667D01*
X29799000Y-81406333D01*
X29835546Y-81222604D01*
X29907234Y-81049534D01*
X30011312Y-80893770D01*
X30143770Y-80761312D01*
X30299534Y-80657234D01*
X30472604Y-80585546D01*
X30656333Y-80549000D01*
X30843667Y-80549000D01*
X31027396Y-80585546D01*
X31027396Y-80585546D01*
G37*
G36*
X43527396Y-75585546D02*
X43700466Y-75657234D01*
X43856230Y-75761312D01*
X43988688Y-75893770D01*
X44092766Y-76049534D01*
X44164454Y-76222604D01*
X44201000Y-76406333D01*
X44201000Y-76593667D01*
X44164454Y-76777396D01*
X44092766Y-76950466D01*
X43988688Y-77106230D01*
X43856230Y-77238688D01*
X43700466Y-77342766D01*
X43527396Y-77414454D01*
X43343667Y-77451000D01*
X43156333Y-77451000D01*
X42972604Y-77414454D01*
X42799534Y-77342766D01*
X42643770Y-77238688D01*
X42511312Y-77106230D01*
X42407234Y-76950466D01*
X42335546Y-76777396D01*
X42299000Y-76593667D01*
X42299000Y-76406333D01*
X42335546Y-76222604D01*
X42407234Y-76049534D01*
X42511312Y-75893770D01*
X42643770Y-75761312D01*
X42799534Y-75657234D01*
X42972604Y-75585546D01*
X43156333Y-75549000D01*
X43343667Y-75549000D01*
X43527396Y-75585546D01*
X43527396Y-75585546D01*
G37*
G36*
X31027396Y-75585546D02*
X31200466Y-75657234D01*
X31356230Y-75761312D01*
X31488688Y-75893770D01*
X31592766Y-76049534D01*
X31664454Y-76222604D01*
X31701000Y-76406333D01*
X31701000Y-76593667D01*
X31664454Y-76777396D01*
X31592766Y-76950466D01*
X31488688Y-77106230D01*
X31356230Y-77238688D01*
X31200466Y-77342766D01*
X31027396Y-77414454D01*
X30843667Y-77451000D01*
X30656333Y-77451000D01*
X30472604Y-77414454D01*
X30299534Y-77342766D01*
X30143770Y-77238688D01*
X30011312Y-77106230D01*
X29907234Y-76950466D01*
X29835546Y-76777396D01*
X29799000Y-76593667D01*
X29799000Y-76406333D01*
X29835546Y-76222604D01*
X29907234Y-76049534D01*
X30011312Y-75893770D01*
X30143770Y-75761312D01*
X30299534Y-75657234D01*
X30472604Y-75585546D01*
X30656333Y-75549000D01*
X30843667Y-75549000D01*
X31027396Y-75585546D01*
X31027396Y-75585546D01*
G37*
G36*
X37277396Y-71585546D02*
X37450466Y-71657234D01*
X37606230Y-71761312D01*
X37738688Y-71893770D01*
X37842766Y-72049534D01*
X37914454Y-72222604D01*
X37951000Y-72406333D01*
X37951000Y-72593667D01*
X37914454Y-72777396D01*
X37842766Y-72950466D01*
X37738688Y-73106230D01*
X37606230Y-73238688D01*
X37450466Y-73342766D01*
X37284346Y-73411575D01*
X37262735Y-73423126D01*
X37243793Y-73438672D01*
X37228247Y-73457614D01*
X37216696Y-73479224D01*
X37209583Y-73502674D01*
X37207181Y-73527060D01*
X37209583Y-73551446D01*
X37216696Y-73574895D01*
X37228247Y-73596506D01*
X37243793Y-73615448D01*
X37262735Y-73630994D01*
X37284336Y-73642539D01*
X37426784Y-73701544D01*
X37574354Y-73800147D01*
X37699853Y-73925646D01*
X37798456Y-74073216D01*
X37866376Y-74237188D01*
X37901000Y-74411259D01*
X37901000Y-74588741D01*
X37866376Y-74762812D01*
X37798456Y-74926784D01*
X37699853Y-75074354D01*
X37574354Y-75199853D01*
X37426784Y-75298456D01*
X37262812Y-75366376D01*
X37088741Y-75401000D01*
X36911259Y-75401000D01*
X36737188Y-75366376D01*
X36573216Y-75298456D01*
X36425646Y-75199853D01*
X36300147Y-75074354D01*
X36201544Y-74926784D01*
X36133624Y-74762812D01*
X36099000Y-74588741D01*
X36099000Y-74411259D01*
X36133624Y-74237188D01*
X36201544Y-74073216D01*
X36300147Y-73925646D01*
X36425646Y-73800147D01*
X36573216Y-73701544D01*
X36715664Y-73642539D01*
X36737265Y-73630994D01*
X36756207Y-73615448D01*
X36771753Y-73596506D01*
X36783304Y-73574895D01*
X36790417Y-73551446D01*
X36792819Y-73527060D01*
X36790417Y-73502674D01*
X36783304Y-73479225D01*
X36771753Y-73457614D01*
X36756207Y-73438672D01*
X36737265Y-73423126D01*
X36715654Y-73411575D01*
X36549534Y-73342766D01*
X36393770Y-73238688D01*
X36261312Y-73106230D01*
X36157234Y-72950466D01*
X36085546Y-72777396D01*
X36049000Y-72593667D01*
X36049000Y-72406333D01*
X36085546Y-72222604D01*
X36157234Y-72049534D01*
X36261312Y-71893770D01*
X36393770Y-71761312D01*
X36549534Y-71657234D01*
X36722604Y-71585546D01*
X36906333Y-71549000D01*
X37093667Y-71549000D01*
X37277396Y-71585546D01*
X37277396Y-71585546D01*
G37*
G36*
X37277396Y-66585546D02*
X37450466Y-66657234D01*
X37606230Y-66761312D01*
X37738688Y-66893770D01*
X37842766Y-67049534D01*
X37914454Y-67222604D01*
X37951000Y-67406333D01*
X37951000Y-67593667D01*
X37914454Y-67777396D01*
X37842766Y-67950466D01*
X37738688Y-68106230D01*
X37606230Y-68238688D01*
X37450466Y-68342766D01*
X37349675Y-68384515D01*
X37328064Y-68396066D01*
X37309122Y-68411612D01*
X37293576Y-68430554D01*
X37282025Y-68452164D01*
X37274912Y-68475614D01*
X37272510Y-68500000D01*
X37274912Y-68524386D01*
X37282025Y-68547835D01*
X37293576Y-68569446D01*
X37309122Y-68588388D01*
X37328064Y-68603934D01*
X37349675Y-68615485D01*
X37450466Y-68657234D01*
X37606230Y-68761312D01*
X37738688Y-68893770D01*
X37842766Y-69049534D01*
X37914454Y-69222604D01*
X37951000Y-69406333D01*
X37951000Y-69593667D01*
X37914454Y-69777396D01*
X37842766Y-69950466D01*
X37738688Y-70106230D01*
X37606230Y-70238688D01*
X37450466Y-70342766D01*
X37277396Y-70414454D01*
X37093667Y-70451000D01*
X36906333Y-70451000D01*
X36722604Y-70414454D01*
X36549534Y-70342766D01*
X36393770Y-70238688D01*
X36261312Y-70106230D01*
X36157234Y-69950466D01*
X36085546Y-69777396D01*
X36049000Y-69593667D01*
X36049000Y-69406333D01*
X36085546Y-69222604D01*
X36157234Y-69049534D01*
X36261312Y-68893770D01*
X36393770Y-68761312D01*
X36549534Y-68657234D01*
X36650325Y-68615485D01*
X36671936Y-68603934D01*
X36690878Y-68588388D01*
X36706424Y-68569446D01*
X36717975Y-68547836D01*
X36725088Y-68524386D01*
X36727490Y-68500000D01*
X36725088Y-68475614D01*
X36717975Y-68452165D01*
X36706424Y-68430554D01*
X36690878Y-68411612D01*
X36671936Y-68396066D01*
X36650325Y-68384515D01*
X36549534Y-68342766D01*
X36393770Y-68238688D01*
X36261312Y-68106230D01*
X36157234Y-67950466D01*
X36085546Y-67777396D01*
X36049000Y-67593667D01*
X36049000Y-67406333D01*
X36085546Y-67222604D01*
X36157234Y-67049534D01*
X36261312Y-66893770D01*
X36393770Y-66761312D01*
X36549534Y-66657234D01*
X36722604Y-66585546D01*
X36906333Y-66549000D01*
X37093667Y-66549000D01*
X37277396Y-66585546D01*
X37277396Y-66585546D01*
G37*
G36*
X31027396Y-64585546D02*
X31200466Y-64657234D01*
X31356230Y-64761312D01*
X31488688Y-64893770D01*
X31592766Y-65049534D01*
X31664454Y-65222604D01*
X31701000Y-65406333D01*
X31701000Y-65593667D01*
X31664454Y-65777396D01*
X31592766Y-65950466D01*
X31488688Y-66106230D01*
X31356230Y-66238688D01*
X31200466Y-66342766D01*
X31027396Y-66414454D01*
X30843667Y-66451000D01*
X30656333Y-66451000D01*
X30472604Y-66414454D01*
X30299534Y-66342766D01*
X30143770Y-66238688D01*
X30011312Y-66106230D01*
X29907234Y-65950466D01*
X29835546Y-65777396D01*
X29799000Y-65593667D01*
X29799000Y-65406333D01*
X29835546Y-65222604D01*
X29907234Y-65049534D01*
X30011312Y-64893770D01*
X30143770Y-64761312D01*
X30299534Y-64657234D01*
X30472604Y-64585546D01*
X30656333Y-64549000D01*
X30843667Y-64549000D01*
X31027396Y-64585546D01*
X31027396Y-64585546D01*
G37*
G36*
X43527396Y-64585546D02*
X43700466Y-64657234D01*
X43856230Y-64761312D01*
X43988688Y-64893770D01*
X44092766Y-65049534D01*
X44164454Y-65222604D01*
X44201000Y-65406333D01*
X44201000Y-65593667D01*
X44164454Y-65777396D01*
X44092766Y-65950466D01*
X43988688Y-66106230D01*
X43856230Y-66238688D01*
X43700466Y-66342766D01*
X43527396Y-66414454D01*
X43343667Y-66451000D01*
X43156333Y-66451000D01*
X42972604Y-66414454D01*
X42799534Y-66342766D01*
X42643770Y-66238688D01*
X42511312Y-66106230D01*
X42407234Y-65950466D01*
X42335546Y-65777396D01*
X42299000Y-65593667D01*
X42299000Y-65406333D01*
X42335546Y-65222604D01*
X42407234Y-65049534D01*
X42511312Y-64893770D01*
X42643770Y-64761312D01*
X42799534Y-64657234D01*
X42972604Y-64585546D01*
X43156333Y-64549000D01*
X43343667Y-64549000D01*
X43527396Y-64585546D01*
X43527396Y-64585546D01*
G37*
G36*
X43527396Y-59585546D02*
X43700466Y-59657234D01*
X43856230Y-59761312D01*
X43988688Y-59893770D01*
X44092766Y-60049534D01*
X44164454Y-60222604D01*
X44201000Y-60406333D01*
X44201000Y-60593667D01*
X44164454Y-60777396D01*
X44092766Y-60950466D01*
X43988688Y-61106230D01*
X43856230Y-61238688D01*
X43700466Y-61342766D01*
X43527396Y-61414454D01*
X43343667Y-61451000D01*
X43156333Y-61451000D01*
X42972604Y-61414454D01*
X42799534Y-61342766D01*
X42643770Y-61238688D01*
X42511312Y-61106230D01*
X42407234Y-60950466D01*
X42335546Y-60777396D01*
X42299000Y-60593667D01*
X42299000Y-60406333D01*
X42335546Y-60222604D01*
X42407234Y-60049534D01*
X42511312Y-59893770D01*
X42643770Y-59761312D01*
X42799534Y-59657234D01*
X42972604Y-59585546D01*
X43156333Y-59549000D01*
X43343667Y-59549000D01*
X43527396Y-59585546D01*
X43527396Y-59585546D01*
G37*
G36*
X31027396Y-59585546D02*
X31200466Y-59657234D01*
X31356230Y-59761312D01*
X31488688Y-59893770D01*
X31592766Y-60049534D01*
X31664454Y-60222604D01*
X31701000Y-60406333D01*
X31701000Y-60593667D01*
X31664454Y-60777396D01*
X31592766Y-60950466D01*
X31488688Y-61106230D01*
X31356230Y-61238688D01*
X31200466Y-61342766D01*
X31027396Y-61414454D01*
X30843667Y-61451000D01*
X30656333Y-61451000D01*
X30472604Y-61414454D01*
X30299534Y-61342766D01*
X30143770Y-61238688D01*
X30011312Y-61106230D01*
X29907234Y-60950466D01*
X29835546Y-60777396D01*
X29799000Y-60593667D01*
X29799000Y-60406333D01*
X29835546Y-60222604D01*
X29907234Y-60049534D01*
X30011312Y-59893770D01*
X30143770Y-59761312D01*
X30299534Y-59657234D01*
X30472604Y-59585546D01*
X30656333Y-59549000D01*
X30843667Y-59549000D01*
X31027396Y-59585546D01*
X31027396Y-59585546D01*
G37*
G36*
X37277396Y-55585546D02*
X37450466Y-55657234D01*
X37606230Y-55761312D01*
X37738688Y-55893770D01*
X37842766Y-56049534D01*
X37914454Y-56222604D01*
X37951000Y-56406333D01*
X37951000Y-56593667D01*
X37914454Y-56777396D01*
X37842766Y-56950466D01*
X37738688Y-57106230D01*
X37606230Y-57238688D01*
X37450466Y-57342766D01*
X37284346Y-57411575D01*
X37262735Y-57423126D01*
X37243793Y-57438672D01*
X37228247Y-57457614D01*
X37216696Y-57479224D01*
X37209583Y-57502674D01*
X37207181Y-57527060D01*
X37209583Y-57551446D01*
X37216696Y-57574895D01*
X37228247Y-57596506D01*
X37243793Y-57615448D01*
X37262735Y-57630994D01*
X37284336Y-57642539D01*
X37426784Y-57701544D01*
X37574354Y-57800147D01*
X37699853Y-57925646D01*
X37798456Y-58073216D01*
X37866376Y-58237188D01*
X37901000Y-58411259D01*
X37901000Y-58588741D01*
X37866376Y-58762812D01*
X37798456Y-58926784D01*
X37699853Y-59074354D01*
X37574354Y-59199853D01*
X37426784Y-59298456D01*
X37262812Y-59366376D01*
X37088741Y-59401000D01*
X36911259Y-59401000D01*
X36737188Y-59366376D01*
X36573216Y-59298456D01*
X36425646Y-59199853D01*
X36300147Y-59074354D01*
X36201544Y-58926784D01*
X36133624Y-58762812D01*
X36099000Y-58588741D01*
X36099000Y-58411259D01*
X36133624Y-58237188D01*
X36201544Y-58073216D01*
X36300147Y-57925646D01*
X36425646Y-57800147D01*
X36573216Y-57701544D01*
X36715664Y-57642539D01*
X36737265Y-57630994D01*
X36756207Y-57615448D01*
X36771753Y-57596506D01*
X36783304Y-57574895D01*
X36790417Y-57551446D01*
X36792819Y-57527060D01*
X36790417Y-57502674D01*
X36783304Y-57479225D01*
X36771753Y-57457614D01*
X36756207Y-57438672D01*
X36737265Y-57423126D01*
X36715654Y-57411575D01*
X36549534Y-57342766D01*
X36393770Y-57238688D01*
X36261312Y-57106230D01*
X36157234Y-56950466D01*
X36085546Y-56777396D01*
X36049000Y-56593667D01*
X36049000Y-56406333D01*
X36085546Y-56222604D01*
X36157234Y-56049534D01*
X36261312Y-55893770D01*
X36393770Y-55761312D01*
X36549534Y-55657234D01*
X36722604Y-55585546D01*
X36906333Y-55549000D01*
X37093667Y-55549000D01*
X37277396Y-55585546D01*
X37277396Y-55585546D01*
G37*
G36*
X37277396Y-50585546D02*
X37450466Y-50657234D01*
X37606230Y-50761312D01*
X37738688Y-50893770D01*
X37842766Y-51049534D01*
X37914454Y-51222604D01*
X37951000Y-51406333D01*
X37951000Y-51593667D01*
X37914454Y-51777396D01*
X37842766Y-51950466D01*
X37738688Y-52106230D01*
X37606230Y-52238688D01*
X37450466Y-52342766D01*
X37349675Y-52384515D01*
X37328064Y-52396066D01*
X37309122Y-52411612D01*
X37293576Y-52430554D01*
X37282025Y-52452164D01*
X37274912Y-52475614D01*
X37272510Y-52500000D01*
X37274912Y-52524386D01*
X37282025Y-52547835D01*
X37293576Y-52569446D01*
X37309122Y-52588388D01*
X37328064Y-52603934D01*
X37349675Y-52615485D01*
X37450466Y-52657234D01*
X37606230Y-52761312D01*
X37738688Y-52893770D01*
X37842766Y-53049534D01*
X37914454Y-53222604D01*
X37951000Y-53406333D01*
X37951000Y-53593667D01*
X37914454Y-53777396D01*
X37842766Y-53950466D01*
X37738688Y-54106230D01*
X37606230Y-54238688D01*
X37450466Y-54342766D01*
X37277396Y-54414454D01*
X37093667Y-54451000D01*
X36906333Y-54451000D01*
X36722604Y-54414454D01*
X36549534Y-54342766D01*
X36393770Y-54238688D01*
X36261312Y-54106230D01*
X36157234Y-53950466D01*
X36085546Y-53777396D01*
X36049000Y-53593667D01*
X36049000Y-53406333D01*
X36085546Y-53222604D01*
X36157234Y-53049534D01*
X36261312Y-52893770D01*
X36393770Y-52761312D01*
X36549534Y-52657234D01*
X36650325Y-52615485D01*
X36671936Y-52603934D01*
X36690878Y-52588388D01*
X36706424Y-52569446D01*
X36717975Y-52547836D01*
X36725088Y-52524386D01*
X36727490Y-52500000D01*
X36725088Y-52475614D01*
X36717975Y-52452165D01*
X36706424Y-52430554D01*
X36690878Y-52411612D01*
X36671936Y-52396066D01*
X36650325Y-52384515D01*
X36549534Y-52342766D01*
X36393770Y-52238688D01*
X36261312Y-52106230D01*
X36157234Y-51950466D01*
X36085546Y-51777396D01*
X36049000Y-51593667D01*
X36049000Y-51406333D01*
X36085546Y-51222604D01*
X36157234Y-51049534D01*
X36261312Y-50893770D01*
X36393770Y-50761312D01*
X36549534Y-50657234D01*
X36722604Y-50585546D01*
X36906333Y-50549000D01*
X37093667Y-50549000D01*
X37277396Y-50585546D01*
X37277396Y-50585546D01*
G37*
G36*
X31027396Y-48585546D02*
X31200466Y-48657234D01*
X31356230Y-48761312D01*
X31488688Y-48893770D01*
X31592766Y-49049534D01*
X31664454Y-49222604D01*
X31701000Y-49406333D01*
X31701000Y-49593667D01*
X31664454Y-49777396D01*
X31592766Y-49950466D01*
X31488688Y-50106230D01*
X31356230Y-50238688D01*
X31200466Y-50342766D01*
X31027396Y-50414454D01*
X30843667Y-50451000D01*
X30656333Y-50451000D01*
X30472604Y-50414454D01*
X30299534Y-50342766D01*
X30143770Y-50238688D01*
X30011312Y-50106230D01*
X29907234Y-49950466D01*
X29835546Y-49777396D01*
X29799000Y-49593667D01*
X29799000Y-49406333D01*
X29835546Y-49222604D01*
X29907234Y-49049534D01*
X30011312Y-48893770D01*
X30143770Y-48761312D01*
X30299534Y-48657234D01*
X30472604Y-48585546D01*
X30656333Y-48549000D01*
X30843667Y-48549000D01*
X31027396Y-48585546D01*
X31027396Y-48585546D01*
G37*
G36*
X43527396Y-48585546D02*
X43700466Y-48657234D01*
X43856230Y-48761312D01*
X43988688Y-48893770D01*
X44092766Y-49049534D01*
X44164454Y-49222604D01*
X44201000Y-49406333D01*
X44201000Y-49593667D01*
X44164454Y-49777396D01*
X44092766Y-49950466D01*
X43988688Y-50106230D01*
X43856230Y-50238688D01*
X43700466Y-50342766D01*
X43527396Y-50414454D01*
X43343667Y-50451000D01*
X43156333Y-50451000D01*
X42972604Y-50414454D01*
X42799534Y-50342766D01*
X42643770Y-50238688D01*
X42511312Y-50106230D01*
X42407234Y-49950466D01*
X42335546Y-49777396D01*
X42299000Y-49593667D01*
X42299000Y-49406333D01*
X42335546Y-49222604D01*
X42407234Y-49049534D01*
X42511312Y-48893770D01*
X42643770Y-48761312D01*
X42799534Y-48657234D01*
X42972604Y-48585546D01*
X43156333Y-48549000D01*
X43343667Y-48549000D01*
X43527396Y-48585546D01*
X43527396Y-48585546D01*
G37*
G36*
X43527396Y-43585546D02*
X43700466Y-43657234D01*
X43856230Y-43761312D01*
X43988688Y-43893770D01*
X44092766Y-44049534D01*
X44164454Y-44222604D01*
X44201000Y-44406333D01*
X44201000Y-44593667D01*
X44164454Y-44777396D01*
X44092766Y-44950466D01*
X43988688Y-45106230D01*
X43856230Y-45238688D01*
X43700466Y-45342766D01*
X43527396Y-45414454D01*
X43343667Y-45451000D01*
X43156333Y-45451000D01*
X42972604Y-45414454D01*
X42799534Y-45342766D01*
X42643770Y-45238688D01*
X42511312Y-45106230D01*
X42407234Y-44950466D01*
X42335546Y-44777396D01*
X42299000Y-44593667D01*
X42299000Y-44406333D01*
X42335546Y-44222604D01*
X42407234Y-44049534D01*
X42511312Y-43893770D01*
X42643770Y-43761312D01*
X42799534Y-43657234D01*
X42972604Y-43585546D01*
X43156333Y-43549000D01*
X43343667Y-43549000D01*
X43527396Y-43585546D01*
X43527396Y-43585546D01*
G37*
G36*
X31027396Y-43585546D02*
X31200466Y-43657234D01*
X31356230Y-43761312D01*
X31488688Y-43893770D01*
X31592766Y-44049534D01*
X31664454Y-44222604D01*
X31701000Y-44406333D01*
X31701000Y-44593667D01*
X31664454Y-44777396D01*
X31592766Y-44950466D01*
X31488688Y-45106230D01*
X31356230Y-45238688D01*
X31200466Y-45342766D01*
X31027396Y-45414454D01*
X30843667Y-45451000D01*
X30656333Y-45451000D01*
X30472604Y-45414454D01*
X30299534Y-45342766D01*
X30143770Y-45238688D01*
X30011312Y-45106230D01*
X29907234Y-44950466D01*
X29835546Y-44777396D01*
X29799000Y-44593667D01*
X29799000Y-44406333D01*
X29835546Y-44222604D01*
X29907234Y-44049534D01*
X30011312Y-43893770D01*
X30143770Y-43761312D01*
X30299534Y-43657234D01*
X30472604Y-43585546D01*
X30656333Y-43549000D01*
X30843667Y-43549000D01*
X31027396Y-43585546D01*
X31027396Y-43585546D01*
G37*
G36*
X37277396Y-39585546D02*
X37450466Y-39657234D01*
X37606230Y-39761312D01*
X37738688Y-39893770D01*
X37842766Y-40049534D01*
X37914454Y-40222604D01*
X37951000Y-40406333D01*
X37951000Y-40593667D01*
X37914454Y-40777396D01*
X37842766Y-40950466D01*
X37738688Y-41106230D01*
X37606230Y-41238688D01*
X37450466Y-41342766D01*
X37284346Y-41411575D01*
X37262735Y-41423126D01*
X37243793Y-41438672D01*
X37228247Y-41457614D01*
X37216696Y-41479224D01*
X37209583Y-41502674D01*
X37207181Y-41527060D01*
X37209583Y-41551446D01*
X37216696Y-41574895D01*
X37228247Y-41596506D01*
X37243793Y-41615448D01*
X37262735Y-41630994D01*
X37284336Y-41642539D01*
X37426784Y-41701544D01*
X37574354Y-41800147D01*
X37699853Y-41925646D01*
X37798456Y-42073216D01*
X37866376Y-42237188D01*
X37901000Y-42411259D01*
X37901000Y-42588741D01*
X37866376Y-42762812D01*
X37798456Y-42926784D01*
X37699853Y-43074354D01*
X37574354Y-43199853D01*
X37426784Y-43298456D01*
X37262812Y-43366376D01*
X37088741Y-43401000D01*
X36911259Y-43401000D01*
X36737188Y-43366376D01*
X36573216Y-43298456D01*
X36425646Y-43199853D01*
X36300147Y-43074354D01*
X36201544Y-42926784D01*
X36133624Y-42762812D01*
X36099000Y-42588741D01*
X36099000Y-42411259D01*
X36133624Y-42237188D01*
X36201544Y-42073216D01*
X36300147Y-41925646D01*
X36425646Y-41800147D01*
X36573216Y-41701544D01*
X36715664Y-41642539D01*
X36737265Y-41630994D01*
X36756207Y-41615448D01*
X36771753Y-41596506D01*
X36783304Y-41574895D01*
X36790417Y-41551446D01*
X36792819Y-41527060D01*
X36790417Y-41502674D01*
X36783304Y-41479225D01*
X36771753Y-41457614D01*
X36756207Y-41438672D01*
X36737265Y-41423126D01*
X36715654Y-41411575D01*
X36549534Y-41342766D01*
X36393770Y-41238688D01*
X36261312Y-41106230D01*
X36157234Y-40950466D01*
X36085546Y-40777396D01*
X36049000Y-40593667D01*
X36049000Y-40406333D01*
X36085546Y-40222604D01*
X36157234Y-40049534D01*
X36261312Y-39893770D01*
X36393770Y-39761312D01*
X36549534Y-39657234D01*
X36722604Y-39585546D01*
X36906333Y-39549000D01*
X37093667Y-39549000D01*
X37277396Y-39585546D01*
X37277396Y-39585546D01*
G37*
G36*
X112375256Y-33391298D02*
X112481579Y-33412447D01*
X112782042Y-33536903D01*
X113048852Y-33715180D01*
X113052454Y-33717587D01*
X113282413Y-33947546D01*
X113463098Y-34217960D01*
X113587553Y-34518422D01*
X113651000Y-34837389D01*
X113651000Y-35162611D01*
X113587553Y-35481578D01*
X113463098Y-35782040D01*
X113282413Y-36052454D01*
X113052454Y-36282413D01*
X113052451Y-36282415D01*
X112782042Y-36463097D01*
X112481579Y-36587553D01*
X112375256Y-36608702D01*
X112162611Y-36651000D01*
X111837389Y-36651000D01*
X111624744Y-36608702D01*
X111518421Y-36587553D01*
X111217958Y-36463097D01*
X110947549Y-36282415D01*
X110947546Y-36282413D01*
X110717587Y-36052454D01*
X110536902Y-35782040D01*
X110412447Y-35481578D01*
X110349000Y-35162611D01*
X110349000Y-34837389D01*
X110412447Y-34518422D01*
X110536902Y-34217960D01*
X110717587Y-33947546D01*
X110947546Y-33717587D01*
X110951148Y-33715180D01*
X111217958Y-33536903D01*
X111518421Y-33412447D01*
X111624744Y-33391298D01*
X111837389Y-33349000D01*
X112162611Y-33349000D01*
X112375256Y-33391298D01*
X112375256Y-33391298D01*
G37*
G36*
X30375256Y-33391298D02*
X30481579Y-33412447D01*
X30782042Y-33536903D01*
X31048852Y-33715180D01*
X31052454Y-33717587D01*
X31282413Y-33947546D01*
X31463098Y-34217960D01*
X31587553Y-34518422D01*
X31651000Y-34837389D01*
X31651000Y-35162611D01*
X31587553Y-35481578D01*
X31463098Y-35782040D01*
X31282413Y-36052454D01*
X31052454Y-36282413D01*
X31052451Y-36282415D01*
X30782042Y-36463097D01*
X30481579Y-36587553D01*
X30375256Y-36608702D01*
X30162611Y-36651000D01*
X29837389Y-36651000D01*
X29624744Y-36608702D01*
X29518421Y-36587553D01*
X29217958Y-36463097D01*
X28947549Y-36282415D01*
X28947546Y-36282413D01*
X28717587Y-36052454D01*
X28536902Y-35782040D01*
X28412447Y-35481578D01*
X28349000Y-35162611D01*
X28349000Y-34837389D01*
X28412447Y-34518422D01*
X28536902Y-34217960D01*
X28717587Y-33947546D01*
X28947546Y-33717587D01*
X28951148Y-33715180D01*
X29217958Y-33536903D01*
X29518421Y-33412447D01*
X29624744Y-33391298D01*
X29837389Y-33349000D01*
X30162611Y-33349000D01*
X30375256Y-33391298D01*
X30375256Y-33391298D01*
G37*
G36*
X184375256Y-33391298D02*
X184481579Y-33412447D01*
X184782042Y-33536903D01*
X185048852Y-33715180D01*
X185052454Y-33717587D01*
X185282413Y-33947546D01*
X185463098Y-34217960D01*
X185587553Y-34518422D01*
X185651000Y-34837389D01*
X185651000Y-35162611D01*
X185587553Y-35481578D01*
X185463098Y-35782040D01*
X185282413Y-36052454D01*
X185052454Y-36282413D01*
X185052451Y-36282415D01*
X184782042Y-36463097D01*
X184481579Y-36587553D01*
X184375256Y-36608702D01*
X184162611Y-36651000D01*
X183837389Y-36651000D01*
X183624744Y-36608702D01*
X183518421Y-36587553D01*
X183217958Y-36463097D01*
X182947549Y-36282415D01*
X182947546Y-36282413D01*
X182717587Y-36052454D01*
X182536902Y-35782040D01*
X182412447Y-35481578D01*
X182349000Y-35162611D01*
X182349000Y-34837389D01*
X182412447Y-34518422D01*
X182536902Y-34217960D01*
X182717587Y-33947546D01*
X182947546Y-33717587D01*
X182951148Y-33715180D01*
X183217958Y-33536903D01*
X183518421Y-33412447D01*
X183624744Y-33391298D01*
X183837389Y-33349000D01*
X184162611Y-33349000D01*
X184375256Y-33391298D01*
X184375256Y-33391298D01*
G37*
M02*
