M48
;DRILL file {KiCad (5.0.1-3-g963ef8bb5)} date 2021 April 06, Tuesday 11:18:08
;FORMAT={-:-/ absolute / metric / decimal}
FMAT,2
METRIC,TZ
T1C0.300
T2C0.400
T3C0.600
T4C0.700
T5C0.750
T6C1.000
T7C1.200
T8C1.700
T9C2.300
T10C3.200
%
G90
G05
M71
T1
X29.4Y-133.8
X29.4Y-149.8
X33.05Y-117.8
X33.55Y-101.8
X34.05Y-85.8
X34.55Y-69.8
X35.2Y-53.8
X39.65Y-100.2
X40.2Y-84.2
X40.75Y-68.2
X43.5Y-148.1
X44.7Y-68.2
X44.7Y-84.2
X44.7Y-100.2
X46.Y-137.5
X47.5Y-146.
X50.5Y-137.5
X50.8Y-128.5
X50.8Y-129.5
X50.8Y-130.5
X50.8Y-131.5
X50.8Y-132.5
X50.8Y-133.5
X50.8Y-134.5
X51.8Y-138.4
X54.4Y-128.
X54.5Y-122.5
X55.1Y-139.5
X56.4Y-149.1
X57.Y-133.
X57.9Y-141.4
X57.9Y-142.4
X58.Y-145.
X58.9Y-141.4
X59.5Y-144.3
X59.8Y-145.2
X60.1Y-127.9
X60.9Y-146.
X61.Y-122.5
X61.5Y-135.
X62.9Y-135.9
X63.9Y-143.4
X64.Y-119.
X64.5Y-132.85
X64.5Y-142.
X64.85Y-143.5
X65.4Y-148.9
X66.Y-133.6
X66.55Y-148.5
X67.Y-114.
X67.Y-136.7
X67.8Y-138.7
X68.3Y-115.4
X72.5Y-114.
X74.Y-144.
X74.6Y-148.15
X75.4Y-148.2
X75.8Y-140.1
X77.5Y-111.4
X78.5Y-124.5
X79.5Y-125.5
X81.Y-123.
X82.Y-124.
X85.Y-139.
X85.Y-140.
X85.Y-141.
X87.8Y-137.8
X88.4Y-118.
X89.9Y-132.9
X90.6Y-132.
X91.8Y-148.4
X92.6Y-139.6
X92.6Y-140.8
X92.6Y-142.
X92.6Y-143.2
X93.Y-136.
X93.5Y-119.
X94.Y-136.
X95.7Y-148.5
X96.Y-119.
X96.Y-137.7
X96.Y-138.4
X96.7Y-137.7
X96.7Y-138.4
X96.7Y-139.1
X96.7Y-139.8
X96.7Y-140.5
X96.7Y-141.2
X96.7Y-141.9
X96.7Y-142.6
X96.7Y-143.3
X96.7Y-148.5
X97.4Y-137.7
X97.4Y-138.4
X97.8Y-143.8
X97.8Y-144.5
X97.8Y-145.2
X98.Y-149.7
X98.5Y-128.
X99.Y-121.
X99.5Y-128.
X99.7Y-130.1
X99.722Y-123.
X100.5Y-118.3
X100.8Y-139.6
X100.8Y-140.8
X100.8Y-142.
X100.8Y-143.2
X101.Y-134.
X101.6Y-127.8
X101.8Y-145.
X102.Y-134.
X104.Y-124.
X105.Y-121.
T2
X63.2Y-151.67
X63.6Y-152.37
X64.Y-151.67
X64.4Y-152.37
X64.8Y-151.67
X65.2Y-152.37
X65.6Y-151.67
X66.4Y-151.67
X66.8Y-152.37
X67.2Y-151.67
X67.65Y-152.37
X68.Y-151.67
X68.45Y-152.37
X68.8Y-151.67
T4
X84.Y-155.
X86.Y-155.
X88.Y-155.
X68.46Y-111.5
X71.Y-111.5
T5
X62.Y-114.
X64.Y-114.
X53.Y-114.
X55.Y-114.
T6
X77.6Y-152.6
X103.Y-137.7
X56.3Y-154.1
X66.9Y-140.8
X36.2Y-155.4
T7
X30.75Y-108.5
X30.75Y-113.5
X37.Y-104.5
X37.Y-117.5
X43.25Y-108.5
X43.25Y-113.5
X30.75Y-44.5
X30.75Y-49.5
X37.Y-40.5
X37.Y-53.5
X43.25Y-44.5
X43.25Y-49.5
X30.75Y-124.5
X30.75Y-129.5
X37.Y-120.5
X37.Y-133.5
X43.25Y-124.5
X43.25Y-129.5
X30.75Y-92.5
X30.75Y-97.5
X37.Y-88.5
X37.Y-101.5
X43.25Y-92.5
X43.25Y-97.5
X30.75Y-60.5
X30.75Y-65.5
X37.Y-56.5
X37.Y-69.5
X43.25Y-60.5
X43.25Y-65.5
X30.75Y-140.5
X30.75Y-145.5
X37.Y-136.5
X37.Y-149.5
X43.25Y-140.5
X43.25Y-145.5
X30.75Y-76.5
X30.75Y-81.5
X37.Y-72.5
X37.Y-85.5
X43.25Y-76.5
X43.25Y-81.5
T8
X37.Y-106.5
X37.Y-115.5
X37.Y-42.5
X37.Y-51.5
X37.Y-122.5
X37.Y-131.5
X37.Y-90.5
X37.Y-99.5
X37.Y-58.5
X37.Y-67.5
X37.Y-138.5
X37.Y-147.5
X37.Y-74.5
X37.Y-83.5
T9
X40.92Y-154.
X46.Y-154.
X51.08Y-154.
T10
X30.Y-155.
X102.Y-155.
X30.Y-35.
X102.Y-106.
X112.Y-155.
X184.Y-155.
X112.Y-35.
X184.Y-35.
T3
X61.73Y-153.12G85X61.73Y-152.52
G05
X61.73Y-157.85G85X61.73Y-157.25
G05
X70.27Y-153.12G85X70.27Y-152.52
G05
X70.27Y-157.85G85X70.27Y-157.25
G05
T0
M30
