M48
; DRILL file {KiCad (5.1.9-0-10_14)} date Wednesday, June 09, 2021 at 04:43:44 PM
; FORMAT={-:-/ absolute / metric / decimal}
; #@! TF.CreationDate,2021-06-09T16:43:44+02:00
; #@! TF.GenerationSoftware,Kicad,Pcbnew,(5.1.9-0-10_14)
; #@! TF.FileFunction,Plated,1,2,PTH
FMAT,2
METRIC
T1C0.300
T2C0.400
T3C0.600
T4C0.700
T5C0.900
T6C1.000
T7C1.200
%
G90
G05
T1
X31.5Y-149.75
X34.5Y-56.75
X34.5Y-72.0
X34.5Y-87.0
X34.5Y-102.0
X34.5Y-117.25
X34.5Y-153.5
X35.5Y-128.5
X36.119Y-127.881
X36.684Y-127.316
X37.25Y-126.75
X38.0Y-126.15
X39.5Y-154.125
X43.0Y-136.0
X43.0Y-138.25
X45.75Y-136.5
X46.25Y-116.75
X46.75Y-148.5
X47.75Y-132.75
X48.25Y-146.75
X48.4Y-143.25
X49.5Y-153.5
X49.75Y-132.9
X50.186Y-153.912
X50.25Y-138.25
X50.25Y-147.25
X50.5Y-142.5
X51.25Y-119.0
X52.0Y-148.5
X52.1Y-135.0
X52.1Y-136.0
X53.0Y-131.0
X53.0Y-132.75
X53.0Y-135.0
X53.0Y-136.0
X53.75Y-138.5
X53.9Y-135.0
X53.9Y-136.0
X54.5Y-142.5
X55.25Y-154.0
X55.5Y-140.75
X55.5Y-145.75
X55.5Y-147.5
X56.0Y-135.5
X56.25Y-145.25
X56.25Y-154.75
X56.5Y-120.25
X56.5Y-121.25
X56.5Y-131.0
X56.5Y-131.75
X56.5Y-142.0
X57.0Y-136.25
X58.25Y-119.0
X58.75Y-132.75
X61.25Y-134.5
X61.25Y-136.5
X62.169Y-129.831
X62.5Y-117.25
X62.75Y-147.5
X65.784Y-148.642
X66.5Y-149.0
X66.75Y-129.75
X67.25Y-113.5
X68.25Y-146.5
X69.25Y-132.0
X70.75Y-149.75
X71.25Y-140.0
X71.5Y-119.5
X72.735Y-115.015
X72.75Y-140.5
X74.0Y-125.0
X74.25Y-127.75
X74.5Y-152.0
X76.0Y-114.75
X76.75Y-152.0
X79.25Y-155.75
X79.5Y-145.0
X81.0Y-128.75
X83.0Y-116.25
X83.0Y-137.75
X83.566Y-138.316
X83.65Y-120.0
X84.5Y-152.0
X85.25Y-133.25
X86.5Y-133.25
X88.0Y-140.25
X89.042Y-122.958
X90.0Y-114.75
X90.0Y-121.75
X91.0Y-147.0
X91.0Y-150.75
X91.75Y-137.5
X92.0Y-124.0
X92.0Y-128.75
X93.0Y-123.0
X94.5Y-126.25
X95.25Y-130.25
X95.5Y-123.0
X95.75Y-118.0
X98.5Y-125.0
X98.5Y-134.0
X99.222Y-127.0
X99.25Y-123.0
X100.0Y-134.0
X101.0Y-131.5
X102.0Y-118.0
X102.0Y-143.25
X103.5Y-128.0
X104.5Y-125.0
T2
X63.2Y-151.67
X63.55Y-152.37
X64.0Y-151.67
X64.35Y-152.37
X64.8Y-151.67
X65.2Y-152.37
X65.6Y-151.67
X66.4Y-151.67
X66.8Y-152.37
X67.2Y-151.67
X67.6Y-152.37
X68.0Y-151.67
X68.4Y-152.37
X68.8Y-151.67
T4
X60.0Y-115.0
X62.54Y-115.0
T5
X87.5Y-154.65
X89.5Y-154.65
X91.5Y-154.65
T6
X44.0Y-156.5
X52.0Y-156.5
X57.75Y-151.5
X81.25Y-152.0
X85.25Y-139.0
X92.0Y-126.25
X92.0Y-131.0
T7
X30.5Y-55.0
X30.5Y-70.0
X30.5Y-85.0
X30.5Y-100.0
X30.5Y-115.0
X30.5Y-130.0
X30.5Y-145.0
X34.5Y-48.75
X34.5Y-61.25
X34.5Y-63.75
X34.5Y-76.25
X34.5Y-78.75
X34.5Y-91.25
X34.5Y-93.75
X34.5Y-106.25
X34.5Y-108.75
X34.5Y-121.25
X34.5Y-123.75
X34.5Y-136.25
X34.5Y-138.75
X34.5Y-151.25
X39.5Y-48.75
X39.5Y-61.25
X39.5Y-63.75
X39.5Y-76.25
X39.5Y-78.75
X39.5Y-91.25
X39.5Y-93.75
X39.5Y-106.25
X39.5Y-108.75
X39.5Y-121.25
X39.5Y-123.75
X39.5Y-136.25
X39.5Y-138.75
X39.5Y-151.25
X43.5Y-55.0
X43.5Y-70.0
X43.5Y-85.0
X43.5Y-100.0
X43.5Y-115.0
X43.5Y-130.0
X43.5Y-145.0
T3
G00X61.73Y-152.52
M15
G01X61.73Y-153.12
M16
G05
G00X61.73Y-157.25
M15
G01X61.73Y-157.85
M16
G05
G00X70.27Y-152.52
M15
G01X70.27Y-153.12
M16
G05
G00X70.27Y-157.25
M15
G01X70.27Y-157.85
M16
G05
T0
M30
