G04 #@! TF.GenerationSoftware,KiCad,Pcbnew,(5.1.9-0-10_14)*
G04 #@! TF.CreationDate,2021-06-09T16:44:05+02:00*
G04 #@! TF.ProjectId,foodSampler_v22,666f6f64-5361-46d7-906c-65725f763232,rev?*
G04 #@! TF.SameCoordinates,Original*
G04 #@! TF.FileFunction,Profile,NP*
%FSLAX46Y46*%
G04 Gerber Fmt 4.6, Leading zero omitted, Abs format (unit mm)*
G04 Created by KiCad (PCBNEW (5.1.9-0-10_14)) date 2021-06-09 16:44:05*
%MOMM*%
%LPD*%
G01*
G04 APERTURE LIST*
G04 #@! TA.AperFunction,Profile*
%ADD10C,0.150000*%
G04 #@! TD*
G04 APERTURE END LIST*
D10*
X98000000Y-159000000D02*
X102000000Y-159000000D01*
X88000000Y-159000000D02*
X98000000Y-159000000D01*
X49000000Y-112500000D02*
X50900000Y-112500000D01*
X49000000Y-112500000D02*
G75*
G02*
X48000000Y-111500000I0J1000000D01*
G01*
X98000000Y-110500000D02*
G75*
G02*
X96000000Y-112500000I-2000000J0D01*
G01*
X85900000Y-159000000D02*
X88000000Y-159000000D01*
X76100000Y-159000000D02*
X85900000Y-159000000D01*
X57100000Y-115900000D02*
G75*
G02*
X57100000Y-118100000I0J-1100000D01*
G01*
X50900000Y-118100000D02*
G75*
G02*
X50900000Y-116100000I0J1000000D01*
G01*
X57100000Y-115900000D02*
X57100000Y-112500000D01*
X50900000Y-118100000D02*
X57100000Y-118100000D01*
X50900000Y-112500000D02*
X50900000Y-116100000D01*
X30000000Y-159000000D02*
X61500000Y-159000000D01*
X70500000Y-159000000D02*
X76100000Y-159000000D01*
X61500000Y-159000000D02*
X70500000Y-159000000D01*
X44000000Y-31000000D02*
G75*
G02*
X48000000Y-35000000I0J-4000000D01*
G01*
X98000000Y-106000000D02*
G75*
G02*
X102000000Y-102000000I4000000J0D01*
G01*
X102000000Y-102000000D02*
G75*
G02*
X106000000Y-106000000I0J-4000000D01*
G01*
X98000000Y-110500000D02*
X98000000Y-106000000D01*
X57100000Y-112500000D02*
X96000000Y-112500000D01*
X48000000Y-102000000D02*
X48000000Y-111500000D01*
X30000000Y-159000000D02*
G75*
G02*
X26000000Y-155000000I0J4000000D01*
G01*
X26000000Y-35000000D02*
G75*
G02*
X30000000Y-31000000I4000000J0D01*
G01*
X106000000Y-155000000D02*
G75*
G02*
X102000000Y-159000000I-4000000J0D01*
G01*
X26000000Y-155000000D02*
X26000000Y-35000000D01*
X106000000Y-106000000D02*
X106000000Y-155000000D01*
X48000000Y-35000000D02*
X48000000Y-102000000D01*
X30000000Y-31000000D02*
X44000000Y-31000000D01*
M02*
