G04 #@! TF.GenerationSoftware,KiCad,Pcbnew,(5.1.9-0-10_14)*
G04 #@! TF.CreationDate,2021-06-09T16:44:05+02:00*
G04 #@! TF.ProjectId,foodSampler_v22,666f6f64-5361-46d7-906c-65725f763232,rev?*
G04 #@! TF.SameCoordinates,Original*
G04 #@! TF.FileFunction,Legend,Top*
G04 #@! TF.FilePolarity,Positive*
%FSLAX46Y46*%
G04 Gerber Fmt 4.6, Leading zero omitted, Abs format (unit mm)*
G04 Created by KiCad (PCBNEW (5.1.9-0-10_14)) date 2021-06-09 16:44:05*
%MOMM*%
%LPD*%
G01*
G04 APERTURE LIST*
%ADD10C,0.200000*%
%ADD11C,0.300000*%
%ADD12C,0.120000*%
%ADD13C,0.150000*%
%ADD14C,0.100000*%
G04 APERTURE END LIST*
D10*
X60083333Y-117452380D02*
X60083333Y-116452380D01*
X60654761Y-117452380D01*
X60654761Y-116452380D01*
X60988095Y-116452380D02*
X61559523Y-116452380D01*
X61273809Y-117452380D02*
X61273809Y-116452380D01*
X62464285Y-117357142D02*
X62416666Y-117404761D01*
X62273809Y-117452380D01*
X62178571Y-117452380D01*
X62035714Y-117404761D01*
X61940476Y-117309523D01*
X61892857Y-117214285D01*
X61845238Y-117023809D01*
X61845238Y-116880952D01*
X61892857Y-116690476D01*
X61940476Y-116595238D01*
X62035714Y-116500000D01*
X62178571Y-116452380D01*
X62273809Y-116452380D01*
X62416666Y-116500000D01*
X62464285Y-116547619D01*
X84547619Y-151452380D02*
X84738095Y-151452380D01*
X84833333Y-151500000D01*
X84928571Y-151595238D01*
X84976190Y-151785714D01*
X84976190Y-152119047D01*
X84928571Y-152309523D01*
X84833333Y-152404761D01*
X84738095Y-152452380D01*
X84547619Y-152452380D01*
X84452380Y-152404761D01*
X84357142Y-152309523D01*
X84309523Y-152119047D01*
X84309523Y-151785714D01*
X84357142Y-151595238D01*
X84452380Y-151500000D01*
X84547619Y-151452380D01*
X85738095Y-151928571D02*
X85404761Y-151928571D01*
X85404761Y-152452380D02*
X85404761Y-151452380D01*
X85880952Y-151452380D01*
X86595238Y-151928571D02*
X86261904Y-151928571D01*
X86261904Y-152452380D02*
X86261904Y-151452380D01*
X86738095Y-151452380D01*
X93130952Y-151452380D02*
X93321428Y-151452380D01*
X93416666Y-151500000D01*
X93511904Y-151595238D01*
X93559523Y-151785714D01*
X93559523Y-152119047D01*
X93511904Y-152309523D01*
X93416666Y-152404761D01*
X93321428Y-152452380D01*
X93130952Y-152452380D01*
X93035714Y-152404761D01*
X92940476Y-152309523D01*
X92892857Y-152119047D01*
X92892857Y-151785714D01*
X92940476Y-151595238D01*
X93035714Y-151500000D01*
X93130952Y-151452380D01*
X93988095Y-152452380D02*
X93988095Y-151452380D01*
X94559523Y-152452380D01*
X94559523Y-151452380D01*
X79178571Y-150071428D02*
X79940476Y-150071428D01*
X79559523Y-150452380D02*
X79559523Y-149690476D01*
X80750000Y-149928571D02*
X80892857Y-149976190D01*
X80940476Y-150023809D01*
X80988095Y-150119047D01*
X80988095Y-150261904D01*
X80940476Y-150357142D01*
X80892857Y-150404761D01*
X80797619Y-150452380D01*
X80416666Y-150452380D01*
X80416666Y-149452380D01*
X80750000Y-149452380D01*
X80845238Y-149500000D01*
X80892857Y-149547619D01*
X80940476Y-149642857D01*
X80940476Y-149738095D01*
X80892857Y-149833333D01*
X80845238Y-149880952D01*
X80750000Y-149928571D01*
X80416666Y-149928571D01*
X81369047Y-150166666D02*
X81845238Y-150166666D01*
X81273809Y-150452380D02*
X81607142Y-149452380D01*
X81940476Y-150452380D01*
X82130952Y-149452380D02*
X82702380Y-149452380D01*
X82416666Y-150452380D02*
X82416666Y-149452380D01*
X82892857Y-149452380D02*
X83464285Y-149452380D01*
X83178571Y-150452380D02*
X83178571Y-149452380D01*
X55916666Y-148952380D02*
X56250000Y-149952380D01*
X56583333Y-148952380D01*
X57250000Y-149428571D02*
X57392857Y-149476190D01*
X57440476Y-149523809D01*
X57488095Y-149619047D01*
X57488095Y-149761904D01*
X57440476Y-149857142D01*
X57392857Y-149904761D01*
X57297619Y-149952380D01*
X56916666Y-149952380D01*
X56916666Y-148952380D01*
X57250000Y-148952380D01*
X57345238Y-149000000D01*
X57392857Y-149047619D01*
X57440476Y-149142857D01*
X57440476Y-149238095D01*
X57392857Y-149333333D01*
X57345238Y-149380952D01*
X57250000Y-149428571D01*
X56916666Y-149428571D01*
X57916666Y-148952380D02*
X57916666Y-149761904D01*
X57964285Y-149857142D01*
X58011904Y-149904761D01*
X58107142Y-149952380D01*
X58297619Y-149952380D01*
X58392857Y-149904761D01*
X58440476Y-149857142D01*
X58488095Y-149761904D01*
X58488095Y-148952380D01*
X58916666Y-149904761D02*
X59059523Y-149952380D01*
X59297619Y-149952380D01*
X59392857Y-149904761D01*
X59440476Y-149857142D01*
X59488095Y-149761904D01*
X59488095Y-149666666D01*
X59440476Y-149571428D01*
X59392857Y-149523809D01*
X59297619Y-149476190D01*
X59107142Y-149428571D01*
X59011904Y-149380952D01*
X58964285Y-149333333D01*
X58916666Y-149238095D01*
X58916666Y-149142857D01*
X58964285Y-149047619D01*
X59011904Y-149000000D01*
X59107142Y-148952380D01*
X59345238Y-148952380D01*
X59488095Y-149000000D01*
X50238095Y-153952380D02*
X50571428Y-154952380D01*
X50904761Y-153952380D01*
X51428571Y-153952380D02*
X51619047Y-153952380D01*
X51714285Y-154000000D01*
X51809523Y-154095238D01*
X51857142Y-154285714D01*
X51857142Y-154619047D01*
X51809523Y-154809523D01*
X51714285Y-154904761D01*
X51619047Y-154952380D01*
X51428571Y-154952380D01*
X51333333Y-154904761D01*
X51238095Y-154809523D01*
X51190476Y-154619047D01*
X51190476Y-154285714D01*
X51238095Y-154095238D01*
X51333333Y-154000000D01*
X51428571Y-153952380D01*
X52285714Y-153952380D02*
X52285714Y-154761904D01*
X52333333Y-154857142D01*
X52380952Y-154904761D01*
X52476190Y-154952380D01*
X52666666Y-154952380D01*
X52761904Y-154904761D01*
X52809523Y-154857142D01*
X52857142Y-154761904D01*
X52857142Y-153952380D01*
X53190476Y-153952380D02*
X53761904Y-153952380D01*
X53476190Y-154952380D02*
X53476190Y-153952380D01*
X84011904Y-136452380D02*
X84630952Y-136452380D01*
X84297619Y-136833333D01*
X84440476Y-136833333D01*
X84535714Y-136880952D01*
X84583333Y-136928571D01*
X84630952Y-137023809D01*
X84630952Y-137261904D01*
X84583333Y-137357142D01*
X84535714Y-137404761D01*
X84440476Y-137452380D01*
X84154761Y-137452380D01*
X84059523Y-137404761D01*
X84011904Y-137357142D01*
X84916666Y-136452380D02*
X85250000Y-137452380D01*
X85583333Y-136452380D01*
X85821428Y-136452380D02*
X86440476Y-136452380D01*
X86107142Y-136833333D01*
X86250000Y-136833333D01*
X86345238Y-136880952D01*
X86392857Y-136928571D01*
X86440476Y-137023809D01*
X86440476Y-137261904D01*
X86392857Y-137357142D01*
X86345238Y-137404761D01*
X86250000Y-137452380D01*
X85964285Y-137452380D01*
X85869047Y-137404761D01*
X85821428Y-137357142D01*
X43238095Y-153500000D02*
X43142857Y-153452380D01*
X43000000Y-153452380D01*
X42857142Y-153500000D01*
X42761904Y-153595238D01*
X42714285Y-153690476D01*
X42666666Y-153880952D01*
X42666666Y-154023809D01*
X42714285Y-154214285D01*
X42761904Y-154309523D01*
X42857142Y-154404761D01*
X43000000Y-154452380D01*
X43095238Y-154452380D01*
X43238095Y-154404761D01*
X43285714Y-154357142D01*
X43285714Y-154023809D01*
X43095238Y-154023809D01*
X43714285Y-154452380D02*
X43714285Y-153452380D01*
X44285714Y-154452380D01*
X44285714Y-153452380D01*
X44761904Y-154452380D02*
X44761904Y-153452380D01*
X45000000Y-153452380D01*
X45142857Y-153500000D01*
X45238095Y-153595238D01*
X45285714Y-153690476D01*
X45333333Y-153880952D01*
X45333333Y-154023809D01*
X45285714Y-154214285D01*
X45238095Y-154309523D01*
X45142857Y-154404761D01*
X45000000Y-154452380D01*
X44761904Y-154452380D01*
D11*
X47964285Y-126046428D02*
X49107142Y-126046428D01*
X49392857Y-125832142D02*
X49535714Y-125903571D01*
X49821428Y-125903571D01*
X49964285Y-125832142D01*
X50035714Y-125689285D01*
X50035714Y-125617857D01*
X49964285Y-125475000D01*
X49821428Y-125403571D01*
X49607142Y-125403571D01*
X49464285Y-125332142D01*
X49392857Y-125189285D01*
X49392857Y-125117857D01*
X49464285Y-124975000D01*
X49607142Y-124903571D01*
X49821428Y-124903571D01*
X49964285Y-124975000D01*
X51321428Y-125903571D02*
X51321428Y-125117857D01*
X51250000Y-124975000D01*
X51107142Y-124903571D01*
X50821428Y-124903571D01*
X50678571Y-124975000D01*
X51321428Y-125832142D02*
X51178571Y-125903571D01*
X50821428Y-125903571D01*
X50678571Y-125832142D01*
X50607142Y-125689285D01*
X50607142Y-125546428D01*
X50678571Y-125403571D01*
X50821428Y-125332142D01*
X51178571Y-125332142D01*
X51321428Y-125260714D01*
X52035714Y-125903571D02*
X52035714Y-124903571D01*
X52035714Y-125046428D02*
X52107142Y-124975000D01*
X52250000Y-124903571D01*
X52464285Y-124903571D01*
X52607142Y-124975000D01*
X52678571Y-125117857D01*
X52678571Y-125903571D01*
X52678571Y-125117857D02*
X52750000Y-124975000D01*
X52892857Y-124903571D01*
X53107142Y-124903571D01*
X53250000Y-124975000D01*
X53321428Y-125117857D01*
X53321428Y-125903571D01*
X54035714Y-124903571D02*
X54035714Y-126403571D01*
X54035714Y-124975000D02*
X54178571Y-124903571D01*
X54464285Y-124903571D01*
X54607142Y-124975000D01*
X54678571Y-125046428D01*
X54750000Y-125189285D01*
X54750000Y-125617857D01*
X54678571Y-125760714D01*
X54607142Y-125832142D01*
X54464285Y-125903571D01*
X54178571Y-125903571D01*
X54035714Y-125832142D01*
X55607142Y-125903571D02*
X55464285Y-125832142D01*
X55392857Y-125689285D01*
X55392857Y-124403571D01*
X56750000Y-125832142D02*
X56607142Y-125903571D01*
X56321428Y-125903571D01*
X56178571Y-125832142D01*
X56107142Y-125689285D01*
X56107142Y-125117857D01*
X56178571Y-124975000D01*
X56321428Y-124903571D01*
X56607142Y-124903571D01*
X56750000Y-124975000D01*
X56821428Y-125117857D01*
X56821428Y-125260714D01*
X56107142Y-125403571D01*
X57464285Y-125903571D02*
X57464285Y-124903571D01*
X57464285Y-125189285D02*
X57535714Y-125046428D01*
X57607142Y-124975000D01*
X57750000Y-124903571D01*
X57892857Y-124903571D01*
X59321428Y-124403571D02*
X59821428Y-125903571D01*
X60321428Y-124403571D01*
X60750000Y-124546428D02*
X60821428Y-124475000D01*
X60964285Y-124403571D01*
X61321428Y-124403571D01*
X61464285Y-124475000D01*
X61535714Y-124546428D01*
X61607142Y-124689285D01*
X61607142Y-124832142D01*
X61535714Y-125046428D01*
X60678571Y-125903571D01*
X61607142Y-125903571D01*
X62250000Y-125760714D02*
X62321428Y-125832142D01*
X62250000Y-125903571D01*
X62178571Y-125832142D01*
X62250000Y-125760714D01*
X62250000Y-125903571D01*
X62892857Y-124546428D02*
X62964285Y-124475000D01*
X63107142Y-124403571D01*
X63464285Y-124403571D01*
X63607142Y-124475000D01*
X63678571Y-124546428D01*
X63750000Y-124689285D01*
X63750000Y-124832142D01*
X63678571Y-125046428D01*
X62821428Y-125903571D01*
X63750000Y-125903571D01*
X49607142Y-127096428D02*
X49678571Y-127025000D01*
X49821428Y-126953571D01*
X50178571Y-126953571D01*
X50321428Y-127025000D01*
X50392857Y-127096428D01*
X50464285Y-127239285D01*
X50464285Y-127382142D01*
X50392857Y-127596428D01*
X49535714Y-128453571D01*
X50464285Y-128453571D01*
X51892857Y-128453571D02*
X51035714Y-128453571D01*
X51464285Y-128453571D02*
X51464285Y-126953571D01*
X51321428Y-127167857D01*
X51178571Y-127310714D01*
X51035714Y-127382142D01*
X52821428Y-126953571D02*
X52964285Y-126953571D01*
X53107142Y-127025000D01*
X53178571Y-127096428D01*
X53249999Y-127239285D01*
X53321428Y-127525000D01*
X53321428Y-127882142D01*
X53249999Y-128167857D01*
X53178571Y-128310714D01*
X53107142Y-128382142D01*
X52964285Y-128453571D01*
X52821428Y-128453571D01*
X52678571Y-128382142D01*
X52607142Y-128310714D01*
X52535714Y-128167857D01*
X52464285Y-127882142D01*
X52464285Y-127525000D01*
X52535714Y-127239285D01*
X52607142Y-127096428D01*
X52678571Y-127025000D01*
X52821428Y-126953571D01*
X54607142Y-126953571D02*
X54321428Y-126953571D01*
X54178571Y-127025000D01*
X54107142Y-127096428D01*
X53964285Y-127310714D01*
X53892857Y-127596428D01*
X53892857Y-128167857D01*
X53964285Y-128310714D01*
X54035714Y-128382142D01*
X54178571Y-128453571D01*
X54464285Y-128453571D01*
X54607142Y-128382142D01*
X54678571Y-128310714D01*
X54749999Y-128167857D01*
X54749999Y-127810714D01*
X54678571Y-127667857D01*
X54607142Y-127596428D01*
X54464285Y-127525000D01*
X54178571Y-127525000D01*
X54035714Y-127596428D01*
X53964285Y-127667857D01*
X53892857Y-127810714D01*
X55678571Y-126953571D02*
X55821428Y-126953571D01*
X55964285Y-127025000D01*
X56035714Y-127096428D01*
X56107142Y-127239285D01*
X56178571Y-127525000D01*
X56178571Y-127882142D01*
X56107142Y-128167857D01*
X56035714Y-128310714D01*
X55964285Y-128382142D01*
X55821428Y-128453571D01*
X55678571Y-128453571D01*
X55535714Y-128382142D01*
X55464285Y-128310714D01*
X55392857Y-128167857D01*
X55321428Y-127882142D01*
X55321428Y-127525000D01*
X55392857Y-127239285D01*
X55464285Y-127096428D01*
X55535714Y-127025000D01*
X55678571Y-126953571D01*
X56892857Y-128453571D02*
X57178571Y-128453571D01*
X57321428Y-128382142D01*
X57392857Y-128310714D01*
X57535714Y-128096428D01*
X57607142Y-127810714D01*
X57607142Y-127239285D01*
X57535714Y-127096428D01*
X57464285Y-127025000D01*
X57321428Y-126953571D01*
X57035714Y-126953571D01*
X56892857Y-127025000D01*
X56821428Y-127096428D01*
X56749999Y-127239285D01*
X56749999Y-127596428D01*
X56821428Y-127739285D01*
X56892857Y-127810714D01*
X57035714Y-127882142D01*
X57321428Y-127882142D01*
X57464285Y-127810714D01*
X57535714Y-127739285D01*
X57607142Y-127596428D01*
X58249999Y-128453571D02*
X58249999Y-126953571D01*
X58749999Y-128025000D01*
X59249999Y-126953571D01*
X59249999Y-128453571D01*
X60821428Y-128310714D02*
X60750000Y-128382142D01*
X60535714Y-128453571D01*
X60392857Y-128453571D01*
X60178571Y-128382142D01*
X60035714Y-128239285D01*
X59964285Y-128096428D01*
X59892857Y-127810714D01*
X59892857Y-127596428D01*
X59964285Y-127310714D01*
X60035714Y-127167857D01*
X60178571Y-127025000D01*
X60392857Y-126953571D01*
X60535714Y-126953571D01*
X60750000Y-127025000D01*
X60821428Y-127096428D01*
X61464285Y-128453571D02*
X61464285Y-126953571D01*
X61464285Y-127667857D02*
X62321428Y-127667857D01*
X62321428Y-128453571D02*
X62321428Y-126953571D01*
X101178571Y-119178571D02*
X100678571Y-118464285D01*
X100321428Y-119178571D02*
X100321428Y-117678571D01*
X100892857Y-117678571D01*
X101035714Y-117750000D01*
X101107142Y-117821428D01*
X101178571Y-117964285D01*
X101178571Y-118178571D01*
X101107142Y-118321428D01*
X101035714Y-118392857D01*
X100892857Y-118464285D01*
X100321428Y-118464285D01*
X101750000Y-119107142D02*
X101964285Y-119178571D01*
X102321428Y-119178571D01*
X102464285Y-119107142D01*
X102535714Y-119035714D01*
X102607142Y-118892857D01*
X102607142Y-118750000D01*
X102535714Y-118607142D01*
X102464285Y-118535714D01*
X102321428Y-118464285D01*
X102035714Y-118392857D01*
X101892857Y-118321428D01*
X101821428Y-118250000D01*
X101750000Y-118107142D01*
X101750000Y-117964285D01*
X101821428Y-117821428D01*
X101892857Y-117750000D01*
X102035714Y-117678571D01*
X102392857Y-117678571D01*
X102607142Y-117750000D01*
X103035714Y-117678571D02*
X103892857Y-117678571D01*
X103464285Y-119178571D02*
X103464285Y-117678571D01*
X93464285Y-118392857D02*
X93678571Y-118464285D01*
X93750000Y-118535714D01*
X93821428Y-118678571D01*
X93821428Y-118892857D01*
X93750000Y-119035714D01*
X93678571Y-119107142D01*
X93535714Y-119178571D01*
X92964285Y-119178571D01*
X92964285Y-117678571D01*
X93464285Y-117678571D01*
X93607142Y-117750000D01*
X93678571Y-117821428D01*
X93750000Y-117964285D01*
X93750000Y-118107142D01*
X93678571Y-118250000D01*
X93607142Y-118321428D01*
X93464285Y-118392857D01*
X92964285Y-118392857D01*
X94750000Y-117678571D02*
X95035714Y-117678571D01*
X95178571Y-117750000D01*
X95321428Y-117892857D01*
X95392857Y-118178571D01*
X95392857Y-118678571D01*
X95321428Y-118964285D01*
X95178571Y-119107142D01*
X95035714Y-119178571D01*
X94750000Y-119178571D01*
X94607142Y-119107142D01*
X94464285Y-118964285D01*
X94392857Y-118678571D01*
X94392857Y-118178571D01*
X94464285Y-117892857D01*
X94607142Y-117750000D01*
X94750000Y-117678571D01*
X96321428Y-117678571D02*
X96607142Y-117678571D01*
X96750000Y-117750000D01*
X96892857Y-117892857D01*
X96964285Y-118178571D01*
X96964285Y-118678571D01*
X96892857Y-118964285D01*
X96750000Y-119107142D01*
X96607142Y-119178571D01*
X96321428Y-119178571D01*
X96178571Y-119107142D01*
X96035714Y-118964285D01*
X95964285Y-118678571D01*
X95964285Y-118178571D01*
X96035714Y-117892857D01*
X96178571Y-117750000D01*
X96321428Y-117678571D01*
X97392857Y-117678571D02*
X98250000Y-117678571D01*
X97821428Y-119178571D02*
X97821428Y-117678571D01*
D12*
X50900000Y-136900000D02*
X50900000Y-136750000D01*
X55100000Y-134100000D02*
X55100000Y-134250000D01*
X54500000Y-134100000D02*
X55100000Y-134100000D01*
X52300000Y-136900000D02*
X53700000Y-136900000D01*
X52300000Y-134100000D02*
X53700000Y-134100000D01*
X51500000Y-136900000D02*
X50900000Y-136900000D01*
X50900000Y-134100000D02*
X51500000Y-134100000D01*
X54500701Y-136897393D02*
X55400701Y-136897393D01*
X50900000Y-134100000D02*
X50900000Y-134250000D01*
X88884420Y-143765000D02*
X89165580Y-143765000D01*
X88884420Y-144785000D02*
X89165580Y-144785000D01*
X68880000Y-112555000D02*
X68500000Y-112555000D01*
X68880000Y-106135000D02*
X68880000Y-112555000D01*
X87120000Y-106135000D02*
X87120000Y-112555000D01*
X68880000Y-106135000D02*
X87120000Y-106135000D01*
X87120000Y-131880000D02*
X86120000Y-131880000D01*
X87120000Y-131100000D02*
X87120000Y-131880000D01*
X68880000Y-131880000D02*
X69880000Y-131880000D01*
X68880000Y-131100000D02*
X68880000Y-131880000D01*
X96662779Y-120490000D02*
X96337221Y-120490000D01*
X96662779Y-121510000D02*
X96337221Y-121510000D01*
X102662779Y-121510000D02*
X102337221Y-121510000D01*
X102662779Y-120490000D02*
X102337221Y-120490000D01*
X92662779Y-134760000D02*
X92337221Y-134760000D01*
X92662779Y-133740000D02*
X92337221Y-133740000D01*
X98080000Y-123240000D02*
X97150000Y-123240000D01*
X94920000Y-123240000D02*
X95850000Y-123240000D01*
X94920000Y-123240000D02*
X94920000Y-125400000D01*
X98080000Y-123240000D02*
X98080000Y-124700000D01*
X104080000Y-123240000D02*
X104080000Y-124700000D01*
X100920000Y-123240000D02*
X100920000Y-125400000D01*
X100920000Y-123240000D02*
X101850000Y-123240000D01*
X104080000Y-123240000D02*
X103150000Y-123240000D01*
X96662779Y-127510000D02*
X96337221Y-127510000D01*
X96662779Y-126490000D02*
X96337221Y-126490000D01*
X102662779Y-126490000D02*
X102337221Y-126490000D01*
X102662779Y-127510000D02*
X102337221Y-127510000D01*
D13*
X102865000Y-130925000D02*
X103975000Y-130925000D01*
X103975000Y-135075000D02*
X102865000Y-135075000D01*
X95025000Y-135075000D02*
X96135000Y-135075000D01*
X95025000Y-130925000D02*
X96135000Y-130925000D01*
X103975000Y-130925000D02*
X103975000Y-135075000D01*
X95025000Y-130925000D02*
X95025000Y-135075000D01*
X102865000Y-130925000D02*
X102865000Y-129800000D01*
D12*
X95670000Y-142010000D02*
X96600000Y-142010000D01*
X98830000Y-142010000D02*
X97900000Y-142010000D01*
X98830000Y-142010000D02*
X98830000Y-139850000D01*
X95670000Y-142010000D02*
X95670000Y-140550000D01*
X63485000Y-145761252D02*
X63485000Y-145238748D01*
X62015000Y-145761252D02*
X62015000Y-145238748D01*
X52488748Y-140015000D02*
X53011252Y-140015000D01*
X52488748Y-141485000D02*
X53011252Y-141485000D01*
X78765000Y-143261252D02*
X78765000Y-142738748D01*
X80235000Y-143261252D02*
X80235000Y-142738748D01*
X58012742Y-146522500D02*
X58487258Y-146522500D01*
X58012742Y-145477500D02*
X58487258Y-145477500D01*
X58012742Y-143477500D02*
X58487258Y-143477500D01*
X58012742Y-144522500D02*
X58487258Y-144522500D01*
X47512742Y-146522500D02*
X47987258Y-146522500D01*
X47512742Y-145477500D02*
X47987258Y-145477500D01*
X47512742Y-143477500D02*
X47987258Y-143477500D01*
X47512742Y-144522500D02*
X47987258Y-144522500D01*
X60920000Y-115000000D02*
X61540000Y-115000000D01*
X60920000Y-115000000D02*
G75*
G03*
X60920000Y-115000000I-920000J0D01*
G01*
X54610000Y-143865000D02*
X54610000Y-143390000D01*
X51390000Y-146610000D02*
X51865000Y-146610000D01*
X51390000Y-146135000D02*
X51390000Y-146610000D01*
X51390000Y-143390000D02*
X51865000Y-143390000D01*
X51390000Y-143865000D02*
X51390000Y-143390000D01*
X54610000Y-146610000D02*
X54135000Y-146610000D01*
X54610000Y-146135000D02*
X54610000Y-146610000D01*
X84225001Y-141575001D02*
X82425001Y-141575001D01*
X84225001Y-141575001D02*
X85025001Y-141575001D01*
X84225001Y-144695001D02*
X83425001Y-144695001D01*
X84225001Y-144695001D02*
X85025001Y-144695001D01*
X86940000Y-142935000D02*
X90850000Y-142935000D01*
X86940000Y-141065000D02*
X86940000Y-142935000D01*
X90850000Y-141065000D02*
X86940000Y-141065000D01*
X56250000Y-118750000D02*
X56250000Y-121750000D01*
X38000000Y-158000000D02*
G75*
G02*
X36000000Y-158000000I-1000000J0D01*
G01*
X37977500Y-154737258D02*
X37977500Y-154262742D01*
X39022500Y-154737258D02*
X39022500Y-154262742D01*
X36022500Y-154737258D02*
X36022500Y-154262742D01*
X34977500Y-154737258D02*
X34977500Y-154262742D01*
X37522500Y-154737258D02*
X37522500Y-154262742D01*
X36477500Y-154737258D02*
X36477500Y-154262742D01*
X66477500Y-145737258D02*
X66477500Y-145262742D01*
X67522500Y-145737258D02*
X67522500Y-145262742D01*
X64477500Y-145262742D02*
X64477500Y-145737258D01*
X65522500Y-145262742D02*
X65522500Y-145737258D01*
X58359420Y-135990000D02*
X58640580Y-135990000D01*
X58359420Y-137010000D02*
X58640580Y-137010000D01*
X58359420Y-130740000D02*
X58640580Y-130740000D01*
X58359420Y-131760000D02*
X58640580Y-131760000D01*
X28760000Y-49140580D02*
X28760000Y-48859420D01*
X27740000Y-49140580D02*
X27740000Y-48859420D01*
X28760000Y-64140580D02*
X28760000Y-63859420D01*
X27740000Y-64140580D02*
X27740000Y-63859420D01*
X28760000Y-79140580D02*
X28760000Y-78859420D01*
X27740000Y-79140580D02*
X27740000Y-78859420D01*
X28760000Y-94140580D02*
X28760000Y-93859420D01*
X27740000Y-94140580D02*
X27740000Y-93859420D01*
X27740000Y-109415580D02*
X27740000Y-109134420D01*
X28760000Y-109415580D02*
X28760000Y-109134420D01*
X28760000Y-124140580D02*
X28760000Y-123859420D01*
X27740000Y-124140580D02*
X27740000Y-123859420D01*
X27740000Y-139140580D02*
X27740000Y-138859420D01*
X28760000Y-139140580D02*
X28760000Y-138859420D01*
D14*
X70400000Y-153800000D02*
X70400000Y-156500000D01*
X61600000Y-153800000D02*
X61600000Y-156600000D01*
X70400000Y-150400000D02*
X70400000Y-151800000D01*
X69100000Y-150400000D02*
X70400000Y-150400000D01*
X61600000Y-150400000D02*
X61600000Y-151900000D01*
X61600000Y-150400000D02*
X63000000Y-150400000D01*
D12*
X47262742Y-135977500D02*
X47737258Y-135977500D01*
X47262742Y-137022500D02*
X47737258Y-137022500D01*
X47737258Y-133977500D02*
X47262742Y-133977500D01*
X47737258Y-135022500D02*
X47262742Y-135022500D01*
X52276263Y-133105000D02*
X53723737Y-133105000D01*
X52276263Y-130395000D02*
X53723737Y-130395000D01*
X90477500Y-115262742D02*
X90477500Y-115737258D01*
X91522500Y-115262742D02*
X91522500Y-115737258D01*
X91522500Y-120762742D02*
X91522500Y-121237258D01*
X90477500Y-120762742D02*
X90477500Y-121237258D01*
X65727500Y-115262742D02*
X65727500Y-115737258D01*
X66772500Y-115262742D02*
X66772500Y-115737258D01*
X28772500Y-52737258D02*
X28772500Y-52262742D01*
X27727500Y-52737258D02*
X27727500Y-52262742D01*
X28772500Y-67737258D02*
X28772500Y-67262742D01*
X27727500Y-67737258D02*
X27727500Y-67262742D01*
X27727500Y-82737258D02*
X27727500Y-82262742D01*
X28772500Y-82737258D02*
X28772500Y-82262742D01*
X28772500Y-97737258D02*
X28772500Y-97262742D01*
X27727500Y-97737258D02*
X27727500Y-97262742D01*
X27727500Y-112987258D02*
X27727500Y-112512742D01*
X28772500Y-112987258D02*
X28772500Y-112512742D01*
X27727500Y-127737258D02*
X27727500Y-127262742D01*
X28772500Y-127737258D02*
X28772500Y-127262742D01*
X28772500Y-142737258D02*
X28772500Y-142262742D01*
X27727500Y-142737258D02*
X27727500Y-142262742D01*
X27727500Y-56237258D02*
X27727500Y-55762742D01*
X28772500Y-56237258D02*
X28772500Y-55762742D01*
X27727500Y-71237258D02*
X27727500Y-70762742D01*
X28772500Y-71237258D02*
X28772500Y-70762742D01*
X28772500Y-86237258D02*
X28772500Y-85762742D01*
X27727500Y-86237258D02*
X27727500Y-85762742D01*
X27727500Y-101237258D02*
X27727500Y-100762742D01*
X28772500Y-101237258D02*
X28772500Y-100762742D01*
X28772500Y-116487258D02*
X28772500Y-116012742D01*
X27727500Y-116487258D02*
X27727500Y-116012742D01*
X28772500Y-131237258D02*
X28772500Y-130762742D01*
X27727500Y-131237258D02*
X27727500Y-130762742D01*
X27727500Y-146237258D02*
X27727500Y-145762742D01*
X28772500Y-146237258D02*
X28772500Y-145762742D01*
X28772500Y-59262742D02*
X28772500Y-59737258D01*
X27727500Y-59262742D02*
X27727500Y-59737258D01*
X28772500Y-74262742D02*
X28772500Y-74737258D01*
X27727500Y-74262742D02*
X27727500Y-74737258D01*
X27727500Y-89262742D02*
X27727500Y-89737258D01*
X28772500Y-89262742D02*
X28772500Y-89737258D01*
X28772500Y-104262742D02*
X28772500Y-104737258D01*
X27727500Y-104262742D02*
X27727500Y-104737258D01*
X27727500Y-119512742D02*
X27727500Y-119987258D01*
X28772500Y-119512742D02*
X28772500Y-119987258D01*
X27727500Y-134262742D02*
X27727500Y-134737258D01*
X28772500Y-134262742D02*
X28772500Y-134737258D01*
X28772500Y-149262742D02*
X28772500Y-149737258D01*
X27727500Y-149262742D02*
X27727500Y-149737258D01*
D13*
X43500000Y-50000000D02*
X43500000Y-50500000D01*
X43500000Y-48500000D02*
X43500000Y-50000000D01*
X41500000Y-48500000D02*
X43500000Y-48500000D01*
X31000000Y-49000000D02*
X43000000Y-49000000D01*
X31000000Y-61000000D02*
X31000000Y-49000000D01*
X43000000Y-61000000D02*
X31000000Y-61000000D01*
X43000000Y-49000000D02*
X43000000Y-61000000D01*
X43000000Y-64000000D02*
X43000000Y-76000000D01*
X43000000Y-76000000D02*
X31000000Y-76000000D01*
X31000000Y-76000000D02*
X31000000Y-64000000D01*
X31000000Y-64000000D02*
X43000000Y-64000000D01*
X41500000Y-63500000D02*
X43500000Y-63500000D01*
X43500000Y-63500000D02*
X43500000Y-65000000D01*
X43500000Y-65000000D02*
X43500000Y-65500000D01*
X43500000Y-80000000D02*
X43500000Y-80500000D01*
X43500000Y-78500000D02*
X43500000Y-80000000D01*
X41500000Y-78500000D02*
X43500000Y-78500000D01*
X31000000Y-79000000D02*
X43000000Y-79000000D01*
X31000000Y-91000000D02*
X31000000Y-79000000D01*
X43000000Y-91000000D02*
X31000000Y-91000000D01*
X43000000Y-79000000D02*
X43000000Y-91000000D01*
X43000000Y-94000000D02*
X43000000Y-106000000D01*
X43000000Y-106000000D02*
X31000000Y-106000000D01*
X31000000Y-106000000D02*
X31000000Y-94000000D01*
X31000000Y-94000000D02*
X43000000Y-94000000D01*
X41500000Y-93500000D02*
X43500000Y-93500000D01*
X43500000Y-93500000D02*
X43500000Y-95000000D01*
X43500000Y-95000000D02*
X43500000Y-95500000D01*
X43500000Y-110000000D02*
X43500000Y-110500000D01*
X43500000Y-108500000D02*
X43500000Y-110000000D01*
X41500000Y-108500000D02*
X43500000Y-108500000D01*
X31000000Y-109000000D02*
X43000000Y-109000000D01*
X31000000Y-121000000D02*
X31000000Y-109000000D01*
X43000000Y-121000000D02*
X31000000Y-121000000D01*
X43000000Y-109000000D02*
X43000000Y-121000000D01*
X43000000Y-124000000D02*
X43000000Y-136000000D01*
X43000000Y-136000000D02*
X31000000Y-136000000D01*
X31000000Y-136000000D02*
X31000000Y-124000000D01*
X31000000Y-124000000D02*
X43000000Y-124000000D01*
X41500000Y-123500000D02*
X43500000Y-123500000D01*
X43500000Y-123500000D02*
X43500000Y-125000000D01*
X43500000Y-125000000D02*
X43500000Y-125500000D01*
X43500000Y-140000000D02*
X43500000Y-140500000D01*
X43500000Y-138500000D02*
X43500000Y-140000000D01*
X41500000Y-138500000D02*
X43500000Y-138500000D01*
X31000000Y-139000000D02*
X43000000Y-139000000D01*
X31000000Y-151000000D02*
X31000000Y-139000000D01*
X43000000Y-151000000D02*
X31000000Y-151000000D01*
X43000000Y-139000000D02*
X43000000Y-151000000D01*
D12*
X101109420Y-142760000D02*
X101390580Y-142760000D01*
X101109420Y-141740000D02*
X101390580Y-141740000D01*
X101487258Y-138772500D02*
X101012742Y-138772500D01*
X101487258Y-137727500D02*
X101012742Y-137727500D01*
X101012742Y-140772500D02*
X101487258Y-140772500D01*
X101012742Y-139727500D02*
X101487258Y-139727500D01*
D13*
X51762605Y-137469773D02*
X51762605Y-138279297D01*
X51810224Y-138374535D01*
X51857843Y-138422154D01*
X51953081Y-138469773D01*
X52143558Y-138469773D01*
X52238796Y-138422154D01*
X52286415Y-138374535D01*
X52334034Y-138279297D01*
X52334034Y-137469773D01*
X52762605Y-137565012D02*
X52810224Y-137517393D01*
X52905462Y-137469773D01*
X53143558Y-137469773D01*
X53238796Y-137517393D01*
X53286415Y-137565012D01*
X53334034Y-137660250D01*
X53334034Y-137755488D01*
X53286415Y-137898345D01*
X52714986Y-138469773D01*
X53334034Y-138469773D01*
X53953081Y-137469773D02*
X54048320Y-137469773D01*
X54143558Y-137517393D01*
X54191177Y-137565012D01*
X54238796Y-137660250D01*
X54286415Y-137850726D01*
X54286415Y-138088821D01*
X54238796Y-138279297D01*
X54191177Y-138374535D01*
X54143558Y-138422154D01*
X54048320Y-138469773D01*
X53953081Y-138469773D01*
X53857843Y-138422154D01*
X53810224Y-138374535D01*
X53762605Y-138279297D01*
X53714986Y-138088821D01*
X53714986Y-137850726D01*
X53762605Y-137660250D01*
X53810224Y-137565012D01*
X53857843Y-137517393D01*
X53953081Y-137469773D01*
X96154761Y-158059523D02*
X96202380Y-157916666D01*
X96202380Y-157678571D01*
X96154761Y-157583333D01*
X96107142Y-157535714D01*
X96011904Y-157488095D01*
X95916666Y-157488095D01*
X95821428Y-157535714D01*
X95773809Y-157583333D01*
X95726190Y-157678571D01*
X95678571Y-157869047D01*
X95630952Y-157964285D01*
X95583333Y-158011904D01*
X95488095Y-158059523D01*
X95392857Y-158059523D01*
X95297619Y-158011904D01*
X95250000Y-157964285D01*
X95202380Y-157869047D01*
X95202380Y-157630952D01*
X95250000Y-157488095D01*
X95202380Y-157154761D02*
X96202380Y-156916666D01*
X95488095Y-156726190D01*
X96202380Y-156535714D01*
X95202380Y-156297619D01*
X95202380Y-155726190D02*
X95202380Y-155630952D01*
X95250000Y-155535714D01*
X95297619Y-155488095D01*
X95392857Y-155440476D01*
X95583333Y-155392857D01*
X95821428Y-155392857D01*
X96011904Y-155440476D01*
X96107142Y-155488095D01*
X96154761Y-155535714D01*
X96202380Y-155630952D01*
X96202380Y-155726190D01*
X96154761Y-155821428D01*
X96107142Y-155869047D01*
X96011904Y-155916666D01*
X95821428Y-155964285D01*
X95583333Y-155964285D01*
X95392857Y-155916666D01*
X95297619Y-155869047D01*
X95250000Y-155821428D01*
X95202380Y-155726190D01*
X95202380Y-154773809D02*
X95202380Y-154678571D01*
X95250000Y-154583333D01*
X95297619Y-154535714D01*
X95392857Y-154488095D01*
X95583333Y-154440476D01*
X95821428Y-154440476D01*
X96011904Y-154488095D01*
X96107142Y-154535714D01*
X96154761Y-154583333D01*
X96202380Y-154678571D01*
X96202380Y-154773809D01*
X96154761Y-154869047D01*
X96107142Y-154916666D01*
X96011904Y-154964285D01*
X95821428Y-155011904D01*
X95583333Y-155011904D01*
X95392857Y-154964285D01*
X95297619Y-154916666D01*
X95250000Y-154869047D01*
X95202380Y-154773809D01*
X93690476Y-113904761D02*
X93833333Y-113952380D01*
X94071428Y-113952380D01*
X94166666Y-113904761D01*
X94214285Y-113857142D01*
X94261904Y-113761904D01*
X94261904Y-113666666D01*
X94214285Y-113571428D01*
X94166666Y-113523809D01*
X94071428Y-113476190D01*
X93880952Y-113428571D01*
X93785714Y-113380952D01*
X93738095Y-113333333D01*
X93690476Y-113238095D01*
X93690476Y-113142857D01*
X93738095Y-113047619D01*
X93785714Y-113000000D01*
X93880952Y-112952380D01*
X94119047Y-112952380D01*
X94261904Y-113000000D01*
X94595238Y-112952380D02*
X94833333Y-113952380D01*
X95023809Y-113238095D01*
X95214285Y-113952380D01*
X95452380Y-112952380D01*
X96357142Y-113952380D02*
X95785714Y-113952380D01*
X96071428Y-113952380D02*
X96071428Y-112952380D01*
X95976190Y-113095238D01*
X95880952Y-113190476D01*
X95785714Y-113238095D01*
X96976190Y-112952380D02*
X97071428Y-112952380D01*
X97166666Y-113000000D01*
X97214285Y-113047619D01*
X97261904Y-113142857D01*
X97309523Y-113333333D01*
X97309523Y-113571428D01*
X97261904Y-113761904D01*
X97214285Y-113857142D01*
X97166666Y-113904761D01*
X97071428Y-113952380D01*
X96976190Y-113952380D01*
X96880952Y-113904761D01*
X96833333Y-113857142D01*
X96785714Y-113761904D01*
X96738095Y-113571428D01*
X96738095Y-113333333D01*
X96785714Y-113142857D01*
X96833333Y-113047619D01*
X96880952Y-113000000D01*
X96976190Y-112952380D01*
X100190476Y-113904761D02*
X100333333Y-113952380D01*
X100571428Y-113952380D01*
X100666666Y-113904761D01*
X100714285Y-113857142D01*
X100761904Y-113761904D01*
X100761904Y-113666666D01*
X100714285Y-113571428D01*
X100666666Y-113523809D01*
X100571428Y-113476190D01*
X100380952Y-113428571D01*
X100285714Y-113380952D01*
X100238095Y-113333333D01*
X100190476Y-113238095D01*
X100190476Y-113142857D01*
X100238095Y-113047619D01*
X100285714Y-113000000D01*
X100380952Y-112952380D01*
X100619047Y-112952380D01*
X100761904Y-113000000D01*
X101095238Y-112952380D02*
X101333333Y-113952380D01*
X101523809Y-113238095D01*
X101714285Y-113952380D01*
X101952380Y-112952380D01*
X102857142Y-113952380D02*
X102285714Y-113952380D01*
X102571428Y-113952380D02*
X102571428Y-112952380D01*
X102476190Y-113095238D01*
X102380952Y-113190476D01*
X102285714Y-113238095D01*
X103809523Y-113952380D02*
X103238095Y-113952380D01*
X103523809Y-113952380D02*
X103523809Y-112952380D01*
X103428571Y-113095238D01*
X103333333Y-113190476D01*
X103238095Y-113238095D01*
X88382142Y-146357142D02*
X88334523Y-146404761D01*
X88191666Y-146452380D01*
X88096428Y-146452380D01*
X87953571Y-146404761D01*
X87858333Y-146309523D01*
X87810714Y-146214285D01*
X87763095Y-146023809D01*
X87763095Y-145880952D01*
X87810714Y-145690476D01*
X87858333Y-145595238D01*
X87953571Y-145500000D01*
X88096428Y-145452380D01*
X88191666Y-145452380D01*
X88334523Y-145500000D01*
X88382142Y-145547619D01*
X88715476Y-145452380D02*
X89334523Y-145452380D01*
X89001190Y-145833333D01*
X89144047Y-145833333D01*
X89239285Y-145880952D01*
X89286904Y-145928571D01*
X89334523Y-146023809D01*
X89334523Y-146261904D01*
X89286904Y-146357142D01*
X89239285Y-146404761D01*
X89144047Y-146452380D01*
X88858333Y-146452380D01*
X88763095Y-146404761D01*
X88715476Y-146357142D01*
X89953571Y-145452380D02*
X90048809Y-145452380D01*
X90144047Y-145500000D01*
X90191666Y-145547619D01*
X90239285Y-145642857D01*
X90286904Y-145833333D01*
X90286904Y-146071428D01*
X90239285Y-146261904D01*
X90191666Y-146357142D01*
X90144047Y-146404761D01*
X90048809Y-146452380D01*
X89953571Y-146452380D01*
X89858333Y-146404761D01*
X89810714Y-146357142D01*
X89763095Y-146261904D01*
X89715476Y-146071428D01*
X89715476Y-145833333D01*
X89763095Y-145642857D01*
X89810714Y-145547619D01*
X89858333Y-145500000D01*
X89953571Y-145452380D01*
X66842380Y-131668095D02*
X67651904Y-131668095D01*
X67747142Y-131620476D01*
X67794761Y-131572857D01*
X67842380Y-131477619D01*
X67842380Y-131287142D01*
X67794761Y-131191904D01*
X67747142Y-131144285D01*
X67651904Y-131096666D01*
X66842380Y-131096666D01*
X67175714Y-130191904D02*
X67842380Y-130191904D01*
X66794761Y-130430000D02*
X67509047Y-130668095D01*
X67509047Y-130049047D01*
X66842380Y-129477619D02*
X66842380Y-129382380D01*
X66890000Y-129287142D01*
X66937619Y-129239523D01*
X67032857Y-129191904D01*
X67223333Y-129144285D01*
X67461428Y-129144285D01*
X67651904Y-129191904D01*
X67747142Y-129239523D01*
X67794761Y-129287142D01*
X67842380Y-129382380D01*
X67842380Y-129477619D01*
X67794761Y-129572857D01*
X67747142Y-129620476D01*
X67651904Y-129668095D01*
X67461428Y-129715714D01*
X67223333Y-129715714D01*
X67032857Y-129668095D01*
X66937619Y-129620476D01*
X66890000Y-129572857D01*
X66842380Y-129477619D01*
X92957142Y-121357142D02*
X92909523Y-121404761D01*
X92766666Y-121452380D01*
X92671428Y-121452380D01*
X92528571Y-121404761D01*
X92433333Y-121309523D01*
X92385714Y-121214285D01*
X92338095Y-121023809D01*
X92338095Y-120880952D01*
X92385714Y-120690476D01*
X92433333Y-120595238D01*
X92528571Y-120500000D01*
X92671428Y-120452380D01*
X92766666Y-120452380D01*
X92909523Y-120500000D01*
X92957142Y-120547619D01*
X93909523Y-121452380D02*
X93338095Y-121452380D01*
X93623809Y-121452380D02*
X93623809Y-120452380D01*
X93528571Y-120595238D01*
X93433333Y-120690476D01*
X93338095Y-120738095D01*
X94528571Y-120452380D02*
X94623809Y-120452380D01*
X94719047Y-120500000D01*
X94766666Y-120547619D01*
X94814285Y-120642857D01*
X94861904Y-120833333D01*
X94861904Y-121071428D01*
X94814285Y-121261904D01*
X94766666Y-121357142D01*
X94719047Y-121404761D01*
X94623809Y-121452380D01*
X94528571Y-121452380D01*
X94433333Y-121404761D01*
X94385714Y-121357142D01*
X94338095Y-121261904D01*
X94290476Y-121071428D01*
X94290476Y-120833333D01*
X94338095Y-120642857D01*
X94385714Y-120547619D01*
X94433333Y-120500000D01*
X94528571Y-120452380D01*
X98937142Y-121367142D02*
X98889523Y-121414761D01*
X98746666Y-121462380D01*
X98651428Y-121462380D01*
X98508571Y-121414761D01*
X98413333Y-121319523D01*
X98365714Y-121224285D01*
X98318095Y-121033809D01*
X98318095Y-120890952D01*
X98365714Y-120700476D01*
X98413333Y-120605238D01*
X98508571Y-120510000D01*
X98651428Y-120462380D01*
X98746666Y-120462380D01*
X98889523Y-120510000D01*
X98937142Y-120557619D01*
X99889523Y-121462380D02*
X99318095Y-121462380D01*
X99603809Y-121462380D02*
X99603809Y-120462380D01*
X99508571Y-120605238D01*
X99413333Y-120700476D01*
X99318095Y-120748095D01*
X100841904Y-121462380D02*
X100270476Y-121462380D01*
X100556190Y-121462380D02*
X100556190Y-120462380D01*
X100460952Y-120605238D01*
X100365714Y-120700476D01*
X100270476Y-120748095D01*
X88757142Y-134607142D02*
X88709523Y-134654761D01*
X88566666Y-134702380D01*
X88471428Y-134702380D01*
X88328571Y-134654761D01*
X88233333Y-134559523D01*
X88185714Y-134464285D01*
X88138095Y-134273809D01*
X88138095Y-134130952D01*
X88185714Y-133940476D01*
X88233333Y-133845238D01*
X88328571Y-133750000D01*
X88471428Y-133702380D01*
X88566666Y-133702380D01*
X88709523Y-133750000D01*
X88757142Y-133797619D01*
X89709523Y-134702380D02*
X89138095Y-134702380D01*
X89423809Y-134702380D02*
X89423809Y-133702380D01*
X89328571Y-133845238D01*
X89233333Y-133940476D01*
X89138095Y-133988095D01*
X90090476Y-133797619D02*
X90138095Y-133750000D01*
X90233333Y-133702380D01*
X90471428Y-133702380D01*
X90566666Y-133750000D01*
X90614285Y-133797619D01*
X90661904Y-133892857D01*
X90661904Y-133988095D01*
X90614285Y-134130952D01*
X90042857Y-134702380D01*
X90661904Y-134702380D01*
X94547619Y-124571428D02*
X94500000Y-124666666D01*
X94404761Y-124761904D01*
X94261904Y-124904761D01*
X94214285Y-125000000D01*
X94214285Y-125095238D01*
X94452380Y-125047619D02*
X94404761Y-125142857D01*
X94309523Y-125238095D01*
X94119047Y-125285714D01*
X93785714Y-125285714D01*
X93595238Y-125238095D01*
X93500000Y-125142857D01*
X93452380Y-125047619D01*
X93452380Y-124857142D01*
X93500000Y-124761904D01*
X93595238Y-124666666D01*
X93785714Y-124619047D01*
X94119047Y-124619047D01*
X94309523Y-124666666D01*
X94404761Y-124761904D01*
X94452380Y-124857142D01*
X94452380Y-125047619D01*
X94452380Y-123666666D02*
X94452380Y-124238095D01*
X94452380Y-123952380D02*
X93452380Y-123952380D01*
X93595238Y-124047619D01*
X93690476Y-124142857D01*
X93738095Y-124238095D01*
X93452380Y-123047619D02*
X93452380Y-122952380D01*
X93500000Y-122857142D01*
X93547619Y-122809523D01*
X93642857Y-122761904D01*
X93833333Y-122714285D01*
X94071428Y-122714285D01*
X94261904Y-122761904D01*
X94357142Y-122809523D01*
X94404761Y-122857142D01*
X94452380Y-122952380D01*
X94452380Y-123047619D01*
X94404761Y-123142857D01*
X94357142Y-123190476D01*
X94261904Y-123238095D01*
X94071428Y-123285714D01*
X93833333Y-123285714D01*
X93642857Y-123238095D01*
X93547619Y-123190476D01*
X93500000Y-123142857D01*
X93452380Y-123047619D01*
X100547619Y-124571428D02*
X100500000Y-124666666D01*
X100404761Y-124761904D01*
X100261904Y-124904761D01*
X100214285Y-125000000D01*
X100214285Y-125095238D01*
X100452380Y-125047619D02*
X100404761Y-125142857D01*
X100309523Y-125238095D01*
X100119047Y-125285714D01*
X99785714Y-125285714D01*
X99595238Y-125238095D01*
X99500000Y-125142857D01*
X99452380Y-125047619D01*
X99452380Y-124857142D01*
X99500000Y-124761904D01*
X99595238Y-124666666D01*
X99785714Y-124619047D01*
X100119047Y-124619047D01*
X100309523Y-124666666D01*
X100404761Y-124761904D01*
X100452380Y-124857142D01*
X100452380Y-125047619D01*
X100452380Y-123666666D02*
X100452380Y-124238095D01*
X100452380Y-123952380D02*
X99452380Y-123952380D01*
X99595238Y-124047619D01*
X99690476Y-124142857D01*
X99738095Y-124238095D01*
X100452380Y-122714285D02*
X100452380Y-123285714D01*
X100452380Y-123000000D02*
X99452380Y-123000000D01*
X99595238Y-123095238D01*
X99690476Y-123190476D01*
X99738095Y-123285714D01*
X95857142Y-128882380D02*
X95523809Y-128406190D01*
X95285714Y-128882380D02*
X95285714Y-127882380D01*
X95666666Y-127882380D01*
X95761904Y-127930000D01*
X95809523Y-127977619D01*
X95857142Y-128072857D01*
X95857142Y-128215714D01*
X95809523Y-128310952D01*
X95761904Y-128358571D01*
X95666666Y-128406190D01*
X95285714Y-128406190D01*
X96809523Y-128882380D02*
X96238095Y-128882380D01*
X96523809Y-128882380D02*
X96523809Y-127882380D01*
X96428571Y-128025238D01*
X96333333Y-128120476D01*
X96238095Y-128168095D01*
X97428571Y-127882380D02*
X97523809Y-127882380D01*
X97619047Y-127930000D01*
X97666666Y-127977619D01*
X97714285Y-128072857D01*
X97761904Y-128263333D01*
X97761904Y-128501428D01*
X97714285Y-128691904D01*
X97666666Y-128787142D01*
X97619047Y-128834761D01*
X97523809Y-128882380D01*
X97428571Y-128882380D01*
X97333333Y-128834761D01*
X97285714Y-128787142D01*
X97238095Y-128691904D01*
X97190476Y-128501428D01*
X97190476Y-128263333D01*
X97238095Y-128072857D01*
X97285714Y-127977619D01*
X97333333Y-127930000D01*
X97428571Y-127882380D01*
X101857142Y-128882380D02*
X101523809Y-128406190D01*
X101285714Y-128882380D02*
X101285714Y-127882380D01*
X101666666Y-127882380D01*
X101761904Y-127930000D01*
X101809523Y-127977619D01*
X101857142Y-128072857D01*
X101857142Y-128215714D01*
X101809523Y-128310952D01*
X101761904Y-128358571D01*
X101666666Y-128406190D01*
X101285714Y-128406190D01*
X102809523Y-128882380D02*
X102238095Y-128882380D01*
X102523809Y-128882380D02*
X102523809Y-127882380D01*
X102428571Y-128025238D01*
X102333333Y-128120476D01*
X102238095Y-128168095D01*
X103761904Y-128882380D02*
X103190476Y-128882380D01*
X103476190Y-128882380D02*
X103476190Y-127882380D01*
X103380952Y-128025238D01*
X103285714Y-128120476D01*
X103190476Y-128168095D01*
X104352380Y-134238095D02*
X105161904Y-134238095D01*
X105257142Y-134190476D01*
X105304761Y-134142857D01*
X105352380Y-134047619D01*
X105352380Y-133857142D01*
X105304761Y-133761904D01*
X105257142Y-133714285D01*
X105161904Y-133666666D01*
X104352380Y-133666666D01*
X105352380Y-132666666D02*
X105352380Y-133238095D01*
X105352380Y-132952380D02*
X104352380Y-132952380D01*
X104495238Y-133047619D01*
X104590476Y-133142857D01*
X104638095Y-133238095D01*
X104352380Y-132047619D02*
X104352380Y-131952380D01*
X104400000Y-131857142D01*
X104447619Y-131809523D01*
X104542857Y-131761904D01*
X104733333Y-131714285D01*
X104971428Y-131714285D01*
X105161904Y-131761904D01*
X105257142Y-131809523D01*
X105304761Y-131857142D01*
X105352380Y-131952380D01*
X105352380Y-132047619D01*
X105304761Y-132142857D01*
X105257142Y-132190476D01*
X105161904Y-132238095D01*
X104971428Y-132285714D01*
X104733333Y-132285714D01*
X104542857Y-132238095D01*
X104447619Y-132190476D01*
X104400000Y-132142857D01*
X104352380Y-132047619D01*
X96035714Y-144302380D02*
X96035714Y-143302380D01*
X96273809Y-143302380D01*
X96416666Y-143350000D01*
X96511904Y-143445238D01*
X96559523Y-143540476D01*
X96607142Y-143730952D01*
X96607142Y-143873809D01*
X96559523Y-144064285D01*
X96511904Y-144159523D01*
X96416666Y-144254761D01*
X96273809Y-144302380D01*
X96035714Y-144302380D01*
X97559523Y-144302380D02*
X96988095Y-144302380D01*
X97273809Y-144302380D02*
X97273809Y-143302380D01*
X97178571Y-143445238D01*
X97083333Y-143540476D01*
X96988095Y-143588095D01*
X98178571Y-143302380D02*
X98273809Y-143302380D01*
X98369047Y-143350000D01*
X98416666Y-143397619D01*
X98464285Y-143492857D01*
X98511904Y-143683333D01*
X98511904Y-143921428D01*
X98464285Y-144111904D01*
X98416666Y-144207142D01*
X98369047Y-144254761D01*
X98273809Y-144302380D01*
X98178571Y-144302380D01*
X98083333Y-144254761D01*
X98035714Y-144207142D01*
X97988095Y-144111904D01*
X97940476Y-143921428D01*
X97940476Y-143683333D01*
X97988095Y-143492857D01*
X98035714Y-143397619D01*
X98083333Y-143350000D01*
X98178571Y-143302380D01*
X63107142Y-142392857D02*
X63154761Y-142440476D01*
X63202380Y-142583333D01*
X63202380Y-142678571D01*
X63154761Y-142821428D01*
X63059523Y-142916666D01*
X62964285Y-142964285D01*
X62773809Y-143011904D01*
X62630952Y-143011904D01*
X62440476Y-142964285D01*
X62345238Y-142916666D01*
X62250000Y-142821428D01*
X62202380Y-142678571D01*
X62202380Y-142583333D01*
X62250000Y-142440476D01*
X62297619Y-142392857D01*
X62202380Y-141773809D02*
X62202380Y-141678571D01*
X62250000Y-141583333D01*
X62297619Y-141535714D01*
X62392857Y-141488095D01*
X62583333Y-141440476D01*
X62821428Y-141440476D01*
X63011904Y-141488095D01*
X63107142Y-141535714D01*
X63154761Y-141583333D01*
X63202380Y-141678571D01*
X63202380Y-141773809D01*
X63154761Y-141869047D01*
X63107142Y-141916666D01*
X63011904Y-141964285D01*
X62821428Y-142011904D01*
X62583333Y-142011904D01*
X62392857Y-141964285D01*
X62297619Y-141916666D01*
X62250000Y-141869047D01*
X62202380Y-141773809D01*
X62202380Y-140821428D02*
X62202380Y-140726190D01*
X62250000Y-140630952D01*
X62297619Y-140583333D01*
X62392857Y-140535714D01*
X62583333Y-140488095D01*
X62821428Y-140488095D01*
X63011904Y-140535714D01*
X63107142Y-140583333D01*
X63154761Y-140630952D01*
X63202380Y-140726190D01*
X63202380Y-140821428D01*
X63154761Y-140916666D01*
X63107142Y-140964285D01*
X63011904Y-141011904D01*
X62821428Y-141059523D01*
X62583333Y-141059523D01*
X62392857Y-141011904D01*
X62297619Y-140964285D01*
X62250000Y-140916666D01*
X62202380Y-140821428D01*
X52107142Y-139427142D02*
X52059523Y-139474761D01*
X51916666Y-139522380D01*
X51821428Y-139522380D01*
X51678571Y-139474761D01*
X51583333Y-139379523D01*
X51535714Y-139284285D01*
X51488095Y-139093809D01*
X51488095Y-138950952D01*
X51535714Y-138760476D01*
X51583333Y-138665238D01*
X51678571Y-138570000D01*
X51821428Y-138522380D01*
X51916666Y-138522380D01*
X52059523Y-138570000D01*
X52107142Y-138617619D01*
X52726190Y-138522380D02*
X52821428Y-138522380D01*
X52916666Y-138570000D01*
X52964285Y-138617619D01*
X53011904Y-138712857D01*
X53059523Y-138903333D01*
X53059523Y-139141428D01*
X53011904Y-139331904D01*
X52964285Y-139427142D01*
X52916666Y-139474761D01*
X52821428Y-139522380D01*
X52726190Y-139522380D01*
X52630952Y-139474761D01*
X52583333Y-139427142D01*
X52535714Y-139331904D01*
X52488095Y-139141428D01*
X52488095Y-138903333D01*
X52535714Y-138712857D01*
X52583333Y-138617619D01*
X52630952Y-138570000D01*
X52726190Y-138522380D01*
X54011904Y-139522380D02*
X53440476Y-139522380D01*
X53726190Y-139522380D02*
X53726190Y-138522380D01*
X53630952Y-138665238D01*
X53535714Y-138760476D01*
X53440476Y-138808095D01*
X78177142Y-143642857D02*
X78224761Y-143690476D01*
X78272380Y-143833333D01*
X78272380Y-143928571D01*
X78224761Y-144071428D01*
X78129523Y-144166666D01*
X78034285Y-144214285D01*
X77843809Y-144261904D01*
X77700952Y-144261904D01*
X77510476Y-144214285D01*
X77415238Y-144166666D01*
X77320000Y-144071428D01*
X77272380Y-143928571D01*
X77272380Y-143833333D01*
X77320000Y-143690476D01*
X77367619Y-143642857D01*
X77272380Y-143023809D02*
X77272380Y-142928571D01*
X77320000Y-142833333D01*
X77367619Y-142785714D01*
X77462857Y-142738095D01*
X77653333Y-142690476D01*
X77891428Y-142690476D01*
X78081904Y-142738095D01*
X78177142Y-142785714D01*
X78224761Y-142833333D01*
X78272380Y-142928571D01*
X78272380Y-143023809D01*
X78224761Y-143119047D01*
X78177142Y-143166666D01*
X78081904Y-143214285D01*
X77891428Y-143261904D01*
X77653333Y-143261904D01*
X77462857Y-143214285D01*
X77367619Y-143166666D01*
X77320000Y-143119047D01*
X77272380Y-143023809D01*
X77367619Y-142309523D02*
X77320000Y-142261904D01*
X77272380Y-142166666D01*
X77272380Y-141928571D01*
X77320000Y-141833333D01*
X77367619Y-141785714D01*
X77462857Y-141738095D01*
X77558095Y-141738095D01*
X77700952Y-141785714D01*
X78272380Y-142357142D01*
X78272380Y-141738095D01*
X57607142Y-147952380D02*
X57273809Y-147476190D01*
X57035714Y-147952380D02*
X57035714Y-146952380D01*
X57416666Y-146952380D01*
X57511904Y-147000000D01*
X57559523Y-147047619D01*
X57607142Y-147142857D01*
X57607142Y-147285714D01*
X57559523Y-147380952D01*
X57511904Y-147428571D01*
X57416666Y-147476190D01*
X57035714Y-147476190D01*
X58226190Y-146952380D02*
X58321428Y-146952380D01*
X58416666Y-147000000D01*
X58464285Y-147047619D01*
X58511904Y-147142857D01*
X58559523Y-147333333D01*
X58559523Y-147571428D01*
X58511904Y-147761904D01*
X58464285Y-147857142D01*
X58416666Y-147904761D01*
X58321428Y-147952380D01*
X58226190Y-147952380D01*
X58130952Y-147904761D01*
X58083333Y-147857142D01*
X58035714Y-147761904D01*
X57988095Y-147571428D01*
X57988095Y-147333333D01*
X58035714Y-147142857D01*
X58083333Y-147047619D01*
X58130952Y-147000000D01*
X58226190Y-146952380D01*
X59178571Y-146952380D02*
X59273809Y-146952380D01*
X59369047Y-147000000D01*
X59416666Y-147047619D01*
X59464285Y-147142857D01*
X59511904Y-147333333D01*
X59511904Y-147571428D01*
X59464285Y-147761904D01*
X59416666Y-147857142D01*
X59369047Y-147904761D01*
X59273809Y-147952380D01*
X59178571Y-147952380D01*
X59083333Y-147904761D01*
X59035714Y-147857142D01*
X58988095Y-147761904D01*
X58940476Y-147571428D01*
X58940476Y-147333333D01*
X58988095Y-147142857D01*
X59035714Y-147047619D01*
X59083333Y-147000000D01*
X59178571Y-146952380D01*
X57607142Y-143022380D02*
X57273809Y-142546190D01*
X57035714Y-143022380D02*
X57035714Y-142022380D01*
X57416666Y-142022380D01*
X57511904Y-142070000D01*
X57559523Y-142117619D01*
X57607142Y-142212857D01*
X57607142Y-142355714D01*
X57559523Y-142450952D01*
X57511904Y-142498571D01*
X57416666Y-142546190D01*
X57035714Y-142546190D01*
X58226190Y-142022380D02*
X58321428Y-142022380D01*
X58416666Y-142070000D01*
X58464285Y-142117619D01*
X58511904Y-142212857D01*
X58559523Y-142403333D01*
X58559523Y-142641428D01*
X58511904Y-142831904D01*
X58464285Y-142927142D01*
X58416666Y-142974761D01*
X58321428Y-143022380D01*
X58226190Y-143022380D01*
X58130952Y-142974761D01*
X58083333Y-142927142D01*
X58035714Y-142831904D01*
X57988095Y-142641428D01*
X57988095Y-142403333D01*
X58035714Y-142212857D01*
X58083333Y-142117619D01*
X58130952Y-142070000D01*
X58226190Y-142022380D01*
X59511904Y-143022380D02*
X58940476Y-143022380D01*
X59226190Y-143022380D02*
X59226190Y-142022380D01*
X59130952Y-142165238D01*
X59035714Y-142260476D01*
X58940476Y-142308095D01*
X47107142Y-147952380D02*
X46773809Y-147476190D01*
X46535714Y-147952380D02*
X46535714Y-146952380D01*
X46916666Y-146952380D01*
X47011904Y-147000000D01*
X47059523Y-147047619D01*
X47107142Y-147142857D01*
X47107142Y-147285714D01*
X47059523Y-147380952D01*
X47011904Y-147428571D01*
X46916666Y-147476190D01*
X46535714Y-147476190D01*
X47726190Y-146952380D02*
X47821428Y-146952380D01*
X47916666Y-147000000D01*
X47964285Y-147047619D01*
X48011904Y-147142857D01*
X48059523Y-147333333D01*
X48059523Y-147571428D01*
X48011904Y-147761904D01*
X47964285Y-147857142D01*
X47916666Y-147904761D01*
X47821428Y-147952380D01*
X47726190Y-147952380D01*
X47630952Y-147904761D01*
X47583333Y-147857142D01*
X47535714Y-147761904D01*
X47488095Y-147571428D01*
X47488095Y-147333333D01*
X47535714Y-147142857D01*
X47583333Y-147047619D01*
X47630952Y-147000000D01*
X47726190Y-146952380D01*
X48916666Y-147285714D02*
X48916666Y-147952380D01*
X48678571Y-146904761D02*
X48440476Y-147619047D01*
X49059523Y-147619047D01*
X47107142Y-143022380D02*
X46773809Y-142546190D01*
X46535714Y-143022380D02*
X46535714Y-142022380D01*
X46916666Y-142022380D01*
X47011904Y-142070000D01*
X47059523Y-142117619D01*
X47107142Y-142212857D01*
X47107142Y-142355714D01*
X47059523Y-142450952D01*
X47011904Y-142498571D01*
X46916666Y-142546190D01*
X46535714Y-142546190D01*
X47726190Y-142022380D02*
X47821428Y-142022380D01*
X47916666Y-142070000D01*
X47964285Y-142117619D01*
X48011904Y-142212857D01*
X48059523Y-142403333D01*
X48059523Y-142641428D01*
X48011904Y-142831904D01*
X47964285Y-142927142D01*
X47916666Y-142974761D01*
X47821428Y-143022380D01*
X47726190Y-143022380D01*
X47630952Y-142974761D01*
X47583333Y-142927142D01*
X47535714Y-142831904D01*
X47488095Y-142641428D01*
X47488095Y-142403333D01*
X47535714Y-142212857D01*
X47583333Y-142117619D01*
X47630952Y-142070000D01*
X47726190Y-142022380D01*
X48964285Y-142022380D02*
X48488095Y-142022380D01*
X48440476Y-142498571D01*
X48488095Y-142450952D01*
X48583333Y-142403333D01*
X48821428Y-142403333D01*
X48916666Y-142450952D01*
X48964285Y-142498571D01*
X49011904Y-142593809D01*
X49011904Y-142831904D01*
X48964285Y-142927142D01*
X48916666Y-142974761D01*
X48821428Y-143022380D01*
X48583333Y-143022380D01*
X48488095Y-142974761D01*
X48440476Y-142927142D01*
X59508095Y-112532380D02*
X60079523Y-112532380D01*
X59793809Y-113532380D02*
X59793809Y-112532380D01*
X60412857Y-113532380D02*
X60412857Y-112532380D01*
X60412857Y-113008571D02*
X60984285Y-113008571D01*
X60984285Y-113532380D02*
X60984285Y-112532380D01*
X61650952Y-112532380D02*
X61746190Y-112532380D01*
X61841428Y-112580000D01*
X61889047Y-112627619D01*
X61936666Y-112722857D01*
X61984285Y-112913333D01*
X61984285Y-113151428D01*
X61936666Y-113341904D01*
X61889047Y-113437142D01*
X61841428Y-113484761D01*
X61746190Y-113532380D01*
X61650952Y-113532380D01*
X61555714Y-113484761D01*
X61508095Y-113437142D01*
X61460476Y-113341904D01*
X61412857Y-113151428D01*
X61412857Y-112913333D01*
X61460476Y-112722857D01*
X61508095Y-112627619D01*
X61555714Y-112580000D01*
X61650952Y-112532380D01*
X62603333Y-112532380D02*
X62698571Y-112532380D01*
X62793809Y-112580000D01*
X62841428Y-112627619D01*
X62889047Y-112722857D01*
X62936666Y-112913333D01*
X62936666Y-113151428D01*
X62889047Y-113341904D01*
X62841428Y-113437142D01*
X62793809Y-113484761D01*
X62698571Y-113532380D01*
X62603333Y-113532380D01*
X62508095Y-113484761D01*
X62460476Y-113437142D01*
X62412857Y-113341904D01*
X62365238Y-113151428D01*
X62365238Y-112913333D01*
X62412857Y-112722857D01*
X62460476Y-112627619D01*
X62508095Y-112580000D01*
X62603333Y-112532380D01*
X55272380Y-146238095D02*
X56081904Y-146238095D01*
X56177142Y-146190476D01*
X56224761Y-146142857D01*
X56272380Y-146047619D01*
X56272380Y-145857142D01*
X56224761Y-145761904D01*
X56177142Y-145714285D01*
X56081904Y-145666666D01*
X55272380Y-145666666D01*
X55272380Y-145000000D02*
X55272380Y-144904761D01*
X55320000Y-144809523D01*
X55367619Y-144761904D01*
X55462857Y-144714285D01*
X55653333Y-144666666D01*
X55891428Y-144666666D01*
X56081904Y-144714285D01*
X56177142Y-144761904D01*
X56224761Y-144809523D01*
X56272380Y-144904761D01*
X56272380Y-145000000D01*
X56224761Y-145095238D01*
X56177142Y-145142857D01*
X56081904Y-145190476D01*
X55891428Y-145238095D01*
X55653333Y-145238095D01*
X55462857Y-145190476D01*
X55367619Y-145142857D01*
X55320000Y-145095238D01*
X55272380Y-145000000D01*
X55272380Y-144047619D02*
X55272380Y-143952380D01*
X55320000Y-143857142D01*
X55367619Y-143809523D01*
X55462857Y-143761904D01*
X55653333Y-143714285D01*
X55891428Y-143714285D01*
X56081904Y-143761904D01*
X56177142Y-143809523D01*
X56224761Y-143857142D01*
X56272380Y-143952380D01*
X56272380Y-144047619D01*
X56224761Y-144142857D01*
X56177142Y-144190476D01*
X56081904Y-144238095D01*
X55891428Y-144285714D01*
X55653333Y-144285714D01*
X55462857Y-144238095D01*
X55367619Y-144190476D01*
X55320000Y-144142857D01*
X55272380Y-144047619D01*
X82986905Y-140187381D02*
X82986905Y-140996905D01*
X83034524Y-141092143D01*
X83082143Y-141139762D01*
X83177381Y-141187381D01*
X83367858Y-141187381D01*
X83463096Y-141139762D01*
X83510715Y-141092143D01*
X83558334Y-140996905D01*
X83558334Y-140187381D01*
X83939286Y-140187381D02*
X84558334Y-140187381D01*
X84225001Y-140568334D01*
X84367858Y-140568334D01*
X84463096Y-140615953D01*
X84510715Y-140663572D01*
X84558334Y-140758810D01*
X84558334Y-140996905D01*
X84510715Y-141092143D01*
X84463096Y-141139762D01*
X84367858Y-141187381D01*
X84082143Y-141187381D01*
X83986905Y-141139762D01*
X83939286Y-141092143D01*
X85177381Y-140187381D02*
X85272620Y-140187381D01*
X85367858Y-140235001D01*
X85415477Y-140282620D01*
X85463096Y-140377858D01*
X85510715Y-140568334D01*
X85510715Y-140806429D01*
X85463096Y-140996905D01*
X85415477Y-141092143D01*
X85367858Y-141139762D01*
X85272620Y-141187381D01*
X85177381Y-141187381D01*
X85082143Y-141139762D01*
X85034524Y-141092143D01*
X84986905Y-140996905D01*
X84939286Y-140806429D01*
X84939286Y-140568334D01*
X84986905Y-140377858D01*
X85034524Y-140282620D01*
X85082143Y-140235001D01*
X85177381Y-140187381D01*
X88607142Y-140607142D02*
X88559523Y-140654761D01*
X88416666Y-140702380D01*
X88321428Y-140702380D01*
X88178571Y-140654761D01*
X88083333Y-140559523D01*
X88035714Y-140464285D01*
X87988095Y-140273809D01*
X87988095Y-140130952D01*
X88035714Y-139940476D01*
X88083333Y-139845238D01*
X88178571Y-139750000D01*
X88321428Y-139702380D01*
X88416666Y-139702380D01*
X88559523Y-139750000D01*
X88607142Y-139797619D01*
X88940476Y-139702380D02*
X89559523Y-139702380D01*
X89226190Y-140083333D01*
X89369047Y-140083333D01*
X89464285Y-140130952D01*
X89511904Y-140178571D01*
X89559523Y-140273809D01*
X89559523Y-140511904D01*
X89511904Y-140607142D01*
X89464285Y-140654761D01*
X89369047Y-140702380D01*
X89083333Y-140702380D01*
X88988095Y-140654761D01*
X88940476Y-140607142D01*
X90511904Y-140702380D02*
X89940476Y-140702380D01*
X90226190Y-140702380D02*
X90226190Y-139702380D01*
X90130952Y-139845238D01*
X90035714Y-139940476D01*
X89940476Y-139988095D01*
X48952380Y-115309523D02*
X49666666Y-115309523D01*
X49809523Y-115357142D01*
X49904761Y-115452380D01*
X49952380Y-115595238D01*
X49952380Y-115690476D01*
X49047619Y-114880952D02*
X49000000Y-114833333D01*
X48952380Y-114738095D01*
X48952380Y-114500000D01*
X49000000Y-114404761D01*
X49047619Y-114357142D01*
X49142857Y-114309523D01*
X49238095Y-114309523D01*
X49380952Y-114357142D01*
X49952380Y-114928571D01*
X49952380Y-114309523D01*
X48952380Y-113690476D02*
X48952380Y-113595238D01*
X49000000Y-113500000D01*
X49047619Y-113452380D01*
X49142857Y-113404761D01*
X49333333Y-113357142D01*
X49571428Y-113357142D01*
X49761904Y-113404761D01*
X49857142Y-113452380D01*
X49904761Y-113500000D01*
X49952380Y-113595238D01*
X49952380Y-113690476D01*
X49904761Y-113785714D01*
X49857142Y-113833333D01*
X49761904Y-113880952D01*
X49571428Y-113928571D01*
X49333333Y-113928571D01*
X49142857Y-113880952D01*
X49047619Y-113833333D01*
X49000000Y-113785714D01*
X48952380Y-113690476D01*
X39785714Y-157952380D02*
X39785714Y-156952380D01*
X40023809Y-156952380D01*
X40166666Y-157000000D01*
X40261904Y-157095238D01*
X40309523Y-157190476D01*
X40357142Y-157380952D01*
X40357142Y-157523809D01*
X40309523Y-157714285D01*
X40261904Y-157809523D01*
X40166666Y-157904761D01*
X40023809Y-157952380D01*
X39785714Y-157952380D01*
X40976190Y-156952380D02*
X41071428Y-156952380D01*
X41166666Y-157000000D01*
X41214285Y-157047619D01*
X41261904Y-157142857D01*
X41309523Y-157333333D01*
X41309523Y-157571428D01*
X41261904Y-157761904D01*
X41214285Y-157857142D01*
X41166666Y-157904761D01*
X41071428Y-157952380D01*
X40976190Y-157952380D01*
X40880952Y-157904761D01*
X40833333Y-157857142D01*
X40785714Y-157761904D01*
X40738095Y-157571428D01*
X40738095Y-157333333D01*
X40785714Y-157142857D01*
X40833333Y-157047619D01*
X40880952Y-157000000D01*
X40976190Y-156952380D01*
X41928571Y-156952380D02*
X42023809Y-156952380D01*
X42119047Y-157000000D01*
X42166666Y-157047619D01*
X42214285Y-157142857D01*
X42261904Y-157333333D01*
X42261904Y-157571428D01*
X42214285Y-157761904D01*
X42166666Y-157857142D01*
X42119047Y-157904761D01*
X42023809Y-157952380D01*
X41928571Y-157952380D01*
X41833333Y-157904761D01*
X41785714Y-157857142D01*
X41738095Y-157761904D01*
X41690476Y-157571428D01*
X41690476Y-157333333D01*
X41738095Y-157142857D01*
X41785714Y-157047619D01*
X41833333Y-157000000D01*
X41928571Y-156952380D01*
X40452380Y-155142857D02*
X39976190Y-155476190D01*
X40452380Y-155714285D02*
X39452380Y-155714285D01*
X39452380Y-155333333D01*
X39500000Y-155238095D01*
X39547619Y-155190476D01*
X39642857Y-155142857D01*
X39785714Y-155142857D01*
X39880952Y-155190476D01*
X39928571Y-155238095D01*
X39976190Y-155333333D01*
X39976190Y-155714285D01*
X39452380Y-154523809D02*
X39452380Y-154428571D01*
X39500000Y-154333333D01*
X39547619Y-154285714D01*
X39642857Y-154238095D01*
X39833333Y-154190476D01*
X40071428Y-154190476D01*
X40261904Y-154238095D01*
X40357142Y-154285714D01*
X40404761Y-154333333D01*
X40452380Y-154428571D01*
X40452380Y-154523809D01*
X40404761Y-154619047D01*
X40357142Y-154666666D01*
X40261904Y-154714285D01*
X40071428Y-154761904D01*
X39833333Y-154761904D01*
X39642857Y-154714285D01*
X39547619Y-154666666D01*
X39500000Y-154619047D01*
X39452380Y-154523809D01*
X39547619Y-153809523D02*
X39500000Y-153761904D01*
X39452380Y-153666666D01*
X39452380Y-153428571D01*
X39500000Y-153333333D01*
X39547619Y-153285714D01*
X39642857Y-153238095D01*
X39738095Y-153238095D01*
X39880952Y-153285714D01*
X40452380Y-153857142D01*
X40452380Y-153238095D01*
X34452380Y-155142857D02*
X33976190Y-155476190D01*
X34452380Y-155714285D02*
X33452380Y-155714285D01*
X33452380Y-155333333D01*
X33500000Y-155238095D01*
X33547619Y-155190476D01*
X33642857Y-155142857D01*
X33785714Y-155142857D01*
X33880952Y-155190476D01*
X33928571Y-155238095D01*
X33976190Y-155333333D01*
X33976190Y-155714285D01*
X33452380Y-154523809D02*
X33452380Y-154428571D01*
X33500000Y-154333333D01*
X33547619Y-154285714D01*
X33642857Y-154238095D01*
X33833333Y-154190476D01*
X34071428Y-154190476D01*
X34261904Y-154238095D01*
X34357142Y-154285714D01*
X34404761Y-154333333D01*
X34452380Y-154428571D01*
X34452380Y-154523809D01*
X34404761Y-154619047D01*
X34357142Y-154666666D01*
X34261904Y-154714285D01*
X34071428Y-154761904D01*
X33833333Y-154761904D01*
X33642857Y-154714285D01*
X33547619Y-154666666D01*
X33500000Y-154619047D01*
X33452380Y-154523809D01*
X33452380Y-153857142D02*
X33452380Y-153238095D01*
X33833333Y-153571428D01*
X33833333Y-153428571D01*
X33880952Y-153333333D01*
X33928571Y-153285714D01*
X34023809Y-153238095D01*
X34261904Y-153238095D01*
X34357142Y-153285714D01*
X34404761Y-153333333D01*
X34452380Y-153428571D01*
X34452380Y-153714285D01*
X34404761Y-153809523D01*
X34357142Y-153857142D01*
X37452380Y-152142857D02*
X36976190Y-152476190D01*
X37452380Y-152714285D02*
X36452380Y-152714285D01*
X36452380Y-152333333D01*
X36500000Y-152238095D01*
X36547619Y-152190476D01*
X36642857Y-152142857D01*
X36785714Y-152142857D01*
X36880952Y-152190476D01*
X36928571Y-152238095D01*
X36976190Y-152333333D01*
X36976190Y-152714285D01*
X36452380Y-151523809D02*
X36452380Y-151428571D01*
X36500000Y-151333333D01*
X36547619Y-151285714D01*
X36642857Y-151238095D01*
X36833333Y-151190476D01*
X37071428Y-151190476D01*
X37261904Y-151238095D01*
X37357142Y-151285714D01*
X37404761Y-151333333D01*
X37452380Y-151428571D01*
X37452380Y-151523809D01*
X37404761Y-151619047D01*
X37357142Y-151666666D01*
X37261904Y-151714285D01*
X37071428Y-151761904D01*
X36833333Y-151761904D01*
X36642857Y-151714285D01*
X36547619Y-151666666D01*
X36500000Y-151619047D01*
X36452380Y-151523809D01*
X36452380Y-150333333D02*
X36452380Y-150523809D01*
X36500000Y-150619047D01*
X36547619Y-150666666D01*
X36690476Y-150761904D01*
X36880952Y-150809523D01*
X37261904Y-150809523D01*
X37357142Y-150761904D01*
X37404761Y-150714285D01*
X37452380Y-150619047D01*
X37452380Y-150428571D01*
X37404761Y-150333333D01*
X37357142Y-150285714D01*
X37261904Y-150238095D01*
X37023809Y-150238095D01*
X36928571Y-150285714D01*
X36880952Y-150333333D01*
X36833333Y-150428571D01*
X36833333Y-150619047D01*
X36880952Y-150714285D01*
X36928571Y-150761904D01*
X37023809Y-150809523D01*
X67452380Y-142392857D02*
X66976190Y-142726190D01*
X67452380Y-142964285D02*
X66452380Y-142964285D01*
X66452380Y-142583333D01*
X66500000Y-142488095D01*
X66547619Y-142440476D01*
X66642857Y-142392857D01*
X66785714Y-142392857D01*
X66880952Y-142440476D01*
X66928571Y-142488095D01*
X66976190Y-142583333D01*
X66976190Y-142964285D01*
X66452380Y-141773809D02*
X66452380Y-141678571D01*
X66500000Y-141583333D01*
X66547619Y-141535714D01*
X66642857Y-141488095D01*
X66833333Y-141440476D01*
X67071428Y-141440476D01*
X67261904Y-141488095D01*
X67357142Y-141535714D01*
X67404761Y-141583333D01*
X67452380Y-141678571D01*
X67452380Y-141773809D01*
X67404761Y-141869047D01*
X67357142Y-141916666D01*
X67261904Y-141964285D01*
X67071428Y-142011904D01*
X66833333Y-142011904D01*
X66642857Y-141964285D01*
X66547619Y-141916666D01*
X66500000Y-141869047D01*
X66452380Y-141773809D01*
X66452380Y-141107142D02*
X66452380Y-140440476D01*
X67452380Y-140869047D01*
X65702380Y-142392857D02*
X65226190Y-142726190D01*
X65702380Y-142964285D02*
X64702380Y-142964285D01*
X64702380Y-142583333D01*
X64750000Y-142488095D01*
X64797619Y-142440476D01*
X64892857Y-142392857D01*
X65035714Y-142392857D01*
X65130952Y-142440476D01*
X65178571Y-142488095D01*
X65226190Y-142583333D01*
X65226190Y-142964285D01*
X64702380Y-141773809D02*
X64702380Y-141678571D01*
X64750000Y-141583333D01*
X64797619Y-141535714D01*
X64892857Y-141488095D01*
X65083333Y-141440476D01*
X65321428Y-141440476D01*
X65511904Y-141488095D01*
X65607142Y-141535714D01*
X65654761Y-141583333D01*
X65702380Y-141678571D01*
X65702380Y-141773809D01*
X65654761Y-141869047D01*
X65607142Y-141916666D01*
X65511904Y-141964285D01*
X65321428Y-142011904D01*
X65083333Y-142011904D01*
X64892857Y-141964285D01*
X64797619Y-141916666D01*
X64750000Y-141869047D01*
X64702380Y-141773809D01*
X65130952Y-140869047D02*
X65083333Y-140964285D01*
X65035714Y-141011904D01*
X64940476Y-141059523D01*
X64892857Y-141059523D01*
X64797619Y-141011904D01*
X64750000Y-140964285D01*
X64702380Y-140869047D01*
X64702380Y-140678571D01*
X64750000Y-140583333D01*
X64797619Y-140535714D01*
X64892857Y-140488095D01*
X64940476Y-140488095D01*
X65035714Y-140535714D01*
X65083333Y-140583333D01*
X65130952Y-140678571D01*
X65130952Y-140869047D01*
X65178571Y-140964285D01*
X65226190Y-141011904D01*
X65321428Y-141059523D01*
X65511904Y-141059523D01*
X65607142Y-141011904D01*
X65654761Y-140964285D01*
X65702380Y-140869047D01*
X65702380Y-140678571D01*
X65654761Y-140583333D01*
X65607142Y-140535714D01*
X65511904Y-140488095D01*
X65321428Y-140488095D01*
X65226190Y-140535714D01*
X65178571Y-140583333D01*
X65130952Y-140678571D01*
X57857142Y-135427142D02*
X57809523Y-135474761D01*
X57666666Y-135522380D01*
X57571428Y-135522380D01*
X57428571Y-135474761D01*
X57333333Y-135379523D01*
X57285714Y-135284285D01*
X57238095Y-135093809D01*
X57238095Y-134950952D01*
X57285714Y-134760476D01*
X57333333Y-134665238D01*
X57428571Y-134570000D01*
X57571428Y-134522380D01*
X57666666Y-134522380D01*
X57809523Y-134570000D01*
X57857142Y-134617619D01*
X58238095Y-134617619D02*
X58285714Y-134570000D01*
X58380952Y-134522380D01*
X58619047Y-134522380D01*
X58714285Y-134570000D01*
X58761904Y-134617619D01*
X58809523Y-134712857D01*
X58809523Y-134808095D01*
X58761904Y-134950952D01*
X58190476Y-135522380D01*
X58809523Y-135522380D01*
X59428571Y-134522380D02*
X59523809Y-134522380D01*
X59619047Y-134570000D01*
X59666666Y-134617619D01*
X59714285Y-134712857D01*
X59761904Y-134903333D01*
X59761904Y-135141428D01*
X59714285Y-135331904D01*
X59666666Y-135427142D01*
X59619047Y-135474761D01*
X59523809Y-135522380D01*
X59428571Y-135522380D01*
X59333333Y-135474761D01*
X59285714Y-135427142D01*
X59238095Y-135331904D01*
X59190476Y-135141428D01*
X59190476Y-134903333D01*
X59238095Y-134712857D01*
X59285714Y-134617619D01*
X59333333Y-134570000D01*
X59428571Y-134522380D01*
X57857142Y-130177142D02*
X57809523Y-130224761D01*
X57666666Y-130272380D01*
X57571428Y-130272380D01*
X57428571Y-130224761D01*
X57333333Y-130129523D01*
X57285714Y-130034285D01*
X57238095Y-129843809D01*
X57238095Y-129700952D01*
X57285714Y-129510476D01*
X57333333Y-129415238D01*
X57428571Y-129320000D01*
X57571428Y-129272380D01*
X57666666Y-129272380D01*
X57809523Y-129320000D01*
X57857142Y-129367619D01*
X58238095Y-129367619D02*
X58285714Y-129320000D01*
X58380952Y-129272380D01*
X58619047Y-129272380D01*
X58714285Y-129320000D01*
X58761904Y-129367619D01*
X58809523Y-129462857D01*
X58809523Y-129558095D01*
X58761904Y-129700952D01*
X58190476Y-130272380D01*
X58809523Y-130272380D01*
X59761904Y-130272380D02*
X59190476Y-130272380D01*
X59476190Y-130272380D02*
X59476190Y-129272380D01*
X59380952Y-129415238D01*
X59285714Y-129510476D01*
X59190476Y-129558095D01*
X27177142Y-49642857D02*
X27224761Y-49690476D01*
X27272380Y-49833333D01*
X27272380Y-49928571D01*
X27224761Y-50071428D01*
X27129523Y-50166666D01*
X27034285Y-50214285D01*
X26843809Y-50261904D01*
X26700952Y-50261904D01*
X26510476Y-50214285D01*
X26415238Y-50166666D01*
X26320000Y-50071428D01*
X26272380Y-49928571D01*
X26272380Y-49833333D01*
X26320000Y-49690476D01*
X26367619Y-49642857D01*
X26605714Y-48785714D02*
X27272380Y-48785714D01*
X26224761Y-49023809D02*
X26939047Y-49261904D01*
X26939047Y-48642857D01*
X26272380Y-48071428D02*
X26272380Y-47976190D01*
X26320000Y-47880952D01*
X26367619Y-47833333D01*
X26462857Y-47785714D01*
X26653333Y-47738095D01*
X26891428Y-47738095D01*
X27081904Y-47785714D01*
X27177142Y-47833333D01*
X27224761Y-47880952D01*
X27272380Y-47976190D01*
X27272380Y-48071428D01*
X27224761Y-48166666D01*
X27177142Y-48214285D01*
X27081904Y-48261904D01*
X26891428Y-48309523D01*
X26653333Y-48309523D01*
X26462857Y-48261904D01*
X26367619Y-48214285D01*
X26320000Y-48166666D01*
X26272380Y-48071428D01*
X27177142Y-64642857D02*
X27224761Y-64690476D01*
X27272380Y-64833333D01*
X27272380Y-64928571D01*
X27224761Y-65071428D01*
X27129523Y-65166666D01*
X27034285Y-65214285D01*
X26843809Y-65261904D01*
X26700952Y-65261904D01*
X26510476Y-65214285D01*
X26415238Y-65166666D01*
X26320000Y-65071428D01*
X26272380Y-64928571D01*
X26272380Y-64833333D01*
X26320000Y-64690476D01*
X26367619Y-64642857D01*
X26605714Y-63785714D02*
X27272380Y-63785714D01*
X26224761Y-64023809D02*
X26939047Y-64261904D01*
X26939047Y-63642857D01*
X27272380Y-62738095D02*
X27272380Y-63309523D01*
X27272380Y-63023809D02*
X26272380Y-63023809D01*
X26415238Y-63119047D01*
X26510476Y-63214285D01*
X26558095Y-63309523D01*
X27177142Y-79642857D02*
X27224761Y-79690476D01*
X27272380Y-79833333D01*
X27272380Y-79928571D01*
X27224761Y-80071428D01*
X27129523Y-80166666D01*
X27034285Y-80214285D01*
X26843809Y-80261904D01*
X26700952Y-80261904D01*
X26510476Y-80214285D01*
X26415238Y-80166666D01*
X26320000Y-80071428D01*
X26272380Y-79928571D01*
X26272380Y-79833333D01*
X26320000Y-79690476D01*
X26367619Y-79642857D01*
X26605714Y-78785714D02*
X27272380Y-78785714D01*
X26224761Y-79023809D02*
X26939047Y-79261904D01*
X26939047Y-78642857D01*
X26367619Y-78309523D02*
X26320000Y-78261904D01*
X26272380Y-78166666D01*
X26272380Y-77928571D01*
X26320000Y-77833333D01*
X26367619Y-77785714D01*
X26462857Y-77738095D01*
X26558095Y-77738095D01*
X26700952Y-77785714D01*
X27272380Y-78357142D01*
X27272380Y-77738095D01*
X27177142Y-94642857D02*
X27224761Y-94690476D01*
X27272380Y-94833333D01*
X27272380Y-94928571D01*
X27224761Y-95071428D01*
X27129523Y-95166666D01*
X27034285Y-95214285D01*
X26843809Y-95261904D01*
X26700952Y-95261904D01*
X26510476Y-95214285D01*
X26415238Y-95166666D01*
X26320000Y-95071428D01*
X26272380Y-94928571D01*
X26272380Y-94833333D01*
X26320000Y-94690476D01*
X26367619Y-94642857D01*
X26605714Y-93785714D02*
X27272380Y-93785714D01*
X26224761Y-94023809D02*
X26939047Y-94261904D01*
X26939047Y-93642857D01*
X26272380Y-93357142D02*
X26272380Y-92738095D01*
X26653333Y-93071428D01*
X26653333Y-92928571D01*
X26700952Y-92833333D01*
X26748571Y-92785714D01*
X26843809Y-92738095D01*
X27081904Y-92738095D01*
X27177142Y-92785714D01*
X27224761Y-92833333D01*
X27272380Y-92928571D01*
X27272380Y-93214285D01*
X27224761Y-93309523D01*
X27177142Y-93357142D01*
X27177142Y-109917857D02*
X27224761Y-109965476D01*
X27272380Y-110108333D01*
X27272380Y-110203571D01*
X27224761Y-110346428D01*
X27129523Y-110441666D01*
X27034285Y-110489285D01*
X26843809Y-110536904D01*
X26700952Y-110536904D01*
X26510476Y-110489285D01*
X26415238Y-110441666D01*
X26320000Y-110346428D01*
X26272380Y-110203571D01*
X26272380Y-110108333D01*
X26320000Y-109965476D01*
X26367619Y-109917857D01*
X26605714Y-109060714D02*
X27272380Y-109060714D01*
X26224761Y-109298809D02*
X26939047Y-109536904D01*
X26939047Y-108917857D01*
X26605714Y-108108333D02*
X27272380Y-108108333D01*
X26224761Y-108346428D02*
X26939047Y-108584523D01*
X26939047Y-107965476D01*
X27177142Y-124642857D02*
X27224761Y-124690476D01*
X27272380Y-124833333D01*
X27272380Y-124928571D01*
X27224761Y-125071428D01*
X27129523Y-125166666D01*
X27034285Y-125214285D01*
X26843809Y-125261904D01*
X26700952Y-125261904D01*
X26510476Y-125214285D01*
X26415238Y-125166666D01*
X26320000Y-125071428D01*
X26272380Y-124928571D01*
X26272380Y-124833333D01*
X26320000Y-124690476D01*
X26367619Y-124642857D01*
X26605714Y-123785714D02*
X27272380Y-123785714D01*
X26224761Y-124023809D02*
X26939047Y-124261904D01*
X26939047Y-123642857D01*
X26272380Y-122785714D02*
X26272380Y-123261904D01*
X26748571Y-123309523D01*
X26700952Y-123261904D01*
X26653333Y-123166666D01*
X26653333Y-122928571D01*
X26700952Y-122833333D01*
X26748571Y-122785714D01*
X26843809Y-122738095D01*
X27081904Y-122738095D01*
X27177142Y-122785714D01*
X27224761Y-122833333D01*
X27272380Y-122928571D01*
X27272380Y-123166666D01*
X27224761Y-123261904D01*
X27177142Y-123309523D01*
X27177142Y-139642857D02*
X27224761Y-139690476D01*
X27272380Y-139833333D01*
X27272380Y-139928571D01*
X27224761Y-140071428D01*
X27129523Y-140166666D01*
X27034285Y-140214285D01*
X26843809Y-140261904D01*
X26700952Y-140261904D01*
X26510476Y-140214285D01*
X26415238Y-140166666D01*
X26320000Y-140071428D01*
X26272380Y-139928571D01*
X26272380Y-139833333D01*
X26320000Y-139690476D01*
X26367619Y-139642857D01*
X26605714Y-138785714D02*
X27272380Y-138785714D01*
X26224761Y-139023809D02*
X26939047Y-139261904D01*
X26939047Y-138642857D01*
X26272380Y-137833333D02*
X26272380Y-138023809D01*
X26320000Y-138119047D01*
X26367619Y-138166666D01*
X26510476Y-138261904D01*
X26700952Y-138309523D01*
X27081904Y-138309523D01*
X27177142Y-138261904D01*
X27224761Y-138214285D01*
X27272380Y-138119047D01*
X27272380Y-137928571D01*
X27224761Y-137833333D01*
X27177142Y-137785714D01*
X27081904Y-137738095D01*
X26843809Y-137738095D01*
X26748571Y-137785714D01*
X26700952Y-137833333D01*
X26653333Y-137928571D01*
X26653333Y-138119047D01*
X26700952Y-138214285D01*
X26748571Y-138261904D01*
X26843809Y-138309523D01*
X67590476Y-148152380D02*
X67590476Y-148866666D01*
X67542857Y-149009523D01*
X67447619Y-149104761D01*
X67304761Y-149152380D01*
X67209523Y-149152380D01*
X68257142Y-148152380D02*
X68352380Y-148152380D01*
X68447619Y-148200000D01*
X68495238Y-148247619D01*
X68542857Y-148342857D01*
X68590476Y-148533333D01*
X68590476Y-148771428D01*
X68542857Y-148961904D01*
X68495238Y-149057142D01*
X68447619Y-149104761D01*
X68352380Y-149152380D01*
X68257142Y-149152380D01*
X68161904Y-149104761D01*
X68114285Y-149057142D01*
X68066666Y-148961904D01*
X68019047Y-148771428D01*
X68019047Y-148533333D01*
X68066666Y-148342857D01*
X68114285Y-148247619D01*
X68161904Y-148200000D01*
X68257142Y-148152380D01*
X69209523Y-148152380D02*
X69304761Y-148152380D01*
X69400000Y-148200000D01*
X69447619Y-148247619D01*
X69495238Y-148342857D01*
X69542857Y-148533333D01*
X69542857Y-148771428D01*
X69495238Y-148961904D01*
X69447619Y-149057142D01*
X69400000Y-149104761D01*
X69304761Y-149152380D01*
X69209523Y-149152380D01*
X69114285Y-149104761D01*
X69066666Y-149057142D01*
X69019047Y-148961904D01*
X68971428Y-148771428D01*
X68971428Y-148533333D01*
X69019047Y-148342857D01*
X69066666Y-148247619D01*
X69114285Y-148200000D01*
X69209523Y-148152380D01*
X46857142Y-135522380D02*
X46523809Y-135046190D01*
X46285714Y-135522380D02*
X46285714Y-134522380D01*
X46666666Y-134522380D01*
X46761904Y-134570000D01*
X46809523Y-134617619D01*
X46857142Y-134712857D01*
X46857142Y-134855714D01*
X46809523Y-134950952D01*
X46761904Y-134998571D01*
X46666666Y-135046190D01*
X46285714Y-135046190D01*
X47238095Y-134617619D02*
X47285714Y-134570000D01*
X47380952Y-134522380D01*
X47619047Y-134522380D01*
X47714285Y-134570000D01*
X47761904Y-134617619D01*
X47809523Y-134712857D01*
X47809523Y-134808095D01*
X47761904Y-134950952D01*
X47190476Y-135522380D01*
X47809523Y-135522380D01*
X48428571Y-134522380D02*
X48523809Y-134522380D01*
X48619047Y-134570000D01*
X48666666Y-134617619D01*
X48714285Y-134712857D01*
X48761904Y-134903333D01*
X48761904Y-135141428D01*
X48714285Y-135331904D01*
X48666666Y-135427142D01*
X48619047Y-135474761D01*
X48523809Y-135522380D01*
X48428571Y-135522380D01*
X48333333Y-135474761D01*
X48285714Y-135427142D01*
X48238095Y-135331904D01*
X48190476Y-135141428D01*
X48190476Y-134903333D01*
X48238095Y-134712857D01*
X48285714Y-134617619D01*
X48333333Y-134570000D01*
X48428571Y-134522380D01*
X46857142Y-136382380D02*
X46523809Y-135906190D01*
X46285714Y-136382380D02*
X46285714Y-135382380D01*
X46666666Y-135382380D01*
X46761904Y-135430000D01*
X46809523Y-135477619D01*
X46857142Y-135572857D01*
X46857142Y-135715714D01*
X46809523Y-135810952D01*
X46761904Y-135858571D01*
X46666666Y-135906190D01*
X46285714Y-135906190D01*
X47238095Y-135477619D02*
X47285714Y-135430000D01*
X47380952Y-135382380D01*
X47619047Y-135382380D01*
X47714285Y-135430000D01*
X47761904Y-135477619D01*
X47809523Y-135572857D01*
X47809523Y-135668095D01*
X47761904Y-135810952D01*
X47190476Y-136382380D01*
X47809523Y-136382380D01*
X48761904Y-136382380D02*
X48190476Y-136382380D01*
X48476190Y-136382380D02*
X48476190Y-135382380D01*
X48380952Y-135525238D01*
X48285714Y-135620476D01*
X48190476Y-135668095D01*
X52357142Y-129922380D02*
X52023809Y-129446190D01*
X51785714Y-129922380D02*
X51785714Y-128922380D01*
X52166666Y-128922380D01*
X52261904Y-128970000D01*
X52309523Y-129017619D01*
X52357142Y-129112857D01*
X52357142Y-129255714D01*
X52309523Y-129350952D01*
X52261904Y-129398571D01*
X52166666Y-129446190D01*
X51785714Y-129446190D01*
X52738095Y-129017619D02*
X52785714Y-128970000D01*
X52880952Y-128922380D01*
X53119047Y-128922380D01*
X53214285Y-128970000D01*
X53261904Y-129017619D01*
X53309523Y-129112857D01*
X53309523Y-129208095D01*
X53261904Y-129350952D01*
X52690476Y-129922380D01*
X53309523Y-129922380D01*
X53690476Y-129017619D02*
X53738095Y-128970000D01*
X53833333Y-128922380D01*
X54071428Y-128922380D01*
X54166666Y-128970000D01*
X54214285Y-129017619D01*
X54261904Y-129112857D01*
X54261904Y-129208095D01*
X54214285Y-129350952D01*
X53642857Y-129922380D01*
X54261904Y-129922380D01*
X92882380Y-116142857D02*
X92406190Y-116476190D01*
X92882380Y-116714285D02*
X91882380Y-116714285D01*
X91882380Y-116333333D01*
X91930000Y-116238095D01*
X91977619Y-116190476D01*
X92072857Y-116142857D01*
X92215714Y-116142857D01*
X92310952Y-116190476D01*
X92358571Y-116238095D01*
X92406190Y-116333333D01*
X92406190Y-116714285D01*
X92215714Y-115285714D02*
X92882380Y-115285714D01*
X91834761Y-115523809D02*
X92549047Y-115761904D01*
X92549047Y-115142857D01*
X91882380Y-114571428D02*
X91882380Y-114476190D01*
X91930000Y-114380952D01*
X91977619Y-114333333D01*
X92072857Y-114285714D01*
X92263333Y-114238095D01*
X92501428Y-114238095D01*
X92691904Y-114285714D01*
X92787142Y-114333333D01*
X92834761Y-114380952D01*
X92882380Y-114476190D01*
X92882380Y-114571428D01*
X92834761Y-114666666D01*
X92787142Y-114714285D01*
X92691904Y-114761904D01*
X92501428Y-114809523D01*
X92263333Y-114809523D01*
X92072857Y-114761904D01*
X91977619Y-114714285D01*
X91930000Y-114666666D01*
X91882380Y-114571428D01*
X92882380Y-121642857D02*
X92406190Y-121976190D01*
X92882380Y-122214285D02*
X91882380Y-122214285D01*
X91882380Y-121833333D01*
X91930000Y-121738095D01*
X91977619Y-121690476D01*
X92072857Y-121642857D01*
X92215714Y-121642857D01*
X92310952Y-121690476D01*
X92358571Y-121738095D01*
X92406190Y-121833333D01*
X92406190Y-122214285D01*
X92215714Y-120785714D02*
X92882380Y-120785714D01*
X91834761Y-121023809D02*
X92549047Y-121261904D01*
X92549047Y-120642857D01*
X92882380Y-119738095D02*
X92882380Y-120309523D01*
X92882380Y-120023809D02*
X91882380Y-120023809D01*
X92025238Y-120119047D01*
X92120476Y-120214285D01*
X92168095Y-120309523D01*
X68132380Y-116142857D02*
X67656190Y-116476190D01*
X68132380Y-116714285D02*
X67132380Y-116714285D01*
X67132380Y-116333333D01*
X67180000Y-116238095D01*
X67227619Y-116190476D01*
X67322857Y-116142857D01*
X67465714Y-116142857D01*
X67560952Y-116190476D01*
X67608571Y-116238095D01*
X67656190Y-116333333D01*
X67656190Y-116714285D01*
X67465714Y-115285714D02*
X68132380Y-115285714D01*
X67084761Y-115523809D02*
X67799047Y-115761904D01*
X67799047Y-115142857D01*
X67227619Y-114809523D02*
X67180000Y-114761904D01*
X67132380Y-114666666D01*
X67132380Y-114428571D01*
X67180000Y-114333333D01*
X67227619Y-114285714D01*
X67322857Y-114238095D01*
X67418095Y-114238095D01*
X67560952Y-114285714D01*
X68132380Y-114857142D01*
X68132380Y-114238095D01*
X30202380Y-52892857D02*
X29726190Y-53226190D01*
X30202380Y-53464285D02*
X29202380Y-53464285D01*
X29202380Y-53083333D01*
X29250000Y-52988095D01*
X29297619Y-52940476D01*
X29392857Y-52892857D01*
X29535714Y-52892857D01*
X29630952Y-52940476D01*
X29678571Y-52988095D01*
X29726190Y-53083333D01*
X29726190Y-53464285D01*
X30202380Y-52464285D02*
X29202380Y-52464285D01*
X29202380Y-52226190D01*
X29250000Y-52083333D01*
X29345238Y-51988095D01*
X29440476Y-51940476D01*
X29630952Y-51892857D01*
X29773809Y-51892857D01*
X29964285Y-51940476D01*
X30059523Y-51988095D01*
X30154761Y-52083333D01*
X30202380Y-52226190D01*
X30202380Y-52464285D01*
X29535714Y-51035714D02*
X30202380Y-51035714D01*
X29154761Y-51273809D02*
X29869047Y-51511904D01*
X29869047Y-50892857D01*
X29202380Y-50321428D02*
X29202380Y-50226190D01*
X29250000Y-50130952D01*
X29297619Y-50083333D01*
X29392857Y-50035714D01*
X29583333Y-49988095D01*
X29821428Y-49988095D01*
X30011904Y-50035714D01*
X30107142Y-50083333D01*
X30154761Y-50130952D01*
X30202380Y-50226190D01*
X30202380Y-50321428D01*
X30154761Y-50416666D01*
X30107142Y-50464285D01*
X30011904Y-50511904D01*
X29821428Y-50559523D01*
X29583333Y-50559523D01*
X29392857Y-50511904D01*
X29297619Y-50464285D01*
X29250000Y-50416666D01*
X29202380Y-50321428D01*
X30202380Y-67892857D02*
X29726190Y-68226190D01*
X30202380Y-68464285D02*
X29202380Y-68464285D01*
X29202380Y-68083333D01*
X29250000Y-67988095D01*
X29297619Y-67940476D01*
X29392857Y-67892857D01*
X29535714Y-67892857D01*
X29630952Y-67940476D01*
X29678571Y-67988095D01*
X29726190Y-68083333D01*
X29726190Y-68464285D01*
X30202380Y-67464285D02*
X29202380Y-67464285D01*
X29202380Y-67226190D01*
X29250000Y-67083333D01*
X29345238Y-66988095D01*
X29440476Y-66940476D01*
X29630952Y-66892857D01*
X29773809Y-66892857D01*
X29964285Y-66940476D01*
X30059523Y-66988095D01*
X30154761Y-67083333D01*
X30202380Y-67226190D01*
X30202380Y-67464285D01*
X29535714Y-66035714D02*
X30202380Y-66035714D01*
X29154761Y-66273809D02*
X29869047Y-66511904D01*
X29869047Y-65892857D01*
X30202380Y-64988095D02*
X30202380Y-65559523D01*
X30202380Y-65273809D02*
X29202380Y-65273809D01*
X29345238Y-65369047D01*
X29440476Y-65464285D01*
X29488095Y-65559523D01*
X30202380Y-82892857D02*
X29726190Y-83226190D01*
X30202380Y-83464285D02*
X29202380Y-83464285D01*
X29202380Y-83083333D01*
X29250000Y-82988095D01*
X29297619Y-82940476D01*
X29392857Y-82892857D01*
X29535714Y-82892857D01*
X29630952Y-82940476D01*
X29678571Y-82988095D01*
X29726190Y-83083333D01*
X29726190Y-83464285D01*
X30202380Y-82464285D02*
X29202380Y-82464285D01*
X29202380Y-82226190D01*
X29250000Y-82083333D01*
X29345238Y-81988095D01*
X29440476Y-81940476D01*
X29630952Y-81892857D01*
X29773809Y-81892857D01*
X29964285Y-81940476D01*
X30059523Y-81988095D01*
X30154761Y-82083333D01*
X30202380Y-82226190D01*
X30202380Y-82464285D01*
X29535714Y-81035714D02*
X30202380Y-81035714D01*
X29154761Y-81273809D02*
X29869047Y-81511904D01*
X29869047Y-80892857D01*
X29297619Y-80559523D02*
X29250000Y-80511904D01*
X29202380Y-80416666D01*
X29202380Y-80178571D01*
X29250000Y-80083333D01*
X29297619Y-80035714D01*
X29392857Y-79988095D01*
X29488095Y-79988095D01*
X29630952Y-80035714D01*
X30202380Y-80607142D01*
X30202380Y-79988095D01*
X30202380Y-97892857D02*
X29726190Y-98226190D01*
X30202380Y-98464285D02*
X29202380Y-98464285D01*
X29202380Y-98083333D01*
X29250000Y-97988095D01*
X29297619Y-97940476D01*
X29392857Y-97892857D01*
X29535714Y-97892857D01*
X29630952Y-97940476D01*
X29678571Y-97988095D01*
X29726190Y-98083333D01*
X29726190Y-98464285D01*
X30202380Y-97464285D02*
X29202380Y-97464285D01*
X29202380Y-97226190D01*
X29250000Y-97083333D01*
X29345238Y-96988095D01*
X29440476Y-96940476D01*
X29630952Y-96892857D01*
X29773809Y-96892857D01*
X29964285Y-96940476D01*
X30059523Y-96988095D01*
X30154761Y-97083333D01*
X30202380Y-97226190D01*
X30202380Y-97464285D01*
X29535714Y-96035714D02*
X30202380Y-96035714D01*
X29154761Y-96273809D02*
X29869047Y-96511904D01*
X29869047Y-95892857D01*
X29202380Y-95607142D02*
X29202380Y-94988095D01*
X29583333Y-95321428D01*
X29583333Y-95178571D01*
X29630952Y-95083333D01*
X29678571Y-95035714D01*
X29773809Y-94988095D01*
X30011904Y-94988095D01*
X30107142Y-95035714D01*
X30154761Y-95083333D01*
X30202380Y-95178571D01*
X30202380Y-95464285D01*
X30154761Y-95559523D01*
X30107142Y-95607142D01*
X30202380Y-113142857D02*
X29726190Y-113476190D01*
X30202380Y-113714285D02*
X29202380Y-113714285D01*
X29202380Y-113333333D01*
X29250000Y-113238095D01*
X29297619Y-113190476D01*
X29392857Y-113142857D01*
X29535714Y-113142857D01*
X29630952Y-113190476D01*
X29678571Y-113238095D01*
X29726190Y-113333333D01*
X29726190Y-113714285D01*
X30202380Y-112714285D02*
X29202380Y-112714285D01*
X29202380Y-112476190D01*
X29250000Y-112333333D01*
X29345238Y-112238095D01*
X29440476Y-112190476D01*
X29630952Y-112142857D01*
X29773809Y-112142857D01*
X29964285Y-112190476D01*
X30059523Y-112238095D01*
X30154761Y-112333333D01*
X30202380Y-112476190D01*
X30202380Y-112714285D01*
X29535714Y-111285714D02*
X30202380Y-111285714D01*
X29154761Y-111523809D02*
X29869047Y-111761904D01*
X29869047Y-111142857D01*
X29535714Y-110333333D02*
X30202380Y-110333333D01*
X29154761Y-110571428D02*
X29869047Y-110809523D01*
X29869047Y-110190476D01*
X30202380Y-128142857D02*
X29726190Y-128476190D01*
X30202380Y-128714285D02*
X29202380Y-128714285D01*
X29202380Y-128333333D01*
X29250000Y-128238095D01*
X29297619Y-128190476D01*
X29392857Y-128142857D01*
X29535714Y-128142857D01*
X29630952Y-128190476D01*
X29678571Y-128238095D01*
X29726190Y-128333333D01*
X29726190Y-128714285D01*
X30202380Y-127714285D02*
X29202380Y-127714285D01*
X29202380Y-127476190D01*
X29250000Y-127333333D01*
X29345238Y-127238095D01*
X29440476Y-127190476D01*
X29630952Y-127142857D01*
X29773809Y-127142857D01*
X29964285Y-127190476D01*
X30059523Y-127238095D01*
X30154761Y-127333333D01*
X30202380Y-127476190D01*
X30202380Y-127714285D01*
X29535714Y-126285714D02*
X30202380Y-126285714D01*
X29154761Y-126523809D02*
X29869047Y-126761904D01*
X29869047Y-126142857D01*
X29202380Y-125285714D02*
X29202380Y-125761904D01*
X29678571Y-125809523D01*
X29630952Y-125761904D01*
X29583333Y-125666666D01*
X29583333Y-125428571D01*
X29630952Y-125333333D01*
X29678571Y-125285714D01*
X29773809Y-125238095D01*
X30011904Y-125238095D01*
X30107142Y-125285714D01*
X30154761Y-125333333D01*
X30202380Y-125428571D01*
X30202380Y-125666666D01*
X30154761Y-125761904D01*
X30107142Y-125809523D01*
X30202380Y-143142857D02*
X29726190Y-143476190D01*
X30202380Y-143714285D02*
X29202380Y-143714285D01*
X29202380Y-143333333D01*
X29250000Y-143238095D01*
X29297619Y-143190476D01*
X29392857Y-143142857D01*
X29535714Y-143142857D01*
X29630952Y-143190476D01*
X29678571Y-143238095D01*
X29726190Y-143333333D01*
X29726190Y-143714285D01*
X30202380Y-142714285D02*
X29202380Y-142714285D01*
X29202380Y-142476190D01*
X29250000Y-142333333D01*
X29345238Y-142238095D01*
X29440476Y-142190476D01*
X29630952Y-142142857D01*
X29773809Y-142142857D01*
X29964285Y-142190476D01*
X30059523Y-142238095D01*
X30154761Y-142333333D01*
X30202380Y-142476190D01*
X30202380Y-142714285D01*
X29535714Y-141285714D02*
X30202380Y-141285714D01*
X29154761Y-141523809D02*
X29869047Y-141761904D01*
X29869047Y-141142857D01*
X29202380Y-140333333D02*
X29202380Y-140523809D01*
X29250000Y-140619047D01*
X29297619Y-140666666D01*
X29440476Y-140761904D01*
X29630952Y-140809523D01*
X30011904Y-140809523D01*
X30107142Y-140761904D01*
X30154761Y-140714285D01*
X30202380Y-140619047D01*
X30202380Y-140428571D01*
X30154761Y-140333333D01*
X30107142Y-140285714D01*
X30011904Y-140238095D01*
X29773809Y-140238095D01*
X29678571Y-140285714D01*
X29630952Y-140333333D01*
X29583333Y-140428571D01*
X29583333Y-140619047D01*
X29630952Y-140714285D01*
X29678571Y-140761904D01*
X29773809Y-140809523D01*
X27272380Y-57047619D02*
X26796190Y-57380952D01*
X27272380Y-57619047D02*
X26272380Y-57619047D01*
X26272380Y-57238095D01*
X26320000Y-57142857D01*
X26367619Y-57095238D01*
X26462857Y-57047619D01*
X26605714Y-57047619D01*
X26700952Y-57095238D01*
X26748571Y-57142857D01*
X26796190Y-57238095D01*
X26796190Y-57619047D01*
X27272380Y-56142857D02*
X27272380Y-56619047D01*
X26272380Y-56619047D01*
X26605714Y-55380952D02*
X27272380Y-55380952D01*
X26224761Y-55619047D02*
X26939047Y-55857142D01*
X26939047Y-55238095D01*
X26272380Y-54666666D02*
X26272380Y-54571428D01*
X26320000Y-54476190D01*
X26367619Y-54428571D01*
X26462857Y-54380952D01*
X26653333Y-54333333D01*
X26891428Y-54333333D01*
X27081904Y-54380952D01*
X27177142Y-54428571D01*
X27224761Y-54476190D01*
X27272380Y-54571428D01*
X27272380Y-54666666D01*
X27224761Y-54761904D01*
X27177142Y-54809523D01*
X27081904Y-54857142D01*
X26891428Y-54904761D01*
X26653333Y-54904761D01*
X26462857Y-54857142D01*
X26367619Y-54809523D01*
X26320000Y-54761904D01*
X26272380Y-54666666D01*
X27272380Y-72047619D02*
X26796190Y-72380952D01*
X27272380Y-72619047D02*
X26272380Y-72619047D01*
X26272380Y-72238095D01*
X26320000Y-72142857D01*
X26367619Y-72095238D01*
X26462857Y-72047619D01*
X26605714Y-72047619D01*
X26700952Y-72095238D01*
X26748571Y-72142857D01*
X26796190Y-72238095D01*
X26796190Y-72619047D01*
X27272380Y-71142857D02*
X27272380Y-71619047D01*
X26272380Y-71619047D01*
X26605714Y-70380952D02*
X27272380Y-70380952D01*
X26224761Y-70619047D02*
X26939047Y-70857142D01*
X26939047Y-70238095D01*
X27272380Y-69333333D02*
X27272380Y-69904761D01*
X27272380Y-69619047D02*
X26272380Y-69619047D01*
X26415238Y-69714285D01*
X26510476Y-69809523D01*
X26558095Y-69904761D01*
X27272380Y-87047619D02*
X26796190Y-87380952D01*
X27272380Y-87619047D02*
X26272380Y-87619047D01*
X26272380Y-87238095D01*
X26320000Y-87142857D01*
X26367619Y-87095238D01*
X26462857Y-87047619D01*
X26605714Y-87047619D01*
X26700952Y-87095238D01*
X26748571Y-87142857D01*
X26796190Y-87238095D01*
X26796190Y-87619047D01*
X27272380Y-86142857D02*
X27272380Y-86619047D01*
X26272380Y-86619047D01*
X26605714Y-85380952D02*
X27272380Y-85380952D01*
X26224761Y-85619047D02*
X26939047Y-85857142D01*
X26939047Y-85238095D01*
X26367619Y-84904761D02*
X26320000Y-84857142D01*
X26272380Y-84761904D01*
X26272380Y-84523809D01*
X26320000Y-84428571D01*
X26367619Y-84380952D01*
X26462857Y-84333333D01*
X26558095Y-84333333D01*
X26700952Y-84380952D01*
X27272380Y-84952380D01*
X27272380Y-84333333D01*
X27272380Y-102047619D02*
X26796190Y-102380952D01*
X27272380Y-102619047D02*
X26272380Y-102619047D01*
X26272380Y-102238095D01*
X26320000Y-102142857D01*
X26367619Y-102095238D01*
X26462857Y-102047619D01*
X26605714Y-102047619D01*
X26700952Y-102095238D01*
X26748571Y-102142857D01*
X26796190Y-102238095D01*
X26796190Y-102619047D01*
X27272380Y-101142857D02*
X27272380Y-101619047D01*
X26272380Y-101619047D01*
X26605714Y-100380952D02*
X27272380Y-100380952D01*
X26224761Y-100619047D02*
X26939047Y-100857142D01*
X26939047Y-100238095D01*
X26272380Y-99952380D02*
X26272380Y-99333333D01*
X26653333Y-99666666D01*
X26653333Y-99523809D01*
X26700952Y-99428571D01*
X26748571Y-99380952D01*
X26843809Y-99333333D01*
X27081904Y-99333333D01*
X27177142Y-99380952D01*
X27224761Y-99428571D01*
X27272380Y-99523809D01*
X27272380Y-99809523D01*
X27224761Y-99904761D01*
X27177142Y-99952380D01*
X27272380Y-117297619D02*
X26796190Y-117630952D01*
X27272380Y-117869047D02*
X26272380Y-117869047D01*
X26272380Y-117488095D01*
X26320000Y-117392857D01*
X26367619Y-117345238D01*
X26462857Y-117297619D01*
X26605714Y-117297619D01*
X26700952Y-117345238D01*
X26748571Y-117392857D01*
X26796190Y-117488095D01*
X26796190Y-117869047D01*
X27272380Y-116392857D02*
X27272380Y-116869047D01*
X26272380Y-116869047D01*
X26605714Y-115630952D02*
X27272380Y-115630952D01*
X26224761Y-115869047D02*
X26939047Y-116107142D01*
X26939047Y-115488095D01*
X26605714Y-114678571D02*
X27272380Y-114678571D01*
X26224761Y-114916666D02*
X26939047Y-115154761D01*
X26939047Y-114535714D01*
X27272380Y-132047619D02*
X26796190Y-132380952D01*
X27272380Y-132619047D02*
X26272380Y-132619047D01*
X26272380Y-132238095D01*
X26320000Y-132142857D01*
X26367619Y-132095238D01*
X26462857Y-132047619D01*
X26605714Y-132047619D01*
X26700952Y-132095238D01*
X26748571Y-132142857D01*
X26796190Y-132238095D01*
X26796190Y-132619047D01*
X27272380Y-131142857D02*
X27272380Y-131619047D01*
X26272380Y-131619047D01*
X26605714Y-130380952D02*
X27272380Y-130380952D01*
X26224761Y-130619047D02*
X26939047Y-130857142D01*
X26939047Y-130238095D01*
X26272380Y-129380952D02*
X26272380Y-129857142D01*
X26748571Y-129904761D01*
X26700952Y-129857142D01*
X26653333Y-129761904D01*
X26653333Y-129523809D01*
X26700952Y-129428571D01*
X26748571Y-129380952D01*
X26843809Y-129333333D01*
X27081904Y-129333333D01*
X27177142Y-129380952D01*
X27224761Y-129428571D01*
X27272380Y-129523809D01*
X27272380Y-129761904D01*
X27224761Y-129857142D01*
X27177142Y-129904761D01*
X27272380Y-147047619D02*
X26796190Y-147380952D01*
X27272380Y-147619047D02*
X26272380Y-147619047D01*
X26272380Y-147238095D01*
X26320000Y-147142857D01*
X26367619Y-147095238D01*
X26462857Y-147047619D01*
X26605714Y-147047619D01*
X26700952Y-147095238D01*
X26748571Y-147142857D01*
X26796190Y-147238095D01*
X26796190Y-147619047D01*
X27272380Y-146142857D02*
X27272380Y-146619047D01*
X26272380Y-146619047D01*
X26605714Y-145380952D02*
X27272380Y-145380952D01*
X26224761Y-145619047D02*
X26939047Y-145857142D01*
X26939047Y-145238095D01*
X26272380Y-144428571D02*
X26272380Y-144619047D01*
X26320000Y-144714285D01*
X26367619Y-144761904D01*
X26510476Y-144857142D01*
X26700952Y-144904761D01*
X27081904Y-144904761D01*
X27177142Y-144857142D01*
X27224761Y-144809523D01*
X27272380Y-144714285D01*
X27272380Y-144523809D01*
X27224761Y-144428571D01*
X27177142Y-144380952D01*
X27081904Y-144333333D01*
X26843809Y-144333333D01*
X26748571Y-144380952D01*
X26700952Y-144428571D01*
X26653333Y-144523809D01*
X26653333Y-144714285D01*
X26700952Y-144809523D01*
X26748571Y-144857142D01*
X26843809Y-144904761D01*
X30132380Y-60619047D02*
X29656190Y-60952380D01*
X30132380Y-61190476D02*
X29132380Y-61190476D01*
X29132380Y-60809523D01*
X29180000Y-60714285D01*
X29227619Y-60666666D01*
X29322857Y-60619047D01*
X29465714Y-60619047D01*
X29560952Y-60666666D01*
X29608571Y-60714285D01*
X29656190Y-60809523D01*
X29656190Y-61190476D01*
X30084761Y-60238095D02*
X30132380Y-60095238D01*
X30132380Y-59857142D01*
X30084761Y-59761904D01*
X30037142Y-59714285D01*
X29941904Y-59666666D01*
X29846666Y-59666666D01*
X29751428Y-59714285D01*
X29703809Y-59761904D01*
X29656190Y-59857142D01*
X29608571Y-60047619D01*
X29560952Y-60142857D01*
X29513333Y-60190476D01*
X29418095Y-60238095D01*
X29322857Y-60238095D01*
X29227619Y-60190476D01*
X29180000Y-60142857D01*
X29132380Y-60047619D01*
X29132380Y-59809523D01*
X29180000Y-59666666D01*
X29465714Y-58809523D02*
X30132380Y-58809523D01*
X29084761Y-59047619D02*
X29799047Y-59285714D01*
X29799047Y-58666666D01*
X29132380Y-58095238D02*
X29132380Y-58000000D01*
X29180000Y-57904761D01*
X29227619Y-57857142D01*
X29322857Y-57809523D01*
X29513333Y-57761904D01*
X29751428Y-57761904D01*
X29941904Y-57809523D01*
X30037142Y-57857142D01*
X30084761Y-57904761D01*
X30132380Y-58000000D01*
X30132380Y-58095238D01*
X30084761Y-58190476D01*
X30037142Y-58238095D01*
X29941904Y-58285714D01*
X29751428Y-58333333D01*
X29513333Y-58333333D01*
X29322857Y-58285714D01*
X29227619Y-58238095D01*
X29180000Y-58190476D01*
X29132380Y-58095238D01*
X30132380Y-75619047D02*
X29656190Y-75952380D01*
X30132380Y-76190476D02*
X29132380Y-76190476D01*
X29132380Y-75809523D01*
X29180000Y-75714285D01*
X29227619Y-75666666D01*
X29322857Y-75619047D01*
X29465714Y-75619047D01*
X29560952Y-75666666D01*
X29608571Y-75714285D01*
X29656190Y-75809523D01*
X29656190Y-76190476D01*
X30084761Y-75238095D02*
X30132380Y-75095238D01*
X30132380Y-74857142D01*
X30084761Y-74761904D01*
X30037142Y-74714285D01*
X29941904Y-74666666D01*
X29846666Y-74666666D01*
X29751428Y-74714285D01*
X29703809Y-74761904D01*
X29656190Y-74857142D01*
X29608571Y-75047619D01*
X29560952Y-75142857D01*
X29513333Y-75190476D01*
X29418095Y-75238095D01*
X29322857Y-75238095D01*
X29227619Y-75190476D01*
X29180000Y-75142857D01*
X29132380Y-75047619D01*
X29132380Y-74809523D01*
X29180000Y-74666666D01*
X29465714Y-73809523D02*
X30132380Y-73809523D01*
X29084761Y-74047619D02*
X29799047Y-74285714D01*
X29799047Y-73666666D01*
X30132380Y-72761904D02*
X30132380Y-73333333D01*
X30132380Y-73047619D02*
X29132380Y-73047619D01*
X29275238Y-73142857D01*
X29370476Y-73238095D01*
X29418095Y-73333333D01*
X30132380Y-90619047D02*
X29656190Y-90952380D01*
X30132380Y-91190476D02*
X29132380Y-91190476D01*
X29132380Y-90809523D01*
X29180000Y-90714285D01*
X29227619Y-90666666D01*
X29322857Y-90619047D01*
X29465714Y-90619047D01*
X29560952Y-90666666D01*
X29608571Y-90714285D01*
X29656190Y-90809523D01*
X29656190Y-91190476D01*
X30084761Y-90238095D02*
X30132380Y-90095238D01*
X30132380Y-89857142D01*
X30084761Y-89761904D01*
X30037142Y-89714285D01*
X29941904Y-89666666D01*
X29846666Y-89666666D01*
X29751428Y-89714285D01*
X29703809Y-89761904D01*
X29656190Y-89857142D01*
X29608571Y-90047619D01*
X29560952Y-90142857D01*
X29513333Y-90190476D01*
X29418095Y-90238095D01*
X29322857Y-90238095D01*
X29227619Y-90190476D01*
X29180000Y-90142857D01*
X29132380Y-90047619D01*
X29132380Y-89809523D01*
X29180000Y-89666666D01*
X29465714Y-88809523D02*
X30132380Y-88809523D01*
X29084761Y-89047619D02*
X29799047Y-89285714D01*
X29799047Y-88666666D01*
X29227619Y-88333333D02*
X29180000Y-88285714D01*
X29132380Y-88190476D01*
X29132380Y-87952380D01*
X29180000Y-87857142D01*
X29227619Y-87809523D01*
X29322857Y-87761904D01*
X29418095Y-87761904D01*
X29560952Y-87809523D01*
X30132380Y-88380952D01*
X30132380Y-87761904D01*
X30132380Y-105619047D02*
X29656190Y-105952380D01*
X30132380Y-106190476D02*
X29132380Y-106190476D01*
X29132380Y-105809523D01*
X29180000Y-105714285D01*
X29227619Y-105666666D01*
X29322857Y-105619047D01*
X29465714Y-105619047D01*
X29560952Y-105666666D01*
X29608571Y-105714285D01*
X29656190Y-105809523D01*
X29656190Y-106190476D01*
X30084761Y-105238095D02*
X30132380Y-105095238D01*
X30132380Y-104857142D01*
X30084761Y-104761904D01*
X30037142Y-104714285D01*
X29941904Y-104666666D01*
X29846666Y-104666666D01*
X29751428Y-104714285D01*
X29703809Y-104761904D01*
X29656190Y-104857142D01*
X29608571Y-105047619D01*
X29560952Y-105142857D01*
X29513333Y-105190476D01*
X29418095Y-105238095D01*
X29322857Y-105238095D01*
X29227619Y-105190476D01*
X29180000Y-105142857D01*
X29132380Y-105047619D01*
X29132380Y-104809523D01*
X29180000Y-104666666D01*
X29465714Y-103809523D02*
X30132380Y-103809523D01*
X29084761Y-104047619D02*
X29799047Y-104285714D01*
X29799047Y-103666666D01*
X29132380Y-103380952D02*
X29132380Y-102761904D01*
X29513333Y-103095238D01*
X29513333Y-102952380D01*
X29560952Y-102857142D01*
X29608571Y-102809523D01*
X29703809Y-102761904D01*
X29941904Y-102761904D01*
X30037142Y-102809523D01*
X30084761Y-102857142D01*
X30132380Y-102952380D01*
X30132380Y-103238095D01*
X30084761Y-103333333D01*
X30037142Y-103380952D01*
X30132380Y-120869047D02*
X29656190Y-121202380D01*
X30132380Y-121440476D02*
X29132380Y-121440476D01*
X29132380Y-121059523D01*
X29180000Y-120964285D01*
X29227619Y-120916666D01*
X29322857Y-120869047D01*
X29465714Y-120869047D01*
X29560952Y-120916666D01*
X29608571Y-120964285D01*
X29656190Y-121059523D01*
X29656190Y-121440476D01*
X30084761Y-120488095D02*
X30132380Y-120345238D01*
X30132380Y-120107142D01*
X30084761Y-120011904D01*
X30037142Y-119964285D01*
X29941904Y-119916666D01*
X29846666Y-119916666D01*
X29751428Y-119964285D01*
X29703809Y-120011904D01*
X29656190Y-120107142D01*
X29608571Y-120297619D01*
X29560952Y-120392857D01*
X29513333Y-120440476D01*
X29418095Y-120488095D01*
X29322857Y-120488095D01*
X29227619Y-120440476D01*
X29180000Y-120392857D01*
X29132380Y-120297619D01*
X29132380Y-120059523D01*
X29180000Y-119916666D01*
X29465714Y-119059523D02*
X30132380Y-119059523D01*
X29084761Y-119297619D02*
X29799047Y-119535714D01*
X29799047Y-118916666D01*
X29465714Y-118107142D02*
X30132380Y-118107142D01*
X29084761Y-118345238D02*
X29799047Y-118583333D01*
X29799047Y-117964285D01*
X30132380Y-135619047D02*
X29656190Y-135952380D01*
X30132380Y-136190476D02*
X29132380Y-136190476D01*
X29132380Y-135809523D01*
X29180000Y-135714285D01*
X29227619Y-135666666D01*
X29322857Y-135619047D01*
X29465714Y-135619047D01*
X29560952Y-135666666D01*
X29608571Y-135714285D01*
X29656190Y-135809523D01*
X29656190Y-136190476D01*
X30084761Y-135238095D02*
X30132380Y-135095238D01*
X30132380Y-134857142D01*
X30084761Y-134761904D01*
X30037142Y-134714285D01*
X29941904Y-134666666D01*
X29846666Y-134666666D01*
X29751428Y-134714285D01*
X29703809Y-134761904D01*
X29656190Y-134857142D01*
X29608571Y-135047619D01*
X29560952Y-135142857D01*
X29513333Y-135190476D01*
X29418095Y-135238095D01*
X29322857Y-135238095D01*
X29227619Y-135190476D01*
X29180000Y-135142857D01*
X29132380Y-135047619D01*
X29132380Y-134809523D01*
X29180000Y-134666666D01*
X29465714Y-133809523D02*
X30132380Y-133809523D01*
X29084761Y-134047619D02*
X29799047Y-134285714D01*
X29799047Y-133666666D01*
X29132380Y-132809523D02*
X29132380Y-133285714D01*
X29608571Y-133333333D01*
X29560952Y-133285714D01*
X29513333Y-133190476D01*
X29513333Y-132952380D01*
X29560952Y-132857142D01*
X29608571Y-132809523D01*
X29703809Y-132761904D01*
X29941904Y-132761904D01*
X30037142Y-132809523D01*
X30084761Y-132857142D01*
X30132380Y-132952380D01*
X30132380Y-133190476D01*
X30084761Y-133285714D01*
X30037142Y-133333333D01*
X30132380Y-150619047D02*
X29656190Y-150952380D01*
X30132380Y-151190476D02*
X29132380Y-151190476D01*
X29132380Y-150809523D01*
X29180000Y-150714285D01*
X29227619Y-150666666D01*
X29322857Y-150619047D01*
X29465714Y-150619047D01*
X29560952Y-150666666D01*
X29608571Y-150714285D01*
X29656190Y-150809523D01*
X29656190Y-151190476D01*
X30084761Y-150238095D02*
X30132380Y-150095238D01*
X30132380Y-149857142D01*
X30084761Y-149761904D01*
X30037142Y-149714285D01*
X29941904Y-149666666D01*
X29846666Y-149666666D01*
X29751428Y-149714285D01*
X29703809Y-149761904D01*
X29656190Y-149857142D01*
X29608571Y-150047619D01*
X29560952Y-150142857D01*
X29513333Y-150190476D01*
X29418095Y-150238095D01*
X29322857Y-150238095D01*
X29227619Y-150190476D01*
X29180000Y-150142857D01*
X29132380Y-150047619D01*
X29132380Y-149809523D01*
X29180000Y-149666666D01*
X29465714Y-148809523D02*
X30132380Y-148809523D01*
X29084761Y-149047619D02*
X29799047Y-149285714D01*
X29799047Y-148666666D01*
X29132380Y-147857142D02*
X29132380Y-148047619D01*
X29180000Y-148142857D01*
X29227619Y-148190476D01*
X29370476Y-148285714D01*
X29560952Y-148333333D01*
X29941904Y-148333333D01*
X30037142Y-148285714D01*
X30084761Y-148238095D01*
X30132380Y-148142857D01*
X30132380Y-147952380D01*
X30084761Y-147857142D01*
X30037142Y-147809523D01*
X29941904Y-147761904D01*
X29703809Y-147761904D01*
X29608571Y-147809523D01*
X29560952Y-147857142D01*
X29513333Y-147952380D01*
X29513333Y-148142857D01*
X29560952Y-148238095D01*
X29608571Y-148285714D01*
X29703809Y-148333333D01*
X42404761Y-60809523D02*
X42452380Y-60666666D01*
X42452380Y-60428571D01*
X42404761Y-60333333D01*
X42357142Y-60285714D01*
X42261904Y-60238095D01*
X42166666Y-60238095D01*
X42071428Y-60285714D01*
X42023809Y-60333333D01*
X41976190Y-60428571D01*
X41928571Y-60619047D01*
X41880952Y-60714285D01*
X41833333Y-60761904D01*
X41738095Y-60809523D01*
X41642857Y-60809523D01*
X41547619Y-60761904D01*
X41500000Y-60714285D01*
X41452380Y-60619047D01*
X41452380Y-60380952D01*
X41500000Y-60238095D01*
X41452380Y-59904761D02*
X42452380Y-59666666D01*
X41738095Y-59476190D01*
X42452380Y-59285714D01*
X41452380Y-59047619D01*
X41785714Y-58238095D02*
X42452380Y-58238095D01*
X41404761Y-58476190D02*
X42119047Y-58714285D01*
X42119047Y-58095238D01*
X41452380Y-57523809D02*
X41452380Y-57428571D01*
X41500000Y-57333333D01*
X41547619Y-57285714D01*
X41642857Y-57238095D01*
X41833333Y-57190476D01*
X42071428Y-57190476D01*
X42261904Y-57238095D01*
X42357142Y-57285714D01*
X42404761Y-57333333D01*
X42452380Y-57428571D01*
X42452380Y-57523809D01*
X42404761Y-57619047D01*
X42357142Y-57666666D01*
X42261904Y-57714285D01*
X42071428Y-57761904D01*
X41833333Y-57761904D01*
X41642857Y-57714285D01*
X41547619Y-57666666D01*
X41500000Y-57619047D01*
X41452380Y-57523809D01*
X42404761Y-75809523D02*
X42452380Y-75666666D01*
X42452380Y-75428571D01*
X42404761Y-75333333D01*
X42357142Y-75285714D01*
X42261904Y-75238095D01*
X42166666Y-75238095D01*
X42071428Y-75285714D01*
X42023809Y-75333333D01*
X41976190Y-75428571D01*
X41928571Y-75619047D01*
X41880952Y-75714285D01*
X41833333Y-75761904D01*
X41738095Y-75809523D01*
X41642857Y-75809523D01*
X41547619Y-75761904D01*
X41500000Y-75714285D01*
X41452380Y-75619047D01*
X41452380Y-75380952D01*
X41500000Y-75238095D01*
X41452380Y-74904761D02*
X42452380Y-74666666D01*
X41738095Y-74476190D01*
X42452380Y-74285714D01*
X41452380Y-74047619D01*
X41785714Y-73238095D02*
X42452380Y-73238095D01*
X41404761Y-73476190D02*
X42119047Y-73714285D01*
X42119047Y-73095238D01*
X42452380Y-72190476D02*
X42452380Y-72761904D01*
X42452380Y-72476190D02*
X41452380Y-72476190D01*
X41595238Y-72571428D01*
X41690476Y-72666666D01*
X41738095Y-72761904D01*
X42404761Y-90809523D02*
X42452380Y-90666666D01*
X42452380Y-90428571D01*
X42404761Y-90333333D01*
X42357142Y-90285714D01*
X42261904Y-90238095D01*
X42166666Y-90238095D01*
X42071428Y-90285714D01*
X42023809Y-90333333D01*
X41976190Y-90428571D01*
X41928571Y-90619047D01*
X41880952Y-90714285D01*
X41833333Y-90761904D01*
X41738095Y-90809523D01*
X41642857Y-90809523D01*
X41547619Y-90761904D01*
X41500000Y-90714285D01*
X41452380Y-90619047D01*
X41452380Y-90380952D01*
X41500000Y-90238095D01*
X41452380Y-89904761D02*
X42452380Y-89666666D01*
X41738095Y-89476190D01*
X42452380Y-89285714D01*
X41452380Y-89047619D01*
X41785714Y-88238095D02*
X42452380Y-88238095D01*
X41404761Y-88476190D02*
X42119047Y-88714285D01*
X42119047Y-88095238D01*
X41547619Y-87761904D02*
X41500000Y-87714285D01*
X41452380Y-87619047D01*
X41452380Y-87380952D01*
X41500000Y-87285714D01*
X41547619Y-87238095D01*
X41642857Y-87190476D01*
X41738095Y-87190476D01*
X41880952Y-87238095D01*
X42452380Y-87809523D01*
X42452380Y-87190476D01*
X42404761Y-105809523D02*
X42452380Y-105666666D01*
X42452380Y-105428571D01*
X42404761Y-105333333D01*
X42357142Y-105285714D01*
X42261904Y-105238095D01*
X42166666Y-105238095D01*
X42071428Y-105285714D01*
X42023809Y-105333333D01*
X41976190Y-105428571D01*
X41928571Y-105619047D01*
X41880952Y-105714285D01*
X41833333Y-105761904D01*
X41738095Y-105809523D01*
X41642857Y-105809523D01*
X41547619Y-105761904D01*
X41500000Y-105714285D01*
X41452380Y-105619047D01*
X41452380Y-105380952D01*
X41500000Y-105238095D01*
X41452380Y-104904761D02*
X42452380Y-104666666D01*
X41738095Y-104476190D01*
X42452380Y-104285714D01*
X41452380Y-104047619D01*
X41785714Y-103238095D02*
X42452380Y-103238095D01*
X41404761Y-103476190D02*
X42119047Y-103714285D01*
X42119047Y-103095238D01*
X41452380Y-102809523D02*
X41452380Y-102190476D01*
X41833333Y-102523809D01*
X41833333Y-102380952D01*
X41880952Y-102285714D01*
X41928571Y-102238095D01*
X42023809Y-102190476D01*
X42261904Y-102190476D01*
X42357142Y-102238095D01*
X42404761Y-102285714D01*
X42452380Y-102380952D01*
X42452380Y-102666666D01*
X42404761Y-102761904D01*
X42357142Y-102809523D01*
X42404761Y-120809523D02*
X42452380Y-120666666D01*
X42452380Y-120428571D01*
X42404761Y-120333333D01*
X42357142Y-120285714D01*
X42261904Y-120238095D01*
X42166666Y-120238095D01*
X42071428Y-120285714D01*
X42023809Y-120333333D01*
X41976190Y-120428571D01*
X41928571Y-120619047D01*
X41880952Y-120714285D01*
X41833333Y-120761904D01*
X41738095Y-120809523D01*
X41642857Y-120809523D01*
X41547619Y-120761904D01*
X41500000Y-120714285D01*
X41452380Y-120619047D01*
X41452380Y-120380952D01*
X41500000Y-120238095D01*
X41452380Y-119904761D02*
X42452380Y-119666666D01*
X41738095Y-119476190D01*
X42452380Y-119285714D01*
X41452380Y-119047619D01*
X41785714Y-118238095D02*
X42452380Y-118238095D01*
X41404761Y-118476190D02*
X42119047Y-118714285D01*
X42119047Y-118095238D01*
X41785714Y-117285714D02*
X42452380Y-117285714D01*
X41404761Y-117523809D02*
X42119047Y-117761904D01*
X42119047Y-117142857D01*
X42404761Y-135809523D02*
X42452380Y-135666666D01*
X42452380Y-135428571D01*
X42404761Y-135333333D01*
X42357142Y-135285714D01*
X42261904Y-135238095D01*
X42166666Y-135238095D01*
X42071428Y-135285714D01*
X42023809Y-135333333D01*
X41976190Y-135428571D01*
X41928571Y-135619047D01*
X41880952Y-135714285D01*
X41833333Y-135761904D01*
X41738095Y-135809523D01*
X41642857Y-135809523D01*
X41547619Y-135761904D01*
X41500000Y-135714285D01*
X41452380Y-135619047D01*
X41452380Y-135380952D01*
X41500000Y-135238095D01*
X41452380Y-134904761D02*
X42452380Y-134666666D01*
X41738095Y-134476190D01*
X42452380Y-134285714D01*
X41452380Y-134047619D01*
X41785714Y-133238095D02*
X42452380Y-133238095D01*
X41404761Y-133476190D02*
X42119047Y-133714285D01*
X42119047Y-133095238D01*
X41452380Y-132238095D02*
X41452380Y-132714285D01*
X41928571Y-132761904D01*
X41880952Y-132714285D01*
X41833333Y-132619047D01*
X41833333Y-132380952D01*
X41880952Y-132285714D01*
X41928571Y-132238095D01*
X42023809Y-132190476D01*
X42261904Y-132190476D01*
X42357142Y-132238095D01*
X42404761Y-132285714D01*
X42452380Y-132380952D01*
X42452380Y-132619047D01*
X42404761Y-132714285D01*
X42357142Y-132761904D01*
X42404761Y-150809523D02*
X42452380Y-150666666D01*
X42452380Y-150428571D01*
X42404761Y-150333333D01*
X42357142Y-150285714D01*
X42261904Y-150238095D01*
X42166666Y-150238095D01*
X42071428Y-150285714D01*
X42023809Y-150333333D01*
X41976190Y-150428571D01*
X41928571Y-150619047D01*
X41880952Y-150714285D01*
X41833333Y-150761904D01*
X41738095Y-150809523D01*
X41642857Y-150809523D01*
X41547619Y-150761904D01*
X41500000Y-150714285D01*
X41452380Y-150619047D01*
X41452380Y-150380952D01*
X41500000Y-150238095D01*
X41452380Y-149904761D02*
X42452380Y-149666666D01*
X41738095Y-149476190D01*
X42452380Y-149285714D01*
X41452380Y-149047619D01*
X41785714Y-148238095D02*
X42452380Y-148238095D01*
X41404761Y-148476190D02*
X42119047Y-148714285D01*
X42119047Y-148095238D01*
X41452380Y-147285714D02*
X41452380Y-147476190D01*
X41500000Y-147571428D01*
X41547619Y-147619047D01*
X41690476Y-147714285D01*
X41880952Y-147761904D01*
X42261904Y-147761904D01*
X42357142Y-147714285D01*
X42404761Y-147666666D01*
X42452380Y-147571428D01*
X42452380Y-147380952D01*
X42404761Y-147285714D01*
X42357142Y-147238095D01*
X42261904Y-147190476D01*
X42023809Y-147190476D01*
X41928571Y-147238095D01*
X41880952Y-147285714D01*
X41833333Y-147380952D01*
X41833333Y-147571428D01*
X41880952Y-147666666D01*
X41928571Y-147714285D01*
X42023809Y-147761904D01*
X103607142Y-142607142D02*
X103559523Y-142654761D01*
X103416666Y-142702380D01*
X103321428Y-142702380D01*
X103178571Y-142654761D01*
X103083333Y-142559523D01*
X103035714Y-142464285D01*
X102988095Y-142273809D01*
X102988095Y-142130952D01*
X103035714Y-141940476D01*
X103083333Y-141845238D01*
X103178571Y-141750000D01*
X103321428Y-141702380D01*
X103416666Y-141702380D01*
X103559523Y-141750000D01*
X103607142Y-141797619D01*
X104559523Y-142702380D02*
X103988095Y-142702380D01*
X104273809Y-142702380D02*
X104273809Y-141702380D01*
X104178571Y-141845238D01*
X104083333Y-141940476D01*
X103988095Y-141988095D01*
X104892857Y-141702380D02*
X105511904Y-141702380D01*
X105178571Y-142083333D01*
X105321428Y-142083333D01*
X105416666Y-142130952D01*
X105464285Y-142178571D01*
X105511904Y-142273809D01*
X105511904Y-142511904D01*
X105464285Y-142607142D01*
X105416666Y-142654761D01*
X105321428Y-142702380D01*
X105035714Y-142702380D01*
X104940476Y-142654761D01*
X104892857Y-142607142D01*
X103607142Y-138702380D02*
X103273809Y-138226190D01*
X103035714Y-138702380D02*
X103035714Y-137702380D01*
X103416666Y-137702380D01*
X103511904Y-137750000D01*
X103559523Y-137797619D01*
X103607142Y-137892857D01*
X103607142Y-138035714D01*
X103559523Y-138130952D01*
X103511904Y-138178571D01*
X103416666Y-138226190D01*
X103035714Y-138226190D01*
X104559523Y-138702380D02*
X103988095Y-138702380D01*
X104273809Y-138702380D02*
X104273809Y-137702380D01*
X104178571Y-137845238D01*
X104083333Y-137940476D01*
X103988095Y-137988095D01*
X104940476Y-137797619D02*
X104988095Y-137750000D01*
X105083333Y-137702380D01*
X105321428Y-137702380D01*
X105416666Y-137750000D01*
X105464285Y-137797619D01*
X105511904Y-137892857D01*
X105511904Y-137988095D01*
X105464285Y-138130952D01*
X104892857Y-138702380D01*
X105511904Y-138702380D01*
X103607142Y-140702380D02*
X103273809Y-140226190D01*
X103035714Y-140702380D02*
X103035714Y-139702380D01*
X103416666Y-139702380D01*
X103511904Y-139750000D01*
X103559523Y-139797619D01*
X103607142Y-139892857D01*
X103607142Y-140035714D01*
X103559523Y-140130952D01*
X103511904Y-140178571D01*
X103416666Y-140226190D01*
X103035714Y-140226190D01*
X104559523Y-140702380D02*
X103988095Y-140702380D01*
X104273809Y-140702380D02*
X104273809Y-139702380D01*
X104178571Y-139845238D01*
X104083333Y-139940476D01*
X103988095Y-139988095D01*
X104892857Y-139702380D02*
X105511904Y-139702380D01*
X105178571Y-140083333D01*
X105321428Y-140083333D01*
X105416666Y-140130952D01*
X105464285Y-140178571D01*
X105511904Y-140273809D01*
X105511904Y-140511904D01*
X105464285Y-140607142D01*
X105416666Y-140654761D01*
X105321428Y-140702380D01*
X105035714Y-140702380D01*
X104940476Y-140654761D01*
X104892857Y-140607142D01*
X90261904Y-127702380D02*
X90833333Y-127702380D01*
X90547619Y-128702380D02*
X90547619Y-127702380D01*
X91166666Y-128702380D02*
X91166666Y-127702380D01*
X91547619Y-127702380D01*
X91642857Y-127750000D01*
X91690476Y-127797619D01*
X91738095Y-127892857D01*
X91738095Y-128035714D01*
X91690476Y-128130952D01*
X91642857Y-128178571D01*
X91547619Y-128226190D01*
X91166666Y-128226190D01*
X92690476Y-128702380D02*
X92119047Y-128702380D01*
X92404761Y-128702380D02*
X92404761Y-127702380D01*
X92309523Y-127845238D01*
X92214285Y-127940476D01*
X92119047Y-127988095D01*
X93309523Y-127702380D02*
X93404761Y-127702380D01*
X93500000Y-127750000D01*
X93547619Y-127797619D01*
X93595238Y-127892857D01*
X93642857Y-128083333D01*
X93642857Y-128321428D01*
X93595238Y-128511904D01*
X93547619Y-128607142D01*
X93500000Y-128654761D01*
X93404761Y-128702380D01*
X93309523Y-128702380D01*
X93214285Y-128654761D01*
X93166666Y-128607142D01*
X93119047Y-128511904D01*
X93071428Y-128321428D01*
X93071428Y-128083333D01*
X93119047Y-127892857D01*
X93166666Y-127797619D01*
X93214285Y-127750000D01*
X93309523Y-127702380D01*
X90261904Y-132452380D02*
X90833333Y-132452380D01*
X90547619Y-133452380D02*
X90547619Y-132452380D01*
X91166666Y-133452380D02*
X91166666Y-132452380D01*
X91547619Y-132452380D01*
X91642857Y-132500000D01*
X91690476Y-132547619D01*
X91738095Y-132642857D01*
X91738095Y-132785714D01*
X91690476Y-132880952D01*
X91642857Y-132928571D01*
X91547619Y-132976190D01*
X91166666Y-132976190D01*
X92690476Y-133452380D02*
X92119047Y-133452380D01*
X92404761Y-133452380D02*
X92404761Y-132452380D01*
X92309523Y-132595238D01*
X92214285Y-132690476D01*
X92119047Y-132738095D01*
X93642857Y-133452380D02*
X93071428Y-133452380D01*
X93357142Y-133452380D02*
X93357142Y-132452380D01*
X93261904Y-132595238D01*
X93166666Y-132690476D01*
X93071428Y-132738095D01*
M02*
