G04 #@! TF.GenerationSoftware,KiCad,Pcbnew,(5.1.9-0-10_14)*
G04 #@! TF.CreationDate,2021-05-25T14:16:09+02:00*
G04 #@! TF.ProjectId,foodSampler_v21,666f6f64-5361-46d7-906c-65725f763231,rev?*
G04 #@! TF.SameCoordinates,Original*
G04 #@! TF.FileFunction,Soldermask,Bot*
G04 #@! TF.FilePolarity,Negative*
%FSLAX46Y46*%
G04 Gerber Fmt 4.6, Leading zero omitted, Abs format (unit mm)*
G04 Created by KiCad (PCBNEW (5.1.9-0-10_14)) date 2021-05-25 14:16:09*
%MOMM*%
%LPD*%
G01*
G04 APERTURE LIST*
%ADD10C,1.802000*%
%ADD11C,1.902000*%
%ADD12O,1.302000X2.102000*%
%ADD13O,1.302000X1.702000*%
%ADD14O,1.402000X1.002000*%
%ADD15C,0.752000*%
%ADD16C,3.302000*%
%ADD17C,1.502000*%
%ADD18O,1.502000X1.502000*%
%ADD19O,1.102000X3.002000*%
%ADD20C,0.100000*%
G04 APERTURE END LIST*
D10*
X41500000Y-145000000D03*
D11*
X32500000Y-145000000D03*
X30500000Y-145000000D03*
X43500000Y-145000000D03*
X34500000Y-151250000D03*
X34500000Y-138750000D03*
X39500000Y-151250000D03*
X39500000Y-138750000D03*
D10*
X41500000Y-70000000D03*
D11*
X32500000Y-70000000D03*
X30500000Y-70000000D03*
X43500000Y-70000000D03*
X34500000Y-76250000D03*
X34500000Y-63750000D03*
X39500000Y-76250000D03*
X39500000Y-63750000D03*
D12*
X59925000Y-157750000D03*
X72075000Y-157750000D03*
D13*
X70500000Y-152150000D03*
X61500000Y-152150000D03*
D14*
X63240000Y-152900000D03*
X68760000Y-152900000D03*
D15*
X64400000Y-153800000D03*
X65200000Y-153800000D03*
X66800000Y-153800000D03*
X64800000Y-152900000D03*
X65600000Y-152900000D03*
X66400000Y-152900000D03*
X67200000Y-152900000D03*
X67600000Y-153800000D03*
X63600000Y-153800000D03*
X68400000Y-153800000D03*
D11*
X39500000Y-48750000D03*
X39500000Y-61250000D03*
X34500000Y-48750000D03*
X34500000Y-61250000D03*
X43500000Y-55000000D03*
X30500000Y-55000000D03*
X32500000Y-55000000D03*
D10*
X41500000Y-55000000D03*
D11*
X39500000Y-78750000D03*
X39500000Y-91250000D03*
X34500000Y-78750000D03*
X34500000Y-91250000D03*
X43500000Y-85000000D03*
X30500000Y-85000000D03*
X32500000Y-85000000D03*
D10*
X41500000Y-85000000D03*
D11*
X39500000Y-93750000D03*
X39500000Y-106250000D03*
X34500000Y-93750000D03*
X34500000Y-106250000D03*
X43500000Y-100000000D03*
X30500000Y-100000000D03*
X32500000Y-100000000D03*
D10*
X41500000Y-100000000D03*
X41500000Y-115000000D03*
D11*
X32500000Y-115000000D03*
X30500000Y-115000000D03*
X43500000Y-115000000D03*
X34500000Y-121250000D03*
X34500000Y-108750000D03*
X39500000Y-121250000D03*
X39500000Y-108750000D03*
X39500000Y-123750000D03*
X39500000Y-136250000D03*
X34500000Y-123750000D03*
X34500000Y-136250000D03*
X43500000Y-130000000D03*
X30500000Y-130000000D03*
X32500000Y-130000000D03*
D10*
X41500000Y-130000000D03*
D16*
X30000000Y-35000000D03*
X102000000Y-155000000D03*
X30000000Y-155000000D03*
X102000000Y-106000000D03*
D10*
X43000000Y-156000000D03*
D17*
X61000000Y-115500000D03*
D18*
X63540000Y-115500000D03*
D19*
X85100000Y-152100000D03*
X76900000Y-152100000D03*
D20*
G36*
X69193888Y-135300398D02*
G01*
X69175466Y-135300398D01*
X69170467Y-135300152D01*
X69121636Y-135295342D01*
X69116686Y-135294608D01*
X69068561Y-135285036D01*
X69063705Y-135283820D01*
X69016750Y-135269576D01*
X69012039Y-135267890D01*
X68966706Y-135249113D01*
X68962180Y-135246973D01*
X68918907Y-135223842D01*
X68914616Y-135221269D01*
X68873817Y-135194009D01*
X68869796Y-135191027D01*
X68831867Y-135159899D01*
X68828159Y-135156538D01*
X68793462Y-135121841D01*
X68790101Y-135118133D01*
X68758973Y-135080204D01*
X68755991Y-135076183D01*
X68728731Y-135035384D01*
X68726158Y-135031093D01*
X68703027Y-134987820D01*
X68700887Y-134983294D01*
X68682110Y-134937961D01*
X68680424Y-134933250D01*
X68666180Y-134886295D01*
X68664964Y-134881439D01*
X68655392Y-134833314D01*
X68654658Y-134828364D01*
X68649848Y-134779533D01*
X68649602Y-134774534D01*
X68649602Y-134756112D01*
X68649000Y-134750000D01*
X68649000Y-134250000D01*
X68649602Y-134243888D01*
X68649602Y-134225466D01*
X68649848Y-134220467D01*
X68654658Y-134171636D01*
X68655392Y-134166686D01*
X68664964Y-134118561D01*
X68666180Y-134113705D01*
X68680424Y-134066750D01*
X68682110Y-134062039D01*
X68700887Y-134016706D01*
X68703027Y-134012180D01*
X68726158Y-133968907D01*
X68728731Y-133964616D01*
X68755991Y-133923817D01*
X68758973Y-133919796D01*
X68790101Y-133881867D01*
X68793462Y-133878159D01*
X68828159Y-133843462D01*
X68831867Y-133840101D01*
X68869796Y-133808973D01*
X68873817Y-133805991D01*
X68914616Y-133778731D01*
X68918907Y-133776158D01*
X68962180Y-133753027D01*
X68966706Y-133750887D01*
X69012039Y-133732110D01*
X69016750Y-133730424D01*
X69063705Y-133716180D01*
X69068561Y-133714964D01*
X69116686Y-133705392D01*
X69121636Y-133704658D01*
X69170467Y-133699848D01*
X69175466Y-133699602D01*
X69193888Y-133699602D01*
X69200000Y-133699000D01*
X69700000Y-133699000D01*
X69709950Y-133699980D01*
X69719517Y-133702882D01*
X69728334Y-133707595D01*
X69736062Y-133713938D01*
X69742405Y-133721666D01*
X69747118Y-133730483D01*
X69750020Y-133740050D01*
X69751000Y-133750000D01*
X69751000Y-135250000D01*
X69750020Y-135259950D01*
X69747118Y-135269517D01*
X69742405Y-135278334D01*
X69736062Y-135286062D01*
X69728334Y-135292405D01*
X69719517Y-135297118D01*
X69709950Y-135300020D01*
X69700000Y-135301000D01*
X69200000Y-135301000D01*
X69193888Y-135300398D01*
G37*
G36*
X69990050Y-135300020D02*
G01*
X69980483Y-135297118D01*
X69971666Y-135292405D01*
X69963938Y-135286062D01*
X69957595Y-135278334D01*
X69952882Y-135269517D01*
X69949980Y-135259950D01*
X69949000Y-135250000D01*
X69949000Y-133750000D01*
X69949980Y-133740050D01*
X69952882Y-133730483D01*
X69957595Y-133721666D01*
X69963938Y-133713938D01*
X69971666Y-133707595D01*
X69980483Y-133702882D01*
X69990050Y-133699980D01*
X70000000Y-133699000D01*
X70500000Y-133699000D01*
X70506112Y-133699602D01*
X70524534Y-133699602D01*
X70529533Y-133699848D01*
X70578364Y-133704658D01*
X70583314Y-133705392D01*
X70631439Y-133714964D01*
X70636295Y-133716180D01*
X70683250Y-133730424D01*
X70687961Y-133732110D01*
X70733294Y-133750887D01*
X70737820Y-133753027D01*
X70781093Y-133776158D01*
X70785384Y-133778731D01*
X70826183Y-133805991D01*
X70830204Y-133808973D01*
X70868133Y-133840101D01*
X70871841Y-133843462D01*
X70906538Y-133878159D01*
X70909899Y-133881867D01*
X70941027Y-133919796D01*
X70944009Y-133923817D01*
X70971269Y-133964616D01*
X70973842Y-133968907D01*
X70996973Y-134012180D01*
X70999113Y-134016706D01*
X71017890Y-134062039D01*
X71019576Y-134066750D01*
X71033820Y-134113705D01*
X71035036Y-134118561D01*
X71044608Y-134166686D01*
X71045342Y-134171636D01*
X71050152Y-134220467D01*
X71050398Y-134225466D01*
X71050398Y-134243888D01*
X71051000Y-134250000D01*
X71051000Y-134750000D01*
X71050398Y-134756112D01*
X71050398Y-134774534D01*
X71050152Y-134779533D01*
X71045342Y-134828364D01*
X71044608Y-134833314D01*
X71035036Y-134881439D01*
X71033820Y-134886295D01*
X71019576Y-134933250D01*
X71017890Y-134937961D01*
X70999113Y-134983294D01*
X70996973Y-134987820D01*
X70973842Y-135031093D01*
X70971269Y-135035384D01*
X70944009Y-135076183D01*
X70941027Y-135080204D01*
X70909899Y-135118133D01*
X70906538Y-135121841D01*
X70871841Y-135156538D01*
X70868133Y-135159899D01*
X70830204Y-135191027D01*
X70826183Y-135194009D01*
X70785384Y-135221269D01*
X70781093Y-135223842D01*
X70737820Y-135246973D01*
X70733294Y-135249113D01*
X70687961Y-135267890D01*
X70683250Y-135269576D01*
X70636295Y-135283820D01*
X70631439Y-135285036D01*
X70583314Y-135294608D01*
X70578364Y-135295342D01*
X70529533Y-135300152D01*
X70524534Y-135300398D01*
X70506112Y-135300398D01*
X70500000Y-135301000D01*
X70000000Y-135301000D01*
X69990050Y-135300020D01*
G37*
G36*
X69990050Y-138300020D02*
G01*
X69980483Y-138297118D01*
X69971666Y-138292405D01*
X69963938Y-138286062D01*
X69957595Y-138278334D01*
X69952882Y-138269517D01*
X69949980Y-138259950D01*
X69949000Y-138250000D01*
X69949000Y-136750000D01*
X69949980Y-136740050D01*
X69952882Y-136730483D01*
X69957595Y-136721666D01*
X69963938Y-136713938D01*
X69971666Y-136707595D01*
X69980483Y-136702882D01*
X69990050Y-136699980D01*
X70000000Y-136699000D01*
X70500000Y-136699000D01*
X70506112Y-136699602D01*
X70524534Y-136699602D01*
X70529533Y-136699848D01*
X70578364Y-136704658D01*
X70583314Y-136705392D01*
X70631439Y-136714964D01*
X70636295Y-136716180D01*
X70683250Y-136730424D01*
X70687961Y-136732110D01*
X70733294Y-136750887D01*
X70737820Y-136753027D01*
X70781093Y-136776158D01*
X70785384Y-136778731D01*
X70826183Y-136805991D01*
X70830204Y-136808973D01*
X70868133Y-136840101D01*
X70871841Y-136843462D01*
X70906538Y-136878159D01*
X70909899Y-136881867D01*
X70941027Y-136919796D01*
X70944009Y-136923817D01*
X70971269Y-136964616D01*
X70973842Y-136968907D01*
X70996973Y-137012180D01*
X70999113Y-137016706D01*
X71017890Y-137062039D01*
X71019576Y-137066750D01*
X71033820Y-137113705D01*
X71035036Y-137118561D01*
X71044608Y-137166686D01*
X71045342Y-137171636D01*
X71050152Y-137220467D01*
X71050398Y-137225466D01*
X71050398Y-137243888D01*
X71051000Y-137250000D01*
X71051000Y-137750000D01*
X71050398Y-137756112D01*
X71050398Y-137774534D01*
X71050152Y-137779533D01*
X71045342Y-137828364D01*
X71044608Y-137833314D01*
X71035036Y-137881439D01*
X71033820Y-137886295D01*
X71019576Y-137933250D01*
X71017890Y-137937961D01*
X70999113Y-137983294D01*
X70996973Y-137987820D01*
X70973842Y-138031093D01*
X70971269Y-138035384D01*
X70944009Y-138076183D01*
X70941027Y-138080204D01*
X70909899Y-138118133D01*
X70906538Y-138121841D01*
X70871841Y-138156538D01*
X70868133Y-138159899D01*
X70830204Y-138191027D01*
X70826183Y-138194009D01*
X70785384Y-138221269D01*
X70781093Y-138223842D01*
X70737820Y-138246973D01*
X70733294Y-138249113D01*
X70687961Y-138267890D01*
X70683250Y-138269576D01*
X70636295Y-138283820D01*
X70631439Y-138285036D01*
X70583314Y-138294608D01*
X70578364Y-138295342D01*
X70529533Y-138300152D01*
X70524534Y-138300398D01*
X70506112Y-138300398D01*
X70500000Y-138301000D01*
X70000000Y-138301000D01*
X69990050Y-138300020D01*
G37*
G36*
X69193888Y-138300398D02*
G01*
X69175466Y-138300398D01*
X69170467Y-138300152D01*
X69121636Y-138295342D01*
X69116686Y-138294608D01*
X69068561Y-138285036D01*
X69063705Y-138283820D01*
X69016750Y-138269576D01*
X69012039Y-138267890D01*
X68966706Y-138249113D01*
X68962180Y-138246973D01*
X68918907Y-138223842D01*
X68914616Y-138221269D01*
X68873817Y-138194009D01*
X68869796Y-138191027D01*
X68831867Y-138159899D01*
X68828159Y-138156538D01*
X68793462Y-138121841D01*
X68790101Y-138118133D01*
X68758973Y-138080204D01*
X68755991Y-138076183D01*
X68728731Y-138035384D01*
X68726158Y-138031093D01*
X68703027Y-137987820D01*
X68700887Y-137983294D01*
X68682110Y-137937961D01*
X68680424Y-137933250D01*
X68666180Y-137886295D01*
X68664964Y-137881439D01*
X68655392Y-137833314D01*
X68654658Y-137828364D01*
X68649848Y-137779533D01*
X68649602Y-137774534D01*
X68649602Y-137756112D01*
X68649000Y-137750000D01*
X68649000Y-137250000D01*
X68649602Y-137243888D01*
X68649602Y-137225466D01*
X68649848Y-137220467D01*
X68654658Y-137171636D01*
X68655392Y-137166686D01*
X68664964Y-137118561D01*
X68666180Y-137113705D01*
X68680424Y-137066750D01*
X68682110Y-137062039D01*
X68700887Y-137016706D01*
X68703027Y-137012180D01*
X68726158Y-136968907D01*
X68728731Y-136964616D01*
X68755991Y-136923817D01*
X68758973Y-136919796D01*
X68790101Y-136881867D01*
X68793462Y-136878159D01*
X68828159Y-136843462D01*
X68831867Y-136840101D01*
X68869796Y-136808973D01*
X68873817Y-136805991D01*
X68914616Y-136778731D01*
X68918907Y-136776158D01*
X68962180Y-136753027D01*
X68966706Y-136750887D01*
X69012039Y-136732110D01*
X69016750Y-136730424D01*
X69063705Y-136716180D01*
X69068561Y-136714964D01*
X69116686Y-136705392D01*
X69121636Y-136704658D01*
X69170467Y-136699848D01*
X69175466Y-136699602D01*
X69193888Y-136699602D01*
X69200000Y-136699000D01*
X69700000Y-136699000D01*
X69709950Y-136699980D01*
X69719517Y-136702882D01*
X69728334Y-136707595D01*
X69736062Y-136713938D01*
X69742405Y-136721666D01*
X69747118Y-136730483D01*
X69750020Y-136740050D01*
X69751000Y-136750000D01*
X69751000Y-138250000D01*
X69750020Y-138259950D01*
X69747118Y-138269517D01*
X69742405Y-138278334D01*
X69736062Y-138286062D01*
X69728334Y-138292405D01*
X69719517Y-138297118D01*
X69709950Y-138300020D01*
X69700000Y-138301000D01*
X69200000Y-138301000D01*
X69193888Y-138300398D01*
G37*
D10*
X79000000Y-137500000D03*
X61000000Y-144000000D03*
X85000000Y-137000000D03*
X102500000Y-141500000D03*
D20*
G36*
X67901513Y-153574139D02*
G01*
X67913034Y-153588178D01*
X67931671Y-153603473D01*
X67952935Y-153614838D01*
X67976010Y-153621838D01*
X68000001Y-153624201D01*
X68023992Y-153621838D01*
X68047067Y-153614838D01*
X68068331Y-153603472D01*
X68086967Y-153588177D01*
X68098488Y-153574139D01*
X68100360Y-153573435D01*
X68101906Y-153574704D01*
X68101697Y-153576519D01*
X68070171Y-153623702D01*
X68042114Y-153691435D01*
X68027811Y-153763345D01*
X68027811Y-153836655D01*
X68042114Y-153908565D01*
X68070171Y-153976298D01*
X68101696Y-154023481D01*
X68101827Y-154025477D01*
X68100164Y-154026588D01*
X68098487Y-154025861D01*
X68086966Y-154011822D01*
X68068329Y-153996527D01*
X68047065Y-153985162D01*
X68023990Y-153978162D01*
X67999999Y-153975799D01*
X67976008Y-153978162D01*
X67952933Y-153985162D01*
X67931669Y-153996528D01*
X67913033Y-154011823D01*
X67901512Y-154025861D01*
X67899640Y-154026565D01*
X67898094Y-154025296D01*
X67898303Y-154023481D01*
X67929829Y-153976298D01*
X67957886Y-153908565D01*
X67972189Y-153836655D01*
X67972189Y-153763345D01*
X67957886Y-153691435D01*
X67929829Y-153623702D01*
X67898304Y-153576519D01*
X67898173Y-153574523D01*
X67899836Y-153573412D01*
X67901513Y-153574139D01*
G37*
G36*
X64701513Y-153574139D02*
G01*
X64713034Y-153588178D01*
X64731671Y-153603473D01*
X64752935Y-153614838D01*
X64776010Y-153621838D01*
X64800001Y-153624201D01*
X64823992Y-153621838D01*
X64847067Y-153614838D01*
X64868331Y-153603472D01*
X64886967Y-153588177D01*
X64898488Y-153574139D01*
X64900360Y-153573435D01*
X64901906Y-153574704D01*
X64901697Y-153576519D01*
X64870171Y-153623702D01*
X64842114Y-153691435D01*
X64827811Y-153763345D01*
X64827811Y-153836655D01*
X64842114Y-153908565D01*
X64870171Y-153976298D01*
X64901696Y-154023481D01*
X64901827Y-154025477D01*
X64900164Y-154026588D01*
X64898487Y-154025861D01*
X64886966Y-154011822D01*
X64868329Y-153996527D01*
X64847065Y-153985162D01*
X64823990Y-153978162D01*
X64799999Y-153975799D01*
X64776008Y-153978162D01*
X64752933Y-153985162D01*
X64731669Y-153996528D01*
X64713033Y-154011823D01*
X64701512Y-154025861D01*
X64699640Y-154026565D01*
X64698094Y-154025296D01*
X64698303Y-154023481D01*
X64729829Y-153976298D01*
X64757886Y-153908565D01*
X64772189Y-153836655D01*
X64772189Y-153763345D01*
X64757886Y-153691435D01*
X64729829Y-153623702D01*
X64698304Y-153576519D01*
X64698173Y-153574523D01*
X64699836Y-153573412D01*
X64701513Y-153574139D01*
G37*
G36*
X63901513Y-153574139D02*
G01*
X63913034Y-153588178D01*
X63931671Y-153603473D01*
X63952935Y-153614838D01*
X63976010Y-153621838D01*
X64000001Y-153624201D01*
X64023992Y-153621838D01*
X64047067Y-153614838D01*
X64068331Y-153603472D01*
X64086967Y-153588177D01*
X64098488Y-153574139D01*
X64100360Y-153573435D01*
X64101906Y-153574704D01*
X64101697Y-153576519D01*
X64070171Y-153623702D01*
X64042114Y-153691435D01*
X64027811Y-153763345D01*
X64027811Y-153836655D01*
X64042114Y-153908565D01*
X64070171Y-153976298D01*
X64101696Y-154023481D01*
X64101827Y-154025477D01*
X64100164Y-154026588D01*
X64098487Y-154025861D01*
X64086966Y-154011822D01*
X64068329Y-153996527D01*
X64047065Y-153985162D01*
X64023990Y-153978162D01*
X63999999Y-153975799D01*
X63976008Y-153978162D01*
X63952933Y-153985162D01*
X63931669Y-153996528D01*
X63913033Y-154011823D01*
X63901512Y-154025861D01*
X63899640Y-154026565D01*
X63898094Y-154025296D01*
X63898303Y-154023481D01*
X63929829Y-153976298D01*
X63957886Y-153908565D01*
X63972189Y-153836655D01*
X63972189Y-153763345D01*
X63957886Y-153691435D01*
X63929829Y-153623702D01*
X63898304Y-153576519D01*
X63898173Y-153574523D01*
X63899836Y-153573412D01*
X63901513Y-153574139D01*
G37*
G36*
X67101513Y-153574139D02*
G01*
X67113034Y-153588178D01*
X67131671Y-153603473D01*
X67152935Y-153614838D01*
X67176010Y-153621838D01*
X67200001Y-153624201D01*
X67223992Y-153621838D01*
X67247067Y-153614838D01*
X67268331Y-153603472D01*
X67286967Y-153588177D01*
X67298488Y-153574139D01*
X67300360Y-153573435D01*
X67301906Y-153574704D01*
X67301697Y-153576519D01*
X67270171Y-153623702D01*
X67242114Y-153691435D01*
X67227811Y-153763345D01*
X67227811Y-153836655D01*
X67242114Y-153908565D01*
X67270171Y-153976298D01*
X67301696Y-154023481D01*
X67301827Y-154025477D01*
X67300164Y-154026588D01*
X67298487Y-154025861D01*
X67286966Y-154011822D01*
X67268329Y-153996527D01*
X67247065Y-153985162D01*
X67223990Y-153978162D01*
X67199999Y-153975799D01*
X67176008Y-153978162D01*
X67152933Y-153985162D01*
X67131669Y-153996528D01*
X67113033Y-154011823D01*
X67101512Y-154025861D01*
X67099640Y-154026565D01*
X67098094Y-154025296D01*
X67098303Y-154023481D01*
X67129829Y-153976298D01*
X67157886Y-153908565D01*
X67172189Y-153836655D01*
X67172189Y-153763345D01*
X67157886Y-153691435D01*
X67129829Y-153623702D01*
X67098304Y-153576519D01*
X67098173Y-153574523D01*
X67099836Y-153573412D01*
X67101513Y-153574139D01*
G37*
G36*
X68238285Y-153278382D02*
G01*
X68282775Y-153314895D01*
X68369045Y-153361007D01*
X68462655Y-153389403D01*
X68560094Y-153399000D01*
X68816563Y-153399000D01*
X68818295Y-153400000D01*
X68818295Y-153402000D01*
X68816759Y-153402990D01*
X68792572Y-153405372D01*
X68769497Y-153412372D01*
X68748233Y-153423737D01*
X68729596Y-153439032D01*
X68714301Y-153457669D01*
X68702936Y-153478933D01*
X68695936Y-153502008D01*
X68693573Y-153525999D01*
X68695936Y-153549990D01*
X68702936Y-153573065D01*
X68711498Y-153589085D01*
X68711432Y-153591084D01*
X68709668Y-153592027D01*
X68708071Y-153591139D01*
X68689098Y-153562742D01*
X68637258Y-153510902D01*
X68576298Y-153470171D01*
X68508565Y-153442114D01*
X68436655Y-153427811D01*
X68363345Y-153427811D01*
X68291435Y-153442114D01*
X68223543Y-153470237D01*
X68221561Y-153469976D01*
X68220795Y-153468128D01*
X68221509Y-153466843D01*
X68235596Y-153455282D01*
X68250891Y-153436645D01*
X68262256Y-153415381D01*
X68269256Y-153392306D01*
X68271619Y-153368315D01*
X68269256Y-153344324D01*
X68262256Y-153321249D01*
X68250890Y-153299986D01*
X68235470Y-153281197D01*
X68235144Y-153279223D01*
X68236690Y-153277955D01*
X68238285Y-153278382D01*
G37*
G36*
X63769703Y-153275707D02*
G01*
X63769144Y-153277447D01*
X63756300Y-153290291D01*
X63742905Y-153310338D01*
X63733679Y-153332612D01*
X63728974Y-153356262D01*
X63728974Y-153380368D01*
X63733678Y-153404018D01*
X63742904Y-153426292D01*
X63756299Y-153446340D01*
X63773383Y-153463424D01*
X63777277Y-153466312D01*
X63778073Y-153468147D01*
X63776881Y-153469753D01*
X63775321Y-153469766D01*
X63708565Y-153442114D01*
X63636655Y-153427811D01*
X63563345Y-153427811D01*
X63491435Y-153442114D01*
X63423702Y-153470171D01*
X63362742Y-153510902D01*
X63310902Y-153562742D01*
X63291928Y-153591139D01*
X63290134Y-153592024D01*
X63288471Y-153590913D01*
X63288501Y-153589085D01*
X63297064Y-153573066D01*
X63304064Y-153549991D01*
X63306427Y-153525999D01*
X63304064Y-153502009D01*
X63297064Y-153478934D01*
X63285699Y-153457670D01*
X63270404Y-153439033D01*
X63251768Y-153423738D01*
X63230504Y-153412372D01*
X63207429Y-153405372D01*
X63183241Y-153402990D01*
X63181615Y-153401825D01*
X63181811Y-153399835D01*
X63183437Y-153399000D01*
X63439906Y-153399000D01*
X63537345Y-153389403D01*
X63630955Y-153361007D01*
X63717225Y-153314895D01*
X63766461Y-153274487D01*
X63768434Y-153274161D01*
X63769703Y-153275707D01*
G37*
G36*
X66701513Y-152674139D02*
G01*
X66713034Y-152688178D01*
X66731671Y-152703473D01*
X66752935Y-152714838D01*
X66776010Y-152721838D01*
X66800001Y-152724201D01*
X66823992Y-152721838D01*
X66847067Y-152714838D01*
X66868331Y-152703472D01*
X66886967Y-152688177D01*
X66898488Y-152674139D01*
X66900360Y-152673435D01*
X66901906Y-152674704D01*
X66901697Y-152676519D01*
X66870171Y-152723702D01*
X66842114Y-152791435D01*
X66827811Y-152863345D01*
X66827811Y-152936655D01*
X66842114Y-153008565D01*
X66870171Y-153076298D01*
X66901696Y-153123481D01*
X66901827Y-153125477D01*
X66900164Y-153126588D01*
X66898487Y-153125861D01*
X66886966Y-153111822D01*
X66868329Y-153096527D01*
X66847065Y-153085162D01*
X66823990Y-153078162D01*
X66799999Y-153075799D01*
X66776008Y-153078162D01*
X66752933Y-153085162D01*
X66731669Y-153096528D01*
X66713033Y-153111823D01*
X66701512Y-153125861D01*
X66699640Y-153126565D01*
X66698094Y-153125296D01*
X66698303Y-153123481D01*
X66729829Y-153076298D01*
X66757886Y-153008565D01*
X66772189Y-152936655D01*
X66772189Y-152863345D01*
X66757886Y-152791435D01*
X66729829Y-152723702D01*
X66698304Y-152676519D01*
X66698173Y-152674523D01*
X66699836Y-152673412D01*
X66701513Y-152674139D01*
G37*
G36*
X65101513Y-152674139D02*
G01*
X65113034Y-152688178D01*
X65131671Y-152703473D01*
X65152935Y-152714838D01*
X65176010Y-152721838D01*
X65200001Y-152724201D01*
X65223992Y-152721838D01*
X65247067Y-152714838D01*
X65268331Y-152703472D01*
X65286967Y-152688177D01*
X65298488Y-152674139D01*
X65300360Y-152673435D01*
X65301906Y-152674704D01*
X65301697Y-152676519D01*
X65270171Y-152723702D01*
X65242114Y-152791435D01*
X65227811Y-152863345D01*
X65227811Y-152936655D01*
X65242114Y-153008565D01*
X65270171Y-153076298D01*
X65301696Y-153123481D01*
X65301827Y-153125477D01*
X65300164Y-153126588D01*
X65298487Y-153125861D01*
X65286966Y-153111822D01*
X65268329Y-153096527D01*
X65247065Y-153085162D01*
X65223990Y-153078162D01*
X65199999Y-153075799D01*
X65176008Y-153078162D01*
X65152933Y-153085162D01*
X65131669Y-153096528D01*
X65113033Y-153111823D01*
X65101512Y-153125861D01*
X65099640Y-153126565D01*
X65098094Y-153125296D01*
X65098303Y-153123481D01*
X65129829Y-153076298D01*
X65157886Y-153008565D01*
X65172189Y-152936655D01*
X65172189Y-152863345D01*
X65157886Y-152791435D01*
X65129829Y-152723702D01*
X65098304Y-152676519D01*
X65098173Y-152674523D01*
X65099836Y-152673412D01*
X65101513Y-152674139D01*
G37*
G36*
X65901513Y-152674139D02*
G01*
X65913034Y-152688178D01*
X65931671Y-152703473D01*
X65952935Y-152714838D01*
X65976010Y-152721838D01*
X66000001Y-152724201D01*
X66023992Y-152721838D01*
X66047067Y-152714838D01*
X66068331Y-152703472D01*
X66086967Y-152688177D01*
X66098488Y-152674139D01*
X66100360Y-152673435D01*
X66101906Y-152674704D01*
X66101697Y-152676519D01*
X66070171Y-152723702D01*
X66042114Y-152791435D01*
X66027811Y-152863345D01*
X66027811Y-152936655D01*
X66042114Y-153008565D01*
X66070171Y-153076298D01*
X66101696Y-153123481D01*
X66101827Y-153125477D01*
X66100164Y-153126588D01*
X66098487Y-153125861D01*
X66086966Y-153111822D01*
X66068329Y-153096527D01*
X66047065Y-153085162D01*
X66023990Y-153078162D01*
X65999999Y-153075799D01*
X65976008Y-153078162D01*
X65952933Y-153085162D01*
X65931669Y-153096528D01*
X65913033Y-153111823D01*
X65901512Y-153125861D01*
X65899640Y-153126565D01*
X65898094Y-153125296D01*
X65898303Y-153123481D01*
X65929829Y-153076298D01*
X65957886Y-153008565D01*
X65972189Y-152936655D01*
X65972189Y-152863345D01*
X65957886Y-152791435D01*
X65929829Y-152723702D01*
X65898304Y-152676519D01*
X65898173Y-152674523D01*
X65899836Y-152673412D01*
X65901513Y-152674139D01*
G37*
G36*
X31614288Y-144668225D02*
G01*
X31614438Y-144670046D01*
X31591874Y-144724521D01*
X31555579Y-144906985D01*
X31555579Y-145093015D01*
X31591874Y-145275479D01*
X31614438Y-145329953D01*
X31614177Y-145331936D01*
X31612329Y-145332701D01*
X31610826Y-145331661D01*
X31602262Y-145315638D01*
X31586966Y-145297001D01*
X31568329Y-145281706D01*
X31547066Y-145270341D01*
X31523991Y-145263341D01*
X31500000Y-145260978D01*
X31476008Y-145263341D01*
X31452934Y-145270341D01*
X31431670Y-145281706D01*
X31413033Y-145297002D01*
X31397738Y-145315639D01*
X31389174Y-145331662D01*
X31387475Y-145332718D01*
X31385712Y-145331775D01*
X31385562Y-145329954D01*
X31408126Y-145275479D01*
X31444421Y-145093015D01*
X31444421Y-144906985D01*
X31408126Y-144724521D01*
X31385562Y-144670047D01*
X31385823Y-144668064D01*
X31387671Y-144667299D01*
X31389174Y-144668339D01*
X31397738Y-144684362D01*
X31413034Y-144702999D01*
X31431671Y-144718294D01*
X31452934Y-144729659D01*
X31476009Y-144736659D01*
X31500000Y-144739022D01*
X31523992Y-144736659D01*
X31547066Y-144729659D01*
X31568330Y-144718294D01*
X31586967Y-144702998D01*
X31602262Y-144684361D01*
X31610826Y-144668338D01*
X31612525Y-144667282D01*
X31614288Y-144668225D01*
G37*
G36*
X42590935Y-144725749D02*
G01*
X42591310Y-144727356D01*
X42555579Y-144906985D01*
X42555579Y-145093015D01*
X42591310Y-145272644D01*
X42590667Y-145274538D01*
X42588705Y-145274928D01*
X42587500Y-145273800D01*
X42586744Y-145271974D01*
X42575333Y-145250625D01*
X42560038Y-145231988D01*
X42541401Y-145216693D01*
X42520137Y-145205328D01*
X42497062Y-145198328D01*
X42473071Y-145195965D01*
X42449080Y-145198328D01*
X42426005Y-145205328D01*
X42404741Y-145216693D01*
X42386104Y-145231988D01*
X42370809Y-145250625D01*
X42362242Y-145266653D01*
X42360543Y-145267709D01*
X42358780Y-145266766D01*
X42358630Y-145264945D01*
X42360279Y-145260964D01*
X42394661Y-145088114D01*
X42394661Y-144911886D01*
X42360279Y-144739036D01*
X42358630Y-144735055D01*
X42358891Y-144733073D01*
X42360739Y-144732307D01*
X42362242Y-144733347D01*
X42370809Y-144749375D01*
X42386105Y-144768012D01*
X42404742Y-144783307D01*
X42426005Y-144794672D01*
X42449080Y-144801672D01*
X42473072Y-144804035D01*
X42497063Y-144801672D01*
X42520138Y-144794672D01*
X42541401Y-144783307D01*
X42560038Y-144768011D01*
X42575333Y-144749374D01*
X42586744Y-144728026D01*
X42587500Y-144726200D01*
X42589087Y-144724983D01*
X42590935Y-144725749D01*
G37*
G36*
X69745405Y-136723117D02*
G01*
X69746334Y-136724249D01*
X69746451Y-136724407D01*
X69754929Y-136737096D01*
X69771976Y-136754143D01*
X69792024Y-136767538D01*
X69814298Y-136776764D01*
X69837948Y-136781468D01*
X69862054Y-136781468D01*
X69885704Y-136776763D01*
X69907978Y-136767537D01*
X69928025Y-136754142D01*
X69945072Y-136737095D01*
X69953550Y-136724407D01*
X69953667Y-136724249D01*
X69954593Y-136723121D01*
X69956465Y-136722417D01*
X69958011Y-136723686D01*
X69957903Y-136725333D01*
X69954739Y-136731252D01*
X69951950Y-136740445D01*
X69951000Y-136750094D01*
X69951000Y-138249906D01*
X69951950Y-138259555D01*
X69954739Y-138268748D01*
X69957905Y-138274671D01*
X69957839Y-138276670D01*
X69956076Y-138277613D01*
X69954595Y-138276883D01*
X69953666Y-138275751D01*
X69953549Y-138275593D01*
X69945071Y-138262904D01*
X69928024Y-138245857D01*
X69907976Y-138232462D01*
X69885702Y-138223236D01*
X69862052Y-138218532D01*
X69837946Y-138218532D01*
X69814296Y-138223237D01*
X69792022Y-138232463D01*
X69771975Y-138245858D01*
X69754928Y-138262905D01*
X69746450Y-138275593D01*
X69746333Y-138275751D01*
X69745407Y-138276879D01*
X69743535Y-138277583D01*
X69741989Y-138276314D01*
X69742097Y-138274667D01*
X69745261Y-138268748D01*
X69748050Y-138259555D01*
X69749000Y-138249906D01*
X69749000Y-136750094D01*
X69748050Y-136740445D01*
X69745261Y-136731252D01*
X69742095Y-136725329D01*
X69742161Y-136723330D01*
X69743924Y-136722387D01*
X69745405Y-136723117D01*
G37*
G36*
X69745405Y-133723117D02*
G01*
X69746334Y-133724249D01*
X69746451Y-133724407D01*
X69754929Y-133737096D01*
X69771976Y-133754143D01*
X69792024Y-133767538D01*
X69814298Y-133776764D01*
X69837948Y-133781468D01*
X69862054Y-133781468D01*
X69885704Y-133776763D01*
X69907978Y-133767537D01*
X69928025Y-133754142D01*
X69945072Y-133737095D01*
X69953550Y-133724407D01*
X69953667Y-133724249D01*
X69954593Y-133723121D01*
X69956465Y-133722417D01*
X69958011Y-133723686D01*
X69957903Y-133725333D01*
X69954739Y-133731252D01*
X69951950Y-133740445D01*
X69951000Y-133750094D01*
X69951000Y-135249906D01*
X69951950Y-135259555D01*
X69954739Y-135268748D01*
X69957905Y-135274671D01*
X69957839Y-135276670D01*
X69956076Y-135277613D01*
X69954595Y-135276883D01*
X69953666Y-135275751D01*
X69953549Y-135275593D01*
X69945071Y-135262904D01*
X69928024Y-135245857D01*
X69907976Y-135232462D01*
X69885702Y-135223236D01*
X69862052Y-135218532D01*
X69837946Y-135218532D01*
X69814296Y-135223237D01*
X69792022Y-135232463D01*
X69771975Y-135245858D01*
X69754928Y-135262905D01*
X69746450Y-135275593D01*
X69746333Y-135275751D01*
X69745407Y-135276879D01*
X69743535Y-135277583D01*
X69741989Y-135276314D01*
X69742097Y-135274667D01*
X69745261Y-135268748D01*
X69748050Y-135259555D01*
X69749000Y-135249906D01*
X69749000Y-133750094D01*
X69748050Y-133740445D01*
X69745261Y-133731252D01*
X69742095Y-133725329D01*
X69742161Y-133723330D01*
X69743924Y-133722387D01*
X69745405Y-133723117D01*
G37*
G36*
X31614288Y-129668225D02*
G01*
X31614438Y-129670046D01*
X31591874Y-129724521D01*
X31555579Y-129906985D01*
X31555579Y-130093015D01*
X31591874Y-130275479D01*
X31614438Y-130329953D01*
X31614177Y-130331936D01*
X31612329Y-130332701D01*
X31610826Y-130331661D01*
X31602262Y-130315638D01*
X31586966Y-130297001D01*
X31568329Y-130281706D01*
X31547066Y-130270341D01*
X31523991Y-130263341D01*
X31500000Y-130260978D01*
X31476008Y-130263341D01*
X31452934Y-130270341D01*
X31431670Y-130281706D01*
X31413033Y-130297002D01*
X31397738Y-130315639D01*
X31389174Y-130331662D01*
X31387475Y-130332718D01*
X31385712Y-130331775D01*
X31385562Y-130329954D01*
X31408126Y-130275479D01*
X31444421Y-130093015D01*
X31444421Y-129906985D01*
X31408126Y-129724521D01*
X31385562Y-129670047D01*
X31385823Y-129668064D01*
X31387671Y-129667299D01*
X31389174Y-129668339D01*
X31397738Y-129684362D01*
X31413034Y-129702999D01*
X31431671Y-129718294D01*
X31452934Y-129729659D01*
X31476009Y-129736659D01*
X31500000Y-129739022D01*
X31523992Y-129736659D01*
X31547066Y-129729659D01*
X31568330Y-129718294D01*
X31586967Y-129702998D01*
X31602262Y-129684361D01*
X31610826Y-129668338D01*
X31612525Y-129667282D01*
X31614288Y-129668225D01*
G37*
G36*
X42590935Y-129725749D02*
G01*
X42591310Y-129727356D01*
X42555579Y-129906985D01*
X42555579Y-130093015D01*
X42591310Y-130272644D01*
X42590667Y-130274538D01*
X42588705Y-130274928D01*
X42587500Y-130273800D01*
X42586744Y-130271974D01*
X42575333Y-130250625D01*
X42560038Y-130231988D01*
X42541401Y-130216693D01*
X42520137Y-130205328D01*
X42497062Y-130198328D01*
X42473071Y-130195965D01*
X42449080Y-130198328D01*
X42426005Y-130205328D01*
X42404741Y-130216693D01*
X42386104Y-130231988D01*
X42370809Y-130250625D01*
X42362242Y-130266653D01*
X42360543Y-130267709D01*
X42358780Y-130266766D01*
X42358630Y-130264945D01*
X42360279Y-130260964D01*
X42394661Y-130088114D01*
X42394661Y-129911886D01*
X42360279Y-129739036D01*
X42358630Y-129735055D01*
X42358891Y-129733073D01*
X42360739Y-129732307D01*
X42362242Y-129733347D01*
X42370809Y-129749375D01*
X42386105Y-129768012D01*
X42404742Y-129783307D01*
X42426005Y-129794672D01*
X42449080Y-129801672D01*
X42473072Y-129804035D01*
X42497063Y-129801672D01*
X42520138Y-129794672D01*
X42541401Y-129783307D01*
X42560038Y-129768011D01*
X42575333Y-129749374D01*
X42586744Y-129728026D01*
X42587500Y-129726200D01*
X42589087Y-129724983D01*
X42590935Y-129725749D01*
G37*
G36*
X31614288Y-114668225D02*
G01*
X31614438Y-114670046D01*
X31591874Y-114724521D01*
X31555579Y-114906985D01*
X31555579Y-115093015D01*
X31591874Y-115275479D01*
X31614438Y-115329953D01*
X31614177Y-115331936D01*
X31612329Y-115332701D01*
X31610826Y-115331661D01*
X31602262Y-115315638D01*
X31586966Y-115297001D01*
X31568329Y-115281706D01*
X31547066Y-115270341D01*
X31523991Y-115263341D01*
X31500000Y-115260978D01*
X31476008Y-115263341D01*
X31452934Y-115270341D01*
X31431670Y-115281706D01*
X31413033Y-115297002D01*
X31397738Y-115315639D01*
X31389174Y-115331662D01*
X31387475Y-115332718D01*
X31385712Y-115331775D01*
X31385562Y-115329954D01*
X31408126Y-115275479D01*
X31444421Y-115093015D01*
X31444421Y-114906985D01*
X31408126Y-114724521D01*
X31385562Y-114670047D01*
X31385823Y-114668064D01*
X31387671Y-114667299D01*
X31389174Y-114668339D01*
X31397738Y-114684362D01*
X31413034Y-114702999D01*
X31431671Y-114718294D01*
X31452934Y-114729659D01*
X31476009Y-114736659D01*
X31500000Y-114739022D01*
X31523992Y-114736659D01*
X31547066Y-114729659D01*
X31568330Y-114718294D01*
X31586967Y-114702998D01*
X31602262Y-114684361D01*
X31610826Y-114668338D01*
X31612525Y-114667282D01*
X31614288Y-114668225D01*
G37*
G36*
X42590935Y-114725749D02*
G01*
X42591310Y-114727356D01*
X42555579Y-114906985D01*
X42555579Y-115093015D01*
X42591310Y-115272644D01*
X42590667Y-115274538D01*
X42588705Y-115274928D01*
X42587500Y-115273800D01*
X42586744Y-115271974D01*
X42575333Y-115250625D01*
X42560038Y-115231988D01*
X42541401Y-115216693D01*
X42520137Y-115205328D01*
X42497062Y-115198328D01*
X42473071Y-115195965D01*
X42449080Y-115198328D01*
X42426005Y-115205328D01*
X42404741Y-115216693D01*
X42386104Y-115231988D01*
X42370809Y-115250625D01*
X42362242Y-115266653D01*
X42360543Y-115267709D01*
X42358780Y-115266766D01*
X42358630Y-115264945D01*
X42360279Y-115260964D01*
X42394661Y-115088114D01*
X42394661Y-114911886D01*
X42360279Y-114739036D01*
X42358630Y-114735055D01*
X42358891Y-114733073D01*
X42360739Y-114732307D01*
X42362242Y-114733347D01*
X42370809Y-114749375D01*
X42386105Y-114768012D01*
X42404742Y-114783307D01*
X42426005Y-114794672D01*
X42449080Y-114801672D01*
X42473072Y-114804035D01*
X42497063Y-114801672D01*
X42520138Y-114794672D01*
X42541401Y-114783307D01*
X42560038Y-114768011D01*
X42575333Y-114749374D01*
X42586744Y-114728026D01*
X42587500Y-114726200D01*
X42589087Y-114724983D01*
X42590935Y-114725749D01*
G37*
G36*
X31614288Y-99668225D02*
G01*
X31614438Y-99670046D01*
X31591874Y-99724521D01*
X31555579Y-99906985D01*
X31555579Y-100093015D01*
X31591874Y-100275479D01*
X31614438Y-100329953D01*
X31614177Y-100331936D01*
X31612329Y-100332701D01*
X31610826Y-100331661D01*
X31602262Y-100315638D01*
X31586966Y-100297001D01*
X31568329Y-100281706D01*
X31547066Y-100270341D01*
X31523991Y-100263341D01*
X31500000Y-100260978D01*
X31476008Y-100263341D01*
X31452934Y-100270341D01*
X31431670Y-100281706D01*
X31413033Y-100297002D01*
X31397738Y-100315639D01*
X31389174Y-100331662D01*
X31387475Y-100332718D01*
X31385712Y-100331775D01*
X31385562Y-100329954D01*
X31408126Y-100275479D01*
X31444421Y-100093015D01*
X31444421Y-99906985D01*
X31408126Y-99724521D01*
X31385562Y-99670047D01*
X31385823Y-99668064D01*
X31387671Y-99667299D01*
X31389174Y-99668339D01*
X31397738Y-99684362D01*
X31413034Y-99702999D01*
X31431671Y-99718294D01*
X31452934Y-99729659D01*
X31476009Y-99736659D01*
X31500000Y-99739022D01*
X31523992Y-99736659D01*
X31547066Y-99729659D01*
X31568330Y-99718294D01*
X31586967Y-99702998D01*
X31602262Y-99684361D01*
X31610826Y-99668338D01*
X31612525Y-99667282D01*
X31614288Y-99668225D01*
G37*
G36*
X42590935Y-99725749D02*
G01*
X42591310Y-99727356D01*
X42555579Y-99906985D01*
X42555579Y-100093015D01*
X42591310Y-100272644D01*
X42590667Y-100274538D01*
X42588705Y-100274928D01*
X42587500Y-100273800D01*
X42586744Y-100271974D01*
X42575333Y-100250625D01*
X42560038Y-100231988D01*
X42541401Y-100216693D01*
X42520137Y-100205328D01*
X42497062Y-100198328D01*
X42473071Y-100195965D01*
X42449080Y-100198328D01*
X42426005Y-100205328D01*
X42404741Y-100216693D01*
X42386104Y-100231988D01*
X42370809Y-100250625D01*
X42362242Y-100266653D01*
X42360543Y-100267709D01*
X42358780Y-100266766D01*
X42358630Y-100264945D01*
X42360279Y-100260964D01*
X42394661Y-100088114D01*
X42394661Y-99911886D01*
X42360279Y-99739036D01*
X42358630Y-99735055D01*
X42358891Y-99733073D01*
X42360739Y-99732307D01*
X42362242Y-99733347D01*
X42370809Y-99749375D01*
X42386105Y-99768012D01*
X42404742Y-99783307D01*
X42426005Y-99794672D01*
X42449080Y-99801672D01*
X42473072Y-99804035D01*
X42497063Y-99801672D01*
X42520138Y-99794672D01*
X42541401Y-99783307D01*
X42560038Y-99768011D01*
X42575333Y-99749374D01*
X42586744Y-99728026D01*
X42587500Y-99726200D01*
X42589087Y-99724983D01*
X42590935Y-99725749D01*
G37*
G36*
X31614288Y-84668225D02*
G01*
X31614438Y-84670046D01*
X31591874Y-84724521D01*
X31555579Y-84906985D01*
X31555579Y-85093015D01*
X31591874Y-85275479D01*
X31614438Y-85329953D01*
X31614177Y-85331936D01*
X31612329Y-85332701D01*
X31610826Y-85331661D01*
X31602262Y-85315638D01*
X31586966Y-85297001D01*
X31568329Y-85281706D01*
X31547066Y-85270341D01*
X31523991Y-85263341D01*
X31500000Y-85260978D01*
X31476008Y-85263341D01*
X31452934Y-85270341D01*
X31431670Y-85281706D01*
X31413033Y-85297002D01*
X31397738Y-85315639D01*
X31389174Y-85331662D01*
X31387475Y-85332718D01*
X31385712Y-85331775D01*
X31385562Y-85329954D01*
X31408126Y-85275479D01*
X31444421Y-85093015D01*
X31444421Y-84906985D01*
X31408126Y-84724521D01*
X31385562Y-84670047D01*
X31385823Y-84668064D01*
X31387671Y-84667299D01*
X31389174Y-84668339D01*
X31397738Y-84684362D01*
X31413034Y-84702999D01*
X31431671Y-84718294D01*
X31452934Y-84729659D01*
X31476009Y-84736659D01*
X31500000Y-84739022D01*
X31523992Y-84736659D01*
X31547066Y-84729659D01*
X31568330Y-84718294D01*
X31586967Y-84702998D01*
X31602262Y-84684361D01*
X31610826Y-84668338D01*
X31612525Y-84667282D01*
X31614288Y-84668225D01*
G37*
G36*
X42590935Y-84725749D02*
G01*
X42591310Y-84727356D01*
X42555579Y-84906985D01*
X42555579Y-85093015D01*
X42591310Y-85272644D01*
X42590667Y-85274538D01*
X42588705Y-85274928D01*
X42587500Y-85273800D01*
X42586744Y-85271974D01*
X42575333Y-85250625D01*
X42560038Y-85231988D01*
X42541401Y-85216693D01*
X42520137Y-85205328D01*
X42497062Y-85198328D01*
X42473071Y-85195965D01*
X42449080Y-85198328D01*
X42426005Y-85205328D01*
X42404741Y-85216693D01*
X42386104Y-85231988D01*
X42370809Y-85250625D01*
X42362242Y-85266653D01*
X42360543Y-85267709D01*
X42358780Y-85266766D01*
X42358630Y-85264945D01*
X42360279Y-85260964D01*
X42394661Y-85088114D01*
X42394661Y-84911886D01*
X42360279Y-84739036D01*
X42358630Y-84735055D01*
X42358891Y-84733073D01*
X42360739Y-84732307D01*
X42362242Y-84733347D01*
X42370809Y-84749375D01*
X42386105Y-84768012D01*
X42404742Y-84783307D01*
X42426005Y-84794672D01*
X42449080Y-84801672D01*
X42473072Y-84804035D01*
X42497063Y-84801672D01*
X42520138Y-84794672D01*
X42541401Y-84783307D01*
X42560038Y-84768011D01*
X42575333Y-84749374D01*
X42586744Y-84728026D01*
X42587500Y-84726200D01*
X42589087Y-84724983D01*
X42590935Y-84725749D01*
G37*
G36*
X31614288Y-69668225D02*
G01*
X31614438Y-69670046D01*
X31591874Y-69724521D01*
X31555579Y-69906985D01*
X31555579Y-70093015D01*
X31591874Y-70275479D01*
X31614438Y-70329953D01*
X31614177Y-70331936D01*
X31612329Y-70332701D01*
X31610826Y-70331661D01*
X31602262Y-70315638D01*
X31586966Y-70297001D01*
X31568329Y-70281706D01*
X31547066Y-70270341D01*
X31523991Y-70263341D01*
X31500000Y-70260978D01*
X31476008Y-70263341D01*
X31452934Y-70270341D01*
X31431670Y-70281706D01*
X31413033Y-70297002D01*
X31397738Y-70315639D01*
X31389174Y-70331662D01*
X31387475Y-70332718D01*
X31385712Y-70331775D01*
X31385562Y-70329954D01*
X31408126Y-70275479D01*
X31444421Y-70093015D01*
X31444421Y-69906985D01*
X31408126Y-69724521D01*
X31385562Y-69670047D01*
X31385823Y-69668064D01*
X31387671Y-69667299D01*
X31389174Y-69668339D01*
X31397738Y-69684362D01*
X31413034Y-69702999D01*
X31431671Y-69718294D01*
X31452934Y-69729659D01*
X31476009Y-69736659D01*
X31500000Y-69739022D01*
X31523992Y-69736659D01*
X31547066Y-69729659D01*
X31568330Y-69718294D01*
X31586967Y-69702998D01*
X31602262Y-69684361D01*
X31610826Y-69668338D01*
X31612525Y-69667282D01*
X31614288Y-69668225D01*
G37*
G36*
X42590935Y-69725749D02*
G01*
X42591310Y-69727356D01*
X42555579Y-69906985D01*
X42555579Y-70093015D01*
X42591310Y-70272644D01*
X42590667Y-70274538D01*
X42588705Y-70274928D01*
X42587500Y-70273800D01*
X42586744Y-70271974D01*
X42575333Y-70250625D01*
X42560038Y-70231988D01*
X42541401Y-70216693D01*
X42520137Y-70205328D01*
X42497062Y-70198328D01*
X42473071Y-70195965D01*
X42449080Y-70198328D01*
X42426005Y-70205328D01*
X42404741Y-70216693D01*
X42386104Y-70231988D01*
X42370809Y-70250625D01*
X42362242Y-70266653D01*
X42360543Y-70267709D01*
X42358780Y-70266766D01*
X42358630Y-70264945D01*
X42360279Y-70260964D01*
X42394661Y-70088114D01*
X42394661Y-69911886D01*
X42360279Y-69739036D01*
X42358630Y-69735055D01*
X42358891Y-69733073D01*
X42360739Y-69732307D01*
X42362242Y-69733347D01*
X42370809Y-69749375D01*
X42386105Y-69768012D01*
X42404742Y-69783307D01*
X42426005Y-69794672D01*
X42449080Y-69801672D01*
X42473072Y-69804035D01*
X42497063Y-69801672D01*
X42520138Y-69794672D01*
X42541401Y-69783307D01*
X42560038Y-69768011D01*
X42575333Y-69749374D01*
X42586744Y-69728026D01*
X42587500Y-69726200D01*
X42589087Y-69724983D01*
X42590935Y-69725749D01*
G37*
G36*
X31614288Y-54668225D02*
G01*
X31614438Y-54670046D01*
X31591874Y-54724521D01*
X31555579Y-54906985D01*
X31555579Y-55093015D01*
X31591874Y-55275479D01*
X31614438Y-55329953D01*
X31614177Y-55331936D01*
X31612329Y-55332701D01*
X31610826Y-55331661D01*
X31602262Y-55315638D01*
X31586966Y-55297001D01*
X31568329Y-55281706D01*
X31547066Y-55270341D01*
X31523991Y-55263341D01*
X31500000Y-55260978D01*
X31476008Y-55263341D01*
X31452934Y-55270341D01*
X31431670Y-55281706D01*
X31413033Y-55297002D01*
X31397738Y-55315639D01*
X31389174Y-55331662D01*
X31387475Y-55332718D01*
X31385712Y-55331775D01*
X31385562Y-55329954D01*
X31408126Y-55275479D01*
X31444421Y-55093015D01*
X31444421Y-54906985D01*
X31408126Y-54724521D01*
X31385562Y-54670047D01*
X31385823Y-54668064D01*
X31387671Y-54667299D01*
X31389174Y-54668339D01*
X31397738Y-54684362D01*
X31413034Y-54702999D01*
X31431671Y-54718294D01*
X31452934Y-54729659D01*
X31476009Y-54736659D01*
X31500000Y-54739022D01*
X31523992Y-54736659D01*
X31547066Y-54729659D01*
X31568330Y-54718294D01*
X31586967Y-54702998D01*
X31602262Y-54684361D01*
X31610826Y-54668338D01*
X31612525Y-54667282D01*
X31614288Y-54668225D01*
G37*
G36*
X42590935Y-54725749D02*
G01*
X42591310Y-54727356D01*
X42555579Y-54906985D01*
X42555579Y-55093015D01*
X42591310Y-55272644D01*
X42590667Y-55274538D01*
X42588705Y-55274928D01*
X42587500Y-55273800D01*
X42586744Y-55271974D01*
X42575333Y-55250625D01*
X42560038Y-55231988D01*
X42541401Y-55216693D01*
X42520137Y-55205328D01*
X42497062Y-55198328D01*
X42473071Y-55195965D01*
X42449080Y-55198328D01*
X42426005Y-55205328D01*
X42404741Y-55216693D01*
X42386104Y-55231988D01*
X42370809Y-55250625D01*
X42362242Y-55266653D01*
X42360543Y-55267709D01*
X42358780Y-55266766D01*
X42358630Y-55264945D01*
X42360279Y-55260964D01*
X42394661Y-55088114D01*
X42394661Y-54911886D01*
X42360279Y-54739036D01*
X42358630Y-54735055D01*
X42358891Y-54733073D01*
X42360739Y-54732307D01*
X42362242Y-54733347D01*
X42370809Y-54749375D01*
X42386105Y-54768012D01*
X42404742Y-54783307D01*
X42426005Y-54794672D01*
X42449080Y-54801672D01*
X42473072Y-54804035D01*
X42497063Y-54801672D01*
X42520138Y-54794672D01*
X42541401Y-54783307D01*
X42560038Y-54768011D01*
X42575333Y-54749374D01*
X42586744Y-54728026D01*
X42587500Y-54726200D01*
X42589087Y-54724983D01*
X42590935Y-54725749D01*
G37*
M02*
