M48
; DRILL file {KiCad (5.1.9-0-10_14)} date Tuesday, May 25, 2021 at 02:15:30 PM
; FORMAT={-:-/ absolute / metric / decimal}
; #@! TF.CreationDate,2021-05-25T14:15:30+02:00
; #@! TF.GenerationSoftware,Kicad,Pcbnew,(5.1.9-0-10_14)
; #@! TF.FileFunction,Plated,1,2,PTH
FMAT,2
METRIC
T1C0.300
T2C0.400
T3C0.600
T4C0.650
T5C0.700
T6C1.000
T7C1.200
%
G90
G05
T1
X28.0Y-55.0
X28.0Y-70.0
X28.0Y-85.0
X28.0Y-100.0
X28.0Y-115.0
X28.0Y-145.0
X30.0Y-126.5
X34.5Y-58.5
X34.5Y-73.5
X34.5Y-88.5
X34.5Y-103.5
X34.5Y-118.5
X36.174Y-128.329
X36.727Y-127.751
X37.316Y-127.209
X37.845Y-126.609
X38.5Y-126.15
X45.75Y-132.75
X47.0Y-142.0
X47.0Y-143.5
X47.0Y-145.0
X50.0Y-148.5
X50.25Y-146.25
X50.5Y-149.5
X51.0Y-122.5
X51.0Y-152.25
X53.0Y-142.5
X54.0Y-146.85
X54.845Y-149.609
X55.0Y-141.6
X55.0Y-142.5
X55.0Y-143.4
X55.0Y-147.0
X55.0Y-153.0
X55.0Y-154.0
X55.5Y-145.65
X55.5Y-149.15
X56.0Y-138.75
X56.0Y-141.6
X56.0Y-142.5
X56.0Y-143.4
X56.25Y-146.25
X56.5Y-120.25
X56.5Y-121.25
X56.5Y-132.75
X56.5Y-134.0
X57.5Y-157.25
X57.75Y-145.5
X59.0Y-122.5
X59.0Y-142.5
X59.29Y-146.29
X63.5Y-133.5
X65.75Y-150.75
X66.0Y-135.75
X66.0Y-149.15
X66.316Y-150.184
X66.5Y-117.5
X67.25Y-140.0
X68.316Y-150.009
X68.5Y-128.5
X68.5Y-145.35
X69.25Y-130.25
X69.571Y-150.552
X71.0Y-145.0
X71.15Y-141.5
X72.0Y-131.5
X76.0Y-146.0
X77.0Y-140.25
X78.5Y-143.75
X78.5Y-148.5
X80.0Y-128.0
X81.75Y-137.25
X82.5Y-144.075
X83.0Y-115.0
X83.0Y-142.0
X83.0Y-149.15
X83.5Y-145.0
X84.2Y-149.15
X84.5Y-139.5
X85.0Y-149.0
X85.15Y-145.0
X85.5Y-121.0
X85.5Y-133.5
X86.0Y-145.0
X86.0Y-148.15
X86.5Y-143.0
X87.5Y-150.0
X88.0Y-132.0
X88.0Y-133.5
X89.0Y-148.0
X89.97Y-147.022
X90.0Y-126.0
X90.5Y-113.575
X90.5Y-123.0
X91.0Y-157.5
X91.35Y-124.0
X93.0Y-117.5
X93.0Y-123.0
X93.0Y-130.0
X93.0Y-132.0
X93.5Y-140.0
X95.0Y-155.0
X95.5Y-123.0
X95.5Y-149.0
X96.5Y-143.0
X98.0Y-132.0
X98.5Y-125.0
X99.0Y-132.0
X99.2Y-134.1
X99.222Y-127.0
X99.5Y-123.0
X100.5Y-138.0
X101.1Y-131.8
X101.5Y-138.0
X103.5Y-128.0
X104.5Y-125.0
T2
X63.6Y-153.8
X64.4Y-153.8
X64.8Y-152.9
X65.2Y-153.8
X65.6Y-152.9
X66.4Y-152.9
X66.8Y-153.8
X67.2Y-152.9
X67.6Y-153.8
X68.4Y-153.8
T5
X61.0Y-115.5
X63.54Y-115.5
T6
X43.0Y-156.0
X61.0Y-144.0
X79.0Y-137.5
X85.0Y-137.0
X102.5Y-141.5
T7
X30.5Y-55.0
X30.5Y-70.0
X30.5Y-85.0
X30.5Y-100.0
X30.5Y-115.0
X30.5Y-130.0
X30.5Y-145.0
X34.5Y-48.75
X34.5Y-61.25
X34.5Y-63.75
X34.5Y-76.25
X34.5Y-78.75
X34.5Y-91.25
X34.5Y-93.75
X34.5Y-106.25
X34.5Y-108.75
X34.5Y-121.25
X34.5Y-123.75
X34.5Y-136.25
X34.5Y-138.75
X34.5Y-151.25
X39.5Y-48.75
X39.5Y-61.25
X39.5Y-63.75
X39.5Y-76.25
X39.5Y-78.75
X39.5Y-91.25
X39.5Y-93.75
X39.5Y-106.25
X39.5Y-108.75
X39.5Y-121.25
X39.5Y-123.75
X39.5Y-136.25
X39.5Y-138.75
X39.5Y-151.25
X43.5Y-55.0
X43.5Y-70.0
X43.5Y-85.0
X43.5Y-100.0
X43.5Y-115.0
X43.5Y-130.0
X43.5Y-145.0
T3
G00X76.9Y-153.05
M15
G01X76.9Y-151.15
M16
G05
G00X85.1Y-153.05
M15
G01X85.1Y-151.15
M16
G05
T4
G00X59.925Y-157.325
M15
G01X59.925Y-158.175
M16
G05
G00X61.5Y-151.925
M15
G01X61.5Y-152.375
M16
G05
G00X63.025Y-152.9
M15
G01X63.455Y-152.9
M16
G05
G00X68.545Y-152.9
M15
G01X68.975Y-152.9
M16
G05
G00X70.5Y-151.925
M15
G01X70.5Y-152.375
M16
G05
G00X72.075Y-157.325
M15
G01X72.075Y-158.175
M16
G05
T0
M30
