G04 #@! TF.GenerationSoftware,KiCad,Pcbnew,(5.1.9-0-10_14)*
G04 #@! TF.CreationDate,2021-05-25T14:16:09+02:00*
G04 #@! TF.ProjectId,foodSampler_v21,666f6f64-5361-46d7-906c-65725f763231,rev?*
G04 #@! TF.SameCoordinates,Original*
G04 #@! TF.FileFunction,Soldermask,Top*
G04 #@! TF.FilePolarity,Negative*
%FSLAX46Y46*%
G04 Gerber Fmt 4.6, Leading zero omitted, Abs format (unit mm)*
G04 Created by KiCad (PCBNEW (5.1.9-0-10_14)) date 2021-05-25 14:16:09*
%MOMM*%
%LPD*%
G01*
G04 APERTURE LIST*
%ADD10C,1.802000*%
%ADD11C,1.902000*%
%ADD12O,1.302000X2.102000*%
%ADD13O,1.302000X1.702000*%
%ADD14O,1.402000X1.002000*%
%ADD15C,0.752000*%
%ADD16C,3.302000*%
%ADD17C,1.502000*%
%ADD18O,1.502000X1.502000*%
%ADD19O,0.300000X0.950000*%
%ADD20O,1.102000X3.002000*%
%ADD21O,1.002000X0.502000*%
%ADD22C,0.100000*%
G04 APERTURE END LIST*
G36*
G01*
X27718250Y-109299000D02*
X28281750Y-109299000D01*
G75*
G02*
X28526000Y-109543250I0J-244250D01*
G01*
X28526000Y-110031750D01*
G75*
G02*
X28281750Y-110276000I-244250J0D01*
G01*
X27718250Y-110276000D01*
G75*
G02*
X27474000Y-110031750I0J244250D01*
G01*
X27474000Y-109543250D01*
G75*
G02*
X27718250Y-109299000I244250J0D01*
G01*
G37*
G36*
G01*
X27718250Y-107724000D02*
X28281750Y-107724000D01*
G75*
G02*
X28526000Y-107968250I0J-244250D01*
G01*
X28526000Y-108456750D01*
G75*
G02*
X28281750Y-108701000I-244250J0D01*
G01*
X27718250Y-108701000D01*
G75*
G02*
X27474000Y-108456750I0J244250D01*
G01*
X27474000Y-107968250D01*
G75*
G02*
X27718250Y-107724000I244250J0D01*
G01*
G37*
D10*
X41500000Y-145000000D03*
D11*
X32500000Y-145000000D03*
X30500000Y-145000000D03*
X43500000Y-145000000D03*
X34500000Y-151250000D03*
X34500000Y-138750000D03*
X39500000Y-151250000D03*
X39500000Y-138750000D03*
D10*
X41500000Y-70000000D03*
D11*
X32500000Y-70000000D03*
X30500000Y-70000000D03*
X43500000Y-70000000D03*
X34500000Y-76250000D03*
X34500000Y-63750000D03*
X39500000Y-76250000D03*
X39500000Y-63750000D03*
D12*
X59925000Y-157750000D03*
X72075000Y-157750000D03*
D13*
X70500000Y-152150000D03*
X61500000Y-152150000D03*
D14*
X63240000Y-152900000D03*
X68760000Y-152900000D03*
D15*
X64400000Y-153800000D03*
X65200000Y-153800000D03*
X66800000Y-153800000D03*
X64800000Y-152900000D03*
X65600000Y-152900000D03*
X66400000Y-152900000D03*
X67200000Y-152900000D03*
X67600000Y-153800000D03*
X63600000Y-153800000D03*
X68400000Y-153800000D03*
G36*
G01*
X63425000Y-152126000D02*
X63075000Y-152126000D01*
G75*
G02*
X63024000Y-152075000I0J51000D01*
G01*
X63024000Y-151325000D01*
G75*
G02*
X63075000Y-151274000I51000J0D01*
G01*
X63425000Y-151274000D01*
G75*
G02*
X63476000Y-151325000I0J-51000D01*
G01*
X63476000Y-152075000D01*
G75*
G02*
X63425000Y-152126000I-51000J0D01*
G01*
G37*
G36*
G01*
X63925000Y-152126000D02*
X63575000Y-152126000D01*
G75*
G02*
X63524000Y-152075000I0J51000D01*
G01*
X63524000Y-151325000D01*
G75*
G02*
X63575000Y-151274000I51000J0D01*
G01*
X63925000Y-151274000D01*
G75*
G02*
X63976000Y-151325000I0J-51000D01*
G01*
X63976000Y-152075000D01*
G75*
G02*
X63925000Y-152126000I-51000J0D01*
G01*
G37*
G36*
G01*
X64425000Y-152126000D02*
X64075000Y-152126000D01*
G75*
G02*
X64024000Y-152075000I0J51000D01*
G01*
X64024000Y-151325000D01*
G75*
G02*
X64075000Y-151274000I51000J0D01*
G01*
X64425000Y-151274000D01*
G75*
G02*
X64476000Y-151325000I0J-51000D01*
G01*
X64476000Y-152075000D01*
G75*
G02*
X64425000Y-152126000I-51000J0D01*
G01*
G37*
G36*
G01*
X64925000Y-152126000D02*
X64575000Y-152126000D01*
G75*
G02*
X64524000Y-152075000I0J51000D01*
G01*
X64524000Y-151325000D01*
G75*
G02*
X64575000Y-151274000I51000J0D01*
G01*
X64925000Y-151274000D01*
G75*
G02*
X64976000Y-151325000I0J-51000D01*
G01*
X64976000Y-152075000D01*
G75*
G02*
X64925000Y-152126000I-51000J0D01*
G01*
G37*
G36*
G01*
X65425000Y-152126000D02*
X65075000Y-152126000D01*
G75*
G02*
X65024000Y-152075000I0J51000D01*
G01*
X65024000Y-151325000D01*
G75*
G02*
X65075000Y-151274000I51000J0D01*
G01*
X65425000Y-151274000D01*
G75*
G02*
X65476000Y-151325000I0J-51000D01*
G01*
X65476000Y-152075000D01*
G75*
G02*
X65425000Y-152126000I-51000J0D01*
G01*
G37*
G36*
G01*
X66425000Y-152126000D02*
X66075000Y-152126000D01*
G75*
G02*
X66024000Y-152075000I0J51000D01*
G01*
X66024000Y-151325000D01*
G75*
G02*
X66075000Y-151274000I51000J0D01*
G01*
X66425000Y-151274000D01*
G75*
G02*
X66476000Y-151325000I0J-51000D01*
G01*
X66476000Y-152075000D01*
G75*
G02*
X66425000Y-152126000I-51000J0D01*
G01*
G37*
G36*
G01*
X66925000Y-152126000D02*
X66575000Y-152126000D01*
G75*
G02*
X66524000Y-152075000I0J51000D01*
G01*
X66524000Y-151325000D01*
G75*
G02*
X66575000Y-151274000I51000J0D01*
G01*
X66925000Y-151274000D01*
G75*
G02*
X66976000Y-151325000I0J-51000D01*
G01*
X66976000Y-152075000D01*
G75*
G02*
X66925000Y-152126000I-51000J0D01*
G01*
G37*
G36*
G01*
X67425000Y-152126000D02*
X67075000Y-152126000D01*
G75*
G02*
X67024000Y-152075000I0J51000D01*
G01*
X67024000Y-151325000D01*
G75*
G02*
X67075000Y-151274000I51000J0D01*
G01*
X67425000Y-151274000D01*
G75*
G02*
X67476000Y-151325000I0J-51000D01*
G01*
X67476000Y-152075000D01*
G75*
G02*
X67425000Y-152126000I-51000J0D01*
G01*
G37*
G36*
G01*
X67925000Y-152126000D02*
X67575000Y-152126000D01*
G75*
G02*
X67524000Y-152075000I0J51000D01*
G01*
X67524000Y-151325000D01*
G75*
G02*
X67575000Y-151274000I51000J0D01*
G01*
X67925000Y-151274000D01*
G75*
G02*
X67976000Y-151325000I0J-51000D01*
G01*
X67976000Y-152075000D01*
G75*
G02*
X67925000Y-152126000I-51000J0D01*
G01*
G37*
G36*
G01*
X68425000Y-152126000D02*
X68075000Y-152126000D01*
G75*
G02*
X68024000Y-152075000I0J51000D01*
G01*
X68024000Y-151325000D01*
G75*
G02*
X68075000Y-151274000I51000J0D01*
G01*
X68425000Y-151274000D01*
G75*
G02*
X68476000Y-151325000I0J-51000D01*
G01*
X68476000Y-152075000D01*
G75*
G02*
X68425000Y-152126000I-51000J0D01*
G01*
G37*
G36*
G01*
X68925000Y-152126000D02*
X68575000Y-152126000D01*
G75*
G02*
X68524000Y-152075000I0J51000D01*
G01*
X68524000Y-151325000D01*
G75*
G02*
X68575000Y-151274000I51000J0D01*
G01*
X68925000Y-151274000D01*
G75*
G02*
X68976000Y-151325000I0J-51000D01*
G01*
X68976000Y-152075000D01*
G75*
G02*
X68925000Y-152126000I-51000J0D01*
G01*
G37*
G36*
G01*
X65925000Y-152126000D02*
X65575000Y-152126000D01*
G75*
G02*
X65524000Y-152075000I0J51000D01*
G01*
X65524000Y-151325000D01*
G75*
G02*
X65575000Y-151274000I51000J0D01*
G01*
X65925000Y-151274000D01*
G75*
G02*
X65976000Y-151325000I0J-51000D01*
G01*
X65976000Y-152075000D01*
G75*
G02*
X65925000Y-152126000I-51000J0D01*
G01*
G37*
G36*
G01*
X96899000Y-116500000D02*
X96899000Y-114500000D01*
G75*
G02*
X96950000Y-114449000I51000J0D01*
G01*
X98450000Y-114449000D01*
G75*
G02*
X98501000Y-114500000I0J-51000D01*
G01*
X98501000Y-116500000D01*
G75*
G02*
X98450000Y-116551000I-51000J0D01*
G01*
X96950000Y-116551000D01*
G75*
G02*
X96899000Y-116500000I0J51000D01*
G01*
G37*
G36*
G01*
X92499000Y-116500000D02*
X92499000Y-114500000D01*
G75*
G02*
X92550000Y-114449000I51000J0D01*
G01*
X94050000Y-114449000D01*
G75*
G02*
X94101000Y-114500000I0J-51000D01*
G01*
X94101000Y-116500000D01*
G75*
G02*
X94050000Y-116551000I-51000J0D01*
G01*
X92550000Y-116551000D01*
G75*
G02*
X92499000Y-116500000I0J51000D01*
G01*
G37*
G36*
G01*
X103399000Y-116500000D02*
X103399000Y-114500000D01*
G75*
G02*
X103450000Y-114449000I51000J0D01*
G01*
X104950000Y-114449000D01*
G75*
G02*
X105001000Y-114500000I0J-51000D01*
G01*
X105001000Y-116500000D01*
G75*
G02*
X104950000Y-116551000I-51000J0D01*
G01*
X103450000Y-116551000D01*
G75*
G02*
X103399000Y-116500000I0J51000D01*
G01*
G37*
G36*
G01*
X98999000Y-116500000D02*
X98999000Y-114500000D01*
G75*
G02*
X99050000Y-114449000I51000J0D01*
G01*
X100550000Y-114449000D01*
G75*
G02*
X100601000Y-114500000I0J-51000D01*
G01*
X100601000Y-116500000D01*
G75*
G02*
X100550000Y-116551000I-51000J0D01*
G01*
X99050000Y-116551000D01*
G75*
G02*
X98999000Y-116500000I0J51000D01*
G01*
G37*
G36*
G01*
X98049000Y-147050500D02*
X98049000Y-146499500D01*
G75*
G02*
X98299500Y-146249000I250500J0D01*
G01*
X98800500Y-146249000D01*
G75*
G02*
X99051000Y-146499500I0J-250500D01*
G01*
X99051000Y-147050500D01*
G75*
G02*
X98800500Y-147301000I-250500J0D01*
G01*
X98299500Y-147301000D01*
G75*
G02*
X98049000Y-147050500I0J250500D01*
G01*
G37*
G36*
G01*
X96499000Y-147050500D02*
X96499000Y-146499500D01*
G75*
G02*
X96749500Y-146249000I250500J0D01*
G01*
X97250500Y-146249000D01*
G75*
G02*
X97501000Y-146499500I0J-250500D01*
G01*
X97501000Y-147050500D01*
G75*
G02*
X97250500Y-147301000I-250500J0D01*
G01*
X96749500Y-147301000D01*
G75*
G02*
X96499000Y-147050500I0J250500D01*
G01*
G37*
G36*
G01*
X50726000Y-137224500D02*
X50726000Y-137775500D01*
G75*
G02*
X50475500Y-138026000I-250500J0D01*
G01*
X49974500Y-138026000D01*
G75*
G02*
X49724000Y-137775500I0J250500D01*
G01*
X49724000Y-137224500D01*
G75*
G02*
X49974500Y-136974000I250500J0D01*
G01*
X50475500Y-136974000D01*
G75*
G02*
X50726000Y-137224500I0J-250500D01*
G01*
G37*
G36*
G01*
X52276000Y-137224500D02*
X52276000Y-137775500D01*
G75*
G02*
X52025500Y-138026000I-250500J0D01*
G01*
X51524500Y-138026000D01*
G75*
G02*
X51274000Y-137775500I0J250500D01*
G01*
X51274000Y-137224500D01*
G75*
G02*
X51524500Y-136974000I250500J0D01*
G01*
X52025500Y-136974000D01*
G75*
G02*
X52276000Y-137224500I0J-250500D01*
G01*
G37*
G36*
G01*
X51274000Y-144525500D02*
X51274000Y-143974500D01*
G75*
G02*
X51524500Y-143724000I250500J0D01*
G01*
X52025500Y-143724000D01*
G75*
G02*
X52276000Y-143974500I0J-250500D01*
G01*
X52276000Y-144525500D01*
G75*
G02*
X52025500Y-144776000I-250500J0D01*
G01*
X51524500Y-144776000D01*
G75*
G02*
X51274000Y-144525500I0J250500D01*
G01*
G37*
G36*
G01*
X49724000Y-144525500D02*
X49724000Y-143974500D01*
G75*
G02*
X49974500Y-143724000I250500J0D01*
G01*
X50475500Y-143724000D01*
G75*
G02*
X50726000Y-143974500I0J-250500D01*
G01*
X50726000Y-144525500D01*
G75*
G02*
X50475500Y-144776000I-250500J0D01*
G01*
X49974500Y-144776000D01*
G75*
G02*
X49724000Y-144525500I0J250500D01*
G01*
G37*
G36*
G01*
X75949000Y-123745000D02*
X75949000Y-118745000D01*
G75*
G02*
X76000000Y-118694000I51000J0D01*
G01*
X81000000Y-118694000D01*
G75*
G02*
X81051000Y-118745000I0J-51000D01*
G01*
X81051000Y-123745000D01*
G75*
G02*
X81000000Y-123796000I-51000J0D01*
G01*
X76000000Y-123796000D01*
G75*
G02*
X75949000Y-123745000I0J51000D01*
G01*
G37*
G36*
G01*
X69949000Y-114195000D02*
X69949000Y-113295000D01*
G75*
G02*
X70000000Y-113244000I51000J0D01*
G01*
X72000000Y-113244000D01*
G75*
G02*
X72051000Y-113295000I0J-51000D01*
G01*
X72051000Y-114195000D01*
G75*
G02*
X72000000Y-114246000I-51000J0D01*
G01*
X70000000Y-114246000D01*
G75*
G02*
X69949000Y-114195000I0J51000D01*
G01*
G37*
G36*
G01*
X69949000Y-115465000D02*
X69949000Y-114565000D01*
G75*
G02*
X70000000Y-114514000I51000J0D01*
G01*
X72000000Y-114514000D01*
G75*
G02*
X72051000Y-114565000I0J-51000D01*
G01*
X72051000Y-115465000D01*
G75*
G02*
X72000000Y-115516000I-51000J0D01*
G01*
X70000000Y-115516000D01*
G75*
G02*
X69949000Y-115465000I0J51000D01*
G01*
G37*
G36*
G01*
X69949000Y-116735000D02*
X69949000Y-115835000D01*
G75*
G02*
X70000000Y-115784000I51000J0D01*
G01*
X72000000Y-115784000D01*
G75*
G02*
X72051000Y-115835000I0J-51000D01*
G01*
X72051000Y-116735000D01*
G75*
G02*
X72000000Y-116786000I-51000J0D01*
G01*
X70000000Y-116786000D01*
G75*
G02*
X69949000Y-116735000I0J51000D01*
G01*
G37*
G36*
G01*
X69949000Y-118005000D02*
X69949000Y-117105000D01*
G75*
G02*
X70000000Y-117054000I51000J0D01*
G01*
X72000000Y-117054000D01*
G75*
G02*
X72051000Y-117105000I0J-51000D01*
G01*
X72051000Y-118005000D01*
G75*
G02*
X72000000Y-118056000I-51000J0D01*
G01*
X70000000Y-118056000D01*
G75*
G02*
X69949000Y-118005000I0J51000D01*
G01*
G37*
G36*
G01*
X69949000Y-119275000D02*
X69949000Y-118375000D01*
G75*
G02*
X70000000Y-118324000I51000J0D01*
G01*
X72000000Y-118324000D01*
G75*
G02*
X72051000Y-118375000I0J-51000D01*
G01*
X72051000Y-119275000D01*
G75*
G02*
X72000000Y-119326000I-51000J0D01*
G01*
X70000000Y-119326000D01*
G75*
G02*
X69949000Y-119275000I0J51000D01*
G01*
G37*
G36*
G01*
X69949000Y-120545000D02*
X69949000Y-119645000D01*
G75*
G02*
X70000000Y-119594000I51000J0D01*
G01*
X72000000Y-119594000D01*
G75*
G02*
X72051000Y-119645000I0J-51000D01*
G01*
X72051000Y-120545000D01*
G75*
G02*
X72000000Y-120596000I-51000J0D01*
G01*
X70000000Y-120596000D01*
G75*
G02*
X69949000Y-120545000I0J51000D01*
G01*
G37*
G36*
G01*
X69949000Y-121815000D02*
X69949000Y-120915000D01*
G75*
G02*
X70000000Y-120864000I51000J0D01*
G01*
X72000000Y-120864000D01*
G75*
G02*
X72051000Y-120915000I0J-51000D01*
G01*
X72051000Y-121815000D01*
G75*
G02*
X72000000Y-121866000I-51000J0D01*
G01*
X70000000Y-121866000D01*
G75*
G02*
X69949000Y-121815000I0J51000D01*
G01*
G37*
G36*
G01*
X69949000Y-123085000D02*
X69949000Y-122185000D01*
G75*
G02*
X70000000Y-122134000I51000J0D01*
G01*
X72000000Y-122134000D01*
G75*
G02*
X72051000Y-122185000I0J-51000D01*
G01*
X72051000Y-123085000D01*
G75*
G02*
X72000000Y-123136000I-51000J0D01*
G01*
X70000000Y-123136000D01*
G75*
G02*
X69949000Y-123085000I0J51000D01*
G01*
G37*
G36*
G01*
X69949000Y-124355000D02*
X69949000Y-123455000D01*
G75*
G02*
X70000000Y-123404000I51000J0D01*
G01*
X72000000Y-123404000D01*
G75*
G02*
X72051000Y-123455000I0J-51000D01*
G01*
X72051000Y-124355000D01*
G75*
G02*
X72000000Y-124406000I-51000J0D01*
G01*
X70000000Y-124406000D01*
G75*
G02*
X69949000Y-124355000I0J51000D01*
G01*
G37*
G36*
G01*
X69949000Y-125625000D02*
X69949000Y-124725000D01*
G75*
G02*
X70000000Y-124674000I51000J0D01*
G01*
X72000000Y-124674000D01*
G75*
G02*
X72051000Y-124725000I0J-51000D01*
G01*
X72051000Y-125625000D01*
G75*
G02*
X72000000Y-125676000I-51000J0D01*
G01*
X70000000Y-125676000D01*
G75*
G02*
X69949000Y-125625000I0J51000D01*
G01*
G37*
G36*
G01*
X69949000Y-126895000D02*
X69949000Y-125995000D01*
G75*
G02*
X70000000Y-125944000I51000J0D01*
G01*
X72000000Y-125944000D01*
G75*
G02*
X72051000Y-125995000I0J-51000D01*
G01*
X72051000Y-126895000D01*
G75*
G02*
X72000000Y-126946000I-51000J0D01*
G01*
X70000000Y-126946000D01*
G75*
G02*
X69949000Y-126895000I0J51000D01*
G01*
G37*
G36*
G01*
X69949000Y-128165000D02*
X69949000Y-127265000D01*
G75*
G02*
X70000000Y-127214000I51000J0D01*
G01*
X72000000Y-127214000D01*
G75*
G02*
X72051000Y-127265000I0J-51000D01*
G01*
X72051000Y-128165000D01*
G75*
G02*
X72000000Y-128216000I-51000J0D01*
G01*
X70000000Y-128216000D01*
G75*
G02*
X69949000Y-128165000I0J51000D01*
G01*
G37*
G36*
G01*
X69949000Y-129435000D02*
X69949000Y-128535000D01*
G75*
G02*
X70000000Y-128484000I51000J0D01*
G01*
X72000000Y-128484000D01*
G75*
G02*
X72051000Y-128535000I0J-51000D01*
G01*
X72051000Y-129435000D01*
G75*
G02*
X72000000Y-129486000I-51000J0D01*
G01*
X70000000Y-129486000D01*
G75*
G02*
X69949000Y-129435000I0J51000D01*
G01*
G37*
G36*
G01*
X69949000Y-130705000D02*
X69949000Y-129805000D01*
G75*
G02*
X70000000Y-129754000I51000J0D01*
G01*
X72000000Y-129754000D01*
G75*
G02*
X72051000Y-129805000I0J-51000D01*
G01*
X72051000Y-130705000D01*
G75*
G02*
X72000000Y-130756000I-51000J0D01*
G01*
X70000000Y-130756000D01*
G75*
G02*
X69949000Y-130705000I0J51000D01*
G01*
G37*
G36*
G01*
X74235000Y-132306000D02*
X73335000Y-132306000D01*
G75*
G02*
X73284000Y-132255000I0J51000D01*
G01*
X73284000Y-130255000D01*
G75*
G02*
X73335000Y-130204000I51000J0D01*
G01*
X74235000Y-130204000D01*
G75*
G02*
X74286000Y-130255000I0J-51000D01*
G01*
X74286000Y-132255000D01*
G75*
G02*
X74235000Y-132306000I-51000J0D01*
G01*
G37*
G36*
G01*
X75505000Y-132306000D02*
X74605000Y-132306000D01*
G75*
G02*
X74554000Y-132255000I0J51000D01*
G01*
X74554000Y-130255000D01*
G75*
G02*
X74605000Y-130204000I51000J0D01*
G01*
X75505000Y-130204000D01*
G75*
G02*
X75556000Y-130255000I0J-51000D01*
G01*
X75556000Y-132255000D01*
G75*
G02*
X75505000Y-132306000I-51000J0D01*
G01*
G37*
G36*
G01*
X76775000Y-132306000D02*
X75875000Y-132306000D01*
G75*
G02*
X75824000Y-132255000I0J51000D01*
G01*
X75824000Y-130255000D01*
G75*
G02*
X75875000Y-130204000I51000J0D01*
G01*
X76775000Y-130204000D01*
G75*
G02*
X76826000Y-130255000I0J-51000D01*
G01*
X76826000Y-132255000D01*
G75*
G02*
X76775000Y-132306000I-51000J0D01*
G01*
G37*
G36*
G01*
X78045000Y-132306000D02*
X77145000Y-132306000D01*
G75*
G02*
X77094000Y-132255000I0J51000D01*
G01*
X77094000Y-130255000D01*
G75*
G02*
X77145000Y-130204000I51000J0D01*
G01*
X78045000Y-130204000D01*
G75*
G02*
X78096000Y-130255000I0J-51000D01*
G01*
X78096000Y-132255000D01*
G75*
G02*
X78045000Y-132306000I-51000J0D01*
G01*
G37*
G36*
G01*
X79315000Y-132306000D02*
X78415000Y-132306000D01*
G75*
G02*
X78364000Y-132255000I0J51000D01*
G01*
X78364000Y-130255000D01*
G75*
G02*
X78415000Y-130204000I51000J0D01*
G01*
X79315000Y-130204000D01*
G75*
G02*
X79366000Y-130255000I0J-51000D01*
G01*
X79366000Y-132255000D01*
G75*
G02*
X79315000Y-132306000I-51000J0D01*
G01*
G37*
G36*
G01*
X80585000Y-132306000D02*
X79685000Y-132306000D01*
G75*
G02*
X79634000Y-132255000I0J51000D01*
G01*
X79634000Y-130255000D01*
G75*
G02*
X79685000Y-130204000I51000J0D01*
G01*
X80585000Y-130204000D01*
G75*
G02*
X80636000Y-130255000I0J-51000D01*
G01*
X80636000Y-132255000D01*
G75*
G02*
X80585000Y-132306000I-51000J0D01*
G01*
G37*
G36*
G01*
X81855000Y-132306000D02*
X80955000Y-132306000D01*
G75*
G02*
X80904000Y-132255000I0J51000D01*
G01*
X80904000Y-130255000D01*
G75*
G02*
X80955000Y-130204000I51000J0D01*
G01*
X81855000Y-130204000D01*
G75*
G02*
X81906000Y-130255000I0J-51000D01*
G01*
X81906000Y-132255000D01*
G75*
G02*
X81855000Y-132306000I-51000J0D01*
G01*
G37*
G36*
G01*
X83125000Y-132306000D02*
X82225000Y-132306000D01*
G75*
G02*
X82174000Y-132255000I0J51000D01*
G01*
X82174000Y-130255000D01*
G75*
G02*
X82225000Y-130204000I51000J0D01*
G01*
X83125000Y-130204000D01*
G75*
G02*
X83176000Y-130255000I0J-51000D01*
G01*
X83176000Y-132255000D01*
G75*
G02*
X83125000Y-132306000I-51000J0D01*
G01*
G37*
G36*
G01*
X84395000Y-132306000D02*
X83495000Y-132306000D01*
G75*
G02*
X83444000Y-132255000I0J51000D01*
G01*
X83444000Y-130255000D01*
G75*
G02*
X83495000Y-130204000I51000J0D01*
G01*
X84395000Y-130204000D01*
G75*
G02*
X84446000Y-130255000I0J-51000D01*
G01*
X84446000Y-132255000D01*
G75*
G02*
X84395000Y-132306000I-51000J0D01*
G01*
G37*
G36*
G01*
X85665000Y-132306000D02*
X84765000Y-132306000D01*
G75*
G02*
X84714000Y-132255000I0J51000D01*
G01*
X84714000Y-130255000D01*
G75*
G02*
X84765000Y-130204000I51000J0D01*
G01*
X85665000Y-130204000D01*
G75*
G02*
X85716000Y-130255000I0J-51000D01*
G01*
X85716000Y-132255000D01*
G75*
G02*
X85665000Y-132306000I-51000J0D01*
G01*
G37*
G36*
G01*
X86949000Y-130705000D02*
X86949000Y-129805000D01*
G75*
G02*
X87000000Y-129754000I51000J0D01*
G01*
X89000000Y-129754000D01*
G75*
G02*
X89051000Y-129805000I0J-51000D01*
G01*
X89051000Y-130705000D01*
G75*
G02*
X89000000Y-130756000I-51000J0D01*
G01*
X87000000Y-130756000D01*
G75*
G02*
X86949000Y-130705000I0J51000D01*
G01*
G37*
G36*
G01*
X86949000Y-129435000D02*
X86949000Y-128535000D01*
G75*
G02*
X87000000Y-128484000I51000J0D01*
G01*
X89000000Y-128484000D01*
G75*
G02*
X89051000Y-128535000I0J-51000D01*
G01*
X89051000Y-129435000D01*
G75*
G02*
X89000000Y-129486000I-51000J0D01*
G01*
X87000000Y-129486000D01*
G75*
G02*
X86949000Y-129435000I0J51000D01*
G01*
G37*
G36*
G01*
X86949000Y-128165000D02*
X86949000Y-127265000D01*
G75*
G02*
X87000000Y-127214000I51000J0D01*
G01*
X89000000Y-127214000D01*
G75*
G02*
X89051000Y-127265000I0J-51000D01*
G01*
X89051000Y-128165000D01*
G75*
G02*
X89000000Y-128216000I-51000J0D01*
G01*
X87000000Y-128216000D01*
G75*
G02*
X86949000Y-128165000I0J51000D01*
G01*
G37*
G36*
G01*
X86949000Y-126895000D02*
X86949000Y-125995000D01*
G75*
G02*
X87000000Y-125944000I51000J0D01*
G01*
X89000000Y-125944000D01*
G75*
G02*
X89051000Y-125995000I0J-51000D01*
G01*
X89051000Y-126895000D01*
G75*
G02*
X89000000Y-126946000I-51000J0D01*
G01*
X87000000Y-126946000D01*
G75*
G02*
X86949000Y-126895000I0J51000D01*
G01*
G37*
G36*
G01*
X86949000Y-125625000D02*
X86949000Y-124725000D01*
G75*
G02*
X87000000Y-124674000I51000J0D01*
G01*
X89000000Y-124674000D01*
G75*
G02*
X89051000Y-124725000I0J-51000D01*
G01*
X89051000Y-125625000D01*
G75*
G02*
X89000000Y-125676000I-51000J0D01*
G01*
X87000000Y-125676000D01*
G75*
G02*
X86949000Y-125625000I0J51000D01*
G01*
G37*
G36*
G01*
X86949000Y-124355000D02*
X86949000Y-123455000D01*
G75*
G02*
X87000000Y-123404000I51000J0D01*
G01*
X89000000Y-123404000D01*
G75*
G02*
X89051000Y-123455000I0J-51000D01*
G01*
X89051000Y-124355000D01*
G75*
G02*
X89000000Y-124406000I-51000J0D01*
G01*
X87000000Y-124406000D01*
G75*
G02*
X86949000Y-124355000I0J51000D01*
G01*
G37*
G36*
G01*
X86949000Y-123085000D02*
X86949000Y-122185000D01*
G75*
G02*
X87000000Y-122134000I51000J0D01*
G01*
X89000000Y-122134000D01*
G75*
G02*
X89051000Y-122185000I0J-51000D01*
G01*
X89051000Y-123085000D01*
G75*
G02*
X89000000Y-123136000I-51000J0D01*
G01*
X87000000Y-123136000D01*
G75*
G02*
X86949000Y-123085000I0J51000D01*
G01*
G37*
G36*
G01*
X86949000Y-121815000D02*
X86949000Y-120915000D01*
G75*
G02*
X87000000Y-120864000I51000J0D01*
G01*
X89000000Y-120864000D01*
G75*
G02*
X89051000Y-120915000I0J-51000D01*
G01*
X89051000Y-121815000D01*
G75*
G02*
X89000000Y-121866000I-51000J0D01*
G01*
X87000000Y-121866000D01*
G75*
G02*
X86949000Y-121815000I0J51000D01*
G01*
G37*
G36*
G01*
X86949000Y-120545000D02*
X86949000Y-119645000D01*
G75*
G02*
X87000000Y-119594000I51000J0D01*
G01*
X89000000Y-119594000D01*
G75*
G02*
X89051000Y-119645000I0J-51000D01*
G01*
X89051000Y-120545000D01*
G75*
G02*
X89000000Y-120596000I-51000J0D01*
G01*
X87000000Y-120596000D01*
G75*
G02*
X86949000Y-120545000I0J51000D01*
G01*
G37*
G36*
G01*
X86949000Y-119275000D02*
X86949000Y-118375000D01*
G75*
G02*
X87000000Y-118324000I51000J0D01*
G01*
X89000000Y-118324000D01*
G75*
G02*
X89051000Y-118375000I0J-51000D01*
G01*
X89051000Y-119275000D01*
G75*
G02*
X89000000Y-119326000I-51000J0D01*
G01*
X87000000Y-119326000D01*
G75*
G02*
X86949000Y-119275000I0J51000D01*
G01*
G37*
G36*
G01*
X86949000Y-118005000D02*
X86949000Y-117105000D01*
G75*
G02*
X87000000Y-117054000I51000J0D01*
G01*
X89000000Y-117054000D01*
G75*
G02*
X89051000Y-117105000I0J-51000D01*
G01*
X89051000Y-118005000D01*
G75*
G02*
X89000000Y-118056000I-51000J0D01*
G01*
X87000000Y-118056000D01*
G75*
G02*
X86949000Y-118005000I0J51000D01*
G01*
G37*
G36*
G01*
X86949000Y-116735000D02*
X86949000Y-115835000D01*
G75*
G02*
X87000000Y-115784000I51000J0D01*
G01*
X89000000Y-115784000D01*
G75*
G02*
X89051000Y-115835000I0J-51000D01*
G01*
X89051000Y-116735000D01*
G75*
G02*
X89000000Y-116786000I-51000J0D01*
G01*
X87000000Y-116786000D01*
G75*
G02*
X86949000Y-116735000I0J51000D01*
G01*
G37*
G36*
G01*
X86949000Y-115465000D02*
X86949000Y-114565000D01*
G75*
G02*
X87000000Y-114514000I51000J0D01*
G01*
X89000000Y-114514000D01*
G75*
G02*
X89051000Y-114565000I0J-51000D01*
G01*
X89051000Y-115465000D01*
G75*
G02*
X89000000Y-115516000I-51000J0D01*
G01*
X87000000Y-115516000D01*
G75*
G02*
X86949000Y-115465000I0J51000D01*
G01*
G37*
G36*
G01*
X86949000Y-114195000D02*
X86949000Y-113295000D01*
G75*
G02*
X87000000Y-113244000I51000J0D01*
G01*
X89000000Y-113244000D01*
G75*
G02*
X89051000Y-113295000I0J-51000D01*
G01*
X89051000Y-114195000D01*
G75*
G02*
X89000000Y-114246000I-51000J0D01*
G01*
X87000000Y-114246000D01*
G75*
G02*
X86949000Y-114195000I0J51000D01*
G01*
G37*
G36*
G01*
X27718250Y-47724000D02*
X28281750Y-47724000D01*
G75*
G02*
X28526000Y-47968250I0J-244250D01*
G01*
X28526000Y-48456750D01*
G75*
G02*
X28281750Y-48701000I-244250J0D01*
G01*
X27718250Y-48701000D01*
G75*
G02*
X27474000Y-48456750I0J244250D01*
G01*
X27474000Y-47968250D01*
G75*
G02*
X27718250Y-47724000I244250J0D01*
G01*
G37*
G36*
G01*
X27718250Y-49299000D02*
X28281750Y-49299000D01*
G75*
G02*
X28526000Y-49543250I0J-244250D01*
G01*
X28526000Y-50031750D01*
G75*
G02*
X28281750Y-50276000I-244250J0D01*
G01*
X27718250Y-50276000D01*
G75*
G02*
X27474000Y-50031750I0J244250D01*
G01*
X27474000Y-49543250D01*
G75*
G02*
X27718250Y-49299000I244250J0D01*
G01*
G37*
G36*
G01*
X27718250Y-62724000D02*
X28281750Y-62724000D01*
G75*
G02*
X28526000Y-62968250I0J-244250D01*
G01*
X28526000Y-63456750D01*
G75*
G02*
X28281750Y-63701000I-244250J0D01*
G01*
X27718250Y-63701000D01*
G75*
G02*
X27474000Y-63456750I0J244250D01*
G01*
X27474000Y-62968250D01*
G75*
G02*
X27718250Y-62724000I244250J0D01*
G01*
G37*
G36*
G01*
X27718250Y-64299000D02*
X28281750Y-64299000D01*
G75*
G02*
X28526000Y-64543250I0J-244250D01*
G01*
X28526000Y-65031750D01*
G75*
G02*
X28281750Y-65276000I-244250J0D01*
G01*
X27718250Y-65276000D01*
G75*
G02*
X27474000Y-65031750I0J244250D01*
G01*
X27474000Y-64543250D01*
G75*
G02*
X27718250Y-64299000I244250J0D01*
G01*
G37*
G36*
G01*
X27718250Y-79299000D02*
X28281750Y-79299000D01*
G75*
G02*
X28526000Y-79543250I0J-244250D01*
G01*
X28526000Y-80031750D01*
G75*
G02*
X28281750Y-80276000I-244250J0D01*
G01*
X27718250Y-80276000D01*
G75*
G02*
X27474000Y-80031750I0J244250D01*
G01*
X27474000Y-79543250D01*
G75*
G02*
X27718250Y-79299000I244250J0D01*
G01*
G37*
G36*
G01*
X27718250Y-77724000D02*
X28281750Y-77724000D01*
G75*
G02*
X28526000Y-77968250I0J-244250D01*
G01*
X28526000Y-78456750D01*
G75*
G02*
X28281750Y-78701000I-244250J0D01*
G01*
X27718250Y-78701000D01*
G75*
G02*
X27474000Y-78456750I0J244250D01*
G01*
X27474000Y-77968250D01*
G75*
G02*
X27718250Y-77724000I244250J0D01*
G01*
G37*
G36*
G01*
X27718250Y-94299000D02*
X28281750Y-94299000D01*
G75*
G02*
X28526000Y-94543250I0J-244250D01*
G01*
X28526000Y-95031750D01*
G75*
G02*
X28281750Y-95276000I-244250J0D01*
G01*
X27718250Y-95276000D01*
G75*
G02*
X27474000Y-95031750I0J244250D01*
G01*
X27474000Y-94543250D01*
G75*
G02*
X27718250Y-94299000I244250J0D01*
G01*
G37*
G36*
G01*
X27718250Y-92724000D02*
X28281750Y-92724000D01*
G75*
G02*
X28526000Y-92968250I0J-244250D01*
G01*
X28526000Y-93456750D01*
G75*
G02*
X28281750Y-93701000I-244250J0D01*
G01*
X27718250Y-93701000D01*
G75*
G02*
X27474000Y-93456750I0J244250D01*
G01*
X27474000Y-92968250D01*
G75*
G02*
X27718250Y-92724000I244250J0D01*
G01*
G37*
G36*
G01*
X27718250Y-122724000D02*
X28281750Y-122724000D01*
G75*
G02*
X28526000Y-122968250I0J-244250D01*
G01*
X28526000Y-123456750D01*
G75*
G02*
X28281750Y-123701000I-244250J0D01*
G01*
X27718250Y-123701000D01*
G75*
G02*
X27474000Y-123456750I0J244250D01*
G01*
X27474000Y-122968250D01*
G75*
G02*
X27718250Y-122724000I244250J0D01*
G01*
G37*
G36*
G01*
X27718250Y-124299000D02*
X28281750Y-124299000D01*
G75*
G02*
X28526000Y-124543250I0J-244250D01*
G01*
X28526000Y-125031750D01*
G75*
G02*
X28281750Y-125276000I-244250J0D01*
G01*
X27718250Y-125276000D01*
G75*
G02*
X27474000Y-125031750I0J244250D01*
G01*
X27474000Y-124543250D01*
G75*
G02*
X27718250Y-124299000I244250J0D01*
G01*
G37*
G36*
G01*
X27718250Y-139299000D02*
X28281750Y-139299000D01*
G75*
G02*
X28526000Y-139543250I0J-244250D01*
G01*
X28526000Y-140031750D01*
G75*
G02*
X28281750Y-140276000I-244250J0D01*
G01*
X27718250Y-140276000D01*
G75*
G02*
X27474000Y-140031750I0J244250D01*
G01*
X27474000Y-139543250D01*
G75*
G02*
X27718250Y-139299000I244250J0D01*
G01*
G37*
G36*
G01*
X27718250Y-137724000D02*
X28281750Y-137724000D01*
G75*
G02*
X28526000Y-137968250I0J-244250D01*
G01*
X28526000Y-138456750D01*
G75*
G02*
X28281750Y-138701000I-244250J0D01*
G01*
X27718250Y-138701000D01*
G75*
G02*
X27474000Y-138456750I0J244250D01*
G01*
X27474000Y-137968250D01*
G75*
G02*
X27718250Y-137724000I244250J0D01*
G01*
G37*
G36*
G01*
X27718250Y-51224000D02*
X28281750Y-51224000D01*
G75*
G02*
X28526000Y-51468250I0J-244250D01*
G01*
X28526000Y-51956750D01*
G75*
G02*
X28281750Y-52201000I-244250J0D01*
G01*
X27718250Y-52201000D01*
G75*
G02*
X27474000Y-51956750I0J244250D01*
G01*
X27474000Y-51468250D01*
G75*
G02*
X27718250Y-51224000I244250J0D01*
G01*
G37*
G36*
G01*
X27718250Y-52799000D02*
X28281750Y-52799000D01*
G75*
G02*
X28526000Y-53043250I0J-244250D01*
G01*
X28526000Y-53531750D01*
G75*
G02*
X28281750Y-53776000I-244250J0D01*
G01*
X27718250Y-53776000D01*
G75*
G02*
X27474000Y-53531750I0J244250D01*
G01*
X27474000Y-53043250D01*
G75*
G02*
X27718250Y-52799000I244250J0D01*
G01*
G37*
G36*
G01*
X27718250Y-111224000D02*
X28281750Y-111224000D01*
G75*
G02*
X28526000Y-111468250I0J-244250D01*
G01*
X28526000Y-111956750D01*
G75*
G02*
X28281750Y-112201000I-244250J0D01*
G01*
X27718250Y-112201000D01*
G75*
G02*
X27474000Y-111956750I0J244250D01*
G01*
X27474000Y-111468250D01*
G75*
G02*
X27718250Y-111224000I244250J0D01*
G01*
G37*
G36*
G01*
X27718250Y-112799000D02*
X28281750Y-112799000D01*
G75*
G02*
X28526000Y-113043250I0J-244250D01*
G01*
X28526000Y-113531750D01*
G75*
G02*
X28281750Y-113776000I-244250J0D01*
G01*
X27718250Y-113776000D01*
G75*
G02*
X27474000Y-113531750I0J244250D01*
G01*
X27474000Y-113043250D01*
G75*
G02*
X27718250Y-112799000I244250J0D01*
G01*
G37*
G36*
G01*
X27718250Y-82799000D02*
X28281750Y-82799000D01*
G75*
G02*
X28526000Y-83043250I0J-244250D01*
G01*
X28526000Y-83531750D01*
G75*
G02*
X28281750Y-83776000I-244250J0D01*
G01*
X27718250Y-83776000D01*
G75*
G02*
X27474000Y-83531750I0J244250D01*
G01*
X27474000Y-83043250D01*
G75*
G02*
X27718250Y-82799000I244250J0D01*
G01*
G37*
G36*
G01*
X27718250Y-81224000D02*
X28281750Y-81224000D01*
G75*
G02*
X28526000Y-81468250I0J-244250D01*
G01*
X28526000Y-81956750D01*
G75*
G02*
X28281750Y-82201000I-244250J0D01*
G01*
X27718250Y-82201000D01*
G75*
G02*
X27474000Y-81956750I0J244250D01*
G01*
X27474000Y-81468250D01*
G75*
G02*
X27718250Y-81224000I244250J0D01*
G01*
G37*
G36*
G01*
X27718250Y-141224000D02*
X28281750Y-141224000D01*
G75*
G02*
X28526000Y-141468250I0J-244250D01*
G01*
X28526000Y-141956750D01*
G75*
G02*
X28281750Y-142201000I-244250J0D01*
G01*
X27718250Y-142201000D01*
G75*
G02*
X27474000Y-141956750I0J244250D01*
G01*
X27474000Y-141468250D01*
G75*
G02*
X27718250Y-141224000I244250J0D01*
G01*
G37*
G36*
G01*
X27718250Y-142799000D02*
X28281750Y-142799000D01*
G75*
G02*
X28526000Y-143043250I0J-244250D01*
G01*
X28526000Y-143531750D01*
G75*
G02*
X28281750Y-143776000I-244250J0D01*
G01*
X27718250Y-143776000D01*
G75*
G02*
X27474000Y-143531750I0J244250D01*
G01*
X27474000Y-143043250D01*
G75*
G02*
X27718250Y-142799000I244250J0D01*
G01*
G37*
G36*
G01*
X27718250Y-127799000D02*
X28281750Y-127799000D01*
G75*
G02*
X28526000Y-128043250I0J-244250D01*
G01*
X28526000Y-128531750D01*
G75*
G02*
X28281750Y-128776000I-244250J0D01*
G01*
X27718250Y-128776000D01*
G75*
G02*
X27474000Y-128531750I0J244250D01*
G01*
X27474000Y-128043250D01*
G75*
G02*
X27718250Y-127799000I244250J0D01*
G01*
G37*
G36*
G01*
X27718250Y-126224000D02*
X28281750Y-126224000D01*
G75*
G02*
X28526000Y-126468250I0J-244250D01*
G01*
X28526000Y-126956750D01*
G75*
G02*
X28281750Y-127201000I-244250J0D01*
G01*
X27718250Y-127201000D01*
G75*
G02*
X27474000Y-126956750I0J244250D01*
G01*
X27474000Y-126468250D01*
G75*
G02*
X27718250Y-126224000I244250J0D01*
G01*
G37*
G36*
G01*
X27718250Y-97799000D02*
X28281750Y-97799000D01*
G75*
G02*
X28526000Y-98043250I0J-244250D01*
G01*
X28526000Y-98531750D01*
G75*
G02*
X28281750Y-98776000I-244250J0D01*
G01*
X27718250Y-98776000D01*
G75*
G02*
X27474000Y-98531750I0J244250D01*
G01*
X27474000Y-98043250D01*
G75*
G02*
X27718250Y-97799000I244250J0D01*
G01*
G37*
G36*
G01*
X27718250Y-96224000D02*
X28281750Y-96224000D01*
G75*
G02*
X28526000Y-96468250I0J-244250D01*
G01*
X28526000Y-96956750D01*
G75*
G02*
X28281750Y-97201000I-244250J0D01*
G01*
X27718250Y-97201000D01*
G75*
G02*
X27474000Y-96956750I0J244250D01*
G01*
X27474000Y-96468250D01*
G75*
G02*
X27718250Y-96224000I244250J0D01*
G01*
G37*
G36*
G01*
X27718250Y-67799000D02*
X28281750Y-67799000D01*
G75*
G02*
X28526000Y-68043250I0J-244250D01*
G01*
X28526000Y-68531750D01*
G75*
G02*
X28281750Y-68776000I-244250J0D01*
G01*
X27718250Y-68776000D01*
G75*
G02*
X27474000Y-68531750I0J244250D01*
G01*
X27474000Y-68043250D01*
G75*
G02*
X27718250Y-67799000I244250J0D01*
G01*
G37*
G36*
G01*
X27718250Y-66224000D02*
X28281750Y-66224000D01*
G75*
G02*
X28526000Y-66468250I0J-244250D01*
G01*
X28526000Y-66956750D01*
G75*
G02*
X28281750Y-67201000I-244250J0D01*
G01*
X27718250Y-67201000D01*
G75*
G02*
X27474000Y-66956750I0J244250D01*
G01*
X27474000Y-66468250D01*
G75*
G02*
X27718250Y-66224000I244250J0D01*
G01*
G37*
G36*
G01*
X96201000Y-120718250D02*
X96201000Y-121281750D01*
G75*
G02*
X95956750Y-121526000I-244250J0D01*
G01*
X95468250Y-121526000D01*
G75*
G02*
X95224000Y-121281750I0J244250D01*
G01*
X95224000Y-120718250D01*
G75*
G02*
X95468250Y-120474000I244250J0D01*
G01*
X95956750Y-120474000D01*
G75*
G02*
X96201000Y-120718250I0J-244250D01*
G01*
G37*
G36*
G01*
X97776000Y-120718250D02*
X97776000Y-121281750D01*
G75*
G02*
X97531750Y-121526000I-244250J0D01*
G01*
X97043250Y-121526000D01*
G75*
G02*
X96799000Y-121281750I0J244250D01*
G01*
X96799000Y-120718250D01*
G75*
G02*
X97043250Y-120474000I244250J0D01*
G01*
X97531750Y-120474000D01*
G75*
G02*
X97776000Y-120718250I0J-244250D01*
G01*
G37*
G36*
G01*
X103776000Y-120718250D02*
X103776000Y-121281750D01*
G75*
G02*
X103531750Y-121526000I-244250J0D01*
G01*
X103043250Y-121526000D01*
G75*
G02*
X102799000Y-121281750I0J244250D01*
G01*
X102799000Y-120718250D01*
G75*
G02*
X103043250Y-120474000I244250J0D01*
G01*
X103531750Y-120474000D01*
G75*
G02*
X103776000Y-120718250I0J-244250D01*
G01*
G37*
G36*
G01*
X102201000Y-120718250D02*
X102201000Y-121281750D01*
G75*
G02*
X101956750Y-121526000I-244250J0D01*
G01*
X101468250Y-121526000D01*
G75*
G02*
X101224000Y-121281750I0J244250D01*
G01*
X101224000Y-120718250D01*
G75*
G02*
X101468250Y-120474000I244250J0D01*
G01*
X101956750Y-120474000D01*
G75*
G02*
X102201000Y-120718250I0J-244250D01*
G01*
G37*
G36*
G01*
X93776000Y-133718250D02*
X93776000Y-134281750D01*
G75*
G02*
X93531750Y-134526000I-244250J0D01*
G01*
X93043250Y-134526000D01*
G75*
G02*
X92799000Y-134281750I0J244250D01*
G01*
X92799000Y-133718250D01*
G75*
G02*
X93043250Y-133474000I244250J0D01*
G01*
X93531750Y-133474000D01*
G75*
G02*
X93776000Y-133718250I0J-244250D01*
G01*
G37*
G36*
G01*
X92201000Y-133718250D02*
X92201000Y-134281750D01*
G75*
G02*
X91956750Y-134526000I-244250J0D01*
G01*
X91468250Y-134526000D01*
G75*
G02*
X91224000Y-134281750I0J244250D01*
G01*
X91224000Y-133718250D01*
G75*
G02*
X91468250Y-133474000I244250J0D01*
G01*
X91956750Y-133474000D01*
G75*
G02*
X92201000Y-133718250I0J-244250D01*
G01*
G37*
G36*
G01*
X95950000Y-125501000D02*
X95150000Y-125501000D01*
G75*
G02*
X95099000Y-125450000I0J51000D01*
G01*
X95099000Y-124550000D01*
G75*
G02*
X95150000Y-124499000I51000J0D01*
G01*
X95950000Y-124499000D01*
G75*
G02*
X96001000Y-124550000I0J-51000D01*
G01*
X96001000Y-125450000D01*
G75*
G02*
X95950000Y-125501000I-51000J0D01*
G01*
G37*
G36*
G01*
X97850000Y-125501000D02*
X97050000Y-125501000D01*
G75*
G02*
X96999000Y-125450000I0J51000D01*
G01*
X96999000Y-124550000D01*
G75*
G02*
X97050000Y-124499000I51000J0D01*
G01*
X97850000Y-124499000D01*
G75*
G02*
X97901000Y-124550000I0J-51000D01*
G01*
X97901000Y-125450000D01*
G75*
G02*
X97850000Y-125501000I-51000J0D01*
G01*
G37*
G36*
G01*
X96900000Y-123501000D02*
X96100000Y-123501000D01*
G75*
G02*
X96049000Y-123450000I0J51000D01*
G01*
X96049000Y-122550000D01*
G75*
G02*
X96100000Y-122499000I51000J0D01*
G01*
X96900000Y-122499000D01*
G75*
G02*
X96951000Y-122550000I0J-51000D01*
G01*
X96951000Y-123450000D01*
G75*
G02*
X96900000Y-123501000I-51000J0D01*
G01*
G37*
G36*
G01*
X102900000Y-123501000D02*
X102100000Y-123501000D01*
G75*
G02*
X102049000Y-123450000I0J51000D01*
G01*
X102049000Y-122550000D01*
G75*
G02*
X102100000Y-122499000I51000J0D01*
G01*
X102900000Y-122499000D01*
G75*
G02*
X102951000Y-122550000I0J-51000D01*
G01*
X102951000Y-123450000D01*
G75*
G02*
X102900000Y-123501000I-51000J0D01*
G01*
G37*
G36*
G01*
X103850000Y-125501000D02*
X103050000Y-125501000D01*
G75*
G02*
X102999000Y-125450000I0J51000D01*
G01*
X102999000Y-124550000D01*
G75*
G02*
X103050000Y-124499000I51000J0D01*
G01*
X103850000Y-124499000D01*
G75*
G02*
X103901000Y-124550000I0J-51000D01*
G01*
X103901000Y-125450000D01*
G75*
G02*
X103850000Y-125501000I-51000J0D01*
G01*
G37*
G36*
G01*
X101950000Y-125501000D02*
X101150000Y-125501000D01*
G75*
G02*
X101099000Y-125450000I0J51000D01*
G01*
X101099000Y-124550000D01*
G75*
G02*
X101150000Y-124499000I51000J0D01*
G01*
X101950000Y-124499000D01*
G75*
G02*
X102001000Y-124550000I0J-51000D01*
G01*
X102001000Y-125450000D01*
G75*
G02*
X101950000Y-125501000I-51000J0D01*
G01*
G37*
G36*
G01*
X97776000Y-126718250D02*
X97776000Y-127281750D01*
G75*
G02*
X97531750Y-127526000I-244250J0D01*
G01*
X97043250Y-127526000D01*
G75*
G02*
X96799000Y-127281750I0J244250D01*
G01*
X96799000Y-126718250D01*
G75*
G02*
X97043250Y-126474000I244250J0D01*
G01*
X97531750Y-126474000D01*
G75*
G02*
X97776000Y-126718250I0J-244250D01*
G01*
G37*
G36*
G01*
X96201000Y-126718250D02*
X96201000Y-127281750D01*
G75*
G02*
X95956750Y-127526000I-244250J0D01*
G01*
X95468250Y-127526000D01*
G75*
G02*
X95224000Y-127281750I0J244250D01*
G01*
X95224000Y-126718250D01*
G75*
G02*
X95468250Y-126474000I244250J0D01*
G01*
X95956750Y-126474000D01*
G75*
G02*
X96201000Y-126718250I0J-244250D01*
G01*
G37*
G36*
G01*
X102201000Y-126718250D02*
X102201000Y-127281750D01*
G75*
G02*
X101956750Y-127526000I-244250J0D01*
G01*
X101468250Y-127526000D01*
G75*
G02*
X101224000Y-127281750I0J244250D01*
G01*
X101224000Y-126718250D01*
G75*
G02*
X101468250Y-126474000I244250J0D01*
G01*
X101956750Y-126474000D01*
G75*
G02*
X102201000Y-126718250I0J-244250D01*
G01*
G37*
G36*
G01*
X103776000Y-126718250D02*
X103776000Y-127281750D01*
G75*
G02*
X103531750Y-127526000I-244250J0D01*
G01*
X103043250Y-127526000D01*
G75*
G02*
X102799000Y-127281750I0J244250D01*
G01*
X102799000Y-126718250D01*
G75*
G02*
X103043250Y-126474000I244250J0D01*
G01*
X103531750Y-126474000D01*
G75*
G02*
X103776000Y-126718250I0J-244250D01*
G01*
G37*
G36*
G01*
X27718250Y-57799000D02*
X28281750Y-57799000D01*
G75*
G02*
X28526000Y-58043250I0J-244250D01*
G01*
X28526000Y-58531750D01*
G75*
G02*
X28281750Y-58776000I-244250J0D01*
G01*
X27718250Y-58776000D01*
G75*
G02*
X27474000Y-58531750I0J244250D01*
G01*
X27474000Y-58043250D01*
G75*
G02*
X27718250Y-57799000I244250J0D01*
G01*
G37*
G36*
G01*
X27718250Y-56224000D02*
X28281750Y-56224000D01*
G75*
G02*
X28526000Y-56468250I0J-244250D01*
G01*
X28526000Y-56956750D01*
G75*
G02*
X28281750Y-57201000I-244250J0D01*
G01*
X27718250Y-57201000D01*
G75*
G02*
X27474000Y-56956750I0J244250D01*
G01*
X27474000Y-56468250D01*
G75*
G02*
X27718250Y-56224000I244250J0D01*
G01*
G37*
G36*
G01*
X27718250Y-71224000D02*
X28281750Y-71224000D01*
G75*
G02*
X28526000Y-71468250I0J-244250D01*
G01*
X28526000Y-71956750D01*
G75*
G02*
X28281750Y-72201000I-244250J0D01*
G01*
X27718250Y-72201000D01*
G75*
G02*
X27474000Y-71956750I0J244250D01*
G01*
X27474000Y-71468250D01*
G75*
G02*
X27718250Y-71224000I244250J0D01*
G01*
G37*
G36*
G01*
X27718250Y-72799000D02*
X28281750Y-72799000D01*
G75*
G02*
X28526000Y-73043250I0J-244250D01*
G01*
X28526000Y-73531750D01*
G75*
G02*
X28281750Y-73776000I-244250J0D01*
G01*
X27718250Y-73776000D01*
G75*
G02*
X27474000Y-73531750I0J244250D01*
G01*
X27474000Y-73043250D01*
G75*
G02*
X27718250Y-72799000I244250J0D01*
G01*
G37*
G36*
G01*
X27718250Y-87799000D02*
X28281750Y-87799000D01*
G75*
G02*
X28526000Y-88043250I0J-244250D01*
G01*
X28526000Y-88531750D01*
G75*
G02*
X28281750Y-88776000I-244250J0D01*
G01*
X27718250Y-88776000D01*
G75*
G02*
X27474000Y-88531750I0J244250D01*
G01*
X27474000Y-88043250D01*
G75*
G02*
X27718250Y-87799000I244250J0D01*
G01*
G37*
G36*
G01*
X27718250Y-86224000D02*
X28281750Y-86224000D01*
G75*
G02*
X28526000Y-86468250I0J-244250D01*
G01*
X28526000Y-86956750D01*
G75*
G02*
X28281750Y-87201000I-244250J0D01*
G01*
X27718250Y-87201000D01*
G75*
G02*
X27474000Y-86956750I0J244250D01*
G01*
X27474000Y-86468250D01*
G75*
G02*
X27718250Y-86224000I244250J0D01*
G01*
G37*
G36*
G01*
X27718250Y-101224000D02*
X28281750Y-101224000D01*
G75*
G02*
X28526000Y-101468250I0J-244250D01*
G01*
X28526000Y-101956750D01*
G75*
G02*
X28281750Y-102201000I-244250J0D01*
G01*
X27718250Y-102201000D01*
G75*
G02*
X27474000Y-101956750I0J244250D01*
G01*
X27474000Y-101468250D01*
G75*
G02*
X27718250Y-101224000I244250J0D01*
G01*
G37*
G36*
G01*
X27718250Y-102799000D02*
X28281750Y-102799000D01*
G75*
G02*
X28526000Y-103043250I0J-244250D01*
G01*
X28526000Y-103531750D01*
G75*
G02*
X28281750Y-103776000I-244250J0D01*
G01*
X27718250Y-103776000D01*
G75*
G02*
X27474000Y-103531750I0J244250D01*
G01*
X27474000Y-103043250D01*
G75*
G02*
X27718250Y-102799000I244250J0D01*
G01*
G37*
G36*
G01*
X27718250Y-117799000D02*
X28281750Y-117799000D01*
G75*
G02*
X28526000Y-118043250I0J-244250D01*
G01*
X28526000Y-118531750D01*
G75*
G02*
X28281750Y-118776000I-244250J0D01*
G01*
X27718250Y-118776000D01*
G75*
G02*
X27474000Y-118531750I0J244250D01*
G01*
X27474000Y-118043250D01*
G75*
G02*
X27718250Y-117799000I244250J0D01*
G01*
G37*
G36*
G01*
X27718250Y-116224000D02*
X28281750Y-116224000D01*
G75*
G02*
X28526000Y-116468250I0J-244250D01*
G01*
X28526000Y-116956750D01*
G75*
G02*
X28281750Y-117201000I-244250J0D01*
G01*
X27718250Y-117201000D01*
G75*
G02*
X27474000Y-116956750I0J244250D01*
G01*
X27474000Y-116468250D01*
G75*
G02*
X27718250Y-116224000I244250J0D01*
G01*
G37*
G36*
G01*
X27718250Y-131224000D02*
X28281750Y-131224000D01*
G75*
G02*
X28526000Y-131468250I0J-244250D01*
G01*
X28526000Y-131956750D01*
G75*
G02*
X28281750Y-132201000I-244250J0D01*
G01*
X27718250Y-132201000D01*
G75*
G02*
X27474000Y-131956750I0J244250D01*
G01*
X27474000Y-131468250D01*
G75*
G02*
X27718250Y-131224000I244250J0D01*
G01*
G37*
G36*
G01*
X27718250Y-132799000D02*
X28281750Y-132799000D01*
G75*
G02*
X28526000Y-133043250I0J-244250D01*
G01*
X28526000Y-133531750D01*
G75*
G02*
X28281750Y-133776000I-244250J0D01*
G01*
X27718250Y-133776000D01*
G75*
G02*
X27474000Y-133531750I0J244250D01*
G01*
X27474000Y-133043250D01*
G75*
G02*
X27718250Y-132799000I244250J0D01*
G01*
G37*
G36*
G01*
X27718250Y-147799000D02*
X28281750Y-147799000D01*
G75*
G02*
X28526000Y-148043250I0J-244250D01*
G01*
X28526000Y-148531750D01*
G75*
G02*
X28281750Y-148776000I-244250J0D01*
G01*
X27718250Y-148776000D01*
G75*
G02*
X27474000Y-148531750I0J244250D01*
G01*
X27474000Y-148043250D01*
G75*
G02*
X27718250Y-147799000I244250J0D01*
G01*
G37*
G36*
G01*
X27718250Y-146224000D02*
X28281750Y-146224000D01*
G75*
G02*
X28526000Y-146468250I0J-244250D01*
G01*
X28526000Y-146956750D01*
G75*
G02*
X28281750Y-147201000I-244250J0D01*
G01*
X27718250Y-147201000D01*
G75*
G02*
X27474000Y-146956750I0J244250D01*
G01*
X27474000Y-146468250D01*
G75*
G02*
X27718250Y-146224000I244250J0D01*
G01*
G37*
D11*
X39500000Y-48750000D03*
X39500000Y-61250000D03*
X34500000Y-48750000D03*
X34500000Y-61250000D03*
X43500000Y-55000000D03*
X30500000Y-55000000D03*
X32500000Y-55000000D03*
D10*
X41500000Y-55000000D03*
D11*
X39500000Y-78750000D03*
X39500000Y-91250000D03*
X34500000Y-78750000D03*
X34500000Y-91250000D03*
X43500000Y-85000000D03*
X30500000Y-85000000D03*
X32500000Y-85000000D03*
D10*
X41500000Y-85000000D03*
D11*
X39500000Y-93750000D03*
X39500000Y-106250000D03*
X34500000Y-93750000D03*
X34500000Y-106250000D03*
X43500000Y-100000000D03*
X30500000Y-100000000D03*
X32500000Y-100000000D03*
D10*
X41500000Y-100000000D03*
X41500000Y-115000000D03*
D11*
X32500000Y-115000000D03*
X30500000Y-115000000D03*
X43500000Y-115000000D03*
X34500000Y-121250000D03*
X34500000Y-108750000D03*
X39500000Y-121250000D03*
X39500000Y-108750000D03*
X39500000Y-123750000D03*
X39500000Y-136250000D03*
X34500000Y-123750000D03*
X34500000Y-136250000D03*
X43500000Y-130000000D03*
X30500000Y-130000000D03*
X32500000Y-130000000D03*
D10*
X41500000Y-130000000D03*
G36*
G01*
X102157500Y-129749000D02*
X102557500Y-129749000D01*
G75*
G02*
X102608500Y-129800000I0J-51000D01*
G01*
X102608500Y-131000000D01*
G75*
G02*
X102557500Y-131051000I-51000J0D01*
G01*
X102157500Y-131051000D01*
G75*
G02*
X102106500Y-131000000I0J51000D01*
G01*
X102106500Y-129800000D01*
G75*
G02*
X102157500Y-129749000I51000J0D01*
G01*
G37*
G36*
G01*
X101522500Y-129749000D02*
X101922500Y-129749000D01*
G75*
G02*
X101973500Y-129800000I0J-51000D01*
G01*
X101973500Y-131000000D01*
G75*
G02*
X101922500Y-131051000I-51000J0D01*
G01*
X101522500Y-131051000D01*
G75*
G02*
X101471500Y-131000000I0J51000D01*
G01*
X101471500Y-129800000D01*
G75*
G02*
X101522500Y-129749000I51000J0D01*
G01*
G37*
G36*
G01*
X100887500Y-129749000D02*
X101287500Y-129749000D01*
G75*
G02*
X101338500Y-129800000I0J-51000D01*
G01*
X101338500Y-131000000D01*
G75*
G02*
X101287500Y-131051000I-51000J0D01*
G01*
X100887500Y-131051000D01*
G75*
G02*
X100836500Y-131000000I0J51000D01*
G01*
X100836500Y-129800000D01*
G75*
G02*
X100887500Y-129749000I51000J0D01*
G01*
G37*
G36*
G01*
X100252500Y-129749000D02*
X100652500Y-129749000D01*
G75*
G02*
X100703500Y-129800000I0J-51000D01*
G01*
X100703500Y-131000000D01*
G75*
G02*
X100652500Y-131051000I-51000J0D01*
G01*
X100252500Y-131051000D01*
G75*
G02*
X100201500Y-131000000I0J51000D01*
G01*
X100201500Y-129800000D01*
G75*
G02*
X100252500Y-129749000I51000J0D01*
G01*
G37*
G36*
G01*
X99617500Y-129749000D02*
X100017500Y-129749000D01*
G75*
G02*
X100068500Y-129800000I0J-51000D01*
G01*
X100068500Y-131000000D01*
G75*
G02*
X100017500Y-131051000I-51000J0D01*
G01*
X99617500Y-131051000D01*
G75*
G02*
X99566500Y-131000000I0J51000D01*
G01*
X99566500Y-129800000D01*
G75*
G02*
X99617500Y-129749000I51000J0D01*
G01*
G37*
G36*
G01*
X98982500Y-129749000D02*
X99382500Y-129749000D01*
G75*
G02*
X99433500Y-129800000I0J-51000D01*
G01*
X99433500Y-131000000D01*
G75*
G02*
X99382500Y-131051000I-51000J0D01*
G01*
X98982500Y-131051000D01*
G75*
G02*
X98931500Y-131000000I0J51000D01*
G01*
X98931500Y-129800000D01*
G75*
G02*
X98982500Y-129749000I51000J0D01*
G01*
G37*
G36*
G01*
X98347500Y-129749000D02*
X98747500Y-129749000D01*
G75*
G02*
X98798500Y-129800000I0J-51000D01*
G01*
X98798500Y-131000000D01*
G75*
G02*
X98747500Y-131051000I-51000J0D01*
G01*
X98347500Y-131051000D01*
G75*
G02*
X98296500Y-131000000I0J51000D01*
G01*
X98296500Y-129800000D01*
G75*
G02*
X98347500Y-129749000I51000J0D01*
G01*
G37*
G36*
G01*
X97712500Y-129749000D02*
X98112500Y-129749000D01*
G75*
G02*
X98163500Y-129800000I0J-51000D01*
G01*
X98163500Y-131000000D01*
G75*
G02*
X98112500Y-131051000I-51000J0D01*
G01*
X97712500Y-131051000D01*
G75*
G02*
X97661500Y-131000000I0J51000D01*
G01*
X97661500Y-129800000D01*
G75*
G02*
X97712500Y-129749000I51000J0D01*
G01*
G37*
G36*
G01*
X97077500Y-129749000D02*
X97477500Y-129749000D01*
G75*
G02*
X97528500Y-129800000I0J-51000D01*
G01*
X97528500Y-131000000D01*
G75*
G02*
X97477500Y-131051000I-51000J0D01*
G01*
X97077500Y-131051000D01*
G75*
G02*
X97026500Y-131000000I0J51000D01*
G01*
X97026500Y-129800000D01*
G75*
G02*
X97077500Y-129749000I51000J0D01*
G01*
G37*
G36*
G01*
X96442500Y-129749000D02*
X96842500Y-129749000D01*
G75*
G02*
X96893500Y-129800000I0J-51000D01*
G01*
X96893500Y-131000000D01*
G75*
G02*
X96842500Y-131051000I-51000J0D01*
G01*
X96442500Y-131051000D01*
G75*
G02*
X96391500Y-131000000I0J51000D01*
G01*
X96391500Y-129800000D01*
G75*
G02*
X96442500Y-129749000I51000J0D01*
G01*
G37*
G36*
G01*
X96442500Y-134949000D02*
X96842500Y-134949000D01*
G75*
G02*
X96893500Y-135000000I0J-51000D01*
G01*
X96893500Y-136200000D01*
G75*
G02*
X96842500Y-136251000I-51000J0D01*
G01*
X96442500Y-136251000D01*
G75*
G02*
X96391500Y-136200000I0J51000D01*
G01*
X96391500Y-135000000D01*
G75*
G02*
X96442500Y-134949000I51000J0D01*
G01*
G37*
G36*
G01*
X97077500Y-134949000D02*
X97477500Y-134949000D01*
G75*
G02*
X97528500Y-135000000I0J-51000D01*
G01*
X97528500Y-136200000D01*
G75*
G02*
X97477500Y-136251000I-51000J0D01*
G01*
X97077500Y-136251000D01*
G75*
G02*
X97026500Y-136200000I0J51000D01*
G01*
X97026500Y-135000000D01*
G75*
G02*
X97077500Y-134949000I51000J0D01*
G01*
G37*
G36*
G01*
X97712500Y-134949000D02*
X98112500Y-134949000D01*
G75*
G02*
X98163500Y-135000000I0J-51000D01*
G01*
X98163500Y-136200000D01*
G75*
G02*
X98112500Y-136251000I-51000J0D01*
G01*
X97712500Y-136251000D01*
G75*
G02*
X97661500Y-136200000I0J51000D01*
G01*
X97661500Y-135000000D01*
G75*
G02*
X97712500Y-134949000I51000J0D01*
G01*
G37*
G36*
G01*
X98347500Y-134949000D02*
X98747500Y-134949000D01*
G75*
G02*
X98798500Y-135000000I0J-51000D01*
G01*
X98798500Y-136200000D01*
G75*
G02*
X98747500Y-136251000I-51000J0D01*
G01*
X98347500Y-136251000D01*
G75*
G02*
X98296500Y-136200000I0J51000D01*
G01*
X98296500Y-135000000D01*
G75*
G02*
X98347500Y-134949000I51000J0D01*
G01*
G37*
G36*
G01*
X98982500Y-134949000D02*
X99382500Y-134949000D01*
G75*
G02*
X99433500Y-135000000I0J-51000D01*
G01*
X99433500Y-136200000D01*
G75*
G02*
X99382500Y-136251000I-51000J0D01*
G01*
X98982500Y-136251000D01*
G75*
G02*
X98931500Y-136200000I0J51000D01*
G01*
X98931500Y-135000000D01*
G75*
G02*
X98982500Y-134949000I51000J0D01*
G01*
G37*
G36*
G01*
X99617500Y-134949000D02*
X100017500Y-134949000D01*
G75*
G02*
X100068500Y-135000000I0J-51000D01*
G01*
X100068500Y-136200000D01*
G75*
G02*
X100017500Y-136251000I-51000J0D01*
G01*
X99617500Y-136251000D01*
G75*
G02*
X99566500Y-136200000I0J51000D01*
G01*
X99566500Y-135000000D01*
G75*
G02*
X99617500Y-134949000I51000J0D01*
G01*
G37*
G36*
G01*
X100252500Y-134949000D02*
X100652500Y-134949000D01*
G75*
G02*
X100703500Y-135000000I0J-51000D01*
G01*
X100703500Y-136200000D01*
G75*
G02*
X100652500Y-136251000I-51000J0D01*
G01*
X100252500Y-136251000D01*
G75*
G02*
X100201500Y-136200000I0J51000D01*
G01*
X100201500Y-135000000D01*
G75*
G02*
X100252500Y-134949000I51000J0D01*
G01*
G37*
G36*
G01*
X100887500Y-134949000D02*
X101287500Y-134949000D01*
G75*
G02*
X101338500Y-135000000I0J-51000D01*
G01*
X101338500Y-136200000D01*
G75*
G02*
X101287500Y-136251000I-51000J0D01*
G01*
X100887500Y-136251000D01*
G75*
G02*
X100836500Y-136200000I0J51000D01*
G01*
X100836500Y-135000000D01*
G75*
G02*
X100887500Y-134949000I51000J0D01*
G01*
G37*
G36*
G01*
X101522500Y-134949000D02*
X101922500Y-134949000D01*
G75*
G02*
X101973500Y-135000000I0J-51000D01*
G01*
X101973500Y-136200000D01*
G75*
G02*
X101922500Y-136251000I-51000J0D01*
G01*
X101522500Y-136251000D01*
G75*
G02*
X101471500Y-136200000I0J51000D01*
G01*
X101471500Y-135000000D01*
G75*
G02*
X101522500Y-134949000I51000J0D01*
G01*
G37*
G36*
G01*
X102157500Y-134949000D02*
X102557500Y-134949000D01*
G75*
G02*
X102608500Y-135000000I0J-51000D01*
G01*
X102608500Y-136200000D01*
G75*
G02*
X102557500Y-136251000I-51000J0D01*
G01*
X102157500Y-136251000D01*
G75*
G02*
X102106500Y-136200000I0J51000D01*
G01*
X102106500Y-135000000D01*
G75*
G02*
X102157500Y-134949000I51000J0D01*
G01*
G37*
D16*
X30000000Y-35000000D03*
X102000000Y-155000000D03*
X30000000Y-155000000D03*
X102000000Y-106000000D03*
G36*
G01*
X93050000Y-135499000D02*
X93850000Y-135499000D01*
G75*
G02*
X93901000Y-135550000I0J-51000D01*
G01*
X93901000Y-136450000D01*
G75*
G02*
X93850000Y-136501000I-51000J0D01*
G01*
X93050000Y-136501000D01*
G75*
G02*
X92999000Y-136450000I0J51000D01*
G01*
X92999000Y-135550000D01*
G75*
G02*
X93050000Y-135499000I51000J0D01*
G01*
G37*
G36*
G01*
X91150000Y-135499000D02*
X91950000Y-135499000D01*
G75*
G02*
X92001000Y-135550000I0J-51000D01*
G01*
X92001000Y-136450000D01*
G75*
G02*
X91950000Y-136501000I-51000J0D01*
G01*
X91150000Y-136501000D01*
G75*
G02*
X91099000Y-136450000I0J51000D01*
G01*
X91099000Y-135550000D01*
G75*
G02*
X91150000Y-135499000I51000J0D01*
G01*
G37*
G36*
G01*
X92100000Y-137499000D02*
X92900000Y-137499000D01*
G75*
G02*
X92951000Y-137550000I0J-51000D01*
G01*
X92951000Y-138450000D01*
G75*
G02*
X92900000Y-138501000I-51000J0D01*
G01*
X92100000Y-138501000D01*
G75*
G02*
X92049000Y-138450000I0J51000D01*
G01*
X92049000Y-137550000D01*
G75*
G02*
X92100000Y-137499000I51000J0D01*
G01*
G37*
D10*
X43000000Y-156000000D03*
G36*
G01*
X64501000Y-148499500D02*
X64501000Y-149500500D01*
G75*
G02*
X64225500Y-149776000I-275500J0D01*
G01*
X63674500Y-149776000D01*
G75*
G02*
X63399000Y-149500500I0J275500D01*
G01*
X63399000Y-148499500D01*
G75*
G02*
X63674500Y-148224000I275500J0D01*
G01*
X64225500Y-148224000D01*
G75*
G02*
X64501000Y-148499500I0J-275500D01*
G01*
G37*
G36*
G01*
X62601000Y-148499500D02*
X62601000Y-149500500D01*
G75*
G02*
X62325500Y-149776000I-275500J0D01*
G01*
X61774500Y-149776000D01*
G75*
G02*
X61499000Y-149500500I0J275500D01*
G01*
X61499000Y-148499500D01*
G75*
G02*
X61774500Y-148224000I275500J0D01*
G01*
X62325500Y-148224000D01*
G75*
G02*
X62601000Y-148499500I0J-275500D01*
G01*
G37*
G36*
G01*
X74899000Y-139750500D02*
X74899000Y-138749500D01*
G75*
G02*
X75174500Y-138474000I275500J0D01*
G01*
X75725500Y-138474000D01*
G75*
G02*
X76001000Y-138749500I0J-275500D01*
G01*
X76001000Y-139750500D01*
G75*
G02*
X75725500Y-140026000I-275500J0D01*
G01*
X75174500Y-140026000D01*
G75*
G02*
X74899000Y-139750500I0J275500D01*
G01*
G37*
G36*
G01*
X72999000Y-139750500D02*
X72999000Y-138749500D01*
G75*
G02*
X73274500Y-138474000I275500J0D01*
G01*
X73825500Y-138474000D01*
G75*
G02*
X74101000Y-138749500I0J-275500D01*
G01*
X74101000Y-139750500D01*
G75*
G02*
X73825500Y-140026000I-275500J0D01*
G01*
X73274500Y-140026000D01*
G75*
G02*
X72999000Y-139750500I0J275500D01*
G01*
G37*
G36*
G01*
X88500500Y-144601000D02*
X87499500Y-144601000D01*
G75*
G02*
X87224000Y-144325500I0J275500D01*
G01*
X87224000Y-143774500D01*
G75*
G02*
X87499500Y-143499000I275500J0D01*
G01*
X88500500Y-143499000D01*
G75*
G02*
X88776000Y-143774500I0J-275500D01*
G01*
X88776000Y-144325500D01*
G75*
G02*
X88500500Y-144601000I-275500J0D01*
G01*
G37*
G36*
G01*
X88500500Y-146501000D02*
X87499500Y-146501000D01*
G75*
G02*
X87224000Y-146225500I0J275500D01*
G01*
X87224000Y-145674500D01*
G75*
G02*
X87499500Y-145399000I275500J0D01*
G01*
X88500500Y-145399000D01*
G75*
G02*
X88776000Y-145674500I0J-275500D01*
G01*
X88776000Y-146225500D01*
G75*
G02*
X88500500Y-146501000I-275500J0D01*
G01*
G37*
G36*
G01*
X79724000Y-144550500D02*
X79724000Y-143949500D01*
G75*
G02*
X79949500Y-143724000I225500J0D01*
G01*
X80400500Y-143724000D01*
G75*
G02*
X80626000Y-143949500I0J-225500D01*
G01*
X80626000Y-144550500D01*
G75*
G02*
X80400500Y-144776000I-225500J0D01*
G01*
X79949500Y-144776000D01*
G75*
G02*
X79724000Y-144550500I0J225500D01*
G01*
G37*
G36*
G01*
X81374000Y-144550500D02*
X81374000Y-143949500D01*
G75*
G02*
X81599500Y-143724000I225500J0D01*
G01*
X82050500Y-143724000D01*
G75*
G02*
X82276000Y-143949500I0J-225500D01*
G01*
X82276000Y-144550500D01*
G75*
G02*
X82050500Y-144776000I-225500J0D01*
G01*
X81599500Y-144776000D01*
G75*
G02*
X81374000Y-144550500I0J225500D01*
G01*
G37*
G36*
G01*
X81374000Y-142550500D02*
X81374000Y-141949500D01*
G75*
G02*
X81599500Y-141724000I225500J0D01*
G01*
X82050500Y-141724000D01*
G75*
G02*
X82276000Y-141949500I0J-225500D01*
G01*
X82276000Y-142550500D01*
G75*
G02*
X82050500Y-142776000I-225500J0D01*
G01*
X81599500Y-142776000D01*
G75*
G02*
X81374000Y-142550500I0J225500D01*
G01*
G37*
G36*
G01*
X79724000Y-142550500D02*
X79724000Y-141949500D01*
G75*
G02*
X79949500Y-141724000I225500J0D01*
G01*
X80400500Y-141724000D01*
G75*
G02*
X80626000Y-141949500I0J-225500D01*
G01*
X80626000Y-142550500D01*
G75*
G02*
X80400500Y-142776000I-225500J0D01*
G01*
X79949500Y-142776000D01*
G75*
G02*
X79724000Y-142550500I0J225500D01*
G01*
G37*
G36*
G01*
X69224000Y-144550500D02*
X69224000Y-143949500D01*
G75*
G02*
X69449500Y-143724000I225500J0D01*
G01*
X69900500Y-143724000D01*
G75*
G02*
X70126000Y-143949500I0J-225500D01*
G01*
X70126000Y-144550500D01*
G75*
G02*
X69900500Y-144776000I-225500J0D01*
G01*
X69449500Y-144776000D01*
G75*
G02*
X69224000Y-144550500I0J225500D01*
G01*
G37*
G36*
G01*
X70874000Y-144550500D02*
X70874000Y-143949500D01*
G75*
G02*
X71099500Y-143724000I225500J0D01*
G01*
X71550500Y-143724000D01*
G75*
G02*
X71776000Y-143949500I0J-225500D01*
G01*
X71776000Y-144550500D01*
G75*
G02*
X71550500Y-144776000I-225500J0D01*
G01*
X71099500Y-144776000D01*
G75*
G02*
X70874000Y-144550500I0J225500D01*
G01*
G37*
G36*
G01*
X70874000Y-142550500D02*
X70874000Y-141949500D01*
G75*
G02*
X71099500Y-141724000I225500J0D01*
G01*
X71550500Y-141724000D01*
G75*
G02*
X71776000Y-141949500I0J-225500D01*
G01*
X71776000Y-142550500D01*
G75*
G02*
X71550500Y-142776000I-225500J0D01*
G01*
X71099500Y-142776000D01*
G75*
G02*
X70874000Y-142550500I0J225500D01*
G01*
G37*
G36*
G01*
X69224000Y-142550500D02*
X69224000Y-141949500D01*
G75*
G02*
X69449500Y-141724000I225500J0D01*
G01*
X69900500Y-141724000D01*
G75*
G02*
X70126000Y-141949500I0J-225500D01*
G01*
X70126000Y-142550500D01*
G75*
G02*
X69900500Y-142776000I-225500J0D01*
G01*
X69449500Y-142776000D01*
G75*
G02*
X69224000Y-142550500I0J225500D01*
G01*
G37*
G36*
G01*
X52276000Y-141699500D02*
X52276000Y-142300500D01*
G75*
G02*
X52050500Y-142526000I-225500J0D01*
G01*
X51599500Y-142526000D01*
G75*
G02*
X51374000Y-142300500I0J225500D01*
G01*
X51374000Y-141699500D01*
G75*
G02*
X51599500Y-141474000I225500J0D01*
G01*
X52050500Y-141474000D01*
G75*
G02*
X52276000Y-141699500I0J-225500D01*
G01*
G37*
G36*
G01*
X50626000Y-141699500D02*
X50626000Y-142300500D01*
G75*
G02*
X50400500Y-142526000I-225500J0D01*
G01*
X49949500Y-142526000D01*
G75*
G02*
X49724000Y-142300500I0J225500D01*
G01*
X49724000Y-141699500D01*
G75*
G02*
X49949500Y-141474000I225500J0D01*
G01*
X50400500Y-141474000D01*
G75*
G02*
X50626000Y-141699500I0J-225500D01*
G01*
G37*
G36*
G01*
X51374000Y-140050500D02*
X51374000Y-139449500D01*
G75*
G02*
X51599500Y-139224000I225500J0D01*
G01*
X52050500Y-139224000D01*
G75*
G02*
X52276000Y-139449500I0J-225500D01*
G01*
X52276000Y-140050500D01*
G75*
G02*
X52050500Y-140276000I-225500J0D01*
G01*
X51599500Y-140276000D01*
G75*
G02*
X51374000Y-140050500I0J225500D01*
G01*
G37*
G36*
G01*
X49724000Y-140050500D02*
X49724000Y-139449500D01*
G75*
G02*
X49949500Y-139224000I225500J0D01*
G01*
X50400500Y-139224000D01*
G75*
G02*
X50626000Y-139449500I0J-225500D01*
G01*
X50626000Y-140050500D01*
G75*
G02*
X50400500Y-140276000I-225500J0D01*
G01*
X49949500Y-140276000D01*
G75*
G02*
X49724000Y-140050500I0J225500D01*
G01*
G37*
G36*
G01*
X91300500Y-116776000D02*
X90699500Y-116776000D01*
G75*
G02*
X90474000Y-116550500I0J225500D01*
G01*
X90474000Y-116099500D01*
G75*
G02*
X90699500Y-115874000I225500J0D01*
G01*
X91300500Y-115874000D01*
G75*
G02*
X91526000Y-116099500I0J-225500D01*
G01*
X91526000Y-116550500D01*
G75*
G02*
X91300500Y-116776000I-225500J0D01*
G01*
G37*
G36*
G01*
X91300500Y-115126000D02*
X90699500Y-115126000D01*
G75*
G02*
X90474000Y-114900500I0J225500D01*
G01*
X90474000Y-114449500D01*
G75*
G02*
X90699500Y-114224000I225500J0D01*
G01*
X91300500Y-114224000D01*
G75*
G02*
X91526000Y-114449500I0J-225500D01*
G01*
X91526000Y-114900500D01*
G75*
G02*
X91300500Y-115126000I-225500J0D01*
G01*
G37*
G36*
G01*
X90699500Y-121374000D02*
X91300500Y-121374000D01*
G75*
G02*
X91526000Y-121599500I0J-225500D01*
G01*
X91526000Y-122050500D01*
G75*
G02*
X91300500Y-122276000I-225500J0D01*
G01*
X90699500Y-122276000D01*
G75*
G02*
X90474000Y-122050500I0J225500D01*
G01*
X90474000Y-121599500D01*
G75*
G02*
X90699500Y-121374000I225500J0D01*
G01*
G37*
G36*
G01*
X90699500Y-119724000D02*
X91300500Y-119724000D01*
G75*
G02*
X91526000Y-119949500I0J-225500D01*
G01*
X91526000Y-120400500D01*
G75*
G02*
X91300500Y-120626000I-225500J0D01*
G01*
X90699500Y-120626000D01*
G75*
G02*
X90474000Y-120400500I0J225500D01*
G01*
X90474000Y-119949500D01*
G75*
G02*
X90699500Y-119724000I225500J0D01*
G01*
G37*
D17*
X61000000Y-115500000D03*
D18*
X63540000Y-115500000D03*
G36*
G01*
X76412000Y-141324000D02*
X76588000Y-141324000D01*
G75*
G02*
X76676000Y-141412000I0J-88000D01*
G01*
X76676000Y-142213000D01*
G75*
G02*
X76588000Y-142301000I-88000J0D01*
G01*
X76412000Y-142301000D01*
G75*
G02*
X76324000Y-142213000I0J88000D01*
G01*
X76324000Y-141412000D01*
G75*
G02*
X76412000Y-141324000I88000J0D01*
G01*
G37*
G36*
G01*
X75912000Y-141324000D02*
X76088000Y-141324000D01*
G75*
G02*
X76176000Y-141412000I0J-88000D01*
G01*
X76176000Y-142213000D01*
G75*
G02*
X76088000Y-142301000I-88000J0D01*
G01*
X75912000Y-142301000D01*
G75*
G02*
X75824000Y-142213000I0J88000D01*
G01*
X75824000Y-141412000D01*
G75*
G02*
X75912000Y-141324000I88000J0D01*
G01*
G37*
G36*
G01*
X75412000Y-141324000D02*
X75588000Y-141324000D01*
G75*
G02*
X75676000Y-141412000I0J-88000D01*
G01*
X75676000Y-142213000D01*
G75*
G02*
X75588000Y-142301000I-88000J0D01*
G01*
X75412000Y-142301000D01*
G75*
G02*
X75324000Y-142213000I0J88000D01*
G01*
X75324000Y-141412000D01*
G75*
G02*
X75412000Y-141324000I88000J0D01*
G01*
G37*
G36*
G01*
X74912000Y-141324000D02*
X75088000Y-141324000D01*
G75*
G02*
X75176000Y-141412000I0J-88000D01*
G01*
X75176000Y-142213000D01*
G75*
G02*
X75088000Y-142301000I-88000J0D01*
G01*
X74912000Y-142301000D01*
G75*
G02*
X74824000Y-142213000I0J88000D01*
G01*
X74824000Y-141412000D01*
G75*
G02*
X74912000Y-141324000I88000J0D01*
G01*
G37*
G36*
G01*
X73912000Y-142324000D02*
X74713000Y-142324000D01*
G75*
G02*
X74801000Y-142412000I0J-88000D01*
G01*
X74801000Y-142588000D01*
G75*
G02*
X74713000Y-142676000I-88000J0D01*
G01*
X73912000Y-142676000D01*
G75*
G02*
X73824000Y-142588000I0J88000D01*
G01*
X73824000Y-142412000D01*
G75*
G02*
X73912000Y-142324000I88000J0D01*
G01*
G37*
G36*
G01*
X73912000Y-142824000D02*
X74713000Y-142824000D01*
G75*
G02*
X74801000Y-142912000I0J-88000D01*
G01*
X74801000Y-143088000D01*
G75*
G02*
X74713000Y-143176000I-88000J0D01*
G01*
X73912000Y-143176000D01*
G75*
G02*
X73824000Y-143088000I0J88000D01*
G01*
X73824000Y-142912000D01*
G75*
G02*
X73912000Y-142824000I88000J0D01*
G01*
G37*
G36*
G01*
X73912000Y-143324000D02*
X74713000Y-143324000D01*
G75*
G02*
X74801000Y-143412000I0J-88000D01*
G01*
X74801000Y-143588000D01*
G75*
G02*
X74713000Y-143676000I-88000J0D01*
G01*
X73912000Y-143676000D01*
G75*
G02*
X73824000Y-143588000I0J88000D01*
G01*
X73824000Y-143412000D01*
G75*
G02*
X73912000Y-143324000I88000J0D01*
G01*
G37*
G36*
G01*
X73912000Y-143824000D02*
X74713000Y-143824000D01*
G75*
G02*
X74801000Y-143912000I0J-88000D01*
G01*
X74801000Y-144088000D01*
G75*
G02*
X74713000Y-144176000I-88000J0D01*
G01*
X73912000Y-144176000D01*
G75*
G02*
X73824000Y-144088000I0J88000D01*
G01*
X73824000Y-143912000D01*
G75*
G02*
X73912000Y-143824000I88000J0D01*
G01*
G37*
G36*
G01*
X74912000Y-144199000D02*
X75088000Y-144199000D01*
G75*
G02*
X75176000Y-144287000I0J-88000D01*
G01*
X75176000Y-145088000D01*
G75*
G02*
X75088000Y-145176000I-88000J0D01*
G01*
X74912000Y-145176000D01*
G75*
G02*
X74824000Y-145088000I0J88000D01*
G01*
X74824000Y-144287000D01*
G75*
G02*
X74912000Y-144199000I88000J0D01*
G01*
G37*
G36*
G01*
X75412000Y-144199000D02*
X75588000Y-144199000D01*
G75*
G02*
X75676000Y-144287000I0J-88000D01*
G01*
X75676000Y-145088000D01*
G75*
G02*
X75588000Y-145176000I-88000J0D01*
G01*
X75412000Y-145176000D01*
G75*
G02*
X75324000Y-145088000I0J88000D01*
G01*
X75324000Y-144287000D01*
G75*
G02*
X75412000Y-144199000I88000J0D01*
G01*
G37*
G36*
G01*
X75912000Y-144199000D02*
X76088000Y-144199000D01*
G75*
G02*
X76176000Y-144287000I0J-88000D01*
G01*
X76176000Y-145088000D01*
G75*
G02*
X76088000Y-145176000I-88000J0D01*
G01*
X75912000Y-145176000D01*
G75*
G02*
X75824000Y-145088000I0J88000D01*
G01*
X75824000Y-144287000D01*
G75*
G02*
X75912000Y-144199000I88000J0D01*
G01*
G37*
G36*
G01*
X76412000Y-144199000D02*
X76588000Y-144199000D01*
G75*
G02*
X76676000Y-144287000I0J-88000D01*
G01*
X76676000Y-145088000D01*
G75*
G02*
X76588000Y-145176000I-88000J0D01*
G01*
X76412000Y-145176000D01*
G75*
G02*
X76324000Y-145088000I0J88000D01*
G01*
X76324000Y-144287000D01*
G75*
G02*
X76412000Y-144199000I88000J0D01*
G01*
G37*
G36*
G01*
X76787000Y-143824000D02*
X77588000Y-143824000D01*
G75*
G02*
X77676000Y-143912000I0J-88000D01*
G01*
X77676000Y-144088000D01*
G75*
G02*
X77588000Y-144176000I-88000J0D01*
G01*
X76787000Y-144176000D01*
G75*
G02*
X76699000Y-144088000I0J88000D01*
G01*
X76699000Y-143912000D01*
G75*
G02*
X76787000Y-143824000I88000J0D01*
G01*
G37*
G36*
G01*
X76787000Y-143324000D02*
X77588000Y-143324000D01*
G75*
G02*
X77676000Y-143412000I0J-88000D01*
G01*
X77676000Y-143588000D01*
G75*
G02*
X77588000Y-143676000I-88000J0D01*
G01*
X76787000Y-143676000D01*
G75*
G02*
X76699000Y-143588000I0J88000D01*
G01*
X76699000Y-143412000D01*
G75*
G02*
X76787000Y-143324000I88000J0D01*
G01*
G37*
G36*
G01*
X76787000Y-142824000D02*
X77588000Y-142824000D01*
G75*
G02*
X77676000Y-142912000I0J-88000D01*
G01*
X77676000Y-143088000D01*
G75*
G02*
X77588000Y-143176000I-88000J0D01*
G01*
X76787000Y-143176000D01*
G75*
G02*
X76699000Y-143088000I0J88000D01*
G01*
X76699000Y-142912000D01*
G75*
G02*
X76787000Y-142824000I88000J0D01*
G01*
G37*
G36*
G01*
X76787000Y-142324000D02*
X77588000Y-142324000D01*
G75*
G02*
X77676000Y-142412000I0J-88000D01*
G01*
X77676000Y-142588000D01*
G75*
G02*
X77588000Y-142676000I-88000J0D01*
G01*
X76787000Y-142676000D01*
G75*
G02*
X76699000Y-142588000I0J88000D01*
G01*
X76699000Y-142412000D01*
G75*
G02*
X76787000Y-142324000I88000J0D01*
G01*
G37*
G36*
G01*
X74950000Y-142399000D02*
X76550000Y-142399000D01*
G75*
G02*
X76601000Y-142450000I0J-51000D01*
G01*
X76601000Y-144050000D01*
G75*
G02*
X76550000Y-144101000I-51000J0D01*
G01*
X74950000Y-144101000D01*
G75*
G02*
X74899000Y-144050000I0J51000D01*
G01*
X74899000Y-142450000D01*
G75*
G02*
X74950000Y-142399000I51000J0D01*
G01*
G37*
G36*
G01*
X54474000Y-143800000D02*
X54474000Y-141200000D01*
G75*
G02*
X54525000Y-141149000I51000J0D01*
G01*
X56475000Y-141149000D01*
G75*
G02*
X56526000Y-141200000I0J-51000D01*
G01*
X56526000Y-143800000D01*
G75*
G02*
X56475000Y-143851000I-51000J0D01*
G01*
X54525000Y-143851000D01*
G75*
G02*
X54474000Y-143800000I0J51000D01*
G01*
G37*
G36*
G01*
X56424000Y-143800000D02*
X56424000Y-143400000D01*
G75*
G02*
X56475000Y-143349000I51000J0D01*
G01*
X57150000Y-143349000D01*
G75*
G02*
X57201000Y-143400000I0J-51000D01*
G01*
X57201000Y-143800000D01*
G75*
G02*
X57150000Y-143851000I-51000J0D01*
G01*
X56475000Y-143851000D01*
G75*
G02*
X56424000Y-143800000I0J51000D01*
G01*
G37*
G36*
G01*
X56424000Y-141600000D02*
X56424000Y-141200000D01*
G75*
G02*
X56475000Y-141149000I51000J0D01*
G01*
X57150000Y-141149000D01*
G75*
G02*
X57201000Y-141200000I0J-51000D01*
G01*
X57201000Y-141600000D01*
G75*
G02*
X57150000Y-141651000I-51000J0D01*
G01*
X56475000Y-141651000D01*
G75*
G02*
X56424000Y-141600000I0J51000D01*
G01*
G37*
G36*
G01*
X53799000Y-141600000D02*
X53799000Y-141200000D01*
G75*
G02*
X53850000Y-141149000I51000J0D01*
G01*
X54525000Y-141149000D01*
G75*
G02*
X54576000Y-141200000I0J-51000D01*
G01*
X54576000Y-141600000D01*
G75*
G02*
X54525000Y-141651000I-51000J0D01*
G01*
X53850000Y-141651000D01*
G75*
G02*
X53799000Y-141600000I0J51000D01*
G01*
G37*
G36*
G01*
X53799000Y-143800000D02*
X53799000Y-143400000D01*
G75*
G02*
X53850000Y-143349000I51000J0D01*
G01*
X54525000Y-143349000D01*
G75*
G02*
X54576000Y-143400000I0J-51000D01*
G01*
X54576000Y-143800000D01*
G75*
G02*
X54525000Y-143851000I-51000J0D01*
G01*
X53850000Y-143851000D01*
G75*
G02*
X53799000Y-143800000I0J51000D01*
G01*
G37*
G36*
G01*
X55400000Y-144950000D02*
X55200000Y-144950000D01*
G75*
G02*
X55150000Y-144900000I0J50000D01*
G01*
X55150000Y-144700000D01*
G75*
G02*
X55200000Y-144650000I50000J0D01*
G01*
X55400000Y-144650000D01*
G75*
G02*
X55450000Y-144700000I0J-50000D01*
G01*
X55450000Y-144900000D01*
G75*
G02*
X55400000Y-144950000I-50000J0D01*
G01*
G37*
D19*
X55300000Y-144475000D03*
X54900000Y-144475000D03*
X54500000Y-144475000D03*
X55700000Y-144475000D03*
X56100000Y-144475000D03*
X56500000Y-144475000D03*
X54500000Y-140525000D03*
X54900000Y-140525000D03*
X55300000Y-140525000D03*
X55700000Y-140525000D03*
X56100000Y-140525000D03*
X56500000Y-140525000D03*
G36*
G01*
X55800000Y-144950000D02*
X55600000Y-144950000D01*
G75*
G02*
X55550000Y-144900000I0J50000D01*
G01*
X55550000Y-144700000D01*
G75*
G02*
X55600000Y-144650000I50000J0D01*
G01*
X55800000Y-144650000D01*
G75*
G02*
X55850000Y-144700000I0J-50000D01*
G01*
X55850000Y-144900000D01*
G75*
G02*
X55800000Y-144950000I-50000J0D01*
G01*
G37*
G36*
G01*
X56200000Y-144950000D02*
X56000000Y-144950000D01*
G75*
G02*
X55950000Y-144900000I0J50000D01*
G01*
X55950000Y-144700000D01*
G75*
G02*
X56000000Y-144650000I50000J0D01*
G01*
X56200000Y-144650000D01*
G75*
G02*
X56250000Y-144700000I0J-50000D01*
G01*
X56250000Y-144900000D01*
G75*
G02*
X56200000Y-144950000I-50000J0D01*
G01*
G37*
G36*
G01*
X56600000Y-144950000D02*
X56400000Y-144950000D01*
G75*
G02*
X56350000Y-144900000I0J50000D01*
G01*
X56350000Y-144700000D01*
G75*
G02*
X56400000Y-144650000I50000J0D01*
G01*
X56600000Y-144650000D01*
G75*
G02*
X56650000Y-144700000I0J-50000D01*
G01*
X56650000Y-144900000D01*
G75*
G02*
X56600000Y-144950000I-50000J0D01*
G01*
G37*
G36*
G01*
X55000000Y-144950000D02*
X54800000Y-144950000D01*
G75*
G02*
X54750000Y-144900000I0J50000D01*
G01*
X54750000Y-144700000D01*
G75*
G02*
X54800000Y-144650000I50000J0D01*
G01*
X55000000Y-144650000D01*
G75*
G02*
X55050000Y-144700000I0J-50000D01*
G01*
X55050000Y-144900000D01*
G75*
G02*
X55000000Y-144950000I-50000J0D01*
G01*
G37*
G36*
G01*
X54600000Y-144950000D02*
X54400000Y-144950000D01*
G75*
G02*
X54350000Y-144900000I0J50000D01*
G01*
X54350000Y-144700000D01*
G75*
G02*
X54400000Y-144650000I50000J0D01*
G01*
X54600000Y-144650000D01*
G75*
G02*
X54650000Y-144700000I0J-50000D01*
G01*
X54650000Y-144900000D01*
G75*
G02*
X54600000Y-144950000I-50000J0D01*
G01*
G37*
G36*
G01*
X54600000Y-140350000D02*
X54400000Y-140350000D01*
G75*
G02*
X54350000Y-140300000I0J50000D01*
G01*
X54350000Y-140100000D01*
G75*
G02*
X54400000Y-140050000I50000J0D01*
G01*
X54600000Y-140050000D01*
G75*
G02*
X54650000Y-140100000I0J-50000D01*
G01*
X54650000Y-140300000D01*
G75*
G02*
X54600000Y-140350000I-50000J0D01*
G01*
G37*
G36*
G01*
X55000000Y-140350000D02*
X54800000Y-140350000D01*
G75*
G02*
X54750000Y-140300000I0J50000D01*
G01*
X54750000Y-140100000D01*
G75*
G02*
X54800000Y-140050000I50000J0D01*
G01*
X55000000Y-140050000D01*
G75*
G02*
X55050000Y-140100000I0J-50000D01*
G01*
X55050000Y-140300000D01*
G75*
G02*
X55000000Y-140350000I-50000J0D01*
G01*
G37*
G36*
G01*
X55400000Y-140350000D02*
X55200000Y-140350000D01*
G75*
G02*
X55150000Y-140300000I0J50000D01*
G01*
X55150000Y-140100000D01*
G75*
G02*
X55200000Y-140050000I50000J0D01*
G01*
X55400000Y-140050000D01*
G75*
G02*
X55450000Y-140100000I0J-50000D01*
G01*
X55450000Y-140300000D01*
G75*
G02*
X55400000Y-140350000I-50000J0D01*
G01*
G37*
G36*
G01*
X55800000Y-140350000D02*
X55600000Y-140350000D01*
G75*
G02*
X55550000Y-140300000I0J50000D01*
G01*
X55550000Y-140100000D01*
G75*
G02*
X55600000Y-140050000I50000J0D01*
G01*
X55800000Y-140050000D01*
G75*
G02*
X55850000Y-140100000I0J-50000D01*
G01*
X55850000Y-140300000D01*
G75*
G02*
X55800000Y-140350000I-50000J0D01*
G01*
G37*
G36*
G01*
X56200000Y-140350000D02*
X56000000Y-140350000D01*
G75*
G02*
X55950000Y-140300000I0J50000D01*
G01*
X55950000Y-140100000D01*
G75*
G02*
X56000000Y-140050000I50000J0D01*
G01*
X56200000Y-140050000D01*
G75*
G02*
X56250000Y-140100000I0J-50000D01*
G01*
X56250000Y-140300000D01*
G75*
G02*
X56200000Y-140350000I-50000J0D01*
G01*
G37*
G36*
G01*
X56600000Y-140350000D02*
X56400000Y-140350000D01*
G75*
G02*
X56350000Y-140300000I0J50000D01*
G01*
X56350000Y-140100000D01*
G75*
G02*
X56400000Y-140050000I50000J0D01*
G01*
X56600000Y-140050000D01*
G75*
G02*
X56650000Y-140100000I0J-50000D01*
G01*
X56650000Y-140300000D01*
G75*
G02*
X56600000Y-140350000I-50000J0D01*
G01*
G37*
G36*
G01*
X54474000Y-143800000D02*
X54474000Y-141200000D01*
G75*
G02*
X54525000Y-141149000I51000J0D01*
G01*
X56475000Y-141149000D01*
G75*
G02*
X56526000Y-141200000I0J-51000D01*
G01*
X56526000Y-143800000D01*
G75*
G02*
X56475000Y-143851000I-51000J0D01*
G01*
X54525000Y-143851000D01*
G75*
G02*
X54474000Y-143800000I0J51000D01*
G01*
G37*
G36*
G01*
X56526500Y-141600000D02*
X56526500Y-141200000D01*
G75*
G02*
X56577500Y-141149000I51000J0D01*
G01*
X57152500Y-141149000D01*
G75*
G02*
X57203500Y-141200000I0J-51000D01*
G01*
X57203500Y-141600000D01*
G75*
G02*
X57152500Y-141651000I-51000J0D01*
G01*
X56577500Y-141651000D01*
G75*
G02*
X56526500Y-141600000I0J51000D01*
G01*
G37*
G36*
G01*
X53796500Y-141600000D02*
X53796500Y-141200000D01*
G75*
G02*
X53847500Y-141149000I51000J0D01*
G01*
X54422500Y-141149000D01*
G75*
G02*
X54473500Y-141200000I0J-51000D01*
G01*
X54473500Y-141600000D01*
G75*
G02*
X54422500Y-141651000I-51000J0D01*
G01*
X53847500Y-141651000D01*
G75*
G02*
X53796500Y-141600000I0J51000D01*
G01*
G37*
G36*
G01*
X53796500Y-143800000D02*
X53796500Y-143400000D01*
G75*
G02*
X53847500Y-143349000I51000J0D01*
G01*
X54422500Y-143349000D01*
G75*
G02*
X54473500Y-143400000I0J-51000D01*
G01*
X54473500Y-143800000D01*
G75*
G02*
X54422500Y-143851000I-51000J0D01*
G01*
X53847500Y-143851000D01*
G75*
G02*
X53796500Y-143800000I0J51000D01*
G01*
G37*
G36*
G01*
X56526500Y-143800000D02*
X56526500Y-143400000D01*
G75*
G02*
X56577500Y-143349000I51000J0D01*
G01*
X57152500Y-143349000D01*
G75*
G02*
X57203500Y-143400000I0J-51000D01*
G01*
X57203500Y-143800000D01*
G75*
G02*
X57152500Y-143851000I-51000J0D01*
G01*
X56577500Y-143851000D01*
G75*
G02*
X56526500Y-143800000I0J51000D01*
G01*
G37*
G36*
G01*
X91124001Y-144860501D02*
X91124001Y-144509501D01*
G75*
G02*
X91299501Y-144334001I175500J0D01*
G01*
X92375501Y-144334001D01*
G75*
G02*
X92551001Y-144509501I0J-175500D01*
G01*
X92551001Y-144860501D01*
G75*
G02*
X92375501Y-145036001I-175500J0D01*
G01*
X91299501Y-145036001D01*
G75*
G02*
X91124001Y-144860501I0J175500D01*
G01*
G37*
G36*
G01*
X91124001Y-145810501D02*
X91124001Y-145459501D01*
G75*
G02*
X91299501Y-145284001I175500J0D01*
G01*
X92375501Y-145284001D01*
G75*
G02*
X92551001Y-145459501I0J-175500D01*
G01*
X92551001Y-145810501D01*
G75*
G02*
X92375501Y-145986001I-175500J0D01*
G01*
X91299501Y-145986001D01*
G75*
G02*
X91124001Y-145810501I0J175500D01*
G01*
G37*
G36*
G01*
X91124001Y-146760501D02*
X91124001Y-146409501D01*
G75*
G02*
X91299501Y-146234001I175500J0D01*
G01*
X92375501Y-146234001D01*
G75*
G02*
X92551001Y-146409501I0J-175500D01*
G01*
X92551001Y-146760501D01*
G75*
G02*
X92375501Y-146936001I-175500J0D01*
G01*
X91299501Y-146936001D01*
G75*
G02*
X91124001Y-146760501I0J175500D01*
G01*
G37*
G36*
G01*
X93399001Y-146760501D02*
X93399001Y-146409501D01*
G75*
G02*
X93574501Y-146234001I175500J0D01*
G01*
X94650501Y-146234001D01*
G75*
G02*
X94826001Y-146409501I0J-175500D01*
G01*
X94826001Y-146760501D01*
G75*
G02*
X94650501Y-146936001I-175500J0D01*
G01*
X93574501Y-146936001D01*
G75*
G02*
X93399001Y-146760501I0J175500D01*
G01*
G37*
G36*
G01*
X93399001Y-144860501D02*
X93399001Y-144509501D01*
G75*
G02*
X93574501Y-144334001I175500J0D01*
G01*
X94650501Y-144334001D01*
G75*
G02*
X94826001Y-144509501I0J-175500D01*
G01*
X94826001Y-144860501D01*
G75*
G02*
X94650501Y-145036001I-175500J0D01*
G01*
X93574501Y-145036001D01*
G75*
G02*
X93399001Y-144860501I0J175500D01*
G01*
G37*
G36*
G01*
X95899000Y-144957113D02*
X95899000Y-144042887D01*
G75*
G02*
X96167887Y-143774000I268887J0D01*
G01*
X97132113Y-143774000D01*
G75*
G02*
X97401000Y-144042887I0J-268887D01*
G01*
X97401000Y-144957113D01*
G75*
G02*
X97132113Y-145226000I-268887J0D01*
G01*
X96167887Y-145226000D01*
G75*
G02*
X95899000Y-144957113I0J268887D01*
G01*
G37*
G36*
G01*
X98599000Y-144957113D02*
X98599000Y-144042887D01*
G75*
G02*
X98867887Y-143774000I268887J0D01*
G01*
X99832113Y-143774000D01*
G75*
G02*
X100101000Y-144042887I0J-268887D01*
G01*
X100101000Y-144957113D01*
G75*
G02*
X99832113Y-145226000I-268887J0D01*
G01*
X98867887Y-145226000D01*
G75*
G02*
X98599000Y-144957113I0J268887D01*
G01*
G37*
G36*
G01*
X57601000Y-136821172D02*
X57601000Y-138178828D01*
G75*
G02*
X57328828Y-138451000I-272172J0D01*
G01*
X56621172Y-138451000D01*
G75*
G02*
X56349000Y-138178828I0J272172D01*
G01*
X56349000Y-136821172D01*
G75*
G02*
X56621172Y-136549000I272172J0D01*
G01*
X57328828Y-136549000D01*
G75*
G02*
X57601000Y-136821172I0J-272172D01*
G01*
G37*
G36*
G01*
X54651000Y-136821172D02*
X54651000Y-138178828D01*
G75*
G02*
X54378828Y-138451000I-272172J0D01*
G01*
X53671172Y-138451000D01*
G75*
G02*
X53399000Y-138178828I0J272172D01*
G01*
X53399000Y-136821172D01*
G75*
G02*
X53671172Y-136549000I272172J0D01*
G01*
X54378828Y-136549000D01*
G75*
G02*
X54651000Y-136821172I0J-272172D01*
G01*
G37*
D20*
X85100000Y-152100000D03*
X76900000Y-152100000D03*
G36*
G01*
X83551000Y-150650000D02*
X83551000Y-153550000D01*
G75*
G02*
X83500000Y-153601000I-51000J0D01*
G01*
X82500000Y-153601000D01*
G75*
G02*
X82449000Y-153550000I0J51000D01*
G01*
X82449000Y-150650000D01*
G75*
G02*
X82500000Y-150599000I51000J0D01*
G01*
X83500000Y-150599000D01*
G75*
G02*
X83551000Y-150650000I0J-51000D01*
G01*
G37*
G36*
G01*
X81551000Y-150650000D02*
X81551000Y-153550000D01*
G75*
G02*
X81500000Y-153601000I-51000J0D01*
G01*
X80500000Y-153601000D01*
G75*
G02*
X80449000Y-153550000I0J51000D01*
G01*
X80449000Y-150650000D01*
G75*
G02*
X80500000Y-150599000I51000J0D01*
G01*
X81500000Y-150599000D01*
G75*
G02*
X81551000Y-150650000I0J-51000D01*
G01*
G37*
G36*
G01*
X79551000Y-150650000D02*
X79551000Y-153550000D01*
G75*
G02*
X79500000Y-153601000I-51000J0D01*
G01*
X78500000Y-153601000D01*
G75*
G02*
X78449000Y-153550000I0J51000D01*
G01*
X78449000Y-150650000D01*
G75*
G02*
X78500000Y-150599000I51000J0D01*
G01*
X79500000Y-150599000D01*
G75*
G02*
X79551000Y-150650000I0J-51000D01*
G01*
G37*
D10*
X79000000Y-137500000D03*
X61000000Y-144000000D03*
X85000000Y-137000000D03*
X102500000Y-141500000D03*
G36*
G01*
X54324000Y-121900000D02*
X54324000Y-118600000D01*
G75*
G02*
X54375000Y-118549000I51000J0D01*
G01*
X55625000Y-118549000D01*
G75*
G02*
X55676000Y-118600000I0J-51000D01*
G01*
X55676000Y-121900000D01*
G75*
G02*
X55625000Y-121951000I-51000J0D01*
G01*
X54375000Y-121951000D01*
G75*
G02*
X54324000Y-121900000I0J51000D01*
G01*
G37*
G36*
G01*
X52324000Y-121900000D02*
X52324000Y-118600000D01*
G75*
G02*
X52375000Y-118549000I51000J0D01*
G01*
X53625000Y-118549000D01*
G75*
G02*
X53676000Y-118600000I0J-51000D01*
G01*
X53676000Y-121900000D01*
G75*
G02*
X53625000Y-121951000I-51000J0D01*
G01*
X52375000Y-121951000D01*
G75*
G02*
X52324000Y-121900000I0J51000D01*
G01*
G37*
G36*
G01*
X94276000Y-157224500D02*
X94276000Y-157775500D01*
G75*
G02*
X94025500Y-158026000I-250500J0D01*
G01*
X93524500Y-158026000D01*
G75*
G02*
X93274000Y-157775500I0J250500D01*
G01*
X93274000Y-157224500D01*
G75*
G02*
X93524500Y-156974000I250500J0D01*
G01*
X94025500Y-156974000D01*
G75*
G02*
X94276000Y-157224500I0J-250500D01*
G01*
G37*
G36*
G01*
X92726000Y-157224500D02*
X92726000Y-157775500D01*
G75*
G02*
X92475500Y-158026000I-250500J0D01*
G01*
X91974500Y-158026000D01*
G75*
G02*
X91724000Y-157775500I0J250500D01*
G01*
X91724000Y-157224500D01*
G75*
G02*
X91974500Y-156974000I250500J0D01*
G01*
X92475500Y-156974000D01*
G75*
G02*
X92726000Y-157224500I0J-250500D01*
G01*
G37*
G36*
G01*
X52000000Y-156999000D02*
X53000000Y-156999000D01*
G75*
G02*
X53051000Y-157050000I0J-51000D01*
G01*
X53051000Y-157950000D01*
G75*
G02*
X53000000Y-158001000I-51000J0D01*
G01*
X52000000Y-158001000D01*
G75*
G02*
X51949000Y-157950000I0J51000D01*
G01*
X51949000Y-157050000D01*
G75*
G02*
X52000000Y-156999000I51000J0D01*
G01*
G37*
G36*
G01*
X49000000Y-156999000D02*
X50000000Y-156999000D01*
G75*
G02*
X50051000Y-157050000I0J-51000D01*
G01*
X50051000Y-157950000D01*
G75*
G02*
X50000000Y-158001000I-51000J0D01*
G01*
X49000000Y-158001000D01*
G75*
G02*
X48949000Y-157950000I0J51000D01*
G01*
X48949000Y-157050000D01*
G75*
G02*
X49000000Y-156999000I51000J0D01*
G01*
G37*
G36*
G01*
X50299000Y-157450000D02*
X50299000Y-156650000D01*
G75*
G02*
X50350000Y-156599000I51000J0D01*
G01*
X50750000Y-156599000D01*
G75*
G02*
X50801000Y-156650000I0J-51000D01*
G01*
X50801000Y-157450000D01*
G75*
G02*
X50750000Y-157501000I-51000J0D01*
G01*
X50350000Y-157501000D01*
G75*
G02*
X50299000Y-157450000I0J51000D01*
G01*
G37*
G36*
G01*
X51149000Y-157450000D02*
X51149000Y-156650000D01*
G75*
G02*
X51200000Y-156599000I51000J0D01*
G01*
X51600000Y-156599000D01*
G75*
G02*
X51651000Y-156650000I0J-51000D01*
G01*
X51651000Y-157450000D01*
G75*
G02*
X51600000Y-157501000I-51000J0D01*
G01*
X51200000Y-157501000D01*
G75*
G02*
X51149000Y-157450000I0J51000D01*
G01*
G37*
G36*
G01*
X52800500Y-154126000D02*
X52199500Y-154126000D01*
G75*
G02*
X51974000Y-153900500I0J225500D01*
G01*
X51974000Y-153449500D01*
G75*
G02*
X52199500Y-153224000I225500J0D01*
G01*
X52800500Y-153224000D01*
G75*
G02*
X53026000Y-153449500I0J-225500D01*
G01*
X53026000Y-153900500D01*
G75*
G02*
X52800500Y-154126000I-225500J0D01*
G01*
G37*
G36*
G01*
X52800500Y-155776000D02*
X52199500Y-155776000D01*
G75*
G02*
X51974000Y-155550500I0J225500D01*
G01*
X51974000Y-155099500D01*
G75*
G02*
X52199500Y-154874000I225500J0D01*
G01*
X52800500Y-154874000D01*
G75*
G02*
X53026000Y-155099500I0J-225500D01*
G01*
X53026000Y-155550500D01*
G75*
G02*
X52800500Y-155776000I-225500J0D01*
G01*
G37*
G36*
G01*
X49800500Y-155776000D02*
X49199500Y-155776000D01*
G75*
G02*
X48974000Y-155550500I0J225500D01*
G01*
X48974000Y-155099500D01*
G75*
G02*
X49199500Y-154874000I225500J0D01*
G01*
X49800500Y-154874000D01*
G75*
G02*
X50026000Y-155099500I0J-225500D01*
G01*
X50026000Y-155550500D01*
G75*
G02*
X49800500Y-155776000I-225500J0D01*
G01*
G37*
G36*
G01*
X49800500Y-154126000D02*
X49199500Y-154126000D01*
G75*
G02*
X48974000Y-153900500I0J225500D01*
G01*
X48974000Y-153449500D01*
G75*
G02*
X49199500Y-153224000I225500J0D01*
G01*
X49800500Y-153224000D01*
G75*
G02*
X50026000Y-153449500I0J-225500D01*
G01*
X50026000Y-153900500D01*
G75*
G02*
X49800500Y-154126000I-225500J0D01*
G01*
G37*
G36*
G01*
X51300500Y-155776000D02*
X50699500Y-155776000D01*
G75*
G02*
X50474000Y-155550500I0J225500D01*
G01*
X50474000Y-155099500D01*
G75*
G02*
X50699500Y-154874000I225500J0D01*
G01*
X51300500Y-154874000D01*
G75*
G02*
X51526000Y-155099500I0J-225500D01*
G01*
X51526000Y-155550500D01*
G75*
G02*
X51300500Y-155776000I-225500J0D01*
G01*
G37*
G36*
G01*
X51300500Y-154126000D02*
X50699500Y-154126000D01*
G75*
G02*
X50474000Y-153900500I0J225500D01*
G01*
X50474000Y-153449500D01*
G75*
G02*
X50699500Y-153224000I225500J0D01*
G01*
X51300500Y-153224000D01*
G75*
G02*
X51526000Y-153449500I0J-225500D01*
G01*
X51526000Y-153900500D01*
G75*
G02*
X51300500Y-154126000I-225500J0D01*
G01*
G37*
D21*
X91500000Y-154000000D03*
G36*
G01*
X91049000Y-155200000D02*
X91049000Y-154800000D01*
G75*
G02*
X91100000Y-154749000I51000J0D01*
G01*
X91900000Y-154749000D01*
G75*
G02*
X91951000Y-154800000I0J-51000D01*
G01*
X91951000Y-155200000D01*
G75*
G02*
X91900000Y-155251000I-51000J0D01*
G01*
X91100000Y-155251000D01*
G75*
G02*
X91049000Y-155200000I0J51000D01*
G01*
G37*
G36*
G01*
X91049000Y-156200000D02*
X91049000Y-155800000D01*
G75*
G02*
X91100000Y-155749000I51000J0D01*
G01*
X91900000Y-155749000D01*
G75*
G02*
X91951000Y-155800000I0J-51000D01*
G01*
X91951000Y-156200000D01*
G75*
G02*
X91900000Y-156251000I-51000J0D01*
G01*
X91100000Y-156251000D01*
G75*
G02*
X91049000Y-156200000I0J51000D01*
G01*
G37*
G36*
G01*
X94049000Y-156200000D02*
X94049000Y-155800000D01*
G75*
G02*
X94100000Y-155749000I51000J0D01*
G01*
X94900000Y-155749000D01*
G75*
G02*
X94951000Y-155800000I0J-51000D01*
G01*
X94951000Y-156200000D01*
G75*
G02*
X94900000Y-156251000I-51000J0D01*
G01*
X94100000Y-156251000D01*
G75*
G02*
X94049000Y-156200000I0J51000D01*
G01*
G37*
G36*
G01*
X94049000Y-155200000D02*
X94049000Y-154800000D01*
G75*
G02*
X94100000Y-154749000I51000J0D01*
G01*
X94900000Y-154749000D01*
G75*
G02*
X94951000Y-154800000I0J-51000D01*
G01*
X94951000Y-155200000D01*
G75*
G02*
X94900000Y-155251000I-51000J0D01*
G01*
X94100000Y-155251000D01*
G75*
G02*
X94049000Y-155200000I0J51000D01*
G01*
G37*
G36*
G01*
X94049000Y-154200000D02*
X94049000Y-153800000D01*
G75*
G02*
X94100000Y-153749000I51000J0D01*
G01*
X94900000Y-153749000D01*
G75*
G02*
X94951000Y-153800000I0J-51000D01*
G01*
X94951000Y-154200000D01*
G75*
G02*
X94900000Y-154251000I-51000J0D01*
G01*
X94100000Y-154251000D01*
G75*
G02*
X94049000Y-154200000I0J51000D01*
G01*
G37*
G36*
G01*
X92199000Y-156200000D02*
X92199000Y-153800000D01*
G75*
G02*
X92250000Y-153749000I51000J0D01*
G01*
X93750000Y-153749000D01*
G75*
G02*
X93801000Y-153800000I0J-51000D01*
G01*
X93801000Y-156200000D01*
G75*
G02*
X93750000Y-156251000I-51000J0D01*
G01*
X92250000Y-156251000D01*
G75*
G02*
X92199000Y-156200000I0J51000D01*
G01*
G37*
D22*
G36*
X50300165Y-156872375D02*
G01*
X50301000Y-156874001D01*
X50301000Y-157501000D01*
X50300000Y-157502732D01*
X50299000Y-157503000D01*
X50176093Y-157503000D01*
X50152008Y-157505372D01*
X50128933Y-157512372D01*
X50107669Y-157523737D01*
X50089032Y-157539032D01*
X50073737Y-157557669D01*
X50062372Y-157578933D01*
X50055372Y-157602008D01*
X50052990Y-157626195D01*
X50051825Y-157627821D01*
X50049835Y-157627625D01*
X50049000Y-157625999D01*
X50049000Y-156999000D01*
X50050000Y-156997268D01*
X50051000Y-156997000D01*
X50173907Y-156997000D01*
X50197992Y-156994628D01*
X50221067Y-156987628D01*
X50242331Y-156976263D01*
X50260968Y-156960968D01*
X50276263Y-156942331D01*
X50287628Y-156921067D01*
X50294628Y-156897992D01*
X50297010Y-156873805D01*
X50298175Y-156872179D01*
X50300165Y-156872375D01*
G37*
G36*
X92200165Y-155622375D02*
G01*
X92201000Y-155624001D01*
X92201000Y-156251000D01*
X92200000Y-156252732D01*
X92199000Y-156253000D01*
X91951000Y-156253000D01*
X91949268Y-156252000D01*
X91949000Y-156251000D01*
X91949000Y-155749000D01*
X91950000Y-155747268D01*
X91951000Y-155747000D01*
X92073907Y-155747000D01*
X92097992Y-155744628D01*
X92121067Y-155737628D01*
X92142331Y-155726263D01*
X92160968Y-155710968D01*
X92176263Y-155692331D01*
X92187628Y-155671067D01*
X92194628Y-155647992D01*
X92197010Y-155623805D01*
X92198175Y-155622179D01*
X92200165Y-155622375D01*
G37*
G36*
X93802990Y-155623805D02*
G01*
X93805372Y-155647992D01*
X93812372Y-155671067D01*
X93823737Y-155692331D01*
X93839032Y-155710968D01*
X93857669Y-155726263D01*
X93878933Y-155737628D01*
X93902008Y-155744628D01*
X93926093Y-155747000D01*
X94049000Y-155747000D01*
X94050732Y-155748000D01*
X94051000Y-155749000D01*
X94051000Y-156251000D01*
X94050000Y-156252732D01*
X94049000Y-156253000D01*
X93801000Y-156253000D01*
X93799268Y-156252000D01*
X93799000Y-156251000D01*
X93799000Y-155624001D01*
X93800000Y-155622269D01*
X93802000Y-155622269D01*
X93802990Y-155623805D01*
G37*
G36*
X93802990Y-154623805D02*
G01*
X93805372Y-154647992D01*
X93812372Y-154671067D01*
X93823737Y-154692331D01*
X93839032Y-154710968D01*
X93857669Y-154726263D01*
X93878933Y-154737628D01*
X93902008Y-154744628D01*
X93926093Y-154747000D01*
X94049000Y-154747000D01*
X94050732Y-154748000D01*
X94051000Y-154749000D01*
X94051000Y-155251000D01*
X94050000Y-155252732D01*
X94049000Y-155253000D01*
X93926093Y-155253000D01*
X93902008Y-155255372D01*
X93878933Y-155262372D01*
X93857669Y-155273737D01*
X93839032Y-155289032D01*
X93823737Y-155307669D01*
X93812372Y-155328933D01*
X93805372Y-155352008D01*
X93802990Y-155376195D01*
X93801825Y-155377821D01*
X93799835Y-155377625D01*
X93799000Y-155375999D01*
X93799000Y-154624001D01*
X93800000Y-154622269D01*
X93802000Y-154622269D01*
X93802990Y-154623805D01*
G37*
G36*
X92200165Y-154622375D02*
G01*
X92201000Y-154624001D01*
X92201000Y-155375999D01*
X92200000Y-155377731D01*
X92198000Y-155377731D01*
X92197010Y-155376195D01*
X92194628Y-155352008D01*
X92187628Y-155328933D01*
X92176263Y-155307669D01*
X92160968Y-155289032D01*
X92142331Y-155273737D01*
X92121067Y-155262372D01*
X92097992Y-155255372D01*
X92073907Y-155253000D01*
X91951000Y-155253000D01*
X91949268Y-155252000D01*
X91949000Y-155251000D01*
X91949000Y-154749000D01*
X91950000Y-154747268D01*
X91951000Y-154747000D01*
X92073907Y-154747000D01*
X92097992Y-154744628D01*
X92121067Y-154737628D01*
X92142331Y-154726263D01*
X92160968Y-154710968D01*
X92176263Y-154692331D01*
X92187628Y-154671067D01*
X92194628Y-154647992D01*
X92197010Y-154623805D01*
X92198175Y-154622179D01*
X92200165Y-154622375D01*
G37*
G36*
X94050732Y-153748000D02*
G01*
X94051000Y-153749000D01*
X94051000Y-154251000D01*
X94050000Y-154252732D01*
X94049000Y-154253000D01*
X93926093Y-154253000D01*
X93902008Y-154255372D01*
X93878933Y-154262372D01*
X93857669Y-154273737D01*
X93839032Y-154289032D01*
X93823737Y-154307669D01*
X93812372Y-154328933D01*
X93805372Y-154352008D01*
X93802990Y-154376195D01*
X93801825Y-154377821D01*
X93799835Y-154377625D01*
X93799000Y-154375999D01*
X93799000Y-153749000D01*
X93800000Y-153747268D01*
X93801000Y-153747000D01*
X94049000Y-153747000D01*
X94050732Y-153748000D01*
G37*
G36*
X92200084Y-153810695D02*
G01*
X92201000Y-153812376D01*
X92201000Y-154187624D01*
X92200000Y-154189356D01*
X92198000Y-154189356D01*
X92197010Y-154187820D01*
X92194628Y-154163633D01*
X92187628Y-154140558D01*
X92176263Y-154119294D01*
X92160968Y-154100657D01*
X92142331Y-154085362D01*
X92121067Y-154073997D01*
X92097992Y-154066997D01*
X92074001Y-154064634D01*
X92050010Y-154066997D01*
X92026935Y-154073997D01*
X92005671Y-154085362D01*
X91987034Y-154100657D01*
X91971615Y-154119446D01*
X91969743Y-154120150D01*
X91968197Y-154118882D01*
X91968305Y-154117234D01*
X91980037Y-154095285D01*
X91994207Y-154048573D01*
X91998991Y-154000000D01*
X91994207Y-153951427D01*
X91980037Y-153904715D01*
X91965408Y-153877347D01*
X91965474Y-153875348D01*
X91967237Y-153874405D01*
X91968835Y-153875293D01*
X91978929Y-153890400D01*
X91995976Y-153907447D01*
X92016024Y-153920842D01*
X92038297Y-153930069D01*
X92061948Y-153934773D01*
X92086054Y-153934773D01*
X92109704Y-153930069D01*
X92131978Y-153920842D01*
X92152025Y-153907448D01*
X92169072Y-153890401D01*
X92182467Y-153870353D01*
X92191694Y-153848080D01*
X92196407Y-153824383D01*
X92197002Y-153812278D01*
X92198086Y-153810597D01*
X92200084Y-153810695D01*
G37*
G36*
X67101513Y-153574139D02*
G01*
X67113034Y-153588178D01*
X67131671Y-153603473D01*
X67152935Y-153614838D01*
X67176010Y-153621838D01*
X67200001Y-153624201D01*
X67223992Y-153621838D01*
X67247067Y-153614838D01*
X67268331Y-153603472D01*
X67286967Y-153588177D01*
X67298488Y-153574139D01*
X67300360Y-153573435D01*
X67301906Y-153574704D01*
X67301697Y-153576519D01*
X67270171Y-153623702D01*
X67242114Y-153691435D01*
X67227811Y-153763345D01*
X67227811Y-153836655D01*
X67242114Y-153908565D01*
X67270171Y-153976298D01*
X67301696Y-154023481D01*
X67301827Y-154025477D01*
X67300164Y-154026588D01*
X67298487Y-154025861D01*
X67286966Y-154011822D01*
X67268329Y-153996527D01*
X67247065Y-153985162D01*
X67223990Y-153978162D01*
X67199999Y-153975799D01*
X67176008Y-153978162D01*
X67152933Y-153985162D01*
X67131669Y-153996528D01*
X67113033Y-154011823D01*
X67101512Y-154025861D01*
X67099640Y-154026565D01*
X67098094Y-154025296D01*
X67098303Y-154023481D01*
X67129829Y-153976298D01*
X67157886Y-153908565D01*
X67172189Y-153836655D01*
X67172189Y-153763345D01*
X67157886Y-153691435D01*
X67129829Y-153623702D01*
X67098304Y-153576519D01*
X67098173Y-153574523D01*
X67099836Y-153573412D01*
X67101513Y-153574139D01*
G37*
G36*
X63901513Y-153574139D02*
G01*
X63913034Y-153588178D01*
X63931671Y-153603473D01*
X63952935Y-153614838D01*
X63976010Y-153621838D01*
X64000001Y-153624201D01*
X64023992Y-153621838D01*
X64047067Y-153614838D01*
X64068331Y-153603472D01*
X64086967Y-153588177D01*
X64098488Y-153574139D01*
X64100360Y-153573435D01*
X64101906Y-153574704D01*
X64101697Y-153576519D01*
X64070171Y-153623702D01*
X64042114Y-153691435D01*
X64027811Y-153763345D01*
X64027811Y-153836655D01*
X64042114Y-153908565D01*
X64070171Y-153976298D01*
X64101696Y-154023481D01*
X64101827Y-154025477D01*
X64100164Y-154026588D01*
X64098487Y-154025861D01*
X64086966Y-154011822D01*
X64068329Y-153996527D01*
X64047065Y-153985162D01*
X64023990Y-153978162D01*
X63999999Y-153975799D01*
X63976008Y-153978162D01*
X63952933Y-153985162D01*
X63931669Y-153996528D01*
X63913033Y-154011823D01*
X63901512Y-154025861D01*
X63899640Y-154026565D01*
X63898094Y-154025296D01*
X63898303Y-154023481D01*
X63929829Y-153976298D01*
X63957886Y-153908565D01*
X63972189Y-153836655D01*
X63972189Y-153763345D01*
X63957886Y-153691435D01*
X63929829Y-153623702D01*
X63898304Y-153576519D01*
X63898173Y-153574523D01*
X63899836Y-153573412D01*
X63901513Y-153574139D01*
G37*
G36*
X67901513Y-153574139D02*
G01*
X67913034Y-153588178D01*
X67931671Y-153603473D01*
X67952935Y-153614838D01*
X67976010Y-153621838D01*
X68000001Y-153624201D01*
X68023992Y-153621838D01*
X68047067Y-153614838D01*
X68068331Y-153603472D01*
X68086967Y-153588177D01*
X68098488Y-153574139D01*
X68100360Y-153573435D01*
X68101906Y-153574704D01*
X68101697Y-153576519D01*
X68070171Y-153623702D01*
X68042114Y-153691435D01*
X68027811Y-153763345D01*
X68027811Y-153836655D01*
X68042114Y-153908565D01*
X68070171Y-153976298D01*
X68101696Y-154023481D01*
X68101827Y-154025477D01*
X68100164Y-154026588D01*
X68098487Y-154025861D01*
X68086966Y-154011822D01*
X68068329Y-153996527D01*
X68047065Y-153985162D01*
X68023990Y-153978162D01*
X67999999Y-153975799D01*
X67976008Y-153978162D01*
X67952933Y-153985162D01*
X67931669Y-153996528D01*
X67913033Y-154011823D01*
X67901512Y-154025861D01*
X67899640Y-154026565D01*
X67898094Y-154025296D01*
X67898303Y-154023481D01*
X67929829Y-153976298D01*
X67957886Y-153908565D01*
X67972189Y-153836655D01*
X67972189Y-153763345D01*
X67957886Y-153691435D01*
X67929829Y-153623702D01*
X67898304Y-153576519D01*
X67898173Y-153574523D01*
X67899836Y-153573412D01*
X67901513Y-153574139D01*
G37*
G36*
X64701513Y-153574139D02*
G01*
X64713034Y-153588178D01*
X64731671Y-153603473D01*
X64752935Y-153614838D01*
X64776010Y-153621838D01*
X64800001Y-153624201D01*
X64823992Y-153621838D01*
X64847067Y-153614838D01*
X64868331Y-153603472D01*
X64886967Y-153588177D01*
X64898488Y-153574139D01*
X64900360Y-153573435D01*
X64901906Y-153574704D01*
X64901697Y-153576519D01*
X64870171Y-153623702D01*
X64842114Y-153691435D01*
X64827811Y-153763345D01*
X64827811Y-153836655D01*
X64842114Y-153908565D01*
X64870171Y-153976298D01*
X64901696Y-154023481D01*
X64901827Y-154025477D01*
X64900164Y-154026588D01*
X64898487Y-154025861D01*
X64886966Y-154011822D01*
X64868329Y-153996527D01*
X64847065Y-153985162D01*
X64823990Y-153978162D01*
X64799999Y-153975799D01*
X64776008Y-153978162D01*
X64752933Y-153985162D01*
X64731669Y-153996528D01*
X64713033Y-154011823D01*
X64701512Y-154025861D01*
X64699640Y-154026565D01*
X64698094Y-154025296D01*
X64698303Y-154023481D01*
X64729829Y-153976298D01*
X64757886Y-153908565D01*
X64772189Y-153836655D01*
X64772189Y-153763345D01*
X64757886Y-153691435D01*
X64729829Y-153623702D01*
X64698304Y-153576519D01*
X64698173Y-153574523D01*
X64699836Y-153573412D01*
X64701513Y-153574139D01*
G37*
G36*
X68238285Y-153278382D02*
G01*
X68282775Y-153314895D01*
X68369045Y-153361007D01*
X68462655Y-153389403D01*
X68560094Y-153399000D01*
X68816563Y-153399000D01*
X68818295Y-153400000D01*
X68818295Y-153402000D01*
X68816759Y-153402990D01*
X68792572Y-153405372D01*
X68769497Y-153412372D01*
X68748233Y-153423737D01*
X68729596Y-153439032D01*
X68714301Y-153457669D01*
X68702936Y-153478933D01*
X68695936Y-153502008D01*
X68693573Y-153525999D01*
X68695936Y-153549990D01*
X68702936Y-153573065D01*
X68711498Y-153589085D01*
X68711432Y-153591084D01*
X68709668Y-153592027D01*
X68708071Y-153591139D01*
X68689098Y-153562742D01*
X68637258Y-153510902D01*
X68576298Y-153470171D01*
X68508565Y-153442114D01*
X68436655Y-153427811D01*
X68363345Y-153427811D01*
X68291435Y-153442114D01*
X68223543Y-153470237D01*
X68221561Y-153469976D01*
X68220795Y-153468128D01*
X68221509Y-153466843D01*
X68235596Y-153455282D01*
X68250891Y-153436645D01*
X68262256Y-153415381D01*
X68269256Y-153392306D01*
X68271619Y-153368315D01*
X68269256Y-153344324D01*
X68262256Y-153321249D01*
X68250890Y-153299986D01*
X68235470Y-153281197D01*
X68235144Y-153279223D01*
X68236690Y-153277955D01*
X68238285Y-153278382D01*
G37*
G36*
X63769703Y-153275707D02*
G01*
X63769144Y-153277447D01*
X63756300Y-153290291D01*
X63742905Y-153310338D01*
X63733679Y-153332612D01*
X63728974Y-153356262D01*
X63728974Y-153380368D01*
X63733678Y-153404018D01*
X63742904Y-153426292D01*
X63756299Y-153446340D01*
X63773383Y-153463424D01*
X63777277Y-153466312D01*
X63778073Y-153468147D01*
X63776881Y-153469753D01*
X63775321Y-153469766D01*
X63708565Y-153442114D01*
X63636655Y-153427811D01*
X63563345Y-153427811D01*
X63491435Y-153442114D01*
X63423702Y-153470171D01*
X63362742Y-153510902D01*
X63310902Y-153562742D01*
X63291928Y-153591139D01*
X63290134Y-153592024D01*
X63288471Y-153590913D01*
X63288501Y-153589085D01*
X63297064Y-153573066D01*
X63304064Y-153549991D01*
X63306427Y-153525999D01*
X63304064Y-153502009D01*
X63297064Y-153478934D01*
X63285699Y-153457670D01*
X63270404Y-153439033D01*
X63251768Y-153423738D01*
X63230504Y-153412372D01*
X63207429Y-153405372D01*
X63183241Y-153402990D01*
X63181615Y-153401825D01*
X63181811Y-153399835D01*
X63183437Y-153399000D01*
X63439906Y-153399000D01*
X63537345Y-153389403D01*
X63630955Y-153361007D01*
X63717225Y-153314895D01*
X63766461Y-153274487D01*
X63768434Y-153274161D01*
X63769703Y-153275707D01*
G37*
G36*
X66701513Y-152674139D02*
G01*
X66713034Y-152688178D01*
X66731671Y-152703473D01*
X66752935Y-152714838D01*
X66776010Y-152721838D01*
X66800001Y-152724201D01*
X66823992Y-152721838D01*
X66847067Y-152714838D01*
X66868331Y-152703472D01*
X66886967Y-152688177D01*
X66898488Y-152674139D01*
X66900360Y-152673435D01*
X66901906Y-152674704D01*
X66901697Y-152676519D01*
X66870171Y-152723702D01*
X66842114Y-152791435D01*
X66827811Y-152863345D01*
X66827811Y-152936655D01*
X66842114Y-153008565D01*
X66870171Y-153076298D01*
X66901696Y-153123481D01*
X66901827Y-153125477D01*
X66900164Y-153126588D01*
X66898487Y-153125861D01*
X66886966Y-153111822D01*
X66868329Y-153096527D01*
X66847065Y-153085162D01*
X66823990Y-153078162D01*
X66799999Y-153075799D01*
X66776008Y-153078162D01*
X66752933Y-153085162D01*
X66731669Y-153096528D01*
X66713033Y-153111823D01*
X66701512Y-153125861D01*
X66699640Y-153126565D01*
X66698094Y-153125296D01*
X66698303Y-153123481D01*
X66729829Y-153076298D01*
X66757886Y-153008565D01*
X66772189Y-152936655D01*
X66772189Y-152863345D01*
X66757886Y-152791435D01*
X66729829Y-152723702D01*
X66698304Y-152676519D01*
X66698173Y-152674523D01*
X66699836Y-152673412D01*
X66701513Y-152674139D01*
G37*
G36*
X65901513Y-152674139D02*
G01*
X65913034Y-152688178D01*
X65931671Y-152703473D01*
X65952935Y-152714838D01*
X65976010Y-152721838D01*
X66000001Y-152724201D01*
X66023992Y-152721838D01*
X66047067Y-152714838D01*
X66068331Y-152703472D01*
X66086967Y-152688177D01*
X66098488Y-152674139D01*
X66100360Y-152673435D01*
X66101906Y-152674704D01*
X66101697Y-152676519D01*
X66070171Y-152723702D01*
X66042114Y-152791435D01*
X66027811Y-152863345D01*
X66027811Y-152936655D01*
X66042114Y-153008565D01*
X66070171Y-153076298D01*
X66101696Y-153123481D01*
X66101827Y-153125477D01*
X66100164Y-153126588D01*
X66098487Y-153125861D01*
X66086966Y-153111822D01*
X66068329Y-153096527D01*
X66047065Y-153085162D01*
X66023990Y-153078162D01*
X65999999Y-153075799D01*
X65976008Y-153078162D01*
X65952933Y-153085162D01*
X65931669Y-153096528D01*
X65913033Y-153111823D01*
X65901512Y-153125861D01*
X65899640Y-153126565D01*
X65898094Y-153125296D01*
X65898303Y-153123481D01*
X65929829Y-153076298D01*
X65957886Y-153008565D01*
X65972189Y-152936655D01*
X65972189Y-152863345D01*
X65957886Y-152791435D01*
X65929829Y-152723702D01*
X65898304Y-152676519D01*
X65898173Y-152674523D01*
X65899836Y-152673412D01*
X65901513Y-152674139D01*
G37*
G36*
X65101513Y-152674139D02*
G01*
X65113034Y-152688178D01*
X65131671Y-152703473D01*
X65152935Y-152714838D01*
X65176010Y-152721838D01*
X65200001Y-152724201D01*
X65223992Y-152721838D01*
X65247067Y-152714838D01*
X65268331Y-152703472D01*
X65286967Y-152688177D01*
X65298488Y-152674139D01*
X65300360Y-152673435D01*
X65301906Y-152674704D01*
X65301697Y-152676519D01*
X65270171Y-152723702D01*
X65242114Y-152791435D01*
X65227811Y-152863345D01*
X65227811Y-152936655D01*
X65242114Y-153008565D01*
X65270171Y-153076298D01*
X65301696Y-153123481D01*
X65301827Y-153125477D01*
X65300164Y-153126588D01*
X65298487Y-153125861D01*
X65286966Y-153111822D01*
X65268329Y-153096527D01*
X65247065Y-153085162D01*
X65223990Y-153078162D01*
X65199999Y-153075799D01*
X65176008Y-153078162D01*
X65152933Y-153085162D01*
X65131669Y-153096528D01*
X65113033Y-153111823D01*
X65101512Y-153125861D01*
X65099640Y-153126565D01*
X65098094Y-153125296D01*
X65098303Y-153123481D01*
X65129829Y-153076298D01*
X65157886Y-153008565D01*
X65172189Y-152936655D01*
X65172189Y-152863345D01*
X65157886Y-152791435D01*
X65129829Y-152723702D01*
X65098304Y-152676519D01*
X65098173Y-152674523D01*
X65099836Y-152673412D01*
X65101513Y-152674139D01*
G37*
G36*
X67525732Y-151273000D02*
G01*
X67526000Y-151274000D01*
X67526000Y-152126000D01*
X67525000Y-152127732D01*
X67524000Y-152128000D01*
X67476000Y-152128000D01*
X67474268Y-152127000D01*
X67474000Y-152126000D01*
X67474000Y-151274000D01*
X67475000Y-151272268D01*
X67476000Y-151272000D01*
X67524000Y-151272000D01*
X67525732Y-151273000D01*
G37*
G36*
X64525732Y-151273000D02*
G01*
X64526000Y-151274000D01*
X64526000Y-152126000D01*
X64525000Y-152127732D01*
X64524000Y-152128000D01*
X64476000Y-152128000D01*
X64474268Y-152127000D01*
X64474000Y-152126000D01*
X64474000Y-151274000D01*
X64475000Y-151272268D01*
X64476000Y-151272000D01*
X64524000Y-151272000D01*
X64525732Y-151273000D01*
G37*
G36*
X64025732Y-151273000D02*
G01*
X64026000Y-151274000D01*
X64026000Y-152126000D01*
X64025000Y-152127732D01*
X64024000Y-152128000D01*
X63976000Y-152128000D01*
X63974268Y-152127000D01*
X63974000Y-152126000D01*
X63974000Y-151274000D01*
X63975000Y-151272268D01*
X63976000Y-151272000D01*
X64024000Y-151272000D01*
X64025732Y-151273000D01*
G37*
G36*
X68025732Y-151273000D02*
G01*
X68026000Y-151274000D01*
X68026000Y-152126000D01*
X68025000Y-152127732D01*
X68024000Y-152128000D01*
X67976000Y-152128000D01*
X67974268Y-152127000D01*
X67974000Y-152126000D01*
X67974000Y-151274000D01*
X67975000Y-151272268D01*
X67976000Y-151272000D01*
X68024000Y-151272000D01*
X68025732Y-151273000D01*
G37*
G36*
X65025732Y-151273000D02*
G01*
X65026000Y-151274000D01*
X65026000Y-152126000D01*
X65025000Y-152127732D01*
X65024000Y-152128000D01*
X64976000Y-152128000D01*
X64974268Y-152127000D01*
X64974000Y-152126000D01*
X64974000Y-151274000D01*
X64975000Y-151272268D01*
X64976000Y-151272000D01*
X65024000Y-151272000D01*
X65025732Y-151273000D01*
G37*
G36*
X68525732Y-151273000D02*
G01*
X68526000Y-151274000D01*
X68526000Y-152126000D01*
X68525000Y-152127732D01*
X68524000Y-152128000D01*
X68476000Y-152128000D01*
X68474268Y-152127000D01*
X68474000Y-152126000D01*
X68474000Y-151274000D01*
X68475000Y-151272268D01*
X68476000Y-151272000D01*
X68524000Y-151272000D01*
X68525732Y-151273000D01*
G37*
G36*
X66025732Y-151273000D02*
G01*
X66026000Y-151274000D01*
X66026000Y-152126000D01*
X66025000Y-152127732D01*
X66024000Y-152128000D01*
X65976000Y-152128000D01*
X65974268Y-152127000D01*
X65974000Y-152126000D01*
X65974000Y-151274000D01*
X65975000Y-151272268D01*
X65976000Y-151272000D01*
X66024000Y-151272000D01*
X66025732Y-151273000D01*
G37*
G36*
X66525732Y-151273000D02*
G01*
X66526000Y-151274000D01*
X66526000Y-152126000D01*
X66525000Y-152127732D01*
X66524000Y-152128000D01*
X66476000Y-152128000D01*
X66474268Y-152127000D01*
X66474000Y-152126000D01*
X66474000Y-151274000D01*
X66475000Y-151272268D01*
X66476000Y-151272000D01*
X66524000Y-151272000D01*
X66525732Y-151273000D01*
G37*
G36*
X65525732Y-151273000D02*
G01*
X65526000Y-151274000D01*
X65526000Y-152126000D01*
X65525000Y-152127732D01*
X65524000Y-152128000D01*
X65476000Y-152128000D01*
X65474268Y-152127000D01*
X65474000Y-152126000D01*
X65474000Y-151274000D01*
X65475000Y-151272268D01*
X65476000Y-151272000D01*
X65524000Y-151272000D01*
X65525732Y-151273000D01*
G37*
G36*
X63525732Y-151273000D02*
G01*
X63526000Y-151274000D01*
X63526000Y-152126000D01*
X63525000Y-152127732D01*
X63524000Y-152128000D01*
X63476000Y-152128000D01*
X63474268Y-152127000D01*
X63474000Y-152126000D01*
X63474000Y-151274000D01*
X63475000Y-151272268D01*
X63476000Y-151272000D01*
X63524000Y-151272000D01*
X63525732Y-151273000D01*
G37*
G36*
X67025732Y-151273000D02*
G01*
X67026000Y-151274000D01*
X67026000Y-152126000D01*
X67025000Y-152127732D01*
X67024000Y-152128000D01*
X66976000Y-152128000D01*
X66974268Y-152127000D01*
X66974000Y-152126000D01*
X66974000Y-151274000D01*
X66975000Y-151272268D01*
X66976000Y-151272000D01*
X67024000Y-151272000D01*
X67025732Y-151273000D01*
G37*
G36*
X92552166Y-145808875D02*
G01*
X92553001Y-145810501D01*
X92553001Y-145866861D01*
X92552991Y-145867057D01*
X92550227Y-145895125D01*
X92550151Y-145895510D01*
X92543755Y-145916591D01*
X92543605Y-145916953D01*
X92533217Y-145936389D01*
X92532999Y-145936715D01*
X92519023Y-145953746D01*
X92518746Y-145954023D01*
X92501715Y-145967999D01*
X92501389Y-145968217D01*
X92481953Y-145978605D01*
X92481591Y-145978755D01*
X92460510Y-145985151D01*
X92460125Y-145985227D01*
X92436193Y-145987584D01*
X92412441Y-145992308D01*
X92390167Y-146001535D01*
X92370120Y-146014929D01*
X92353073Y-146031976D01*
X92339678Y-146052024D01*
X92330451Y-146074298D01*
X92325747Y-146097948D01*
X92325747Y-146122054D01*
X92330451Y-146145704D01*
X92339678Y-146167978D01*
X92353072Y-146188025D01*
X92370119Y-146205072D01*
X92390167Y-146218467D01*
X92412441Y-146227694D01*
X92436193Y-146232418D01*
X92460125Y-146234775D01*
X92460510Y-146234851D01*
X92481591Y-146241247D01*
X92481953Y-146241397D01*
X92501389Y-146251785D01*
X92501715Y-146252003D01*
X92518746Y-146265979D01*
X92519023Y-146266256D01*
X92532999Y-146283287D01*
X92533217Y-146283613D01*
X92543605Y-146303049D01*
X92543755Y-146303411D01*
X92550151Y-146324492D01*
X92550227Y-146324877D01*
X92552991Y-146352945D01*
X92553001Y-146353141D01*
X92553001Y-146409501D01*
X92552001Y-146411233D01*
X92550001Y-146411233D01*
X92549011Y-146409697D01*
X92545659Y-146375658D01*
X92535785Y-146343109D01*
X92519753Y-146313114D01*
X92498177Y-146286825D01*
X92471888Y-146265249D01*
X92441893Y-146249217D01*
X92409344Y-146239343D01*
X92375407Y-146236001D01*
X91299595Y-146236001D01*
X91265658Y-146239343D01*
X91233109Y-146249217D01*
X91203114Y-146265249D01*
X91176825Y-146286825D01*
X91155249Y-146313114D01*
X91139217Y-146343109D01*
X91129343Y-146375658D01*
X91125991Y-146409697D01*
X91124826Y-146411323D01*
X91122836Y-146411127D01*
X91122001Y-146409501D01*
X91122001Y-146353141D01*
X91122011Y-146352945D01*
X91124775Y-146324877D01*
X91124851Y-146324492D01*
X91131247Y-146303411D01*
X91131397Y-146303049D01*
X91141785Y-146283613D01*
X91142003Y-146283287D01*
X91155979Y-146266256D01*
X91156256Y-146265979D01*
X91173287Y-146252003D01*
X91173613Y-146251785D01*
X91193049Y-146241397D01*
X91193411Y-146241247D01*
X91214492Y-146234851D01*
X91214877Y-146234775D01*
X91238809Y-146232418D01*
X91262561Y-146227694D01*
X91284835Y-146218467D01*
X91304882Y-146205073D01*
X91321929Y-146188026D01*
X91335324Y-146167978D01*
X91344551Y-146145704D01*
X91349255Y-146122054D01*
X91349255Y-146097948D01*
X91344551Y-146074298D01*
X91335324Y-146052024D01*
X91321930Y-146031977D01*
X91304883Y-146014930D01*
X91284835Y-146001535D01*
X91262561Y-145992308D01*
X91238809Y-145987584D01*
X91214877Y-145985227D01*
X91214492Y-145985151D01*
X91193411Y-145978755D01*
X91193049Y-145978605D01*
X91173613Y-145968217D01*
X91173287Y-145967999D01*
X91156256Y-145954023D01*
X91155979Y-145953746D01*
X91142003Y-145936715D01*
X91141785Y-145936389D01*
X91131397Y-145916953D01*
X91131247Y-145916591D01*
X91124851Y-145895510D01*
X91124775Y-145895125D01*
X91122011Y-145867057D01*
X91122001Y-145866861D01*
X91122001Y-145810501D01*
X91123001Y-145808769D01*
X91125001Y-145808769D01*
X91125991Y-145810305D01*
X91129343Y-145844344D01*
X91139217Y-145876893D01*
X91155249Y-145906888D01*
X91176825Y-145933177D01*
X91203114Y-145954753D01*
X91233109Y-145970785D01*
X91265658Y-145980659D01*
X91299595Y-145984001D01*
X92375407Y-145984001D01*
X92409344Y-145980659D01*
X92441893Y-145970785D01*
X92471888Y-145954753D01*
X92498177Y-145933177D01*
X92519753Y-145906888D01*
X92535785Y-145876893D01*
X92545659Y-145844344D01*
X92549011Y-145810305D01*
X92550176Y-145808679D01*
X92552166Y-145808875D01*
G37*
G36*
X92552166Y-144858875D02*
G01*
X92553001Y-144860501D01*
X92553001Y-144916861D01*
X92552991Y-144917057D01*
X92550227Y-144945125D01*
X92550151Y-144945510D01*
X92543755Y-144966591D01*
X92543605Y-144966953D01*
X92533217Y-144986389D01*
X92532999Y-144986715D01*
X92519023Y-145003746D01*
X92518746Y-145004023D01*
X92501715Y-145017999D01*
X92501389Y-145018217D01*
X92481953Y-145028605D01*
X92481591Y-145028755D01*
X92460510Y-145035151D01*
X92460125Y-145035227D01*
X92436193Y-145037584D01*
X92412441Y-145042308D01*
X92390167Y-145051535D01*
X92370120Y-145064929D01*
X92353073Y-145081976D01*
X92339678Y-145102024D01*
X92330451Y-145124298D01*
X92325747Y-145147948D01*
X92325747Y-145172054D01*
X92330451Y-145195704D01*
X92339678Y-145217978D01*
X92353072Y-145238025D01*
X92370119Y-145255072D01*
X92390167Y-145268467D01*
X92412441Y-145277694D01*
X92436193Y-145282418D01*
X92460125Y-145284775D01*
X92460510Y-145284851D01*
X92481591Y-145291247D01*
X92481953Y-145291397D01*
X92501389Y-145301785D01*
X92501715Y-145302003D01*
X92518746Y-145315979D01*
X92519023Y-145316256D01*
X92532999Y-145333287D01*
X92533217Y-145333613D01*
X92543605Y-145353049D01*
X92543755Y-145353411D01*
X92550151Y-145374492D01*
X92550227Y-145374877D01*
X92552991Y-145402945D01*
X92553001Y-145403141D01*
X92553001Y-145459501D01*
X92552001Y-145461233D01*
X92550001Y-145461233D01*
X92549011Y-145459697D01*
X92545659Y-145425658D01*
X92535785Y-145393109D01*
X92519753Y-145363114D01*
X92498177Y-145336825D01*
X92471888Y-145315249D01*
X92441893Y-145299217D01*
X92409344Y-145289343D01*
X92375407Y-145286001D01*
X91299595Y-145286001D01*
X91265658Y-145289343D01*
X91233109Y-145299217D01*
X91203114Y-145315249D01*
X91176825Y-145336825D01*
X91155249Y-145363114D01*
X91139217Y-145393109D01*
X91129343Y-145425658D01*
X91125991Y-145459697D01*
X91124826Y-145461323D01*
X91122836Y-145461127D01*
X91122001Y-145459501D01*
X91122001Y-145403141D01*
X91122011Y-145402945D01*
X91124775Y-145374877D01*
X91124851Y-145374492D01*
X91131247Y-145353411D01*
X91131397Y-145353049D01*
X91141785Y-145333613D01*
X91142003Y-145333287D01*
X91155979Y-145316256D01*
X91156256Y-145315979D01*
X91173287Y-145302003D01*
X91173613Y-145301785D01*
X91193049Y-145291397D01*
X91193411Y-145291247D01*
X91214492Y-145284851D01*
X91214877Y-145284775D01*
X91238809Y-145282418D01*
X91262561Y-145277694D01*
X91284835Y-145268467D01*
X91304882Y-145255073D01*
X91321929Y-145238026D01*
X91335324Y-145217978D01*
X91344551Y-145195704D01*
X91349255Y-145172054D01*
X91349255Y-145147948D01*
X91344551Y-145124298D01*
X91335324Y-145102024D01*
X91321930Y-145081977D01*
X91304883Y-145064930D01*
X91284835Y-145051535D01*
X91262561Y-145042308D01*
X91238809Y-145037584D01*
X91214877Y-145035227D01*
X91214492Y-145035151D01*
X91193411Y-145028755D01*
X91193049Y-145028605D01*
X91173613Y-145018217D01*
X91173287Y-145017999D01*
X91156256Y-145004023D01*
X91155979Y-145003746D01*
X91142003Y-144986715D01*
X91141785Y-144986389D01*
X91131397Y-144966953D01*
X91131247Y-144966591D01*
X91124851Y-144945510D01*
X91124775Y-144945125D01*
X91122011Y-144917057D01*
X91122001Y-144916861D01*
X91122001Y-144860501D01*
X91123001Y-144858769D01*
X91125001Y-144858769D01*
X91125991Y-144860305D01*
X91129343Y-144894344D01*
X91139217Y-144926893D01*
X91155249Y-144956888D01*
X91176825Y-144983177D01*
X91203114Y-145004753D01*
X91233109Y-145020785D01*
X91265658Y-145030659D01*
X91299595Y-145034001D01*
X92375407Y-145034001D01*
X92409344Y-145030659D01*
X92441893Y-145020785D01*
X92471888Y-145004753D01*
X92498177Y-144983177D01*
X92519753Y-144956888D01*
X92535785Y-144926893D01*
X92545659Y-144894344D01*
X92549011Y-144860305D01*
X92550176Y-144858679D01*
X92552166Y-144858875D01*
G37*
G36*
X31614288Y-144668225D02*
G01*
X31614438Y-144670046D01*
X31591874Y-144724521D01*
X31555579Y-144906985D01*
X31555579Y-145093015D01*
X31591874Y-145275479D01*
X31614438Y-145329953D01*
X31614177Y-145331936D01*
X31612329Y-145332701D01*
X31610826Y-145331661D01*
X31602262Y-145315638D01*
X31586966Y-145297001D01*
X31568329Y-145281706D01*
X31547066Y-145270341D01*
X31523991Y-145263341D01*
X31500000Y-145260978D01*
X31476008Y-145263341D01*
X31452934Y-145270341D01*
X31431670Y-145281706D01*
X31413033Y-145297002D01*
X31397738Y-145315639D01*
X31389174Y-145331662D01*
X31387475Y-145332718D01*
X31385712Y-145331775D01*
X31385562Y-145329954D01*
X31408126Y-145275479D01*
X31444421Y-145093015D01*
X31444421Y-144906985D01*
X31408126Y-144724521D01*
X31385562Y-144670047D01*
X31385823Y-144668064D01*
X31387671Y-144667299D01*
X31389174Y-144668339D01*
X31397738Y-144684362D01*
X31413034Y-144702999D01*
X31431671Y-144718294D01*
X31452934Y-144729659D01*
X31476009Y-144736659D01*
X31500000Y-144739022D01*
X31523992Y-144736659D01*
X31547066Y-144729659D01*
X31568330Y-144718294D01*
X31586967Y-144702998D01*
X31602262Y-144684361D01*
X31610826Y-144668338D01*
X31612525Y-144667282D01*
X31614288Y-144668225D01*
G37*
G36*
X42590935Y-144725749D02*
G01*
X42591310Y-144727356D01*
X42555579Y-144906985D01*
X42555579Y-145093015D01*
X42591310Y-145272644D01*
X42590667Y-145274538D01*
X42588705Y-145274928D01*
X42587500Y-145273800D01*
X42586744Y-145271974D01*
X42575333Y-145250625D01*
X42560038Y-145231988D01*
X42541401Y-145216693D01*
X42520137Y-145205328D01*
X42497062Y-145198328D01*
X42473071Y-145195965D01*
X42449080Y-145198328D01*
X42426005Y-145205328D01*
X42404741Y-145216693D01*
X42386104Y-145231988D01*
X42370809Y-145250625D01*
X42362242Y-145266653D01*
X42360543Y-145267709D01*
X42358780Y-145266766D01*
X42358630Y-145264945D01*
X42360279Y-145260964D01*
X42394661Y-145088114D01*
X42394661Y-144911886D01*
X42360279Y-144739036D01*
X42358630Y-144735055D01*
X42358891Y-144733073D01*
X42360739Y-144732307D01*
X42362242Y-144733347D01*
X42370809Y-144749375D01*
X42386105Y-144768012D01*
X42404742Y-144783307D01*
X42426005Y-144794672D01*
X42449080Y-144801672D01*
X42473072Y-144804035D01*
X42497063Y-144801672D01*
X42520138Y-144794672D01*
X42541401Y-144783307D01*
X42560038Y-144768011D01*
X42575333Y-144749374D01*
X42586744Y-144728026D01*
X42587500Y-144726200D01*
X42589087Y-144724983D01*
X42590935Y-144725749D01*
G37*
G36*
X75144555Y-141322010D02*
G01*
X75155551Y-141323093D01*
X75155936Y-141323169D01*
X75160610Y-141324587D01*
X75160972Y-141324737D01*
X75165273Y-141327036D01*
X75165599Y-141327254D01*
X75171896Y-141332421D01*
X75192023Y-141345870D01*
X75214297Y-141355096D01*
X75237948Y-141359800D01*
X75262054Y-141359800D01*
X75285704Y-141355095D01*
X75307978Y-141345869D01*
X75328104Y-141332421D01*
X75334401Y-141327254D01*
X75334727Y-141327036D01*
X75339028Y-141324737D01*
X75339390Y-141324587D01*
X75344064Y-141323169D01*
X75344449Y-141323093D01*
X75355445Y-141322010D01*
X75355641Y-141322000D01*
X75412000Y-141322000D01*
X75413732Y-141323000D01*
X75413732Y-141325000D01*
X75412196Y-141325990D01*
X75395227Y-141327661D01*
X75379093Y-141332556D01*
X75364226Y-141340502D01*
X75351196Y-141351196D01*
X75340502Y-141364226D01*
X75332556Y-141379093D01*
X75327661Y-141395227D01*
X75326000Y-141412094D01*
X75326000Y-142212906D01*
X75327661Y-142229773D01*
X75332556Y-142245907D01*
X75340502Y-142260774D01*
X75351196Y-142273804D01*
X75364226Y-142284498D01*
X75379093Y-142292444D01*
X75395227Y-142297339D01*
X75412094Y-142299000D01*
X75587906Y-142299000D01*
X75604773Y-142297339D01*
X75620907Y-142292444D01*
X75635774Y-142284498D01*
X75648804Y-142273804D01*
X75659498Y-142260774D01*
X75667444Y-142245907D01*
X75672339Y-142229773D01*
X75674000Y-142212906D01*
X75674000Y-141412094D01*
X75672339Y-141395227D01*
X75667444Y-141379093D01*
X75659498Y-141364226D01*
X75648804Y-141351196D01*
X75635774Y-141340502D01*
X75620907Y-141332556D01*
X75604773Y-141327661D01*
X75587804Y-141325990D01*
X75586178Y-141324825D01*
X75586374Y-141322835D01*
X75588000Y-141322000D01*
X75644359Y-141322000D01*
X75644555Y-141322010D01*
X75655551Y-141323093D01*
X75655936Y-141323169D01*
X75660610Y-141324587D01*
X75660972Y-141324737D01*
X75665273Y-141327036D01*
X75665599Y-141327254D01*
X75671896Y-141332421D01*
X75692023Y-141345870D01*
X75714297Y-141355096D01*
X75737948Y-141359800D01*
X75762054Y-141359800D01*
X75785704Y-141355095D01*
X75807978Y-141345869D01*
X75828104Y-141332421D01*
X75834401Y-141327254D01*
X75834727Y-141327036D01*
X75839028Y-141324737D01*
X75839390Y-141324587D01*
X75844064Y-141323169D01*
X75844449Y-141323093D01*
X75855445Y-141322010D01*
X75855641Y-141322000D01*
X75912000Y-141322000D01*
X75913732Y-141323000D01*
X75913732Y-141325000D01*
X75912196Y-141325990D01*
X75895227Y-141327661D01*
X75879093Y-141332556D01*
X75864226Y-141340502D01*
X75851196Y-141351196D01*
X75840502Y-141364226D01*
X75832556Y-141379093D01*
X75827661Y-141395227D01*
X75826000Y-141412094D01*
X75826000Y-142212906D01*
X75827661Y-142229773D01*
X75832556Y-142245907D01*
X75840502Y-142260774D01*
X75851196Y-142273804D01*
X75864226Y-142284498D01*
X75879093Y-142292444D01*
X75895227Y-142297339D01*
X75912094Y-142299000D01*
X76087906Y-142299000D01*
X76104773Y-142297339D01*
X76120907Y-142292444D01*
X76135774Y-142284498D01*
X76148804Y-142273804D01*
X76159498Y-142260774D01*
X76167444Y-142245907D01*
X76172339Y-142229773D01*
X76174000Y-142212906D01*
X76174000Y-141412094D01*
X76172339Y-141395227D01*
X76167444Y-141379093D01*
X76159498Y-141364226D01*
X76148804Y-141351196D01*
X76135774Y-141340502D01*
X76120907Y-141332556D01*
X76104773Y-141327661D01*
X76087804Y-141325990D01*
X76086178Y-141324825D01*
X76086374Y-141322835D01*
X76088000Y-141322000D01*
X76144359Y-141322000D01*
X76144555Y-141322010D01*
X76155551Y-141323093D01*
X76155936Y-141323169D01*
X76160610Y-141324587D01*
X76160972Y-141324737D01*
X76165273Y-141327036D01*
X76165599Y-141327254D01*
X76171896Y-141332421D01*
X76192023Y-141345870D01*
X76214297Y-141355096D01*
X76237948Y-141359800D01*
X76262054Y-141359800D01*
X76285704Y-141355095D01*
X76307978Y-141345869D01*
X76328104Y-141332421D01*
X76334401Y-141327254D01*
X76334727Y-141327036D01*
X76339028Y-141324737D01*
X76339390Y-141324587D01*
X76344064Y-141323169D01*
X76344449Y-141323093D01*
X76355445Y-141322010D01*
X76355641Y-141322000D01*
X76412000Y-141322000D01*
X76413732Y-141323000D01*
X76413732Y-141325000D01*
X76412196Y-141325990D01*
X76395227Y-141327661D01*
X76379093Y-141332556D01*
X76364226Y-141340502D01*
X76351196Y-141351196D01*
X76340502Y-141364226D01*
X76332556Y-141379093D01*
X76327661Y-141395227D01*
X76326000Y-141412094D01*
X76326000Y-142212906D01*
X76327661Y-142229773D01*
X76332556Y-142245907D01*
X76340502Y-142260774D01*
X76351196Y-142273804D01*
X76364226Y-142284498D01*
X76379093Y-142292444D01*
X76395227Y-142297339D01*
X76412094Y-142299000D01*
X76587906Y-142299000D01*
X76604773Y-142297339D01*
X76620907Y-142292444D01*
X76635774Y-142284498D01*
X76648804Y-142273804D01*
X76659498Y-142260774D01*
X76667444Y-142245907D01*
X76672339Y-142229773D01*
X76674000Y-142212906D01*
X76674000Y-142199001D01*
X76675000Y-142197269D01*
X76677000Y-142197269D01*
X76677990Y-142198805D01*
X76680372Y-142222992D01*
X76687372Y-142246067D01*
X76698737Y-142267331D01*
X76714032Y-142285968D01*
X76732669Y-142301263D01*
X76753933Y-142312628D01*
X76777008Y-142319628D01*
X76801195Y-142322010D01*
X76802821Y-142323175D01*
X76802625Y-142325165D01*
X76800999Y-142326000D01*
X76787094Y-142326000D01*
X76770227Y-142327661D01*
X76754093Y-142332556D01*
X76739226Y-142340502D01*
X76726196Y-142351196D01*
X76715502Y-142364226D01*
X76707556Y-142379093D01*
X76702661Y-142395227D01*
X76701000Y-142412094D01*
X76701000Y-142587906D01*
X76702661Y-142604773D01*
X76707556Y-142620907D01*
X76715502Y-142635774D01*
X76726196Y-142648804D01*
X76739226Y-142659498D01*
X76754093Y-142667444D01*
X76770227Y-142672339D01*
X76787094Y-142674000D01*
X77587906Y-142674000D01*
X77604773Y-142672339D01*
X77620907Y-142667444D01*
X77635774Y-142659498D01*
X77648804Y-142648804D01*
X77659498Y-142635774D01*
X77667444Y-142620907D01*
X77672339Y-142604773D01*
X77674010Y-142587804D01*
X77675175Y-142586178D01*
X77677165Y-142586374D01*
X77678000Y-142588000D01*
X77678000Y-142644359D01*
X77677990Y-142644555D01*
X77676907Y-142655551D01*
X77676831Y-142655936D01*
X77675413Y-142660610D01*
X77675263Y-142660972D01*
X77672964Y-142665273D01*
X77672746Y-142665599D01*
X77667579Y-142671896D01*
X77654130Y-142692023D01*
X77644904Y-142714297D01*
X77640200Y-142737948D01*
X77640200Y-142762054D01*
X77644905Y-142785704D01*
X77654131Y-142807978D01*
X77667579Y-142828104D01*
X77672746Y-142834401D01*
X77672964Y-142834727D01*
X77675263Y-142839028D01*
X77675413Y-142839390D01*
X77676831Y-142844064D01*
X77676907Y-142844449D01*
X77677990Y-142855445D01*
X77678000Y-142855641D01*
X77678000Y-142912000D01*
X77677000Y-142913732D01*
X77675000Y-142913732D01*
X77674010Y-142912196D01*
X77672339Y-142895227D01*
X77667444Y-142879093D01*
X77659498Y-142864226D01*
X77648804Y-142851196D01*
X77635774Y-142840502D01*
X77620907Y-142832556D01*
X77604773Y-142827661D01*
X77587906Y-142826000D01*
X76787094Y-142826000D01*
X76770227Y-142827661D01*
X76754093Y-142832556D01*
X76739226Y-142840502D01*
X76726196Y-142851196D01*
X76715502Y-142864226D01*
X76707556Y-142879093D01*
X76702661Y-142895227D01*
X76701000Y-142912094D01*
X76701000Y-143087906D01*
X76702661Y-143104773D01*
X76707556Y-143120907D01*
X76715502Y-143135774D01*
X76726196Y-143148804D01*
X76739226Y-143159498D01*
X76754093Y-143167444D01*
X76770227Y-143172339D01*
X76787094Y-143174000D01*
X77587906Y-143174000D01*
X77604773Y-143172339D01*
X77620907Y-143167444D01*
X77635774Y-143159498D01*
X77648804Y-143148804D01*
X77659498Y-143135774D01*
X77667444Y-143120907D01*
X77672339Y-143104773D01*
X77674010Y-143087804D01*
X77675175Y-143086178D01*
X77677165Y-143086374D01*
X77678000Y-143088000D01*
X77678000Y-143144359D01*
X77677990Y-143144555D01*
X77676907Y-143155551D01*
X77676831Y-143155936D01*
X77675413Y-143160610D01*
X77675263Y-143160972D01*
X77672964Y-143165273D01*
X77672746Y-143165599D01*
X77667579Y-143171896D01*
X77654130Y-143192023D01*
X77644904Y-143214297D01*
X77640200Y-143237948D01*
X77640200Y-143262054D01*
X77644905Y-143285704D01*
X77654131Y-143307978D01*
X77667579Y-143328104D01*
X77672746Y-143334401D01*
X77672964Y-143334727D01*
X77675263Y-143339028D01*
X77675413Y-143339390D01*
X77676831Y-143344064D01*
X77676907Y-143344449D01*
X77677990Y-143355445D01*
X77678000Y-143355641D01*
X77678000Y-143412000D01*
X77677000Y-143413732D01*
X77675000Y-143413732D01*
X77674010Y-143412196D01*
X77672339Y-143395227D01*
X77667444Y-143379093D01*
X77659498Y-143364226D01*
X77648804Y-143351196D01*
X77635774Y-143340502D01*
X77620907Y-143332556D01*
X77604773Y-143327661D01*
X77587906Y-143326000D01*
X76787094Y-143326000D01*
X76770227Y-143327661D01*
X76754093Y-143332556D01*
X76739226Y-143340502D01*
X76726196Y-143351196D01*
X76715502Y-143364226D01*
X76707556Y-143379093D01*
X76702661Y-143395227D01*
X76701000Y-143412094D01*
X76701000Y-143587906D01*
X76702661Y-143604773D01*
X76707556Y-143620907D01*
X76715502Y-143635774D01*
X76726196Y-143648804D01*
X76739226Y-143659498D01*
X76754093Y-143667444D01*
X76770227Y-143672339D01*
X76787094Y-143674000D01*
X77587906Y-143674000D01*
X77604773Y-143672339D01*
X77620907Y-143667444D01*
X77635774Y-143659498D01*
X77648804Y-143648804D01*
X77659498Y-143635774D01*
X77667444Y-143620907D01*
X77672339Y-143604773D01*
X77674010Y-143587804D01*
X77675175Y-143586178D01*
X77677165Y-143586374D01*
X77678000Y-143588000D01*
X77678000Y-143644359D01*
X77677990Y-143644555D01*
X77676907Y-143655551D01*
X77676831Y-143655936D01*
X77675413Y-143660610D01*
X77675263Y-143660972D01*
X77672964Y-143665273D01*
X77672746Y-143665599D01*
X77667579Y-143671896D01*
X77654130Y-143692023D01*
X77644904Y-143714297D01*
X77640200Y-143737948D01*
X77640200Y-143762054D01*
X77644905Y-143785704D01*
X77654131Y-143807978D01*
X77667579Y-143828104D01*
X77672746Y-143834401D01*
X77672964Y-143834727D01*
X77675263Y-143839028D01*
X77675413Y-143839390D01*
X77676831Y-143844064D01*
X77676907Y-143844449D01*
X77677990Y-143855445D01*
X77678000Y-143855641D01*
X77678000Y-143912000D01*
X77677000Y-143913732D01*
X77675000Y-143913732D01*
X77674010Y-143912196D01*
X77672339Y-143895227D01*
X77667444Y-143879093D01*
X77659498Y-143864226D01*
X77648804Y-143851196D01*
X77635774Y-143840502D01*
X77620907Y-143832556D01*
X77604773Y-143827661D01*
X77587906Y-143826000D01*
X76787094Y-143826000D01*
X76770227Y-143827661D01*
X76754093Y-143832556D01*
X76739226Y-143840502D01*
X76726196Y-143851196D01*
X76715502Y-143864226D01*
X76707556Y-143879093D01*
X76702661Y-143895227D01*
X76701000Y-143912094D01*
X76701000Y-144087906D01*
X76702661Y-144104773D01*
X76707556Y-144120907D01*
X76715502Y-144135774D01*
X76726196Y-144148804D01*
X76739226Y-144159498D01*
X76754093Y-144167444D01*
X76770227Y-144172339D01*
X76787094Y-144174000D01*
X76800999Y-144174000D01*
X76802731Y-144175000D01*
X76802731Y-144177000D01*
X76801195Y-144177990D01*
X76777008Y-144180372D01*
X76753933Y-144187372D01*
X76732669Y-144198737D01*
X76714032Y-144214032D01*
X76698737Y-144232669D01*
X76687372Y-144253933D01*
X76680372Y-144277008D01*
X76677990Y-144301195D01*
X76676825Y-144302821D01*
X76674835Y-144302625D01*
X76674000Y-144300999D01*
X76674000Y-144287094D01*
X76672339Y-144270227D01*
X76667444Y-144254093D01*
X76659498Y-144239226D01*
X76648804Y-144226196D01*
X76635774Y-144215502D01*
X76620907Y-144207556D01*
X76604773Y-144202661D01*
X76587906Y-144201000D01*
X76412094Y-144201000D01*
X76395227Y-144202661D01*
X76379093Y-144207556D01*
X76364226Y-144215502D01*
X76351196Y-144226196D01*
X76340502Y-144239226D01*
X76332556Y-144254093D01*
X76327661Y-144270227D01*
X76326000Y-144287094D01*
X76326000Y-145087906D01*
X76327661Y-145104773D01*
X76332556Y-145120907D01*
X76340502Y-145135774D01*
X76351196Y-145148804D01*
X76364226Y-145159498D01*
X76379093Y-145167444D01*
X76395227Y-145172339D01*
X76412196Y-145174010D01*
X76413822Y-145175175D01*
X76413626Y-145177165D01*
X76412000Y-145178000D01*
X76355641Y-145178000D01*
X76355445Y-145177990D01*
X76344449Y-145176907D01*
X76344064Y-145176831D01*
X76339390Y-145175413D01*
X76339028Y-145175263D01*
X76334727Y-145172964D01*
X76334401Y-145172746D01*
X76328104Y-145167579D01*
X76307977Y-145154130D01*
X76285703Y-145144904D01*
X76262052Y-145140200D01*
X76237946Y-145140200D01*
X76214296Y-145144905D01*
X76192022Y-145154131D01*
X76171896Y-145167579D01*
X76165599Y-145172746D01*
X76165273Y-145172964D01*
X76160972Y-145175263D01*
X76160610Y-145175413D01*
X76155936Y-145176831D01*
X76155551Y-145176907D01*
X76144555Y-145177990D01*
X76144359Y-145178000D01*
X76088000Y-145178000D01*
X76086268Y-145177000D01*
X76086268Y-145175000D01*
X76087804Y-145174010D01*
X76104773Y-145172339D01*
X76120907Y-145167444D01*
X76135774Y-145159498D01*
X76148804Y-145148804D01*
X76159498Y-145135774D01*
X76167444Y-145120907D01*
X76172339Y-145104773D01*
X76174000Y-145087906D01*
X76174000Y-144287094D01*
X76172339Y-144270227D01*
X76167444Y-144254093D01*
X76159498Y-144239226D01*
X76148804Y-144226196D01*
X76135774Y-144215502D01*
X76120907Y-144207556D01*
X76104773Y-144202661D01*
X76087906Y-144201000D01*
X75912094Y-144201000D01*
X75895227Y-144202661D01*
X75879093Y-144207556D01*
X75864226Y-144215502D01*
X75851196Y-144226196D01*
X75840502Y-144239226D01*
X75832556Y-144254093D01*
X75827661Y-144270227D01*
X75826000Y-144287094D01*
X75826000Y-145087906D01*
X75827661Y-145104773D01*
X75832556Y-145120907D01*
X75840502Y-145135774D01*
X75851196Y-145148804D01*
X75864226Y-145159498D01*
X75879093Y-145167444D01*
X75895227Y-145172339D01*
X75912196Y-145174010D01*
X75913822Y-145175175D01*
X75913626Y-145177165D01*
X75912000Y-145178000D01*
X75855641Y-145178000D01*
X75855445Y-145177990D01*
X75844449Y-145176907D01*
X75844064Y-145176831D01*
X75839390Y-145175413D01*
X75839028Y-145175263D01*
X75834727Y-145172964D01*
X75834401Y-145172746D01*
X75828104Y-145167579D01*
X75807977Y-145154130D01*
X75785703Y-145144904D01*
X75762052Y-145140200D01*
X75737946Y-145140200D01*
X75714296Y-145144905D01*
X75692022Y-145154131D01*
X75671896Y-145167579D01*
X75665599Y-145172746D01*
X75665273Y-145172964D01*
X75660972Y-145175263D01*
X75660610Y-145175413D01*
X75655936Y-145176831D01*
X75655551Y-145176907D01*
X75644555Y-145177990D01*
X75644359Y-145178000D01*
X75588000Y-145178000D01*
X75586268Y-145177000D01*
X75586268Y-145175000D01*
X75587804Y-145174010D01*
X75604773Y-145172339D01*
X75620907Y-145167444D01*
X75635774Y-145159498D01*
X75648804Y-145148804D01*
X75659498Y-145135774D01*
X75667444Y-145120907D01*
X75672339Y-145104773D01*
X75674000Y-145087906D01*
X75674000Y-144287094D01*
X75672339Y-144270227D01*
X75667444Y-144254093D01*
X75659498Y-144239226D01*
X75648804Y-144226196D01*
X75635774Y-144215502D01*
X75620907Y-144207556D01*
X75604773Y-144202661D01*
X75587906Y-144201000D01*
X75412094Y-144201000D01*
X75395227Y-144202661D01*
X75379093Y-144207556D01*
X75364226Y-144215502D01*
X75351196Y-144226196D01*
X75340502Y-144239226D01*
X75332556Y-144254093D01*
X75327661Y-144270227D01*
X75326000Y-144287094D01*
X75326000Y-145087906D01*
X75327661Y-145104773D01*
X75332556Y-145120907D01*
X75340502Y-145135774D01*
X75351196Y-145148804D01*
X75364226Y-145159498D01*
X75379093Y-145167444D01*
X75395227Y-145172339D01*
X75412196Y-145174010D01*
X75413822Y-145175175D01*
X75413626Y-145177165D01*
X75412000Y-145178000D01*
X75355641Y-145178000D01*
X75355445Y-145177990D01*
X75344449Y-145176907D01*
X75344064Y-145176831D01*
X75339390Y-145175413D01*
X75339028Y-145175263D01*
X75334727Y-145172964D01*
X75334401Y-145172746D01*
X75328104Y-145167579D01*
X75307977Y-145154130D01*
X75285703Y-145144904D01*
X75262052Y-145140200D01*
X75237946Y-145140200D01*
X75214296Y-145144905D01*
X75192022Y-145154131D01*
X75171896Y-145167579D01*
X75165599Y-145172746D01*
X75165273Y-145172964D01*
X75160972Y-145175263D01*
X75160610Y-145175413D01*
X75155936Y-145176831D01*
X75155551Y-145176907D01*
X75144555Y-145177990D01*
X75144359Y-145178000D01*
X75088000Y-145178000D01*
X75086268Y-145177000D01*
X75086268Y-145175000D01*
X75087804Y-145174010D01*
X75104773Y-145172339D01*
X75120907Y-145167444D01*
X75135774Y-145159498D01*
X75148804Y-145148804D01*
X75159498Y-145135774D01*
X75167444Y-145120907D01*
X75172339Y-145104773D01*
X75174000Y-145087906D01*
X75174000Y-144287094D01*
X75172339Y-144270227D01*
X75167444Y-144254093D01*
X75159498Y-144239226D01*
X75148804Y-144226196D01*
X75135774Y-144215502D01*
X75120907Y-144207556D01*
X75104773Y-144202661D01*
X75087906Y-144201000D01*
X74912094Y-144201000D01*
X74895227Y-144202661D01*
X74879093Y-144207556D01*
X74864226Y-144215502D01*
X74851196Y-144226196D01*
X74840502Y-144239226D01*
X74832556Y-144254093D01*
X74827661Y-144270227D01*
X74826000Y-144287094D01*
X74826000Y-144300999D01*
X74825000Y-144302731D01*
X74823000Y-144302731D01*
X74822010Y-144301195D01*
X74819628Y-144277008D01*
X74812628Y-144253933D01*
X74801263Y-144232669D01*
X74785968Y-144214032D01*
X74767331Y-144198737D01*
X74746067Y-144187372D01*
X74722992Y-144180372D01*
X74698805Y-144177990D01*
X74697179Y-144176825D01*
X74697375Y-144174835D01*
X74699001Y-144174000D01*
X74712906Y-144174000D01*
X74729773Y-144172339D01*
X74745907Y-144167444D01*
X74760774Y-144159498D01*
X74773804Y-144148804D01*
X74784498Y-144135774D01*
X74792444Y-144120907D01*
X74797339Y-144104773D01*
X74799000Y-144087906D01*
X74799000Y-143912094D01*
X74797339Y-143895227D01*
X74792444Y-143879093D01*
X74784498Y-143864226D01*
X74773804Y-143851196D01*
X74760774Y-143840502D01*
X74745907Y-143832556D01*
X74729773Y-143827661D01*
X74712906Y-143826000D01*
X73912094Y-143826000D01*
X73895227Y-143827661D01*
X73879093Y-143832556D01*
X73864226Y-143840502D01*
X73851196Y-143851196D01*
X73840502Y-143864226D01*
X73832556Y-143879093D01*
X73827661Y-143895227D01*
X73825990Y-143912196D01*
X73824825Y-143913822D01*
X73822835Y-143913626D01*
X73822000Y-143912000D01*
X73822000Y-143855641D01*
X73822010Y-143855445D01*
X73823093Y-143844449D01*
X73823169Y-143844064D01*
X73824587Y-143839390D01*
X73824737Y-143839028D01*
X73827036Y-143834727D01*
X73827254Y-143834401D01*
X73832421Y-143828104D01*
X73845870Y-143807977D01*
X73855096Y-143785703D01*
X73859800Y-143762052D01*
X73859800Y-143737946D01*
X73855095Y-143714296D01*
X73845869Y-143692022D01*
X73832421Y-143671896D01*
X73827254Y-143665599D01*
X73827036Y-143665273D01*
X73824737Y-143660972D01*
X73824587Y-143660610D01*
X73823169Y-143655936D01*
X73823093Y-143655551D01*
X73822010Y-143644555D01*
X73822000Y-143644359D01*
X73822000Y-143588000D01*
X73823000Y-143586268D01*
X73825000Y-143586268D01*
X73825990Y-143587804D01*
X73827661Y-143604773D01*
X73832556Y-143620907D01*
X73840502Y-143635774D01*
X73851196Y-143648804D01*
X73864226Y-143659498D01*
X73879093Y-143667444D01*
X73895227Y-143672339D01*
X73912094Y-143674000D01*
X74712906Y-143674000D01*
X74729773Y-143672339D01*
X74745907Y-143667444D01*
X74760774Y-143659498D01*
X74773804Y-143648804D01*
X74784498Y-143635774D01*
X74792444Y-143620907D01*
X74797339Y-143604773D01*
X74799000Y-143587906D01*
X74799000Y-143412094D01*
X74797339Y-143395227D01*
X74792444Y-143379093D01*
X74784498Y-143364226D01*
X74773804Y-143351196D01*
X74760774Y-143340502D01*
X74745907Y-143332556D01*
X74729773Y-143327661D01*
X74712906Y-143326000D01*
X73912094Y-143326000D01*
X73895227Y-143327661D01*
X73879093Y-143332556D01*
X73864226Y-143340502D01*
X73851196Y-143351196D01*
X73840502Y-143364226D01*
X73832556Y-143379093D01*
X73827661Y-143395227D01*
X73825990Y-143412196D01*
X73824825Y-143413822D01*
X73822835Y-143413626D01*
X73822000Y-143412000D01*
X73822000Y-143355641D01*
X73822010Y-143355445D01*
X73823093Y-143344449D01*
X73823169Y-143344064D01*
X73824587Y-143339390D01*
X73824737Y-143339028D01*
X73827036Y-143334727D01*
X73827254Y-143334401D01*
X73832421Y-143328104D01*
X73845870Y-143307977D01*
X73855096Y-143285703D01*
X73859800Y-143262052D01*
X73859800Y-143237946D01*
X73855095Y-143214296D01*
X73845869Y-143192022D01*
X73832421Y-143171896D01*
X73827254Y-143165599D01*
X73827036Y-143165273D01*
X73824737Y-143160972D01*
X73824587Y-143160610D01*
X73823169Y-143155936D01*
X73823093Y-143155551D01*
X73822010Y-143144555D01*
X73822000Y-143144359D01*
X73822000Y-143088000D01*
X73823000Y-143086268D01*
X73825000Y-143086268D01*
X73825990Y-143087804D01*
X73827661Y-143104773D01*
X73832556Y-143120907D01*
X73840502Y-143135774D01*
X73851196Y-143148804D01*
X73864226Y-143159498D01*
X73879093Y-143167444D01*
X73895227Y-143172339D01*
X73912094Y-143174000D01*
X74712906Y-143174000D01*
X74729773Y-143172339D01*
X74745907Y-143167444D01*
X74760774Y-143159498D01*
X74773804Y-143148804D01*
X74784498Y-143135774D01*
X74792444Y-143120907D01*
X74797339Y-143104773D01*
X74799000Y-143087906D01*
X74799000Y-142912094D01*
X74797339Y-142895227D01*
X74792444Y-142879093D01*
X74784498Y-142864226D01*
X74773804Y-142851196D01*
X74760774Y-142840502D01*
X74745907Y-142832556D01*
X74729773Y-142827661D01*
X74712906Y-142826000D01*
X73912094Y-142826000D01*
X73895227Y-142827661D01*
X73879093Y-142832556D01*
X73864226Y-142840502D01*
X73851196Y-142851196D01*
X73840502Y-142864226D01*
X73832556Y-142879093D01*
X73827661Y-142895227D01*
X73825990Y-142912196D01*
X73824825Y-142913822D01*
X73822835Y-142913626D01*
X73822000Y-142912000D01*
X73822000Y-142855641D01*
X73822010Y-142855445D01*
X73823093Y-142844449D01*
X73823169Y-142844064D01*
X73824587Y-142839390D01*
X73824737Y-142839028D01*
X73827036Y-142834727D01*
X73827254Y-142834401D01*
X73832421Y-142828104D01*
X73845870Y-142807977D01*
X73855096Y-142785703D01*
X73859800Y-142762052D01*
X73859800Y-142737946D01*
X73855095Y-142714296D01*
X73845869Y-142692022D01*
X73832421Y-142671896D01*
X73827254Y-142665599D01*
X73827036Y-142665273D01*
X73824737Y-142660972D01*
X73824587Y-142660610D01*
X73823169Y-142655936D01*
X73823093Y-142655551D01*
X73822010Y-142644555D01*
X73822000Y-142644359D01*
X73822000Y-142588000D01*
X73823000Y-142586268D01*
X73825000Y-142586268D01*
X73825990Y-142587804D01*
X73827661Y-142604773D01*
X73832556Y-142620907D01*
X73840502Y-142635774D01*
X73851196Y-142648804D01*
X73864226Y-142659498D01*
X73879093Y-142667444D01*
X73895227Y-142672339D01*
X73912094Y-142674000D01*
X74712906Y-142674000D01*
X74729773Y-142672339D01*
X74745907Y-142667444D01*
X74760774Y-142659498D01*
X74773804Y-142648804D01*
X74784498Y-142635774D01*
X74792444Y-142620907D01*
X74797339Y-142604773D01*
X74799000Y-142587906D01*
X74799000Y-142412094D01*
X74797908Y-142401000D01*
X74901000Y-142401000D01*
X74901000Y-144099000D01*
X76599000Y-144099000D01*
X76599000Y-142401000D01*
X74901000Y-142401000D01*
X74797908Y-142401000D01*
X74797339Y-142395227D01*
X74792444Y-142379093D01*
X74784498Y-142364226D01*
X74773804Y-142351196D01*
X74760774Y-142340502D01*
X74745907Y-142332556D01*
X74729773Y-142327661D01*
X74712906Y-142326000D01*
X74699001Y-142326000D01*
X74697269Y-142325000D01*
X74697269Y-142323000D01*
X74698805Y-142322010D01*
X74722992Y-142319628D01*
X74746067Y-142312628D01*
X74767331Y-142301263D01*
X74785968Y-142285968D01*
X74801263Y-142267331D01*
X74812628Y-142246067D01*
X74819628Y-142222992D01*
X74822010Y-142198805D01*
X74823175Y-142197179D01*
X74825165Y-142197375D01*
X74826000Y-142199001D01*
X74826000Y-142212906D01*
X74827661Y-142229773D01*
X74832556Y-142245907D01*
X74840502Y-142260774D01*
X74851196Y-142273804D01*
X74864226Y-142284498D01*
X74879093Y-142292444D01*
X74895227Y-142297339D01*
X74912094Y-142299000D01*
X75087906Y-142299000D01*
X75104773Y-142297339D01*
X75120907Y-142292444D01*
X75135774Y-142284498D01*
X75148804Y-142273804D01*
X75159498Y-142260774D01*
X75167444Y-142245907D01*
X75172339Y-142229773D01*
X75174000Y-142212906D01*
X75174000Y-141412094D01*
X75172339Y-141395227D01*
X75167444Y-141379093D01*
X75159498Y-141364226D01*
X75148804Y-141351196D01*
X75135774Y-141340502D01*
X75120907Y-141332556D01*
X75104773Y-141327661D01*
X75087804Y-141325990D01*
X75086178Y-141324825D01*
X75086374Y-141322835D01*
X75088000Y-141322000D01*
X75144359Y-141322000D01*
X75144555Y-141322010D01*
G37*
G36*
X56712971Y-143850000D02*
G01*
X56712971Y-143852000D01*
X56711435Y-143852990D01*
X56687248Y-143855372D01*
X56664173Y-143862372D01*
X56642909Y-143873737D01*
X56624272Y-143889032D01*
X56608977Y-143907669D01*
X56597612Y-143928933D01*
X56590612Y-143952008D01*
X56588249Y-143975999D01*
X56590612Y-143999990D01*
X56597598Y-144023020D01*
X56614221Y-144050753D01*
X56614254Y-144052753D01*
X56612539Y-144053781D01*
X56610960Y-144053050D01*
X56604645Y-144045355D01*
X56582219Y-144026951D01*
X56556633Y-144013275D01*
X56528868Y-144004852D01*
X56500000Y-144002009D01*
X56471131Y-144004852D01*
X56443366Y-144013275D01*
X56417780Y-144026951D01*
X56395355Y-144045355D01*
X56376951Y-144067781D01*
X56363275Y-144093367D01*
X56354852Y-144121132D01*
X56352000Y-144150094D01*
X56352001Y-144650000D01*
X56352000Y-144650002D01*
X56352000Y-144950000D01*
X56351000Y-144951732D01*
X56350000Y-144952000D01*
X56250000Y-144952000D01*
X56248268Y-144951000D01*
X56248000Y-144950000D01*
X56248000Y-144150094D01*
X56245148Y-144121131D01*
X56236725Y-144093366D01*
X56223049Y-144067780D01*
X56204645Y-144045355D01*
X56182219Y-144026951D01*
X56156633Y-144013275D01*
X56128868Y-144004852D01*
X56100000Y-144002009D01*
X56071131Y-144004852D01*
X56043366Y-144013275D01*
X56017780Y-144026951D01*
X55995355Y-144045355D01*
X55976951Y-144067781D01*
X55963275Y-144093367D01*
X55954852Y-144121132D01*
X55952000Y-144150094D01*
X55952001Y-144650000D01*
X55952000Y-144650002D01*
X55952000Y-144950000D01*
X55951000Y-144951732D01*
X55950000Y-144952000D01*
X55850000Y-144952000D01*
X55848268Y-144951000D01*
X55848000Y-144950000D01*
X55848000Y-144150094D01*
X55845148Y-144121131D01*
X55836725Y-144093366D01*
X55823049Y-144067780D01*
X55804645Y-144045355D01*
X55782219Y-144026951D01*
X55756633Y-144013275D01*
X55728868Y-144004852D01*
X55700000Y-144002009D01*
X55671131Y-144004852D01*
X55643366Y-144013275D01*
X55617780Y-144026951D01*
X55595355Y-144045355D01*
X55576951Y-144067781D01*
X55563275Y-144093367D01*
X55554852Y-144121132D01*
X55552000Y-144150094D01*
X55552001Y-144650000D01*
X55552000Y-144650002D01*
X55552000Y-144950000D01*
X55551000Y-144951732D01*
X55550000Y-144952000D01*
X55450000Y-144952000D01*
X55448268Y-144951000D01*
X55448000Y-144950000D01*
X55448000Y-144150094D01*
X55445148Y-144121131D01*
X55436725Y-144093366D01*
X55423049Y-144067780D01*
X55404645Y-144045355D01*
X55382219Y-144026951D01*
X55356633Y-144013275D01*
X55328868Y-144004852D01*
X55300000Y-144002009D01*
X55271131Y-144004852D01*
X55243366Y-144013275D01*
X55217780Y-144026951D01*
X55195355Y-144045355D01*
X55176951Y-144067781D01*
X55163275Y-144093367D01*
X55154852Y-144121132D01*
X55152000Y-144150094D01*
X55152001Y-144650000D01*
X55152000Y-144650002D01*
X55152000Y-144950000D01*
X55151000Y-144951732D01*
X55150000Y-144952000D01*
X55050000Y-144952000D01*
X55048268Y-144951000D01*
X55048000Y-144950000D01*
X55048000Y-144150094D01*
X55045148Y-144121131D01*
X55036725Y-144093366D01*
X55023049Y-144067780D01*
X55004645Y-144045355D01*
X54982219Y-144026951D01*
X54956633Y-144013275D01*
X54928868Y-144004852D01*
X54900000Y-144002009D01*
X54871131Y-144004852D01*
X54843366Y-144013275D01*
X54817780Y-144026951D01*
X54795355Y-144045355D01*
X54776951Y-144067781D01*
X54763275Y-144093367D01*
X54754852Y-144121132D01*
X54752000Y-144150094D01*
X54752001Y-144650000D01*
X54752000Y-144650002D01*
X54752000Y-144950000D01*
X54751000Y-144951732D01*
X54750000Y-144952000D01*
X54650000Y-144952000D01*
X54648268Y-144951000D01*
X54648000Y-144950000D01*
X54648000Y-144150094D01*
X54645148Y-144121131D01*
X54636725Y-144093366D01*
X54623049Y-144067780D01*
X54604645Y-144045355D01*
X54582219Y-144026951D01*
X54556633Y-144013275D01*
X54528868Y-144004852D01*
X54500000Y-144002009D01*
X54471131Y-144004852D01*
X54443366Y-144013275D01*
X54417780Y-144026951D01*
X54395355Y-144045355D01*
X54390341Y-144051465D01*
X54388469Y-144052169D01*
X54386923Y-144050901D01*
X54387132Y-144049085D01*
X54397229Y-144033974D01*
X54406454Y-144011700D01*
X54411158Y-143988049D01*
X54411158Y-143963943D01*
X54406453Y-143940293D01*
X54397226Y-143918019D01*
X54383831Y-143897972D01*
X54366783Y-143880926D01*
X54346736Y-143867531D01*
X54324505Y-143858323D01*
X54288468Y-143852978D01*
X54286901Y-143851735D01*
X54287194Y-143849757D01*
X54288761Y-143849000D01*
X56711239Y-143849000D01*
X56712971Y-143850000D01*
G37*
G36*
X54751732Y-140049000D02*
G01*
X54752000Y-140050000D01*
X54752000Y-140200000D01*
X54752001Y-140849906D01*
X54754853Y-140878869D01*
X54763276Y-140906634D01*
X54776952Y-140932220D01*
X54795356Y-140954645D01*
X54817781Y-140973049D01*
X54843367Y-140986725D01*
X54871132Y-140995148D01*
X54900000Y-140997991D01*
X54928869Y-140995148D01*
X54956634Y-140986725D01*
X54982220Y-140973049D01*
X55004645Y-140954645D01*
X55023049Y-140932220D01*
X55036725Y-140906634D01*
X55045148Y-140878869D01*
X55048000Y-140849906D01*
X55048000Y-140050000D01*
X55049000Y-140048268D01*
X55050000Y-140048000D01*
X55150000Y-140048000D01*
X55151732Y-140049000D01*
X55152000Y-140050000D01*
X55152000Y-140200000D01*
X55152001Y-140849906D01*
X55154853Y-140878869D01*
X55163276Y-140906634D01*
X55176952Y-140932220D01*
X55195356Y-140954645D01*
X55217781Y-140973049D01*
X55243367Y-140986725D01*
X55271132Y-140995148D01*
X55300000Y-140997991D01*
X55328869Y-140995148D01*
X55356634Y-140986725D01*
X55382220Y-140973049D01*
X55404645Y-140954645D01*
X55423049Y-140932220D01*
X55436725Y-140906634D01*
X55445148Y-140878869D01*
X55448000Y-140849906D01*
X55448000Y-140050000D01*
X55449000Y-140048268D01*
X55450000Y-140048000D01*
X55550000Y-140048000D01*
X55551732Y-140049000D01*
X55552000Y-140050000D01*
X55552000Y-140200000D01*
X55552001Y-140849906D01*
X55554853Y-140878869D01*
X55563276Y-140906634D01*
X55576952Y-140932220D01*
X55595356Y-140954645D01*
X55617781Y-140973049D01*
X55643367Y-140986725D01*
X55671132Y-140995148D01*
X55700000Y-140997991D01*
X55728869Y-140995148D01*
X55756634Y-140986725D01*
X55782220Y-140973049D01*
X55804645Y-140954645D01*
X55823049Y-140932220D01*
X55836725Y-140906634D01*
X55845148Y-140878869D01*
X55848000Y-140849906D01*
X55848000Y-140050000D01*
X55849000Y-140048268D01*
X55850000Y-140048000D01*
X55950000Y-140048000D01*
X55951732Y-140049000D01*
X55952000Y-140050000D01*
X55952000Y-140200000D01*
X55952001Y-140849906D01*
X55954853Y-140878869D01*
X55963276Y-140906634D01*
X55976952Y-140932220D01*
X55995356Y-140954645D01*
X56017781Y-140973049D01*
X56043367Y-140986725D01*
X56071132Y-140995148D01*
X56100000Y-140997991D01*
X56128869Y-140995148D01*
X56156634Y-140986725D01*
X56182220Y-140973049D01*
X56204645Y-140954645D01*
X56223049Y-140932220D01*
X56236725Y-140906634D01*
X56245148Y-140878869D01*
X56248000Y-140849906D01*
X56248000Y-140050000D01*
X56249000Y-140048268D01*
X56250000Y-140048000D01*
X56350000Y-140048000D01*
X56351732Y-140049000D01*
X56352000Y-140050000D01*
X56352000Y-140200000D01*
X56352001Y-140849906D01*
X56354853Y-140878869D01*
X56363276Y-140906634D01*
X56376952Y-140932220D01*
X56395356Y-140954645D01*
X56417781Y-140973049D01*
X56443367Y-140986725D01*
X56471132Y-140995148D01*
X56500000Y-140997991D01*
X56528869Y-140995148D01*
X56556634Y-140986725D01*
X56582220Y-140973049D01*
X56604645Y-140954645D01*
X56609658Y-140948537D01*
X56611530Y-140947833D01*
X56613076Y-140949102D01*
X56612867Y-140950917D01*
X56602771Y-140966026D01*
X56593546Y-140988300D01*
X56588842Y-141011951D01*
X56588842Y-141036057D01*
X56593547Y-141059707D01*
X56602774Y-141081981D01*
X56616169Y-141102028D01*
X56633217Y-141119074D01*
X56653264Y-141132469D01*
X56675495Y-141141677D01*
X56711532Y-141147022D01*
X56713099Y-141148265D01*
X56712806Y-141150243D01*
X56711239Y-141151000D01*
X54288762Y-141151000D01*
X54287030Y-141150000D01*
X54287030Y-141148000D01*
X54288566Y-141147010D01*
X54312753Y-141144628D01*
X54335828Y-141137628D01*
X54357092Y-141126263D01*
X54375729Y-141110968D01*
X54391024Y-141092331D01*
X54402389Y-141071067D01*
X54409389Y-141047992D01*
X54411752Y-141024001D01*
X54409389Y-141000010D01*
X54402403Y-140976980D01*
X54385780Y-140949247D01*
X54385747Y-140947247D01*
X54387462Y-140946219D01*
X54389041Y-140946950D01*
X54395356Y-140954645D01*
X54417781Y-140973049D01*
X54443367Y-140986725D01*
X54471132Y-140995148D01*
X54500000Y-140997991D01*
X54528869Y-140995148D01*
X54556634Y-140986725D01*
X54582220Y-140973049D01*
X54604645Y-140954645D01*
X54623049Y-140932220D01*
X54636725Y-140906634D01*
X54645148Y-140878869D01*
X54648000Y-140849906D01*
X54648000Y-140050000D01*
X54649000Y-140048268D01*
X54650000Y-140048000D01*
X54750000Y-140048000D01*
X54751732Y-140049000D01*
G37*
G36*
X97663232Y-134948000D02*
G01*
X97663500Y-134949000D01*
X97663500Y-136251000D01*
X97662500Y-136252732D01*
X97661500Y-136253000D01*
X97528500Y-136253000D01*
X97526768Y-136252000D01*
X97526500Y-136251000D01*
X97526500Y-134949000D01*
X97527500Y-134947268D01*
X97528500Y-134947000D01*
X97661500Y-134947000D01*
X97663232Y-134948000D01*
G37*
G36*
X98298232Y-134948000D02*
G01*
X98298500Y-134949000D01*
X98298500Y-136251000D01*
X98297500Y-136252732D01*
X98296500Y-136253000D01*
X98163500Y-136253000D01*
X98161768Y-136252000D01*
X98161500Y-136251000D01*
X98161500Y-134949000D01*
X98162500Y-134947268D01*
X98163500Y-134947000D01*
X98296500Y-134947000D01*
X98298232Y-134948000D01*
G37*
G36*
X98933232Y-134948000D02*
G01*
X98933500Y-134949000D01*
X98933500Y-136251000D01*
X98932500Y-136252732D01*
X98931500Y-136253000D01*
X98798500Y-136253000D01*
X98796768Y-136252000D01*
X98796500Y-136251000D01*
X98796500Y-134949000D01*
X98797500Y-134947268D01*
X98798500Y-134947000D01*
X98931500Y-134947000D01*
X98933232Y-134948000D01*
G37*
G36*
X99568232Y-134948000D02*
G01*
X99568500Y-134949000D01*
X99568500Y-136251000D01*
X99567500Y-136252732D01*
X99566500Y-136253000D01*
X99433500Y-136253000D01*
X99431768Y-136252000D01*
X99431500Y-136251000D01*
X99431500Y-134949000D01*
X99432500Y-134947268D01*
X99433500Y-134947000D01*
X99566500Y-134947000D01*
X99568232Y-134948000D01*
G37*
G36*
X100203232Y-134948000D02*
G01*
X100203500Y-134949000D01*
X100203500Y-136251000D01*
X100202500Y-136252732D01*
X100201500Y-136253000D01*
X100068500Y-136253000D01*
X100066768Y-136252000D01*
X100066500Y-136251000D01*
X100066500Y-134949000D01*
X100067500Y-134947268D01*
X100068500Y-134947000D01*
X100201500Y-134947000D01*
X100203232Y-134948000D01*
G37*
G36*
X100838232Y-134948000D02*
G01*
X100838500Y-134949000D01*
X100838500Y-136251000D01*
X100837500Y-136252732D01*
X100836500Y-136253000D01*
X100703500Y-136253000D01*
X100701768Y-136252000D01*
X100701500Y-136251000D01*
X100701500Y-134949000D01*
X100702500Y-134947268D01*
X100703500Y-134947000D01*
X100836500Y-134947000D01*
X100838232Y-134948000D01*
G37*
G36*
X97028232Y-134948000D02*
G01*
X97028500Y-134949000D01*
X97028500Y-136251000D01*
X97027500Y-136252732D01*
X97026500Y-136253000D01*
X96893500Y-136253000D01*
X96891768Y-136252000D01*
X96891500Y-136251000D01*
X96891500Y-134949000D01*
X96892500Y-134947268D01*
X96893500Y-134947000D01*
X97026500Y-134947000D01*
X97028232Y-134948000D01*
G37*
G36*
X101473232Y-134948000D02*
G01*
X101473500Y-134949000D01*
X101473500Y-136251000D01*
X101472500Y-136252732D01*
X101471500Y-136253000D01*
X101338500Y-136253000D01*
X101336768Y-136252000D01*
X101336500Y-136251000D01*
X101336500Y-134949000D01*
X101337500Y-134947268D01*
X101338500Y-134947000D01*
X101471500Y-134947000D01*
X101473232Y-134948000D01*
G37*
G36*
X102108232Y-134948000D02*
G01*
X102108500Y-134949000D01*
X102108500Y-136251000D01*
X102107500Y-136252732D01*
X102106500Y-136253000D01*
X101973500Y-136253000D01*
X101971768Y-136252000D01*
X101971500Y-136251000D01*
X101971500Y-134949000D01*
X101972500Y-134947268D01*
X101973500Y-134947000D01*
X102106500Y-134947000D01*
X102108232Y-134948000D01*
G37*
G36*
X100203232Y-129748000D02*
G01*
X100203500Y-129749000D01*
X100203500Y-131051000D01*
X100202500Y-131052732D01*
X100201500Y-131053000D01*
X100068500Y-131053000D01*
X100066768Y-131052000D01*
X100066500Y-131051000D01*
X100066500Y-129749000D01*
X100067500Y-129747268D01*
X100068500Y-129747000D01*
X100201500Y-129747000D01*
X100203232Y-129748000D01*
G37*
G36*
X98933232Y-129748000D02*
G01*
X98933500Y-129749000D01*
X98933500Y-131051000D01*
X98932500Y-131052732D01*
X98931500Y-131053000D01*
X98798500Y-131053000D01*
X98796768Y-131052000D01*
X98796500Y-131051000D01*
X98796500Y-129749000D01*
X98797500Y-129747268D01*
X98798500Y-129747000D01*
X98931500Y-129747000D01*
X98933232Y-129748000D01*
G37*
G36*
X99568232Y-129748000D02*
G01*
X99568500Y-129749000D01*
X99568500Y-131051000D01*
X99567500Y-131052732D01*
X99566500Y-131053000D01*
X99433500Y-131053000D01*
X99431768Y-131052000D01*
X99431500Y-131051000D01*
X99431500Y-129749000D01*
X99432500Y-129747268D01*
X99433500Y-129747000D01*
X99566500Y-129747000D01*
X99568232Y-129748000D01*
G37*
G36*
X100838232Y-129748000D02*
G01*
X100838500Y-129749000D01*
X100838500Y-131051000D01*
X100837500Y-131052732D01*
X100836500Y-131053000D01*
X100703500Y-131053000D01*
X100701768Y-131052000D01*
X100701500Y-131051000D01*
X100701500Y-129749000D01*
X100702500Y-129747268D01*
X100703500Y-129747000D01*
X100836500Y-129747000D01*
X100838232Y-129748000D01*
G37*
G36*
X101473232Y-129748000D02*
G01*
X101473500Y-129749000D01*
X101473500Y-131051000D01*
X101472500Y-131052732D01*
X101471500Y-131053000D01*
X101338500Y-131053000D01*
X101336768Y-131052000D01*
X101336500Y-131051000D01*
X101336500Y-129749000D01*
X101337500Y-129747268D01*
X101338500Y-129747000D01*
X101471500Y-129747000D01*
X101473232Y-129748000D01*
G37*
G36*
X97028232Y-129748000D02*
G01*
X97028500Y-129749000D01*
X97028500Y-131051000D01*
X97027500Y-131052732D01*
X97026500Y-131053000D01*
X96893500Y-131053000D01*
X96891768Y-131052000D01*
X96891500Y-131051000D01*
X96891500Y-129749000D01*
X96892500Y-129747268D01*
X96893500Y-129747000D01*
X97026500Y-129747000D01*
X97028232Y-129748000D01*
G37*
G36*
X97663232Y-129748000D02*
G01*
X97663500Y-129749000D01*
X97663500Y-131051000D01*
X97662500Y-131052732D01*
X97661500Y-131053000D01*
X97528500Y-131053000D01*
X97526768Y-131052000D01*
X97526500Y-131051000D01*
X97526500Y-129749000D01*
X97527500Y-129747268D01*
X97528500Y-129747000D01*
X97661500Y-129747000D01*
X97663232Y-129748000D01*
G37*
G36*
X102108232Y-129748000D02*
G01*
X102108500Y-129749000D01*
X102108500Y-131051000D01*
X102107500Y-131052732D01*
X102106500Y-131053000D01*
X101973500Y-131053000D01*
X101971768Y-131052000D01*
X101971500Y-131051000D01*
X101971500Y-129749000D01*
X101972500Y-129747268D01*
X101973500Y-129747000D01*
X102106500Y-129747000D01*
X102108232Y-129748000D01*
G37*
G36*
X98298232Y-129748000D02*
G01*
X98298500Y-129749000D01*
X98298500Y-131051000D01*
X98297500Y-131052732D01*
X98296500Y-131053000D01*
X98163500Y-131053000D01*
X98161768Y-131052000D01*
X98161500Y-131051000D01*
X98161500Y-129749000D01*
X98162500Y-129747268D01*
X98163500Y-129747000D01*
X98296500Y-129747000D01*
X98298232Y-129748000D01*
G37*
G36*
X31614288Y-129668225D02*
G01*
X31614438Y-129670046D01*
X31591874Y-129724521D01*
X31555579Y-129906985D01*
X31555579Y-130093015D01*
X31591874Y-130275479D01*
X31614438Y-130329953D01*
X31614177Y-130331936D01*
X31612329Y-130332701D01*
X31610826Y-130331661D01*
X31602262Y-130315638D01*
X31586966Y-130297001D01*
X31568329Y-130281706D01*
X31547066Y-130270341D01*
X31523991Y-130263341D01*
X31500000Y-130260978D01*
X31476008Y-130263341D01*
X31452934Y-130270341D01*
X31431670Y-130281706D01*
X31413033Y-130297002D01*
X31397738Y-130315639D01*
X31389174Y-130331662D01*
X31387475Y-130332718D01*
X31385712Y-130331775D01*
X31385562Y-130329954D01*
X31408126Y-130275479D01*
X31444421Y-130093015D01*
X31444421Y-129906985D01*
X31408126Y-129724521D01*
X31385562Y-129670047D01*
X31385823Y-129668064D01*
X31387671Y-129667299D01*
X31389174Y-129668339D01*
X31397738Y-129684362D01*
X31413034Y-129702999D01*
X31431671Y-129718294D01*
X31452934Y-129729659D01*
X31476009Y-129736659D01*
X31500000Y-129739022D01*
X31523992Y-129736659D01*
X31547066Y-129729659D01*
X31568330Y-129718294D01*
X31586967Y-129702998D01*
X31602262Y-129684361D01*
X31610826Y-129668338D01*
X31612525Y-129667282D01*
X31614288Y-129668225D01*
G37*
G36*
X42590935Y-129725749D02*
G01*
X42591310Y-129727356D01*
X42555579Y-129906985D01*
X42555579Y-130093015D01*
X42591310Y-130272644D01*
X42590667Y-130274538D01*
X42588705Y-130274928D01*
X42587500Y-130273800D01*
X42586744Y-130271974D01*
X42575333Y-130250625D01*
X42560038Y-130231988D01*
X42541401Y-130216693D01*
X42520137Y-130205328D01*
X42497062Y-130198328D01*
X42473071Y-130195965D01*
X42449080Y-130198328D01*
X42426005Y-130205328D01*
X42404741Y-130216693D01*
X42386104Y-130231988D01*
X42370809Y-130250625D01*
X42362242Y-130266653D01*
X42360543Y-130267709D01*
X42358780Y-130266766D01*
X42358630Y-130264945D01*
X42360279Y-130260964D01*
X42394661Y-130088114D01*
X42394661Y-129911886D01*
X42360279Y-129739036D01*
X42358630Y-129735055D01*
X42358891Y-129733073D01*
X42360739Y-129732307D01*
X42362242Y-129733347D01*
X42370809Y-129749375D01*
X42386105Y-129768012D01*
X42404742Y-129783307D01*
X42426005Y-129794672D01*
X42449080Y-129801672D01*
X42473072Y-129804035D01*
X42497063Y-129801672D01*
X42520138Y-129794672D01*
X42541401Y-129783307D01*
X42560038Y-129768011D01*
X42575333Y-129749374D01*
X42586744Y-129728026D01*
X42587500Y-129726200D01*
X42589087Y-129724983D01*
X42590935Y-129725749D01*
G37*
G36*
X31614288Y-114668225D02*
G01*
X31614438Y-114670046D01*
X31591874Y-114724521D01*
X31555579Y-114906985D01*
X31555579Y-115093015D01*
X31591874Y-115275479D01*
X31614438Y-115329953D01*
X31614177Y-115331936D01*
X31612329Y-115332701D01*
X31610826Y-115331661D01*
X31602262Y-115315638D01*
X31586966Y-115297001D01*
X31568329Y-115281706D01*
X31547066Y-115270341D01*
X31523991Y-115263341D01*
X31500000Y-115260978D01*
X31476008Y-115263341D01*
X31452934Y-115270341D01*
X31431670Y-115281706D01*
X31413033Y-115297002D01*
X31397738Y-115315639D01*
X31389174Y-115331662D01*
X31387475Y-115332718D01*
X31385712Y-115331775D01*
X31385562Y-115329954D01*
X31408126Y-115275479D01*
X31444421Y-115093015D01*
X31444421Y-114906985D01*
X31408126Y-114724521D01*
X31385562Y-114670047D01*
X31385823Y-114668064D01*
X31387671Y-114667299D01*
X31389174Y-114668339D01*
X31397738Y-114684362D01*
X31413034Y-114702999D01*
X31431671Y-114718294D01*
X31452934Y-114729659D01*
X31476009Y-114736659D01*
X31500000Y-114739022D01*
X31523992Y-114736659D01*
X31547066Y-114729659D01*
X31568330Y-114718294D01*
X31586967Y-114702998D01*
X31602262Y-114684361D01*
X31610826Y-114668338D01*
X31612525Y-114667282D01*
X31614288Y-114668225D01*
G37*
G36*
X42590935Y-114725749D02*
G01*
X42591310Y-114727356D01*
X42555579Y-114906985D01*
X42555579Y-115093015D01*
X42591310Y-115272644D01*
X42590667Y-115274538D01*
X42588705Y-115274928D01*
X42587500Y-115273800D01*
X42586744Y-115271974D01*
X42575333Y-115250625D01*
X42560038Y-115231988D01*
X42541401Y-115216693D01*
X42520137Y-115205328D01*
X42497062Y-115198328D01*
X42473071Y-115195965D01*
X42449080Y-115198328D01*
X42426005Y-115205328D01*
X42404741Y-115216693D01*
X42386104Y-115231988D01*
X42370809Y-115250625D01*
X42362242Y-115266653D01*
X42360543Y-115267709D01*
X42358780Y-115266766D01*
X42358630Y-115264945D01*
X42360279Y-115260964D01*
X42394661Y-115088114D01*
X42394661Y-114911886D01*
X42360279Y-114739036D01*
X42358630Y-114735055D01*
X42358891Y-114733073D01*
X42360739Y-114732307D01*
X42362242Y-114733347D01*
X42370809Y-114749375D01*
X42386105Y-114768012D01*
X42404742Y-114783307D01*
X42426005Y-114794672D01*
X42449080Y-114801672D01*
X42473072Y-114804035D01*
X42497063Y-114801672D01*
X42520138Y-114794672D01*
X42541401Y-114783307D01*
X42560038Y-114768011D01*
X42575333Y-114749374D01*
X42586744Y-114728026D01*
X42587500Y-114726200D01*
X42589087Y-114724983D01*
X42590935Y-114725749D01*
G37*
G36*
X31614288Y-99668225D02*
G01*
X31614438Y-99670046D01*
X31591874Y-99724521D01*
X31555579Y-99906985D01*
X31555579Y-100093015D01*
X31591874Y-100275479D01*
X31614438Y-100329953D01*
X31614177Y-100331936D01*
X31612329Y-100332701D01*
X31610826Y-100331661D01*
X31602262Y-100315638D01*
X31586966Y-100297001D01*
X31568329Y-100281706D01*
X31547066Y-100270341D01*
X31523991Y-100263341D01*
X31500000Y-100260978D01*
X31476008Y-100263341D01*
X31452934Y-100270341D01*
X31431670Y-100281706D01*
X31413033Y-100297002D01*
X31397738Y-100315639D01*
X31389174Y-100331662D01*
X31387475Y-100332718D01*
X31385712Y-100331775D01*
X31385562Y-100329954D01*
X31408126Y-100275479D01*
X31444421Y-100093015D01*
X31444421Y-99906985D01*
X31408126Y-99724521D01*
X31385562Y-99670047D01*
X31385823Y-99668064D01*
X31387671Y-99667299D01*
X31389174Y-99668339D01*
X31397738Y-99684362D01*
X31413034Y-99702999D01*
X31431671Y-99718294D01*
X31452934Y-99729659D01*
X31476009Y-99736659D01*
X31500000Y-99739022D01*
X31523992Y-99736659D01*
X31547066Y-99729659D01*
X31568330Y-99718294D01*
X31586967Y-99702998D01*
X31602262Y-99684361D01*
X31610826Y-99668338D01*
X31612525Y-99667282D01*
X31614288Y-99668225D01*
G37*
G36*
X42590935Y-99725749D02*
G01*
X42591310Y-99727356D01*
X42555579Y-99906985D01*
X42555579Y-100093015D01*
X42591310Y-100272644D01*
X42590667Y-100274538D01*
X42588705Y-100274928D01*
X42587500Y-100273800D01*
X42586744Y-100271974D01*
X42575333Y-100250625D01*
X42560038Y-100231988D01*
X42541401Y-100216693D01*
X42520137Y-100205328D01*
X42497062Y-100198328D01*
X42473071Y-100195965D01*
X42449080Y-100198328D01*
X42426005Y-100205328D01*
X42404741Y-100216693D01*
X42386104Y-100231988D01*
X42370809Y-100250625D01*
X42362242Y-100266653D01*
X42360543Y-100267709D01*
X42358780Y-100266766D01*
X42358630Y-100264945D01*
X42360279Y-100260964D01*
X42394661Y-100088114D01*
X42394661Y-99911886D01*
X42360279Y-99739036D01*
X42358630Y-99735055D01*
X42358891Y-99733073D01*
X42360739Y-99732307D01*
X42362242Y-99733347D01*
X42370809Y-99749375D01*
X42386105Y-99768012D01*
X42404742Y-99783307D01*
X42426005Y-99794672D01*
X42449080Y-99801672D01*
X42473072Y-99804035D01*
X42497063Y-99801672D01*
X42520138Y-99794672D01*
X42541401Y-99783307D01*
X42560038Y-99768011D01*
X42575333Y-99749374D01*
X42586744Y-99728026D01*
X42587500Y-99726200D01*
X42589087Y-99724983D01*
X42590935Y-99725749D01*
G37*
G36*
X31614288Y-84668225D02*
G01*
X31614438Y-84670046D01*
X31591874Y-84724521D01*
X31555579Y-84906985D01*
X31555579Y-85093015D01*
X31591874Y-85275479D01*
X31614438Y-85329953D01*
X31614177Y-85331936D01*
X31612329Y-85332701D01*
X31610826Y-85331661D01*
X31602262Y-85315638D01*
X31586966Y-85297001D01*
X31568329Y-85281706D01*
X31547066Y-85270341D01*
X31523991Y-85263341D01*
X31500000Y-85260978D01*
X31476008Y-85263341D01*
X31452934Y-85270341D01*
X31431670Y-85281706D01*
X31413033Y-85297002D01*
X31397738Y-85315639D01*
X31389174Y-85331662D01*
X31387475Y-85332718D01*
X31385712Y-85331775D01*
X31385562Y-85329954D01*
X31408126Y-85275479D01*
X31444421Y-85093015D01*
X31444421Y-84906985D01*
X31408126Y-84724521D01*
X31385562Y-84670047D01*
X31385823Y-84668064D01*
X31387671Y-84667299D01*
X31389174Y-84668339D01*
X31397738Y-84684362D01*
X31413034Y-84702999D01*
X31431671Y-84718294D01*
X31452934Y-84729659D01*
X31476009Y-84736659D01*
X31500000Y-84739022D01*
X31523992Y-84736659D01*
X31547066Y-84729659D01*
X31568330Y-84718294D01*
X31586967Y-84702998D01*
X31602262Y-84684361D01*
X31610826Y-84668338D01*
X31612525Y-84667282D01*
X31614288Y-84668225D01*
G37*
G36*
X42590935Y-84725749D02*
G01*
X42591310Y-84727356D01*
X42555579Y-84906985D01*
X42555579Y-85093015D01*
X42591310Y-85272644D01*
X42590667Y-85274538D01*
X42588705Y-85274928D01*
X42587500Y-85273800D01*
X42586744Y-85271974D01*
X42575333Y-85250625D01*
X42560038Y-85231988D01*
X42541401Y-85216693D01*
X42520137Y-85205328D01*
X42497062Y-85198328D01*
X42473071Y-85195965D01*
X42449080Y-85198328D01*
X42426005Y-85205328D01*
X42404741Y-85216693D01*
X42386104Y-85231988D01*
X42370809Y-85250625D01*
X42362242Y-85266653D01*
X42360543Y-85267709D01*
X42358780Y-85266766D01*
X42358630Y-85264945D01*
X42360279Y-85260964D01*
X42394661Y-85088114D01*
X42394661Y-84911886D01*
X42360279Y-84739036D01*
X42358630Y-84735055D01*
X42358891Y-84733073D01*
X42360739Y-84732307D01*
X42362242Y-84733347D01*
X42370809Y-84749375D01*
X42386105Y-84768012D01*
X42404742Y-84783307D01*
X42426005Y-84794672D01*
X42449080Y-84801672D01*
X42473072Y-84804035D01*
X42497063Y-84801672D01*
X42520138Y-84794672D01*
X42541401Y-84783307D01*
X42560038Y-84768011D01*
X42575333Y-84749374D01*
X42586744Y-84728026D01*
X42587500Y-84726200D01*
X42589087Y-84724983D01*
X42590935Y-84725749D01*
G37*
G36*
X31614288Y-69668225D02*
G01*
X31614438Y-69670046D01*
X31591874Y-69724521D01*
X31555579Y-69906985D01*
X31555579Y-70093015D01*
X31591874Y-70275479D01*
X31614438Y-70329953D01*
X31614177Y-70331936D01*
X31612329Y-70332701D01*
X31610826Y-70331661D01*
X31602262Y-70315638D01*
X31586966Y-70297001D01*
X31568329Y-70281706D01*
X31547066Y-70270341D01*
X31523991Y-70263341D01*
X31500000Y-70260978D01*
X31476008Y-70263341D01*
X31452934Y-70270341D01*
X31431670Y-70281706D01*
X31413033Y-70297002D01*
X31397738Y-70315639D01*
X31389174Y-70331662D01*
X31387475Y-70332718D01*
X31385712Y-70331775D01*
X31385562Y-70329954D01*
X31408126Y-70275479D01*
X31444421Y-70093015D01*
X31444421Y-69906985D01*
X31408126Y-69724521D01*
X31385562Y-69670047D01*
X31385823Y-69668064D01*
X31387671Y-69667299D01*
X31389174Y-69668339D01*
X31397738Y-69684362D01*
X31413034Y-69702999D01*
X31431671Y-69718294D01*
X31452934Y-69729659D01*
X31476009Y-69736659D01*
X31500000Y-69739022D01*
X31523992Y-69736659D01*
X31547066Y-69729659D01*
X31568330Y-69718294D01*
X31586967Y-69702998D01*
X31602262Y-69684361D01*
X31610826Y-69668338D01*
X31612525Y-69667282D01*
X31614288Y-69668225D01*
G37*
G36*
X42590935Y-69725749D02*
G01*
X42591310Y-69727356D01*
X42555579Y-69906985D01*
X42555579Y-70093015D01*
X42591310Y-70272644D01*
X42590667Y-70274538D01*
X42588705Y-70274928D01*
X42587500Y-70273800D01*
X42586744Y-70271974D01*
X42575333Y-70250625D01*
X42560038Y-70231988D01*
X42541401Y-70216693D01*
X42520137Y-70205328D01*
X42497062Y-70198328D01*
X42473071Y-70195965D01*
X42449080Y-70198328D01*
X42426005Y-70205328D01*
X42404741Y-70216693D01*
X42386104Y-70231988D01*
X42370809Y-70250625D01*
X42362242Y-70266653D01*
X42360543Y-70267709D01*
X42358780Y-70266766D01*
X42358630Y-70264945D01*
X42360279Y-70260964D01*
X42394661Y-70088114D01*
X42394661Y-69911886D01*
X42360279Y-69739036D01*
X42358630Y-69735055D01*
X42358891Y-69733073D01*
X42360739Y-69732307D01*
X42362242Y-69733347D01*
X42370809Y-69749375D01*
X42386105Y-69768012D01*
X42404742Y-69783307D01*
X42426005Y-69794672D01*
X42449080Y-69801672D01*
X42473072Y-69804035D01*
X42497063Y-69801672D01*
X42520138Y-69794672D01*
X42541401Y-69783307D01*
X42560038Y-69768011D01*
X42575333Y-69749374D01*
X42586744Y-69728026D01*
X42587500Y-69726200D01*
X42589087Y-69724983D01*
X42590935Y-69725749D01*
G37*
G36*
X31614288Y-54668225D02*
G01*
X31614438Y-54670046D01*
X31591874Y-54724521D01*
X31555579Y-54906985D01*
X31555579Y-55093015D01*
X31591874Y-55275479D01*
X31614438Y-55329953D01*
X31614177Y-55331936D01*
X31612329Y-55332701D01*
X31610826Y-55331661D01*
X31602262Y-55315638D01*
X31586966Y-55297001D01*
X31568329Y-55281706D01*
X31547066Y-55270341D01*
X31523991Y-55263341D01*
X31500000Y-55260978D01*
X31476008Y-55263341D01*
X31452934Y-55270341D01*
X31431670Y-55281706D01*
X31413033Y-55297002D01*
X31397738Y-55315639D01*
X31389174Y-55331662D01*
X31387475Y-55332718D01*
X31385712Y-55331775D01*
X31385562Y-55329954D01*
X31408126Y-55275479D01*
X31444421Y-55093015D01*
X31444421Y-54906985D01*
X31408126Y-54724521D01*
X31385562Y-54670047D01*
X31385823Y-54668064D01*
X31387671Y-54667299D01*
X31389174Y-54668339D01*
X31397738Y-54684362D01*
X31413034Y-54702999D01*
X31431671Y-54718294D01*
X31452934Y-54729659D01*
X31476009Y-54736659D01*
X31500000Y-54739022D01*
X31523992Y-54736659D01*
X31547066Y-54729659D01*
X31568330Y-54718294D01*
X31586967Y-54702998D01*
X31602262Y-54684361D01*
X31610826Y-54668338D01*
X31612525Y-54667282D01*
X31614288Y-54668225D01*
G37*
G36*
X42590935Y-54725749D02*
G01*
X42591310Y-54727356D01*
X42555579Y-54906985D01*
X42555579Y-55093015D01*
X42591310Y-55272644D01*
X42590667Y-55274538D01*
X42588705Y-55274928D01*
X42587500Y-55273800D01*
X42586744Y-55271974D01*
X42575333Y-55250625D01*
X42560038Y-55231988D01*
X42541401Y-55216693D01*
X42520137Y-55205328D01*
X42497062Y-55198328D01*
X42473071Y-55195965D01*
X42449080Y-55198328D01*
X42426005Y-55205328D01*
X42404741Y-55216693D01*
X42386104Y-55231988D01*
X42370809Y-55250625D01*
X42362242Y-55266653D01*
X42360543Y-55267709D01*
X42358780Y-55266766D01*
X42358630Y-55264945D01*
X42360279Y-55260964D01*
X42394661Y-55088114D01*
X42394661Y-54911886D01*
X42360279Y-54739036D01*
X42358630Y-54735055D01*
X42358891Y-54733073D01*
X42360739Y-54732307D01*
X42362242Y-54733347D01*
X42370809Y-54749375D01*
X42386105Y-54768012D01*
X42404742Y-54783307D01*
X42426005Y-54794672D01*
X42449080Y-54801672D01*
X42473072Y-54804035D01*
X42497063Y-54801672D01*
X42520138Y-54794672D01*
X42541401Y-54783307D01*
X42560038Y-54768011D01*
X42575333Y-54749374D01*
X42586744Y-54728026D01*
X42587500Y-54726200D01*
X42589087Y-54724983D01*
X42590935Y-54725749D01*
G37*
M02*
