M48
;DRILL file {KiCad (5.0.1-3-g963ef8bb5)} date 2019 June 03, Monday 16:32:11
;FORMAT={-:-/ absolute / metric / decimal}
FMAT,2
METRIC,TZ
T1C0.400
T2C1.200
T3C1.000
T4C1.300
T5C1.700
T6C3.200
%
G90
G05
M71
T1
X106.Y-58.
X106.Y-74.
X106.Y-90.
X106.Y-106.
X106.Y-122.
X106.Y-138.
X106.Y-154.
T2
X96.75Y-135.5
X96.75Y-140.5
X103.Y-131.5
X103.Y-144.5
X109.25Y-135.5
X109.25Y-140.5
X96.75Y-55.5
X96.75Y-60.5
X103.Y-51.5
X103.Y-64.5
X109.25Y-55.5
X109.25Y-60.5
X96.75Y-151.5
X96.75Y-156.5
X103.Y-147.5
X103.Y-160.5
X109.25Y-151.5
X109.25Y-156.5
X96.75Y-103.5
X96.75Y-108.5
X103.Y-99.5
X103.Y-112.5
X109.25Y-103.5
X109.25Y-108.5
X96.75Y-71.5
X96.75Y-76.5
X103.Y-67.5
X103.Y-80.5
X109.25Y-71.5
X109.25Y-76.5
X96.75Y-119.5
X96.75Y-124.5
X103.Y-115.5
X103.Y-128.5
X109.25Y-119.5
X109.25Y-124.5
X96.75Y-87.5
X96.75Y-92.5
X103.Y-83.5
X103.Y-96.5
X109.25Y-87.5
X109.25Y-92.5
T3
X148.Y-142.75
T4
X148.Y-135.25
T5
X103.Y-69.5
X103.Y-78.5
X103.Y-117.5
X103.Y-126.5
X103.Y-85.5
X103.Y-94.5
X103.Y-133.5
X103.Y-142.5
X103.Y-53.5
X103.Y-62.5
X103.Y-149.5
X103.Y-158.5
X103.Y-101.5
X103.Y-110.5
T6
X157.Y-42.
X157.Y-164.
X93.Y-164.
X93.Y-42.
T0
M30
