G04 #@! TF.GenerationSoftware,KiCad,Pcbnew,(5.0.1-3-g963ef8bb5)*
G04 #@! TF.CreationDate,2019-06-03T16:35:54+02:00*
G04 #@! TF.ProjectId,foodSampler_v10,666F6F6453616D706C65725F7631302E,rev?*
G04 #@! TF.SameCoordinates,Original*
G04 #@! TF.FileFunction,Soldermask,Bot*
G04 #@! TF.FilePolarity,Negative*
%FSLAX46Y46*%
G04 Gerber Fmt 4.6, Leading zero omitted, Abs format (unit mm)*
G04 Created by KiCad (PCBNEW (5.0.1-3-g963ef8bb5)) date 2019 June 03, Monday 16:35:54*
%MOMM*%
%LPD*%
G01*
G04 APERTURE LIST*
%ADD10C,0.100000*%
G04 APERTURE END LIST*
D10*
G36*
X158633457Y-158615204D02*
X158633459Y-158615205D01*
X158633460Y-158615205D01*
X159652595Y-159037344D01*
X160500556Y-159603934D01*
X160569795Y-159650198D01*
X161349802Y-160430205D01*
X161349804Y-160430208D01*
X161962656Y-161347405D01*
X162384795Y-162366540D01*
X162384796Y-162366543D01*
X162600000Y-163448447D01*
X162600000Y-164551553D01*
X162393927Y-165587553D01*
X162384795Y-165633460D01*
X161962656Y-166652595D01*
X161352570Y-167565652D01*
X161349802Y-167569795D01*
X160569795Y-168349802D01*
X160569792Y-168349804D01*
X159652595Y-168962656D01*
X158633460Y-169384795D01*
X158633459Y-169384795D01*
X158633457Y-169384796D01*
X157551553Y-169600000D01*
X156448447Y-169600000D01*
X155366543Y-169384796D01*
X155366541Y-169384795D01*
X155366540Y-169384795D01*
X154347405Y-168962656D01*
X153430208Y-168349804D01*
X153430205Y-168349802D01*
X152650198Y-167569795D01*
X152647430Y-167565652D01*
X152037344Y-166652595D01*
X151615205Y-165633460D01*
X151606074Y-165587553D01*
X151400000Y-164551553D01*
X151400000Y-163448447D01*
X151615204Y-162366543D01*
X151615205Y-162366540D01*
X152037344Y-161347405D01*
X152650196Y-160430208D01*
X152650198Y-160430205D01*
X153430205Y-159650198D01*
X153499444Y-159603934D01*
X154347405Y-159037344D01*
X155366540Y-158615205D01*
X155366541Y-158615205D01*
X155366543Y-158615204D01*
X156448447Y-158400000D01*
X157551553Y-158400000D01*
X158633457Y-158615204D01*
X158633457Y-158615204D01*
G37*
G36*
X93375256Y-162391298D02*
X93481579Y-162412447D01*
X93782042Y-162536903D01*
X94048852Y-162715180D01*
X94052454Y-162717587D01*
X94282413Y-162947546D01*
X94463098Y-163217960D01*
X94587553Y-163518422D01*
X94651000Y-163837389D01*
X94651000Y-164162611D01*
X94587553Y-164481578D01*
X94463098Y-164782040D01*
X94282413Y-165052454D01*
X94052454Y-165282413D01*
X94052451Y-165282415D01*
X93782042Y-165463097D01*
X93481579Y-165587553D01*
X93375256Y-165608702D01*
X93162611Y-165651000D01*
X92837389Y-165651000D01*
X92624744Y-165608702D01*
X92518421Y-165587553D01*
X92217958Y-165463097D01*
X91947549Y-165282415D01*
X91947546Y-165282413D01*
X91717587Y-165052454D01*
X91536902Y-164782040D01*
X91412447Y-164481578D01*
X91349000Y-164162611D01*
X91349000Y-163837389D01*
X91412447Y-163518422D01*
X91536902Y-163217960D01*
X91717587Y-162947546D01*
X91947546Y-162717587D01*
X91951148Y-162715180D01*
X92217958Y-162536903D01*
X92518421Y-162412447D01*
X92624744Y-162391298D01*
X92837389Y-162349000D01*
X93162611Y-162349000D01*
X93375256Y-162391298D01*
X93375256Y-162391298D01*
G37*
G36*
X103277396Y-157585546D02*
X103450466Y-157657234D01*
X103606230Y-157761312D01*
X103738688Y-157893770D01*
X103842766Y-158049534D01*
X103914454Y-158222604D01*
X103951000Y-158406333D01*
X103951000Y-158593667D01*
X103914454Y-158777396D01*
X103842766Y-158950466D01*
X103738688Y-159106230D01*
X103606230Y-159238688D01*
X103450466Y-159342766D01*
X103349675Y-159384515D01*
X103328064Y-159396066D01*
X103309122Y-159411612D01*
X103293576Y-159430554D01*
X103282025Y-159452164D01*
X103274912Y-159475614D01*
X103272510Y-159500000D01*
X103274912Y-159524386D01*
X103282025Y-159547835D01*
X103293576Y-159569446D01*
X103309122Y-159588388D01*
X103328064Y-159603934D01*
X103349675Y-159615485D01*
X103450466Y-159657234D01*
X103606230Y-159761312D01*
X103738688Y-159893770D01*
X103842766Y-160049534D01*
X103914454Y-160222604D01*
X103951000Y-160406333D01*
X103951000Y-160593667D01*
X103914454Y-160777396D01*
X103842766Y-160950466D01*
X103738688Y-161106230D01*
X103606230Y-161238688D01*
X103450466Y-161342766D01*
X103277396Y-161414454D01*
X103093667Y-161451000D01*
X102906333Y-161451000D01*
X102722604Y-161414454D01*
X102549534Y-161342766D01*
X102393770Y-161238688D01*
X102261312Y-161106230D01*
X102157234Y-160950466D01*
X102085546Y-160777396D01*
X102049000Y-160593667D01*
X102049000Y-160406333D01*
X102085546Y-160222604D01*
X102157234Y-160049534D01*
X102261312Y-159893770D01*
X102393770Y-159761312D01*
X102549534Y-159657234D01*
X102650325Y-159615485D01*
X102671936Y-159603934D01*
X102690878Y-159588388D01*
X102706424Y-159569446D01*
X102717975Y-159547836D01*
X102725088Y-159524386D01*
X102727490Y-159500000D01*
X102725088Y-159475614D01*
X102717975Y-159452165D01*
X102706424Y-159430554D01*
X102690878Y-159411612D01*
X102671936Y-159396066D01*
X102650325Y-159384515D01*
X102549534Y-159342766D01*
X102393770Y-159238688D01*
X102261312Y-159106230D01*
X102157234Y-158950466D01*
X102085546Y-158777396D01*
X102049000Y-158593667D01*
X102049000Y-158406333D01*
X102085546Y-158222604D01*
X102157234Y-158049534D01*
X102261312Y-157893770D01*
X102393770Y-157761312D01*
X102549534Y-157657234D01*
X102722604Y-157585546D01*
X102906333Y-157549000D01*
X103093667Y-157549000D01*
X103277396Y-157585546D01*
X103277396Y-157585546D01*
G37*
G36*
X125247765Y-157754403D02*
X125370445Y-157778805D01*
X125545163Y-157851176D01*
X125601571Y-157874541D01*
X125809581Y-158013529D01*
X125986471Y-158190419D01*
X125986473Y-158190422D01*
X126125459Y-158398429D01*
X126221195Y-158629555D01*
X126270000Y-158874916D01*
X126270000Y-159125084D01*
X126221195Y-159370445D01*
X126187345Y-159452165D01*
X126125459Y-159601571D01*
X125986471Y-159809581D01*
X125809581Y-159986471D01*
X125809578Y-159986473D01*
X125601571Y-160125459D01*
X125370445Y-160221195D01*
X125247764Y-160245598D01*
X125125086Y-160270000D01*
X124874914Y-160270000D01*
X124752236Y-160245598D01*
X124629555Y-160221195D01*
X124398429Y-160125459D01*
X124190422Y-159986473D01*
X124190419Y-159986471D01*
X124013529Y-159809581D01*
X123874541Y-159601571D01*
X123812655Y-159452165D01*
X123778805Y-159370445D01*
X123730000Y-159125084D01*
X123730000Y-158874916D01*
X123778805Y-158629555D01*
X123874541Y-158398429D01*
X124013527Y-158190422D01*
X124013529Y-158190419D01*
X124190419Y-158013529D01*
X124398429Y-157874541D01*
X124454837Y-157851176D01*
X124629555Y-157778805D01*
X124752235Y-157754403D01*
X124874914Y-157730000D01*
X125125086Y-157730000D01*
X125247765Y-157754403D01*
X125247765Y-157754403D01*
G37*
G36*
X148871278Y-156942448D02*
X148907819Y-156953533D01*
X148941494Y-156971532D01*
X148975791Y-156999680D01*
X150000320Y-158024209D01*
X150028468Y-158058506D01*
X150046467Y-158092181D01*
X150057552Y-158128722D01*
X150061294Y-158166726D01*
X150057552Y-158204730D01*
X150046467Y-158241271D01*
X150028468Y-158274946D01*
X150000320Y-158309243D01*
X149329345Y-158980218D01*
X149295048Y-159008366D01*
X149261373Y-159026365D01*
X149224832Y-159037450D01*
X149186828Y-159041192D01*
X149148824Y-159037450D01*
X149112283Y-159026365D01*
X149078608Y-159008366D01*
X149044311Y-158980218D01*
X148019782Y-157955689D01*
X147991634Y-157921392D01*
X147973635Y-157887717D01*
X147962550Y-157851176D01*
X147958808Y-157813172D01*
X147962550Y-157775168D01*
X147973635Y-157738627D01*
X147991634Y-157704952D01*
X148019782Y-157670655D01*
X148690757Y-156999680D01*
X148725054Y-156971532D01*
X148758729Y-156953533D01*
X148795270Y-156942448D01*
X148833274Y-156938706D01*
X148871278Y-156942448D01*
X148871278Y-156942448D01*
G37*
G36*
X114606000Y-157731000D02*
X111994000Y-157731000D01*
X111994000Y-156629000D01*
X114606000Y-156629000D01*
X114606000Y-157731000D01*
X114606000Y-157731000D01*
G37*
G36*
X109527396Y-155585546D02*
X109700466Y-155657234D01*
X109856230Y-155761312D01*
X109988688Y-155893770D01*
X110092766Y-156049534D01*
X110164454Y-156222604D01*
X110201000Y-156406333D01*
X110201000Y-156593667D01*
X110164454Y-156777396D01*
X110092766Y-156950466D01*
X109988688Y-157106230D01*
X109856230Y-157238688D01*
X109700466Y-157342766D01*
X109527396Y-157414454D01*
X109343667Y-157451000D01*
X109156333Y-157451000D01*
X108972604Y-157414454D01*
X108799534Y-157342766D01*
X108643770Y-157238688D01*
X108511312Y-157106230D01*
X108407234Y-156950466D01*
X108335546Y-156777396D01*
X108299000Y-156593667D01*
X108299000Y-156406333D01*
X108335546Y-156222604D01*
X108407234Y-156049534D01*
X108511312Y-155893770D01*
X108643770Y-155761312D01*
X108799534Y-155657234D01*
X108972604Y-155585546D01*
X109156333Y-155549000D01*
X109343667Y-155549000D01*
X109527396Y-155585546D01*
X109527396Y-155585546D01*
G37*
G36*
X97027396Y-155585546D02*
X97200466Y-155657234D01*
X97356230Y-155761312D01*
X97488688Y-155893770D01*
X97592766Y-156049534D01*
X97664454Y-156222604D01*
X97701000Y-156406333D01*
X97701000Y-156593667D01*
X97664454Y-156777396D01*
X97592766Y-156950466D01*
X97488688Y-157106230D01*
X97356230Y-157238688D01*
X97200466Y-157342766D01*
X97027396Y-157414454D01*
X96843667Y-157451000D01*
X96656333Y-157451000D01*
X96472604Y-157414454D01*
X96299534Y-157342766D01*
X96143770Y-157238688D01*
X96011312Y-157106230D01*
X95907234Y-156950466D01*
X95835546Y-156777396D01*
X95799000Y-156593667D01*
X95799000Y-156406333D01*
X95835546Y-156222604D01*
X95907234Y-156049534D01*
X96011312Y-155893770D01*
X96143770Y-155761312D01*
X96299534Y-155657234D01*
X96472604Y-155585546D01*
X96656333Y-155549000D01*
X96843667Y-155549000D01*
X97027396Y-155585546D01*
X97027396Y-155585546D01*
G37*
G36*
X150851176Y-154962550D02*
X150887717Y-154973635D01*
X150921392Y-154991634D01*
X150955689Y-155019782D01*
X151980218Y-156044311D01*
X152008366Y-156078608D01*
X152026365Y-156112283D01*
X152037450Y-156148824D01*
X152041192Y-156186828D01*
X152037450Y-156224832D01*
X152026365Y-156261373D01*
X152008366Y-156295048D01*
X151980218Y-156329345D01*
X151309243Y-157000320D01*
X151274946Y-157028468D01*
X151241271Y-157046467D01*
X151204730Y-157057552D01*
X151166726Y-157061294D01*
X151128722Y-157057552D01*
X151092181Y-157046467D01*
X151058506Y-157028468D01*
X151024209Y-157000320D01*
X149999680Y-155975791D01*
X149971532Y-155941494D01*
X149953533Y-155907819D01*
X149942448Y-155871278D01*
X149938706Y-155833274D01*
X149942448Y-155795270D01*
X149953533Y-155758729D01*
X149971532Y-155725054D01*
X149999680Y-155690757D01*
X150670655Y-155019782D01*
X150704952Y-154991634D01*
X150738627Y-154973635D01*
X150775168Y-154962550D01*
X150813172Y-154958808D01*
X150851176Y-154962550D01*
X150851176Y-154962550D01*
G37*
G36*
X141129591Y-155478085D02*
X141163569Y-155488393D01*
X141194887Y-155505133D01*
X141222339Y-155527661D01*
X141244867Y-155555113D01*
X141261607Y-155586431D01*
X141271915Y-155620409D01*
X141276000Y-155661890D01*
X141276000Y-156338110D01*
X141271915Y-156379591D01*
X141261607Y-156413569D01*
X141244867Y-156444887D01*
X141222339Y-156472339D01*
X141194887Y-156494867D01*
X141163569Y-156511607D01*
X141129591Y-156521915D01*
X141088110Y-156526000D01*
X140486890Y-156526000D01*
X140445409Y-156521915D01*
X140411431Y-156511607D01*
X140380113Y-156494867D01*
X140352661Y-156472339D01*
X140330133Y-156444887D01*
X140313393Y-156413569D01*
X140303085Y-156379591D01*
X140299000Y-156338110D01*
X140299000Y-155661890D01*
X140303085Y-155620409D01*
X140313393Y-155586431D01*
X140330133Y-155555113D01*
X140352661Y-155527661D01*
X140380113Y-155505133D01*
X140411431Y-155488393D01*
X140445409Y-155478085D01*
X140486890Y-155474000D01*
X141088110Y-155474000D01*
X141129591Y-155478085D01*
X141129591Y-155478085D01*
G37*
G36*
X139554591Y-155478085D02*
X139588569Y-155488393D01*
X139619887Y-155505133D01*
X139647339Y-155527661D01*
X139669867Y-155555113D01*
X139686607Y-155586431D01*
X139696915Y-155620409D01*
X139701000Y-155661890D01*
X139701000Y-156338110D01*
X139696915Y-156379591D01*
X139686607Y-156413569D01*
X139669867Y-156444887D01*
X139647339Y-156472339D01*
X139619887Y-156494867D01*
X139588569Y-156511607D01*
X139554591Y-156521915D01*
X139513110Y-156526000D01*
X138911890Y-156526000D01*
X138870409Y-156521915D01*
X138836431Y-156511607D01*
X138805113Y-156494867D01*
X138777661Y-156472339D01*
X138755133Y-156444887D01*
X138738393Y-156413569D01*
X138728085Y-156379591D01*
X138724000Y-156338110D01*
X138724000Y-155661890D01*
X138728085Y-155620409D01*
X138738393Y-155586431D01*
X138755133Y-155555113D01*
X138777661Y-155527661D01*
X138805113Y-155505133D01*
X138836431Y-155488393D01*
X138870409Y-155478085D01*
X138911890Y-155474000D01*
X139513110Y-155474000D01*
X139554591Y-155478085D01*
X139554591Y-155478085D01*
G37*
G36*
X104129591Y-155478085D02*
X104163569Y-155488393D01*
X104194887Y-155505133D01*
X104222339Y-155527661D01*
X104244867Y-155555113D01*
X104261607Y-155586431D01*
X104271915Y-155620409D01*
X104276000Y-155661890D01*
X104276000Y-156338110D01*
X104271915Y-156379591D01*
X104261607Y-156413569D01*
X104244867Y-156444887D01*
X104222339Y-156472339D01*
X104194887Y-156494867D01*
X104163569Y-156511607D01*
X104129591Y-156521915D01*
X104088110Y-156526000D01*
X103486890Y-156526000D01*
X103445409Y-156521915D01*
X103411431Y-156511607D01*
X103380113Y-156494867D01*
X103352661Y-156472339D01*
X103330133Y-156444887D01*
X103313393Y-156413569D01*
X103303085Y-156379591D01*
X103299000Y-156338110D01*
X103299000Y-155661890D01*
X103303085Y-155620409D01*
X103313393Y-155586431D01*
X103330133Y-155555113D01*
X103352661Y-155527661D01*
X103380113Y-155505133D01*
X103411431Y-155488393D01*
X103445409Y-155478085D01*
X103486890Y-155474000D01*
X104088110Y-155474000D01*
X104129591Y-155478085D01*
X104129591Y-155478085D01*
G37*
G36*
X102554591Y-155478085D02*
X102588569Y-155488393D01*
X102619887Y-155505133D01*
X102647339Y-155527661D01*
X102669867Y-155555113D01*
X102686607Y-155586431D01*
X102696915Y-155620409D01*
X102701000Y-155661890D01*
X102701000Y-156338110D01*
X102696915Y-156379591D01*
X102686607Y-156413569D01*
X102669867Y-156444887D01*
X102647339Y-156472339D01*
X102619887Y-156494867D01*
X102588569Y-156511607D01*
X102554591Y-156521915D01*
X102513110Y-156526000D01*
X101911890Y-156526000D01*
X101870409Y-156521915D01*
X101836431Y-156511607D01*
X101805113Y-156494867D01*
X101777661Y-156472339D01*
X101755133Y-156444887D01*
X101738393Y-156413569D01*
X101728085Y-156379591D01*
X101724000Y-156338110D01*
X101724000Y-155661890D01*
X101728085Y-155620409D01*
X101738393Y-155586431D01*
X101755133Y-155555113D01*
X101777661Y-155527661D01*
X101805113Y-155505133D01*
X101836431Y-155488393D01*
X101870409Y-155478085D01*
X101911890Y-155474000D01*
X102513110Y-155474000D01*
X102554591Y-155478085D01*
X102554591Y-155478085D01*
G37*
G36*
X117916000Y-155191000D02*
X115304000Y-155191000D01*
X115304000Y-154089000D01*
X117916000Y-154089000D01*
X117916000Y-155191000D01*
X117916000Y-155191000D01*
G37*
G36*
X104129591Y-153478085D02*
X104163569Y-153488393D01*
X104194887Y-153505133D01*
X104222339Y-153527661D01*
X104244867Y-153555113D01*
X104261607Y-153586431D01*
X104271915Y-153620409D01*
X104276000Y-153661890D01*
X104276000Y-154338110D01*
X104271915Y-154379591D01*
X104261607Y-154413569D01*
X104244867Y-154444887D01*
X104222339Y-154472339D01*
X104194887Y-154494867D01*
X104163569Y-154511607D01*
X104129591Y-154521915D01*
X104088110Y-154526000D01*
X103486890Y-154526000D01*
X103445409Y-154521915D01*
X103411431Y-154511607D01*
X103380113Y-154494867D01*
X103352661Y-154472339D01*
X103330133Y-154444887D01*
X103313393Y-154413569D01*
X103303085Y-154379591D01*
X103299000Y-154338110D01*
X103299000Y-153661890D01*
X103303085Y-153620409D01*
X103313393Y-153586431D01*
X103330133Y-153555113D01*
X103352661Y-153527661D01*
X103380113Y-153505133D01*
X103411431Y-153488393D01*
X103445409Y-153478085D01*
X103486890Y-153474000D01*
X104088110Y-153474000D01*
X104129591Y-153478085D01*
X104129591Y-153478085D01*
G37*
G36*
X102554591Y-153478085D02*
X102588569Y-153488393D01*
X102619887Y-153505133D01*
X102647339Y-153527661D01*
X102669867Y-153555113D01*
X102686607Y-153586431D01*
X102696915Y-153620409D01*
X102701000Y-153661890D01*
X102701000Y-154338110D01*
X102696915Y-154379591D01*
X102686607Y-154413569D01*
X102669867Y-154444887D01*
X102647339Y-154472339D01*
X102619887Y-154494867D01*
X102588569Y-154511607D01*
X102554591Y-154521915D01*
X102513110Y-154526000D01*
X101911890Y-154526000D01*
X101870409Y-154521915D01*
X101836431Y-154511607D01*
X101805113Y-154494867D01*
X101777661Y-154472339D01*
X101755133Y-154444887D01*
X101738393Y-154413569D01*
X101728085Y-154379591D01*
X101724000Y-154338110D01*
X101724000Y-153661890D01*
X101728085Y-153620409D01*
X101738393Y-153586431D01*
X101755133Y-153555113D01*
X101777661Y-153527661D01*
X101805113Y-153505133D01*
X101836431Y-153488393D01*
X101870409Y-153478085D01*
X101911890Y-153474000D01*
X102513110Y-153474000D01*
X102554591Y-153478085D01*
X102554591Y-153478085D01*
G37*
G36*
X144451000Y-154451000D02*
X143549000Y-154451000D01*
X143549000Y-153449000D01*
X144451000Y-153449000D01*
X144451000Y-154451000D01*
X144451000Y-154451000D01*
G37*
G36*
X139554591Y-152478085D02*
X139588569Y-152488393D01*
X139619887Y-152505133D01*
X139647339Y-152527661D01*
X139669867Y-152555113D01*
X139686607Y-152586431D01*
X139696915Y-152620409D01*
X139701000Y-152661890D01*
X139701000Y-153338110D01*
X139696915Y-153379591D01*
X139686607Y-153413569D01*
X139669867Y-153444887D01*
X139647339Y-153472339D01*
X139619887Y-153494867D01*
X139588569Y-153511607D01*
X139554591Y-153521915D01*
X139513110Y-153526000D01*
X138911890Y-153526000D01*
X138870409Y-153521915D01*
X138836431Y-153511607D01*
X138805113Y-153494867D01*
X138777661Y-153472339D01*
X138755133Y-153444887D01*
X138738393Y-153413569D01*
X138728085Y-153379591D01*
X138724000Y-153338110D01*
X138724000Y-152661890D01*
X138728085Y-152620409D01*
X138738393Y-152586431D01*
X138755133Y-152555113D01*
X138777661Y-152527661D01*
X138805113Y-152505133D01*
X138836431Y-152488393D01*
X138870409Y-152478085D01*
X138911890Y-152474000D01*
X139513110Y-152474000D01*
X139554591Y-152478085D01*
X139554591Y-152478085D01*
G37*
G36*
X141129591Y-152478085D02*
X141163569Y-152488393D01*
X141194887Y-152505133D01*
X141222339Y-152527661D01*
X141244867Y-152555113D01*
X141261607Y-152586431D01*
X141271915Y-152620409D01*
X141276000Y-152661890D01*
X141276000Y-153338110D01*
X141271915Y-153379591D01*
X141261607Y-153413569D01*
X141244867Y-153444887D01*
X141222339Y-153472339D01*
X141194887Y-153494867D01*
X141163569Y-153511607D01*
X141129591Y-153521915D01*
X141088110Y-153526000D01*
X140486890Y-153526000D01*
X140445409Y-153521915D01*
X140411431Y-153511607D01*
X140380113Y-153494867D01*
X140352661Y-153472339D01*
X140330133Y-153444887D01*
X140313393Y-153413569D01*
X140303085Y-153379591D01*
X140299000Y-153338110D01*
X140299000Y-152661890D01*
X140303085Y-152620409D01*
X140313393Y-152586431D01*
X140330133Y-152555113D01*
X140352661Y-152527661D01*
X140380113Y-152505133D01*
X140411431Y-152488393D01*
X140445409Y-152478085D01*
X140486890Y-152474000D01*
X141088110Y-152474000D01*
X141129591Y-152478085D01*
X141129591Y-152478085D01*
G37*
G36*
X114606000Y-152651000D02*
X111994000Y-152651000D01*
X111994000Y-151549000D01*
X114606000Y-151549000D01*
X114606000Y-152651000D01*
X114606000Y-152651000D01*
G37*
G36*
X102554591Y-151478085D02*
X102588569Y-151488393D01*
X102619887Y-151505133D01*
X102647339Y-151527661D01*
X102669867Y-151555113D01*
X102686607Y-151586431D01*
X102696915Y-151620409D01*
X102701000Y-151661890D01*
X102701000Y-152338110D01*
X102696915Y-152379591D01*
X102686607Y-152413569D01*
X102669867Y-152444887D01*
X102647339Y-152472339D01*
X102619887Y-152494867D01*
X102588569Y-152511607D01*
X102554591Y-152521915D01*
X102513110Y-152526000D01*
X101911890Y-152526000D01*
X101870409Y-152521915D01*
X101836431Y-152511607D01*
X101805113Y-152494867D01*
X101777661Y-152472339D01*
X101755133Y-152444887D01*
X101738393Y-152413569D01*
X101728085Y-152379591D01*
X101724000Y-152338110D01*
X101724000Y-151661890D01*
X101728085Y-151620409D01*
X101738393Y-151586431D01*
X101755133Y-151555113D01*
X101777661Y-151527661D01*
X101805113Y-151505133D01*
X101836431Y-151488393D01*
X101870409Y-151478085D01*
X101911890Y-151474000D01*
X102513110Y-151474000D01*
X102554591Y-151478085D01*
X102554591Y-151478085D01*
G37*
G36*
X104129591Y-151478085D02*
X104163569Y-151488393D01*
X104194887Y-151505133D01*
X104222339Y-151527661D01*
X104244867Y-151555113D01*
X104261607Y-151586431D01*
X104271915Y-151620409D01*
X104276000Y-151661890D01*
X104276000Y-152338110D01*
X104271915Y-152379591D01*
X104261607Y-152413569D01*
X104244867Y-152444887D01*
X104222339Y-152472339D01*
X104194887Y-152494867D01*
X104163569Y-152511607D01*
X104129591Y-152521915D01*
X104088110Y-152526000D01*
X103486890Y-152526000D01*
X103445409Y-152521915D01*
X103411431Y-152511607D01*
X103380113Y-152494867D01*
X103352661Y-152472339D01*
X103330133Y-152444887D01*
X103313393Y-152413569D01*
X103303085Y-152379591D01*
X103299000Y-152338110D01*
X103299000Y-151661890D01*
X103303085Y-151620409D01*
X103313393Y-151586431D01*
X103330133Y-151555113D01*
X103352661Y-151527661D01*
X103380113Y-151505133D01*
X103411431Y-151488393D01*
X103445409Y-151478085D01*
X103486890Y-151474000D01*
X104088110Y-151474000D01*
X104129591Y-151478085D01*
X104129591Y-151478085D01*
G37*
G36*
X97027396Y-150585546D02*
X97200466Y-150657234D01*
X97356230Y-150761312D01*
X97488688Y-150893770D01*
X97592766Y-151049534D01*
X97664454Y-151222604D01*
X97701000Y-151406333D01*
X97701000Y-151593667D01*
X97664454Y-151777396D01*
X97592766Y-151950466D01*
X97488688Y-152106230D01*
X97356230Y-152238688D01*
X97200466Y-152342766D01*
X97027396Y-152414454D01*
X96843667Y-152451000D01*
X96656333Y-152451000D01*
X96472604Y-152414454D01*
X96299534Y-152342766D01*
X96143770Y-152238688D01*
X96011312Y-152106230D01*
X95907234Y-151950466D01*
X95835546Y-151777396D01*
X95799000Y-151593667D01*
X95799000Y-151406333D01*
X95835546Y-151222604D01*
X95907234Y-151049534D01*
X96011312Y-150893770D01*
X96143770Y-150761312D01*
X96299534Y-150657234D01*
X96472604Y-150585546D01*
X96656333Y-150549000D01*
X96843667Y-150549000D01*
X97027396Y-150585546D01*
X97027396Y-150585546D01*
G37*
G36*
X109527396Y-150585546D02*
X109700466Y-150657234D01*
X109856230Y-150761312D01*
X109988688Y-150893770D01*
X110092766Y-151049534D01*
X110164454Y-151222604D01*
X110201000Y-151406333D01*
X110201000Y-151593667D01*
X110164454Y-151777396D01*
X110092766Y-151950466D01*
X109988688Y-152106230D01*
X109856230Y-152238688D01*
X109700466Y-152342766D01*
X109527396Y-152414454D01*
X109343667Y-152451000D01*
X109156333Y-152451000D01*
X108972604Y-152414454D01*
X108799534Y-152342766D01*
X108643770Y-152238688D01*
X108511312Y-152106230D01*
X108407234Y-151950466D01*
X108335546Y-151777396D01*
X108299000Y-151593667D01*
X108299000Y-151406333D01*
X108335546Y-151222604D01*
X108407234Y-151049534D01*
X108511312Y-150893770D01*
X108643770Y-150761312D01*
X108799534Y-150657234D01*
X108972604Y-150585546D01*
X109156333Y-150549000D01*
X109343667Y-150549000D01*
X109527396Y-150585546D01*
X109527396Y-150585546D01*
G37*
G36*
X145401000Y-152451000D02*
X144499000Y-152451000D01*
X144499000Y-151449000D01*
X145401000Y-151449000D01*
X145401000Y-152451000D01*
X145401000Y-152451000D01*
G37*
G36*
X143501000Y-152451000D02*
X142599000Y-152451000D01*
X142599000Y-151449000D01*
X143501000Y-151449000D01*
X143501000Y-152451000D01*
X143501000Y-152451000D01*
G37*
G36*
X103277396Y-146585546D02*
X103450466Y-146657234D01*
X103606230Y-146761312D01*
X103738688Y-146893770D01*
X103842766Y-147049534D01*
X103914454Y-147222604D01*
X103951000Y-147406333D01*
X103951000Y-147593667D01*
X103914454Y-147777396D01*
X103842766Y-147950466D01*
X103738688Y-148106230D01*
X103606230Y-148238688D01*
X103450466Y-148342766D01*
X103349675Y-148384515D01*
X103328064Y-148396066D01*
X103309122Y-148411612D01*
X103293576Y-148430554D01*
X103282025Y-148452164D01*
X103274912Y-148475614D01*
X103272510Y-148500000D01*
X103274912Y-148524386D01*
X103282025Y-148547835D01*
X103293576Y-148569446D01*
X103309122Y-148588388D01*
X103328064Y-148603934D01*
X103349675Y-148615485D01*
X103450466Y-148657234D01*
X103606230Y-148761312D01*
X103738688Y-148893770D01*
X103842766Y-149049534D01*
X103914454Y-149222604D01*
X103951000Y-149406333D01*
X103951000Y-149593667D01*
X103914454Y-149777396D01*
X103842766Y-149950466D01*
X103738688Y-150106230D01*
X103606230Y-150238688D01*
X103450466Y-150342766D01*
X103277396Y-150414454D01*
X103093667Y-150451000D01*
X102906333Y-150451000D01*
X102722604Y-150414454D01*
X102549534Y-150342766D01*
X102393770Y-150238688D01*
X102261312Y-150106230D01*
X102157234Y-149950466D01*
X102085546Y-149777396D01*
X102049000Y-149593667D01*
X102049000Y-149406333D01*
X102085546Y-149222604D01*
X102157234Y-149049534D01*
X102261312Y-148893770D01*
X102393770Y-148761312D01*
X102549534Y-148657234D01*
X102650325Y-148615485D01*
X102671936Y-148603934D01*
X102690878Y-148588388D01*
X102706424Y-148569446D01*
X102717975Y-148547836D01*
X102725088Y-148524386D01*
X102727490Y-148500000D01*
X102725088Y-148475614D01*
X102717975Y-148452165D01*
X102706424Y-148430554D01*
X102690878Y-148411612D01*
X102671936Y-148396066D01*
X102650325Y-148384515D01*
X102549534Y-148342766D01*
X102393770Y-148238688D01*
X102261312Y-148106230D01*
X102157234Y-147950466D01*
X102085546Y-147777396D01*
X102049000Y-147593667D01*
X102049000Y-147406333D01*
X102085546Y-147222604D01*
X102157234Y-147049534D01*
X102261312Y-146893770D01*
X102393770Y-146761312D01*
X102549534Y-146657234D01*
X102722604Y-146585546D01*
X102906333Y-146549000D01*
X103093667Y-146549000D01*
X103277396Y-146585546D01*
X103277396Y-146585546D01*
G37*
G36*
X117916000Y-150111000D02*
X115304000Y-150111000D01*
X115304000Y-149009000D01*
X117916000Y-149009000D01*
X117916000Y-150111000D01*
X117916000Y-150111000D01*
G37*
G36*
X149201000Y-149101000D02*
X146799000Y-149101000D01*
X146799000Y-144699000D01*
X149201000Y-144699000D01*
X149201000Y-149101000D01*
X149201000Y-149101000D01*
G37*
G36*
X114606000Y-147571000D02*
X111994000Y-147571000D01*
X111994000Y-146469000D01*
X114606000Y-146469000D01*
X114606000Y-147571000D01*
X114606000Y-147571000D01*
G37*
G36*
X134951000Y-147521000D02*
X132339000Y-147521000D01*
X132339000Y-146419000D01*
X134951000Y-146419000D01*
X134951000Y-147521000D01*
X134951000Y-147521000D01*
G37*
G36*
X103277396Y-141585546D02*
X103450466Y-141657234D01*
X103606230Y-141761312D01*
X103738688Y-141893770D01*
X103842766Y-142049534D01*
X103914454Y-142222604D01*
X103951000Y-142406333D01*
X103951000Y-142593667D01*
X103914454Y-142777396D01*
X103842766Y-142950466D01*
X103738688Y-143106230D01*
X103606230Y-143238688D01*
X103450466Y-143342766D01*
X103349675Y-143384515D01*
X103328064Y-143396066D01*
X103309122Y-143411612D01*
X103293576Y-143430554D01*
X103282025Y-143452164D01*
X103274912Y-143475614D01*
X103272510Y-143500000D01*
X103274912Y-143524386D01*
X103282025Y-143547835D01*
X103293576Y-143569446D01*
X103309122Y-143588388D01*
X103328064Y-143603934D01*
X103349675Y-143615485D01*
X103450466Y-143657234D01*
X103606230Y-143761312D01*
X103738688Y-143893770D01*
X103842766Y-144049534D01*
X103914454Y-144222604D01*
X103951000Y-144406333D01*
X103951000Y-144593667D01*
X103914454Y-144777396D01*
X103842766Y-144950466D01*
X103738688Y-145106230D01*
X103606230Y-145238688D01*
X103450466Y-145342766D01*
X103277396Y-145414454D01*
X103093667Y-145451000D01*
X102906333Y-145451000D01*
X102722604Y-145414454D01*
X102549534Y-145342766D01*
X102393770Y-145238688D01*
X102261312Y-145106230D01*
X102157234Y-144950466D01*
X102085546Y-144777396D01*
X102049000Y-144593667D01*
X102049000Y-144406333D01*
X102085546Y-144222604D01*
X102157234Y-144049534D01*
X102261312Y-143893770D01*
X102393770Y-143761312D01*
X102549534Y-143657234D01*
X102650325Y-143615485D01*
X102671936Y-143603934D01*
X102690878Y-143588388D01*
X102706424Y-143569446D01*
X102717975Y-143547836D01*
X102725088Y-143524386D01*
X102727490Y-143500000D01*
X102725088Y-143475614D01*
X102717975Y-143452165D01*
X102706424Y-143430554D01*
X102690878Y-143411612D01*
X102671936Y-143396066D01*
X102650325Y-143384515D01*
X102549534Y-143342766D01*
X102393770Y-143238688D01*
X102261312Y-143106230D01*
X102157234Y-142950466D01*
X102085546Y-142777396D01*
X102049000Y-142593667D01*
X102049000Y-142406333D01*
X102085546Y-142222604D01*
X102157234Y-142049534D01*
X102261312Y-141893770D01*
X102393770Y-141761312D01*
X102549534Y-141657234D01*
X102722604Y-141585546D01*
X102906333Y-141549000D01*
X103093667Y-141549000D01*
X103277396Y-141585546D01*
X103277396Y-141585546D01*
G37*
G36*
X117916000Y-145031000D02*
X115304000Y-145031000D01*
X115304000Y-143929000D01*
X117916000Y-143929000D01*
X117916000Y-145031000D01*
X117916000Y-145031000D01*
G37*
G36*
X138261000Y-144981000D02*
X135649000Y-144981000D01*
X135649000Y-143879000D01*
X138261000Y-143879000D01*
X138261000Y-144981000D01*
X138261000Y-144981000D01*
G37*
G36*
X148160721Y-142220174D02*
X148260995Y-142261709D01*
X148351245Y-142322012D01*
X148427988Y-142398755D01*
X148488291Y-142489005D01*
X148529826Y-142589279D01*
X148551000Y-142695730D01*
X148551000Y-142804270D01*
X148529826Y-142910721D01*
X148488291Y-143010995D01*
X148427988Y-143101245D01*
X148351245Y-143177988D01*
X148260995Y-143238291D01*
X148160721Y-143279826D01*
X148054270Y-143301000D01*
X147945730Y-143301000D01*
X147839279Y-143279826D01*
X147739005Y-143238291D01*
X147648755Y-143177988D01*
X147572012Y-143101245D01*
X147511709Y-143010995D01*
X147470174Y-142910721D01*
X147449000Y-142804270D01*
X147449000Y-142695730D01*
X147470174Y-142589279D01*
X147511709Y-142489005D01*
X147572012Y-142398755D01*
X147648755Y-142322012D01*
X147739005Y-142261709D01*
X147839279Y-142220174D01*
X147945730Y-142199000D01*
X148054270Y-142199000D01*
X148160721Y-142220174D01*
X148160721Y-142220174D01*
G37*
G36*
X114606000Y-142491000D02*
X111994000Y-142491000D01*
X111994000Y-141389000D01*
X114606000Y-141389000D01*
X114606000Y-142491000D01*
X114606000Y-142491000D01*
G37*
G36*
X134951000Y-142441000D02*
X132339000Y-142441000D01*
X132339000Y-141339000D01*
X134951000Y-141339000D01*
X134951000Y-142441000D01*
X134951000Y-142441000D01*
G37*
G36*
X109527396Y-139585546D02*
X109700466Y-139657234D01*
X109856230Y-139761312D01*
X109988688Y-139893770D01*
X110092766Y-140049534D01*
X110164454Y-140222604D01*
X110201000Y-140406333D01*
X110201000Y-140593667D01*
X110164454Y-140777396D01*
X110092766Y-140950466D01*
X109988688Y-141106230D01*
X109856230Y-141238688D01*
X109700466Y-141342766D01*
X109527396Y-141414454D01*
X109343667Y-141451000D01*
X109156333Y-141451000D01*
X108972604Y-141414454D01*
X108799534Y-141342766D01*
X108643770Y-141238688D01*
X108511312Y-141106230D01*
X108407234Y-140950466D01*
X108335546Y-140777396D01*
X108299000Y-140593667D01*
X108299000Y-140406333D01*
X108335546Y-140222604D01*
X108407234Y-140049534D01*
X108511312Y-139893770D01*
X108643770Y-139761312D01*
X108799534Y-139657234D01*
X108972604Y-139585546D01*
X109156333Y-139549000D01*
X109343667Y-139549000D01*
X109527396Y-139585546D01*
X109527396Y-139585546D01*
G37*
G36*
X97027396Y-139585546D02*
X97200466Y-139657234D01*
X97356230Y-139761312D01*
X97488688Y-139893770D01*
X97592766Y-140049534D01*
X97664454Y-140222604D01*
X97701000Y-140406333D01*
X97701000Y-140593667D01*
X97664454Y-140777396D01*
X97592766Y-140950466D01*
X97488688Y-141106230D01*
X97356230Y-141238688D01*
X97200466Y-141342766D01*
X97027396Y-141414454D01*
X96843667Y-141451000D01*
X96656333Y-141451000D01*
X96472604Y-141414454D01*
X96299534Y-141342766D01*
X96143770Y-141238688D01*
X96011312Y-141106230D01*
X95907234Y-140950466D01*
X95835546Y-140777396D01*
X95799000Y-140593667D01*
X95799000Y-140406333D01*
X95835546Y-140222604D01*
X95907234Y-140049534D01*
X96011312Y-139893770D01*
X96143770Y-139761312D01*
X96299534Y-139657234D01*
X96472604Y-139585546D01*
X96656333Y-139549000D01*
X96843667Y-139549000D01*
X97027396Y-139585546D01*
X97027396Y-139585546D01*
G37*
G36*
X102554591Y-139478085D02*
X102588569Y-139488393D01*
X102619887Y-139505133D01*
X102647339Y-139527661D01*
X102669867Y-139555113D01*
X102686607Y-139586431D01*
X102696915Y-139620409D01*
X102701000Y-139661890D01*
X102701000Y-140338110D01*
X102696915Y-140379591D01*
X102686607Y-140413569D01*
X102669867Y-140444887D01*
X102647339Y-140472339D01*
X102619887Y-140494867D01*
X102588569Y-140511607D01*
X102554591Y-140521915D01*
X102513110Y-140526000D01*
X101911890Y-140526000D01*
X101870409Y-140521915D01*
X101836431Y-140511607D01*
X101805113Y-140494867D01*
X101777661Y-140472339D01*
X101755133Y-140444887D01*
X101738393Y-140413569D01*
X101728085Y-140379591D01*
X101724000Y-140338110D01*
X101724000Y-139661890D01*
X101728085Y-139620409D01*
X101738393Y-139586431D01*
X101755133Y-139555113D01*
X101777661Y-139527661D01*
X101805113Y-139505133D01*
X101836431Y-139488393D01*
X101870409Y-139478085D01*
X101911890Y-139474000D01*
X102513110Y-139474000D01*
X102554591Y-139478085D01*
X102554591Y-139478085D01*
G37*
G36*
X104129591Y-139478085D02*
X104163569Y-139488393D01*
X104194887Y-139505133D01*
X104222339Y-139527661D01*
X104244867Y-139555113D01*
X104261607Y-139586431D01*
X104271915Y-139620409D01*
X104276000Y-139661890D01*
X104276000Y-140338110D01*
X104271915Y-140379591D01*
X104261607Y-140413569D01*
X104244867Y-140444887D01*
X104222339Y-140472339D01*
X104194887Y-140494867D01*
X104163569Y-140511607D01*
X104129591Y-140521915D01*
X104088110Y-140526000D01*
X103486890Y-140526000D01*
X103445409Y-140521915D01*
X103411431Y-140511607D01*
X103380113Y-140494867D01*
X103352661Y-140472339D01*
X103330133Y-140444887D01*
X103313393Y-140413569D01*
X103303085Y-140379591D01*
X103299000Y-140338110D01*
X103299000Y-139661890D01*
X103303085Y-139620409D01*
X103313393Y-139586431D01*
X103330133Y-139555113D01*
X103352661Y-139527661D01*
X103380113Y-139505133D01*
X103411431Y-139488393D01*
X103445409Y-139478085D01*
X103486890Y-139474000D01*
X104088110Y-139474000D01*
X104129591Y-139478085D01*
X104129591Y-139478085D01*
G37*
G36*
X117916000Y-139951000D02*
X115304000Y-139951000D01*
X115304000Y-138849000D01*
X117916000Y-138849000D01*
X117916000Y-139951000D01*
X117916000Y-139951000D01*
G37*
G36*
X138261000Y-139901000D02*
X135649000Y-139901000D01*
X135649000Y-138799000D01*
X138261000Y-138799000D01*
X138261000Y-139901000D01*
X138261000Y-139901000D01*
G37*
G36*
X104129591Y-137478085D02*
X104163569Y-137488393D01*
X104194887Y-137505133D01*
X104222339Y-137527661D01*
X104244867Y-137555113D01*
X104261607Y-137586431D01*
X104271915Y-137620409D01*
X104276000Y-137661890D01*
X104276000Y-138338110D01*
X104271915Y-138379591D01*
X104261607Y-138413569D01*
X104244867Y-138444887D01*
X104222339Y-138472339D01*
X104194887Y-138494867D01*
X104163569Y-138511607D01*
X104129591Y-138521915D01*
X104088110Y-138526000D01*
X103486890Y-138526000D01*
X103445409Y-138521915D01*
X103411431Y-138511607D01*
X103380113Y-138494867D01*
X103352661Y-138472339D01*
X103330133Y-138444887D01*
X103313393Y-138413569D01*
X103303085Y-138379591D01*
X103299000Y-138338110D01*
X103299000Y-137661890D01*
X103303085Y-137620409D01*
X103313393Y-137586431D01*
X103330133Y-137555113D01*
X103352661Y-137527661D01*
X103380113Y-137505133D01*
X103411431Y-137488393D01*
X103445409Y-137478085D01*
X103486890Y-137474000D01*
X104088110Y-137474000D01*
X104129591Y-137478085D01*
X104129591Y-137478085D01*
G37*
G36*
X102554591Y-137478085D02*
X102588569Y-137488393D01*
X102619887Y-137505133D01*
X102647339Y-137527661D01*
X102669867Y-137555113D01*
X102686607Y-137586431D01*
X102696915Y-137620409D01*
X102701000Y-137661890D01*
X102701000Y-138338110D01*
X102696915Y-138379591D01*
X102686607Y-138413569D01*
X102669867Y-138444887D01*
X102647339Y-138472339D01*
X102619887Y-138494867D01*
X102588569Y-138511607D01*
X102554591Y-138521915D01*
X102513110Y-138526000D01*
X101911890Y-138526000D01*
X101870409Y-138521915D01*
X101836431Y-138511607D01*
X101805113Y-138494867D01*
X101777661Y-138472339D01*
X101755133Y-138444887D01*
X101738393Y-138413569D01*
X101728085Y-138379591D01*
X101724000Y-138338110D01*
X101724000Y-137661890D01*
X101728085Y-137620409D01*
X101738393Y-137586431D01*
X101755133Y-137555113D01*
X101777661Y-137527661D01*
X101805113Y-137505133D01*
X101836431Y-137488393D01*
X101870409Y-137478085D01*
X101911890Y-137474000D01*
X102513110Y-137474000D01*
X102554591Y-137478085D01*
X102554591Y-137478085D01*
G37*
G36*
X114606000Y-137411000D02*
X111994000Y-137411000D01*
X111994000Y-136309000D01*
X114606000Y-136309000D01*
X114606000Y-137411000D01*
X114606000Y-137411000D01*
G37*
G36*
X134951000Y-137361000D02*
X132339000Y-137361000D01*
X132339000Y-136259000D01*
X134951000Y-136259000D01*
X134951000Y-137361000D01*
X134951000Y-137361000D01*
G37*
G36*
X102554591Y-135478085D02*
X102588569Y-135488393D01*
X102619887Y-135505133D01*
X102647339Y-135527661D01*
X102669867Y-135555113D01*
X102686607Y-135586431D01*
X102696915Y-135620409D01*
X102701000Y-135661890D01*
X102701000Y-136338110D01*
X102696915Y-136379591D01*
X102686607Y-136413569D01*
X102669867Y-136444887D01*
X102647339Y-136472339D01*
X102619887Y-136494867D01*
X102588569Y-136511607D01*
X102554591Y-136521915D01*
X102513110Y-136526000D01*
X101911890Y-136526000D01*
X101870409Y-136521915D01*
X101836431Y-136511607D01*
X101805113Y-136494867D01*
X101777661Y-136472339D01*
X101755133Y-136444887D01*
X101738393Y-136413569D01*
X101728085Y-136379591D01*
X101724000Y-136338110D01*
X101724000Y-135661890D01*
X101728085Y-135620409D01*
X101738393Y-135586431D01*
X101755133Y-135555113D01*
X101777661Y-135527661D01*
X101805113Y-135505133D01*
X101836431Y-135488393D01*
X101870409Y-135478085D01*
X101911890Y-135474000D01*
X102513110Y-135474000D01*
X102554591Y-135478085D01*
X102554591Y-135478085D01*
G37*
G36*
X104129591Y-135478085D02*
X104163569Y-135488393D01*
X104194887Y-135505133D01*
X104222339Y-135527661D01*
X104244867Y-135555113D01*
X104261607Y-135586431D01*
X104271915Y-135620409D01*
X104276000Y-135661890D01*
X104276000Y-136338110D01*
X104271915Y-136379591D01*
X104261607Y-136413569D01*
X104244867Y-136444887D01*
X104222339Y-136472339D01*
X104194887Y-136494867D01*
X104163569Y-136511607D01*
X104129591Y-136521915D01*
X104088110Y-136526000D01*
X103486890Y-136526000D01*
X103445409Y-136521915D01*
X103411431Y-136511607D01*
X103380113Y-136494867D01*
X103352661Y-136472339D01*
X103330133Y-136444887D01*
X103313393Y-136413569D01*
X103303085Y-136379591D01*
X103299000Y-136338110D01*
X103299000Y-135661890D01*
X103303085Y-135620409D01*
X103313393Y-135586431D01*
X103330133Y-135555113D01*
X103352661Y-135527661D01*
X103380113Y-135505133D01*
X103411431Y-135488393D01*
X103445409Y-135478085D01*
X103486890Y-135474000D01*
X104088110Y-135474000D01*
X104129591Y-135478085D01*
X104129591Y-135478085D01*
G37*
G36*
X109527396Y-134585546D02*
X109700466Y-134657234D01*
X109856230Y-134761312D01*
X109988688Y-134893770D01*
X110092766Y-135049534D01*
X110164454Y-135222604D01*
X110201000Y-135406333D01*
X110201000Y-135593667D01*
X110164454Y-135777396D01*
X110092766Y-135950466D01*
X109988688Y-136106230D01*
X109856230Y-136238688D01*
X109700466Y-136342766D01*
X109527396Y-136414454D01*
X109343667Y-136451000D01*
X109156333Y-136451000D01*
X108972604Y-136414454D01*
X108799534Y-136342766D01*
X108643770Y-136238688D01*
X108511312Y-136106230D01*
X108407234Y-135950466D01*
X108335546Y-135777396D01*
X108299000Y-135593667D01*
X108299000Y-135406333D01*
X108335546Y-135222604D01*
X108407234Y-135049534D01*
X108511312Y-134893770D01*
X108643770Y-134761312D01*
X108799534Y-134657234D01*
X108972604Y-134585546D01*
X109156333Y-134549000D01*
X109343667Y-134549000D01*
X109527396Y-134585546D01*
X109527396Y-134585546D01*
G37*
G36*
X97027396Y-134585546D02*
X97200466Y-134657234D01*
X97356230Y-134761312D01*
X97488688Y-134893770D01*
X97592766Y-135049534D01*
X97664454Y-135222604D01*
X97701000Y-135406333D01*
X97701000Y-135593667D01*
X97664454Y-135777396D01*
X97592766Y-135950466D01*
X97488688Y-136106230D01*
X97356230Y-136238688D01*
X97200466Y-136342766D01*
X97027396Y-136414454D01*
X96843667Y-136451000D01*
X96656333Y-136451000D01*
X96472604Y-136414454D01*
X96299534Y-136342766D01*
X96143770Y-136238688D01*
X96011312Y-136106230D01*
X95907234Y-135950466D01*
X95835546Y-135777396D01*
X95799000Y-135593667D01*
X95799000Y-135406333D01*
X95835546Y-135222604D01*
X95907234Y-135049534D01*
X96011312Y-134893770D01*
X96143770Y-134761312D01*
X96299534Y-134657234D01*
X96472604Y-134585546D01*
X96656333Y-134549000D01*
X96843667Y-134549000D01*
X97027396Y-134585546D01*
X97027396Y-134585546D01*
G37*
G36*
X148204472Y-134575938D02*
X148332049Y-134628782D01*
X148446865Y-134705500D01*
X148544500Y-134803135D01*
X148621218Y-134917951D01*
X148674062Y-135045528D01*
X148701000Y-135180956D01*
X148701000Y-135319044D01*
X148674062Y-135454472D01*
X148621218Y-135582049D01*
X148544500Y-135696865D01*
X148446865Y-135794500D01*
X148332049Y-135871218D01*
X148204472Y-135924062D01*
X148069044Y-135951000D01*
X147930956Y-135951000D01*
X147795528Y-135924062D01*
X147667951Y-135871218D01*
X147553135Y-135794500D01*
X147455500Y-135696865D01*
X147378782Y-135582049D01*
X147325938Y-135454472D01*
X147299000Y-135319044D01*
X147299000Y-135180956D01*
X147325938Y-135045528D01*
X147378782Y-134917951D01*
X147455500Y-134803135D01*
X147553135Y-134705500D01*
X147667951Y-134628782D01*
X147795528Y-134575938D01*
X147930956Y-134549000D01*
X148069044Y-134549000D01*
X148204472Y-134575938D01*
X148204472Y-134575938D01*
G37*
G36*
X117916000Y-134871000D02*
X115304000Y-134871000D01*
X115304000Y-133769000D01*
X117916000Y-133769000D01*
X117916000Y-134871000D01*
X117916000Y-134871000D01*
G37*
G36*
X138261000Y-134821000D02*
X135649000Y-134821000D01*
X135649000Y-133719000D01*
X138261000Y-133719000D01*
X138261000Y-134821000D01*
X138261000Y-134821000D01*
G37*
G36*
X103277396Y-130585546D02*
X103450466Y-130657234D01*
X103606230Y-130761312D01*
X103738688Y-130893770D01*
X103842766Y-131049534D01*
X103914454Y-131222604D01*
X103951000Y-131406333D01*
X103951000Y-131593667D01*
X103914454Y-131777396D01*
X103842766Y-131950466D01*
X103738688Y-132106230D01*
X103606230Y-132238688D01*
X103450466Y-132342766D01*
X103349675Y-132384515D01*
X103328064Y-132396066D01*
X103309122Y-132411612D01*
X103293576Y-132430554D01*
X103282025Y-132452164D01*
X103274912Y-132475614D01*
X103272510Y-132500000D01*
X103274912Y-132524386D01*
X103282025Y-132547835D01*
X103293576Y-132569446D01*
X103309122Y-132588388D01*
X103328064Y-132603934D01*
X103349675Y-132615485D01*
X103450466Y-132657234D01*
X103606230Y-132761312D01*
X103738688Y-132893770D01*
X103842766Y-133049534D01*
X103914454Y-133222604D01*
X103951000Y-133406333D01*
X103951000Y-133593667D01*
X103914454Y-133777396D01*
X103842766Y-133950466D01*
X103738688Y-134106230D01*
X103606230Y-134238688D01*
X103450466Y-134342766D01*
X103277396Y-134414454D01*
X103093667Y-134451000D01*
X102906333Y-134451000D01*
X102722604Y-134414454D01*
X102549534Y-134342766D01*
X102393770Y-134238688D01*
X102261312Y-134106230D01*
X102157234Y-133950466D01*
X102085546Y-133777396D01*
X102049000Y-133593667D01*
X102049000Y-133406333D01*
X102085546Y-133222604D01*
X102157234Y-133049534D01*
X102261312Y-132893770D01*
X102393770Y-132761312D01*
X102549534Y-132657234D01*
X102650325Y-132615485D01*
X102671936Y-132603934D01*
X102690878Y-132588388D01*
X102706424Y-132569446D01*
X102717975Y-132547836D01*
X102725088Y-132524386D01*
X102727490Y-132500000D01*
X102725088Y-132475614D01*
X102717975Y-132452165D01*
X102706424Y-132430554D01*
X102690878Y-132411612D01*
X102671936Y-132396066D01*
X102650325Y-132384515D01*
X102549534Y-132342766D01*
X102393770Y-132238688D01*
X102261312Y-132106230D01*
X102157234Y-131950466D01*
X102085546Y-131777396D01*
X102049000Y-131593667D01*
X102049000Y-131406333D01*
X102085546Y-131222604D01*
X102157234Y-131049534D01*
X102261312Y-130893770D01*
X102393770Y-130761312D01*
X102549534Y-130657234D01*
X102722604Y-130585546D01*
X102906333Y-130549000D01*
X103093667Y-130549000D01*
X103277396Y-130585546D01*
X103277396Y-130585546D01*
G37*
G36*
X149201000Y-133301000D02*
X146799000Y-133301000D01*
X146799000Y-128899000D01*
X149201000Y-128899000D01*
X149201000Y-133301000D01*
X149201000Y-133301000D01*
G37*
G36*
X114606000Y-132331000D02*
X111994000Y-132331000D01*
X111994000Y-131229000D01*
X114606000Y-131229000D01*
X114606000Y-132331000D01*
X114606000Y-132331000D01*
G37*
G36*
X134951000Y-132281000D02*
X132339000Y-132281000D01*
X132339000Y-131179000D01*
X134951000Y-131179000D01*
X134951000Y-132281000D01*
X134951000Y-132281000D01*
G37*
G36*
X117916000Y-129791000D02*
X115304000Y-129791000D01*
X115304000Y-128689000D01*
X117916000Y-128689000D01*
X117916000Y-129791000D01*
X117916000Y-129791000D01*
G37*
G36*
X138261000Y-129741000D02*
X135649000Y-129741000D01*
X135649000Y-128639000D01*
X138261000Y-128639000D01*
X138261000Y-129741000D01*
X138261000Y-129741000D01*
G37*
G36*
X103277396Y-125585546D02*
X103450466Y-125657234D01*
X103606230Y-125761312D01*
X103738688Y-125893770D01*
X103842766Y-126049534D01*
X103914454Y-126222604D01*
X103951000Y-126406333D01*
X103951000Y-126593667D01*
X103914454Y-126777396D01*
X103842766Y-126950466D01*
X103738688Y-127106230D01*
X103606230Y-127238688D01*
X103450466Y-127342766D01*
X103349675Y-127384515D01*
X103328064Y-127396066D01*
X103309122Y-127411612D01*
X103293576Y-127430554D01*
X103282025Y-127452164D01*
X103274912Y-127475614D01*
X103272510Y-127500000D01*
X103274912Y-127524386D01*
X103282025Y-127547835D01*
X103293576Y-127569446D01*
X103309122Y-127588388D01*
X103328064Y-127603934D01*
X103349675Y-127615485D01*
X103450466Y-127657234D01*
X103606230Y-127761312D01*
X103738688Y-127893770D01*
X103842766Y-128049534D01*
X103914454Y-128222604D01*
X103951000Y-128406333D01*
X103951000Y-128593667D01*
X103914454Y-128777396D01*
X103842766Y-128950466D01*
X103738688Y-129106230D01*
X103606230Y-129238688D01*
X103450466Y-129342766D01*
X103277396Y-129414454D01*
X103093667Y-129451000D01*
X102906333Y-129451000D01*
X102722604Y-129414454D01*
X102549534Y-129342766D01*
X102393770Y-129238688D01*
X102261312Y-129106230D01*
X102157234Y-128950466D01*
X102085546Y-128777396D01*
X102049000Y-128593667D01*
X102049000Y-128406333D01*
X102085546Y-128222604D01*
X102157234Y-128049534D01*
X102261312Y-127893770D01*
X102393770Y-127761312D01*
X102549534Y-127657234D01*
X102650325Y-127615485D01*
X102671936Y-127603934D01*
X102690878Y-127588388D01*
X102706424Y-127569446D01*
X102717975Y-127547836D01*
X102725088Y-127524386D01*
X102727490Y-127500000D01*
X102725088Y-127475614D01*
X102717975Y-127452165D01*
X102706424Y-127430554D01*
X102690878Y-127411612D01*
X102671936Y-127396066D01*
X102650325Y-127384515D01*
X102549534Y-127342766D01*
X102393770Y-127238688D01*
X102261312Y-127106230D01*
X102157234Y-126950466D01*
X102085546Y-126777396D01*
X102049000Y-126593667D01*
X102049000Y-126406333D01*
X102085546Y-126222604D01*
X102157234Y-126049534D01*
X102261312Y-125893770D01*
X102393770Y-125761312D01*
X102549534Y-125657234D01*
X102722604Y-125585546D01*
X102906333Y-125549000D01*
X103093667Y-125549000D01*
X103277396Y-125585546D01*
X103277396Y-125585546D01*
G37*
G36*
X114606000Y-127251000D02*
X111994000Y-127251000D01*
X111994000Y-126149000D01*
X114606000Y-126149000D01*
X114606000Y-127251000D01*
X114606000Y-127251000D01*
G37*
G36*
X134951000Y-127201000D02*
X132339000Y-127201000D01*
X132339000Y-126099000D01*
X134951000Y-126099000D01*
X134951000Y-127201000D01*
X134951000Y-127201000D01*
G37*
G36*
X148986000Y-126526000D02*
X148284000Y-126526000D01*
X148284000Y-124874000D01*
X148986000Y-124874000D01*
X148986000Y-126526000D01*
X148986000Y-126526000D01*
G37*
G36*
X146446000Y-126526000D02*
X145744000Y-126526000D01*
X145744000Y-124874000D01*
X146446000Y-124874000D01*
X146446000Y-126526000D01*
X146446000Y-126526000D01*
G37*
G36*
X147716000Y-126526000D02*
X147014000Y-126526000D01*
X147014000Y-124874000D01*
X147716000Y-124874000D01*
X147716000Y-126526000D01*
X147716000Y-126526000D01*
G37*
G36*
X150256000Y-126526000D02*
X149554000Y-126526000D01*
X149554000Y-124874000D01*
X150256000Y-124874000D01*
X150256000Y-126526000D01*
X150256000Y-126526000D01*
G37*
G36*
X97027396Y-123585546D02*
X97200466Y-123657234D01*
X97356230Y-123761312D01*
X97488688Y-123893770D01*
X97592766Y-124049534D01*
X97664454Y-124222604D01*
X97701000Y-124406333D01*
X97701000Y-124593667D01*
X97664454Y-124777396D01*
X97592766Y-124950466D01*
X97488688Y-125106230D01*
X97356230Y-125238688D01*
X97200466Y-125342766D01*
X97027396Y-125414454D01*
X96843667Y-125451000D01*
X96656333Y-125451000D01*
X96472604Y-125414454D01*
X96299534Y-125342766D01*
X96143770Y-125238688D01*
X96011312Y-125106230D01*
X95907234Y-124950466D01*
X95835546Y-124777396D01*
X95799000Y-124593667D01*
X95799000Y-124406333D01*
X95835546Y-124222604D01*
X95907234Y-124049534D01*
X96011312Y-123893770D01*
X96143770Y-123761312D01*
X96299534Y-123657234D01*
X96472604Y-123585546D01*
X96656333Y-123549000D01*
X96843667Y-123549000D01*
X97027396Y-123585546D01*
X97027396Y-123585546D01*
G37*
G36*
X109527396Y-123585546D02*
X109700466Y-123657234D01*
X109856230Y-123761312D01*
X109988688Y-123893770D01*
X110092766Y-124049534D01*
X110164454Y-124222604D01*
X110201000Y-124406333D01*
X110201000Y-124593667D01*
X110164454Y-124777396D01*
X110092766Y-124950466D01*
X109988688Y-125106230D01*
X109856230Y-125238688D01*
X109700466Y-125342766D01*
X109527396Y-125414454D01*
X109343667Y-125451000D01*
X109156333Y-125451000D01*
X108972604Y-125414454D01*
X108799534Y-125342766D01*
X108643770Y-125238688D01*
X108511312Y-125106230D01*
X108407234Y-124950466D01*
X108335546Y-124777396D01*
X108299000Y-124593667D01*
X108299000Y-124406333D01*
X108335546Y-124222604D01*
X108407234Y-124049534D01*
X108511312Y-123893770D01*
X108643770Y-123761312D01*
X108799534Y-123657234D01*
X108972604Y-123585546D01*
X109156333Y-123549000D01*
X109343667Y-123549000D01*
X109527396Y-123585546D01*
X109527396Y-123585546D01*
G37*
G36*
X117916000Y-124711000D02*
X115304000Y-124711000D01*
X115304000Y-123609000D01*
X117916000Y-123609000D01*
X117916000Y-124711000D01*
X117916000Y-124711000D01*
G37*
G36*
X138261000Y-124661000D02*
X135649000Y-124661000D01*
X135649000Y-123559000D01*
X138261000Y-123559000D01*
X138261000Y-124661000D01*
X138261000Y-124661000D01*
G37*
G36*
X104129591Y-123478085D02*
X104163569Y-123488393D01*
X104194887Y-123505133D01*
X104222339Y-123527661D01*
X104244867Y-123555113D01*
X104261607Y-123586431D01*
X104271915Y-123620409D01*
X104276000Y-123661890D01*
X104276000Y-124338110D01*
X104271915Y-124379591D01*
X104261607Y-124413569D01*
X104244867Y-124444887D01*
X104222339Y-124472339D01*
X104194887Y-124494867D01*
X104163569Y-124511607D01*
X104129591Y-124521915D01*
X104088110Y-124526000D01*
X103486890Y-124526000D01*
X103445409Y-124521915D01*
X103411431Y-124511607D01*
X103380113Y-124494867D01*
X103352661Y-124472339D01*
X103330133Y-124444887D01*
X103313393Y-124413569D01*
X103303085Y-124379591D01*
X103299000Y-124338110D01*
X103299000Y-123661890D01*
X103303085Y-123620409D01*
X103313393Y-123586431D01*
X103330133Y-123555113D01*
X103352661Y-123527661D01*
X103380113Y-123505133D01*
X103411431Y-123488393D01*
X103445409Y-123478085D01*
X103486890Y-123474000D01*
X104088110Y-123474000D01*
X104129591Y-123478085D01*
X104129591Y-123478085D01*
G37*
G36*
X102554591Y-123478085D02*
X102588569Y-123488393D01*
X102619887Y-123505133D01*
X102647339Y-123527661D01*
X102669867Y-123555113D01*
X102686607Y-123586431D01*
X102696915Y-123620409D01*
X102701000Y-123661890D01*
X102701000Y-124338110D01*
X102696915Y-124379591D01*
X102686607Y-124413569D01*
X102669867Y-124444887D01*
X102647339Y-124472339D01*
X102619887Y-124494867D01*
X102588569Y-124511607D01*
X102554591Y-124521915D01*
X102513110Y-124526000D01*
X101911890Y-124526000D01*
X101870409Y-124521915D01*
X101836431Y-124511607D01*
X101805113Y-124494867D01*
X101777661Y-124472339D01*
X101755133Y-124444887D01*
X101738393Y-124413569D01*
X101728085Y-124379591D01*
X101724000Y-124338110D01*
X101724000Y-123661890D01*
X101728085Y-123620409D01*
X101738393Y-123586431D01*
X101755133Y-123555113D01*
X101777661Y-123527661D01*
X101805113Y-123505133D01*
X101836431Y-123488393D01*
X101870409Y-123478085D01*
X101911890Y-123474000D01*
X102513110Y-123474000D01*
X102554591Y-123478085D01*
X102554591Y-123478085D01*
G37*
G36*
X104129591Y-121478085D02*
X104163569Y-121488393D01*
X104194887Y-121505133D01*
X104222339Y-121527661D01*
X104244867Y-121555113D01*
X104261607Y-121586431D01*
X104271915Y-121620409D01*
X104276000Y-121661890D01*
X104276000Y-122338110D01*
X104271915Y-122379591D01*
X104261607Y-122413569D01*
X104244867Y-122444887D01*
X104222339Y-122472339D01*
X104194887Y-122494867D01*
X104163569Y-122511607D01*
X104129591Y-122521915D01*
X104088110Y-122526000D01*
X103486890Y-122526000D01*
X103445409Y-122521915D01*
X103411431Y-122511607D01*
X103380113Y-122494867D01*
X103352661Y-122472339D01*
X103330133Y-122444887D01*
X103313393Y-122413569D01*
X103303085Y-122379591D01*
X103299000Y-122338110D01*
X103299000Y-121661890D01*
X103303085Y-121620409D01*
X103313393Y-121586431D01*
X103330133Y-121555113D01*
X103352661Y-121527661D01*
X103380113Y-121505133D01*
X103411431Y-121488393D01*
X103445409Y-121478085D01*
X103486890Y-121474000D01*
X104088110Y-121474000D01*
X104129591Y-121478085D01*
X104129591Y-121478085D01*
G37*
G36*
X102554591Y-121478085D02*
X102588569Y-121488393D01*
X102619887Y-121505133D01*
X102647339Y-121527661D01*
X102669867Y-121555113D01*
X102686607Y-121586431D01*
X102696915Y-121620409D01*
X102701000Y-121661890D01*
X102701000Y-122338110D01*
X102696915Y-122379591D01*
X102686607Y-122413569D01*
X102669867Y-122444887D01*
X102647339Y-122472339D01*
X102619887Y-122494867D01*
X102588569Y-122511607D01*
X102554591Y-122521915D01*
X102513110Y-122526000D01*
X101911890Y-122526000D01*
X101870409Y-122521915D01*
X101836431Y-122511607D01*
X101805113Y-122494867D01*
X101777661Y-122472339D01*
X101755133Y-122444887D01*
X101738393Y-122413569D01*
X101728085Y-122379591D01*
X101724000Y-122338110D01*
X101724000Y-121661890D01*
X101728085Y-121620409D01*
X101738393Y-121586431D01*
X101755133Y-121555113D01*
X101777661Y-121527661D01*
X101805113Y-121505133D01*
X101836431Y-121488393D01*
X101870409Y-121478085D01*
X101911890Y-121474000D01*
X102513110Y-121474000D01*
X102554591Y-121478085D01*
X102554591Y-121478085D01*
G37*
G36*
X114606000Y-122171000D02*
X111994000Y-122171000D01*
X111994000Y-121069000D01*
X114606000Y-121069000D01*
X114606000Y-122171000D01*
X114606000Y-122171000D01*
G37*
G36*
X134951000Y-122121000D02*
X132339000Y-122121000D01*
X132339000Y-121019000D01*
X134951000Y-121019000D01*
X134951000Y-122121000D01*
X134951000Y-122121000D01*
G37*
G36*
X147716000Y-121126000D02*
X147014000Y-121126000D01*
X147014000Y-119474000D01*
X147716000Y-119474000D01*
X147716000Y-121126000D01*
X147716000Y-121126000D01*
G37*
G36*
X146446000Y-121126000D02*
X145744000Y-121126000D01*
X145744000Y-119474000D01*
X146446000Y-119474000D01*
X146446000Y-121126000D01*
X146446000Y-121126000D01*
G37*
G36*
X150256000Y-121126000D02*
X149554000Y-121126000D01*
X149554000Y-119474000D01*
X150256000Y-119474000D01*
X150256000Y-121126000D01*
X150256000Y-121126000D01*
G37*
G36*
X148986000Y-121126000D02*
X148284000Y-121126000D01*
X148284000Y-119474000D01*
X148986000Y-119474000D01*
X148986000Y-121126000D01*
X148986000Y-121126000D01*
G37*
G36*
X104129591Y-119478085D02*
X104163569Y-119488393D01*
X104194887Y-119505133D01*
X104222339Y-119527661D01*
X104244867Y-119555113D01*
X104261607Y-119586431D01*
X104271915Y-119620409D01*
X104276000Y-119661890D01*
X104276000Y-120338110D01*
X104271915Y-120379591D01*
X104261607Y-120413569D01*
X104244867Y-120444887D01*
X104222339Y-120472339D01*
X104194887Y-120494867D01*
X104163569Y-120511607D01*
X104129591Y-120521915D01*
X104088110Y-120526000D01*
X103486890Y-120526000D01*
X103445409Y-120521915D01*
X103411431Y-120511607D01*
X103380113Y-120494867D01*
X103352661Y-120472339D01*
X103330133Y-120444887D01*
X103313393Y-120413569D01*
X103303085Y-120379591D01*
X103299000Y-120338110D01*
X103299000Y-119661890D01*
X103303085Y-119620409D01*
X103313393Y-119586431D01*
X103330133Y-119555113D01*
X103352661Y-119527661D01*
X103380113Y-119505133D01*
X103411431Y-119488393D01*
X103445409Y-119478085D01*
X103486890Y-119474000D01*
X104088110Y-119474000D01*
X104129591Y-119478085D01*
X104129591Y-119478085D01*
G37*
G36*
X102554591Y-119478085D02*
X102588569Y-119488393D01*
X102619887Y-119505133D01*
X102647339Y-119527661D01*
X102669867Y-119555113D01*
X102686607Y-119586431D01*
X102696915Y-119620409D01*
X102701000Y-119661890D01*
X102701000Y-120338110D01*
X102696915Y-120379591D01*
X102686607Y-120413569D01*
X102669867Y-120444887D01*
X102647339Y-120472339D01*
X102619887Y-120494867D01*
X102588569Y-120511607D01*
X102554591Y-120521915D01*
X102513110Y-120526000D01*
X101911890Y-120526000D01*
X101870409Y-120521915D01*
X101836431Y-120511607D01*
X101805113Y-120494867D01*
X101777661Y-120472339D01*
X101755133Y-120444887D01*
X101738393Y-120413569D01*
X101728085Y-120379591D01*
X101724000Y-120338110D01*
X101724000Y-119661890D01*
X101728085Y-119620409D01*
X101738393Y-119586431D01*
X101755133Y-119555113D01*
X101777661Y-119527661D01*
X101805113Y-119505133D01*
X101836431Y-119488393D01*
X101870409Y-119478085D01*
X101911890Y-119474000D01*
X102513110Y-119474000D01*
X102554591Y-119478085D01*
X102554591Y-119478085D01*
G37*
G36*
X109527396Y-118585546D02*
X109700466Y-118657234D01*
X109856230Y-118761312D01*
X109988688Y-118893770D01*
X110092766Y-119049534D01*
X110164454Y-119222604D01*
X110201000Y-119406333D01*
X110201000Y-119593667D01*
X110164454Y-119777396D01*
X110092766Y-119950466D01*
X109988688Y-120106230D01*
X109856230Y-120238688D01*
X109700466Y-120342766D01*
X109527396Y-120414454D01*
X109343667Y-120451000D01*
X109156333Y-120451000D01*
X108972604Y-120414454D01*
X108799534Y-120342766D01*
X108643770Y-120238688D01*
X108511312Y-120106230D01*
X108407234Y-119950466D01*
X108335546Y-119777396D01*
X108299000Y-119593667D01*
X108299000Y-119406333D01*
X108335546Y-119222604D01*
X108407234Y-119049534D01*
X108511312Y-118893770D01*
X108643770Y-118761312D01*
X108799534Y-118657234D01*
X108972604Y-118585546D01*
X109156333Y-118549000D01*
X109343667Y-118549000D01*
X109527396Y-118585546D01*
X109527396Y-118585546D01*
G37*
G36*
X97027396Y-118585546D02*
X97200466Y-118657234D01*
X97356230Y-118761312D01*
X97488688Y-118893770D01*
X97592766Y-119049534D01*
X97664454Y-119222604D01*
X97701000Y-119406333D01*
X97701000Y-119593667D01*
X97664454Y-119777396D01*
X97592766Y-119950466D01*
X97488688Y-120106230D01*
X97356230Y-120238688D01*
X97200466Y-120342766D01*
X97027396Y-120414454D01*
X96843667Y-120451000D01*
X96656333Y-120451000D01*
X96472604Y-120414454D01*
X96299534Y-120342766D01*
X96143770Y-120238688D01*
X96011312Y-120106230D01*
X95907234Y-119950466D01*
X95835546Y-119777396D01*
X95799000Y-119593667D01*
X95799000Y-119406333D01*
X95835546Y-119222604D01*
X95907234Y-119049534D01*
X96011312Y-118893770D01*
X96143770Y-118761312D01*
X96299534Y-118657234D01*
X96472604Y-118585546D01*
X96656333Y-118549000D01*
X96843667Y-118549000D01*
X97027396Y-118585546D01*
X97027396Y-118585546D01*
G37*
G36*
X117916000Y-119631000D02*
X115304000Y-119631000D01*
X115304000Y-118529000D01*
X117916000Y-118529000D01*
X117916000Y-119631000D01*
X117916000Y-119631000D01*
G37*
G36*
X138261000Y-119581000D02*
X135649000Y-119581000D01*
X135649000Y-118479000D01*
X138261000Y-118479000D01*
X138261000Y-119581000D01*
X138261000Y-119581000D01*
G37*
G36*
X103277396Y-114585546D02*
X103450466Y-114657234D01*
X103606230Y-114761312D01*
X103738688Y-114893770D01*
X103842766Y-115049534D01*
X103914454Y-115222604D01*
X103951000Y-115406333D01*
X103951000Y-115593667D01*
X103914454Y-115777396D01*
X103842766Y-115950466D01*
X103738688Y-116106230D01*
X103606230Y-116238688D01*
X103450466Y-116342766D01*
X103349675Y-116384515D01*
X103328064Y-116396066D01*
X103309122Y-116411612D01*
X103293576Y-116430554D01*
X103282025Y-116452164D01*
X103274912Y-116475614D01*
X103272510Y-116500000D01*
X103274912Y-116524386D01*
X103282025Y-116547835D01*
X103293576Y-116569446D01*
X103309122Y-116588388D01*
X103328064Y-116603934D01*
X103349675Y-116615485D01*
X103450466Y-116657234D01*
X103606230Y-116761312D01*
X103738688Y-116893770D01*
X103842766Y-117049534D01*
X103914454Y-117222604D01*
X103951000Y-117406333D01*
X103951000Y-117593667D01*
X103914454Y-117777396D01*
X103842766Y-117950466D01*
X103738688Y-118106230D01*
X103606230Y-118238688D01*
X103450466Y-118342766D01*
X103277396Y-118414454D01*
X103093667Y-118451000D01*
X102906333Y-118451000D01*
X102722604Y-118414454D01*
X102549534Y-118342766D01*
X102393770Y-118238688D01*
X102261312Y-118106230D01*
X102157234Y-117950466D01*
X102085546Y-117777396D01*
X102049000Y-117593667D01*
X102049000Y-117406333D01*
X102085546Y-117222604D01*
X102157234Y-117049534D01*
X102261312Y-116893770D01*
X102393770Y-116761312D01*
X102549534Y-116657234D01*
X102650325Y-116615485D01*
X102671936Y-116603934D01*
X102690878Y-116588388D01*
X102706424Y-116569446D01*
X102717975Y-116547836D01*
X102725088Y-116524386D01*
X102727490Y-116500000D01*
X102725088Y-116475614D01*
X102717975Y-116452165D01*
X102706424Y-116430554D01*
X102690878Y-116411612D01*
X102671936Y-116396066D01*
X102650325Y-116384515D01*
X102549534Y-116342766D01*
X102393770Y-116238688D01*
X102261312Y-116106230D01*
X102157234Y-115950466D01*
X102085546Y-115777396D01*
X102049000Y-115593667D01*
X102049000Y-115406333D01*
X102085546Y-115222604D01*
X102157234Y-115049534D01*
X102261312Y-114893770D01*
X102393770Y-114761312D01*
X102549534Y-114657234D01*
X102722604Y-114585546D01*
X102906333Y-114549000D01*
X103093667Y-114549000D01*
X103277396Y-114585546D01*
X103277396Y-114585546D01*
G37*
G36*
X147379591Y-116303085D02*
X147413569Y-116313393D01*
X147444887Y-116330133D01*
X147472339Y-116352661D01*
X147494867Y-116380113D01*
X147511607Y-116411431D01*
X147521915Y-116445409D01*
X147526000Y-116486890D01*
X147526000Y-117088110D01*
X147521915Y-117129591D01*
X147511607Y-117163569D01*
X147494867Y-117194887D01*
X147472339Y-117222339D01*
X147444887Y-117244867D01*
X147413569Y-117261607D01*
X147379591Y-117271915D01*
X147338110Y-117276000D01*
X146661890Y-117276000D01*
X146620409Y-117271915D01*
X146586431Y-117261607D01*
X146555113Y-117244867D01*
X146527661Y-117222339D01*
X146505133Y-117194887D01*
X146488393Y-117163569D01*
X146478085Y-117129591D01*
X146474000Y-117088110D01*
X146474000Y-116486890D01*
X146478085Y-116445409D01*
X146488393Y-116411431D01*
X146505133Y-116380113D01*
X146527661Y-116352661D01*
X146555113Y-116330133D01*
X146586431Y-116313393D01*
X146620409Y-116303085D01*
X146661890Y-116299000D01*
X147338110Y-116299000D01*
X147379591Y-116303085D01*
X147379591Y-116303085D01*
G37*
G36*
X151379591Y-116303085D02*
X151413569Y-116313393D01*
X151444887Y-116330133D01*
X151472339Y-116352661D01*
X151494867Y-116380113D01*
X151511607Y-116411431D01*
X151521915Y-116445409D01*
X151526000Y-116486890D01*
X151526000Y-117088110D01*
X151521915Y-117129591D01*
X151511607Y-117163569D01*
X151494867Y-117194887D01*
X151472339Y-117222339D01*
X151444887Y-117244867D01*
X151413569Y-117261607D01*
X151379591Y-117271915D01*
X151338110Y-117276000D01*
X150661890Y-117276000D01*
X150620409Y-117271915D01*
X150586431Y-117261607D01*
X150555113Y-117244867D01*
X150527661Y-117222339D01*
X150505133Y-117194887D01*
X150488393Y-117163569D01*
X150478085Y-117129591D01*
X150474000Y-117088110D01*
X150474000Y-116486890D01*
X150478085Y-116445409D01*
X150488393Y-116411431D01*
X150505133Y-116380113D01*
X150527661Y-116352661D01*
X150555113Y-116330133D01*
X150586431Y-116313393D01*
X150620409Y-116303085D01*
X150661890Y-116299000D01*
X151338110Y-116299000D01*
X151379591Y-116303085D01*
X151379591Y-116303085D01*
G37*
G36*
X145379591Y-116303085D02*
X145413569Y-116313393D01*
X145444887Y-116330133D01*
X145472339Y-116352661D01*
X145494867Y-116380113D01*
X145511607Y-116411431D01*
X145521915Y-116445409D01*
X145526000Y-116486890D01*
X145526000Y-117088110D01*
X145521915Y-117129591D01*
X145511607Y-117163569D01*
X145494867Y-117194887D01*
X145472339Y-117222339D01*
X145444887Y-117244867D01*
X145413569Y-117261607D01*
X145379591Y-117271915D01*
X145338110Y-117276000D01*
X144661890Y-117276000D01*
X144620409Y-117271915D01*
X144586431Y-117261607D01*
X144555113Y-117244867D01*
X144527661Y-117222339D01*
X144505133Y-117194887D01*
X144488393Y-117163569D01*
X144478085Y-117129591D01*
X144474000Y-117088110D01*
X144474000Y-116486890D01*
X144478085Y-116445409D01*
X144488393Y-116411431D01*
X144505133Y-116380113D01*
X144527661Y-116352661D01*
X144555113Y-116330133D01*
X144586431Y-116313393D01*
X144620409Y-116303085D01*
X144661890Y-116299000D01*
X145338110Y-116299000D01*
X145379591Y-116303085D01*
X145379591Y-116303085D01*
G37*
G36*
X149379591Y-116303085D02*
X149413569Y-116313393D01*
X149444887Y-116330133D01*
X149472339Y-116352661D01*
X149494867Y-116380113D01*
X149511607Y-116411431D01*
X149521915Y-116445409D01*
X149526000Y-116486890D01*
X149526000Y-117088110D01*
X149521915Y-117129591D01*
X149511607Y-117163569D01*
X149494867Y-117194887D01*
X149472339Y-117222339D01*
X149444887Y-117244867D01*
X149413569Y-117261607D01*
X149379591Y-117271915D01*
X149338110Y-117276000D01*
X148661890Y-117276000D01*
X148620409Y-117271915D01*
X148586431Y-117261607D01*
X148555113Y-117244867D01*
X148527661Y-117222339D01*
X148505133Y-117194887D01*
X148488393Y-117163569D01*
X148478085Y-117129591D01*
X148474000Y-117088110D01*
X148474000Y-116486890D01*
X148478085Y-116445409D01*
X148488393Y-116411431D01*
X148505133Y-116380113D01*
X148527661Y-116352661D01*
X148555113Y-116330133D01*
X148586431Y-116313393D01*
X148620409Y-116303085D01*
X148661890Y-116299000D01*
X149338110Y-116299000D01*
X149379591Y-116303085D01*
X149379591Y-116303085D01*
G37*
G36*
X147379591Y-114728085D02*
X147413569Y-114738393D01*
X147444887Y-114755133D01*
X147472339Y-114777661D01*
X147494867Y-114805113D01*
X147511607Y-114836431D01*
X147521915Y-114870409D01*
X147526000Y-114911890D01*
X147526000Y-115513110D01*
X147521915Y-115554591D01*
X147511607Y-115588569D01*
X147494867Y-115619887D01*
X147472339Y-115647339D01*
X147444887Y-115669867D01*
X147413569Y-115686607D01*
X147379591Y-115696915D01*
X147338110Y-115701000D01*
X146661890Y-115701000D01*
X146620409Y-115696915D01*
X146586431Y-115686607D01*
X146555113Y-115669867D01*
X146527661Y-115647339D01*
X146505133Y-115619887D01*
X146488393Y-115588569D01*
X146478085Y-115554591D01*
X146474000Y-115513110D01*
X146474000Y-114911890D01*
X146478085Y-114870409D01*
X146488393Y-114836431D01*
X146505133Y-114805113D01*
X146527661Y-114777661D01*
X146555113Y-114755133D01*
X146586431Y-114738393D01*
X146620409Y-114728085D01*
X146661890Y-114724000D01*
X147338110Y-114724000D01*
X147379591Y-114728085D01*
X147379591Y-114728085D01*
G37*
G36*
X149379591Y-114728085D02*
X149413569Y-114738393D01*
X149444887Y-114755133D01*
X149472339Y-114777661D01*
X149494867Y-114805113D01*
X149511607Y-114836431D01*
X149521915Y-114870409D01*
X149526000Y-114911890D01*
X149526000Y-115513110D01*
X149521915Y-115554591D01*
X149511607Y-115588569D01*
X149494867Y-115619887D01*
X149472339Y-115647339D01*
X149444887Y-115669867D01*
X149413569Y-115686607D01*
X149379591Y-115696915D01*
X149338110Y-115701000D01*
X148661890Y-115701000D01*
X148620409Y-115696915D01*
X148586431Y-115686607D01*
X148555113Y-115669867D01*
X148527661Y-115647339D01*
X148505133Y-115619887D01*
X148488393Y-115588569D01*
X148478085Y-115554591D01*
X148474000Y-115513110D01*
X148474000Y-114911890D01*
X148478085Y-114870409D01*
X148488393Y-114836431D01*
X148505133Y-114805113D01*
X148527661Y-114777661D01*
X148555113Y-114755133D01*
X148586431Y-114738393D01*
X148620409Y-114728085D01*
X148661890Y-114724000D01*
X149338110Y-114724000D01*
X149379591Y-114728085D01*
X149379591Y-114728085D01*
G37*
G36*
X145379591Y-114728085D02*
X145413569Y-114738393D01*
X145444887Y-114755133D01*
X145472339Y-114777661D01*
X145494867Y-114805113D01*
X145511607Y-114836431D01*
X145521915Y-114870409D01*
X145526000Y-114911890D01*
X145526000Y-115513110D01*
X145521915Y-115554591D01*
X145511607Y-115588569D01*
X145494867Y-115619887D01*
X145472339Y-115647339D01*
X145444887Y-115669867D01*
X145413569Y-115686607D01*
X145379591Y-115696915D01*
X145338110Y-115701000D01*
X144661890Y-115701000D01*
X144620409Y-115696915D01*
X144586431Y-115686607D01*
X144555113Y-115669867D01*
X144527661Y-115647339D01*
X144505133Y-115619887D01*
X144488393Y-115588569D01*
X144478085Y-115554591D01*
X144474000Y-115513110D01*
X144474000Y-114911890D01*
X144478085Y-114870409D01*
X144488393Y-114836431D01*
X144505133Y-114805113D01*
X144527661Y-114777661D01*
X144555113Y-114755133D01*
X144586431Y-114738393D01*
X144620409Y-114728085D01*
X144661890Y-114724000D01*
X145338110Y-114724000D01*
X145379591Y-114728085D01*
X145379591Y-114728085D01*
G37*
G36*
X151379591Y-114728085D02*
X151413569Y-114738393D01*
X151444887Y-114755133D01*
X151472339Y-114777661D01*
X151494867Y-114805113D01*
X151511607Y-114836431D01*
X151521915Y-114870409D01*
X151526000Y-114911890D01*
X151526000Y-115513110D01*
X151521915Y-115554591D01*
X151511607Y-115588569D01*
X151494867Y-115619887D01*
X151472339Y-115647339D01*
X151444887Y-115669867D01*
X151413569Y-115686607D01*
X151379591Y-115696915D01*
X151338110Y-115701000D01*
X150661890Y-115701000D01*
X150620409Y-115696915D01*
X150586431Y-115686607D01*
X150555113Y-115669867D01*
X150527661Y-115647339D01*
X150505133Y-115619887D01*
X150488393Y-115588569D01*
X150478085Y-115554591D01*
X150474000Y-115513110D01*
X150474000Y-114911890D01*
X150478085Y-114870409D01*
X150488393Y-114836431D01*
X150505133Y-114805113D01*
X150527661Y-114777661D01*
X150555113Y-114755133D01*
X150586431Y-114738393D01*
X150620409Y-114728085D01*
X150661890Y-114724000D01*
X151338110Y-114724000D01*
X151379591Y-114728085D01*
X151379591Y-114728085D01*
G37*
G36*
X103277396Y-109585546D02*
X103450466Y-109657234D01*
X103606230Y-109761312D01*
X103738688Y-109893770D01*
X103842766Y-110049534D01*
X103914454Y-110222604D01*
X103951000Y-110406333D01*
X103951000Y-110593667D01*
X103914454Y-110777396D01*
X103842766Y-110950466D01*
X103738688Y-111106230D01*
X103606230Y-111238688D01*
X103450466Y-111342766D01*
X103349675Y-111384515D01*
X103328064Y-111396066D01*
X103309122Y-111411612D01*
X103293576Y-111430554D01*
X103282025Y-111452164D01*
X103274912Y-111475614D01*
X103272510Y-111500000D01*
X103274912Y-111524386D01*
X103282025Y-111547835D01*
X103293576Y-111569446D01*
X103309122Y-111588388D01*
X103328064Y-111603934D01*
X103349675Y-111615485D01*
X103450466Y-111657234D01*
X103606230Y-111761312D01*
X103738688Y-111893770D01*
X103842766Y-112049534D01*
X103914454Y-112222604D01*
X103951000Y-112406333D01*
X103951000Y-112593667D01*
X103914454Y-112777396D01*
X103842766Y-112950466D01*
X103738688Y-113106230D01*
X103606230Y-113238688D01*
X103450466Y-113342766D01*
X103277396Y-113414454D01*
X103093667Y-113451000D01*
X102906333Y-113451000D01*
X102722604Y-113414454D01*
X102549534Y-113342766D01*
X102393770Y-113238688D01*
X102261312Y-113106230D01*
X102157234Y-112950466D01*
X102085546Y-112777396D01*
X102049000Y-112593667D01*
X102049000Y-112406333D01*
X102085546Y-112222604D01*
X102157234Y-112049534D01*
X102261312Y-111893770D01*
X102393770Y-111761312D01*
X102549534Y-111657234D01*
X102650325Y-111615485D01*
X102671936Y-111603934D01*
X102690878Y-111588388D01*
X102706424Y-111569446D01*
X102717975Y-111547836D01*
X102725088Y-111524386D01*
X102727490Y-111500000D01*
X102725088Y-111475614D01*
X102717975Y-111452165D01*
X102706424Y-111430554D01*
X102690878Y-111411612D01*
X102671936Y-111396066D01*
X102650325Y-111384515D01*
X102549534Y-111342766D01*
X102393770Y-111238688D01*
X102261312Y-111106230D01*
X102157234Y-110950466D01*
X102085546Y-110777396D01*
X102049000Y-110593667D01*
X102049000Y-110406333D01*
X102085546Y-110222604D01*
X102157234Y-110049534D01*
X102261312Y-109893770D01*
X102393770Y-109761312D01*
X102549534Y-109657234D01*
X102722604Y-109585546D01*
X102906333Y-109549000D01*
X103093667Y-109549000D01*
X103277396Y-109585546D01*
X103277396Y-109585546D01*
G37*
G36*
X109527396Y-107585546D02*
X109700466Y-107657234D01*
X109856230Y-107761312D01*
X109988688Y-107893770D01*
X110092766Y-108049534D01*
X110164454Y-108222604D01*
X110201000Y-108406333D01*
X110201000Y-108593667D01*
X110164454Y-108777396D01*
X110092766Y-108950466D01*
X109988688Y-109106230D01*
X109856230Y-109238688D01*
X109700466Y-109342766D01*
X109527396Y-109414454D01*
X109343667Y-109451000D01*
X109156333Y-109451000D01*
X108972604Y-109414454D01*
X108799534Y-109342766D01*
X108643770Y-109238688D01*
X108511312Y-109106230D01*
X108407234Y-108950466D01*
X108335546Y-108777396D01*
X108299000Y-108593667D01*
X108299000Y-108406333D01*
X108335546Y-108222604D01*
X108407234Y-108049534D01*
X108511312Y-107893770D01*
X108643770Y-107761312D01*
X108799534Y-107657234D01*
X108972604Y-107585546D01*
X109156333Y-107549000D01*
X109343667Y-107549000D01*
X109527396Y-107585546D01*
X109527396Y-107585546D01*
G37*
G36*
X97027396Y-107585546D02*
X97200466Y-107657234D01*
X97356230Y-107761312D01*
X97488688Y-107893770D01*
X97592766Y-108049534D01*
X97664454Y-108222604D01*
X97701000Y-108406333D01*
X97701000Y-108593667D01*
X97664454Y-108777396D01*
X97592766Y-108950466D01*
X97488688Y-109106230D01*
X97356230Y-109238688D01*
X97200466Y-109342766D01*
X97027396Y-109414454D01*
X96843667Y-109451000D01*
X96656333Y-109451000D01*
X96472604Y-109414454D01*
X96299534Y-109342766D01*
X96143770Y-109238688D01*
X96011312Y-109106230D01*
X95907234Y-108950466D01*
X95835546Y-108777396D01*
X95799000Y-108593667D01*
X95799000Y-108406333D01*
X95835546Y-108222604D01*
X95907234Y-108049534D01*
X96011312Y-107893770D01*
X96143770Y-107761312D01*
X96299534Y-107657234D01*
X96472604Y-107585546D01*
X96656333Y-107549000D01*
X96843667Y-107549000D01*
X97027396Y-107585546D01*
X97027396Y-107585546D01*
G37*
G36*
X102554591Y-107478085D02*
X102588569Y-107488393D01*
X102619887Y-107505133D01*
X102647339Y-107527661D01*
X102669867Y-107555113D01*
X102686607Y-107586431D01*
X102696915Y-107620409D01*
X102701000Y-107661890D01*
X102701000Y-108338110D01*
X102696915Y-108379591D01*
X102686607Y-108413569D01*
X102669867Y-108444887D01*
X102647339Y-108472339D01*
X102619887Y-108494867D01*
X102588569Y-108511607D01*
X102554591Y-108521915D01*
X102513110Y-108526000D01*
X101911890Y-108526000D01*
X101870409Y-108521915D01*
X101836431Y-108511607D01*
X101805113Y-108494867D01*
X101777661Y-108472339D01*
X101755133Y-108444887D01*
X101738393Y-108413569D01*
X101728085Y-108379591D01*
X101724000Y-108338110D01*
X101724000Y-107661890D01*
X101728085Y-107620409D01*
X101738393Y-107586431D01*
X101755133Y-107555113D01*
X101777661Y-107527661D01*
X101805113Y-107505133D01*
X101836431Y-107488393D01*
X101870409Y-107478085D01*
X101911890Y-107474000D01*
X102513110Y-107474000D01*
X102554591Y-107478085D01*
X102554591Y-107478085D01*
G37*
G36*
X104129591Y-107478085D02*
X104163569Y-107488393D01*
X104194887Y-107505133D01*
X104222339Y-107527661D01*
X104244867Y-107555113D01*
X104261607Y-107586431D01*
X104271915Y-107620409D01*
X104276000Y-107661890D01*
X104276000Y-108338110D01*
X104271915Y-108379591D01*
X104261607Y-108413569D01*
X104244867Y-108444887D01*
X104222339Y-108472339D01*
X104194887Y-108494867D01*
X104163569Y-108511607D01*
X104129591Y-108521915D01*
X104088110Y-108526000D01*
X103486890Y-108526000D01*
X103445409Y-108521915D01*
X103411431Y-108511607D01*
X103380113Y-108494867D01*
X103352661Y-108472339D01*
X103330133Y-108444887D01*
X103313393Y-108413569D01*
X103303085Y-108379591D01*
X103299000Y-108338110D01*
X103299000Y-107661890D01*
X103303085Y-107620409D01*
X103313393Y-107586431D01*
X103330133Y-107555113D01*
X103352661Y-107527661D01*
X103380113Y-107505133D01*
X103411431Y-107488393D01*
X103445409Y-107478085D01*
X103486890Y-107474000D01*
X104088110Y-107474000D01*
X104129591Y-107478085D01*
X104129591Y-107478085D01*
G37*
G36*
X104129591Y-105478085D02*
X104163569Y-105488393D01*
X104194887Y-105505133D01*
X104222339Y-105527661D01*
X104244867Y-105555113D01*
X104261607Y-105586431D01*
X104271915Y-105620409D01*
X104276000Y-105661890D01*
X104276000Y-106338110D01*
X104271915Y-106379591D01*
X104261607Y-106413569D01*
X104244867Y-106444887D01*
X104222339Y-106472339D01*
X104194887Y-106494867D01*
X104163569Y-106511607D01*
X104129591Y-106521915D01*
X104088110Y-106526000D01*
X103486890Y-106526000D01*
X103445409Y-106521915D01*
X103411431Y-106511607D01*
X103380113Y-106494867D01*
X103352661Y-106472339D01*
X103330133Y-106444887D01*
X103313393Y-106413569D01*
X103303085Y-106379591D01*
X103299000Y-106338110D01*
X103299000Y-105661890D01*
X103303085Y-105620409D01*
X103313393Y-105586431D01*
X103330133Y-105555113D01*
X103352661Y-105527661D01*
X103380113Y-105505133D01*
X103411431Y-105488393D01*
X103445409Y-105478085D01*
X103486890Y-105474000D01*
X104088110Y-105474000D01*
X104129591Y-105478085D01*
X104129591Y-105478085D01*
G37*
G36*
X102554591Y-105478085D02*
X102588569Y-105488393D01*
X102619887Y-105505133D01*
X102647339Y-105527661D01*
X102669867Y-105555113D01*
X102686607Y-105586431D01*
X102696915Y-105620409D01*
X102701000Y-105661890D01*
X102701000Y-106338110D01*
X102696915Y-106379591D01*
X102686607Y-106413569D01*
X102669867Y-106444887D01*
X102647339Y-106472339D01*
X102619887Y-106494867D01*
X102588569Y-106511607D01*
X102554591Y-106521915D01*
X102513110Y-106526000D01*
X101911890Y-106526000D01*
X101870409Y-106521915D01*
X101836431Y-106511607D01*
X101805113Y-106494867D01*
X101777661Y-106472339D01*
X101755133Y-106444887D01*
X101738393Y-106413569D01*
X101728085Y-106379591D01*
X101724000Y-106338110D01*
X101724000Y-105661890D01*
X101728085Y-105620409D01*
X101738393Y-105586431D01*
X101755133Y-105555113D01*
X101777661Y-105527661D01*
X101805113Y-105505133D01*
X101836431Y-105488393D01*
X101870409Y-105478085D01*
X101911890Y-105474000D01*
X102513110Y-105474000D01*
X102554591Y-105478085D01*
X102554591Y-105478085D01*
G37*
G36*
X102554591Y-103478085D02*
X102588569Y-103488393D01*
X102619887Y-103505133D01*
X102647339Y-103527661D01*
X102669867Y-103555113D01*
X102686607Y-103586431D01*
X102696915Y-103620409D01*
X102701000Y-103661890D01*
X102701000Y-104338110D01*
X102696915Y-104379591D01*
X102686607Y-104413569D01*
X102669867Y-104444887D01*
X102647339Y-104472339D01*
X102619887Y-104494867D01*
X102588569Y-104511607D01*
X102554591Y-104521915D01*
X102513110Y-104526000D01*
X101911890Y-104526000D01*
X101870409Y-104521915D01*
X101836431Y-104511607D01*
X101805113Y-104494867D01*
X101777661Y-104472339D01*
X101755133Y-104444887D01*
X101738393Y-104413569D01*
X101728085Y-104379591D01*
X101724000Y-104338110D01*
X101724000Y-103661890D01*
X101728085Y-103620409D01*
X101738393Y-103586431D01*
X101755133Y-103555113D01*
X101777661Y-103527661D01*
X101805113Y-103505133D01*
X101836431Y-103488393D01*
X101870409Y-103478085D01*
X101911890Y-103474000D01*
X102513110Y-103474000D01*
X102554591Y-103478085D01*
X102554591Y-103478085D01*
G37*
G36*
X104129591Y-103478085D02*
X104163569Y-103488393D01*
X104194887Y-103505133D01*
X104222339Y-103527661D01*
X104244867Y-103555113D01*
X104261607Y-103586431D01*
X104271915Y-103620409D01*
X104276000Y-103661890D01*
X104276000Y-104338110D01*
X104271915Y-104379591D01*
X104261607Y-104413569D01*
X104244867Y-104444887D01*
X104222339Y-104472339D01*
X104194887Y-104494867D01*
X104163569Y-104511607D01*
X104129591Y-104521915D01*
X104088110Y-104526000D01*
X103486890Y-104526000D01*
X103445409Y-104521915D01*
X103411431Y-104511607D01*
X103380113Y-104494867D01*
X103352661Y-104472339D01*
X103330133Y-104444887D01*
X103313393Y-104413569D01*
X103303085Y-104379591D01*
X103299000Y-104338110D01*
X103299000Y-103661890D01*
X103303085Y-103620409D01*
X103313393Y-103586431D01*
X103330133Y-103555113D01*
X103352661Y-103527661D01*
X103380113Y-103505133D01*
X103411431Y-103488393D01*
X103445409Y-103478085D01*
X103486890Y-103474000D01*
X104088110Y-103474000D01*
X104129591Y-103478085D01*
X104129591Y-103478085D01*
G37*
G36*
X97027396Y-102585546D02*
X97200466Y-102657234D01*
X97356230Y-102761312D01*
X97488688Y-102893770D01*
X97592766Y-103049534D01*
X97664454Y-103222604D01*
X97701000Y-103406333D01*
X97701000Y-103593667D01*
X97664454Y-103777396D01*
X97592766Y-103950466D01*
X97488688Y-104106230D01*
X97356230Y-104238688D01*
X97200466Y-104342766D01*
X97027396Y-104414454D01*
X96843667Y-104451000D01*
X96656333Y-104451000D01*
X96472604Y-104414454D01*
X96299534Y-104342766D01*
X96143770Y-104238688D01*
X96011312Y-104106230D01*
X95907234Y-103950466D01*
X95835546Y-103777396D01*
X95799000Y-103593667D01*
X95799000Y-103406333D01*
X95835546Y-103222604D01*
X95907234Y-103049534D01*
X96011312Y-102893770D01*
X96143770Y-102761312D01*
X96299534Y-102657234D01*
X96472604Y-102585546D01*
X96656333Y-102549000D01*
X96843667Y-102549000D01*
X97027396Y-102585546D01*
X97027396Y-102585546D01*
G37*
G36*
X109527396Y-102585546D02*
X109700466Y-102657234D01*
X109856230Y-102761312D01*
X109988688Y-102893770D01*
X110092766Y-103049534D01*
X110164454Y-103222604D01*
X110201000Y-103406333D01*
X110201000Y-103593667D01*
X110164454Y-103777396D01*
X110092766Y-103950466D01*
X109988688Y-104106230D01*
X109856230Y-104238688D01*
X109700466Y-104342766D01*
X109527396Y-104414454D01*
X109343667Y-104451000D01*
X109156333Y-104451000D01*
X108972604Y-104414454D01*
X108799534Y-104342766D01*
X108643770Y-104238688D01*
X108511312Y-104106230D01*
X108407234Y-103950466D01*
X108335546Y-103777396D01*
X108299000Y-103593667D01*
X108299000Y-103406333D01*
X108335546Y-103222604D01*
X108407234Y-103049534D01*
X108511312Y-102893770D01*
X108643770Y-102761312D01*
X108799534Y-102657234D01*
X108972604Y-102585546D01*
X109156333Y-102549000D01*
X109343667Y-102549000D01*
X109527396Y-102585546D01*
X109527396Y-102585546D01*
G37*
G36*
X103277396Y-98585546D02*
X103450466Y-98657234D01*
X103606230Y-98761312D01*
X103738688Y-98893770D01*
X103842766Y-99049534D01*
X103914454Y-99222604D01*
X103951000Y-99406333D01*
X103951000Y-99593667D01*
X103914454Y-99777396D01*
X103842766Y-99950466D01*
X103738688Y-100106230D01*
X103606230Y-100238688D01*
X103450466Y-100342766D01*
X103349675Y-100384515D01*
X103328064Y-100396066D01*
X103309122Y-100411612D01*
X103293576Y-100430554D01*
X103282025Y-100452164D01*
X103274912Y-100475614D01*
X103272510Y-100500000D01*
X103274912Y-100524386D01*
X103282025Y-100547835D01*
X103293576Y-100569446D01*
X103309122Y-100588388D01*
X103328064Y-100603934D01*
X103349675Y-100615485D01*
X103450466Y-100657234D01*
X103606230Y-100761312D01*
X103738688Y-100893770D01*
X103842766Y-101049534D01*
X103914454Y-101222604D01*
X103951000Y-101406333D01*
X103951000Y-101593667D01*
X103914454Y-101777396D01*
X103842766Y-101950466D01*
X103738688Y-102106230D01*
X103606230Y-102238688D01*
X103450466Y-102342766D01*
X103277396Y-102414454D01*
X103093667Y-102451000D01*
X102906333Y-102451000D01*
X102722604Y-102414454D01*
X102549534Y-102342766D01*
X102393770Y-102238688D01*
X102261312Y-102106230D01*
X102157234Y-101950466D01*
X102085546Y-101777396D01*
X102049000Y-101593667D01*
X102049000Y-101406333D01*
X102085546Y-101222604D01*
X102157234Y-101049534D01*
X102261312Y-100893770D01*
X102393770Y-100761312D01*
X102549534Y-100657234D01*
X102650325Y-100615485D01*
X102671936Y-100603934D01*
X102690878Y-100588388D01*
X102706424Y-100569446D01*
X102717975Y-100547836D01*
X102725088Y-100524386D01*
X102727490Y-100500000D01*
X102725088Y-100475614D01*
X102717975Y-100452165D01*
X102706424Y-100430554D01*
X102690878Y-100411612D01*
X102671936Y-100396066D01*
X102650325Y-100384515D01*
X102549534Y-100342766D01*
X102393770Y-100238688D01*
X102261312Y-100106230D01*
X102157234Y-99950466D01*
X102085546Y-99777396D01*
X102049000Y-99593667D01*
X102049000Y-99406333D01*
X102085546Y-99222604D01*
X102157234Y-99049534D01*
X102261312Y-98893770D01*
X102393770Y-98761312D01*
X102549534Y-98657234D01*
X102722604Y-98585546D01*
X102906333Y-98549000D01*
X103093667Y-98549000D01*
X103277396Y-98585546D01*
X103277396Y-98585546D01*
G37*
G36*
X103277396Y-93585546D02*
X103450466Y-93657234D01*
X103606230Y-93761312D01*
X103738688Y-93893770D01*
X103842766Y-94049534D01*
X103914454Y-94222604D01*
X103951000Y-94406333D01*
X103951000Y-94593667D01*
X103914454Y-94777396D01*
X103842766Y-94950466D01*
X103738688Y-95106230D01*
X103606230Y-95238688D01*
X103450466Y-95342766D01*
X103349675Y-95384515D01*
X103328064Y-95396066D01*
X103309122Y-95411612D01*
X103293576Y-95430554D01*
X103282025Y-95452164D01*
X103274912Y-95475614D01*
X103272510Y-95500000D01*
X103274912Y-95524386D01*
X103282025Y-95547835D01*
X103293576Y-95569446D01*
X103309122Y-95588388D01*
X103328064Y-95603934D01*
X103349675Y-95615485D01*
X103450466Y-95657234D01*
X103606230Y-95761312D01*
X103738688Y-95893770D01*
X103842766Y-96049534D01*
X103914454Y-96222604D01*
X103951000Y-96406333D01*
X103951000Y-96593667D01*
X103914454Y-96777396D01*
X103842766Y-96950466D01*
X103738688Y-97106230D01*
X103606230Y-97238688D01*
X103450466Y-97342766D01*
X103277396Y-97414454D01*
X103093667Y-97451000D01*
X102906333Y-97451000D01*
X102722604Y-97414454D01*
X102549534Y-97342766D01*
X102393770Y-97238688D01*
X102261312Y-97106230D01*
X102157234Y-96950466D01*
X102085546Y-96777396D01*
X102049000Y-96593667D01*
X102049000Y-96406333D01*
X102085546Y-96222604D01*
X102157234Y-96049534D01*
X102261312Y-95893770D01*
X102393770Y-95761312D01*
X102549534Y-95657234D01*
X102650325Y-95615485D01*
X102671936Y-95603934D01*
X102690878Y-95588388D01*
X102706424Y-95569446D01*
X102717975Y-95547836D01*
X102725088Y-95524386D01*
X102727490Y-95500000D01*
X102725088Y-95475614D01*
X102717975Y-95452165D01*
X102706424Y-95430554D01*
X102690878Y-95411612D01*
X102671936Y-95396066D01*
X102650325Y-95384515D01*
X102549534Y-95342766D01*
X102393770Y-95238688D01*
X102261312Y-95106230D01*
X102157234Y-94950466D01*
X102085546Y-94777396D01*
X102049000Y-94593667D01*
X102049000Y-94406333D01*
X102085546Y-94222604D01*
X102157234Y-94049534D01*
X102261312Y-93893770D01*
X102393770Y-93761312D01*
X102549534Y-93657234D01*
X102722604Y-93585546D01*
X102906333Y-93549000D01*
X103093667Y-93549000D01*
X103277396Y-93585546D01*
X103277396Y-93585546D01*
G37*
G36*
X109527396Y-91585546D02*
X109700466Y-91657234D01*
X109856230Y-91761312D01*
X109988688Y-91893770D01*
X110092766Y-92049534D01*
X110164454Y-92222604D01*
X110201000Y-92406333D01*
X110201000Y-92593667D01*
X110164454Y-92777396D01*
X110092766Y-92950466D01*
X109988688Y-93106230D01*
X109856230Y-93238688D01*
X109700466Y-93342766D01*
X109527396Y-93414454D01*
X109343667Y-93451000D01*
X109156333Y-93451000D01*
X108972604Y-93414454D01*
X108799534Y-93342766D01*
X108643770Y-93238688D01*
X108511312Y-93106230D01*
X108407234Y-92950466D01*
X108335546Y-92777396D01*
X108299000Y-92593667D01*
X108299000Y-92406333D01*
X108335546Y-92222604D01*
X108407234Y-92049534D01*
X108511312Y-91893770D01*
X108643770Y-91761312D01*
X108799534Y-91657234D01*
X108972604Y-91585546D01*
X109156333Y-91549000D01*
X109343667Y-91549000D01*
X109527396Y-91585546D01*
X109527396Y-91585546D01*
G37*
G36*
X97027396Y-91585546D02*
X97200466Y-91657234D01*
X97356230Y-91761312D01*
X97488688Y-91893770D01*
X97592766Y-92049534D01*
X97664454Y-92222604D01*
X97701000Y-92406333D01*
X97701000Y-92593667D01*
X97664454Y-92777396D01*
X97592766Y-92950466D01*
X97488688Y-93106230D01*
X97356230Y-93238688D01*
X97200466Y-93342766D01*
X97027396Y-93414454D01*
X96843667Y-93451000D01*
X96656333Y-93451000D01*
X96472604Y-93414454D01*
X96299534Y-93342766D01*
X96143770Y-93238688D01*
X96011312Y-93106230D01*
X95907234Y-92950466D01*
X95835546Y-92777396D01*
X95799000Y-92593667D01*
X95799000Y-92406333D01*
X95835546Y-92222604D01*
X95907234Y-92049534D01*
X96011312Y-91893770D01*
X96143770Y-91761312D01*
X96299534Y-91657234D01*
X96472604Y-91585546D01*
X96656333Y-91549000D01*
X96843667Y-91549000D01*
X97027396Y-91585546D01*
X97027396Y-91585546D01*
G37*
G36*
X102554591Y-91478085D02*
X102588569Y-91488393D01*
X102619887Y-91505133D01*
X102647339Y-91527661D01*
X102669867Y-91555113D01*
X102686607Y-91586431D01*
X102696915Y-91620409D01*
X102701000Y-91661890D01*
X102701000Y-92338110D01*
X102696915Y-92379591D01*
X102686607Y-92413569D01*
X102669867Y-92444887D01*
X102647339Y-92472339D01*
X102619887Y-92494867D01*
X102588569Y-92511607D01*
X102554591Y-92521915D01*
X102513110Y-92526000D01*
X101911890Y-92526000D01*
X101870409Y-92521915D01*
X101836431Y-92511607D01*
X101805113Y-92494867D01*
X101777661Y-92472339D01*
X101755133Y-92444887D01*
X101738393Y-92413569D01*
X101728085Y-92379591D01*
X101724000Y-92338110D01*
X101724000Y-91661890D01*
X101728085Y-91620409D01*
X101738393Y-91586431D01*
X101755133Y-91555113D01*
X101777661Y-91527661D01*
X101805113Y-91505133D01*
X101836431Y-91488393D01*
X101870409Y-91478085D01*
X101911890Y-91474000D01*
X102513110Y-91474000D01*
X102554591Y-91478085D01*
X102554591Y-91478085D01*
G37*
G36*
X104129591Y-91478085D02*
X104163569Y-91488393D01*
X104194887Y-91505133D01*
X104222339Y-91527661D01*
X104244867Y-91555113D01*
X104261607Y-91586431D01*
X104271915Y-91620409D01*
X104276000Y-91661890D01*
X104276000Y-92338110D01*
X104271915Y-92379591D01*
X104261607Y-92413569D01*
X104244867Y-92444887D01*
X104222339Y-92472339D01*
X104194887Y-92494867D01*
X104163569Y-92511607D01*
X104129591Y-92521915D01*
X104088110Y-92526000D01*
X103486890Y-92526000D01*
X103445409Y-92521915D01*
X103411431Y-92511607D01*
X103380113Y-92494867D01*
X103352661Y-92472339D01*
X103330133Y-92444887D01*
X103313393Y-92413569D01*
X103303085Y-92379591D01*
X103299000Y-92338110D01*
X103299000Y-91661890D01*
X103303085Y-91620409D01*
X103313393Y-91586431D01*
X103330133Y-91555113D01*
X103352661Y-91527661D01*
X103380113Y-91505133D01*
X103411431Y-91488393D01*
X103445409Y-91478085D01*
X103486890Y-91474000D01*
X104088110Y-91474000D01*
X104129591Y-91478085D01*
X104129591Y-91478085D01*
G37*
G36*
X104129591Y-89478085D02*
X104163569Y-89488393D01*
X104194887Y-89505133D01*
X104222339Y-89527661D01*
X104244867Y-89555113D01*
X104261607Y-89586431D01*
X104271915Y-89620409D01*
X104276000Y-89661890D01*
X104276000Y-90338110D01*
X104271915Y-90379591D01*
X104261607Y-90413569D01*
X104244867Y-90444887D01*
X104222339Y-90472339D01*
X104194887Y-90494867D01*
X104163569Y-90511607D01*
X104129591Y-90521915D01*
X104088110Y-90526000D01*
X103486890Y-90526000D01*
X103445409Y-90521915D01*
X103411431Y-90511607D01*
X103380113Y-90494867D01*
X103352661Y-90472339D01*
X103330133Y-90444887D01*
X103313393Y-90413569D01*
X103303085Y-90379591D01*
X103299000Y-90338110D01*
X103299000Y-89661890D01*
X103303085Y-89620409D01*
X103313393Y-89586431D01*
X103330133Y-89555113D01*
X103352661Y-89527661D01*
X103380113Y-89505133D01*
X103411431Y-89488393D01*
X103445409Y-89478085D01*
X103486890Y-89474000D01*
X104088110Y-89474000D01*
X104129591Y-89478085D01*
X104129591Y-89478085D01*
G37*
G36*
X102554591Y-89478085D02*
X102588569Y-89488393D01*
X102619887Y-89505133D01*
X102647339Y-89527661D01*
X102669867Y-89555113D01*
X102686607Y-89586431D01*
X102696915Y-89620409D01*
X102701000Y-89661890D01*
X102701000Y-90338110D01*
X102696915Y-90379591D01*
X102686607Y-90413569D01*
X102669867Y-90444887D01*
X102647339Y-90472339D01*
X102619887Y-90494867D01*
X102588569Y-90511607D01*
X102554591Y-90521915D01*
X102513110Y-90526000D01*
X101911890Y-90526000D01*
X101870409Y-90521915D01*
X101836431Y-90511607D01*
X101805113Y-90494867D01*
X101777661Y-90472339D01*
X101755133Y-90444887D01*
X101738393Y-90413569D01*
X101728085Y-90379591D01*
X101724000Y-90338110D01*
X101724000Y-89661890D01*
X101728085Y-89620409D01*
X101738393Y-89586431D01*
X101755133Y-89555113D01*
X101777661Y-89527661D01*
X101805113Y-89505133D01*
X101836431Y-89488393D01*
X101870409Y-89478085D01*
X101911890Y-89474000D01*
X102513110Y-89474000D01*
X102554591Y-89478085D01*
X102554591Y-89478085D01*
G37*
G36*
X102554591Y-87478085D02*
X102588569Y-87488393D01*
X102619887Y-87505133D01*
X102647339Y-87527661D01*
X102669867Y-87555113D01*
X102686607Y-87586431D01*
X102696915Y-87620409D01*
X102701000Y-87661890D01*
X102701000Y-88338110D01*
X102696915Y-88379591D01*
X102686607Y-88413569D01*
X102669867Y-88444887D01*
X102647339Y-88472339D01*
X102619887Y-88494867D01*
X102588569Y-88511607D01*
X102554591Y-88521915D01*
X102513110Y-88526000D01*
X101911890Y-88526000D01*
X101870409Y-88521915D01*
X101836431Y-88511607D01*
X101805113Y-88494867D01*
X101777661Y-88472339D01*
X101755133Y-88444887D01*
X101738393Y-88413569D01*
X101728085Y-88379591D01*
X101724000Y-88338110D01*
X101724000Y-87661890D01*
X101728085Y-87620409D01*
X101738393Y-87586431D01*
X101755133Y-87555113D01*
X101777661Y-87527661D01*
X101805113Y-87505133D01*
X101836431Y-87488393D01*
X101870409Y-87478085D01*
X101911890Y-87474000D01*
X102513110Y-87474000D01*
X102554591Y-87478085D01*
X102554591Y-87478085D01*
G37*
G36*
X104129591Y-87478085D02*
X104163569Y-87488393D01*
X104194887Y-87505133D01*
X104222339Y-87527661D01*
X104244867Y-87555113D01*
X104261607Y-87586431D01*
X104271915Y-87620409D01*
X104276000Y-87661890D01*
X104276000Y-88338110D01*
X104271915Y-88379591D01*
X104261607Y-88413569D01*
X104244867Y-88444887D01*
X104222339Y-88472339D01*
X104194887Y-88494867D01*
X104163569Y-88511607D01*
X104129591Y-88521915D01*
X104088110Y-88526000D01*
X103486890Y-88526000D01*
X103445409Y-88521915D01*
X103411431Y-88511607D01*
X103380113Y-88494867D01*
X103352661Y-88472339D01*
X103330133Y-88444887D01*
X103313393Y-88413569D01*
X103303085Y-88379591D01*
X103299000Y-88338110D01*
X103299000Y-87661890D01*
X103303085Y-87620409D01*
X103313393Y-87586431D01*
X103330133Y-87555113D01*
X103352661Y-87527661D01*
X103380113Y-87505133D01*
X103411431Y-87488393D01*
X103445409Y-87478085D01*
X103486890Y-87474000D01*
X104088110Y-87474000D01*
X104129591Y-87478085D01*
X104129591Y-87478085D01*
G37*
G36*
X109527396Y-86585546D02*
X109700466Y-86657234D01*
X109856230Y-86761312D01*
X109988688Y-86893770D01*
X110092766Y-87049534D01*
X110164454Y-87222604D01*
X110201000Y-87406333D01*
X110201000Y-87593667D01*
X110164454Y-87777396D01*
X110092766Y-87950466D01*
X109988688Y-88106230D01*
X109856230Y-88238688D01*
X109700466Y-88342766D01*
X109527396Y-88414454D01*
X109343667Y-88451000D01*
X109156333Y-88451000D01*
X108972604Y-88414454D01*
X108799534Y-88342766D01*
X108643770Y-88238688D01*
X108511312Y-88106230D01*
X108407234Y-87950466D01*
X108335546Y-87777396D01*
X108299000Y-87593667D01*
X108299000Y-87406333D01*
X108335546Y-87222604D01*
X108407234Y-87049534D01*
X108511312Y-86893770D01*
X108643770Y-86761312D01*
X108799534Y-86657234D01*
X108972604Y-86585546D01*
X109156333Y-86549000D01*
X109343667Y-86549000D01*
X109527396Y-86585546D01*
X109527396Y-86585546D01*
G37*
G36*
X97027396Y-86585546D02*
X97200466Y-86657234D01*
X97356230Y-86761312D01*
X97488688Y-86893770D01*
X97592766Y-87049534D01*
X97664454Y-87222604D01*
X97701000Y-87406333D01*
X97701000Y-87593667D01*
X97664454Y-87777396D01*
X97592766Y-87950466D01*
X97488688Y-88106230D01*
X97356230Y-88238688D01*
X97200466Y-88342766D01*
X97027396Y-88414454D01*
X96843667Y-88451000D01*
X96656333Y-88451000D01*
X96472604Y-88414454D01*
X96299534Y-88342766D01*
X96143770Y-88238688D01*
X96011312Y-88106230D01*
X95907234Y-87950466D01*
X95835546Y-87777396D01*
X95799000Y-87593667D01*
X95799000Y-87406333D01*
X95835546Y-87222604D01*
X95907234Y-87049534D01*
X96011312Y-86893770D01*
X96143770Y-86761312D01*
X96299534Y-86657234D01*
X96472604Y-86585546D01*
X96656333Y-86549000D01*
X96843667Y-86549000D01*
X97027396Y-86585546D01*
X97027396Y-86585546D01*
G37*
G36*
X103277396Y-82585546D02*
X103450466Y-82657234D01*
X103606230Y-82761312D01*
X103738688Y-82893770D01*
X103842766Y-83049534D01*
X103914454Y-83222604D01*
X103951000Y-83406333D01*
X103951000Y-83593667D01*
X103914454Y-83777396D01*
X103842766Y-83950466D01*
X103738688Y-84106230D01*
X103606230Y-84238688D01*
X103450466Y-84342766D01*
X103349675Y-84384515D01*
X103328064Y-84396066D01*
X103309122Y-84411612D01*
X103293576Y-84430554D01*
X103282025Y-84452164D01*
X103274912Y-84475614D01*
X103272510Y-84500000D01*
X103274912Y-84524386D01*
X103282025Y-84547835D01*
X103293576Y-84569446D01*
X103309122Y-84588388D01*
X103328064Y-84603934D01*
X103349675Y-84615485D01*
X103450466Y-84657234D01*
X103606230Y-84761312D01*
X103738688Y-84893770D01*
X103842766Y-85049534D01*
X103914454Y-85222604D01*
X103951000Y-85406333D01*
X103951000Y-85593667D01*
X103914454Y-85777396D01*
X103842766Y-85950466D01*
X103738688Y-86106230D01*
X103606230Y-86238688D01*
X103450466Y-86342766D01*
X103277396Y-86414454D01*
X103093667Y-86451000D01*
X102906333Y-86451000D01*
X102722604Y-86414454D01*
X102549534Y-86342766D01*
X102393770Y-86238688D01*
X102261312Y-86106230D01*
X102157234Y-85950466D01*
X102085546Y-85777396D01*
X102049000Y-85593667D01*
X102049000Y-85406333D01*
X102085546Y-85222604D01*
X102157234Y-85049534D01*
X102261312Y-84893770D01*
X102393770Y-84761312D01*
X102549534Y-84657234D01*
X102650325Y-84615485D01*
X102671936Y-84603934D01*
X102690878Y-84588388D01*
X102706424Y-84569446D01*
X102717975Y-84547836D01*
X102725088Y-84524386D01*
X102727490Y-84500000D01*
X102725088Y-84475614D01*
X102717975Y-84452165D01*
X102706424Y-84430554D01*
X102690878Y-84411612D01*
X102671936Y-84396066D01*
X102650325Y-84384515D01*
X102549534Y-84342766D01*
X102393770Y-84238688D01*
X102261312Y-84106230D01*
X102157234Y-83950466D01*
X102085546Y-83777396D01*
X102049000Y-83593667D01*
X102049000Y-83406333D01*
X102085546Y-83222604D01*
X102157234Y-83049534D01*
X102261312Y-82893770D01*
X102393770Y-82761312D01*
X102549534Y-82657234D01*
X102722604Y-82585546D01*
X102906333Y-82549000D01*
X103093667Y-82549000D01*
X103277396Y-82585546D01*
X103277396Y-82585546D01*
G37*
G36*
X103277396Y-77585546D02*
X103450466Y-77657234D01*
X103606230Y-77761312D01*
X103738688Y-77893770D01*
X103842766Y-78049534D01*
X103914454Y-78222604D01*
X103951000Y-78406333D01*
X103951000Y-78593667D01*
X103914454Y-78777396D01*
X103842766Y-78950466D01*
X103738688Y-79106230D01*
X103606230Y-79238688D01*
X103450466Y-79342766D01*
X103349675Y-79384515D01*
X103328064Y-79396066D01*
X103309122Y-79411612D01*
X103293576Y-79430554D01*
X103282025Y-79452164D01*
X103274912Y-79475614D01*
X103272510Y-79500000D01*
X103274912Y-79524386D01*
X103282025Y-79547835D01*
X103293576Y-79569446D01*
X103309122Y-79588388D01*
X103328064Y-79603934D01*
X103349675Y-79615485D01*
X103450466Y-79657234D01*
X103606230Y-79761312D01*
X103738688Y-79893770D01*
X103842766Y-80049534D01*
X103914454Y-80222604D01*
X103951000Y-80406333D01*
X103951000Y-80593667D01*
X103914454Y-80777396D01*
X103842766Y-80950466D01*
X103738688Y-81106230D01*
X103606230Y-81238688D01*
X103450466Y-81342766D01*
X103277396Y-81414454D01*
X103093667Y-81451000D01*
X102906333Y-81451000D01*
X102722604Y-81414454D01*
X102549534Y-81342766D01*
X102393770Y-81238688D01*
X102261312Y-81106230D01*
X102157234Y-80950466D01*
X102085546Y-80777396D01*
X102049000Y-80593667D01*
X102049000Y-80406333D01*
X102085546Y-80222604D01*
X102157234Y-80049534D01*
X102261312Y-79893770D01*
X102393770Y-79761312D01*
X102549534Y-79657234D01*
X102650325Y-79615485D01*
X102671936Y-79603934D01*
X102690878Y-79588388D01*
X102706424Y-79569446D01*
X102717975Y-79547836D01*
X102725088Y-79524386D01*
X102727490Y-79500000D01*
X102725088Y-79475614D01*
X102717975Y-79452165D01*
X102706424Y-79430554D01*
X102690878Y-79411612D01*
X102671936Y-79396066D01*
X102650325Y-79384515D01*
X102549534Y-79342766D01*
X102393770Y-79238688D01*
X102261312Y-79106230D01*
X102157234Y-78950466D01*
X102085546Y-78777396D01*
X102049000Y-78593667D01*
X102049000Y-78406333D01*
X102085546Y-78222604D01*
X102157234Y-78049534D01*
X102261312Y-77893770D01*
X102393770Y-77761312D01*
X102549534Y-77657234D01*
X102722604Y-77585546D01*
X102906333Y-77549000D01*
X103093667Y-77549000D01*
X103277396Y-77585546D01*
X103277396Y-77585546D01*
G37*
G36*
X109527396Y-75585546D02*
X109700466Y-75657234D01*
X109856230Y-75761312D01*
X109988688Y-75893770D01*
X110092766Y-76049534D01*
X110164454Y-76222604D01*
X110201000Y-76406333D01*
X110201000Y-76593667D01*
X110164454Y-76777396D01*
X110092766Y-76950466D01*
X109988688Y-77106230D01*
X109856230Y-77238688D01*
X109700466Y-77342766D01*
X109527396Y-77414454D01*
X109343667Y-77451000D01*
X109156333Y-77451000D01*
X108972604Y-77414454D01*
X108799534Y-77342766D01*
X108643770Y-77238688D01*
X108511312Y-77106230D01*
X108407234Y-76950466D01*
X108335546Y-76777396D01*
X108299000Y-76593667D01*
X108299000Y-76406333D01*
X108335546Y-76222604D01*
X108407234Y-76049534D01*
X108511312Y-75893770D01*
X108643770Y-75761312D01*
X108799534Y-75657234D01*
X108972604Y-75585546D01*
X109156333Y-75549000D01*
X109343667Y-75549000D01*
X109527396Y-75585546D01*
X109527396Y-75585546D01*
G37*
G36*
X97027396Y-75585546D02*
X97200466Y-75657234D01*
X97356230Y-75761312D01*
X97488688Y-75893770D01*
X97592766Y-76049534D01*
X97664454Y-76222604D01*
X97701000Y-76406333D01*
X97701000Y-76593667D01*
X97664454Y-76777396D01*
X97592766Y-76950466D01*
X97488688Y-77106230D01*
X97356230Y-77238688D01*
X97200466Y-77342766D01*
X97027396Y-77414454D01*
X96843667Y-77451000D01*
X96656333Y-77451000D01*
X96472604Y-77414454D01*
X96299534Y-77342766D01*
X96143770Y-77238688D01*
X96011312Y-77106230D01*
X95907234Y-76950466D01*
X95835546Y-76777396D01*
X95799000Y-76593667D01*
X95799000Y-76406333D01*
X95835546Y-76222604D01*
X95907234Y-76049534D01*
X96011312Y-75893770D01*
X96143770Y-75761312D01*
X96299534Y-75657234D01*
X96472604Y-75585546D01*
X96656333Y-75549000D01*
X96843667Y-75549000D01*
X97027396Y-75585546D01*
X97027396Y-75585546D01*
G37*
G36*
X104129591Y-75478085D02*
X104163569Y-75488393D01*
X104194887Y-75505133D01*
X104222339Y-75527661D01*
X104244867Y-75555113D01*
X104261607Y-75586431D01*
X104271915Y-75620409D01*
X104276000Y-75661890D01*
X104276000Y-76338110D01*
X104271915Y-76379591D01*
X104261607Y-76413569D01*
X104244867Y-76444887D01*
X104222339Y-76472339D01*
X104194887Y-76494867D01*
X104163569Y-76511607D01*
X104129591Y-76521915D01*
X104088110Y-76526000D01*
X103486890Y-76526000D01*
X103445409Y-76521915D01*
X103411431Y-76511607D01*
X103380113Y-76494867D01*
X103352661Y-76472339D01*
X103330133Y-76444887D01*
X103313393Y-76413569D01*
X103303085Y-76379591D01*
X103299000Y-76338110D01*
X103299000Y-75661890D01*
X103303085Y-75620409D01*
X103313393Y-75586431D01*
X103330133Y-75555113D01*
X103352661Y-75527661D01*
X103380113Y-75505133D01*
X103411431Y-75488393D01*
X103445409Y-75478085D01*
X103486890Y-75474000D01*
X104088110Y-75474000D01*
X104129591Y-75478085D01*
X104129591Y-75478085D01*
G37*
G36*
X102554591Y-75478085D02*
X102588569Y-75488393D01*
X102619887Y-75505133D01*
X102647339Y-75527661D01*
X102669867Y-75555113D01*
X102686607Y-75586431D01*
X102696915Y-75620409D01*
X102701000Y-75661890D01*
X102701000Y-76338110D01*
X102696915Y-76379591D01*
X102686607Y-76413569D01*
X102669867Y-76444887D01*
X102647339Y-76472339D01*
X102619887Y-76494867D01*
X102588569Y-76511607D01*
X102554591Y-76521915D01*
X102513110Y-76526000D01*
X101911890Y-76526000D01*
X101870409Y-76521915D01*
X101836431Y-76511607D01*
X101805113Y-76494867D01*
X101777661Y-76472339D01*
X101755133Y-76444887D01*
X101738393Y-76413569D01*
X101728085Y-76379591D01*
X101724000Y-76338110D01*
X101724000Y-75661890D01*
X101728085Y-75620409D01*
X101738393Y-75586431D01*
X101755133Y-75555113D01*
X101777661Y-75527661D01*
X101805113Y-75505133D01*
X101836431Y-75488393D01*
X101870409Y-75478085D01*
X101911890Y-75474000D01*
X102513110Y-75474000D01*
X102554591Y-75478085D01*
X102554591Y-75478085D01*
G37*
G36*
X102554591Y-73478085D02*
X102588569Y-73488393D01*
X102619887Y-73505133D01*
X102647339Y-73527661D01*
X102669867Y-73555113D01*
X102686607Y-73586431D01*
X102696915Y-73620409D01*
X102701000Y-73661890D01*
X102701000Y-74338110D01*
X102696915Y-74379591D01*
X102686607Y-74413569D01*
X102669867Y-74444887D01*
X102647339Y-74472339D01*
X102619887Y-74494867D01*
X102588569Y-74511607D01*
X102554591Y-74521915D01*
X102513110Y-74526000D01*
X101911890Y-74526000D01*
X101870409Y-74521915D01*
X101836431Y-74511607D01*
X101805113Y-74494867D01*
X101777661Y-74472339D01*
X101755133Y-74444887D01*
X101738393Y-74413569D01*
X101728085Y-74379591D01*
X101724000Y-74338110D01*
X101724000Y-73661890D01*
X101728085Y-73620409D01*
X101738393Y-73586431D01*
X101755133Y-73555113D01*
X101777661Y-73527661D01*
X101805113Y-73505133D01*
X101836431Y-73488393D01*
X101870409Y-73478085D01*
X101911890Y-73474000D01*
X102513110Y-73474000D01*
X102554591Y-73478085D01*
X102554591Y-73478085D01*
G37*
G36*
X104129591Y-73478085D02*
X104163569Y-73488393D01*
X104194887Y-73505133D01*
X104222339Y-73527661D01*
X104244867Y-73555113D01*
X104261607Y-73586431D01*
X104271915Y-73620409D01*
X104276000Y-73661890D01*
X104276000Y-74338110D01*
X104271915Y-74379591D01*
X104261607Y-74413569D01*
X104244867Y-74444887D01*
X104222339Y-74472339D01*
X104194887Y-74494867D01*
X104163569Y-74511607D01*
X104129591Y-74521915D01*
X104088110Y-74526000D01*
X103486890Y-74526000D01*
X103445409Y-74521915D01*
X103411431Y-74511607D01*
X103380113Y-74494867D01*
X103352661Y-74472339D01*
X103330133Y-74444887D01*
X103313393Y-74413569D01*
X103303085Y-74379591D01*
X103299000Y-74338110D01*
X103299000Y-73661890D01*
X103303085Y-73620409D01*
X103313393Y-73586431D01*
X103330133Y-73555113D01*
X103352661Y-73527661D01*
X103380113Y-73505133D01*
X103411431Y-73488393D01*
X103445409Y-73478085D01*
X103486890Y-73474000D01*
X104088110Y-73474000D01*
X104129591Y-73478085D01*
X104129591Y-73478085D01*
G37*
G36*
X104129591Y-71478085D02*
X104163569Y-71488393D01*
X104194887Y-71505133D01*
X104222339Y-71527661D01*
X104244867Y-71555113D01*
X104261607Y-71586431D01*
X104271915Y-71620409D01*
X104276000Y-71661890D01*
X104276000Y-72338110D01*
X104271915Y-72379591D01*
X104261607Y-72413569D01*
X104244867Y-72444887D01*
X104222339Y-72472339D01*
X104194887Y-72494867D01*
X104163569Y-72511607D01*
X104129591Y-72521915D01*
X104088110Y-72526000D01*
X103486890Y-72526000D01*
X103445409Y-72521915D01*
X103411431Y-72511607D01*
X103380113Y-72494867D01*
X103352661Y-72472339D01*
X103330133Y-72444887D01*
X103313393Y-72413569D01*
X103303085Y-72379591D01*
X103299000Y-72338110D01*
X103299000Y-71661890D01*
X103303085Y-71620409D01*
X103313393Y-71586431D01*
X103330133Y-71555113D01*
X103352661Y-71527661D01*
X103380113Y-71505133D01*
X103411431Y-71488393D01*
X103445409Y-71478085D01*
X103486890Y-71474000D01*
X104088110Y-71474000D01*
X104129591Y-71478085D01*
X104129591Y-71478085D01*
G37*
G36*
X102554591Y-71478085D02*
X102588569Y-71488393D01*
X102619887Y-71505133D01*
X102647339Y-71527661D01*
X102669867Y-71555113D01*
X102686607Y-71586431D01*
X102696915Y-71620409D01*
X102701000Y-71661890D01*
X102701000Y-72338110D01*
X102696915Y-72379591D01*
X102686607Y-72413569D01*
X102669867Y-72444887D01*
X102647339Y-72472339D01*
X102619887Y-72494867D01*
X102588569Y-72511607D01*
X102554591Y-72521915D01*
X102513110Y-72526000D01*
X101911890Y-72526000D01*
X101870409Y-72521915D01*
X101836431Y-72511607D01*
X101805113Y-72494867D01*
X101777661Y-72472339D01*
X101755133Y-72444887D01*
X101738393Y-72413569D01*
X101728085Y-72379591D01*
X101724000Y-72338110D01*
X101724000Y-71661890D01*
X101728085Y-71620409D01*
X101738393Y-71586431D01*
X101755133Y-71555113D01*
X101777661Y-71527661D01*
X101805113Y-71505133D01*
X101836431Y-71488393D01*
X101870409Y-71478085D01*
X101911890Y-71474000D01*
X102513110Y-71474000D01*
X102554591Y-71478085D01*
X102554591Y-71478085D01*
G37*
G36*
X97027396Y-70585546D02*
X97200466Y-70657234D01*
X97356230Y-70761312D01*
X97488688Y-70893770D01*
X97592766Y-71049534D01*
X97664454Y-71222604D01*
X97701000Y-71406333D01*
X97701000Y-71593667D01*
X97664454Y-71777396D01*
X97592766Y-71950466D01*
X97488688Y-72106230D01*
X97356230Y-72238688D01*
X97200466Y-72342766D01*
X97027396Y-72414454D01*
X96843667Y-72451000D01*
X96656333Y-72451000D01*
X96472604Y-72414454D01*
X96299534Y-72342766D01*
X96143770Y-72238688D01*
X96011312Y-72106230D01*
X95907234Y-71950466D01*
X95835546Y-71777396D01*
X95799000Y-71593667D01*
X95799000Y-71406333D01*
X95835546Y-71222604D01*
X95907234Y-71049534D01*
X96011312Y-70893770D01*
X96143770Y-70761312D01*
X96299534Y-70657234D01*
X96472604Y-70585546D01*
X96656333Y-70549000D01*
X96843667Y-70549000D01*
X97027396Y-70585546D01*
X97027396Y-70585546D01*
G37*
G36*
X109527396Y-70585546D02*
X109700466Y-70657234D01*
X109856230Y-70761312D01*
X109988688Y-70893770D01*
X110092766Y-71049534D01*
X110164454Y-71222604D01*
X110201000Y-71406333D01*
X110201000Y-71593667D01*
X110164454Y-71777396D01*
X110092766Y-71950466D01*
X109988688Y-72106230D01*
X109856230Y-72238688D01*
X109700466Y-72342766D01*
X109527396Y-72414454D01*
X109343667Y-72451000D01*
X109156333Y-72451000D01*
X108972604Y-72414454D01*
X108799534Y-72342766D01*
X108643770Y-72238688D01*
X108511312Y-72106230D01*
X108407234Y-71950466D01*
X108335546Y-71777396D01*
X108299000Y-71593667D01*
X108299000Y-71406333D01*
X108335546Y-71222604D01*
X108407234Y-71049534D01*
X108511312Y-70893770D01*
X108643770Y-70761312D01*
X108799534Y-70657234D01*
X108972604Y-70585546D01*
X109156333Y-70549000D01*
X109343667Y-70549000D01*
X109527396Y-70585546D01*
X109527396Y-70585546D01*
G37*
G36*
X103277396Y-66585546D02*
X103450466Y-66657234D01*
X103606230Y-66761312D01*
X103738688Y-66893770D01*
X103842766Y-67049534D01*
X103914454Y-67222604D01*
X103951000Y-67406333D01*
X103951000Y-67593667D01*
X103914454Y-67777396D01*
X103842766Y-67950466D01*
X103738688Y-68106230D01*
X103606230Y-68238688D01*
X103450466Y-68342766D01*
X103349675Y-68384515D01*
X103328064Y-68396066D01*
X103309122Y-68411612D01*
X103293576Y-68430554D01*
X103282025Y-68452164D01*
X103274912Y-68475614D01*
X103272510Y-68500000D01*
X103274912Y-68524386D01*
X103282025Y-68547835D01*
X103293576Y-68569446D01*
X103309122Y-68588388D01*
X103328064Y-68603934D01*
X103349675Y-68615485D01*
X103450466Y-68657234D01*
X103606230Y-68761312D01*
X103738688Y-68893770D01*
X103842766Y-69049534D01*
X103914454Y-69222604D01*
X103951000Y-69406333D01*
X103951000Y-69593667D01*
X103914454Y-69777396D01*
X103842766Y-69950466D01*
X103738688Y-70106230D01*
X103606230Y-70238688D01*
X103450466Y-70342766D01*
X103277396Y-70414454D01*
X103093667Y-70451000D01*
X102906333Y-70451000D01*
X102722604Y-70414454D01*
X102549534Y-70342766D01*
X102393770Y-70238688D01*
X102261312Y-70106230D01*
X102157234Y-69950466D01*
X102085546Y-69777396D01*
X102049000Y-69593667D01*
X102049000Y-69406333D01*
X102085546Y-69222604D01*
X102157234Y-69049534D01*
X102261312Y-68893770D01*
X102393770Y-68761312D01*
X102549534Y-68657234D01*
X102650325Y-68615485D01*
X102671936Y-68603934D01*
X102690878Y-68588388D01*
X102706424Y-68569446D01*
X102717975Y-68547836D01*
X102725088Y-68524386D01*
X102727490Y-68500000D01*
X102725088Y-68475614D01*
X102717975Y-68452165D01*
X102706424Y-68430554D01*
X102690878Y-68411612D01*
X102671936Y-68396066D01*
X102650325Y-68384515D01*
X102549534Y-68342766D01*
X102393770Y-68238688D01*
X102261312Y-68106230D01*
X102157234Y-67950466D01*
X102085546Y-67777396D01*
X102049000Y-67593667D01*
X102049000Y-67406333D01*
X102085546Y-67222604D01*
X102157234Y-67049534D01*
X102261312Y-66893770D01*
X102393770Y-66761312D01*
X102549534Y-66657234D01*
X102722604Y-66585546D01*
X102906333Y-66549000D01*
X103093667Y-66549000D01*
X103277396Y-66585546D01*
X103277396Y-66585546D01*
G37*
G36*
X103277396Y-61585546D02*
X103450466Y-61657234D01*
X103606230Y-61761312D01*
X103738688Y-61893770D01*
X103842766Y-62049534D01*
X103914454Y-62222604D01*
X103951000Y-62406333D01*
X103951000Y-62593667D01*
X103914454Y-62777396D01*
X103842766Y-62950466D01*
X103738688Y-63106230D01*
X103606230Y-63238688D01*
X103450466Y-63342766D01*
X103349675Y-63384515D01*
X103328064Y-63396066D01*
X103309122Y-63411612D01*
X103293576Y-63430554D01*
X103282025Y-63452164D01*
X103274912Y-63475614D01*
X103272510Y-63500000D01*
X103274912Y-63524386D01*
X103282025Y-63547835D01*
X103293576Y-63569446D01*
X103309122Y-63588388D01*
X103328064Y-63603934D01*
X103349675Y-63615485D01*
X103450466Y-63657234D01*
X103606230Y-63761312D01*
X103738688Y-63893770D01*
X103842766Y-64049534D01*
X103914454Y-64222604D01*
X103951000Y-64406333D01*
X103951000Y-64593667D01*
X103914454Y-64777396D01*
X103842766Y-64950466D01*
X103738688Y-65106230D01*
X103606230Y-65238688D01*
X103450466Y-65342766D01*
X103277396Y-65414454D01*
X103093667Y-65451000D01*
X102906333Y-65451000D01*
X102722604Y-65414454D01*
X102549534Y-65342766D01*
X102393770Y-65238688D01*
X102261312Y-65106230D01*
X102157234Y-64950466D01*
X102085546Y-64777396D01*
X102049000Y-64593667D01*
X102049000Y-64406333D01*
X102085546Y-64222604D01*
X102157234Y-64049534D01*
X102261312Y-63893770D01*
X102393770Y-63761312D01*
X102549534Y-63657234D01*
X102650325Y-63615485D01*
X102671936Y-63603934D01*
X102690878Y-63588388D01*
X102706424Y-63569446D01*
X102717975Y-63547836D01*
X102725088Y-63524386D01*
X102727490Y-63500000D01*
X102725088Y-63475614D01*
X102717975Y-63452165D01*
X102706424Y-63430554D01*
X102690878Y-63411612D01*
X102671936Y-63396066D01*
X102650325Y-63384515D01*
X102549534Y-63342766D01*
X102393770Y-63238688D01*
X102261312Y-63106230D01*
X102157234Y-62950466D01*
X102085546Y-62777396D01*
X102049000Y-62593667D01*
X102049000Y-62406333D01*
X102085546Y-62222604D01*
X102157234Y-62049534D01*
X102261312Y-61893770D01*
X102393770Y-61761312D01*
X102549534Y-61657234D01*
X102722604Y-61585546D01*
X102906333Y-61549000D01*
X103093667Y-61549000D01*
X103277396Y-61585546D01*
X103277396Y-61585546D01*
G37*
G36*
X109527396Y-59585546D02*
X109700466Y-59657234D01*
X109856230Y-59761312D01*
X109988688Y-59893770D01*
X110092766Y-60049534D01*
X110164454Y-60222604D01*
X110201000Y-60406333D01*
X110201000Y-60593667D01*
X110164454Y-60777396D01*
X110092766Y-60950466D01*
X109988688Y-61106230D01*
X109856230Y-61238688D01*
X109700466Y-61342766D01*
X109527396Y-61414454D01*
X109343667Y-61451000D01*
X109156333Y-61451000D01*
X108972604Y-61414454D01*
X108799534Y-61342766D01*
X108643770Y-61238688D01*
X108511312Y-61106230D01*
X108407234Y-60950466D01*
X108335546Y-60777396D01*
X108299000Y-60593667D01*
X108299000Y-60406333D01*
X108335546Y-60222604D01*
X108407234Y-60049534D01*
X108511312Y-59893770D01*
X108643770Y-59761312D01*
X108799534Y-59657234D01*
X108972604Y-59585546D01*
X109156333Y-59549000D01*
X109343667Y-59549000D01*
X109527396Y-59585546D01*
X109527396Y-59585546D01*
G37*
G36*
X97027396Y-59585546D02*
X97200466Y-59657234D01*
X97356230Y-59761312D01*
X97488688Y-59893770D01*
X97592766Y-60049534D01*
X97664454Y-60222604D01*
X97701000Y-60406333D01*
X97701000Y-60593667D01*
X97664454Y-60777396D01*
X97592766Y-60950466D01*
X97488688Y-61106230D01*
X97356230Y-61238688D01*
X97200466Y-61342766D01*
X97027396Y-61414454D01*
X96843667Y-61451000D01*
X96656333Y-61451000D01*
X96472604Y-61414454D01*
X96299534Y-61342766D01*
X96143770Y-61238688D01*
X96011312Y-61106230D01*
X95907234Y-60950466D01*
X95835546Y-60777396D01*
X95799000Y-60593667D01*
X95799000Y-60406333D01*
X95835546Y-60222604D01*
X95907234Y-60049534D01*
X96011312Y-59893770D01*
X96143770Y-59761312D01*
X96299534Y-59657234D01*
X96472604Y-59585546D01*
X96656333Y-59549000D01*
X96843667Y-59549000D01*
X97027396Y-59585546D01*
X97027396Y-59585546D01*
G37*
G36*
X104129591Y-59478085D02*
X104163569Y-59488393D01*
X104194887Y-59505133D01*
X104222339Y-59527661D01*
X104244867Y-59555113D01*
X104261607Y-59586431D01*
X104271915Y-59620409D01*
X104276000Y-59661890D01*
X104276000Y-60338110D01*
X104271915Y-60379591D01*
X104261607Y-60413569D01*
X104244867Y-60444887D01*
X104222339Y-60472339D01*
X104194887Y-60494867D01*
X104163569Y-60511607D01*
X104129591Y-60521915D01*
X104088110Y-60526000D01*
X103486890Y-60526000D01*
X103445409Y-60521915D01*
X103411431Y-60511607D01*
X103380113Y-60494867D01*
X103352661Y-60472339D01*
X103330133Y-60444887D01*
X103313393Y-60413569D01*
X103303085Y-60379591D01*
X103299000Y-60338110D01*
X103299000Y-59661890D01*
X103303085Y-59620409D01*
X103313393Y-59586431D01*
X103330133Y-59555113D01*
X103352661Y-59527661D01*
X103380113Y-59505133D01*
X103411431Y-59488393D01*
X103445409Y-59478085D01*
X103486890Y-59474000D01*
X104088110Y-59474000D01*
X104129591Y-59478085D01*
X104129591Y-59478085D01*
G37*
G36*
X102554591Y-59478085D02*
X102588569Y-59488393D01*
X102619887Y-59505133D01*
X102647339Y-59527661D01*
X102669867Y-59555113D01*
X102686607Y-59586431D01*
X102696915Y-59620409D01*
X102701000Y-59661890D01*
X102701000Y-60338110D01*
X102696915Y-60379591D01*
X102686607Y-60413569D01*
X102669867Y-60444887D01*
X102647339Y-60472339D01*
X102619887Y-60494867D01*
X102588569Y-60511607D01*
X102554591Y-60521915D01*
X102513110Y-60526000D01*
X101911890Y-60526000D01*
X101870409Y-60521915D01*
X101836431Y-60511607D01*
X101805113Y-60494867D01*
X101777661Y-60472339D01*
X101755133Y-60444887D01*
X101738393Y-60413569D01*
X101728085Y-60379591D01*
X101724000Y-60338110D01*
X101724000Y-59661890D01*
X101728085Y-59620409D01*
X101738393Y-59586431D01*
X101755133Y-59555113D01*
X101777661Y-59527661D01*
X101805113Y-59505133D01*
X101836431Y-59488393D01*
X101870409Y-59478085D01*
X101911890Y-59474000D01*
X102513110Y-59474000D01*
X102554591Y-59478085D01*
X102554591Y-59478085D01*
G37*
G36*
X104129591Y-57478085D02*
X104163569Y-57488393D01*
X104194887Y-57505133D01*
X104222339Y-57527661D01*
X104244867Y-57555113D01*
X104261607Y-57586431D01*
X104271915Y-57620409D01*
X104276000Y-57661890D01*
X104276000Y-58338110D01*
X104271915Y-58379591D01*
X104261607Y-58413569D01*
X104244867Y-58444887D01*
X104222339Y-58472339D01*
X104194887Y-58494867D01*
X104163569Y-58511607D01*
X104129591Y-58521915D01*
X104088110Y-58526000D01*
X103486890Y-58526000D01*
X103445409Y-58521915D01*
X103411431Y-58511607D01*
X103380113Y-58494867D01*
X103352661Y-58472339D01*
X103330133Y-58444887D01*
X103313393Y-58413569D01*
X103303085Y-58379591D01*
X103299000Y-58338110D01*
X103299000Y-57661890D01*
X103303085Y-57620409D01*
X103313393Y-57586431D01*
X103330133Y-57555113D01*
X103352661Y-57527661D01*
X103380113Y-57505133D01*
X103411431Y-57488393D01*
X103445409Y-57478085D01*
X103486890Y-57474000D01*
X104088110Y-57474000D01*
X104129591Y-57478085D01*
X104129591Y-57478085D01*
G37*
G36*
X102554591Y-57478085D02*
X102588569Y-57488393D01*
X102619887Y-57505133D01*
X102647339Y-57527661D01*
X102669867Y-57555113D01*
X102686607Y-57586431D01*
X102696915Y-57620409D01*
X102701000Y-57661890D01*
X102701000Y-58338110D01*
X102696915Y-58379591D01*
X102686607Y-58413569D01*
X102669867Y-58444887D01*
X102647339Y-58472339D01*
X102619887Y-58494867D01*
X102588569Y-58511607D01*
X102554591Y-58521915D01*
X102513110Y-58526000D01*
X101911890Y-58526000D01*
X101870409Y-58521915D01*
X101836431Y-58511607D01*
X101805113Y-58494867D01*
X101777661Y-58472339D01*
X101755133Y-58444887D01*
X101738393Y-58413569D01*
X101728085Y-58379591D01*
X101724000Y-58338110D01*
X101724000Y-57661890D01*
X101728085Y-57620409D01*
X101738393Y-57586431D01*
X101755133Y-57555113D01*
X101777661Y-57527661D01*
X101805113Y-57505133D01*
X101836431Y-57488393D01*
X101870409Y-57478085D01*
X101911890Y-57474000D01*
X102513110Y-57474000D01*
X102554591Y-57478085D01*
X102554591Y-57478085D01*
G37*
G36*
X104129591Y-55478085D02*
X104163569Y-55488393D01*
X104194887Y-55505133D01*
X104222339Y-55527661D01*
X104244867Y-55555113D01*
X104261607Y-55586431D01*
X104271915Y-55620409D01*
X104276000Y-55661890D01*
X104276000Y-56338110D01*
X104271915Y-56379591D01*
X104261607Y-56413569D01*
X104244867Y-56444887D01*
X104222339Y-56472339D01*
X104194887Y-56494867D01*
X104163569Y-56511607D01*
X104129591Y-56521915D01*
X104088110Y-56526000D01*
X103486890Y-56526000D01*
X103445409Y-56521915D01*
X103411431Y-56511607D01*
X103380113Y-56494867D01*
X103352661Y-56472339D01*
X103330133Y-56444887D01*
X103313393Y-56413569D01*
X103303085Y-56379591D01*
X103299000Y-56338110D01*
X103299000Y-55661890D01*
X103303085Y-55620409D01*
X103313393Y-55586431D01*
X103330133Y-55555113D01*
X103352661Y-55527661D01*
X103380113Y-55505133D01*
X103411431Y-55488393D01*
X103445409Y-55478085D01*
X103486890Y-55474000D01*
X104088110Y-55474000D01*
X104129591Y-55478085D01*
X104129591Y-55478085D01*
G37*
G36*
X102554591Y-55478085D02*
X102588569Y-55488393D01*
X102619887Y-55505133D01*
X102647339Y-55527661D01*
X102669867Y-55555113D01*
X102686607Y-55586431D01*
X102696915Y-55620409D01*
X102701000Y-55661890D01*
X102701000Y-56338110D01*
X102696915Y-56379591D01*
X102686607Y-56413569D01*
X102669867Y-56444887D01*
X102647339Y-56472339D01*
X102619887Y-56494867D01*
X102588569Y-56511607D01*
X102554591Y-56521915D01*
X102513110Y-56526000D01*
X101911890Y-56526000D01*
X101870409Y-56521915D01*
X101836431Y-56511607D01*
X101805113Y-56494867D01*
X101777661Y-56472339D01*
X101755133Y-56444887D01*
X101738393Y-56413569D01*
X101728085Y-56379591D01*
X101724000Y-56338110D01*
X101724000Y-55661890D01*
X101728085Y-55620409D01*
X101738393Y-55586431D01*
X101755133Y-55555113D01*
X101777661Y-55527661D01*
X101805113Y-55505133D01*
X101836431Y-55488393D01*
X101870409Y-55478085D01*
X101911890Y-55474000D01*
X102513110Y-55474000D01*
X102554591Y-55478085D01*
X102554591Y-55478085D01*
G37*
G36*
X109527396Y-54585546D02*
X109700466Y-54657234D01*
X109856230Y-54761312D01*
X109988688Y-54893770D01*
X110092766Y-55049534D01*
X110164454Y-55222604D01*
X110201000Y-55406333D01*
X110201000Y-55593667D01*
X110164454Y-55777396D01*
X110092766Y-55950466D01*
X109988688Y-56106230D01*
X109856230Y-56238688D01*
X109700466Y-56342766D01*
X109527396Y-56414454D01*
X109343667Y-56451000D01*
X109156333Y-56451000D01*
X108972604Y-56414454D01*
X108799534Y-56342766D01*
X108643770Y-56238688D01*
X108511312Y-56106230D01*
X108407234Y-55950466D01*
X108335546Y-55777396D01*
X108299000Y-55593667D01*
X108299000Y-55406333D01*
X108335546Y-55222604D01*
X108407234Y-55049534D01*
X108511312Y-54893770D01*
X108643770Y-54761312D01*
X108799534Y-54657234D01*
X108972604Y-54585546D01*
X109156333Y-54549000D01*
X109343667Y-54549000D01*
X109527396Y-54585546D01*
X109527396Y-54585546D01*
G37*
G36*
X97027396Y-54585546D02*
X97200466Y-54657234D01*
X97356230Y-54761312D01*
X97488688Y-54893770D01*
X97592766Y-55049534D01*
X97664454Y-55222604D01*
X97701000Y-55406333D01*
X97701000Y-55593667D01*
X97664454Y-55777396D01*
X97592766Y-55950466D01*
X97488688Y-56106230D01*
X97356230Y-56238688D01*
X97200466Y-56342766D01*
X97027396Y-56414454D01*
X96843667Y-56451000D01*
X96656333Y-56451000D01*
X96472604Y-56414454D01*
X96299534Y-56342766D01*
X96143770Y-56238688D01*
X96011312Y-56106230D01*
X95907234Y-55950466D01*
X95835546Y-55777396D01*
X95799000Y-55593667D01*
X95799000Y-55406333D01*
X95835546Y-55222604D01*
X95907234Y-55049534D01*
X96011312Y-54893770D01*
X96143770Y-54761312D01*
X96299534Y-54657234D01*
X96472604Y-54585546D01*
X96656333Y-54549000D01*
X96843667Y-54549000D01*
X97027396Y-54585546D01*
X97027396Y-54585546D01*
G37*
G36*
X103277396Y-50585546D02*
X103450466Y-50657234D01*
X103606230Y-50761312D01*
X103738688Y-50893770D01*
X103842766Y-51049534D01*
X103914454Y-51222604D01*
X103951000Y-51406333D01*
X103951000Y-51593667D01*
X103914454Y-51777396D01*
X103842766Y-51950466D01*
X103738688Y-52106230D01*
X103606230Y-52238688D01*
X103450466Y-52342766D01*
X103349675Y-52384515D01*
X103328064Y-52396066D01*
X103309122Y-52411612D01*
X103293576Y-52430554D01*
X103282025Y-52452164D01*
X103274912Y-52475614D01*
X103272510Y-52500000D01*
X103274912Y-52524386D01*
X103282025Y-52547835D01*
X103293576Y-52569446D01*
X103309122Y-52588388D01*
X103328064Y-52603934D01*
X103349675Y-52615485D01*
X103450466Y-52657234D01*
X103606230Y-52761312D01*
X103738688Y-52893770D01*
X103842766Y-53049534D01*
X103914454Y-53222604D01*
X103951000Y-53406333D01*
X103951000Y-53593667D01*
X103914454Y-53777396D01*
X103842766Y-53950466D01*
X103738688Y-54106230D01*
X103606230Y-54238688D01*
X103450466Y-54342766D01*
X103277396Y-54414454D01*
X103093667Y-54451000D01*
X102906333Y-54451000D01*
X102722604Y-54414454D01*
X102549534Y-54342766D01*
X102393770Y-54238688D01*
X102261312Y-54106230D01*
X102157234Y-53950466D01*
X102085546Y-53777396D01*
X102049000Y-53593667D01*
X102049000Y-53406333D01*
X102085546Y-53222604D01*
X102157234Y-53049534D01*
X102261312Y-52893770D01*
X102393770Y-52761312D01*
X102549534Y-52657234D01*
X102650325Y-52615485D01*
X102671936Y-52603934D01*
X102690878Y-52588388D01*
X102706424Y-52569446D01*
X102717975Y-52547836D01*
X102725088Y-52524386D01*
X102727490Y-52500000D01*
X102725088Y-52475614D01*
X102717975Y-52452165D01*
X102706424Y-52430554D01*
X102690878Y-52411612D01*
X102671936Y-52396066D01*
X102650325Y-52384515D01*
X102549534Y-52342766D01*
X102393770Y-52238688D01*
X102261312Y-52106230D01*
X102157234Y-51950466D01*
X102085546Y-51777396D01*
X102049000Y-51593667D01*
X102049000Y-51406333D01*
X102085546Y-51222604D01*
X102157234Y-51049534D01*
X102261312Y-50893770D01*
X102393770Y-50761312D01*
X102549534Y-50657234D01*
X102722604Y-50585546D01*
X102906333Y-50549000D01*
X103093667Y-50549000D01*
X103277396Y-50585546D01*
X103277396Y-50585546D01*
G37*
G36*
X152247765Y-51754403D02*
X152370445Y-51778805D01*
X152601571Y-51874541D01*
X152809581Y-52013529D01*
X152986471Y-52190419D01*
X152986473Y-52190422D01*
X153125459Y-52398429D01*
X153221195Y-52629555D01*
X153270000Y-52874916D01*
X153270000Y-53125084D01*
X153221195Y-53370445D01*
X153128734Y-53593665D01*
X153125459Y-53601571D01*
X152986471Y-53809581D01*
X152809581Y-53986471D01*
X152809578Y-53986473D01*
X152601571Y-54125459D01*
X152370445Y-54221195D01*
X152282501Y-54238688D01*
X152125086Y-54270000D01*
X151874914Y-54270000D01*
X151717499Y-54238688D01*
X151629555Y-54221195D01*
X151398429Y-54125459D01*
X151190422Y-53986473D01*
X151190419Y-53986471D01*
X151013529Y-53809581D01*
X150874541Y-53601571D01*
X150871266Y-53593665D01*
X150778805Y-53370445D01*
X150730000Y-53125084D01*
X150730000Y-52874916D01*
X150778805Y-52629555D01*
X150874541Y-52398429D01*
X151013527Y-52190422D01*
X151013529Y-52190419D01*
X151190419Y-52013529D01*
X151398429Y-51874541D01*
X151629555Y-51778805D01*
X151752236Y-51754402D01*
X151874914Y-51730000D01*
X152125086Y-51730000D01*
X152247765Y-51754403D01*
X152247765Y-51754403D01*
G37*
G36*
X157375256Y-40391298D02*
X157481579Y-40412447D01*
X157782042Y-40536903D01*
X158048852Y-40715180D01*
X158052454Y-40717587D01*
X158282413Y-40947546D01*
X158463098Y-41217960D01*
X158587553Y-41518422D01*
X158651000Y-41837389D01*
X158651000Y-42162611D01*
X158587553Y-42481578D01*
X158463098Y-42782040D01*
X158282413Y-43052454D01*
X158052454Y-43282413D01*
X158052451Y-43282415D01*
X157782042Y-43463097D01*
X157481579Y-43587553D01*
X157375256Y-43608702D01*
X157162611Y-43651000D01*
X156837389Y-43651000D01*
X156624744Y-43608702D01*
X156518421Y-43587553D01*
X156217958Y-43463097D01*
X155947549Y-43282415D01*
X155947546Y-43282413D01*
X155717587Y-43052454D01*
X155536902Y-42782040D01*
X155412447Y-42481578D01*
X155349000Y-42162611D01*
X155349000Y-41837389D01*
X155412447Y-41518422D01*
X155536902Y-41217960D01*
X155717587Y-40947546D01*
X155947546Y-40717587D01*
X155951148Y-40715180D01*
X156217958Y-40536903D01*
X156518421Y-40412447D01*
X156624744Y-40391298D01*
X156837389Y-40349000D01*
X157162611Y-40349000D01*
X157375256Y-40391298D01*
X157375256Y-40391298D01*
G37*
G36*
X93375256Y-40391298D02*
X93481579Y-40412447D01*
X93782042Y-40536903D01*
X94048852Y-40715180D01*
X94052454Y-40717587D01*
X94282413Y-40947546D01*
X94463098Y-41217960D01*
X94587553Y-41518422D01*
X94651000Y-41837389D01*
X94651000Y-42162611D01*
X94587553Y-42481578D01*
X94463098Y-42782040D01*
X94282413Y-43052454D01*
X94052454Y-43282413D01*
X94052451Y-43282415D01*
X93782042Y-43463097D01*
X93481579Y-43587553D01*
X93375256Y-43608702D01*
X93162611Y-43651000D01*
X92837389Y-43651000D01*
X92624744Y-43608702D01*
X92518421Y-43587553D01*
X92217958Y-43463097D01*
X91947549Y-43282415D01*
X91947546Y-43282413D01*
X91717587Y-43052454D01*
X91536902Y-42782040D01*
X91412447Y-42481578D01*
X91349000Y-42162611D01*
X91349000Y-41837389D01*
X91412447Y-41518422D01*
X91536902Y-41217960D01*
X91717587Y-40947546D01*
X91947546Y-40717587D01*
X91951148Y-40715180D01*
X92217958Y-40536903D01*
X92518421Y-40412447D01*
X92624744Y-40391298D01*
X92837389Y-40349000D01*
X93162611Y-40349000D01*
X93375256Y-40391298D01*
X93375256Y-40391298D01*
G37*
M02*
