G04 #@! TF.GenerationSoftware,KiCad,Pcbnew,(5.0.1-3-g963ef8bb5)*
G04 #@! TF.CreationDate,2019-06-03T16:35:54+02:00*
G04 #@! TF.ProjectId,foodSampler_v10,666F6F6453616D706C65725F7631302E,rev?*
G04 #@! TF.SameCoordinates,Original*
G04 #@! TF.FileFunction,Paste,Bot*
G04 #@! TF.FilePolarity,Positive*
%FSLAX46Y46*%
G04 Gerber Fmt 4.6, Leading zero omitted, Abs format (unit mm)*
G04 Created by KiCad (PCBNEW (5.0.1-3-g963ef8bb5)) date 2019 June 03, Monday 16:35:54*
%MOMM*%
%LPD*%
G01*
G04 APERTURE LIST*
%ADD10R,2.510000X1.000000*%
%ADD11C,0.100000*%
%ADD12C,0.875000*%
%ADD13R,0.600000X1.550000*%
%ADD14C,1.250000*%
%ADD15R,2.300000X4.300000*%
%ADD16R,0.800000X0.900000*%
G04 APERTURE END LIST*
D10*
G04 #@! TO.C,J00*
X113300000Y-157180000D03*
X113300000Y-152100000D03*
X113300000Y-147020000D03*
X113300000Y-141940000D03*
X113300000Y-136860000D03*
X113300000Y-131780000D03*
X113300000Y-126700000D03*
X113300000Y-121620000D03*
X116610000Y-154640000D03*
X116610000Y-149560000D03*
X116610000Y-144480000D03*
X116610000Y-139400000D03*
X116610000Y-134320000D03*
X116610000Y-129240000D03*
X116610000Y-124160000D03*
X116610000Y-119080000D03*
G04 #@! TD*
D11*
G04 #@! TO.C,C10*
G36*
X102452691Y-57526053D02*
X102473926Y-57529203D01*
X102494750Y-57534419D01*
X102514962Y-57541651D01*
X102534368Y-57550830D01*
X102552781Y-57561866D01*
X102570024Y-57574654D01*
X102585930Y-57589070D01*
X102600346Y-57604976D01*
X102613134Y-57622219D01*
X102624170Y-57640632D01*
X102633349Y-57660038D01*
X102640581Y-57680250D01*
X102645797Y-57701074D01*
X102648947Y-57722309D01*
X102650000Y-57743750D01*
X102650000Y-58256250D01*
X102648947Y-58277691D01*
X102645797Y-58298926D01*
X102640581Y-58319750D01*
X102633349Y-58339962D01*
X102624170Y-58359368D01*
X102613134Y-58377781D01*
X102600346Y-58395024D01*
X102585930Y-58410930D01*
X102570024Y-58425346D01*
X102552781Y-58438134D01*
X102534368Y-58449170D01*
X102514962Y-58458349D01*
X102494750Y-58465581D01*
X102473926Y-58470797D01*
X102452691Y-58473947D01*
X102431250Y-58475000D01*
X101993750Y-58475000D01*
X101972309Y-58473947D01*
X101951074Y-58470797D01*
X101930250Y-58465581D01*
X101910038Y-58458349D01*
X101890632Y-58449170D01*
X101872219Y-58438134D01*
X101854976Y-58425346D01*
X101839070Y-58410930D01*
X101824654Y-58395024D01*
X101811866Y-58377781D01*
X101800830Y-58359368D01*
X101791651Y-58339962D01*
X101784419Y-58319750D01*
X101779203Y-58298926D01*
X101776053Y-58277691D01*
X101775000Y-58256250D01*
X101775000Y-57743750D01*
X101776053Y-57722309D01*
X101779203Y-57701074D01*
X101784419Y-57680250D01*
X101791651Y-57660038D01*
X101800830Y-57640632D01*
X101811866Y-57622219D01*
X101824654Y-57604976D01*
X101839070Y-57589070D01*
X101854976Y-57574654D01*
X101872219Y-57561866D01*
X101890632Y-57550830D01*
X101910038Y-57541651D01*
X101930250Y-57534419D01*
X101951074Y-57529203D01*
X101972309Y-57526053D01*
X101993750Y-57525000D01*
X102431250Y-57525000D01*
X102452691Y-57526053D01*
X102452691Y-57526053D01*
G37*
D12*
X102212500Y-58000000D03*
D11*
G36*
X104027691Y-57526053D02*
X104048926Y-57529203D01*
X104069750Y-57534419D01*
X104089962Y-57541651D01*
X104109368Y-57550830D01*
X104127781Y-57561866D01*
X104145024Y-57574654D01*
X104160930Y-57589070D01*
X104175346Y-57604976D01*
X104188134Y-57622219D01*
X104199170Y-57640632D01*
X104208349Y-57660038D01*
X104215581Y-57680250D01*
X104220797Y-57701074D01*
X104223947Y-57722309D01*
X104225000Y-57743750D01*
X104225000Y-58256250D01*
X104223947Y-58277691D01*
X104220797Y-58298926D01*
X104215581Y-58319750D01*
X104208349Y-58339962D01*
X104199170Y-58359368D01*
X104188134Y-58377781D01*
X104175346Y-58395024D01*
X104160930Y-58410930D01*
X104145024Y-58425346D01*
X104127781Y-58438134D01*
X104109368Y-58449170D01*
X104089962Y-58458349D01*
X104069750Y-58465581D01*
X104048926Y-58470797D01*
X104027691Y-58473947D01*
X104006250Y-58475000D01*
X103568750Y-58475000D01*
X103547309Y-58473947D01*
X103526074Y-58470797D01*
X103505250Y-58465581D01*
X103485038Y-58458349D01*
X103465632Y-58449170D01*
X103447219Y-58438134D01*
X103429976Y-58425346D01*
X103414070Y-58410930D01*
X103399654Y-58395024D01*
X103386866Y-58377781D01*
X103375830Y-58359368D01*
X103366651Y-58339962D01*
X103359419Y-58319750D01*
X103354203Y-58298926D01*
X103351053Y-58277691D01*
X103350000Y-58256250D01*
X103350000Y-57743750D01*
X103351053Y-57722309D01*
X103354203Y-57701074D01*
X103359419Y-57680250D01*
X103366651Y-57660038D01*
X103375830Y-57640632D01*
X103386866Y-57622219D01*
X103399654Y-57604976D01*
X103414070Y-57589070D01*
X103429976Y-57574654D01*
X103447219Y-57561866D01*
X103465632Y-57550830D01*
X103485038Y-57541651D01*
X103505250Y-57534419D01*
X103526074Y-57529203D01*
X103547309Y-57526053D01*
X103568750Y-57525000D01*
X104006250Y-57525000D01*
X104027691Y-57526053D01*
X104027691Y-57526053D01*
G37*
D12*
X103787500Y-58000000D03*
G04 #@! TD*
D11*
G04 #@! TO.C,R10*
G36*
X102452691Y-55526053D02*
X102473926Y-55529203D01*
X102494750Y-55534419D01*
X102514962Y-55541651D01*
X102534368Y-55550830D01*
X102552781Y-55561866D01*
X102570024Y-55574654D01*
X102585930Y-55589070D01*
X102600346Y-55604976D01*
X102613134Y-55622219D01*
X102624170Y-55640632D01*
X102633349Y-55660038D01*
X102640581Y-55680250D01*
X102645797Y-55701074D01*
X102648947Y-55722309D01*
X102650000Y-55743750D01*
X102650000Y-56256250D01*
X102648947Y-56277691D01*
X102645797Y-56298926D01*
X102640581Y-56319750D01*
X102633349Y-56339962D01*
X102624170Y-56359368D01*
X102613134Y-56377781D01*
X102600346Y-56395024D01*
X102585930Y-56410930D01*
X102570024Y-56425346D01*
X102552781Y-56438134D01*
X102534368Y-56449170D01*
X102514962Y-56458349D01*
X102494750Y-56465581D01*
X102473926Y-56470797D01*
X102452691Y-56473947D01*
X102431250Y-56475000D01*
X101993750Y-56475000D01*
X101972309Y-56473947D01*
X101951074Y-56470797D01*
X101930250Y-56465581D01*
X101910038Y-56458349D01*
X101890632Y-56449170D01*
X101872219Y-56438134D01*
X101854976Y-56425346D01*
X101839070Y-56410930D01*
X101824654Y-56395024D01*
X101811866Y-56377781D01*
X101800830Y-56359368D01*
X101791651Y-56339962D01*
X101784419Y-56319750D01*
X101779203Y-56298926D01*
X101776053Y-56277691D01*
X101775000Y-56256250D01*
X101775000Y-55743750D01*
X101776053Y-55722309D01*
X101779203Y-55701074D01*
X101784419Y-55680250D01*
X101791651Y-55660038D01*
X101800830Y-55640632D01*
X101811866Y-55622219D01*
X101824654Y-55604976D01*
X101839070Y-55589070D01*
X101854976Y-55574654D01*
X101872219Y-55561866D01*
X101890632Y-55550830D01*
X101910038Y-55541651D01*
X101930250Y-55534419D01*
X101951074Y-55529203D01*
X101972309Y-55526053D01*
X101993750Y-55525000D01*
X102431250Y-55525000D01*
X102452691Y-55526053D01*
X102452691Y-55526053D01*
G37*
D12*
X102212500Y-56000000D03*
D11*
G36*
X104027691Y-55526053D02*
X104048926Y-55529203D01*
X104069750Y-55534419D01*
X104089962Y-55541651D01*
X104109368Y-55550830D01*
X104127781Y-55561866D01*
X104145024Y-55574654D01*
X104160930Y-55589070D01*
X104175346Y-55604976D01*
X104188134Y-55622219D01*
X104199170Y-55640632D01*
X104208349Y-55660038D01*
X104215581Y-55680250D01*
X104220797Y-55701074D01*
X104223947Y-55722309D01*
X104225000Y-55743750D01*
X104225000Y-56256250D01*
X104223947Y-56277691D01*
X104220797Y-56298926D01*
X104215581Y-56319750D01*
X104208349Y-56339962D01*
X104199170Y-56359368D01*
X104188134Y-56377781D01*
X104175346Y-56395024D01*
X104160930Y-56410930D01*
X104145024Y-56425346D01*
X104127781Y-56438134D01*
X104109368Y-56449170D01*
X104089962Y-56458349D01*
X104069750Y-56465581D01*
X104048926Y-56470797D01*
X104027691Y-56473947D01*
X104006250Y-56475000D01*
X103568750Y-56475000D01*
X103547309Y-56473947D01*
X103526074Y-56470797D01*
X103505250Y-56465581D01*
X103485038Y-56458349D01*
X103465632Y-56449170D01*
X103447219Y-56438134D01*
X103429976Y-56425346D01*
X103414070Y-56410930D01*
X103399654Y-56395024D01*
X103386866Y-56377781D01*
X103375830Y-56359368D01*
X103366651Y-56339962D01*
X103359419Y-56319750D01*
X103354203Y-56298926D01*
X103351053Y-56277691D01*
X103350000Y-56256250D01*
X103350000Y-55743750D01*
X103351053Y-55722309D01*
X103354203Y-55701074D01*
X103359419Y-55680250D01*
X103366651Y-55660038D01*
X103375830Y-55640632D01*
X103386866Y-55622219D01*
X103399654Y-55604976D01*
X103414070Y-55589070D01*
X103429976Y-55574654D01*
X103447219Y-55561866D01*
X103465632Y-55550830D01*
X103485038Y-55541651D01*
X103505250Y-55534419D01*
X103526074Y-55529203D01*
X103547309Y-55526053D01*
X103568750Y-55525000D01*
X104006250Y-55525000D01*
X104027691Y-55526053D01*
X104027691Y-55526053D01*
G37*
D12*
X103787500Y-56000000D03*
G04 #@! TD*
D11*
G04 #@! TO.C,R11*
G36*
X102452691Y-59526053D02*
X102473926Y-59529203D01*
X102494750Y-59534419D01*
X102514962Y-59541651D01*
X102534368Y-59550830D01*
X102552781Y-59561866D01*
X102570024Y-59574654D01*
X102585930Y-59589070D01*
X102600346Y-59604976D01*
X102613134Y-59622219D01*
X102624170Y-59640632D01*
X102633349Y-59660038D01*
X102640581Y-59680250D01*
X102645797Y-59701074D01*
X102648947Y-59722309D01*
X102650000Y-59743750D01*
X102650000Y-60256250D01*
X102648947Y-60277691D01*
X102645797Y-60298926D01*
X102640581Y-60319750D01*
X102633349Y-60339962D01*
X102624170Y-60359368D01*
X102613134Y-60377781D01*
X102600346Y-60395024D01*
X102585930Y-60410930D01*
X102570024Y-60425346D01*
X102552781Y-60438134D01*
X102534368Y-60449170D01*
X102514962Y-60458349D01*
X102494750Y-60465581D01*
X102473926Y-60470797D01*
X102452691Y-60473947D01*
X102431250Y-60475000D01*
X101993750Y-60475000D01*
X101972309Y-60473947D01*
X101951074Y-60470797D01*
X101930250Y-60465581D01*
X101910038Y-60458349D01*
X101890632Y-60449170D01*
X101872219Y-60438134D01*
X101854976Y-60425346D01*
X101839070Y-60410930D01*
X101824654Y-60395024D01*
X101811866Y-60377781D01*
X101800830Y-60359368D01*
X101791651Y-60339962D01*
X101784419Y-60319750D01*
X101779203Y-60298926D01*
X101776053Y-60277691D01*
X101775000Y-60256250D01*
X101775000Y-59743750D01*
X101776053Y-59722309D01*
X101779203Y-59701074D01*
X101784419Y-59680250D01*
X101791651Y-59660038D01*
X101800830Y-59640632D01*
X101811866Y-59622219D01*
X101824654Y-59604976D01*
X101839070Y-59589070D01*
X101854976Y-59574654D01*
X101872219Y-59561866D01*
X101890632Y-59550830D01*
X101910038Y-59541651D01*
X101930250Y-59534419D01*
X101951074Y-59529203D01*
X101972309Y-59526053D01*
X101993750Y-59525000D01*
X102431250Y-59525000D01*
X102452691Y-59526053D01*
X102452691Y-59526053D01*
G37*
D12*
X102212500Y-60000000D03*
D11*
G36*
X104027691Y-59526053D02*
X104048926Y-59529203D01*
X104069750Y-59534419D01*
X104089962Y-59541651D01*
X104109368Y-59550830D01*
X104127781Y-59561866D01*
X104145024Y-59574654D01*
X104160930Y-59589070D01*
X104175346Y-59604976D01*
X104188134Y-59622219D01*
X104199170Y-59640632D01*
X104208349Y-59660038D01*
X104215581Y-59680250D01*
X104220797Y-59701074D01*
X104223947Y-59722309D01*
X104225000Y-59743750D01*
X104225000Y-60256250D01*
X104223947Y-60277691D01*
X104220797Y-60298926D01*
X104215581Y-60319750D01*
X104208349Y-60339962D01*
X104199170Y-60359368D01*
X104188134Y-60377781D01*
X104175346Y-60395024D01*
X104160930Y-60410930D01*
X104145024Y-60425346D01*
X104127781Y-60438134D01*
X104109368Y-60449170D01*
X104089962Y-60458349D01*
X104069750Y-60465581D01*
X104048926Y-60470797D01*
X104027691Y-60473947D01*
X104006250Y-60475000D01*
X103568750Y-60475000D01*
X103547309Y-60473947D01*
X103526074Y-60470797D01*
X103505250Y-60465581D01*
X103485038Y-60458349D01*
X103465632Y-60449170D01*
X103447219Y-60438134D01*
X103429976Y-60425346D01*
X103414070Y-60410930D01*
X103399654Y-60395024D01*
X103386866Y-60377781D01*
X103375830Y-60359368D01*
X103366651Y-60339962D01*
X103359419Y-60319750D01*
X103354203Y-60298926D01*
X103351053Y-60277691D01*
X103350000Y-60256250D01*
X103350000Y-59743750D01*
X103351053Y-59722309D01*
X103354203Y-59701074D01*
X103359419Y-59680250D01*
X103366651Y-59660038D01*
X103375830Y-59640632D01*
X103386866Y-59622219D01*
X103399654Y-59604976D01*
X103414070Y-59589070D01*
X103429976Y-59574654D01*
X103447219Y-59561866D01*
X103465632Y-59550830D01*
X103485038Y-59541651D01*
X103505250Y-59534419D01*
X103526074Y-59529203D01*
X103547309Y-59526053D01*
X103568750Y-59525000D01*
X104006250Y-59525000D01*
X104027691Y-59526053D01*
X104027691Y-59526053D01*
G37*
D12*
X103787500Y-60000000D03*
G04 #@! TD*
D11*
G04 #@! TO.C,C20*
G36*
X102452691Y-73526053D02*
X102473926Y-73529203D01*
X102494750Y-73534419D01*
X102514962Y-73541651D01*
X102534368Y-73550830D01*
X102552781Y-73561866D01*
X102570024Y-73574654D01*
X102585930Y-73589070D01*
X102600346Y-73604976D01*
X102613134Y-73622219D01*
X102624170Y-73640632D01*
X102633349Y-73660038D01*
X102640581Y-73680250D01*
X102645797Y-73701074D01*
X102648947Y-73722309D01*
X102650000Y-73743750D01*
X102650000Y-74256250D01*
X102648947Y-74277691D01*
X102645797Y-74298926D01*
X102640581Y-74319750D01*
X102633349Y-74339962D01*
X102624170Y-74359368D01*
X102613134Y-74377781D01*
X102600346Y-74395024D01*
X102585930Y-74410930D01*
X102570024Y-74425346D01*
X102552781Y-74438134D01*
X102534368Y-74449170D01*
X102514962Y-74458349D01*
X102494750Y-74465581D01*
X102473926Y-74470797D01*
X102452691Y-74473947D01*
X102431250Y-74475000D01*
X101993750Y-74475000D01*
X101972309Y-74473947D01*
X101951074Y-74470797D01*
X101930250Y-74465581D01*
X101910038Y-74458349D01*
X101890632Y-74449170D01*
X101872219Y-74438134D01*
X101854976Y-74425346D01*
X101839070Y-74410930D01*
X101824654Y-74395024D01*
X101811866Y-74377781D01*
X101800830Y-74359368D01*
X101791651Y-74339962D01*
X101784419Y-74319750D01*
X101779203Y-74298926D01*
X101776053Y-74277691D01*
X101775000Y-74256250D01*
X101775000Y-73743750D01*
X101776053Y-73722309D01*
X101779203Y-73701074D01*
X101784419Y-73680250D01*
X101791651Y-73660038D01*
X101800830Y-73640632D01*
X101811866Y-73622219D01*
X101824654Y-73604976D01*
X101839070Y-73589070D01*
X101854976Y-73574654D01*
X101872219Y-73561866D01*
X101890632Y-73550830D01*
X101910038Y-73541651D01*
X101930250Y-73534419D01*
X101951074Y-73529203D01*
X101972309Y-73526053D01*
X101993750Y-73525000D01*
X102431250Y-73525000D01*
X102452691Y-73526053D01*
X102452691Y-73526053D01*
G37*
D12*
X102212500Y-74000000D03*
D11*
G36*
X104027691Y-73526053D02*
X104048926Y-73529203D01*
X104069750Y-73534419D01*
X104089962Y-73541651D01*
X104109368Y-73550830D01*
X104127781Y-73561866D01*
X104145024Y-73574654D01*
X104160930Y-73589070D01*
X104175346Y-73604976D01*
X104188134Y-73622219D01*
X104199170Y-73640632D01*
X104208349Y-73660038D01*
X104215581Y-73680250D01*
X104220797Y-73701074D01*
X104223947Y-73722309D01*
X104225000Y-73743750D01*
X104225000Y-74256250D01*
X104223947Y-74277691D01*
X104220797Y-74298926D01*
X104215581Y-74319750D01*
X104208349Y-74339962D01*
X104199170Y-74359368D01*
X104188134Y-74377781D01*
X104175346Y-74395024D01*
X104160930Y-74410930D01*
X104145024Y-74425346D01*
X104127781Y-74438134D01*
X104109368Y-74449170D01*
X104089962Y-74458349D01*
X104069750Y-74465581D01*
X104048926Y-74470797D01*
X104027691Y-74473947D01*
X104006250Y-74475000D01*
X103568750Y-74475000D01*
X103547309Y-74473947D01*
X103526074Y-74470797D01*
X103505250Y-74465581D01*
X103485038Y-74458349D01*
X103465632Y-74449170D01*
X103447219Y-74438134D01*
X103429976Y-74425346D01*
X103414070Y-74410930D01*
X103399654Y-74395024D01*
X103386866Y-74377781D01*
X103375830Y-74359368D01*
X103366651Y-74339962D01*
X103359419Y-74319750D01*
X103354203Y-74298926D01*
X103351053Y-74277691D01*
X103350000Y-74256250D01*
X103350000Y-73743750D01*
X103351053Y-73722309D01*
X103354203Y-73701074D01*
X103359419Y-73680250D01*
X103366651Y-73660038D01*
X103375830Y-73640632D01*
X103386866Y-73622219D01*
X103399654Y-73604976D01*
X103414070Y-73589070D01*
X103429976Y-73574654D01*
X103447219Y-73561866D01*
X103465632Y-73550830D01*
X103485038Y-73541651D01*
X103505250Y-73534419D01*
X103526074Y-73529203D01*
X103547309Y-73526053D01*
X103568750Y-73525000D01*
X104006250Y-73525000D01*
X104027691Y-73526053D01*
X104027691Y-73526053D01*
G37*
D12*
X103787500Y-74000000D03*
G04 #@! TD*
D11*
G04 #@! TO.C,C30*
G36*
X104027691Y-89526053D02*
X104048926Y-89529203D01*
X104069750Y-89534419D01*
X104089962Y-89541651D01*
X104109368Y-89550830D01*
X104127781Y-89561866D01*
X104145024Y-89574654D01*
X104160930Y-89589070D01*
X104175346Y-89604976D01*
X104188134Y-89622219D01*
X104199170Y-89640632D01*
X104208349Y-89660038D01*
X104215581Y-89680250D01*
X104220797Y-89701074D01*
X104223947Y-89722309D01*
X104225000Y-89743750D01*
X104225000Y-90256250D01*
X104223947Y-90277691D01*
X104220797Y-90298926D01*
X104215581Y-90319750D01*
X104208349Y-90339962D01*
X104199170Y-90359368D01*
X104188134Y-90377781D01*
X104175346Y-90395024D01*
X104160930Y-90410930D01*
X104145024Y-90425346D01*
X104127781Y-90438134D01*
X104109368Y-90449170D01*
X104089962Y-90458349D01*
X104069750Y-90465581D01*
X104048926Y-90470797D01*
X104027691Y-90473947D01*
X104006250Y-90475000D01*
X103568750Y-90475000D01*
X103547309Y-90473947D01*
X103526074Y-90470797D01*
X103505250Y-90465581D01*
X103485038Y-90458349D01*
X103465632Y-90449170D01*
X103447219Y-90438134D01*
X103429976Y-90425346D01*
X103414070Y-90410930D01*
X103399654Y-90395024D01*
X103386866Y-90377781D01*
X103375830Y-90359368D01*
X103366651Y-90339962D01*
X103359419Y-90319750D01*
X103354203Y-90298926D01*
X103351053Y-90277691D01*
X103350000Y-90256250D01*
X103350000Y-89743750D01*
X103351053Y-89722309D01*
X103354203Y-89701074D01*
X103359419Y-89680250D01*
X103366651Y-89660038D01*
X103375830Y-89640632D01*
X103386866Y-89622219D01*
X103399654Y-89604976D01*
X103414070Y-89589070D01*
X103429976Y-89574654D01*
X103447219Y-89561866D01*
X103465632Y-89550830D01*
X103485038Y-89541651D01*
X103505250Y-89534419D01*
X103526074Y-89529203D01*
X103547309Y-89526053D01*
X103568750Y-89525000D01*
X104006250Y-89525000D01*
X104027691Y-89526053D01*
X104027691Y-89526053D01*
G37*
D12*
X103787500Y-90000000D03*
D11*
G36*
X102452691Y-89526053D02*
X102473926Y-89529203D01*
X102494750Y-89534419D01*
X102514962Y-89541651D01*
X102534368Y-89550830D01*
X102552781Y-89561866D01*
X102570024Y-89574654D01*
X102585930Y-89589070D01*
X102600346Y-89604976D01*
X102613134Y-89622219D01*
X102624170Y-89640632D01*
X102633349Y-89660038D01*
X102640581Y-89680250D01*
X102645797Y-89701074D01*
X102648947Y-89722309D01*
X102650000Y-89743750D01*
X102650000Y-90256250D01*
X102648947Y-90277691D01*
X102645797Y-90298926D01*
X102640581Y-90319750D01*
X102633349Y-90339962D01*
X102624170Y-90359368D01*
X102613134Y-90377781D01*
X102600346Y-90395024D01*
X102585930Y-90410930D01*
X102570024Y-90425346D01*
X102552781Y-90438134D01*
X102534368Y-90449170D01*
X102514962Y-90458349D01*
X102494750Y-90465581D01*
X102473926Y-90470797D01*
X102452691Y-90473947D01*
X102431250Y-90475000D01*
X101993750Y-90475000D01*
X101972309Y-90473947D01*
X101951074Y-90470797D01*
X101930250Y-90465581D01*
X101910038Y-90458349D01*
X101890632Y-90449170D01*
X101872219Y-90438134D01*
X101854976Y-90425346D01*
X101839070Y-90410930D01*
X101824654Y-90395024D01*
X101811866Y-90377781D01*
X101800830Y-90359368D01*
X101791651Y-90339962D01*
X101784419Y-90319750D01*
X101779203Y-90298926D01*
X101776053Y-90277691D01*
X101775000Y-90256250D01*
X101775000Y-89743750D01*
X101776053Y-89722309D01*
X101779203Y-89701074D01*
X101784419Y-89680250D01*
X101791651Y-89660038D01*
X101800830Y-89640632D01*
X101811866Y-89622219D01*
X101824654Y-89604976D01*
X101839070Y-89589070D01*
X101854976Y-89574654D01*
X101872219Y-89561866D01*
X101890632Y-89550830D01*
X101910038Y-89541651D01*
X101930250Y-89534419D01*
X101951074Y-89529203D01*
X101972309Y-89526053D01*
X101993750Y-89525000D01*
X102431250Y-89525000D01*
X102452691Y-89526053D01*
X102452691Y-89526053D01*
G37*
D12*
X102212500Y-90000000D03*
G04 #@! TD*
D11*
G04 #@! TO.C,C40*
G36*
X102452691Y-105526053D02*
X102473926Y-105529203D01*
X102494750Y-105534419D01*
X102514962Y-105541651D01*
X102534368Y-105550830D01*
X102552781Y-105561866D01*
X102570024Y-105574654D01*
X102585930Y-105589070D01*
X102600346Y-105604976D01*
X102613134Y-105622219D01*
X102624170Y-105640632D01*
X102633349Y-105660038D01*
X102640581Y-105680250D01*
X102645797Y-105701074D01*
X102648947Y-105722309D01*
X102650000Y-105743750D01*
X102650000Y-106256250D01*
X102648947Y-106277691D01*
X102645797Y-106298926D01*
X102640581Y-106319750D01*
X102633349Y-106339962D01*
X102624170Y-106359368D01*
X102613134Y-106377781D01*
X102600346Y-106395024D01*
X102585930Y-106410930D01*
X102570024Y-106425346D01*
X102552781Y-106438134D01*
X102534368Y-106449170D01*
X102514962Y-106458349D01*
X102494750Y-106465581D01*
X102473926Y-106470797D01*
X102452691Y-106473947D01*
X102431250Y-106475000D01*
X101993750Y-106475000D01*
X101972309Y-106473947D01*
X101951074Y-106470797D01*
X101930250Y-106465581D01*
X101910038Y-106458349D01*
X101890632Y-106449170D01*
X101872219Y-106438134D01*
X101854976Y-106425346D01*
X101839070Y-106410930D01*
X101824654Y-106395024D01*
X101811866Y-106377781D01*
X101800830Y-106359368D01*
X101791651Y-106339962D01*
X101784419Y-106319750D01*
X101779203Y-106298926D01*
X101776053Y-106277691D01*
X101775000Y-106256250D01*
X101775000Y-105743750D01*
X101776053Y-105722309D01*
X101779203Y-105701074D01*
X101784419Y-105680250D01*
X101791651Y-105660038D01*
X101800830Y-105640632D01*
X101811866Y-105622219D01*
X101824654Y-105604976D01*
X101839070Y-105589070D01*
X101854976Y-105574654D01*
X101872219Y-105561866D01*
X101890632Y-105550830D01*
X101910038Y-105541651D01*
X101930250Y-105534419D01*
X101951074Y-105529203D01*
X101972309Y-105526053D01*
X101993750Y-105525000D01*
X102431250Y-105525000D01*
X102452691Y-105526053D01*
X102452691Y-105526053D01*
G37*
D12*
X102212500Y-106000000D03*
D11*
G36*
X104027691Y-105526053D02*
X104048926Y-105529203D01*
X104069750Y-105534419D01*
X104089962Y-105541651D01*
X104109368Y-105550830D01*
X104127781Y-105561866D01*
X104145024Y-105574654D01*
X104160930Y-105589070D01*
X104175346Y-105604976D01*
X104188134Y-105622219D01*
X104199170Y-105640632D01*
X104208349Y-105660038D01*
X104215581Y-105680250D01*
X104220797Y-105701074D01*
X104223947Y-105722309D01*
X104225000Y-105743750D01*
X104225000Y-106256250D01*
X104223947Y-106277691D01*
X104220797Y-106298926D01*
X104215581Y-106319750D01*
X104208349Y-106339962D01*
X104199170Y-106359368D01*
X104188134Y-106377781D01*
X104175346Y-106395024D01*
X104160930Y-106410930D01*
X104145024Y-106425346D01*
X104127781Y-106438134D01*
X104109368Y-106449170D01*
X104089962Y-106458349D01*
X104069750Y-106465581D01*
X104048926Y-106470797D01*
X104027691Y-106473947D01*
X104006250Y-106475000D01*
X103568750Y-106475000D01*
X103547309Y-106473947D01*
X103526074Y-106470797D01*
X103505250Y-106465581D01*
X103485038Y-106458349D01*
X103465632Y-106449170D01*
X103447219Y-106438134D01*
X103429976Y-106425346D01*
X103414070Y-106410930D01*
X103399654Y-106395024D01*
X103386866Y-106377781D01*
X103375830Y-106359368D01*
X103366651Y-106339962D01*
X103359419Y-106319750D01*
X103354203Y-106298926D01*
X103351053Y-106277691D01*
X103350000Y-106256250D01*
X103350000Y-105743750D01*
X103351053Y-105722309D01*
X103354203Y-105701074D01*
X103359419Y-105680250D01*
X103366651Y-105660038D01*
X103375830Y-105640632D01*
X103386866Y-105622219D01*
X103399654Y-105604976D01*
X103414070Y-105589070D01*
X103429976Y-105574654D01*
X103447219Y-105561866D01*
X103465632Y-105550830D01*
X103485038Y-105541651D01*
X103505250Y-105534419D01*
X103526074Y-105529203D01*
X103547309Y-105526053D01*
X103568750Y-105525000D01*
X104006250Y-105525000D01*
X104027691Y-105526053D01*
X104027691Y-105526053D01*
G37*
D12*
X103787500Y-106000000D03*
G04 #@! TD*
D11*
G04 #@! TO.C,C50*
G36*
X104027691Y-121526053D02*
X104048926Y-121529203D01*
X104069750Y-121534419D01*
X104089962Y-121541651D01*
X104109368Y-121550830D01*
X104127781Y-121561866D01*
X104145024Y-121574654D01*
X104160930Y-121589070D01*
X104175346Y-121604976D01*
X104188134Y-121622219D01*
X104199170Y-121640632D01*
X104208349Y-121660038D01*
X104215581Y-121680250D01*
X104220797Y-121701074D01*
X104223947Y-121722309D01*
X104225000Y-121743750D01*
X104225000Y-122256250D01*
X104223947Y-122277691D01*
X104220797Y-122298926D01*
X104215581Y-122319750D01*
X104208349Y-122339962D01*
X104199170Y-122359368D01*
X104188134Y-122377781D01*
X104175346Y-122395024D01*
X104160930Y-122410930D01*
X104145024Y-122425346D01*
X104127781Y-122438134D01*
X104109368Y-122449170D01*
X104089962Y-122458349D01*
X104069750Y-122465581D01*
X104048926Y-122470797D01*
X104027691Y-122473947D01*
X104006250Y-122475000D01*
X103568750Y-122475000D01*
X103547309Y-122473947D01*
X103526074Y-122470797D01*
X103505250Y-122465581D01*
X103485038Y-122458349D01*
X103465632Y-122449170D01*
X103447219Y-122438134D01*
X103429976Y-122425346D01*
X103414070Y-122410930D01*
X103399654Y-122395024D01*
X103386866Y-122377781D01*
X103375830Y-122359368D01*
X103366651Y-122339962D01*
X103359419Y-122319750D01*
X103354203Y-122298926D01*
X103351053Y-122277691D01*
X103350000Y-122256250D01*
X103350000Y-121743750D01*
X103351053Y-121722309D01*
X103354203Y-121701074D01*
X103359419Y-121680250D01*
X103366651Y-121660038D01*
X103375830Y-121640632D01*
X103386866Y-121622219D01*
X103399654Y-121604976D01*
X103414070Y-121589070D01*
X103429976Y-121574654D01*
X103447219Y-121561866D01*
X103465632Y-121550830D01*
X103485038Y-121541651D01*
X103505250Y-121534419D01*
X103526074Y-121529203D01*
X103547309Y-121526053D01*
X103568750Y-121525000D01*
X104006250Y-121525000D01*
X104027691Y-121526053D01*
X104027691Y-121526053D01*
G37*
D12*
X103787500Y-122000000D03*
D11*
G36*
X102452691Y-121526053D02*
X102473926Y-121529203D01*
X102494750Y-121534419D01*
X102514962Y-121541651D01*
X102534368Y-121550830D01*
X102552781Y-121561866D01*
X102570024Y-121574654D01*
X102585930Y-121589070D01*
X102600346Y-121604976D01*
X102613134Y-121622219D01*
X102624170Y-121640632D01*
X102633349Y-121660038D01*
X102640581Y-121680250D01*
X102645797Y-121701074D01*
X102648947Y-121722309D01*
X102650000Y-121743750D01*
X102650000Y-122256250D01*
X102648947Y-122277691D01*
X102645797Y-122298926D01*
X102640581Y-122319750D01*
X102633349Y-122339962D01*
X102624170Y-122359368D01*
X102613134Y-122377781D01*
X102600346Y-122395024D01*
X102585930Y-122410930D01*
X102570024Y-122425346D01*
X102552781Y-122438134D01*
X102534368Y-122449170D01*
X102514962Y-122458349D01*
X102494750Y-122465581D01*
X102473926Y-122470797D01*
X102452691Y-122473947D01*
X102431250Y-122475000D01*
X101993750Y-122475000D01*
X101972309Y-122473947D01*
X101951074Y-122470797D01*
X101930250Y-122465581D01*
X101910038Y-122458349D01*
X101890632Y-122449170D01*
X101872219Y-122438134D01*
X101854976Y-122425346D01*
X101839070Y-122410930D01*
X101824654Y-122395024D01*
X101811866Y-122377781D01*
X101800830Y-122359368D01*
X101791651Y-122339962D01*
X101784419Y-122319750D01*
X101779203Y-122298926D01*
X101776053Y-122277691D01*
X101775000Y-122256250D01*
X101775000Y-121743750D01*
X101776053Y-121722309D01*
X101779203Y-121701074D01*
X101784419Y-121680250D01*
X101791651Y-121660038D01*
X101800830Y-121640632D01*
X101811866Y-121622219D01*
X101824654Y-121604976D01*
X101839070Y-121589070D01*
X101854976Y-121574654D01*
X101872219Y-121561866D01*
X101890632Y-121550830D01*
X101910038Y-121541651D01*
X101930250Y-121534419D01*
X101951074Y-121529203D01*
X101972309Y-121526053D01*
X101993750Y-121525000D01*
X102431250Y-121525000D01*
X102452691Y-121526053D01*
X102452691Y-121526053D01*
G37*
D12*
X102212500Y-122000000D03*
G04 #@! TD*
D11*
G04 #@! TO.C,C60*
G36*
X102452691Y-137526053D02*
X102473926Y-137529203D01*
X102494750Y-137534419D01*
X102514962Y-137541651D01*
X102534368Y-137550830D01*
X102552781Y-137561866D01*
X102570024Y-137574654D01*
X102585930Y-137589070D01*
X102600346Y-137604976D01*
X102613134Y-137622219D01*
X102624170Y-137640632D01*
X102633349Y-137660038D01*
X102640581Y-137680250D01*
X102645797Y-137701074D01*
X102648947Y-137722309D01*
X102650000Y-137743750D01*
X102650000Y-138256250D01*
X102648947Y-138277691D01*
X102645797Y-138298926D01*
X102640581Y-138319750D01*
X102633349Y-138339962D01*
X102624170Y-138359368D01*
X102613134Y-138377781D01*
X102600346Y-138395024D01*
X102585930Y-138410930D01*
X102570024Y-138425346D01*
X102552781Y-138438134D01*
X102534368Y-138449170D01*
X102514962Y-138458349D01*
X102494750Y-138465581D01*
X102473926Y-138470797D01*
X102452691Y-138473947D01*
X102431250Y-138475000D01*
X101993750Y-138475000D01*
X101972309Y-138473947D01*
X101951074Y-138470797D01*
X101930250Y-138465581D01*
X101910038Y-138458349D01*
X101890632Y-138449170D01*
X101872219Y-138438134D01*
X101854976Y-138425346D01*
X101839070Y-138410930D01*
X101824654Y-138395024D01*
X101811866Y-138377781D01*
X101800830Y-138359368D01*
X101791651Y-138339962D01*
X101784419Y-138319750D01*
X101779203Y-138298926D01*
X101776053Y-138277691D01*
X101775000Y-138256250D01*
X101775000Y-137743750D01*
X101776053Y-137722309D01*
X101779203Y-137701074D01*
X101784419Y-137680250D01*
X101791651Y-137660038D01*
X101800830Y-137640632D01*
X101811866Y-137622219D01*
X101824654Y-137604976D01*
X101839070Y-137589070D01*
X101854976Y-137574654D01*
X101872219Y-137561866D01*
X101890632Y-137550830D01*
X101910038Y-137541651D01*
X101930250Y-137534419D01*
X101951074Y-137529203D01*
X101972309Y-137526053D01*
X101993750Y-137525000D01*
X102431250Y-137525000D01*
X102452691Y-137526053D01*
X102452691Y-137526053D01*
G37*
D12*
X102212500Y-138000000D03*
D11*
G36*
X104027691Y-137526053D02*
X104048926Y-137529203D01*
X104069750Y-137534419D01*
X104089962Y-137541651D01*
X104109368Y-137550830D01*
X104127781Y-137561866D01*
X104145024Y-137574654D01*
X104160930Y-137589070D01*
X104175346Y-137604976D01*
X104188134Y-137622219D01*
X104199170Y-137640632D01*
X104208349Y-137660038D01*
X104215581Y-137680250D01*
X104220797Y-137701074D01*
X104223947Y-137722309D01*
X104225000Y-137743750D01*
X104225000Y-138256250D01*
X104223947Y-138277691D01*
X104220797Y-138298926D01*
X104215581Y-138319750D01*
X104208349Y-138339962D01*
X104199170Y-138359368D01*
X104188134Y-138377781D01*
X104175346Y-138395024D01*
X104160930Y-138410930D01*
X104145024Y-138425346D01*
X104127781Y-138438134D01*
X104109368Y-138449170D01*
X104089962Y-138458349D01*
X104069750Y-138465581D01*
X104048926Y-138470797D01*
X104027691Y-138473947D01*
X104006250Y-138475000D01*
X103568750Y-138475000D01*
X103547309Y-138473947D01*
X103526074Y-138470797D01*
X103505250Y-138465581D01*
X103485038Y-138458349D01*
X103465632Y-138449170D01*
X103447219Y-138438134D01*
X103429976Y-138425346D01*
X103414070Y-138410930D01*
X103399654Y-138395024D01*
X103386866Y-138377781D01*
X103375830Y-138359368D01*
X103366651Y-138339962D01*
X103359419Y-138319750D01*
X103354203Y-138298926D01*
X103351053Y-138277691D01*
X103350000Y-138256250D01*
X103350000Y-137743750D01*
X103351053Y-137722309D01*
X103354203Y-137701074D01*
X103359419Y-137680250D01*
X103366651Y-137660038D01*
X103375830Y-137640632D01*
X103386866Y-137622219D01*
X103399654Y-137604976D01*
X103414070Y-137589070D01*
X103429976Y-137574654D01*
X103447219Y-137561866D01*
X103465632Y-137550830D01*
X103485038Y-137541651D01*
X103505250Y-137534419D01*
X103526074Y-137529203D01*
X103547309Y-137526053D01*
X103568750Y-137525000D01*
X104006250Y-137525000D01*
X104027691Y-137526053D01*
X104027691Y-137526053D01*
G37*
D12*
X103787500Y-138000000D03*
G04 #@! TD*
D11*
G04 #@! TO.C,C70*
G36*
X104027691Y-153526053D02*
X104048926Y-153529203D01*
X104069750Y-153534419D01*
X104089962Y-153541651D01*
X104109368Y-153550830D01*
X104127781Y-153561866D01*
X104145024Y-153574654D01*
X104160930Y-153589070D01*
X104175346Y-153604976D01*
X104188134Y-153622219D01*
X104199170Y-153640632D01*
X104208349Y-153660038D01*
X104215581Y-153680250D01*
X104220797Y-153701074D01*
X104223947Y-153722309D01*
X104225000Y-153743750D01*
X104225000Y-154256250D01*
X104223947Y-154277691D01*
X104220797Y-154298926D01*
X104215581Y-154319750D01*
X104208349Y-154339962D01*
X104199170Y-154359368D01*
X104188134Y-154377781D01*
X104175346Y-154395024D01*
X104160930Y-154410930D01*
X104145024Y-154425346D01*
X104127781Y-154438134D01*
X104109368Y-154449170D01*
X104089962Y-154458349D01*
X104069750Y-154465581D01*
X104048926Y-154470797D01*
X104027691Y-154473947D01*
X104006250Y-154475000D01*
X103568750Y-154475000D01*
X103547309Y-154473947D01*
X103526074Y-154470797D01*
X103505250Y-154465581D01*
X103485038Y-154458349D01*
X103465632Y-154449170D01*
X103447219Y-154438134D01*
X103429976Y-154425346D01*
X103414070Y-154410930D01*
X103399654Y-154395024D01*
X103386866Y-154377781D01*
X103375830Y-154359368D01*
X103366651Y-154339962D01*
X103359419Y-154319750D01*
X103354203Y-154298926D01*
X103351053Y-154277691D01*
X103350000Y-154256250D01*
X103350000Y-153743750D01*
X103351053Y-153722309D01*
X103354203Y-153701074D01*
X103359419Y-153680250D01*
X103366651Y-153660038D01*
X103375830Y-153640632D01*
X103386866Y-153622219D01*
X103399654Y-153604976D01*
X103414070Y-153589070D01*
X103429976Y-153574654D01*
X103447219Y-153561866D01*
X103465632Y-153550830D01*
X103485038Y-153541651D01*
X103505250Y-153534419D01*
X103526074Y-153529203D01*
X103547309Y-153526053D01*
X103568750Y-153525000D01*
X104006250Y-153525000D01*
X104027691Y-153526053D01*
X104027691Y-153526053D01*
G37*
D12*
X103787500Y-154000000D03*
D11*
G36*
X102452691Y-153526053D02*
X102473926Y-153529203D01*
X102494750Y-153534419D01*
X102514962Y-153541651D01*
X102534368Y-153550830D01*
X102552781Y-153561866D01*
X102570024Y-153574654D01*
X102585930Y-153589070D01*
X102600346Y-153604976D01*
X102613134Y-153622219D01*
X102624170Y-153640632D01*
X102633349Y-153660038D01*
X102640581Y-153680250D01*
X102645797Y-153701074D01*
X102648947Y-153722309D01*
X102650000Y-153743750D01*
X102650000Y-154256250D01*
X102648947Y-154277691D01*
X102645797Y-154298926D01*
X102640581Y-154319750D01*
X102633349Y-154339962D01*
X102624170Y-154359368D01*
X102613134Y-154377781D01*
X102600346Y-154395024D01*
X102585930Y-154410930D01*
X102570024Y-154425346D01*
X102552781Y-154438134D01*
X102534368Y-154449170D01*
X102514962Y-154458349D01*
X102494750Y-154465581D01*
X102473926Y-154470797D01*
X102452691Y-154473947D01*
X102431250Y-154475000D01*
X101993750Y-154475000D01*
X101972309Y-154473947D01*
X101951074Y-154470797D01*
X101930250Y-154465581D01*
X101910038Y-154458349D01*
X101890632Y-154449170D01*
X101872219Y-154438134D01*
X101854976Y-154425346D01*
X101839070Y-154410930D01*
X101824654Y-154395024D01*
X101811866Y-154377781D01*
X101800830Y-154359368D01*
X101791651Y-154339962D01*
X101784419Y-154319750D01*
X101779203Y-154298926D01*
X101776053Y-154277691D01*
X101775000Y-154256250D01*
X101775000Y-153743750D01*
X101776053Y-153722309D01*
X101779203Y-153701074D01*
X101784419Y-153680250D01*
X101791651Y-153660038D01*
X101800830Y-153640632D01*
X101811866Y-153622219D01*
X101824654Y-153604976D01*
X101839070Y-153589070D01*
X101854976Y-153574654D01*
X101872219Y-153561866D01*
X101890632Y-153550830D01*
X101910038Y-153541651D01*
X101930250Y-153534419D01*
X101951074Y-153529203D01*
X101972309Y-153526053D01*
X101993750Y-153525000D01*
X102431250Y-153525000D01*
X102452691Y-153526053D01*
X102452691Y-153526053D01*
G37*
D12*
X102212500Y-154000000D03*
G04 #@! TD*
D11*
G04 #@! TO.C,R20*
G36*
X102452691Y-71526053D02*
X102473926Y-71529203D01*
X102494750Y-71534419D01*
X102514962Y-71541651D01*
X102534368Y-71550830D01*
X102552781Y-71561866D01*
X102570024Y-71574654D01*
X102585930Y-71589070D01*
X102600346Y-71604976D01*
X102613134Y-71622219D01*
X102624170Y-71640632D01*
X102633349Y-71660038D01*
X102640581Y-71680250D01*
X102645797Y-71701074D01*
X102648947Y-71722309D01*
X102650000Y-71743750D01*
X102650000Y-72256250D01*
X102648947Y-72277691D01*
X102645797Y-72298926D01*
X102640581Y-72319750D01*
X102633349Y-72339962D01*
X102624170Y-72359368D01*
X102613134Y-72377781D01*
X102600346Y-72395024D01*
X102585930Y-72410930D01*
X102570024Y-72425346D01*
X102552781Y-72438134D01*
X102534368Y-72449170D01*
X102514962Y-72458349D01*
X102494750Y-72465581D01*
X102473926Y-72470797D01*
X102452691Y-72473947D01*
X102431250Y-72475000D01*
X101993750Y-72475000D01*
X101972309Y-72473947D01*
X101951074Y-72470797D01*
X101930250Y-72465581D01*
X101910038Y-72458349D01*
X101890632Y-72449170D01*
X101872219Y-72438134D01*
X101854976Y-72425346D01*
X101839070Y-72410930D01*
X101824654Y-72395024D01*
X101811866Y-72377781D01*
X101800830Y-72359368D01*
X101791651Y-72339962D01*
X101784419Y-72319750D01*
X101779203Y-72298926D01*
X101776053Y-72277691D01*
X101775000Y-72256250D01*
X101775000Y-71743750D01*
X101776053Y-71722309D01*
X101779203Y-71701074D01*
X101784419Y-71680250D01*
X101791651Y-71660038D01*
X101800830Y-71640632D01*
X101811866Y-71622219D01*
X101824654Y-71604976D01*
X101839070Y-71589070D01*
X101854976Y-71574654D01*
X101872219Y-71561866D01*
X101890632Y-71550830D01*
X101910038Y-71541651D01*
X101930250Y-71534419D01*
X101951074Y-71529203D01*
X101972309Y-71526053D01*
X101993750Y-71525000D01*
X102431250Y-71525000D01*
X102452691Y-71526053D01*
X102452691Y-71526053D01*
G37*
D12*
X102212500Y-72000000D03*
D11*
G36*
X104027691Y-71526053D02*
X104048926Y-71529203D01*
X104069750Y-71534419D01*
X104089962Y-71541651D01*
X104109368Y-71550830D01*
X104127781Y-71561866D01*
X104145024Y-71574654D01*
X104160930Y-71589070D01*
X104175346Y-71604976D01*
X104188134Y-71622219D01*
X104199170Y-71640632D01*
X104208349Y-71660038D01*
X104215581Y-71680250D01*
X104220797Y-71701074D01*
X104223947Y-71722309D01*
X104225000Y-71743750D01*
X104225000Y-72256250D01*
X104223947Y-72277691D01*
X104220797Y-72298926D01*
X104215581Y-72319750D01*
X104208349Y-72339962D01*
X104199170Y-72359368D01*
X104188134Y-72377781D01*
X104175346Y-72395024D01*
X104160930Y-72410930D01*
X104145024Y-72425346D01*
X104127781Y-72438134D01*
X104109368Y-72449170D01*
X104089962Y-72458349D01*
X104069750Y-72465581D01*
X104048926Y-72470797D01*
X104027691Y-72473947D01*
X104006250Y-72475000D01*
X103568750Y-72475000D01*
X103547309Y-72473947D01*
X103526074Y-72470797D01*
X103505250Y-72465581D01*
X103485038Y-72458349D01*
X103465632Y-72449170D01*
X103447219Y-72438134D01*
X103429976Y-72425346D01*
X103414070Y-72410930D01*
X103399654Y-72395024D01*
X103386866Y-72377781D01*
X103375830Y-72359368D01*
X103366651Y-72339962D01*
X103359419Y-72319750D01*
X103354203Y-72298926D01*
X103351053Y-72277691D01*
X103350000Y-72256250D01*
X103350000Y-71743750D01*
X103351053Y-71722309D01*
X103354203Y-71701074D01*
X103359419Y-71680250D01*
X103366651Y-71660038D01*
X103375830Y-71640632D01*
X103386866Y-71622219D01*
X103399654Y-71604976D01*
X103414070Y-71589070D01*
X103429976Y-71574654D01*
X103447219Y-71561866D01*
X103465632Y-71550830D01*
X103485038Y-71541651D01*
X103505250Y-71534419D01*
X103526074Y-71529203D01*
X103547309Y-71526053D01*
X103568750Y-71525000D01*
X104006250Y-71525000D01*
X104027691Y-71526053D01*
X104027691Y-71526053D01*
G37*
D12*
X103787500Y-72000000D03*
G04 #@! TD*
D11*
G04 #@! TO.C,R21*
G36*
X102452691Y-75526053D02*
X102473926Y-75529203D01*
X102494750Y-75534419D01*
X102514962Y-75541651D01*
X102534368Y-75550830D01*
X102552781Y-75561866D01*
X102570024Y-75574654D01*
X102585930Y-75589070D01*
X102600346Y-75604976D01*
X102613134Y-75622219D01*
X102624170Y-75640632D01*
X102633349Y-75660038D01*
X102640581Y-75680250D01*
X102645797Y-75701074D01*
X102648947Y-75722309D01*
X102650000Y-75743750D01*
X102650000Y-76256250D01*
X102648947Y-76277691D01*
X102645797Y-76298926D01*
X102640581Y-76319750D01*
X102633349Y-76339962D01*
X102624170Y-76359368D01*
X102613134Y-76377781D01*
X102600346Y-76395024D01*
X102585930Y-76410930D01*
X102570024Y-76425346D01*
X102552781Y-76438134D01*
X102534368Y-76449170D01*
X102514962Y-76458349D01*
X102494750Y-76465581D01*
X102473926Y-76470797D01*
X102452691Y-76473947D01*
X102431250Y-76475000D01*
X101993750Y-76475000D01*
X101972309Y-76473947D01*
X101951074Y-76470797D01*
X101930250Y-76465581D01*
X101910038Y-76458349D01*
X101890632Y-76449170D01*
X101872219Y-76438134D01*
X101854976Y-76425346D01*
X101839070Y-76410930D01*
X101824654Y-76395024D01*
X101811866Y-76377781D01*
X101800830Y-76359368D01*
X101791651Y-76339962D01*
X101784419Y-76319750D01*
X101779203Y-76298926D01*
X101776053Y-76277691D01*
X101775000Y-76256250D01*
X101775000Y-75743750D01*
X101776053Y-75722309D01*
X101779203Y-75701074D01*
X101784419Y-75680250D01*
X101791651Y-75660038D01*
X101800830Y-75640632D01*
X101811866Y-75622219D01*
X101824654Y-75604976D01*
X101839070Y-75589070D01*
X101854976Y-75574654D01*
X101872219Y-75561866D01*
X101890632Y-75550830D01*
X101910038Y-75541651D01*
X101930250Y-75534419D01*
X101951074Y-75529203D01*
X101972309Y-75526053D01*
X101993750Y-75525000D01*
X102431250Y-75525000D01*
X102452691Y-75526053D01*
X102452691Y-75526053D01*
G37*
D12*
X102212500Y-76000000D03*
D11*
G36*
X104027691Y-75526053D02*
X104048926Y-75529203D01*
X104069750Y-75534419D01*
X104089962Y-75541651D01*
X104109368Y-75550830D01*
X104127781Y-75561866D01*
X104145024Y-75574654D01*
X104160930Y-75589070D01*
X104175346Y-75604976D01*
X104188134Y-75622219D01*
X104199170Y-75640632D01*
X104208349Y-75660038D01*
X104215581Y-75680250D01*
X104220797Y-75701074D01*
X104223947Y-75722309D01*
X104225000Y-75743750D01*
X104225000Y-76256250D01*
X104223947Y-76277691D01*
X104220797Y-76298926D01*
X104215581Y-76319750D01*
X104208349Y-76339962D01*
X104199170Y-76359368D01*
X104188134Y-76377781D01*
X104175346Y-76395024D01*
X104160930Y-76410930D01*
X104145024Y-76425346D01*
X104127781Y-76438134D01*
X104109368Y-76449170D01*
X104089962Y-76458349D01*
X104069750Y-76465581D01*
X104048926Y-76470797D01*
X104027691Y-76473947D01*
X104006250Y-76475000D01*
X103568750Y-76475000D01*
X103547309Y-76473947D01*
X103526074Y-76470797D01*
X103505250Y-76465581D01*
X103485038Y-76458349D01*
X103465632Y-76449170D01*
X103447219Y-76438134D01*
X103429976Y-76425346D01*
X103414070Y-76410930D01*
X103399654Y-76395024D01*
X103386866Y-76377781D01*
X103375830Y-76359368D01*
X103366651Y-76339962D01*
X103359419Y-76319750D01*
X103354203Y-76298926D01*
X103351053Y-76277691D01*
X103350000Y-76256250D01*
X103350000Y-75743750D01*
X103351053Y-75722309D01*
X103354203Y-75701074D01*
X103359419Y-75680250D01*
X103366651Y-75660038D01*
X103375830Y-75640632D01*
X103386866Y-75622219D01*
X103399654Y-75604976D01*
X103414070Y-75589070D01*
X103429976Y-75574654D01*
X103447219Y-75561866D01*
X103465632Y-75550830D01*
X103485038Y-75541651D01*
X103505250Y-75534419D01*
X103526074Y-75529203D01*
X103547309Y-75526053D01*
X103568750Y-75525000D01*
X104006250Y-75525000D01*
X104027691Y-75526053D01*
X104027691Y-75526053D01*
G37*
D12*
X103787500Y-76000000D03*
G04 #@! TD*
D11*
G04 #@! TO.C,R30*
G36*
X102452691Y-87526053D02*
X102473926Y-87529203D01*
X102494750Y-87534419D01*
X102514962Y-87541651D01*
X102534368Y-87550830D01*
X102552781Y-87561866D01*
X102570024Y-87574654D01*
X102585930Y-87589070D01*
X102600346Y-87604976D01*
X102613134Y-87622219D01*
X102624170Y-87640632D01*
X102633349Y-87660038D01*
X102640581Y-87680250D01*
X102645797Y-87701074D01*
X102648947Y-87722309D01*
X102650000Y-87743750D01*
X102650000Y-88256250D01*
X102648947Y-88277691D01*
X102645797Y-88298926D01*
X102640581Y-88319750D01*
X102633349Y-88339962D01*
X102624170Y-88359368D01*
X102613134Y-88377781D01*
X102600346Y-88395024D01*
X102585930Y-88410930D01*
X102570024Y-88425346D01*
X102552781Y-88438134D01*
X102534368Y-88449170D01*
X102514962Y-88458349D01*
X102494750Y-88465581D01*
X102473926Y-88470797D01*
X102452691Y-88473947D01*
X102431250Y-88475000D01*
X101993750Y-88475000D01*
X101972309Y-88473947D01*
X101951074Y-88470797D01*
X101930250Y-88465581D01*
X101910038Y-88458349D01*
X101890632Y-88449170D01*
X101872219Y-88438134D01*
X101854976Y-88425346D01*
X101839070Y-88410930D01*
X101824654Y-88395024D01*
X101811866Y-88377781D01*
X101800830Y-88359368D01*
X101791651Y-88339962D01*
X101784419Y-88319750D01*
X101779203Y-88298926D01*
X101776053Y-88277691D01*
X101775000Y-88256250D01*
X101775000Y-87743750D01*
X101776053Y-87722309D01*
X101779203Y-87701074D01*
X101784419Y-87680250D01*
X101791651Y-87660038D01*
X101800830Y-87640632D01*
X101811866Y-87622219D01*
X101824654Y-87604976D01*
X101839070Y-87589070D01*
X101854976Y-87574654D01*
X101872219Y-87561866D01*
X101890632Y-87550830D01*
X101910038Y-87541651D01*
X101930250Y-87534419D01*
X101951074Y-87529203D01*
X101972309Y-87526053D01*
X101993750Y-87525000D01*
X102431250Y-87525000D01*
X102452691Y-87526053D01*
X102452691Y-87526053D01*
G37*
D12*
X102212500Y-88000000D03*
D11*
G36*
X104027691Y-87526053D02*
X104048926Y-87529203D01*
X104069750Y-87534419D01*
X104089962Y-87541651D01*
X104109368Y-87550830D01*
X104127781Y-87561866D01*
X104145024Y-87574654D01*
X104160930Y-87589070D01*
X104175346Y-87604976D01*
X104188134Y-87622219D01*
X104199170Y-87640632D01*
X104208349Y-87660038D01*
X104215581Y-87680250D01*
X104220797Y-87701074D01*
X104223947Y-87722309D01*
X104225000Y-87743750D01*
X104225000Y-88256250D01*
X104223947Y-88277691D01*
X104220797Y-88298926D01*
X104215581Y-88319750D01*
X104208349Y-88339962D01*
X104199170Y-88359368D01*
X104188134Y-88377781D01*
X104175346Y-88395024D01*
X104160930Y-88410930D01*
X104145024Y-88425346D01*
X104127781Y-88438134D01*
X104109368Y-88449170D01*
X104089962Y-88458349D01*
X104069750Y-88465581D01*
X104048926Y-88470797D01*
X104027691Y-88473947D01*
X104006250Y-88475000D01*
X103568750Y-88475000D01*
X103547309Y-88473947D01*
X103526074Y-88470797D01*
X103505250Y-88465581D01*
X103485038Y-88458349D01*
X103465632Y-88449170D01*
X103447219Y-88438134D01*
X103429976Y-88425346D01*
X103414070Y-88410930D01*
X103399654Y-88395024D01*
X103386866Y-88377781D01*
X103375830Y-88359368D01*
X103366651Y-88339962D01*
X103359419Y-88319750D01*
X103354203Y-88298926D01*
X103351053Y-88277691D01*
X103350000Y-88256250D01*
X103350000Y-87743750D01*
X103351053Y-87722309D01*
X103354203Y-87701074D01*
X103359419Y-87680250D01*
X103366651Y-87660038D01*
X103375830Y-87640632D01*
X103386866Y-87622219D01*
X103399654Y-87604976D01*
X103414070Y-87589070D01*
X103429976Y-87574654D01*
X103447219Y-87561866D01*
X103465632Y-87550830D01*
X103485038Y-87541651D01*
X103505250Y-87534419D01*
X103526074Y-87529203D01*
X103547309Y-87526053D01*
X103568750Y-87525000D01*
X104006250Y-87525000D01*
X104027691Y-87526053D01*
X104027691Y-87526053D01*
G37*
D12*
X103787500Y-88000000D03*
G04 #@! TD*
D11*
G04 #@! TO.C,R31*
G36*
X102452691Y-91526053D02*
X102473926Y-91529203D01*
X102494750Y-91534419D01*
X102514962Y-91541651D01*
X102534368Y-91550830D01*
X102552781Y-91561866D01*
X102570024Y-91574654D01*
X102585930Y-91589070D01*
X102600346Y-91604976D01*
X102613134Y-91622219D01*
X102624170Y-91640632D01*
X102633349Y-91660038D01*
X102640581Y-91680250D01*
X102645797Y-91701074D01*
X102648947Y-91722309D01*
X102650000Y-91743750D01*
X102650000Y-92256250D01*
X102648947Y-92277691D01*
X102645797Y-92298926D01*
X102640581Y-92319750D01*
X102633349Y-92339962D01*
X102624170Y-92359368D01*
X102613134Y-92377781D01*
X102600346Y-92395024D01*
X102585930Y-92410930D01*
X102570024Y-92425346D01*
X102552781Y-92438134D01*
X102534368Y-92449170D01*
X102514962Y-92458349D01*
X102494750Y-92465581D01*
X102473926Y-92470797D01*
X102452691Y-92473947D01*
X102431250Y-92475000D01*
X101993750Y-92475000D01*
X101972309Y-92473947D01*
X101951074Y-92470797D01*
X101930250Y-92465581D01*
X101910038Y-92458349D01*
X101890632Y-92449170D01*
X101872219Y-92438134D01*
X101854976Y-92425346D01*
X101839070Y-92410930D01*
X101824654Y-92395024D01*
X101811866Y-92377781D01*
X101800830Y-92359368D01*
X101791651Y-92339962D01*
X101784419Y-92319750D01*
X101779203Y-92298926D01*
X101776053Y-92277691D01*
X101775000Y-92256250D01*
X101775000Y-91743750D01*
X101776053Y-91722309D01*
X101779203Y-91701074D01*
X101784419Y-91680250D01*
X101791651Y-91660038D01*
X101800830Y-91640632D01*
X101811866Y-91622219D01*
X101824654Y-91604976D01*
X101839070Y-91589070D01*
X101854976Y-91574654D01*
X101872219Y-91561866D01*
X101890632Y-91550830D01*
X101910038Y-91541651D01*
X101930250Y-91534419D01*
X101951074Y-91529203D01*
X101972309Y-91526053D01*
X101993750Y-91525000D01*
X102431250Y-91525000D01*
X102452691Y-91526053D01*
X102452691Y-91526053D01*
G37*
D12*
X102212500Y-92000000D03*
D11*
G36*
X104027691Y-91526053D02*
X104048926Y-91529203D01*
X104069750Y-91534419D01*
X104089962Y-91541651D01*
X104109368Y-91550830D01*
X104127781Y-91561866D01*
X104145024Y-91574654D01*
X104160930Y-91589070D01*
X104175346Y-91604976D01*
X104188134Y-91622219D01*
X104199170Y-91640632D01*
X104208349Y-91660038D01*
X104215581Y-91680250D01*
X104220797Y-91701074D01*
X104223947Y-91722309D01*
X104225000Y-91743750D01*
X104225000Y-92256250D01*
X104223947Y-92277691D01*
X104220797Y-92298926D01*
X104215581Y-92319750D01*
X104208349Y-92339962D01*
X104199170Y-92359368D01*
X104188134Y-92377781D01*
X104175346Y-92395024D01*
X104160930Y-92410930D01*
X104145024Y-92425346D01*
X104127781Y-92438134D01*
X104109368Y-92449170D01*
X104089962Y-92458349D01*
X104069750Y-92465581D01*
X104048926Y-92470797D01*
X104027691Y-92473947D01*
X104006250Y-92475000D01*
X103568750Y-92475000D01*
X103547309Y-92473947D01*
X103526074Y-92470797D01*
X103505250Y-92465581D01*
X103485038Y-92458349D01*
X103465632Y-92449170D01*
X103447219Y-92438134D01*
X103429976Y-92425346D01*
X103414070Y-92410930D01*
X103399654Y-92395024D01*
X103386866Y-92377781D01*
X103375830Y-92359368D01*
X103366651Y-92339962D01*
X103359419Y-92319750D01*
X103354203Y-92298926D01*
X103351053Y-92277691D01*
X103350000Y-92256250D01*
X103350000Y-91743750D01*
X103351053Y-91722309D01*
X103354203Y-91701074D01*
X103359419Y-91680250D01*
X103366651Y-91660038D01*
X103375830Y-91640632D01*
X103386866Y-91622219D01*
X103399654Y-91604976D01*
X103414070Y-91589070D01*
X103429976Y-91574654D01*
X103447219Y-91561866D01*
X103465632Y-91550830D01*
X103485038Y-91541651D01*
X103505250Y-91534419D01*
X103526074Y-91529203D01*
X103547309Y-91526053D01*
X103568750Y-91525000D01*
X104006250Y-91525000D01*
X104027691Y-91526053D01*
X104027691Y-91526053D01*
G37*
D12*
X103787500Y-92000000D03*
G04 #@! TD*
D11*
G04 #@! TO.C,R40*
G36*
X102452691Y-103526053D02*
X102473926Y-103529203D01*
X102494750Y-103534419D01*
X102514962Y-103541651D01*
X102534368Y-103550830D01*
X102552781Y-103561866D01*
X102570024Y-103574654D01*
X102585930Y-103589070D01*
X102600346Y-103604976D01*
X102613134Y-103622219D01*
X102624170Y-103640632D01*
X102633349Y-103660038D01*
X102640581Y-103680250D01*
X102645797Y-103701074D01*
X102648947Y-103722309D01*
X102650000Y-103743750D01*
X102650000Y-104256250D01*
X102648947Y-104277691D01*
X102645797Y-104298926D01*
X102640581Y-104319750D01*
X102633349Y-104339962D01*
X102624170Y-104359368D01*
X102613134Y-104377781D01*
X102600346Y-104395024D01*
X102585930Y-104410930D01*
X102570024Y-104425346D01*
X102552781Y-104438134D01*
X102534368Y-104449170D01*
X102514962Y-104458349D01*
X102494750Y-104465581D01*
X102473926Y-104470797D01*
X102452691Y-104473947D01*
X102431250Y-104475000D01*
X101993750Y-104475000D01*
X101972309Y-104473947D01*
X101951074Y-104470797D01*
X101930250Y-104465581D01*
X101910038Y-104458349D01*
X101890632Y-104449170D01*
X101872219Y-104438134D01*
X101854976Y-104425346D01*
X101839070Y-104410930D01*
X101824654Y-104395024D01*
X101811866Y-104377781D01*
X101800830Y-104359368D01*
X101791651Y-104339962D01*
X101784419Y-104319750D01*
X101779203Y-104298926D01*
X101776053Y-104277691D01*
X101775000Y-104256250D01*
X101775000Y-103743750D01*
X101776053Y-103722309D01*
X101779203Y-103701074D01*
X101784419Y-103680250D01*
X101791651Y-103660038D01*
X101800830Y-103640632D01*
X101811866Y-103622219D01*
X101824654Y-103604976D01*
X101839070Y-103589070D01*
X101854976Y-103574654D01*
X101872219Y-103561866D01*
X101890632Y-103550830D01*
X101910038Y-103541651D01*
X101930250Y-103534419D01*
X101951074Y-103529203D01*
X101972309Y-103526053D01*
X101993750Y-103525000D01*
X102431250Y-103525000D01*
X102452691Y-103526053D01*
X102452691Y-103526053D01*
G37*
D12*
X102212500Y-104000000D03*
D11*
G36*
X104027691Y-103526053D02*
X104048926Y-103529203D01*
X104069750Y-103534419D01*
X104089962Y-103541651D01*
X104109368Y-103550830D01*
X104127781Y-103561866D01*
X104145024Y-103574654D01*
X104160930Y-103589070D01*
X104175346Y-103604976D01*
X104188134Y-103622219D01*
X104199170Y-103640632D01*
X104208349Y-103660038D01*
X104215581Y-103680250D01*
X104220797Y-103701074D01*
X104223947Y-103722309D01*
X104225000Y-103743750D01*
X104225000Y-104256250D01*
X104223947Y-104277691D01*
X104220797Y-104298926D01*
X104215581Y-104319750D01*
X104208349Y-104339962D01*
X104199170Y-104359368D01*
X104188134Y-104377781D01*
X104175346Y-104395024D01*
X104160930Y-104410930D01*
X104145024Y-104425346D01*
X104127781Y-104438134D01*
X104109368Y-104449170D01*
X104089962Y-104458349D01*
X104069750Y-104465581D01*
X104048926Y-104470797D01*
X104027691Y-104473947D01*
X104006250Y-104475000D01*
X103568750Y-104475000D01*
X103547309Y-104473947D01*
X103526074Y-104470797D01*
X103505250Y-104465581D01*
X103485038Y-104458349D01*
X103465632Y-104449170D01*
X103447219Y-104438134D01*
X103429976Y-104425346D01*
X103414070Y-104410930D01*
X103399654Y-104395024D01*
X103386866Y-104377781D01*
X103375830Y-104359368D01*
X103366651Y-104339962D01*
X103359419Y-104319750D01*
X103354203Y-104298926D01*
X103351053Y-104277691D01*
X103350000Y-104256250D01*
X103350000Y-103743750D01*
X103351053Y-103722309D01*
X103354203Y-103701074D01*
X103359419Y-103680250D01*
X103366651Y-103660038D01*
X103375830Y-103640632D01*
X103386866Y-103622219D01*
X103399654Y-103604976D01*
X103414070Y-103589070D01*
X103429976Y-103574654D01*
X103447219Y-103561866D01*
X103465632Y-103550830D01*
X103485038Y-103541651D01*
X103505250Y-103534419D01*
X103526074Y-103529203D01*
X103547309Y-103526053D01*
X103568750Y-103525000D01*
X104006250Y-103525000D01*
X104027691Y-103526053D01*
X104027691Y-103526053D01*
G37*
D12*
X103787500Y-104000000D03*
G04 #@! TD*
D11*
G04 #@! TO.C,R41*
G36*
X102452691Y-107526053D02*
X102473926Y-107529203D01*
X102494750Y-107534419D01*
X102514962Y-107541651D01*
X102534368Y-107550830D01*
X102552781Y-107561866D01*
X102570024Y-107574654D01*
X102585930Y-107589070D01*
X102600346Y-107604976D01*
X102613134Y-107622219D01*
X102624170Y-107640632D01*
X102633349Y-107660038D01*
X102640581Y-107680250D01*
X102645797Y-107701074D01*
X102648947Y-107722309D01*
X102650000Y-107743750D01*
X102650000Y-108256250D01*
X102648947Y-108277691D01*
X102645797Y-108298926D01*
X102640581Y-108319750D01*
X102633349Y-108339962D01*
X102624170Y-108359368D01*
X102613134Y-108377781D01*
X102600346Y-108395024D01*
X102585930Y-108410930D01*
X102570024Y-108425346D01*
X102552781Y-108438134D01*
X102534368Y-108449170D01*
X102514962Y-108458349D01*
X102494750Y-108465581D01*
X102473926Y-108470797D01*
X102452691Y-108473947D01*
X102431250Y-108475000D01*
X101993750Y-108475000D01*
X101972309Y-108473947D01*
X101951074Y-108470797D01*
X101930250Y-108465581D01*
X101910038Y-108458349D01*
X101890632Y-108449170D01*
X101872219Y-108438134D01*
X101854976Y-108425346D01*
X101839070Y-108410930D01*
X101824654Y-108395024D01*
X101811866Y-108377781D01*
X101800830Y-108359368D01*
X101791651Y-108339962D01*
X101784419Y-108319750D01*
X101779203Y-108298926D01*
X101776053Y-108277691D01*
X101775000Y-108256250D01*
X101775000Y-107743750D01*
X101776053Y-107722309D01*
X101779203Y-107701074D01*
X101784419Y-107680250D01*
X101791651Y-107660038D01*
X101800830Y-107640632D01*
X101811866Y-107622219D01*
X101824654Y-107604976D01*
X101839070Y-107589070D01*
X101854976Y-107574654D01*
X101872219Y-107561866D01*
X101890632Y-107550830D01*
X101910038Y-107541651D01*
X101930250Y-107534419D01*
X101951074Y-107529203D01*
X101972309Y-107526053D01*
X101993750Y-107525000D01*
X102431250Y-107525000D01*
X102452691Y-107526053D01*
X102452691Y-107526053D01*
G37*
D12*
X102212500Y-108000000D03*
D11*
G36*
X104027691Y-107526053D02*
X104048926Y-107529203D01*
X104069750Y-107534419D01*
X104089962Y-107541651D01*
X104109368Y-107550830D01*
X104127781Y-107561866D01*
X104145024Y-107574654D01*
X104160930Y-107589070D01*
X104175346Y-107604976D01*
X104188134Y-107622219D01*
X104199170Y-107640632D01*
X104208349Y-107660038D01*
X104215581Y-107680250D01*
X104220797Y-107701074D01*
X104223947Y-107722309D01*
X104225000Y-107743750D01*
X104225000Y-108256250D01*
X104223947Y-108277691D01*
X104220797Y-108298926D01*
X104215581Y-108319750D01*
X104208349Y-108339962D01*
X104199170Y-108359368D01*
X104188134Y-108377781D01*
X104175346Y-108395024D01*
X104160930Y-108410930D01*
X104145024Y-108425346D01*
X104127781Y-108438134D01*
X104109368Y-108449170D01*
X104089962Y-108458349D01*
X104069750Y-108465581D01*
X104048926Y-108470797D01*
X104027691Y-108473947D01*
X104006250Y-108475000D01*
X103568750Y-108475000D01*
X103547309Y-108473947D01*
X103526074Y-108470797D01*
X103505250Y-108465581D01*
X103485038Y-108458349D01*
X103465632Y-108449170D01*
X103447219Y-108438134D01*
X103429976Y-108425346D01*
X103414070Y-108410930D01*
X103399654Y-108395024D01*
X103386866Y-108377781D01*
X103375830Y-108359368D01*
X103366651Y-108339962D01*
X103359419Y-108319750D01*
X103354203Y-108298926D01*
X103351053Y-108277691D01*
X103350000Y-108256250D01*
X103350000Y-107743750D01*
X103351053Y-107722309D01*
X103354203Y-107701074D01*
X103359419Y-107680250D01*
X103366651Y-107660038D01*
X103375830Y-107640632D01*
X103386866Y-107622219D01*
X103399654Y-107604976D01*
X103414070Y-107589070D01*
X103429976Y-107574654D01*
X103447219Y-107561866D01*
X103465632Y-107550830D01*
X103485038Y-107541651D01*
X103505250Y-107534419D01*
X103526074Y-107529203D01*
X103547309Y-107526053D01*
X103568750Y-107525000D01*
X104006250Y-107525000D01*
X104027691Y-107526053D01*
X104027691Y-107526053D01*
G37*
D12*
X103787500Y-108000000D03*
G04 #@! TD*
D11*
G04 #@! TO.C,R50*
G36*
X102452691Y-119526053D02*
X102473926Y-119529203D01*
X102494750Y-119534419D01*
X102514962Y-119541651D01*
X102534368Y-119550830D01*
X102552781Y-119561866D01*
X102570024Y-119574654D01*
X102585930Y-119589070D01*
X102600346Y-119604976D01*
X102613134Y-119622219D01*
X102624170Y-119640632D01*
X102633349Y-119660038D01*
X102640581Y-119680250D01*
X102645797Y-119701074D01*
X102648947Y-119722309D01*
X102650000Y-119743750D01*
X102650000Y-120256250D01*
X102648947Y-120277691D01*
X102645797Y-120298926D01*
X102640581Y-120319750D01*
X102633349Y-120339962D01*
X102624170Y-120359368D01*
X102613134Y-120377781D01*
X102600346Y-120395024D01*
X102585930Y-120410930D01*
X102570024Y-120425346D01*
X102552781Y-120438134D01*
X102534368Y-120449170D01*
X102514962Y-120458349D01*
X102494750Y-120465581D01*
X102473926Y-120470797D01*
X102452691Y-120473947D01*
X102431250Y-120475000D01*
X101993750Y-120475000D01*
X101972309Y-120473947D01*
X101951074Y-120470797D01*
X101930250Y-120465581D01*
X101910038Y-120458349D01*
X101890632Y-120449170D01*
X101872219Y-120438134D01*
X101854976Y-120425346D01*
X101839070Y-120410930D01*
X101824654Y-120395024D01*
X101811866Y-120377781D01*
X101800830Y-120359368D01*
X101791651Y-120339962D01*
X101784419Y-120319750D01*
X101779203Y-120298926D01*
X101776053Y-120277691D01*
X101775000Y-120256250D01*
X101775000Y-119743750D01*
X101776053Y-119722309D01*
X101779203Y-119701074D01*
X101784419Y-119680250D01*
X101791651Y-119660038D01*
X101800830Y-119640632D01*
X101811866Y-119622219D01*
X101824654Y-119604976D01*
X101839070Y-119589070D01*
X101854976Y-119574654D01*
X101872219Y-119561866D01*
X101890632Y-119550830D01*
X101910038Y-119541651D01*
X101930250Y-119534419D01*
X101951074Y-119529203D01*
X101972309Y-119526053D01*
X101993750Y-119525000D01*
X102431250Y-119525000D01*
X102452691Y-119526053D01*
X102452691Y-119526053D01*
G37*
D12*
X102212500Y-120000000D03*
D11*
G36*
X104027691Y-119526053D02*
X104048926Y-119529203D01*
X104069750Y-119534419D01*
X104089962Y-119541651D01*
X104109368Y-119550830D01*
X104127781Y-119561866D01*
X104145024Y-119574654D01*
X104160930Y-119589070D01*
X104175346Y-119604976D01*
X104188134Y-119622219D01*
X104199170Y-119640632D01*
X104208349Y-119660038D01*
X104215581Y-119680250D01*
X104220797Y-119701074D01*
X104223947Y-119722309D01*
X104225000Y-119743750D01*
X104225000Y-120256250D01*
X104223947Y-120277691D01*
X104220797Y-120298926D01*
X104215581Y-120319750D01*
X104208349Y-120339962D01*
X104199170Y-120359368D01*
X104188134Y-120377781D01*
X104175346Y-120395024D01*
X104160930Y-120410930D01*
X104145024Y-120425346D01*
X104127781Y-120438134D01*
X104109368Y-120449170D01*
X104089962Y-120458349D01*
X104069750Y-120465581D01*
X104048926Y-120470797D01*
X104027691Y-120473947D01*
X104006250Y-120475000D01*
X103568750Y-120475000D01*
X103547309Y-120473947D01*
X103526074Y-120470797D01*
X103505250Y-120465581D01*
X103485038Y-120458349D01*
X103465632Y-120449170D01*
X103447219Y-120438134D01*
X103429976Y-120425346D01*
X103414070Y-120410930D01*
X103399654Y-120395024D01*
X103386866Y-120377781D01*
X103375830Y-120359368D01*
X103366651Y-120339962D01*
X103359419Y-120319750D01*
X103354203Y-120298926D01*
X103351053Y-120277691D01*
X103350000Y-120256250D01*
X103350000Y-119743750D01*
X103351053Y-119722309D01*
X103354203Y-119701074D01*
X103359419Y-119680250D01*
X103366651Y-119660038D01*
X103375830Y-119640632D01*
X103386866Y-119622219D01*
X103399654Y-119604976D01*
X103414070Y-119589070D01*
X103429976Y-119574654D01*
X103447219Y-119561866D01*
X103465632Y-119550830D01*
X103485038Y-119541651D01*
X103505250Y-119534419D01*
X103526074Y-119529203D01*
X103547309Y-119526053D01*
X103568750Y-119525000D01*
X104006250Y-119525000D01*
X104027691Y-119526053D01*
X104027691Y-119526053D01*
G37*
D12*
X103787500Y-120000000D03*
G04 #@! TD*
D11*
G04 #@! TO.C,R51*
G36*
X102452691Y-123526053D02*
X102473926Y-123529203D01*
X102494750Y-123534419D01*
X102514962Y-123541651D01*
X102534368Y-123550830D01*
X102552781Y-123561866D01*
X102570024Y-123574654D01*
X102585930Y-123589070D01*
X102600346Y-123604976D01*
X102613134Y-123622219D01*
X102624170Y-123640632D01*
X102633349Y-123660038D01*
X102640581Y-123680250D01*
X102645797Y-123701074D01*
X102648947Y-123722309D01*
X102650000Y-123743750D01*
X102650000Y-124256250D01*
X102648947Y-124277691D01*
X102645797Y-124298926D01*
X102640581Y-124319750D01*
X102633349Y-124339962D01*
X102624170Y-124359368D01*
X102613134Y-124377781D01*
X102600346Y-124395024D01*
X102585930Y-124410930D01*
X102570024Y-124425346D01*
X102552781Y-124438134D01*
X102534368Y-124449170D01*
X102514962Y-124458349D01*
X102494750Y-124465581D01*
X102473926Y-124470797D01*
X102452691Y-124473947D01*
X102431250Y-124475000D01*
X101993750Y-124475000D01*
X101972309Y-124473947D01*
X101951074Y-124470797D01*
X101930250Y-124465581D01*
X101910038Y-124458349D01*
X101890632Y-124449170D01*
X101872219Y-124438134D01*
X101854976Y-124425346D01*
X101839070Y-124410930D01*
X101824654Y-124395024D01*
X101811866Y-124377781D01*
X101800830Y-124359368D01*
X101791651Y-124339962D01*
X101784419Y-124319750D01*
X101779203Y-124298926D01*
X101776053Y-124277691D01*
X101775000Y-124256250D01*
X101775000Y-123743750D01*
X101776053Y-123722309D01*
X101779203Y-123701074D01*
X101784419Y-123680250D01*
X101791651Y-123660038D01*
X101800830Y-123640632D01*
X101811866Y-123622219D01*
X101824654Y-123604976D01*
X101839070Y-123589070D01*
X101854976Y-123574654D01*
X101872219Y-123561866D01*
X101890632Y-123550830D01*
X101910038Y-123541651D01*
X101930250Y-123534419D01*
X101951074Y-123529203D01*
X101972309Y-123526053D01*
X101993750Y-123525000D01*
X102431250Y-123525000D01*
X102452691Y-123526053D01*
X102452691Y-123526053D01*
G37*
D12*
X102212500Y-124000000D03*
D11*
G36*
X104027691Y-123526053D02*
X104048926Y-123529203D01*
X104069750Y-123534419D01*
X104089962Y-123541651D01*
X104109368Y-123550830D01*
X104127781Y-123561866D01*
X104145024Y-123574654D01*
X104160930Y-123589070D01*
X104175346Y-123604976D01*
X104188134Y-123622219D01*
X104199170Y-123640632D01*
X104208349Y-123660038D01*
X104215581Y-123680250D01*
X104220797Y-123701074D01*
X104223947Y-123722309D01*
X104225000Y-123743750D01*
X104225000Y-124256250D01*
X104223947Y-124277691D01*
X104220797Y-124298926D01*
X104215581Y-124319750D01*
X104208349Y-124339962D01*
X104199170Y-124359368D01*
X104188134Y-124377781D01*
X104175346Y-124395024D01*
X104160930Y-124410930D01*
X104145024Y-124425346D01*
X104127781Y-124438134D01*
X104109368Y-124449170D01*
X104089962Y-124458349D01*
X104069750Y-124465581D01*
X104048926Y-124470797D01*
X104027691Y-124473947D01*
X104006250Y-124475000D01*
X103568750Y-124475000D01*
X103547309Y-124473947D01*
X103526074Y-124470797D01*
X103505250Y-124465581D01*
X103485038Y-124458349D01*
X103465632Y-124449170D01*
X103447219Y-124438134D01*
X103429976Y-124425346D01*
X103414070Y-124410930D01*
X103399654Y-124395024D01*
X103386866Y-124377781D01*
X103375830Y-124359368D01*
X103366651Y-124339962D01*
X103359419Y-124319750D01*
X103354203Y-124298926D01*
X103351053Y-124277691D01*
X103350000Y-124256250D01*
X103350000Y-123743750D01*
X103351053Y-123722309D01*
X103354203Y-123701074D01*
X103359419Y-123680250D01*
X103366651Y-123660038D01*
X103375830Y-123640632D01*
X103386866Y-123622219D01*
X103399654Y-123604976D01*
X103414070Y-123589070D01*
X103429976Y-123574654D01*
X103447219Y-123561866D01*
X103465632Y-123550830D01*
X103485038Y-123541651D01*
X103505250Y-123534419D01*
X103526074Y-123529203D01*
X103547309Y-123526053D01*
X103568750Y-123525000D01*
X104006250Y-123525000D01*
X104027691Y-123526053D01*
X104027691Y-123526053D01*
G37*
D12*
X103787500Y-124000000D03*
G04 #@! TD*
D11*
G04 #@! TO.C,R60*
G36*
X102452691Y-135526053D02*
X102473926Y-135529203D01*
X102494750Y-135534419D01*
X102514962Y-135541651D01*
X102534368Y-135550830D01*
X102552781Y-135561866D01*
X102570024Y-135574654D01*
X102585930Y-135589070D01*
X102600346Y-135604976D01*
X102613134Y-135622219D01*
X102624170Y-135640632D01*
X102633349Y-135660038D01*
X102640581Y-135680250D01*
X102645797Y-135701074D01*
X102648947Y-135722309D01*
X102650000Y-135743750D01*
X102650000Y-136256250D01*
X102648947Y-136277691D01*
X102645797Y-136298926D01*
X102640581Y-136319750D01*
X102633349Y-136339962D01*
X102624170Y-136359368D01*
X102613134Y-136377781D01*
X102600346Y-136395024D01*
X102585930Y-136410930D01*
X102570024Y-136425346D01*
X102552781Y-136438134D01*
X102534368Y-136449170D01*
X102514962Y-136458349D01*
X102494750Y-136465581D01*
X102473926Y-136470797D01*
X102452691Y-136473947D01*
X102431250Y-136475000D01*
X101993750Y-136475000D01*
X101972309Y-136473947D01*
X101951074Y-136470797D01*
X101930250Y-136465581D01*
X101910038Y-136458349D01*
X101890632Y-136449170D01*
X101872219Y-136438134D01*
X101854976Y-136425346D01*
X101839070Y-136410930D01*
X101824654Y-136395024D01*
X101811866Y-136377781D01*
X101800830Y-136359368D01*
X101791651Y-136339962D01*
X101784419Y-136319750D01*
X101779203Y-136298926D01*
X101776053Y-136277691D01*
X101775000Y-136256250D01*
X101775000Y-135743750D01*
X101776053Y-135722309D01*
X101779203Y-135701074D01*
X101784419Y-135680250D01*
X101791651Y-135660038D01*
X101800830Y-135640632D01*
X101811866Y-135622219D01*
X101824654Y-135604976D01*
X101839070Y-135589070D01*
X101854976Y-135574654D01*
X101872219Y-135561866D01*
X101890632Y-135550830D01*
X101910038Y-135541651D01*
X101930250Y-135534419D01*
X101951074Y-135529203D01*
X101972309Y-135526053D01*
X101993750Y-135525000D01*
X102431250Y-135525000D01*
X102452691Y-135526053D01*
X102452691Y-135526053D01*
G37*
D12*
X102212500Y-136000000D03*
D11*
G36*
X104027691Y-135526053D02*
X104048926Y-135529203D01*
X104069750Y-135534419D01*
X104089962Y-135541651D01*
X104109368Y-135550830D01*
X104127781Y-135561866D01*
X104145024Y-135574654D01*
X104160930Y-135589070D01*
X104175346Y-135604976D01*
X104188134Y-135622219D01*
X104199170Y-135640632D01*
X104208349Y-135660038D01*
X104215581Y-135680250D01*
X104220797Y-135701074D01*
X104223947Y-135722309D01*
X104225000Y-135743750D01*
X104225000Y-136256250D01*
X104223947Y-136277691D01*
X104220797Y-136298926D01*
X104215581Y-136319750D01*
X104208349Y-136339962D01*
X104199170Y-136359368D01*
X104188134Y-136377781D01*
X104175346Y-136395024D01*
X104160930Y-136410930D01*
X104145024Y-136425346D01*
X104127781Y-136438134D01*
X104109368Y-136449170D01*
X104089962Y-136458349D01*
X104069750Y-136465581D01*
X104048926Y-136470797D01*
X104027691Y-136473947D01*
X104006250Y-136475000D01*
X103568750Y-136475000D01*
X103547309Y-136473947D01*
X103526074Y-136470797D01*
X103505250Y-136465581D01*
X103485038Y-136458349D01*
X103465632Y-136449170D01*
X103447219Y-136438134D01*
X103429976Y-136425346D01*
X103414070Y-136410930D01*
X103399654Y-136395024D01*
X103386866Y-136377781D01*
X103375830Y-136359368D01*
X103366651Y-136339962D01*
X103359419Y-136319750D01*
X103354203Y-136298926D01*
X103351053Y-136277691D01*
X103350000Y-136256250D01*
X103350000Y-135743750D01*
X103351053Y-135722309D01*
X103354203Y-135701074D01*
X103359419Y-135680250D01*
X103366651Y-135660038D01*
X103375830Y-135640632D01*
X103386866Y-135622219D01*
X103399654Y-135604976D01*
X103414070Y-135589070D01*
X103429976Y-135574654D01*
X103447219Y-135561866D01*
X103465632Y-135550830D01*
X103485038Y-135541651D01*
X103505250Y-135534419D01*
X103526074Y-135529203D01*
X103547309Y-135526053D01*
X103568750Y-135525000D01*
X104006250Y-135525000D01*
X104027691Y-135526053D01*
X104027691Y-135526053D01*
G37*
D12*
X103787500Y-136000000D03*
G04 #@! TD*
D11*
G04 #@! TO.C,R61*
G36*
X102452691Y-139526053D02*
X102473926Y-139529203D01*
X102494750Y-139534419D01*
X102514962Y-139541651D01*
X102534368Y-139550830D01*
X102552781Y-139561866D01*
X102570024Y-139574654D01*
X102585930Y-139589070D01*
X102600346Y-139604976D01*
X102613134Y-139622219D01*
X102624170Y-139640632D01*
X102633349Y-139660038D01*
X102640581Y-139680250D01*
X102645797Y-139701074D01*
X102648947Y-139722309D01*
X102650000Y-139743750D01*
X102650000Y-140256250D01*
X102648947Y-140277691D01*
X102645797Y-140298926D01*
X102640581Y-140319750D01*
X102633349Y-140339962D01*
X102624170Y-140359368D01*
X102613134Y-140377781D01*
X102600346Y-140395024D01*
X102585930Y-140410930D01*
X102570024Y-140425346D01*
X102552781Y-140438134D01*
X102534368Y-140449170D01*
X102514962Y-140458349D01*
X102494750Y-140465581D01*
X102473926Y-140470797D01*
X102452691Y-140473947D01*
X102431250Y-140475000D01*
X101993750Y-140475000D01*
X101972309Y-140473947D01*
X101951074Y-140470797D01*
X101930250Y-140465581D01*
X101910038Y-140458349D01*
X101890632Y-140449170D01*
X101872219Y-140438134D01*
X101854976Y-140425346D01*
X101839070Y-140410930D01*
X101824654Y-140395024D01*
X101811866Y-140377781D01*
X101800830Y-140359368D01*
X101791651Y-140339962D01*
X101784419Y-140319750D01*
X101779203Y-140298926D01*
X101776053Y-140277691D01*
X101775000Y-140256250D01*
X101775000Y-139743750D01*
X101776053Y-139722309D01*
X101779203Y-139701074D01*
X101784419Y-139680250D01*
X101791651Y-139660038D01*
X101800830Y-139640632D01*
X101811866Y-139622219D01*
X101824654Y-139604976D01*
X101839070Y-139589070D01*
X101854976Y-139574654D01*
X101872219Y-139561866D01*
X101890632Y-139550830D01*
X101910038Y-139541651D01*
X101930250Y-139534419D01*
X101951074Y-139529203D01*
X101972309Y-139526053D01*
X101993750Y-139525000D01*
X102431250Y-139525000D01*
X102452691Y-139526053D01*
X102452691Y-139526053D01*
G37*
D12*
X102212500Y-140000000D03*
D11*
G36*
X104027691Y-139526053D02*
X104048926Y-139529203D01*
X104069750Y-139534419D01*
X104089962Y-139541651D01*
X104109368Y-139550830D01*
X104127781Y-139561866D01*
X104145024Y-139574654D01*
X104160930Y-139589070D01*
X104175346Y-139604976D01*
X104188134Y-139622219D01*
X104199170Y-139640632D01*
X104208349Y-139660038D01*
X104215581Y-139680250D01*
X104220797Y-139701074D01*
X104223947Y-139722309D01*
X104225000Y-139743750D01*
X104225000Y-140256250D01*
X104223947Y-140277691D01*
X104220797Y-140298926D01*
X104215581Y-140319750D01*
X104208349Y-140339962D01*
X104199170Y-140359368D01*
X104188134Y-140377781D01*
X104175346Y-140395024D01*
X104160930Y-140410930D01*
X104145024Y-140425346D01*
X104127781Y-140438134D01*
X104109368Y-140449170D01*
X104089962Y-140458349D01*
X104069750Y-140465581D01*
X104048926Y-140470797D01*
X104027691Y-140473947D01*
X104006250Y-140475000D01*
X103568750Y-140475000D01*
X103547309Y-140473947D01*
X103526074Y-140470797D01*
X103505250Y-140465581D01*
X103485038Y-140458349D01*
X103465632Y-140449170D01*
X103447219Y-140438134D01*
X103429976Y-140425346D01*
X103414070Y-140410930D01*
X103399654Y-140395024D01*
X103386866Y-140377781D01*
X103375830Y-140359368D01*
X103366651Y-140339962D01*
X103359419Y-140319750D01*
X103354203Y-140298926D01*
X103351053Y-140277691D01*
X103350000Y-140256250D01*
X103350000Y-139743750D01*
X103351053Y-139722309D01*
X103354203Y-139701074D01*
X103359419Y-139680250D01*
X103366651Y-139660038D01*
X103375830Y-139640632D01*
X103386866Y-139622219D01*
X103399654Y-139604976D01*
X103414070Y-139589070D01*
X103429976Y-139574654D01*
X103447219Y-139561866D01*
X103465632Y-139550830D01*
X103485038Y-139541651D01*
X103505250Y-139534419D01*
X103526074Y-139529203D01*
X103547309Y-139526053D01*
X103568750Y-139525000D01*
X104006250Y-139525000D01*
X104027691Y-139526053D01*
X104027691Y-139526053D01*
G37*
D12*
X103787500Y-140000000D03*
G04 #@! TD*
D11*
G04 #@! TO.C,R70*
G36*
X102452691Y-151526053D02*
X102473926Y-151529203D01*
X102494750Y-151534419D01*
X102514962Y-151541651D01*
X102534368Y-151550830D01*
X102552781Y-151561866D01*
X102570024Y-151574654D01*
X102585930Y-151589070D01*
X102600346Y-151604976D01*
X102613134Y-151622219D01*
X102624170Y-151640632D01*
X102633349Y-151660038D01*
X102640581Y-151680250D01*
X102645797Y-151701074D01*
X102648947Y-151722309D01*
X102650000Y-151743750D01*
X102650000Y-152256250D01*
X102648947Y-152277691D01*
X102645797Y-152298926D01*
X102640581Y-152319750D01*
X102633349Y-152339962D01*
X102624170Y-152359368D01*
X102613134Y-152377781D01*
X102600346Y-152395024D01*
X102585930Y-152410930D01*
X102570024Y-152425346D01*
X102552781Y-152438134D01*
X102534368Y-152449170D01*
X102514962Y-152458349D01*
X102494750Y-152465581D01*
X102473926Y-152470797D01*
X102452691Y-152473947D01*
X102431250Y-152475000D01*
X101993750Y-152475000D01*
X101972309Y-152473947D01*
X101951074Y-152470797D01*
X101930250Y-152465581D01*
X101910038Y-152458349D01*
X101890632Y-152449170D01*
X101872219Y-152438134D01*
X101854976Y-152425346D01*
X101839070Y-152410930D01*
X101824654Y-152395024D01*
X101811866Y-152377781D01*
X101800830Y-152359368D01*
X101791651Y-152339962D01*
X101784419Y-152319750D01*
X101779203Y-152298926D01*
X101776053Y-152277691D01*
X101775000Y-152256250D01*
X101775000Y-151743750D01*
X101776053Y-151722309D01*
X101779203Y-151701074D01*
X101784419Y-151680250D01*
X101791651Y-151660038D01*
X101800830Y-151640632D01*
X101811866Y-151622219D01*
X101824654Y-151604976D01*
X101839070Y-151589070D01*
X101854976Y-151574654D01*
X101872219Y-151561866D01*
X101890632Y-151550830D01*
X101910038Y-151541651D01*
X101930250Y-151534419D01*
X101951074Y-151529203D01*
X101972309Y-151526053D01*
X101993750Y-151525000D01*
X102431250Y-151525000D01*
X102452691Y-151526053D01*
X102452691Y-151526053D01*
G37*
D12*
X102212500Y-152000000D03*
D11*
G36*
X104027691Y-151526053D02*
X104048926Y-151529203D01*
X104069750Y-151534419D01*
X104089962Y-151541651D01*
X104109368Y-151550830D01*
X104127781Y-151561866D01*
X104145024Y-151574654D01*
X104160930Y-151589070D01*
X104175346Y-151604976D01*
X104188134Y-151622219D01*
X104199170Y-151640632D01*
X104208349Y-151660038D01*
X104215581Y-151680250D01*
X104220797Y-151701074D01*
X104223947Y-151722309D01*
X104225000Y-151743750D01*
X104225000Y-152256250D01*
X104223947Y-152277691D01*
X104220797Y-152298926D01*
X104215581Y-152319750D01*
X104208349Y-152339962D01*
X104199170Y-152359368D01*
X104188134Y-152377781D01*
X104175346Y-152395024D01*
X104160930Y-152410930D01*
X104145024Y-152425346D01*
X104127781Y-152438134D01*
X104109368Y-152449170D01*
X104089962Y-152458349D01*
X104069750Y-152465581D01*
X104048926Y-152470797D01*
X104027691Y-152473947D01*
X104006250Y-152475000D01*
X103568750Y-152475000D01*
X103547309Y-152473947D01*
X103526074Y-152470797D01*
X103505250Y-152465581D01*
X103485038Y-152458349D01*
X103465632Y-152449170D01*
X103447219Y-152438134D01*
X103429976Y-152425346D01*
X103414070Y-152410930D01*
X103399654Y-152395024D01*
X103386866Y-152377781D01*
X103375830Y-152359368D01*
X103366651Y-152339962D01*
X103359419Y-152319750D01*
X103354203Y-152298926D01*
X103351053Y-152277691D01*
X103350000Y-152256250D01*
X103350000Y-151743750D01*
X103351053Y-151722309D01*
X103354203Y-151701074D01*
X103359419Y-151680250D01*
X103366651Y-151660038D01*
X103375830Y-151640632D01*
X103386866Y-151622219D01*
X103399654Y-151604976D01*
X103414070Y-151589070D01*
X103429976Y-151574654D01*
X103447219Y-151561866D01*
X103465632Y-151550830D01*
X103485038Y-151541651D01*
X103505250Y-151534419D01*
X103526074Y-151529203D01*
X103547309Y-151526053D01*
X103568750Y-151525000D01*
X104006250Y-151525000D01*
X104027691Y-151526053D01*
X104027691Y-151526053D01*
G37*
D12*
X103787500Y-152000000D03*
G04 #@! TD*
D11*
G04 #@! TO.C,R71*
G36*
X102452691Y-155526053D02*
X102473926Y-155529203D01*
X102494750Y-155534419D01*
X102514962Y-155541651D01*
X102534368Y-155550830D01*
X102552781Y-155561866D01*
X102570024Y-155574654D01*
X102585930Y-155589070D01*
X102600346Y-155604976D01*
X102613134Y-155622219D01*
X102624170Y-155640632D01*
X102633349Y-155660038D01*
X102640581Y-155680250D01*
X102645797Y-155701074D01*
X102648947Y-155722309D01*
X102650000Y-155743750D01*
X102650000Y-156256250D01*
X102648947Y-156277691D01*
X102645797Y-156298926D01*
X102640581Y-156319750D01*
X102633349Y-156339962D01*
X102624170Y-156359368D01*
X102613134Y-156377781D01*
X102600346Y-156395024D01*
X102585930Y-156410930D01*
X102570024Y-156425346D01*
X102552781Y-156438134D01*
X102534368Y-156449170D01*
X102514962Y-156458349D01*
X102494750Y-156465581D01*
X102473926Y-156470797D01*
X102452691Y-156473947D01*
X102431250Y-156475000D01*
X101993750Y-156475000D01*
X101972309Y-156473947D01*
X101951074Y-156470797D01*
X101930250Y-156465581D01*
X101910038Y-156458349D01*
X101890632Y-156449170D01*
X101872219Y-156438134D01*
X101854976Y-156425346D01*
X101839070Y-156410930D01*
X101824654Y-156395024D01*
X101811866Y-156377781D01*
X101800830Y-156359368D01*
X101791651Y-156339962D01*
X101784419Y-156319750D01*
X101779203Y-156298926D01*
X101776053Y-156277691D01*
X101775000Y-156256250D01*
X101775000Y-155743750D01*
X101776053Y-155722309D01*
X101779203Y-155701074D01*
X101784419Y-155680250D01*
X101791651Y-155660038D01*
X101800830Y-155640632D01*
X101811866Y-155622219D01*
X101824654Y-155604976D01*
X101839070Y-155589070D01*
X101854976Y-155574654D01*
X101872219Y-155561866D01*
X101890632Y-155550830D01*
X101910038Y-155541651D01*
X101930250Y-155534419D01*
X101951074Y-155529203D01*
X101972309Y-155526053D01*
X101993750Y-155525000D01*
X102431250Y-155525000D01*
X102452691Y-155526053D01*
X102452691Y-155526053D01*
G37*
D12*
X102212500Y-156000000D03*
D11*
G36*
X104027691Y-155526053D02*
X104048926Y-155529203D01*
X104069750Y-155534419D01*
X104089962Y-155541651D01*
X104109368Y-155550830D01*
X104127781Y-155561866D01*
X104145024Y-155574654D01*
X104160930Y-155589070D01*
X104175346Y-155604976D01*
X104188134Y-155622219D01*
X104199170Y-155640632D01*
X104208349Y-155660038D01*
X104215581Y-155680250D01*
X104220797Y-155701074D01*
X104223947Y-155722309D01*
X104225000Y-155743750D01*
X104225000Y-156256250D01*
X104223947Y-156277691D01*
X104220797Y-156298926D01*
X104215581Y-156319750D01*
X104208349Y-156339962D01*
X104199170Y-156359368D01*
X104188134Y-156377781D01*
X104175346Y-156395024D01*
X104160930Y-156410930D01*
X104145024Y-156425346D01*
X104127781Y-156438134D01*
X104109368Y-156449170D01*
X104089962Y-156458349D01*
X104069750Y-156465581D01*
X104048926Y-156470797D01*
X104027691Y-156473947D01*
X104006250Y-156475000D01*
X103568750Y-156475000D01*
X103547309Y-156473947D01*
X103526074Y-156470797D01*
X103505250Y-156465581D01*
X103485038Y-156458349D01*
X103465632Y-156449170D01*
X103447219Y-156438134D01*
X103429976Y-156425346D01*
X103414070Y-156410930D01*
X103399654Y-156395024D01*
X103386866Y-156377781D01*
X103375830Y-156359368D01*
X103366651Y-156339962D01*
X103359419Y-156319750D01*
X103354203Y-156298926D01*
X103351053Y-156277691D01*
X103350000Y-156256250D01*
X103350000Y-155743750D01*
X103351053Y-155722309D01*
X103354203Y-155701074D01*
X103359419Y-155680250D01*
X103366651Y-155660038D01*
X103375830Y-155640632D01*
X103386866Y-155622219D01*
X103399654Y-155604976D01*
X103414070Y-155589070D01*
X103429976Y-155574654D01*
X103447219Y-155561866D01*
X103465632Y-155550830D01*
X103485038Y-155541651D01*
X103505250Y-155534419D01*
X103526074Y-155529203D01*
X103547309Y-155526053D01*
X103568750Y-155525000D01*
X104006250Y-155525000D01*
X104027691Y-155526053D01*
X104027691Y-155526053D01*
G37*
D12*
X103787500Y-156000000D03*
G04 #@! TD*
D10*
G04 #@! TO.C,J01*
X133645000Y-146970000D03*
X133645000Y-141890000D03*
X133645000Y-136810000D03*
X133645000Y-131730000D03*
X133645000Y-126650000D03*
X133645000Y-121570000D03*
X136955000Y-144430000D03*
X136955000Y-139350000D03*
X136955000Y-134270000D03*
X136955000Y-129190000D03*
X136955000Y-124110000D03*
X136955000Y-119030000D03*
G04 #@! TD*
D11*
G04 #@! TO.C,C80*
G36*
X151277691Y-114776053D02*
X151298926Y-114779203D01*
X151319750Y-114784419D01*
X151339962Y-114791651D01*
X151359368Y-114800830D01*
X151377781Y-114811866D01*
X151395024Y-114824654D01*
X151410930Y-114839070D01*
X151425346Y-114854976D01*
X151438134Y-114872219D01*
X151449170Y-114890632D01*
X151458349Y-114910038D01*
X151465581Y-114930250D01*
X151470797Y-114951074D01*
X151473947Y-114972309D01*
X151475000Y-114993750D01*
X151475000Y-115431250D01*
X151473947Y-115452691D01*
X151470797Y-115473926D01*
X151465581Y-115494750D01*
X151458349Y-115514962D01*
X151449170Y-115534368D01*
X151438134Y-115552781D01*
X151425346Y-115570024D01*
X151410930Y-115585930D01*
X151395024Y-115600346D01*
X151377781Y-115613134D01*
X151359368Y-115624170D01*
X151339962Y-115633349D01*
X151319750Y-115640581D01*
X151298926Y-115645797D01*
X151277691Y-115648947D01*
X151256250Y-115650000D01*
X150743750Y-115650000D01*
X150722309Y-115648947D01*
X150701074Y-115645797D01*
X150680250Y-115640581D01*
X150660038Y-115633349D01*
X150640632Y-115624170D01*
X150622219Y-115613134D01*
X150604976Y-115600346D01*
X150589070Y-115585930D01*
X150574654Y-115570024D01*
X150561866Y-115552781D01*
X150550830Y-115534368D01*
X150541651Y-115514962D01*
X150534419Y-115494750D01*
X150529203Y-115473926D01*
X150526053Y-115452691D01*
X150525000Y-115431250D01*
X150525000Y-114993750D01*
X150526053Y-114972309D01*
X150529203Y-114951074D01*
X150534419Y-114930250D01*
X150541651Y-114910038D01*
X150550830Y-114890632D01*
X150561866Y-114872219D01*
X150574654Y-114854976D01*
X150589070Y-114839070D01*
X150604976Y-114824654D01*
X150622219Y-114811866D01*
X150640632Y-114800830D01*
X150660038Y-114791651D01*
X150680250Y-114784419D01*
X150701074Y-114779203D01*
X150722309Y-114776053D01*
X150743750Y-114775000D01*
X151256250Y-114775000D01*
X151277691Y-114776053D01*
X151277691Y-114776053D01*
G37*
D12*
X151000000Y-115212500D03*
D11*
G36*
X151277691Y-116351053D02*
X151298926Y-116354203D01*
X151319750Y-116359419D01*
X151339962Y-116366651D01*
X151359368Y-116375830D01*
X151377781Y-116386866D01*
X151395024Y-116399654D01*
X151410930Y-116414070D01*
X151425346Y-116429976D01*
X151438134Y-116447219D01*
X151449170Y-116465632D01*
X151458349Y-116485038D01*
X151465581Y-116505250D01*
X151470797Y-116526074D01*
X151473947Y-116547309D01*
X151475000Y-116568750D01*
X151475000Y-117006250D01*
X151473947Y-117027691D01*
X151470797Y-117048926D01*
X151465581Y-117069750D01*
X151458349Y-117089962D01*
X151449170Y-117109368D01*
X151438134Y-117127781D01*
X151425346Y-117145024D01*
X151410930Y-117160930D01*
X151395024Y-117175346D01*
X151377781Y-117188134D01*
X151359368Y-117199170D01*
X151339962Y-117208349D01*
X151319750Y-117215581D01*
X151298926Y-117220797D01*
X151277691Y-117223947D01*
X151256250Y-117225000D01*
X150743750Y-117225000D01*
X150722309Y-117223947D01*
X150701074Y-117220797D01*
X150680250Y-117215581D01*
X150660038Y-117208349D01*
X150640632Y-117199170D01*
X150622219Y-117188134D01*
X150604976Y-117175346D01*
X150589070Y-117160930D01*
X150574654Y-117145024D01*
X150561866Y-117127781D01*
X150550830Y-117109368D01*
X150541651Y-117089962D01*
X150534419Y-117069750D01*
X150529203Y-117048926D01*
X150526053Y-117027691D01*
X150525000Y-117006250D01*
X150525000Y-116568750D01*
X150526053Y-116547309D01*
X150529203Y-116526074D01*
X150534419Y-116505250D01*
X150541651Y-116485038D01*
X150550830Y-116465632D01*
X150561866Y-116447219D01*
X150574654Y-116429976D01*
X150589070Y-116414070D01*
X150604976Y-116399654D01*
X150622219Y-116386866D01*
X150640632Y-116375830D01*
X150660038Y-116366651D01*
X150680250Y-116359419D01*
X150701074Y-116354203D01*
X150722309Y-116351053D01*
X150743750Y-116350000D01*
X151256250Y-116350000D01*
X151277691Y-116351053D01*
X151277691Y-116351053D01*
G37*
D12*
X151000000Y-116787500D03*
G04 #@! TD*
D11*
G04 #@! TO.C,R03*
G36*
X139452691Y-155526053D02*
X139473926Y-155529203D01*
X139494750Y-155534419D01*
X139514962Y-155541651D01*
X139534368Y-155550830D01*
X139552781Y-155561866D01*
X139570024Y-155574654D01*
X139585930Y-155589070D01*
X139600346Y-155604976D01*
X139613134Y-155622219D01*
X139624170Y-155640632D01*
X139633349Y-155660038D01*
X139640581Y-155680250D01*
X139645797Y-155701074D01*
X139648947Y-155722309D01*
X139650000Y-155743750D01*
X139650000Y-156256250D01*
X139648947Y-156277691D01*
X139645797Y-156298926D01*
X139640581Y-156319750D01*
X139633349Y-156339962D01*
X139624170Y-156359368D01*
X139613134Y-156377781D01*
X139600346Y-156395024D01*
X139585930Y-156410930D01*
X139570024Y-156425346D01*
X139552781Y-156438134D01*
X139534368Y-156449170D01*
X139514962Y-156458349D01*
X139494750Y-156465581D01*
X139473926Y-156470797D01*
X139452691Y-156473947D01*
X139431250Y-156475000D01*
X138993750Y-156475000D01*
X138972309Y-156473947D01*
X138951074Y-156470797D01*
X138930250Y-156465581D01*
X138910038Y-156458349D01*
X138890632Y-156449170D01*
X138872219Y-156438134D01*
X138854976Y-156425346D01*
X138839070Y-156410930D01*
X138824654Y-156395024D01*
X138811866Y-156377781D01*
X138800830Y-156359368D01*
X138791651Y-156339962D01*
X138784419Y-156319750D01*
X138779203Y-156298926D01*
X138776053Y-156277691D01*
X138775000Y-156256250D01*
X138775000Y-155743750D01*
X138776053Y-155722309D01*
X138779203Y-155701074D01*
X138784419Y-155680250D01*
X138791651Y-155660038D01*
X138800830Y-155640632D01*
X138811866Y-155622219D01*
X138824654Y-155604976D01*
X138839070Y-155589070D01*
X138854976Y-155574654D01*
X138872219Y-155561866D01*
X138890632Y-155550830D01*
X138910038Y-155541651D01*
X138930250Y-155534419D01*
X138951074Y-155529203D01*
X138972309Y-155526053D01*
X138993750Y-155525000D01*
X139431250Y-155525000D01*
X139452691Y-155526053D01*
X139452691Y-155526053D01*
G37*
D12*
X139212500Y-156000000D03*
D11*
G36*
X141027691Y-155526053D02*
X141048926Y-155529203D01*
X141069750Y-155534419D01*
X141089962Y-155541651D01*
X141109368Y-155550830D01*
X141127781Y-155561866D01*
X141145024Y-155574654D01*
X141160930Y-155589070D01*
X141175346Y-155604976D01*
X141188134Y-155622219D01*
X141199170Y-155640632D01*
X141208349Y-155660038D01*
X141215581Y-155680250D01*
X141220797Y-155701074D01*
X141223947Y-155722309D01*
X141225000Y-155743750D01*
X141225000Y-156256250D01*
X141223947Y-156277691D01*
X141220797Y-156298926D01*
X141215581Y-156319750D01*
X141208349Y-156339962D01*
X141199170Y-156359368D01*
X141188134Y-156377781D01*
X141175346Y-156395024D01*
X141160930Y-156410930D01*
X141145024Y-156425346D01*
X141127781Y-156438134D01*
X141109368Y-156449170D01*
X141089962Y-156458349D01*
X141069750Y-156465581D01*
X141048926Y-156470797D01*
X141027691Y-156473947D01*
X141006250Y-156475000D01*
X140568750Y-156475000D01*
X140547309Y-156473947D01*
X140526074Y-156470797D01*
X140505250Y-156465581D01*
X140485038Y-156458349D01*
X140465632Y-156449170D01*
X140447219Y-156438134D01*
X140429976Y-156425346D01*
X140414070Y-156410930D01*
X140399654Y-156395024D01*
X140386866Y-156377781D01*
X140375830Y-156359368D01*
X140366651Y-156339962D01*
X140359419Y-156319750D01*
X140354203Y-156298926D01*
X140351053Y-156277691D01*
X140350000Y-156256250D01*
X140350000Y-155743750D01*
X140351053Y-155722309D01*
X140354203Y-155701074D01*
X140359419Y-155680250D01*
X140366651Y-155660038D01*
X140375830Y-155640632D01*
X140386866Y-155622219D01*
X140399654Y-155604976D01*
X140414070Y-155589070D01*
X140429976Y-155574654D01*
X140447219Y-155561866D01*
X140465632Y-155550830D01*
X140485038Y-155541651D01*
X140505250Y-155534419D01*
X140526074Y-155529203D01*
X140547309Y-155526053D01*
X140568750Y-155525000D01*
X141006250Y-155525000D01*
X141027691Y-155526053D01*
X141027691Y-155526053D01*
G37*
D12*
X140787500Y-156000000D03*
G04 #@! TD*
D11*
G04 #@! TO.C,R80*
G36*
X145277691Y-116351053D02*
X145298926Y-116354203D01*
X145319750Y-116359419D01*
X145339962Y-116366651D01*
X145359368Y-116375830D01*
X145377781Y-116386866D01*
X145395024Y-116399654D01*
X145410930Y-116414070D01*
X145425346Y-116429976D01*
X145438134Y-116447219D01*
X145449170Y-116465632D01*
X145458349Y-116485038D01*
X145465581Y-116505250D01*
X145470797Y-116526074D01*
X145473947Y-116547309D01*
X145475000Y-116568750D01*
X145475000Y-117006250D01*
X145473947Y-117027691D01*
X145470797Y-117048926D01*
X145465581Y-117069750D01*
X145458349Y-117089962D01*
X145449170Y-117109368D01*
X145438134Y-117127781D01*
X145425346Y-117145024D01*
X145410930Y-117160930D01*
X145395024Y-117175346D01*
X145377781Y-117188134D01*
X145359368Y-117199170D01*
X145339962Y-117208349D01*
X145319750Y-117215581D01*
X145298926Y-117220797D01*
X145277691Y-117223947D01*
X145256250Y-117225000D01*
X144743750Y-117225000D01*
X144722309Y-117223947D01*
X144701074Y-117220797D01*
X144680250Y-117215581D01*
X144660038Y-117208349D01*
X144640632Y-117199170D01*
X144622219Y-117188134D01*
X144604976Y-117175346D01*
X144589070Y-117160930D01*
X144574654Y-117145024D01*
X144561866Y-117127781D01*
X144550830Y-117109368D01*
X144541651Y-117089962D01*
X144534419Y-117069750D01*
X144529203Y-117048926D01*
X144526053Y-117027691D01*
X144525000Y-117006250D01*
X144525000Y-116568750D01*
X144526053Y-116547309D01*
X144529203Y-116526074D01*
X144534419Y-116505250D01*
X144541651Y-116485038D01*
X144550830Y-116465632D01*
X144561866Y-116447219D01*
X144574654Y-116429976D01*
X144589070Y-116414070D01*
X144604976Y-116399654D01*
X144622219Y-116386866D01*
X144640632Y-116375830D01*
X144660038Y-116366651D01*
X144680250Y-116359419D01*
X144701074Y-116354203D01*
X144722309Y-116351053D01*
X144743750Y-116350000D01*
X145256250Y-116350000D01*
X145277691Y-116351053D01*
X145277691Y-116351053D01*
G37*
D12*
X145000000Y-116787500D03*
D11*
G36*
X145277691Y-114776053D02*
X145298926Y-114779203D01*
X145319750Y-114784419D01*
X145339962Y-114791651D01*
X145359368Y-114800830D01*
X145377781Y-114811866D01*
X145395024Y-114824654D01*
X145410930Y-114839070D01*
X145425346Y-114854976D01*
X145438134Y-114872219D01*
X145449170Y-114890632D01*
X145458349Y-114910038D01*
X145465581Y-114930250D01*
X145470797Y-114951074D01*
X145473947Y-114972309D01*
X145475000Y-114993750D01*
X145475000Y-115431250D01*
X145473947Y-115452691D01*
X145470797Y-115473926D01*
X145465581Y-115494750D01*
X145458349Y-115514962D01*
X145449170Y-115534368D01*
X145438134Y-115552781D01*
X145425346Y-115570024D01*
X145410930Y-115585930D01*
X145395024Y-115600346D01*
X145377781Y-115613134D01*
X145359368Y-115624170D01*
X145339962Y-115633349D01*
X145319750Y-115640581D01*
X145298926Y-115645797D01*
X145277691Y-115648947D01*
X145256250Y-115650000D01*
X144743750Y-115650000D01*
X144722309Y-115648947D01*
X144701074Y-115645797D01*
X144680250Y-115640581D01*
X144660038Y-115633349D01*
X144640632Y-115624170D01*
X144622219Y-115613134D01*
X144604976Y-115600346D01*
X144589070Y-115585930D01*
X144574654Y-115570024D01*
X144561866Y-115552781D01*
X144550830Y-115534368D01*
X144541651Y-115514962D01*
X144534419Y-115494750D01*
X144529203Y-115473926D01*
X144526053Y-115452691D01*
X144525000Y-115431250D01*
X144525000Y-114993750D01*
X144526053Y-114972309D01*
X144529203Y-114951074D01*
X144534419Y-114930250D01*
X144541651Y-114910038D01*
X144550830Y-114890632D01*
X144561866Y-114872219D01*
X144574654Y-114854976D01*
X144589070Y-114839070D01*
X144604976Y-114824654D01*
X144622219Y-114811866D01*
X144640632Y-114800830D01*
X144660038Y-114791651D01*
X144680250Y-114784419D01*
X144701074Y-114779203D01*
X144722309Y-114776053D01*
X144743750Y-114775000D01*
X145256250Y-114775000D01*
X145277691Y-114776053D01*
X145277691Y-114776053D01*
G37*
D12*
X145000000Y-115212500D03*
G04 #@! TD*
D11*
G04 #@! TO.C,R81*
G36*
X147277691Y-114776053D02*
X147298926Y-114779203D01*
X147319750Y-114784419D01*
X147339962Y-114791651D01*
X147359368Y-114800830D01*
X147377781Y-114811866D01*
X147395024Y-114824654D01*
X147410930Y-114839070D01*
X147425346Y-114854976D01*
X147438134Y-114872219D01*
X147449170Y-114890632D01*
X147458349Y-114910038D01*
X147465581Y-114930250D01*
X147470797Y-114951074D01*
X147473947Y-114972309D01*
X147475000Y-114993750D01*
X147475000Y-115431250D01*
X147473947Y-115452691D01*
X147470797Y-115473926D01*
X147465581Y-115494750D01*
X147458349Y-115514962D01*
X147449170Y-115534368D01*
X147438134Y-115552781D01*
X147425346Y-115570024D01*
X147410930Y-115585930D01*
X147395024Y-115600346D01*
X147377781Y-115613134D01*
X147359368Y-115624170D01*
X147339962Y-115633349D01*
X147319750Y-115640581D01*
X147298926Y-115645797D01*
X147277691Y-115648947D01*
X147256250Y-115650000D01*
X146743750Y-115650000D01*
X146722309Y-115648947D01*
X146701074Y-115645797D01*
X146680250Y-115640581D01*
X146660038Y-115633349D01*
X146640632Y-115624170D01*
X146622219Y-115613134D01*
X146604976Y-115600346D01*
X146589070Y-115585930D01*
X146574654Y-115570024D01*
X146561866Y-115552781D01*
X146550830Y-115534368D01*
X146541651Y-115514962D01*
X146534419Y-115494750D01*
X146529203Y-115473926D01*
X146526053Y-115452691D01*
X146525000Y-115431250D01*
X146525000Y-114993750D01*
X146526053Y-114972309D01*
X146529203Y-114951074D01*
X146534419Y-114930250D01*
X146541651Y-114910038D01*
X146550830Y-114890632D01*
X146561866Y-114872219D01*
X146574654Y-114854976D01*
X146589070Y-114839070D01*
X146604976Y-114824654D01*
X146622219Y-114811866D01*
X146640632Y-114800830D01*
X146660038Y-114791651D01*
X146680250Y-114784419D01*
X146701074Y-114779203D01*
X146722309Y-114776053D01*
X146743750Y-114775000D01*
X147256250Y-114775000D01*
X147277691Y-114776053D01*
X147277691Y-114776053D01*
G37*
D12*
X147000000Y-115212500D03*
D11*
G36*
X147277691Y-116351053D02*
X147298926Y-116354203D01*
X147319750Y-116359419D01*
X147339962Y-116366651D01*
X147359368Y-116375830D01*
X147377781Y-116386866D01*
X147395024Y-116399654D01*
X147410930Y-116414070D01*
X147425346Y-116429976D01*
X147438134Y-116447219D01*
X147449170Y-116465632D01*
X147458349Y-116485038D01*
X147465581Y-116505250D01*
X147470797Y-116526074D01*
X147473947Y-116547309D01*
X147475000Y-116568750D01*
X147475000Y-117006250D01*
X147473947Y-117027691D01*
X147470797Y-117048926D01*
X147465581Y-117069750D01*
X147458349Y-117089962D01*
X147449170Y-117109368D01*
X147438134Y-117127781D01*
X147425346Y-117145024D01*
X147410930Y-117160930D01*
X147395024Y-117175346D01*
X147377781Y-117188134D01*
X147359368Y-117199170D01*
X147339962Y-117208349D01*
X147319750Y-117215581D01*
X147298926Y-117220797D01*
X147277691Y-117223947D01*
X147256250Y-117225000D01*
X146743750Y-117225000D01*
X146722309Y-117223947D01*
X146701074Y-117220797D01*
X146680250Y-117215581D01*
X146660038Y-117208349D01*
X146640632Y-117199170D01*
X146622219Y-117188134D01*
X146604976Y-117175346D01*
X146589070Y-117160930D01*
X146574654Y-117145024D01*
X146561866Y-117127781D01*
X146550830Y-117109368D01*
X146541651Y-117089962D01*
X146534419Y-117069750D01*
X146529203Y-117048926D01*
X146526053Y-117027691D01*
X146525000Y-117006250D01*
X146525000Y-116568750D01*
X146526053Y-116547309D01*
X146529203Y-116526074D01*
X146534419Y-116505250D01*
X146541651Y-116485038D01*
X146550830Y-116465632D01*
X146561866Y-116447219D01*
X146574654Y-116429976D01*
X146589070Y-116414070D01*
X146604976Y-116399654D01*
X146622219Y-116386866D01*
X146640632Y-116375830D01*
X146660038Y-116366651D01*
X146680250Y-116359419D01*
X146701074Y-116354203D01*
X146722309Y-116351053D01*
X146743750Y-116350000D01*
X147256250Y-116350000D01*
X147277691Y-116351053D01*
X147277691Y-116351053D01*
G37*
D12*
X147000000Y-116787500D03*
G04 #@! TD*
D11*
G04 #@! TO.C,R82*
G36*
X149277691Y-116351053D02*
X149298926Y-116354203D01*
X149319750Y-116359419D01*
X149339962Y-116366651D01*
X149359368Y-116375830D01*
X149377781Y-116386866D01*
X149395024Y-116399654D01*
X149410930Y-116414070D01*
X149425346Y-116429976D01*
X149438134Y-116447219D01*
X149449170Y-116465632D01*
X149458349Y-116485038D01*
X149465581Y-116505250D01*
X149470797Y-116526074D01*
X149473947Y-116547309D01*
X149475000Y-116568750D01*
X149475000Y-117006250D01*
X149473947Y-117027691D01*
X149470797Y-117048926D01*
X149465581Y-117069750D01*
X149458349Y-117089962D01*
X149449170Y-117109368D01*
X149438134Y-117127781D01*
X149425346Y-117145024D01*
X149410930Y-117160930D01*
X149395024Y-117175346D01*
X149377781Y-117188134D01*
X149359368Y-117199170D01*
X149339962Y-117208349D01*
X149319750Y-117215581D01*
X149298926Y-117220797D01*
X149277691Y-117223947D01*
X149256250Y-117225000D01*
X148743750Y-117225000D01*
X148722309Y-117223947D01*
X148701074Y-117220797D01*
X148680250Y-117215581D01*
X148660038Y-117208349D01*
X148640632Y-117199170D01*
X148622219Y-117188134D01*
X148604976Y-117175346D01*
X148589070Y-117160930D01*
X148574654Y-117145024D01*
X148561866Y-117127781D01*
X148550830Y-117109368D01*
X148541651Y-117089962D01*
X148534419Y-117069750D01*
X148529203Y-117048926D01*
X148526053Y-117027691D01*
X148525000Y-117006250D01*
X148525000Y-116568750D01*
X148526053Y-116547309D01*
X148529203Y-116526074D01*
X148534419Y-116505250D01*
X148541651Y-116485038D01*
X148550830Y-116465632D01*
X148561866Y-116447219D01*
X148574654Y-116429976D01*
X148589070Y-116414070D01*
X148604976Y-116399654D01*
X148622219Y-116386866D01*
X148640632Y-116375830D01*
X148660038Y-116366651D01*
X148680250Y-116359419D01*
X148701074Y-116354203D01*
X148722309Y-116351053D01*
X148743750Y-116350000D01*
X149256250Y-116350000D01*
X149277691Y-116351053D01*
X149277691Y-116351053D01*
G37*
D12*
X149000000Y-116787500D03*
D11*
G36*
X149277691Y-114776053D02*
X149298926Y-114779203D01*
X149319750Y-114784419D01*
X149339962Y-114791651D01*
X149359368Y-114800830D01*
X149377781Y-114811866D01*
X149395024Y-114824654D01*
X149410930Y-114839070D01*
X149425346Y-114854976D01*
X149438134Y-114872219D01*
X149449170Y-114890632D01*
X149458349Y-114910038D01*
X149465581Y-114930250D01*
X149470797Y-114951074D01*
X149473947Y-114972309D01*
X149475000Y-114993750D01*
X149475000Y-115431250D01*
X149473947Y-115452691D01*
X149470797Y-115473926D01*
X149465581Y-115494750D01*
X149458349Y-115514962D01*
X149449170Y-115534368D01*
X149438134Y-115552781D01*
X149425346Y-115570024D01*
X149410930Y-115585930D01*
X149395024Y-115600346D01*
X149377781Y-115613134D01*
X149359368Y-115624170D01*
X149339962Y-115633349D01*
X149319750Y-115640581D01*
X149298926Y-115645797D01*
X149277691Y-115648947D01*
X149256250Y-115650000D01*
X148743750Y-115650000D01*
X148722309Y-115648947D01*
X148701074Y-115645797D01*
X148680250Y-115640581D01*
X148660038Y-115633349D01*
X148640632Y-115624170D01*
X148622219Y-115613134D01*
X148604976Y-115600346D01*
X148589070Y-115585930D01*
X148574654Y-115570024D01*
X148561866Y-115552781D01*
X148550830Y-115534368D01*
X148541651Y-115514962D01*
X148534419Y-115494750D01*
X148529203Y-115473926D01*
X148526053Y-115452691D01*
X148525000Y-115431250D01*
X148525000Y-114993750D01*
X148526053Y-114972309D01*
X148529203Y-114951074D01*
X148534419Y-114930250D01*
X148541651Y-114910038D01*
X148550830Y-114890632D01*
X148561866Y-114872219D01*
X148574654Y-114854976D01*
X148589070Y-114839070D01*
X148604976Y-114824654D01*
X148622219Y-114811866D01*
X148640632Y-114800830D01*
X148660038Y-114791651D01*
X148680250Y-114784419D01*
X148701074Y-114779203D01*
X148722309Y-114776053D01*
X148743750Y-114775000D01*
X149256250Y-114775000D01*
X149277691Y-114776053D01*
X149277691Y-114776053D01*
G37*
D12*
X149000000Y-115212500D03*
G04 #@! TD*
D13*
G04 #@! TO.C,U80*
X146095000Y-120300000D03*
X147365000Y-120300000D03*
X148635000Y-120300000D03*
X149905000Y-120300000D03*
X149905000Y-125700000D03*
X148635000Y-125700000D03*
X147365000Y-125700000D03*
X146095000Y-125700000D03*
G04 #@! TD*
D11*
G04 #@! TO.C,D00*
G36*
X150837676Y-155054148D02*
X150861945Y-155057748D01*
X150885743Y-155063709D01*
X150908843Y-155071974D01*
X150931021Y-155082464D01*
X150952065Y-155095077D01*
X150971770Y-155109691D01*
X150989949Y-155126167D01*
X151873833Y-156010051D01*
X151890309Y-156028230D01*
X151904923Y-156047935D01*
X151917536Y-156068979D01*
X151928026Y-156091157D01*
X151936291Y-156114257D01*
X151942252Y-156138055D01*
X151945852Y-156162324D01*
X151947056Y-156186828D01*
X151945852Y-156211332D01*
X151942252Y-156235601D01*
X151936291Y-156259399D01*
X151928026Y-156282499D01*
X151917536Y-156304677D01*
X151904923Y-156325721D01*
X151890309Y-156345426D01*
X151873833Y-156363605D01*
X151343503Y-156893935D01*
X151325324Y-156910411D01*
X151305619Y-156925025D01*
X151284575Y-156937638D01*
X151262397Y-156948128D01*
X151239297Y-156956393D01*
X151215499Y-156962354D01*
X151191230Y-156965954D01*
X151166726Y-156967158D01*
X151142222Y-156965954D01*
X151117953Y-156962354D01*
X151094155Y-156956393D01*
X151071055Y-156948128D01*
X151048877Y-156937638D01*
X151027833Y-156925025D01*
X151008128Y-156910411D01*
X150989949Y-156893935D01*
X150106065Y-156010051D01*
X150089589Y-155991872D01*
X150074975Y-155972167D01*
X150062362Y-155951123D01*
X150051872Y-155928945D01*
X150043607Y-155905845D01*
X150037646Y-155882047D01*
X150034046Y-155857778D01*
X150032842Y-155833274D01*
X150034046Y-155808770D01*
X150037646Y-155784501D01*
X150043607Y-155760703D01*
X150051872Y-155737603D01*
X150062362Y-155715425D01*
X150074975Y-155694381D01*
X150089589Y-155674676D01*
X150106065Y-155656497D01*
X150636395Y-155126167D01*
X150654574Y-155109691D01*
X150674279Y-155095077D01*
X150695323Y-155082464D01*
X150717501Y-155071974D01*
X150740601Y-155063709D01*
X150764399Y-155057748D01*
X150788668Y-155054148D01*
X150813172Y-155052944D01*
X150837676Y-155054148D01*
X150837676Y-155054148D01*
G37*
D14*
X150989949Y-156010051D03*
D11*
G36*
X148857778Y-157034046D02*
X148882047Y-157037646D01*
X148905845Y-157043607D01*
X148928945Y-157051872D01*
X148951123Y-157062362D01*
X148972167Y-157074975D01*
X148991872Y-157089589D01*
X149010051Y-157106065D01*
X149893935Y-157989949D01*
X149910411Y-158008128D01*
X149925025Y-158027833D01*
X149937638Y-158048877D01*
X149948128Y-158071055D01*
X149956393Y-158094155D01*
X149962354Y-158117953D01*
X149965954Y-158142222D01*
X149967158Y-158166726D01*
X149965954Y-158191230D01*
X149962354Y-158215499D01*
X149956393Y-158239297D01*
X149948128Y-158262397D01*
X149937638Y-158284575D01*
X149925025Y-158305619D01*
X149910411Y-158325324D01*
X149893935Y-158343503D01*
X149363605Y-158873833D01*
X149345426Y-158890309D01*
X149325721Y-158904923D01*
X149304677Y-158917536D01*
X149282499Y-158928026D01*
X149259399Y-158936291D01*
X149235601Y-158942252D01*
X149211332Y-158945852D01*
X149186828Y-158947056D01*
X149162324Y-158945852D01*
X149138055Y-158942252D01*
X149114257Y-158936291D01*
X149091157Y-158928026D01*
X149068979Y-158917536D01*
X149047935Y-158904923D01*
X149028230Y-158890309D01*
X149010051Y-158873833D01*
X148126167Y-157989949D01*
X148109691Y-157971770D01*
X148095077Y-157952065D01*
X148082464Y-157931021D01*
X148071974Y-157908843D01*
X148063709Y-157885743D01*
X148057748Y-157861945D01*
X148054148Y-157837676D01*
X148052944Y-157813172D01*
X148054148Y-157788668D01*
X148057748Y-157764399D01*
X148063709Y-157740601D01*
X148071974Y-157717501D01*
X148082464Y-157695323D01*
X148095077Y-157674279D01*
X148109691Y-157654574D01*
X148126167Y-157636395D01*
X148656497Y-157106065D01*
X148674676Y-157089589D01*
X148694381Y-157074975D01*
X148715425Y-157062362D01*
X148737603Y-157051872D01*
X148760703Y-157043607D01*
X148784501Y-157037646D01*
X148808770Y-157034046D01*
X148833274Y-157032842D01*
X148857778Y-157034046D01*
X148857778Y-157034046D01*
G37*
D14*
X149010051Y-157989949D03*
G04 #@! TD*
D15*
G04 #@! TO.C,BT80*
X148000000Y-146900000D03*
X148000000Y-131100000D03*
G04 #@! TD*
D16*
G04 #@! TO.C,Q00*
X143050000Y-151950000D03*
X144950000Y-151950000D03*
X144000000Y-153950000D03*
G04 #@! TD*
D11*
G04 #@! TO.C,R04*
G36*
X139452691Y-152526053D02*
X139473926Y-152529203D01*
X139494750Y-152534419D01*
X139514962Y-152541651D01*
X139534368Y-152550830D01*
X139552781Y-152561866D01*
X139570024Y-152574654D01*
X139585930Y-152589070D01*
X139600346Y-152604976D01*
X139613134Y-152622219D01*
X139624170Y-152640632D01*
X139633349Y-152660038D01*
X139640581Y-152680250D01*
X139645797Y-152701074D01*
X139648947Y-152722309D01*
X139650000Y-152743750D01*
X139650000Y-153256250D01*
X139648947Y-153277691D01*
X139645797Y-153298926D01*
X139640581Y-153319750D01*
X139633349Y-153339962D01*
X139624170Y-153359368D01*
X139613134Y-153377781D01*
X139600346Y-153395024D01*
X139585930Y-153410930D01*
X139570024Y-153425346D01*
X139552781Y-153438134D01*
X139534368Y-153449170D01*
X139514962Y-153458349D01*
X139494750Y-153465581D01*
X139473926Y-153470797D01*
X139452691Y-153473947D01*
X139431250Y-153475000D01*
X138993750Y-153475000D01*
X138972309Y-153473947D01*
X138951074Y-153470797D01*
X138930250Y-153465581D01*
X138910038Y-153458349D01*
X138890632Y-153449170D01*
X138872219Y-153438134D01*
X138854976Y-153425346D01*
X138839070Y-153410930D01*
X138824654Y-153395024D01*
X138811866Y-153377781D01*
X138800830Y-153359368D01*
X138791651Y-153339962D01*
X138784419Y-153319750D01*
X138779203Y-153298926D01*
X138776053Y-153277691D01*
X138775000Y-153256250D01*
X138775000Y-152743750D01*
X138776053Y-152722309D01*
X138779203Y-152701074D01*
X138784419Y-152680250D01*
X138791651Y-152660038D01*
X138800830Y-152640632D01*
X138811866Y-152622219D01*
X138824654Y-152604976D01*
X138839070Y-152589070D01*
X138854976Y-152574654D01*
X138872219Y-152561866D01*
X138890632Y-152550830D01*
X138910038Y-152541651D01*
X138930250Y-152534419D01*
X138951074Y-152529203D01*
X138972309Y-152526053D01*
X138993750Y-152525000D01*
X139431250Y-152525000D01*
X139452691Y-152526053D01*
X139452691Y-152526053D01*
G37*
D12*
X139212500Y-153000000D03*
D11*
G36*
X141027691Y-152526053D02*
X141048926Y-152529203D01*
X141069750Y-152534419D01*
X141089962Y-152541651D01*
X141109368Y-152550830D01*
X141127781Y-152561866D01*
X141145024Y-152574654D01*
X141160930Y-152589070D01*
X141175346Y-152604976D01*
X141188134Y-152622219D01*
X141199170Y-152640632D01*
X141208349Y-152660038D01*
X141215581Y-152680250D01*
X141220797Y-152701074D01*
X141223947Y-152722309D01*
X141225000Y-152743750D01*
X141225000Y-153256250D01*
X141223947Y-153277691D01*
X141220797Y-153298926D01*
X141215581Y-153319750D01*
X141208349Y-153339962D01*
X141199170Y-153359368D01*
X141188134Y-153377781D01*
X141175346Y-153395024D01*
X141160930Y-153410930D01*
X141145024Y-153425346D01*
X141127781Y-153438134D01*
X141109368Y-153449170D01*
X141089962Y-153458349D01*
X141069750Y-153465581D01*
X141048926Y-153470797D01*
X141027691Y-153473947D01*
X141006250Y-153475000D01*
X140568750Y-153475000D01*
X140547309Y-153473947D01*
X140526074Y-153470797D01*
X140505250Y-153465581D01*
X140485038Y-153458349D01*
X140465632Y-153449170D01*
X140447219Y-153438134D01*
X140429976Y-153425346D01*
X140414070Y-153410930D01*
X140399654Y-153395024D01*
X140386866Y-153377781D01*
X140375830Y-153359368D01*
X140366651Y-153339962D01*
X140359419Y-153319750D01*
X140354203Y-153298926D01*
X140351053Y-153277691D01*
X140350000Y-153256250D01*
X140350000Y-152743750D01*
X140351053Y-152722309D01*
X140354203Y-152701074D01*
X140359419Y-152680250D01*
X140366651Y-152660038D01*
X140375830Y-152640632D01*
X140386866Y-152622219D01*
X140399654Y-152604976D01*
X140414070Y-152589070D01*
X140429976Y-152574654D01*
X140447219Y-152561866D01*
X140465632Y-152550830D01*
X140485038Y-152541651D01*
X140505250Y-152534419D01*
X140526074Y-152529203D01*
X140547309Y-152526053D01*
X140568750Y-152525000D01*
X141006250Y-152525000D01*
X141027691Y-152526053D01*
X141027691Y-152526053D01*
G37*
D12*
X140787500Y-153000000D03*
G04 #@! TD*
M02*
