G04 #@! TF.GenerationSoftware,KiCad,Pcbnew,(5.0.1-3-g963ef8bb5)*
G04 #@! TF.CreationDate,2019-06-03T16:35:54+02:00*
G04 #@! TF.ProjectId,foodSampler_v10,666F6F6453616D706C65725F7631302E,rev?*
G04 #@! TF.SameCoordinates,Original*
G04 #@! TF.FileFunction,Copper,L1,Top,Signal*
G04 #@! TF.FilePolarity,Positive*
%FSLAX46Y46*%
G04 Gerber Fmt 4.6, Leading zero omitted, Abs format (unit mm)*
G04 Created by KiCad (PCBNEW (5.0.1-3-g963ef8bb5)) date 2019 June 03, Monday 16:35:54*
%MOMM*%
%LPD*%
G01*
G04 APERTURE LIST*
G04 #@! TA.AperFunction,ComponentPad*
%ADD10C,1.800000*%
G04 #@! TD*
G04 #@! TA.AperFunction,WasherPad*
%ADD11C,1.800000*%
G04 #@! TD*
G04 #@! TA.AperFunction,ViaPad*
%ADD12C,0.800000*%
G04 #@! TD*
G04 #@! TA.AperFunction,Conductor*
%ADD13C,0.254000*%
G04 #@! TD*
G04 APERTURE END LIST*
D10*
G04 #@! TO.P,SW10,1*
G04 #@! TO.N,Net-(SW10-Pad1)*
X96750000Y-55500000D03*
G04 #@! TO.P,SW10,2*
G04 #@! TO.N,SW1*
X109250000Y-55500000D03*
G04 #@! TO.P,SW10,3*
G04 #@! TO.N,Net-(SW10-Pad3)*
X96750000Y-60500000D03*
G04 #@! TO.P,SW10,4*
G04 #@! TO.N,GND*
X109250000Y-60500000D03*
G04 #@! TO.P,SW10,5*
X103000000Y-51500000D03*
G04 #@! TO.P,SW10,6*
G04 #@! TO.N,Net-(R11-Pad1)*
X103000000Y-64500000D03*
D11*
G04 #@! TO.P,SW10,*
G04 #@! TO.N,*
X103000000Y-62500000D03*
X103000000Y-53500000D03*
G04 #@! TD*
G04 #@! TO.P,SW20,*
G04 #@! TO.N,*
X103000000Y-69500000D03*
X103000000Y-78500000D03*
D10*
G04 #@! TO.P,SW20,6*
G04 #@! TO.N,Net-(R21-Pad1)*
X103000000Y-80500000D03*
G04 #@! TO.P,SW20,5*
G04 #@! TO.N,GND*
X103000000Y-67500000D03*
G04 #@! TO.P,SW20,4*
X109250000Y-76500000D03*
G04 #@! TO.P,SW20,3*
G04 #@! TO.N,Net-(SW20-Pad3)*
X96750000Y-76500000D03*
G04 #@! TO.P,SW20,2*
G04 #@! TO.N,SW2*
X109250000Y-71500000D03*
G04 #@! TO.P,SW20,1*
G04 #@! TO.N,Net-(SW20-Pad1)*
X96750000Y-71500000D03*
G04 #@! TD*
G04 #@! TO.P,SW30,1*
G04 #@! TO.N,Net-(SW30-Pad1)*
X96750000Y-87500000D03*
G04 #@! TO.P,SW30,2*
G04 #@! TO.N,SW3*
X109250000Y-87500000D03*
G04 #@! TO.P,SW30,3*
G04 #@! TO.N,Net-(SW30-Pad3)*
X96750000Y-92500000D03*
G04 #@! TO.P,SW30,4*
G04 #@! TO.N,GND*
X109250000Y-92500000D03*
G04 #@! TO.P,SW30,5*
X103000000Y-83500000D03*
G04 #@! TO.P,SW30,6*
G04 #@! TO.N,Net-(R31-Pad1)*
X103000000Y-96500000D03*
D11*
G04 #@! TO.P,SW30,*
G04 #@! TO.N,*
X103000000Y-94500000D03*
X103000000Y-85500000D03*
G04 #@! TD*
G04 #@! TO.P,SW40,*
G04 #@! TO.N,*
X103000000Y-101500000D03*
X103000000Y-110500000D03*
D10*
G04 #@! TO.P,SW40,6*
G04 #@! TO.N,Net-(R41-Pad1)*
X103000000Y-112500000D03*
G04 #@! TO.P,SW40,5*
G04 #@! TO.N,GND*
X103000000Y-99500000D03*
G04 #@! TO.P,SW40,4*
X109250000Y-108500000D03*
G04 #@! TO.P,SW40,3*
G04 #@! TO.N,Net-(SW40-Pad3)*
X96750000Y-108500000D03*
G04 #@! TO.P,SW40,2*
G04 #@! TO.N,SW4*
X109250000Y-103500000D03*
G04 #@! TO.P,SW40,1*
G04 #@! TO.N,Net-(SW40-Pad1)*
X96750000Y-103500000D03*
G04 #@! TD*
G04 #@! TO.P,SW50,1*
G04 #@! TO.N,Net-(SW50-Pad1)*
X96750000Y-119500000D03*
G04 #@! TO.P,SW50,2*
G04 #@! TO.N,SW5*
X109250000Y-119500000D03*
G04 #@! TO.P,SW50,3*
G04 #@! TO.N,Net-(SW50-Pad3)*
X96750000Y-124500000D03*
G04 #@! TO.P,SW50,4*
G04 #@! TO.N,GND*
X109250000Y-124500000D03*
G04 #@! TO.P,SW50,5*
X103000000Y-115500000D03*
G04 #@! TO.P,SW50,6*
G04 #@! TO.N,Net-(R51-Pad1)*
X103000000Y-128500000D03*
D11*
G04 #@! TO.P,SW50,*
G04 #@! TO.N,*
X103000000Y-126500000D03*
X103000000Y-117500000D03*
G04 #@! TD*
G04 #@! TO.P,SW60,*
G04 #@! TO.N,*
X103000000Y-133500000D03*
X103000000Y-142500000D03*
D10*
G04 #@! TO.P,SW60,6*
G04 #@! TO.N,Net-(R61-Pad1)*
X103000000Y-144500000D03*
G04 #@! TO.P,SW60,5*
G04 #@! TO.N,GND*
X103000000Y-131500000D03*
G04 #@! TO.P,SW60,4*
X109250000Y-140500000D03*
G04 #@! TO.P,SW60,3*
G04 #@! TO.N,Net-(SW60-Pad3)*
X96750000Y-140500000D03*
G04 #@! TO.P,SW60,2*
G04 #@! TO.N,SW6*
X109250000Y-135500000D03*
G04 #@! TO.P,SW60,1*
G04 #@! TO.N,Net-(SW60-Pad1)*
X96750000Y-135500000D03*
G04 #@! TD*
G04 #@! TO.P,SW70,1*
G04 #@! TO.N,Net-(SW70-Pad1)*
X96750000Y-151500000D03*
G04 #@! TO.P,SW70,2*
G04 #@! TO.N,SW7*
X109250000Y-151500000D03*
G04 #@! TO.P,SW70,3*
G04 #@! TO.N,Net-(SW70-Pad3)*
X96750000Y-156500000D03*
G04 #@! TO.P,SW70,4*
G04 #@! TO.N,GND*
X109250000Y-156500000D03*
G04 #@! TO.P,SW70,5*
X103000000Y-147500000D03*
G04 #@! TO.P,SW70,6*
G04 #@! TO.N,Net-(R71-Pad1)*
X103000000Y-160500000D03*
D11*
G04 #@! TO.P,SW70,*
G04 #@! TO.N,*
X103000000Y-158500000D03*
X103000000Y-149500000D03*
G04 #@! TD*
D12*
G04 #@! TO.N,GND*
X106000000Y-154000000D03*
X106000000Y-138000000D03*
X106000000Y-122000000D03*
X106000000Y-106000000D03*
X106000000Y-90000000D03*
X106000000Y-74000000D03*
X106000000Y-58000000D03*
G04 #@! TD*
D13*
G04 #@! TO.N,GND*
G36*
X159290001Y-158749689D02*
X158139171Y-158273000D01*
X155860829Y-158273000D01*
X153755915Y-159144883D01*
X152144883Y-160755915D01*
X151273000Y-162860829D01*
X151273000Y-165139171D01*
X151749688Y-166290000D01*
X90127000Y-166290000D01*
X90127000Y-163698647D01*
X90277027Y-163668805D01*
X90446702Y-163555431D01*
X90765000Y-163555431D01*
X90765000Y-164444569D01*
X91105259Y-165266026D01*
X91733974Y-165894741D01*
X92555431Y-166235000D01*
X93444569Y-166235000D01*
X94266026Y-165894741D01*
X94894741Y-165266026D01*
X95235000Y-164444569D01*
X95235000Y-163555431D01*
X94894741Y-162733974D01*
X94266026Y-162105259D01*
X93444569Y-161765000D01*
X92555431Y-161765000D01*
X91733974Y-162105259D01*
X91105259Y-162733974D01*
X90765000Y-163555431D01*
X90446702Y-163555431D01*
X90511880Y-163511881D01*
X90668805Y-163277028D01*
X90710000Y-163069926D01*
X90710000Y-158194670D01*
X101465000Y-158194670D01*
X101465000Y-158805330D01*
X101698690Y-159369507D01*
X101829183Y-159500000D01*
X101698690Y-159630493D01*
X101465000Y-160194670D01*
X101465000Y-160805330D01*
X101698690Y-161369507D01*
X102130493Y-161801310D01*
X102694670Y-162035000D01*
X103305330Y-162035000D01*
X103869507Y-161801310D01*
X104301310Y-161369507D01*
X104535000Y-160805330D01*
X104535000Y-160194670D01*
X104301310Y-159630493D01*
X104170817Y-159500000D01*
X104301310Y-159369507D01*
X104535000Y-158805330D01*
X104535000Y-158194670D01*
X104301310Y-157630493D01*
X104250976Y-157580159D01*
X108349446Y-157580159D01*
X108435852Y-157836643D01*
X109009336Y-158046458D01*
X109619460Y-158020839D01*
X110064148Y-157836643D01*
X110150554Y-157580159D01*
X109250000Y-156679605D01*
X108349446Y-157580159D01*
X104250976Y-157580159D01*
X103869507Y-157198690D01*
X103305330Y-156965000D01*
X102694670Y-156965000D01*
X102130493Y-157198690D01*
X101698690Y-157630493D01*
X101465000Y-158194670D01*
X90710000Y-158194670D01*
X90710000Y-156194670D01*
X95215000Y-156194670D01*
X95215000Y-156805330D01*
X95448690Y-157369507D01*
X95880493Y-157801310D01*
X96444670Y-158035000D01*
X97055330Y-158035000D01*
X97619507Y-157801310D01*
X98051310Y-157369507D01*
X98285000Y-156805330D01*
X98285000Y-156259336D01*
X107703542Y-156259336D01*
X107729161Y-156869460D01*
X107913357Y-157314148D01*
X108169841Y-157400554D01*
X109070395Y-156500000D01*
X109429605Y-156500000D01*
X110330159Y-157400554D01*
X110586643Y-157314148D01*
X110796458Y-156740664D01*
X110770839Y-156130540D01*
X110586643Y-155685852D01*
X110330159Y-155599446D01*
X109429605Y-156500000D01*
X109070395Y-156500000D01*
X108169841Y-155599446D01*
X107913357Y-155685852D01*
X107703542Y-156259336D01*
X98285000Y-156259336D01*
X98285000Y-156194670D01*
X98051310Y-155630493D01*
X97840658Y-155419841D01*
X108349446Y-155419841D01*
X109250000Y-156320395D01*
X110150554Y-155419841D01*
X110064148Y-155163357D01*
X109490664Y-154953542D01*
X108880540Y-154979161D01*
X108435852Y-155163357D01*
X108349446Y-155419841D01*
X97840658Y-155419841D01*
X97619507Y-155198690D01*
X97055330Y-154965000D01*
X96444670Y-154965000D01*
X95880493Y-155198690D01*
X95448690Y-155630493D01*
X95215000Y-156194670D01*
X90710000Y-156194670D01*
X90710000Y-151194670D01*
X95215000Y-151194670D01*
X95215000Y-151805330D01*
X95448690Y-152369507D01*
X95880493Y-152801310D01*
X96444670Y-153035000D01*
X97055330Y-153035000D01*
X97619507Y-152801310D01*
X98051310Y-152369507D01*
X98285000Y-151805330D01*
X98285000Y-151194670D01*
X107715000Y-151194670D01*
X107715000Y-151805330D01*
X107948690Y-152369507D01*
X108380493Y-152801310D01*
X108944670Y-153035000D01*
X109555330Y-153035000D01*
X110119507Y-152801310D01*
X110551310Y-152369507D01*
X110785000Y-151805330D01*
X110785000Y-151194670D01*
X110551310Y-150630493D01*
X110119507Y-150198690D01*
X109555330Y-149965000D01*
X108944670Y-149965000D01*
X108380493Y-150198690D01*
X107948690Y-150630493D01*
X107715000Y-151194670D01*
X98285000Y-151194670D01*
X98051310Y-150630493D01*
X97619507Y-150198690D01*
X97055330Y-149965000D01*
X96444670Y-149965000D01*
X95880493Y-150198690D01*
X95448690Y-150630493D01*
X95215000Y-151194670D01*
X90710000Y-151194670D01*
X90710000Y-147259336D01*
X101453542Y-147259336D01*
X101479161Y-147869460D01*
X101663357Y-148314148D01*
X101919839Y-148400553D01*
X101805282Y-148515110D01*
X101809678Y-148519506D01*
X101698690Y-148630493D01*
X101465000Y-149194670D01*
X101465000Y-149805330D01*
X101698690Y-150369507D01*
X102130493Y-150801310D01*
X102694670Y-151035000D01*
X103305330Y-151035000D01*
X103869507Y-150801310D01*
X104301310Y-150369507D01*
X104535000Y-149805330D01*
X104535000Y-149194670D01*
X104301310Y-148630493D01*
X104190323Y-148519506D01*
X104194718Y-148515110D01*
X104080161Y-148400553D01*
X104336643Y-148314148D01*
X104546458Y-147740664D01*
X104520839Y-147130540D01*
X104336643Y-146685852D01*
X104080159Y-146599446D01*
X103179605Y-147500000D01*
X103193748Y-147514143D01*
X103014143Y-147693748D01*
X103000000Y-147679605D01*
X102985858Y-147693748D01*
X102806253Y-147514143D01*
X102820395Y-147500000D01*
X101919841Y-146599446D01*
X101663357Y-146685852D01*
X101453542Y-147259336D01*
X90710000Y-147259336D01*
X90710000Y-142194670D01*
X101465000Y-142194670D01*
X101465000Y-142805330D01*
X101698690Y-143369507D01*
X101829183Y-143500000D01*
X101698690Y-143630493D01*
X101465000Y-144194670D01*
X101465000Y-144805330D01*
X101698690Y-145369507D01*
X102130493Y-145801310D01*
X102595201Y-145993799D01*
X102185852Y-146163357D01*
X102099446Y-146419841D01*
X103000000Y-147320395D01*
X103900554Y-146419841D01*
X103814148Y-146163357D01*
X103379425Y-146004309D01*
X103869507Y-145801310D01*
X104301310Y-145369507D01*
X104535000Y-144805330D01*
X104535000Y-144194670D01*
X104301310Y-143630493D01*
X104170817Y-143500000D01*
X104301310Y-143369507D01*
X104535000Y-142805330D01*
X104535000Y-142524234D01*
X146865000Y-142524234D01*
X146865000Y-142975766D01*
X147037793Y-143392926D01*
X147357074Y-143712207D01*
X147774234Y-143885000D01*
X148225766Y-143885000D01*
X148642926Y-143712207D01*
X148962207Y-143392926D01*
X149135000Y-142975766D01*
X149135000Y-142524234D01*
X148962207Y-142107074D01*
X148642926Y-141787793D01*
X148225766Y-141615000D01*
X147774234Y-141615000D01*
X147357074Y-141787793D01*
X147037793Y-142107074D01*
X146865000Y-142524234D01*
X104535000Y-142524234D01*
X104535000Y-142194670D01*
X104301310Y-141630493D01*
X104250976Y-141580159D01*
X108349446Y-141580159D01*
X108435852Y-141836643D01*
X109009336Y-142046458D01*
X109619460Y-142020839D01*
X110064148Y-141836643D01*
X110150554Y-141580159D01*
X109250000Y-140679605D01*
X108349446Y-141580159D01*
X104250976Y-141580159D01*
X103869507Y-141198690D01*
X103305330Y-140965000D01*
X102694670Y-140965000D01*
X102130493Y-141198690D01*
X101698690Y-141630493D01*
X101465000Y-142194670D01*
X90710000Y-142194670D01*
X90710000Y-140194670D01*
X95215000Y-140194670D01*
X95215000Y-140805330D01*
X95448690Y-141369507D01*
X95880493Y-141801310D01*
X96444670Y-142035000D01*
X97055330Y-142035000D01*
X97619507Y-141801310D01*
X98051310Y-141369507D01*
X98285000Y-140805330D01*
X98285000Y-140259336D01*
X107703542Y-140259336D01*
X107729161Y-140869460D01*
X107913357Y-141314148D01*
X108169841Y-141400554D01*
X109070395Y-140500000D01*
X109429605Y-140500000D01*
X110330159Y-141400554D01*
X110586643Y-141314148D01*
X110796458Y-140740664D01*
X110770839Y-140130540D01*
X110586643Y-139685852D01*
X110330159Y-139599446D01*
X109429605Y-140500000D01*
X109070395Y-140500000D01*
X108169841Y-139599446D01*
X107913357Y-139685852D01*
X107703542Y-140259336D01*
X98285000Y-140259336D01*
X98285000Y-140194670D01*
X98051310Y-139630493D01*
X97840658Y-139419841D01*
X108349446Y-139419841D01*
X109250000Y-140320395D01*
X110150554Y-139419841D01*
X110064148Y-139163357D01*
X109490664Y-138953542D01*
X108880540Y-138979161D01*
X108435852Y-139163357D01*
X108349446Y-139419841D01*
X97840658Y-139419841D01*
X97619507Y-139198690D01*
X97055330Y-138965000D01*
X96444670Y-138965000D01*
X95880493Y-139198690D01*
X95448690Y-139630493D01*
X95215000Y-140194670D01*
X90710000Y-140194670D01*
X90710000Y-135194670D01*
X95215000Y-135194670D01*
X95215000Y-135805330D01*
X95448690Y-136369507D01*
X95880493Y-136801310D01*
X96444670Y-137035000D01*
X97055330Y-137035000D01*
X97619507Y-136801310D01*
X98051310Y-136369507D01*
X98285000Y-135805330D01*
X98285000Y-135194670D01*
X107715000Y-135194670D01*
X107715000Y-135805330D01*
X107948690Y-136369507D01*
X108380493Y-136801310D01*
X108944670Y-137035000D01*
X109555330Y-137035000D01*
X110119507Y-136801310D01*
X110551310Y-136369507D01*
X110785000Y-135805330D01*
X110785000Y-135194670D01*
X110702045Y-134994398D01*
X146715000Y-134994398D01*
X146715000Y-135505602D01*
X146910629Y-135977894D01*
X147272106Y-136339371D01*
X147744398Y-136535000D01*
X148255602Y-136535000D01*
X148727894Y-136339371D01*
X149089371Y-135977894D01*
X149285000Y-135505602D01*
X149285000Y-134994398D01*
X149089371Y-134522106D01*
X148727894Y-134160629D01*
X148255602Y-133965000D01*
X147744398Y-133965000D01*
X147272106Y-134160629D01*
X146910629Y-134522106D01*
X146715000Y-134994398D01*
X110702045Y-134994398D01*
X110551310Y-134630493D01*
X110119507Y-134198690D01*
X109555330Y-133965000D01*
X108944670Y-133965000D01*
X108380493Y-134198690D01*
X107948690Y-134630493D01*
X107715000Y-135194670D01*
X98285000Y-135194670D01*
X98051310Y-134630493D01*
X97619507Y-134198690D01*
X97055330Y-133965000D01*
X96444670Y-133965000D01*
X95880493Y-134198690D01*
X95448690Y-134630493D01*
X95215000Y-135194670D01*
X90710000Y-135194670D01*
X90710000Y-131259336D01*
X101453542Y-131259336D01*
X101479161Y-131869460D01*
X101663357Y-132314148D01*
X101919839Y-132400553D01*
X101805282Y-132515110D01*
X101809678Y-132519506D01*
X101698690Y-132630493D01*
X101465000Y-133194670D01*
X101465000Y-133805330D01*
X101698690Y-134369507D01*
X102130493Y-134801310D01*
X102694670Y-135035000D01*
X103305330Y-135035000D01*
X103869507Y-134801310D01*
X104301310Y-134369507D01*
X104535000Y-133805330D01*
X104535000Y-133194670D01*
X104301310Y-132630493D01*
X104190323Y-132519506D01*
X104194718Y-132515110D01*
X104080161Y-132400553D01*
X104336643Y-132314148D01*
X104546458Y-131740664D01*
X104520839Y-131130540D01*
X104336643Y-130685852D01*
X104080159Y-130599446D01*
X103179605Y-131500000D01*
X103193748Y-131514143D01*
X103014143Y-131693748D01*
X103000000Y-131679605D01*
X102985858Y-131693748D01*
X102806253Y-131514143D01*
X102820395Y-131500000D01*
X101919841Y-130599446D01*
X101663357Y-130685852D01*
X101453542Y-131259336D01*
X90710000Y-131259336D01*
X90710000Y-126194670D01*
X101465000Y-126194670D01*
X101465000Y-126805330D01*
X101698690Y-127369507D01*
X101829183Y-127500000D01*
X101698690Y-127630493D01*
X101465000Y-128194670D01*
X101465000Y-128805330D01*
X101698690Y-129369507D01*
X102130493Y-129801310D01*
X102595201Y-129993799D01*
X102185852Y-130163357D01*
X102099446Y-130419841D01*
X103000000Y-131320395D01*
X103900554Y-130419841D01*
X103814148Y-130163357D01*
X103379425Y-130004309D01*
X103869507Y-129801310D01*
X104301310Y-129369507D01*
X104535000Y-128805330D01*
X104535000Y-128194670D01*
X104301310Y-127630493D01*
X104170817Y-127500000D01*
X104301310Y-127369507D01*
X104535000Y-126805330D01*
X104535000Y-126194670D01*
X104301310Y-125630493D01*
X104250976Y-125580159D01*
X108349446Y-125580159D01*
X108435852Y-125836643D01*
X109009336Y-126046458D01*
X109619460Y-126020839D01*
X110064148Y-125836643D01*
X110150554Y-125580159D01*
X109250000Y-124679605D01*
X108349446Y-125580159D01*
X104250976Y-125580159D01*
X103869507Y-125198690D01*
X103305330Y-124965000D01*
X102694670Y-124965000D01*
X102130493Y-125198690D01*
X101698690Y-125630493D01*
X101465000Y-126194670D01*
X90710000Y-126194670D01*
X90710000Y-124194670D01*
X95215000Y-124194670D01*
X95215000Y-124805330D01*
X95448690Y-125369507D01*
X95880493Y-125801310D01*
X96444670Y-126035000D01*
X97055330Y-126035000D01*
X97619507Y-125801310D01*
X98051310Y-125369507D01*
X98285000Y-124805330D01*
X98285000Y-124259336D01*
X107703542Y-124259336D01*
X107729161Y-124869460D01*
X107913357Y-125314148D01*
X108169841Y-125400554D01*
X109070395Y-124500000D01*
X109429605Y-124500000D01*
X110330159Y-125400554D01*
X110586643Y-125314148D01*
X110796458Y-124740664D01*
X110770839Y-124130540D01*
X110586643Y-123685852D01*
X110330159Y-123599446D01*
X109429605Y-124500000D01*
X109070395Y-124500000D01*
X108169841Y-123599446D01*
X107913357Y-123685852D01*
X107703542Y-124259336D01*
X98285000Y-124259336D01*
X98285000Y-124194670D01*
X98051310Y-123630493D01*
X97840658Y-123419841D01*
X108349446Y-123419841D01*
X109250000Y-124320395D01*
X110150554Y-123419841D01*
X110064148Y-123163357D01*
X109490664Y-122953542D01*
X108880540Y-122979161D01*
X108435852Y-123163357D01*
X108349446Y-123419841D01*
X97840658Y-123419841D01*
X97619507Y-123198690D01*
X97055330Y-122965000D01*
X96444670Y-122965000D01*
X95880493Y-123198690D01*
X95448690Y-123630493D01*
X95215000Y-124194670D01*
X90710000Y-124194670D01*
X90710000Y-119194670D01*
X95215000Y-119194670D01*
X95215000Y-119805330D01*
X95448690Y-120369507D01*
X95880493Y-120801310D01*
X96444670Y-121035000D01*
X97055330Y-121035000D01*
X97619507Y-120801310D01*
X98051310Y-120369507D01*
X98285000Y-119805330D01*
X98285000Y-119194670D01*
X107715000Y-119194670D01*
X107715000Y-119805330D01*
X107948690Y-120369507D01*
X108380493Y-120801310D01*
X108944670Y-121035000D01*
X109555330Y-121035000D01*
X110119507Y-120801310D01*
X110551310Y-120369507D01*
X110785000Y-119805330D01*
X110785000Y-119194670D01*
X110551310Y-118630493D01*
X110119507Y-118198690D01*
X109555330Y-117965000D01*
X108944670Y-117965000D01*
X108380493Y-118198690D01*
X107948690Y-118630493D01*
X107715000Y-119194670D01*
X98285000Y-119194670D01*
X98051310Y-118630493D01*
X97619507Y-118198690D01*
X97055330Y-117965000D01*
X96444670Y-117965000D01*
X95880493Y-118198690D01*
X95448690Y-118630493D01*
X95215000Y-119194670D01*
X90710000Y-119194670D01*
X90710000Y-115259336D01*
X101453542Y-115259336D01*
X101479161Y-115869460D01*
X101663357Y-116314148D01*
X101919839Y-116400553D01*
X101805282Y-116515110D01*
X101809678Y-116519506D01*
X101698690Y-116630493D01*
X101465000Y-117194670D01*
X101465000Y-117805330D01*
X101698690Y-118369507D01*
X102130493Y-118801310D01*
X102694670Y-119035000D01*
X103305330Y-119035000D01*
X103869507Y-118801310D01*
X104301310Y-118369507D01*
X104535000Y-117805330D01*
X104535000Y-117194670D01*
X104301310Y-116630493D01*
X104190323Y-116519506D01*
X104194718Y-116515110D01*
X104080161Y-116400553D01*
X104336643Y-116314148D01*
X104546458Y-115740664D01*
X104520839Y-115130540D01*
X104336643Y-114685852D01*
X104080159Y-114599446D01*
X103179605Y-115500000D01*
X103193748Y-115514143D01*
X103014143Y-115693748D01*
X103000000Y-115679605D01*
X102985858Y-115693748D01*
X102806253Y-115514143D01*
X102820395Y-115500000D01*
X101919841Y-114599446D01*
X101663357Y-114685852D01*
X101453542Y-115259336D01*
X90710000Y-115259336D01*
X90710000Y-110194670D01*
X101465000Y-110194670D01*
X101465000Y-110805330D01*
X101698690Y-111369507D01*
X101829183Y-111500000D01*
X101698690Y-111630493D01*
X101465000Y-112194670D01*
X101465000Y-112805330D01*
X101698690Y-113369507D01*
X102130493Y-113801310D01*
X102595201Y-113993799D01*
X102185852Y-114163357D01*
X102099446Y-114419841D01*
X103000000Y-115320395D01*
X103900554Y-114419841D01*
X103814148Y-114163357D01*
X103379425Y-114004309D01*
X103869507Y-113801310D01*
X104301310Y-113369507D01*
X104535000Y-112805330D01*
X104535000Y-112194670D01*
X104301310Y-111630493D01*
X104170817Y-111500000D01*
X104301310Y-111369507D01*
X104535000Y-110805330D01*
X104535000Y-110194670D01*
X104301310Y-109630493D01*
X104250976Y-109580159D01*
X108349446Y-109580159D01*
X108435852Y-109836643D01*
X109009336Y-110046458D01*
X109619460Y-110020839D01*
X110064148Y-109836643D01*
X110150554Y-109580159D01*
X109250000Y-108679605D01*
X108349446Y-109580159D01*
X104250976Y-109580159D01*
X103869507Y-109198690D01*
X103305330Y-108965000D01*
X102694670Y-108965000D01*
X102130493Y-109198690D01*
X101698690Y-109630493D01*
X101465000Y-110194670D01*
X90710000Y-110194670D01*
X90710000Y-108194670D01*
X95215000Y-108194670D01*
X95215000Y-108805330D01*
X95448690Y-109369507D01*
X95880493Y-109801310D01*
X96444670Y-110035000D01*
X97055330Y-110035000D01*
X97619507Y-109801310D01*
X98051310Y-109369507D01*
X98285000Y-108805330D01*
X98285000Y-108259336D01*
X107703542Y-108259336D01*
X107729161Y-108869460D01*
X107913357Y-109314148D01*
X108169841Y-109400554D01*
X109070395Y-108500000D01*
X109429605Y-108500000D01*
X110330159Y-109400554D01*
X110586643Y-109314148D01*
X110796458Y-108740664D01*
X110770839Y-108130540D01*
X110586643Y-107685852D01*
X110330159Y-107599446D01*
X109429605Y-108500000D01*
X109070395Y-108500000D01*
X108169841Y-107599446D01*
X107913357Y-107685852D01*
X107703542Y-108259336D01*
X98285000Y-108259336D01*
X98285000Y-108194670D01*
X98051310Y-107630493D01*
X97840658Y-107419841D01*
X108349446Y-107419841D01*
X109250000Y-108320395D01*
X110150554Y-107419841D01*
X110064148Y-107163357D01*
X109490664Y-106953542D01*
X108880540Y-106979161D01*
X108435852Y-107163357D01*
X108349446Y-107419841D01*
X97840658Y-107419841D01*
X97619507Y-107198690D01*
X97055330Y-106965000D01*
X96444670Y-106965000D01*
X95880493Y-107198690D01*
X95448690Y-107630493D01*
X95215000Y-108194670D01*
X90710000Y-108194670D01*
X90710000Y-103194670D01*
X95215000Y-103194670D01*
X95215000Y-103805330D01*
X95448690Y-104369507D01*
X95880493Y-104801310D01*
X96444670Y-105035000D01*
X97055330Y-105035000D01*
X97619507Y-104801310D01*
X98051310Y-104369507D01*
X98285000Y-103805330D01*
X98285000Y-103194670D01*
X107715000Y-103194670D01*
X107715000Y-103805330D01*
X107948690Y-104369507D01*
X108380493Y-104801310D01*
X108944670Y-105035000D01*
X109555330Y-105035000D01*
X110119507Y-104801310D01*
X110551310Y-104369507D01*
X110785000Y-103805330D01*
X110785000Y-103194670D01*
X110551310Y-102630493D01*
X110119507Y-102198690D01*
X109555330Y-101965000D01*
X108944670Y-101965000D01*
X108380493Y-102198690D01*
X107948690Y-102630493D01*
X107715000Y-103194670D01*
X98285000Y-103194670D01*
X98051310Y-102630493D01*
X97619507Y-102198690D01*
X97055330Y-101965000D01*
X96444670Y-101965000D01*
X95880493Y-102198690D01*
X95448690Y-102630493D01*
X95215000Y-103194670D01*
X90710000Y-103194670D01*
X90710000Y-99259336D01*
X101453542Y-99259336D01*
X101479161Y-99869460D01*
X101663357Y-100314148D01*
X101919839Y-100400553D01*
X101805282Y-100515110D01*
X101809678Y-100519506D01*
X101698690Y-100630493D01*
X101465000Y-101194670D01*
X101465000Y-101805330D01*
X101698690Y-102369507D01*
X102130493Y-102801310D01*
X102694670Y-103035000D01*
X103305330Y-103035000D01*
X103869507Y-102801310D01*
X104301310Y-102369507D01*
X104535000Y-101805330D01*
X104535000Y-101194670D01*
X104301310Y-100630493D01*
X104190323Y-100519506D01*
X104194718Y-100515110D01*
X104080161Y-100400553D01*
X104336643Y-100314148D01*
X104546458Y-99740664D01*
X104520839Y-99130540D01*
X104336643Y-98685852D01*
X104080159Y-98599446D01*
X103179605Y-99500000D01*
X103193748Y-99514143D01*
X103014143Y-99693748D01*
X103000000Y-99679605D01*
X102985858Y-99693748D01*
X102806253Y-99514143D01*
X102820395Y-99500000D01*
X101919841Y-98599446D01*
X101663357Y-98685852D01*
X101453542Y-99259336D01*
X90710000Y-99259336D01*
X90710000Y-94194670D01*
X101465000Y-94194670D01*
X101465000Y-94805330D01*
X101698690Y-95369507D01*
X101829183Y-95500000D01*
X101698690Y-95630493D01*
X101465000Y-96194670D01*
X101465000Y-96805330D01*
X101698690Y-97369507D01*
X102130493Y-97801310D01*
X102595201Y-97993799D01*
X102185852Y-98163357D01*
X102099446Y-98419841D01*
X103000000Y-99320395D01*
X103900554Y-98419841D01*
X103814148Y-98163357D01*
X103379425Y-98004309D01*
X103869507Y-97801310D01*
X104301310Y-97369507D01*
X104535000Y-96805330D01*
X104535000Y-96194670D01*
X104301310Y-95630493D01*
X104170817Y-95500000D01*
X104301310Y-95369507D01*
X104535000Y-94805330D01*
X104535000Y-94194670D01*
X104301310Y-93630493D01*
X104250976Y-93580159D01*
X108349446Y-93580159D01*
X108435852Y-93836643D01*
X109009336Y-94046458D01*
X109619460Y-94020839D01*
X110064148Y-93836643D01*
X110150554Y-93580159D01*
X109250000Y-92679605D01*
X108349446Y-93580159D01*
X104250976Y-93580159D01*
X103869507Y-93198690D01*
X103305330Y-92965000D01*
X102694670Y-92965000D01*
X102130493Y-93198690D01*
X101698690Y-93630493D01*
X101465000Y-94194670D01*
X90710000Y-94194670D01*
X90710000Y-92194670D01*
X95215000Y-92194670D01*
X95215000Y-92805330D01*
X95448690Y-93369507D01*
X95880493Y-93801310D01*
X96444670Y-94035000D01*
X97055330Y-94035000D01*
X97619507Y-93801310D01*
X98051310Y-93369507D01*
X98285000Y-92805330D01*
X98285000Y-92259336D01*
X107703542Y-92259336D01*
X107729161Y-92869460D01*
X107913357Y-93314148D01*
X108169841Y-93400554D01*
X109070395Y-92500000D01*
X109429605Y-92500000D01*
X110330159Y-93400554D01*
X110586643Y-93314148D01*
X110796458Y-92740664D01*
X110770839Y-92130540D01*
X110586643Y-91685852D01*
X110330159Y-91599446D01*
X109429605Y-92500000D01*
X109070395Y-92500000D01*
X108169841Y-91599446D01*
X107913357Y-91685852D01*
X107703542Y-92259336D01*
X98285000Y-92259336D01*
X98285000Y-92194670D01*
X98051310Y-91630493D01*
X97840658Y-91419841D01*
X108349446Y-91419841D01*
X109250000Y-92320395D01*
X110150554Y-91419841D01*
X110064148Y-91163357D01*
X109490664Y-90953542D01*
X108880540Y-90979161D01*
X108435852Y-91163357D01*
X108349446Y-91419841D01*
X97840658Y-91419841D01*
X97619507Y-91198690D01*
X97055330Y-90965000D01*
X96444670Y-90965000D01*
X95880493Y-91198690D01*
X95448690Y-91630493D01*
X95215000Y-92194670D01*
X90710000Y-92194670D01*
X90710000Y-87194670D01*
X95215000Y-87194670D01*
X95215000Y-87805330D01*
X95448690Y-88369507D01*
X95880493Y-88801310D01*
X96444670Y-89035000D01*
X97055330Y-89035000D01*
X97619507Y-88801310D01*
X98051310Y-88369507D01*
X98285000Y-87805330D01*
X98285000Y-87194670D01*
X107715000Y-87194670D01*
X107715000Y-87805330D01*
X107948690Y-88369507D01*
X108380493Y-88801310D01*
X108944670Y-89035000D01*
X109555330Y-89035000D01*
X110119507Y-88801310D01*
X110551310Y-88369507D01*
X110785000Y-87805330D01*
X110785000Y-87194670D01*
X110551310Y-86630493D01*
X110119507Y-86198690D01*
X109555330Y-85965000D01*
X108944670Y-85965000D01*
X108380493Y-86198690D01*
X107948690Y-86630493D01*
X107715000Y-87194670D01*
X98285000Y-87194670D01*
X98051310Y-86630493D01*
X97619507Y-86198690D01*
X97055330Y-85965000D01*
X96444670Y-85965000D01*
X95880493Y-86198690D01*
X95448690Y-86630493D01*
X95215000Y-87194670D01*
X90710000Y-87194670D01*
X90710000Y-83259336D01*
X101453542Y-83259336D01*
X101479161Y-83869460D01*
X101663357Y-84314148D01*
X101919839Y-84400553D01*
X101805282Y-84515110D01*
X101809678Y-84519506D01*
X101698690Y-84630493D01*
X101465000Y-85194670D01*
X101465000Y-85805330D01*
X101698690Y-86369507D01*
X102130493Y-86801310D01*
X102694670Y-87035000D01*
X103305330Y-87035000D01*
X103869507Y-86801310D01*
X104301310Y-86369507D01*
X104535000Y-85805330D01*
X104535000Y-85194670D01*
X104301310Y-84630493D01*
X104190323Y-84519506D01*
X104194718Y-84515110D01*
X104080161Y-84400553D01*
X104336643Y-84314148D01*
X104546458Y-83740664D01*
X104520839Y-83130540D01*
X104336643Y-82685852D01*
X104080159Y-82599446D01*
X103179605Y-83500000D01*
X103193748Y-83514143D01*
X103014143Y-83693748D01*
X103000000Y-83679605D01*
X102985858Y-83693748D01*
X102806253Y-83514143D01*
X102820395Y-83500000D01*
X101919841Y-82599446D01*
X101663357Y-82685852D01*
X101453542Y-83259336D01*
X90710000Y-83259336D01*
X90710000Y-78194670D01*
X101465000Y-78194670D01*
X101465000Y-78805330D01*
X101698690Y-79369507D01*
X101829183Y-79500000D01*
X101698690Y-79630493D01*
X101465000Y-80194670D01*
X101465000Y-80805330D01*
X101698690Y-81369507D01*
X102130493Y-81801310D01*
X102595201Y-81993799D01*
X102185852Y-82163357D01*
X102099446Y-82419841D01*
X103000000Y-83320395D01*
X103900554Y-82419841D01*
X103814148Y-82163357D01*
X103379425Y-82004309D01*
X103869507Y-81801310D01*
X104301310Y-81369507D01*
X104535000Y-80805330D01*
X104535000Y-80194670D01*
X104301310Y-79630493D01*
X104170817Y-79500000D01*
X104301310Y-79369507D01*
X104535000Y-78805330D01*
X104535000Y-78194670D01*
X104301310Y-77630493D01*
X104250976Y-77580159D01*
X108349446Y-77580159D01*
X108435852Y-77836643D01*
X109009336Y-78046458D01*
X109619460Y-78020839D01*
X110064148Y-77836643D01*
X110150554Y-77580159D01*
X109250000Y-76679605D01*
X108349446Y-77580159D01*
X104250976Y-77580159D01*
X103869507Y-77198690D01*
X103305330Y-76965000D01*
X102694670Y-76965000D01*
X102130493Y-77198690D01*
X101698690Y-77630493D01*
X101465000Y-78194670D01*
X90710000Y-78194670D01*
X90710000Y-76194670D01*
X95215000Y-76194670D01*
X95215000Y-76805330D01*
X95448690Y-77369507D01*
X95880493Y-77801310D01*
X96444670Y-78035000D01*
X97055330Y-78035000D01*
X97619507Y-77801310D01*
X98051310Y-77369507D01*
X98285000Y-76805330D01*
X98285000Y-76259336D01*
X107703542Y-76259336D01*
X107729161Y-76869460D01*
X107913357Y-77314148D01*
X108169841Y-77400554D01*
X109070395Y-76500000D01*
X109429605Y-76500000D01*
X110330159Y-77400554D01*
X110586643Y-77314148D01*
X110796458Y-76740664D01*
X110770839Y-76130540D01*
X110586643Y-75685852D01*
X110330159Y-75599446D01*
X109429605Y-76500000D01*
X109070395Y-76500000D01*
X108169841Y-75599446D01*
X107913357Y-75685852D01*
X107703542Y-76259336D01*
X98285000Y-76259336D01*
X98285000Y-76194670D01*
X98051310Y-75630493D01*
X97840658Y-75419841D01*
X108349446Y-75419841D01*
X109250000Y-76320395D01*
X110150554Y-75419841D01*
X110064148Y-75163357D01*
X109490664Y-74953542D01*
X108880540Y-74979161D01*
X108435852Y-75163357D01*
X108349446Y-75419841D01*
X97840658Y-75419841D01*
X97619507Y-75198690D01*
X97055330Y-74965000D01*
X96444670Y-74965000D01*
X95880493Y-75198690D01*
X95448690Y-75630493D01*
X95215000Y-76194670D01*
X90710000Y-76194670D01*
X90710000Y-71194670D01*
X95215000Y-71194670D01*
X95215000Y-71805330D01*
X95448690Y-72369507D01*
X95880493Y-72801310D01*
X96444670Y-73035000D01*
X97055330Y-73035000D01*
X97619507Y-72801310D01*
X98051310Y-72369507D01*
X98285000Y-71805330D01*
X98285000Y-71194670D01*
X107715000Y-71194670D01*
X107715000Y-71805330D01*
X107948690Y-72369507D01*
X108380493Y-72801310D01*
X108944670Y-73035000D01*
X109555330Y-73035000D01*
X110119507Y-72801310D01*
X110551310Y-72369507D01*
X110785000Y-71805330D01*
X110785000Y-71194670D01*
X110551310Y-70630493D01*
X110119507Y-70198690D01*
X109555330Y-69965000D01*
X108944670Y-69965000D01*
X108380493Y-70198690D01*
X107948690Y-70630493D01*
X107715000Y-71194670D01*
X98285000Y-71194670D01*
X98051310Y-70630493D01*
X97619507Y-70198690D01*
X97055330Y-69965000D01*
X96444670Y-69965000D01*
X95880493Y-70198690D01*
X95448690Y-70630493D01*
X95215000Y-71194670D01*
X90710000Y-71194670D01*
X90710000Y-67259336D01*
X101453542Y-67259336D01*
X101479161Y-67869460D01*
X101663357Y-68314148D01*
X101919839Y-68400553D01*
X101805282Y-68515110D01*
X101809678Y-68519506D01*
X101698690Y-68630493D01*
X101465000Y-69194670D01*
X101465000Y-69805330D01*
X101698690Y-70369507D01*
X102130493Y-70801310D01*
X102694670Y-71035000D01*
X103305330Y-71035000D01*
X103869507Y-70801310D01*
X104301310Y-70369507D01*
X104535000Y-69805330D01*
X104535000Y-69194670D01*
X104301310Y-68630493D01*
X104190323Y-68519506D01*
X104194718Y-68515110D01*
X104080161Y-68400553D01*
X104336643Y-68314148D01*
X104546458Y-67740664D01*
X104520839Y-67130540D01*
X104336643Y-66685852D01*
X104080159Y-66599446D01*
X103179605Y-67500000D01*
X103193748Y-67514143D01*
X103014143Y-67693748D01*
X103000000Y-67679605D01*
X102985858Y-67693748D01*
X102806253Y-67514143D01*
X102820395Y-67500000D01*
X101919841Y-66599446D01*
X101663357Y-66685852D01*
X101453542Y-67259336D01*
X90710000Y-67259336D01*
X90710000Y-62194670D01*
X101465000Y-62194670D01*
X101465000Y-62805330D01*
X101698690Y-63369507D01*
X101829183Y-63500000D01*
X101698690Y-63630493D01*
X101465000Y-64194670D01*
X101465000Y-64805330D01*
X101698690Y-65369507D01*
X102130493Y-65801310D01*
X102595201Y-65993799D01*
X102185852Y-66163357D01*
X102099446Y-66419841D01*
X103000000Y-67320395D01*
X103900554Y-66419841D01*
X103814148Y-66163357D01*
X103379425Y-66004309D01*
X103869507Y-65801310D01*
X104301310Y-65369507D01*
X104535000Y-64805330D01*
X104535000Y-64194670D01*
X104301310Y-63630493D01*
X104170817Y-63500000D01*
X104301310Y-63369507D01*
X104535000Y-62805330D01*
X104535000Y-62194670D01*
X104301310Y-61630493D01*
X104250976Y-61580159D01*
X108349446Y-61580159D01*
X108435852Y-61836643D01*
X109009336Y-62046458D01*
X109619460Y-62020839D01*
X110064148Y-61836643D01*
X110150554Y-61580159D01*
X109250000Y-60679605D01*
X108349446Y-61580159D01*
X104250976Y-61580159D01*
X103869507Y-61198690D01*
X103305330Y-60965000D01*
X102694670Y-60965000D01*
X102130493Y-61198690D01*
X101698690Y-61630493D01*
X101465000Y-62194670D01*
X90710000Y-62194670D01*
X90710000Y-60194670D01*
X95215000Y-60194670D01*
X95215000Y-60805330D01*
X95448690Y-61369507D01*
X95880493Y-61801310D01*
X96444670Y-62035000D01*
X97055330Y-62035000D01*
X97619507Y-61801310D01*
X98051310Y-61369507D01*
X98285000Y-60805330D01*
X98285000Y-60259336D01*
X107703542Y-60259336D01*
X107729161Y-60869460D01*
X107913357Y-61314148D01*
X108169841Y-61400554D01*
X109070395Y-60500000D01*
X109429605Y-60500000D01*
X110330159Y-61400554D01*
X110586643Y-61314148D01*
X110796458Y-60740664D01*
X110770839Y-60130540D01*
X110586643Y-59685852D01*
X110330159Y-59599446D01*
X109429605Y-60500000D01*
X109070395Y-60500000D01*
X108169841Y-59599446D01*
X107913357Y-59685852D01*
X107703542Y-60259336D01*
X98285000Y-60259336D01*
X98285000Y-60194670D01*
X98051310Y-59630493D01*
X97840658Y-59419841D01*
X108349446Y-59419841D01*
X109250000Y-60320395D01*
X110150554Y-59419841D01*
X110064148Y-59163357D01*
X109490664Y-58953542D01*
X108880540Y-58979161D01*
X108435852Y-59163357D01*
X108349446Y-59419841D01*
X97840658Y-59419841D01*
X97619507Y-59198690D01*
X97055330Y-58965000D01*
X96444670Y-58965000D01*
X95880493Y-59198690D01*
X95448690Y-59630493D01*
X95215000Y-60194670D01*
X90710000Y-60194670D01*
X90710000Y-55194670D01*
X95215000Y-55194670D01*
X95215000Y-55805330D01*
X95448690Y-56369507D01*
X95880493Y-56801310D01*
X96444670Y-57035000D01*
X97055330Y-57035000D01*
X97619507Y-56801310D01*
X98051310Y-56369507D01*
X98285000Y-55805330D01*
X98285000Y-55194670D01*
X107715000Y-55194670D01*
X107715000Y-55805330D01*
X107948690Y-56369507D01*
X108380493Y-56801310D01*
X108944670Y-57035000D01*
X109555330Y-57035000D01*
X110119507Y-56801310D01*
X110551310Y-56369507D01*
X110785000Y-55805330D01*
X110785000Y-55194670D01*
X110551310Y-54630493D01*
X110119507Y-54198690D01*
X109555330Y-53965000D01*
X108944670Y-53965000D01*
X108380493Y-54198690D01*
X107948690Y-54630493D01*
X107715000Y-55194670D01*
X98285000Y-55194670D01*
X98051310Y-54630493D01*
X97619507Y-54198690D01*
X97055330Y-53965000D01*
X96444670Y-53965000D01*
X95880493Y-54198690D01*
X95448690Y-54630493D01*
X95215000Y-55194670D01*
X90710000Y-55194670D01*
X90710000Y-51259336D01*
X101453542Y-51259336D01*
X101479161Y-51869460D01*
X101663357Y-52314148D01*
X101919839Y-52400553D01*
X101805282Y-52515110D01*
X101809678Y-52519506D01*
X101698690Y-52630493D01*
X101465000Y-53194670D01*
X101465000Y-53805330D01*
X101698690Y-54369507D01*
X102130493Y-54801310D01*
X102694670Y-55035000D01*
X103305330Y-55035000D01*
X103869507Y-54801310D01*
X104301310Y-54369507D01*
X104535000Y-53805330D01*
X104535000Y-53194670D01*
X104301310Y-52630493D01*
X104190323Y-52519506D01*
X104194718Y-52515110D01*
X104080161Y-52400553D01*
X104336643Y-52314148D01*
X104546458Y-51740664D01*
X104520839Y-51130540D01*
X104336643Y-50685852D01*
X104080159Y-50599446D01*
X103179605Y-51500000D01*
X103193748Y-51514143D01*
X103014143Y-51693748D01*
X103000000Y-51679605D01*
X102985858Y-51693748D01*
X102806253Y-51514143D01*
X102820395Y-51500000D01*
X101919841Y-50599446D01*
X101663357Y-50685852D01*
X101453542Y-51259336D01*
X90710000Y-51259336D01*
X90710000Y-50419841D01*
X102099446Y-50419841D01*
X103000000Y-51320395D01*
X103900554Y-50419841D01*
X103814148Y-50163357D01*
X103240664Y-49953542D01*
X102630540Y-49979161D01*
X102185852Y-50163357D01*
X102099446Y-50419841D01*
X90710000Y-50419841D01*
X90710000Y-41555431D01*
X90765000Y-41555431D01*
X90765000Y-42444569D01*
X91105259Y-43266026D01*
X91733974Y-43894741D01*
X92555431Y-44235000D01*
X93444569Y-44235000D01*
X94266026Y-43894741D01*
X94894741Y-43266026D01*
X95235000Y-42444569D01*
X95235000Y-41555431D01*
X154765000Y-41555431D01*
X154765000Y-42444569D01*
X155105259Y-43266026D01*
X155733974Y-43894741D01*
X156555431Y-44235000D01*
X157444569Y-44235000D01*
X158266026Y-43894741D01*
X158894741Y-43266026D01*
X159235000Y-42444569D01*
X159235000Y-41555431D01*
X158894741Y-40733974D01*
X158266026Y-40105259D01*
X157444569Y-39765000D01*
X156555431Y-39765000D01*
X155733974Y-40105259D01*
X155105259Y-40733974D01*
X154765000Y-41555431D01*
X95235000Y-41555431D01*
X94894741Y-40733974D01*
X94266026Y-40105259D01*
X93444569Y-39765000D01*
X92555431Y-39765000D01*
X91733974Y-40105259D01*
X91105259Y-40733974D01*
X90765000Y-41555431D01*
X90710000Y-41555431D01*
X90710000Y-39710000D01*
X159290000Y-39710000D01*
X159290001Y-158749689D01*
X159290001Y-158749689D01*
G37*
X159290001Y-158749689D02*
X158139171Y-158273000D01*
X155860829Y-158273000D01*
X153755915Y-159144883D01*
X152144883Y-160755915D01*
X151273000Y-162860829D01*
X151273000Y-165139171D01*
X151749688Y-166290000D01*
X90127000Y-166290000D01*
X90127000Y-163698647D01*
X90277027Y-163668805D01*
X90446702Y-163555431D01*
X90765000Y-163555431D01*
X90765000Y-164444569D01*
X91105259Y-165266026D01*
X91733974Y-165894741D01*
X92555431Y-166235000D01*
X93444569Y-166235000D01*
X94266026Y-165894741D01*
X94894741Y-165266026D01*
X95235000Y-164444569D01*
X95235000Y-163555431D01*
X94894741Y-162733974D01*
X94266026Y-162105259D01*
X93444569Y-161765000D01*
X92555431Y-161765000D01*
X91733974Y-162105259D01*
X91105259Y-162733974D01*
X90765000Y-163555431D01*
X90446702Y-163555431D01*
X90511880Y-163511881D01*
X90668805Y-163277028D01*
X90710000Y-163069926D01*
X90710000Y-158194670D01*
X101465000Y-158194670D01*
X101465000Y-158805330D01*
X101698690Y-159369507D01*
X101829183Y-159500000D01*
X101698690Y-159630493D01*
X101465000Y-160194670D01*
X101465000Y-160805330D01*
X101698690Y-161369507D01*
X102130493Y-161801310D01*
X102694670Y-162035000D01*
X103305330Y-162035000D01*
X103869507Y-161801310D01*
X104301310Y-161369507D01*
X104535000Y-160805330D01*
X104535000Y-160194670D01*
X104301310Y-159630493D01*
X104170817Y-159500000D01*
X104301310Y-159369507D01*
X104535000Y-158805330D01*
X104535000Y-158194670D01*
X104301310Y-157630493D01*
X104250976Y-157580159D01*
X108349446Y-157580159D01*
X108435852Y-157836643D01*
X109009336Y-158046458D01*
X109619460Y-158020839D01*
X110064148Y-157836643D01*
X110150554Y-157580159D01*
X109250000Y-156679605D01*
X108349446Y-157580159D01*
X104250976Y-157580159D01*
X103869507Y-157198690D01*
X103305330Y-156965000D01*
X102694670Y-156965000D01*
X102130493Y-157198690D01*
X101698690Y-157630493D01*
X101465000Y-158194670D01*
X90710000Y-158194670D01*
X90710000Y-156194670D01*
X95215000Y-156194670D01*
X95215000Y-156805330D01*
X95448690Y-157369507D01*
X95880493Y-157801310D01*
X96444670Y-158035000D01*
X97055330Y-158035000D01*
X97619507Y-157801310D01*
X98051310Y-157369507D01*
X98285000Y-156805330D01*
X98285000Y-156259336D01*
X107703542Y-156259336D01*
X107729161Y-156869460D01*
X107913357Y-157314148D01*
X108169841Y-157400554D01*
X109070395Y-156500000D01*
X109429605Y-156500000D01*
X110330159Y-157400554D01*
X110586643Y-157314148D01*
X110796458Y-156740664D01*
X110770839Y-156130540D01*
X110586643Y-155685852D01*
X110330159Y-155599446D01*
X109429605Y-156500000D01*
X109070395Y-156500000D01*
X108169841Y-155599446D01*
X107913357Y-155685852D01*
X107703542Y-156259336D01*
X98285000Y-156259336D01*
X98285000Y-156194670D01*
X98051310Y-155630493D01*
X97840658Y-155419841D01*
X108349446Y-155419841D01*
X109250000Y-156320395D01*
X110150554Y-155419841D01*
X110064148Y-155163357D01*
X109490664Y-154953542D01*
X108880540Y-154979161D01*
X108435852Y-155163357D01*
X108349446Y-155419841D01*
X97840658Y-155419841D01*
X97619507Y-155198690D01*
X97055330Y-154965000D01*
X96444670Y-154965000D01*
X95880493Y-155198690D01*
X95448690Y-155630493D01*
X95215000Y-156194670D01*
X90710000Y-156194670D01*
X90710000Y-151194670D01*
X95215000Y-151194670D01*
X95215000Y-151805330D01*
X95448690Y-152369507D01*
X95880493Y-152801310D01*
X96444670Y-153035000D01*
X97055330Y-153035000D01*
X97619507Y-152801310D01*
X98051310Y-152369507D01*
X98285000Y-151805330D01*
X98285000Y-151194670D01*
X107715000Y-151194670D01*
X107715000Y-151805330D01*
X107948690Y-152369507D01*
X108380493Y-152801310D01*
X108944670Y-153035000D01*
X109555330Y-153035000D01*
X110119507Y-152801310D01*
X110551310Y-152369507D01*
X110785000Y-151805330D01*
X110785000Y-151194670D01*
X110551310Y-150630493D01*
X110119507Y-150198690D01*
X109555330Y-149965000D01*
X108944670Y-149965000D01*
X108380493Y-150198690D01*
X107948690Y-150630493D01*
X107715000Y-151194670D01*
X98285000Y-151194670D01*
X98051310Y-150630493D01*
X97619507Y-150198690D01*
X97055330Y-149965000D01*
X96444670Y-149965000D01*
X95880493Y-150198690D01*
X95448690Y-150630493D01*
X95215000Y-151194670D01*
X90710000Y-151194670D01*
X90710000Y-147259336D01*
X101453542Y-147259336D01*
X101479161Y-147869460D01*
X101663357Y-148314148D01*
X101919839Y-148400553D01*
X101805282Y-148515110D01*
X101809678Y-148519506D01*
X101698690Y-148630493D01*
X101465000Y-149194670D01*
X101465000Y-149805330D01*
X101698690Y-150369507D01*
X102130493Y-150801310D01*
X102694670Y-151035000D01*
X103305330Y-151035000D01*
X103869507Y-150801310D01*
X104301310Y-150369507D01*
X104535000Y-149805330D01*
X104535000Y-149194670D01*
X104301310Y-148630493D01*
X104190323Y-148519506D01*
X104194718Y-148515110D01*
X104080161Y-148400553D01*
X104336643Y-148314148D01*
X104546458Y-147740664D01*
X104520839Y-147130540D01*
X104336643Y-146685852D01*
X104080159Y-146599446D01*
X103179605Y-147500000D01*
X103193748Y-147514143D01*
X103014143Y-147693748D01*
X103000000Y-147679605D01*
X102985858Y-147693748D01*
X102806253Y-147514143D01*
X102820395Y-147500000D01*
X101919841Y-146599446D01*
X101663357Y-146685852D01*
X101453542Y-147259336D01*
X90710000Y-147259336D01*
X90710000Y-142194670D01*
X101465000Y-142194670D01*
X101465000Y-142805330D01*
X101698690Y-143369507D01*
X101829183Y-143500000D01*
X101698690Y-143630493D01*
X101465000Y-144194670D01*
X101465000Y-144805330D01*
X101698690Y-145369507D01*
X102130493Y-145801310D01*
X102595201Y-145993799D01*
X102185852Y-146163357D01*
X102099446Y-146419841D01*
X103000000Y-147320395D01*
X103900554Y-146419841D01*
X103814148Y-146163357D01*
X103379425Y-146004309D01*
X103869507Y-145801310D01*
X104301310Y-145369507D01*
X104535000Y-144805330D01*
X104535000Y-144194670D01*
X104301310Y-143630493D01*
X104170817Y-143500000D01*
X104301310Y-143369507D01*
X104535000Y-142805330D01*
X104535000Y-142524234D01*
X146865000Y-142524234D01*
X146865000Y-142975766D01*
X147037793Y-143392926D01*
X147357074Y-143712207D01*
X147774234Y-143885000D01*
X148225766Y-143885000D01*
X148642926Y-143712207D01*
X148962207Y-143392926D01*
X149135000Y-142975766D01*
X149135000Y-142524234D01*
X148962207Y-142107074D01*
X148642926Y-141787793D01*
X148225766Y-141615000D01*
X147774234Y-141615000D01*
X147357074Y-141787793D01*
X147037793Y-142107074D01*
X146865000Y-142524234D01*
X104535000Y-142524234D01*
X104535000Y-142194670D01*
X104301310Y-141630493D01*
X104250976Y-141580159D01*
X108349446Y-141580159D01*
X108435852Y-141836643D01*
X109009336Y-142046458D01*
X109619460Y-142020839D01*
X110064148Y-141836643D01*
X110150554Y-141580159D01*
X109250000Y-140679605D01*
X108349446Y-141580159D01*
X104250976Y-141580159D01*
X103869507Y-141198690D01*
X103305330Y-140965000D01*
X102694670Y-140965000D01*
X102130493Y-141198690D01*
X101698690Y-141630493D01*
X101465000Y-142194670D01*
X90710000Y-142194670D01*
X90710000Y-140194670D01*
X95215000Y-140194670D01*
X95215000Y-140805330D01*
X95448690Y-141369507D01*
X95880493Y-141801310D01*
X96444670Y-142035000D01*
X97055330Y-142035000D01*
X97619507Y-141801310D01*
X98051310Y-141369507D01*
X98285000Y-140805330D01*
X98285000Y-140259336D01*
X107703542Y-140259336D01*
X107729161Y-140869460D01*
X107913357Y-141314148D01*
X108169841Y-141400554D01*
X109070395Y-140500000D01*
X109429605Y-140500000D01*
X110330159Y-141400554D01*
X110586643Y-141314148D01*
X110796458Y-140740664D01*
X110770839Y-140130540D01*
X110586643Y-139685852D01*
X110330159Y-139599446D01*
X109429605Y-140500000D01*
X109070395Y-140500000D01*
X108169841Y-139599446D01*
X107913357Y-139685852D01*
X107703542Y-140259336D01*
X98285000Y-140259336D01*
X98285000Y-140194670D01*
X98051310Y-139630493D01*
X97840658Y-139419841D01*
X108349446Y-139419841D01*
X109250000Y-140320395D01*
X110150554Y-139419841D01*
X110064148Y-139163357D01*
X109490664Y-138953542D01*
X108880540Y-138979161D01*
X108435852Y-139163357D01*
X108349446Y-139419841D01*
X97840658Y-139419841D01*
X97619507Y-139198690D01*
X97055330Y-138965000D01*
X96444670Y-138965000D01*
X95880493Y-139198690D01*
X95448690Y-139630493D01*
X95215000Y-140194670D01*
X90710000Y-140194670D01*
X90710000Y-135194670D01*
X95215000Y-135194670D01*
X95215000Y-135805330D01*
X95448690Y-136369507D01*
X95880493Y-136801310D01*
X96444670Y-137035000D01*
X97055330Y-137035000D01*
X97619507Y-136801310D01*
X98051310Y-136369507D01*
X98285000Y-135805330D01*
X98285000Y-135194670D01*
X107715000Y-135194670D01*
X107715000Y-135805330D01*
X107948690Y-136369507D01*
X108380493Y-136801310D01*
X108944670Y-137035000D01*
X109555330Y-137035000D01*
X110119507Y-136801310D01*
X110551310Y-136369507D01*
X110785000Y-135805330D01*
X110785000Y-135194670D01*
X110702045Y-134994398D01*
X146715000Y-134994398D01*
X146715000Y-135505602D01*
X146910629Y-135977894D01*
X147272106Y-136339371D01*
X147744398Y-136535000D01*
X148255602Y-136535000D01*
X148727894Y-136339371D01*
X149089371Y-135977894D01*
X149285000Y-135505602D01*
X149285000Y-134994398D01*
X149089371Y-134522106D01*
X148727894Y-134160629D01*
X148255602Y-133965000D01*
X147744398Y-133965000D01*
X147272106Y-134160629D01*
X146910629Y-134522106D01*
X146715000Y-134994398D01*
X110702045Y-134994398D01*
X110551310Y-134630493D01*
X110119507Y-134198690D01*
X109555330Y-133965000D01*
X108944670Y-133965000D01*
X108380493Y-134198690D01*
X107948690Y-134630493D01*
X107715000Y-135194670D01*
X98285000Y-135194670D01*
X98051310Y-134630493D01*
X97619507Y-134198690D01*
X97055330Y-133965000D01*
X96444670Y-133965000D01*
X95880493Y-134198690D01*
X95448690Y-134630493D01*
X95215000Y-135194670D01*
X90710000Y-135194670D01*
X90710000Y-131259336D01*
X101453542Y-131259336D01*
X101479161Y-131869460D01*
X101663357Y-132314148D01*
X101919839Y-132400553D01*
X101805282Y-132515110D01*
X101809678Y-132519506D01*
X101698690Y-132630493D01*
X101465000Y-133194670D01*
X101465000Y-133805330D01*
X101698690Y-134369507D01*
X102130493Y-134801310D01*
X102694670Y-135035000D01*
X103305330Y-135035000D01*
X103869507Y-134801310D01*
X104301310Y-134369507D01*
X104535000Y-133805330D01*
X104535000Y-133194670D01*
X104301310Y-132630493D01*
X104190323Y-132519506D01*
X104194718Y-132515110D01*
X104080161Y-132400553D01*
X104336643Y-132314148D01*
X104546458Y-131740664D01*
X104520839Y-131130540D01*
X104336643Y-130685852D01*
X104080159Y-130599446D01*
X103179605Y-131500000D01*
X103193748Y-131514143D01*
X103014143Y-131693748D01*
X103000000Y-131679605D01*
X102985858Y-131693748D01*
X102806253Y-131514143D01*
X102820395Y-131500000D01*
X101919841Y-130599446D01*
X101663357Y-130685852D01*
X101453542Y-131259336D01*
X90710000Y-131259336D01*
X90710000Y-126194670D01*
X101465000Y-126194670D01*
X101465000Y-126805330D01*
X101698690Y-127369507D01*
X101829183Y-127500000D01*
X101698690Y-127630493D01*
X101465000Y-128194670D01*
X101465000Y-128805330D01*
X101698690Y-129369507D01*
X102130493Y-129801310D01*
X102595201Y-129993799D01*
X102185852Y-130163357D01*
X102099446Y-130419841D01*
X103000000Y-131320395D01*
X103900554Y-130419841D01*
X103814148Y-130163357D01*
X103379425Y-130004309D01*
X103869507Y-129801310D01*
X104301310Y-129369507D01*
X104535000Y-128805330D01*
X104535000Y-128194670D01*
X104301310Y-127630493D01*
X104170817Y-127500000D01*
X104301310Y-127369507D01*
X104535000Y-126805330D01*
X104535000Y-126194670D01*
X104301310Y-125630493D01*
X104250976Y-125580159D01*
X108349446Y-125580159D01*
X108435852Y-125836643D01*
X109009336Y-126046458D01*
X109619460Y-126020839D01*
X110064148Y-125836643D01*
X110150554Y-125580159D01*
X109250000Y-124679605D01*
X108349446Y-125580159D01*
X104250976Y-125580159D01*
X103869507Y-125198690D01*
X103305330Y-124965000D01*
X102694670Y-124965000D01*
X102130493Y-125198690D01*
X101698690Y-125630493D01*
X101465000Y-126194670D01*
X90710000Y-126194670D01*
X90710000Y-124194670D01*
X95215000Y-124194670D01*
X95215000Y-124805330D01*
X95448690Y-125369507D01*
X95880493Y-125801310D01*
X96444670Y-126035000D01*
X97055330Y-126035000D01*
X97619507Y-125801310D01*
X98051310Y-125369507D01*
X98285000Y-124805330D01*
X98285000Y-124259336D01*
X107703542Y-124259336D01*
X107729161Y-124869460D01*
X107913357Y-125314148D01*
X108169841Y-125400554D01*
X109070395Y-124500000D01*
X109429605Y-124500000D01*
X110330159Y-125400554D01*
X110586643Y-125314148D01*
X110796458Y-124740664D01*
X110770839Y-124130540D01*
X110586643Y-123685852D01*
X110330159Y-123599446D01*
X109429605Y-124500000D01*
X109070395Y-124500000D01*
X108169841Y-123599446D01*
X107913357Y-123685852D01*
X107703542Y-124259336D01*
X98285000Y-124259336D01*
X98285000Y-124194670D01*
X98051310Y-123630493D01*
X97840658Y-123419841D01*
X108349446Y-123419841D01*
X109250000Y-124320395D01*
X110150554Y-123419841D01*
X110064148Y-123163357D01*
X109490664Y-122953542D01*
X108880540Y-122979161D01*
X108435852Y-123163357D01*
X108349446Y-123419841D01*
X97840658Y-123419841D01*
X97619507Y-123198690D01*
X97055330Y-122965000D01*
X96444670Y-122965000D01*
X95880493Y-123198690D01*
X95448690Y-123630493D01*
X95215000Y-124194670D01*
X90710000Y-124194670D01*
X90710000Y-119194670D01*
X95215000Y-119194670D01*
X95215000Y-119805330D01*
X95448690Y-120369507D01*
X95880493Y-120801310D01*
X96444670Y-121035000D01*
X97055330Y-121035000D01*
X97619507Y-120801310D01*
X98051310Y-120369507D01*
X98285000Y-119805330D01*
X98285000Y-119194670D01*
X107715000Y-119194670D01*
X107715000Y-119805330D01*
X107948690Y-120369507D01*
X108380493Y-120801310D01*
X108944670Y-121035000D01*
X109555330Y-121035000D01*
X110119507Y-120801310D01*
X110551310Y-120369507D01*
X110785000Y-119805330D01*
X110785000Y-119194670D01*
X110551310Y-118630493D01*
X110119507Y-118198690D01*
X109555330Y-117965000D01*
X108944670Y-117965000D01*
X108380493Y-118198690D01*
X107948690Y-118630493D01*
X107715000Y-119194670D01*
X98285000Y-119194670D01*
X98051310Y-118630493D01*
X97619507Y-118198690D01*
X97055330Y-117965000D01*
X96444670Y-117965000D01*
X95880493Y-118198690D01*
X95448690Y-118630493D01*
X95215000Y-119194670D01*
X90710000Y-119194670D01*
X90710000Y-115259336D01*
X101453542Y-115259336D01*
X101479161Y-115869460D01*
X101663357Y-116314148D01*
X101919839Y-116400553D01*
X101805282Y-116515110D01*
X101809678Y-116519506D01*
X101698690Y-116630493D01*
X101465000Y-117194670D01*
X101465000Y-117805330D01*
X101698690Y-118369507D01*
X102130493Y-118801310D01*
X102694670Y-119035000D01*
X103305330Y-119035000D01*
X103869507Y-118801310D01*
X104301310Y-118369507D01*
X104535000Y-117805330D01*
X104535000Y-117194670D01*
X104301310Y-116630493D01*
X104190323Y-116519506D01*
X104194718Y-116515110D01*
X104080161Y-116400553D01*
X104336643Y-116314148D01*
X104546458Y-115740664D01*
X104520839Y-115130540D01*
X104336643Y-114685852D01*
X104080159Y-114599446D01*
X103179605Y-115500000D01*
X103193748Y-115514143D01*
X103014143Y-115693748D01*
X103000000Y-115679605D01*
X102985858Y-115693748D01*
X102806253Y-115514143D01*
X102820395Y-115500000D01*
X101919841Y-114599446D01*
X101663357Y-114685852D01*
X101453542Y-115259336D01*
X90710000Y-115259336D01*
X90710000Y-110194670D01*
X101465000Y-110194670D01*
X101465000Y-110805330D01*
X101698690Y-111369507D01*
X101829183Y-111500000D01*
X101698690Y-111630493D01*
X101465000Y-112194670D01*
X101465000Y-112805330D01*
X101698690Y-113369507D01*
X102130493Y-113801310D01*
X102595201Y-113993799D01*
X102185852Y-114163357D01*
X102099446Y-114419841D01*
X103000000Y-115320395D01*
X103900554Y-114419841D01*
X103814148Y-114163357D01*
X103379425Y-114004309D01*
X103869507Y-113801310D01*
X104301310Y-113369507D01*
X104535000Y-112805330D01*
X104535000Y-112194670D01*
X104301310Y-111630493D01*
X104170817Y-111500000D01*
X104301310Y-111369507D01*
X104535000Y-110805330D01*
X104535000Y-110194670D01*
X104301310Y-109630493D01*
X104250976Y-109580159D01*
X108349446Y-109580159D01*
X108435852Y-109836643D01*
X109009336Y-110046458D01*
X109619460Y-110020839D01*
X110064148Y-109836643D01*
X110150554Y-109580159D01*
X109250000Y-108679605D01*
X108349446Y-109580159D01*
X104250976Y-109580159D01*
X103869507Y-109198690D01*
X103305330Y-108965000D01*
X102694670Y-108965000D01*
X102130493Y-109198690D01*
X101698690Y-109630493D01*
X101465000Y-110194670D01*
X90710000Y-110194670D01*
X90710000Y-108194670D01*
X95215000Y-108194670D01*
X95215000Y-108805330D01*
X95448690Y-109369507D01*
X95880493Y-109801310D01*
X96444670Y-110035000D01*
X97055330Y-110035000D01*
X97619507Y-109801310D01*
X98051310Y-109369507D01*
X98285000Y-108805330D01*
X98285000Y-108259336D01*
X107703542Y-108259336D01*
X107729161Y-108869460D01*
X107913357Y-109314148D01*
X108169841Y-109400554D01*
X109070395Y-108500000D01*
X109429605Y-108500000D01*
X110330159Y-109400554D01*
X110586643Y-109314148D01*
X110796458Y-108740664D01*
X110770839Y-108130540D01*
X110586643Y-107685852D01*
X110330159Y-107599446D01*
X109429605Y-108500000D01*
X109070395Y-108500000D01*
X108169841Y-107599446D01*
X107913357Y-107685852D01*
X107703542Y-108259336D01*
X98285000Y-108259336D01*
X98285000Y-108194670D01*
X98051310Y-107630493D01*
X97840658Y-107419841D01*
X108349446Y-107419841D01*
X109250000Y-108320395D01*
X110150554Y-107419841D01*
X110064148Y-107163357D01*
X109490664Y-106953542D01*
X108880540Y-106979161D01*
X108435852Y-107163357D01*
X108349446Y-107419841D01*
X97840658Y-107419841D01*
X97619507Y-107198690D01*
X97055330Y-106965000D01*
X96444670Y-106965000D01*
X95880493Y-107198690D01*
X95448690Y-107630493D01*
X95215000Y-108194670D01*
X90710000Y-108194670D01*
X90710000Y-103194670D01*
X95215000Y-103194670D01*
X95215000Y-103805330D01*
X95448690Y-104369507D01*
X95880493Y-104801310D01*
X96444670Y-105035000D01*
X97055330Y-105035000D01*
X97619507Y-104801310D01*
X98051310Y-104369507D01*
X98285000Y-103805330D01*
X98285000Y-103194670D01*
X107715000Y-103194670D01*
X107715000Y-103805330D01*
X107948690Y-104369507D01*
X108380493Y-104801310D01*
X108944670Y-105035000D01*
X109555330Y-105035000D01*
X110119507Y-104801310D01*
X110551310Y-104369507D01*
X110785000Y-103805330D01*
X110785000Y-103194670D01*
X110551310Y-102630493D01*
X110119507Y-102198690D01*
X109555330Y-101965000D01*
X108944670Y-101965000D01*
X108380493Y-102198690D01*
X107948690Y-102630493D01*
X107715000Y-103194670D01*
X98285000Y-103194670D01*
X98051310Y-102630493D01*
X97619507Y-102198690D01*
X97055330Y-101965000D01*
X96444670Y-101965000D01*
X95880493Y-102198690D01*
X95448690Y-102630493D01*
X95215000Y-103194670D01*
X90710000Y-103194670D01*
X90710000Y-99259336D01*
X101453542Y-99259336D01*
X101479161Y-99869460D01*
X101663357Y-100314148D01*
X101919839Y-100400553D01*
X101805282Y-100515110D01*
X101809678Y-100519506D01*
X101698690Y-100630493D01*
X101465000Y-101194670D01*
X101465000Y-101805330D01*
X101698690Y-102369507D01*
X102130493Y-102801310D01*
X102694670Y-103035000D01*
X103305330Y-103035000D01*
X103869507Y-102801310D01*
X104301310Y-102369507D01*
X104535000Y-101805330D01*
X104535000Y-101194670D01*
X104301310Y-100630493D01*
X104190323Y-100519506D01*
X104194718Y-100515110D01*
X104080161Y-100400553D01*
X104336643Y-100314148D01*
X104546458Y-99740664D01*
X104520839Y-99130540D01*
X104336643Y-98685852D01*
X104080159Y-98599446D01*
X103179605Y-99500000D01*
X103193748Y-99514143D01*
X103014143Y-99693748D01*
X103000000Y-99679605D01*
X102985858Y-99693748D01*
X102806253Y-99514143D01*
X102820395Y-99500000D01*
X101919841Y-98599446D01*
X101663357Y-98685852D01*
X101453542Y-99259336D01*
X90710000Y-99259336D01*
X90710000Y-94194670D01*
X101465000Y-94194670D01*
X101465000Y-94805330D01*
X101698690Y-95369507D01*
X101829183Y-95500000D01*
X101698690Y-95630493D01*
X101465000Y-96194670D01*
X101465000Y-96805330D01*
X101698690Y-97369507D01*
X102130493Y-97801310D01*
X102595201Y-97993799D01*
X102185852Y-98163357D01*
X102099446Y-98419841D01*
X103000000Y-99320395D01*
X103900554Y-98419841D01*
X103814148Y-98163357D01*
X103379425Y-98004309D01*
X103869507Y-97801310D01*
X104301310Y-97369507D01*
X104535000Y-96805330D01*
X104535000Y-96194670D01*
X104301310Y-95630493D01*
X104170817Y-95500000D01*
X104301310Y-95369507D01*
X104535000Y-94805330D01*
X104535000Y-94194670D01*
X104301310Y-93630493D01*
X104250976Y-93580159D01*
X108349446Y-93580159D01*
X108435852Y-93836643D01*
X109009336Y-94046458D01*
X109619460Y-94020839D01*
X110064148Y-93836643D01*
X110150554Y-93580159D01*
X109250000Y-92679605D01*
X108349446Y-93580159D01*
X104250976Y-93580159D01*
X103869507Y-93198690D01*
X103305330Y-92965000D01*
X102694670Y-92965000D01*
X102130493Y-93198690D01*
X101698690Y-93630493D01*
X101465000Y-94194670D01*
X90710000Y-94194670D01*
X90710000Y-92194670D01*
X95215000Y-92194670D01*
X95215000Y-92805330D01*
X95448690Y-93369507D01*
X95880493Y-93801310D01*
X96444670Y-94035000D01*
X97055330Y-94035000D01*
X97619507Y-93801310D01*
X98051310Y-93369507D01*
X98285000Y-92805330D01*
X98285000Y-92259336D01*
X107703542Y-92259336D01*
X107729161Y-92869460D01*
X107913357Y-93314148D01*
X108169841Y-93400554D01*
X109070395Y-92500000D01*
X109429605Y-92500000D01*
X110330159Y-93400554D01*
X110586643Y-93314148D01*
X110796458Y-92740664D01*
X110770839Y-92130540D01*
X110586643Y-91685852D01*
X110330159Y-91599446D01*
X109429605Y-92500000D01*
X109070395Y-92500000D01*
X108169841Y-91599446D01*
X107913357Y-91685852D01*
X107703542Y-92259336D01*
X98285000Y-92259336D01*
X98285000Y-92194670D01*
X98051310Y-91630493D01*
X97840658Y-91419841D01*
X108349446Y-91419841D01*
X109250000Y-92320395D01*
X110150554Y-91419841D01*
X110064148Y-91163357D01*
X109490664Y-90953542D01*
X108880540Y-90979161D01*
X108435852Y-91163357D01*
X108349446Y-91419841D01*
X97840658Y-91419841D01*
X97619507Y-91198690D01*
X97055330Y-90965000D01*
X96444670Y-90965000D01*
X95880493Y-91198690D01*
X95448690Y-91630493D01*
X95215000Y-92194670D01*
X90710000Y-92194670D01*
X90710000Y-87194670D01*
X95215000Y-87194670D01*
X95215000Y-87805330D01*
X95448690Y-88369507D01*
X95880493Y-88801310D01*
X96444670Y-89035000D01*
X97055330Y-89035000D01*
X97619507Y-88801310D01*
X98051310Y-88369507D01*
X98285000Y-87805330D01*
X98285000Y-87194670D01*
X107715000Y-87194670D01*
X107715000Y-87805330D01*
X107948690Y-88369507D01*
X108380493Y-88801310D01*
X108944670Y-89035000D01*
X109555330Y-89035000D01*
X110119507Y-88801310D01*
X110551310Y-88369507D01*
X110785000Y-87805330D01*
X110785000Y-87194670D01*
X110551310Y-86630493D01*
X110119507Y-86198690D01*
X109555330Y-85965000D01*
X108944670Y-85965000D01*
X108380493Y-86198690D01*
X107948690Y-86630493D01*
X107715000Y-87194670D01*
X98285000Y-87194670D01*
X98051310Y-86630493D01*
X97619507Y-86198690D01*
X97055330Y-85965000D01*
X96444670Y-85965000D01*
X95880493Y-86198690D01*
X95448690Y-86630493D01*
X95215000Y-87194670D01*
X90710000Y-87194670D01*
X90710000Y-83259336D01*
X101453542Y-83259336D01*
X101479161Y-83869460D01*
X101663357Y-84314148D01*
X101919839Y-84400553D01*
X101805282Y-84515110D01*
X101809678Y-84519506D01*
X101698690Y-84630493D01*
X101465000Y-85194670D01*
X101465000Y-85805330D01*
X101698690Y-86369507D01*
X102130493Y-86801310D01*
X102694670Y-87035000D01*
X103305330Y-87035000D01*
X103869507Y-86801310D01*
X104301310Y-86369507D01*
X104535000Y-85805330D01*
X104535000Y-85194670D01*
X104301310Y-84630493D01*
X104190323Y-84519506D01*
X104194718Y-84515110D01*
X104080161Y-84400553D01*
X104336643Y-84314148D01*
X104546458Y-83740664D01*
X104520839Y-83130540D01*
X104336643Y-82685852D01*
X104080159Y-82599446D01*
X103179605Y-83500000D01*
X103193748Y-83514143D01*
X103014143Y-83693748D01*
X103000000Y-83679605D01*
X102985858Y-83693748D01*
X102806253Y-83514143D01*
X102820395Y-83500000D01*
X101919841Y-82599446D01*
X101663357Y-82685852D01*
X101453542Y-83259336D01*
X90710000Y-83259336D01*
X90710000Y-78194670D01*
X101465000Y-78194670D01*
X101465000Y-78805330D01*
X101698690Y-79369507D01*
X101829183Y-79500000D01*
X101698690Y-79630493D01*
X101465000Y-80194670D01*
X101465000Y-80805330D01*
X101698690Y-81369507D01*
X102130493Y-81801310D01*
X102595201Y-81993799D01*
X102185852Y-82163357D01*
X102099446Y-82419841D01*
X103000000Y-83320395D01*
X103900554Y-82419841D01*
X103814148Y-82163357D01*
X103379425Y-82004309D01*
X103869507Y-81801310D01*
X104301310Y-81369507D01*
X104535000Y-80805330D01*
X104535000Y-80194670D01*
X104301310Y-79630493D01*
X104170817Y-79500000D01*
X104301310Y-79369507D01*
X104535000Y-78805330D01*
X104535000Y-78194670D01*
X104301310Y-77630493D01*
X104250976Y-77580159D01*
X108349446Y-77580159D01*
X108435852Y-77836643D01*
X109009336Y-78046458D01*
X109619460Y-78020839D01*
X110064148Y-77836643D01*
X110150554Y-77580159D01*
X109250000Y-76679605D01*
X108349446Y-77580159D01*
X104250976Y-77580159D01*
X103869507Y-77198690D01*
X103305330Y-76965000D01*
X102694670Y-76965000D01*
X102130493Y-77198690D01*
X101698690Y-77630493D01*
X101465000Y-78194670D01*
X90710000Y-78194670D01*
X90710000Y-76194670D01*
X95215000Y-76194670D01*
X95215000Y-76805330D01*
X95448690Y-77369507D01*
X95880493Y-77801310D01*
X96444670Y-78035000D01*
X97055330Y-78035000D01*
X97619507Y-77801310D01*
X98051310Y-77369507D01*
X98285000Y-76805330D01*
X98285000Y-76259336D01*
X107703542Y-76259336D01*
X107729161Y-76869460D01*
X107913357Y-77314148D01*
X108169841Y-77400554D01*
X109070395Y-76500000D01*
X109429605Y-76500000D01*
X110330159Y-77400554D01*
X110586643Y-77314148D01*
X110796458Y-76740664D01*
X110770839Y-76130540D01*
X110586643Y-75685852D01*
X110330159Y-75599446D01*
X109429605Y-76500000D01*
X109070395Y-76500000D01*
X108169841Y-75599446D01*
X107913357Y-75685852D01*
X107703542Y-76259336D01*
X98285000Y-76259336D01*
X98285000Y-76194670D01*
X98051310Y-75630493D01*
X97840658Y-75419841D01*
X108349446Y-75419841D01*
X109250000Y-76320395D01*
X110150554Y-75419841D01*
X110064148Y-75163357D01*
X109490664Y-74953542D01*
X108880540Y-74979161D01*
X108435852Y-75163357D01*
X108349446Y-75419841D01*
X97840658Y-75419841D01*
X97619507Y-75198690D01*
X97055330Y-74965000D01*
X96444670Y-74965000D01*
X95880493Y-75198690D01*
X95448690Y-75630493D01*
X95215000Y-76194670D01*
X90710000Y-76194670D01*
X90710000Y-71194670D01*
X95215000Y-71194670D01*
X95215000Y-71805330D01*
X95448690Y-72369507D01*
X95880493Y-72801310D01*
X96444670Y-73035000D01*
X97055330Y-73035000D01*
X97619507Y-72801310D01*
X98051310Y-72369507D01*
X98285000Y-71805330D01*
X98285000Y-71194670D01*
X107715000Y-71194670D01*
X107715000Y-71805330D01*
X107948690Y-72369507D01*
X108380493Y-72801310D01*
X108944670Y-73035000D01*
X109555330Y-73035000D01*
X110119507Y-72801310D01*
X110551310Y-72369507D01*
X110785000Y-71805330D01*
X110785000Y-71194670D01*
X110551310Y-70630493D01*
X110119507Y-70198690D01*
X109555330Y-69965000D01*
X108944670Y-69965000D01*
X108380493Y-70198690D01*
X107948690Y-70630493D01*
X107715000Y-71194670D01*
X98285000Y-71194670D01*
X98051310Y-70630493D01*
X97619507Y-70198690D01*
X97055330Y-69965000D01*
X96444670Y-69965000D01*
X95880493Y-70198690D01*
X95448690Y-70630493D01*
X95215000Y-71194670D01*
X90710000Y-71194670D01*
X90710000Y-67259336D01*
X101453542Y-67259336D01*
X101479161Y-67869460D01*
X101663357Y-68314148D01*
X101919839Y-68400553D01*
X101805282Y-68515110D01*
X101809678Y-68519506D01*
X101698690Y-68630493D01*
X101465000Y-69194670D01*
X101465000Y-69805330D01*
X101698690Y-70369507D01*
X102130493Y-70801310D01*
X102694670Y-71035000D01*
X103305330Y-71035000D01*
X103869507Y-70801310D01*
X104301310Y-70369507D01*
X104535000Y-69805330D01*
X104535000Y-69194670D01*
X104301310Y-68630493D01*
X104190323Y-68519506D01*
X104194718Y-68515110D01*
X104080161Y-68400553D01*
X104336643Y-68314148D01*
X104546458Y-67740664D01*
X104520839Y-67130540D01*
X104336643Y-66685852D01*
X104080159Y-66599446D01*
X103179605Y-67500000D01*
X103193748Y-67514143D01*
X103014143Y-67693748D01*
X103000000Y-67679605D01*
X102985858Y-67693748D01*
X102806253Y-67514143D01*
X102820395Y-67500000D01*
X101919841Y-66599446D01*
X101663357Y-66685852D01*
X101453542Y-67259336D01*
X90710000Y-67259336D01*
X90710000Y-62194670D01*
X101465000Y-62194670D01*
X101465000Y-62805330D01*
X101698690Y-63369507D01*
X101829183Y-63500000D01*
X101698690Y-63630493D01*
X101465000Y-64194670D01*
X101465000Y-64805330D01*
X101698690Y-65369507D01*
X102130493Y-65801310D01*
X102595201Y-65993799D01*
X102185852Y-66163357D01*
X102099446Y-66419841D01*
X103000000Y-67320395D01*
X103900554Y-66419841D01*
X103814148Y-66163357D01*
X103379425Y-66004309D01*
X103869507Y-65801310D01*
X104301310Y-65369507D01*
X104535000Y-64805330D01*
X104535000Y-64194670D01*
X104301310Y-63630493D01*
X104170817Y-63500000D01*
X104301310Y-63369507D01*
X104535000Y-62805330D01*
X104535000Y-62194670D01*
X104301310Y-61630493D01*
X104250976Y-61580159D01*
X108349446Y-61580159D01*
X108435852Y-61836643D01*
X109009336Y-62046458D01*
X109619460Y-62020839D01*
X110064148Y-61836643D01*
X110150554Y-61580159D01*
X109250000Y-60679605D01*
X108349446Y-61580159D01*
X104250976Y-61580159D01*
X103869507Y-61198690D01*
X103305330Y-60965000D01*
X102694670Y-60965000D01*
X102130493Y-61198690D01*
X101698690Y-61630493D01*
X101465000Y-62194670D01*
X90710000Y-62194670D01*
X90710000Y-60194670D01*
X95215000Y-60194670D01*
X95215000Y-60805330D01*
X95448690Y-61369507D01*
X95880493Y-61801310D01*
X96444670Y-62035000D01*
X97055330Y-62035000D01*
X97619507Y-61801310D01*
X98051310Y-61369507D01*
X98285000Y-60805330D01*
X98285000Y-60259336D01*
X107703542Y-60259336D01*
X107729161Y-60869460D01*
X107913357Y-61314148D01*
X108169841Y-61400554D01*
X109070395Y-60500000D01*
X109429605Y-60500000D01*
X110330159Y-61400554D01*
X110586643Y-61314148D01*
X110796458Y-60740664D01*
X110770839Y-60130540D01*
X110586643Y-59685852D01*
X110330159Y-59599446D01*
X109429605Y-60500000D01*
X109070395Y-60500000D01*
X108169841Y-59599446D01*
X107913357Y-59685852D01*
X107703542Y-60259336D01*
X98285000Y-60259336D01*
X98285000Y-60194670D01*
X98051310Y-59630493D01*
X97840658Y-59419841D01*
X108349446Y-59419841D01*
X109250000Y-60320395D01*
X110150554Y-59419841D01*
X110064148Y-59163357D01*
X109490664Y-58953542D01*
X108880540Y-58979161D01*
X108435852Y-59163357D01*
X108349446Y-59419841D01*
X97840658Y-59419841D01*
X97619507Y-59198690D01*
X97055330Y-58965000D01*
X96444670Y-58965000D01*
X95880493Y-59198690D01*
X95448690Y-59630493D01*
X95215000Y-60194670D01*
X90710000Y-60194670D01*
X90710000Y-55194670D01*
X95215000Y-55194670D01*
X95215000Y-55805330D01*
X95448690Y-56369507D01*
X95880493Y-56801310D01*
X96444670Y-57035000D01*
X97055330Y-57035000D01*
X97619507Y-56801310D01*
X98051310Y-56369507D01*
X98285000Y-55805330D01*
X98285000Y-55194670D01*
X107715000Y-55194670D01*
X107715000Y-55805330D01*
X107948690Y-56369507D01*
X108380493Y-56801310D01*
X108944670Y-57035000D01*
X109555330Y-57035000D01*
X110119507Y-56801310D01*
X110551310Y-56369507D01*
X110785000Y-55805330D01*
X110785000Y-55194670D01*
X110551310Y-54630493D01*
X110119507Y-54198690D01*
X109555330Y-53965000D01*
X108944670Y-53965000D01*
X108380493Y-54198690D01*
X107948690Y-54630493D01*
X107715000Y-55194670D01*
X98285000Y-55194670D01*
X98051310Y-54630493D01*
X97619507Y-54198690D01*
X97055330Y-53965000D01*
X96444670Y-53965000D01*
X95880493Y-54198690D01*
X95448690Y-54630493D01*
X95215000Y-55194670D01*
X90710000Y-55194670D01*
X90710000Y-51259336D01*
X101453542Y-51259336D01*
X101479161Y-51869460D01*
X101663357Y-52314148D01*
X101919839Y-52400553D01*
X101805282Y-52515110D01*
X101809678Y-52519506D01*
X101698690Y-52630493D01*
X101465000Y-53194670D01*
X101465000Y-53805330D01*
X101698690Y-54369507D01*
X102130493Y-54801310D01*
X102694670Y-55035000D01*
X103305330Y-55035000D01*
X103869507Y-54801310D01*
X104301310Y-54369507D01*
X104535000Y-53805330D01*
X104535000Y-53194670D01*
X104301310Y-52630493D01*
X104190323Y-52519506D01*
X104194718Y-52515110D01*
X104080161Y-52400553D01*
X104336643Y-52314148D01*
X104546458Y-51740664D01*
X104520839Y-51130540D01*
X104336643Y-50685852D01*
X104080159Y-50599446D01*
X103179605Y-51500000D01*
X103193748Y-51514143D01*
X103014143Y-51693748D01*
X103000000Y-51679605D01*
X102985858Y-51693748D01*
X102806253Y-51514143D01*
X102820395Y-51500000D01*
X101919841Y-50599446D01*
X101663357Y-50685852D01*
X101453542Y-51259336D01*
X90710000Y-51259336D01*
X90710000Y-50419841D01*
X102099446Y-50419841D01*
X103000000Y-51320395D01*
X103900554Y-50419841D01*
X103814148Y-50163357D01*
X103240664Y-49953542D01*
X102630540Y-49979161D01*
X102185852Y-50163357D01*
X102099446Y-50419841D01*
X90710000Y-50419841D01*
X90710000Y-41555431D01*
X90765000Y-41555431D01*
X90765000Y-42444569D01*
X91105259Y-43266026D01*
X91733974Y-43894741D01*
X92555431Y-44235000D01*
X93444569Y-44235000D01*
X94266026Y-43894741D01*
X94894741Y-43266026D01*
X95235000Y-42444569D01*
X95235000Y-41555431D01*
X154765000Y-41555431D01*
X154765000Y-42444569D01*
X155105259Y-43266026D01*
X155733974Y-43894741D01*
X156555431Y-44235000D01*
X157444569Y-44235000D01*
X158266026Y-43894741D01*
X158894741Y-43266026D01*
X159235000Y-42444569D01*
X159235000Y-41555431D01*
X158894741Y-40733974D01*
X158266026Y-40105259D01*
X157444569Y-39765000D01*
X156555431Y-39765000D01*
X155733974Y-40105259D01*
X155105259Y-40733974D01*
X154765000Y-41555431D01*
X95235000Y-41555431D01*
X94894741Y-40733974D01*
X94266026Y-40105259D01*
X93444569Y-39765000D01*
X92555431Y-39765000D01*
X91733974Y-40105259D01*
X91105259Y-40733974D01*
X90765000Y-41555431D01*
X90710000Y-41555431D01*
X90710000Y-39710000D01*
X159290000Y-39710000D01*
X159290001Y-158749689D01*
G04 #@! TD*
M02*
