G04 #@! TF.GenerationSoftware,KiCad,Pcbnew,(5.0.1-3-g963ef8bb5)*
G04 #@! TF.CreationDate,2019-06-03T16:35:54+02:00*
G04 #@! TF.ProjectId,foodSampler_v10,666F6F6453616D706C65725F7631302E,rev?*
G04 #@! TF.SameCoordinates,Original*
G04 #@! TF.FileFunction,Legend,Bot*
G04 #@! TF.FilePolarity,Positive*
%FSLAX46Y46*%
G04 Gerber Fmt 4.6, Leading zero omitted, Abs format (unit mm)*
G04 Created by KiCad (PCBNEW (5.0.1-3-g963ef8bb5)) date 2019 June 03, Monday 16:35:54*
%MOMM*%
%LPD*%
G01*
G04 APERTURE LIST*
%ADD10C,0.300000*%
%ADD11C,0.400000*%
%ADD12C,0.120000*%
%ADD13C,0.150000*%
%ADD14C,0.010000*%
G04 APERTURE END LIST*
D10*
X148107142Y-89678571D02*
X148964285Y-89678571D01*
X148535714Y-89678571D02*
X148535714Y-88178571D01*
X148678571Y-88392857D01*
X148821428Y-88535714D01*
X148964285Y-88607142D01*
X147392857Y-89678571D02*
X147107142Y-89678571D01*
X146964285Y-89607142D01*
X146892857Y-89535714D01*
X146750000Y-89321428D01*
X146678571Y-89035714D01*
X146678571Y-88464285D01*
X146750000Y-88321428D01*
X146821428Y-88250000D01*
X146964285Y-88178571D01*
X147250000Y-88178571D01*
X147392857Y-88250000D01*
X147464285Y-88321428D01*
X147535714Y-88464285D01*
X147535714Y-88821428D01*
X147464285Y-88964285D01*
X147392857Y-89035714D01*
X147250000Y-89107142D01*
X146964285Y-89107142D01*
X146821428Y-89035714D01*
X146750000Y-88964285D01*
X146678571Y-88821428D01*
X145750000Y-88178571D02*
X145607142Y-88178571D01*
X145464285Y-88250000D01*
X145392857Y-88321428D01*
X145321428Y-88464285D01*
X145250000Y-88750000D01*
X145250000Y-89107142D01*
X145321428Y-89392857D01*
X145392857Y-89535714D01*
X145464285Y-89607142D01*
X145607142Y-89678571D01*
X145750000Y-89678571D01*
X145892857Y-89607142D01*
X145964285Y-89535714D01*
X146035714Y-89392857D01*
X146107142Y-89107142D01*
X146107142Y-88750000D01*
X146035714Y-88464285D01*
X145964285Y-88321428D01*
X145892857Y-88250000D01*
X145750000Y-88178571D01*
X143964285Y-88178571D02*
X144250000Y-88178571D01*
X144392857Y-88250000D01*
X144464285Y-88321428D01*
X144607142Y-88535714D01*
X144678571Y-88821428D01*
X144678571Y-89392857D01*
X144607142Y-89535714D01*
X144535714Y-89607142D01*
X144392857Y-89678571D01*
X144107142Y-89678571D01*
X143964285Y-89607142D01*
X143892857Y-89535714D01*
X143821428Y-89392857D01*
X143821428Y-89035714D01*
X143892857Y-88892857D01*
X143964285Y-88821428D01*
X144107142Y-88750000D01*
X144392857Y-88750000D01*
X144535714Y-88821428D01*
X144607142Y-88892857D01*
X144678571Y-89035714D01*
X143178571Y-89678571D02*
X143178571Y-88178571D01*
X142678571Y-89250000D01*
X142178571Y-88178571D01*
X142178571Y-89678571D01*
X140607142Y-89535714D02*
X140678571Y-89607142D01*
X140892857Y-89678571D01*
X141035714Y-89678571D01*
X141250000Y-89607142D01*
X141392857Y-89464285D01*
X141464285Y-89321428D01*
X141535714Y-89035714D01*
X141535714Y-88821428D01*
X141464285Y-88535714D01*
X141392857Y-88392857D01*
X141250000Y-88250000D01*
X141035714Y-88178571D01*
X140892857Y-88178571D01*
X140678571Y-88250000D01*
X140607142Y-88321428D01*
X139964285Y-89678571D02*
X139964285Y-88178571D01*
X139964285Y-88892857D02*
X139107142Y-88892857D01*
X139107142Y-89678571D02*
X139107142Y-88178571D01*
X138750000Y-89821428D02*
X137607142Y-89821428D01*
X137464285Y-88178571D02*
X136964285Y-89678571D01*
X136464285Y-88178571D01*
X135178571Y-89678571D02*
X136035714Y-89678571D01*
X135607142Y-89678571D02*
X135607142Y-88178571D01*
X135750000Y-88392857D01*
X135892857Y-88535714D01*
X136035714Y-88607142D01*
X134535714Y-89535714D02*
X134464285Y-89607142D01*
X134535714Y-89678571D01*
X134607142Y-89607142D01*
X134535714Y-89535714D01*
X134535714Y-89678571D01*
X133535714Y-88178571D02*
X133392857Y-88178571D01*
X133250000Y-88250000D01*
X133178571Y-88321428D01*
X133107142Y-88464285D01*
X133035714Y-88750000D01*
X133035714Y-89107142D01*
X133107142Y-89392857D01*
X133178571Y-89535714D01*
X133250000Y-89607142D01*
X133392857Y-89678571D01*
X133535714Y-89678571D01*
X133678571Y-89607142D01*
X133750000Y-89535714D01*
X133821428Y-89392857D01*
X133892857Y-89107142D01*
X133892857Y-88750000D01*
X133821428Y-88464285D01*
X133750000Y-88321428D01*
X133678571Y-88250000D01*
X133535714Y-88178571D01*
D11*
X150376190Y-68842857D02*
X151109523Y-68842857D01*
X151109523Y-69995238D02*
X151109523Y-67795238D01*
X150061904Y-67795238D01*
X148909523Y-69995238D02*
X149119047Y-69890476D01*
X149223809Y-69785714D01*
X149328571Y-69576190D01*
X149328571Y-68947619D01*
X149223809Y-68738095D01*
X149119047Y-68633333D01*
X148909523Y-68528571D01*
X148595238Y-68528571D01*
X148385714Y-68633333D01*
X148280952Y-68738095D01*
X148176190Y-68947619D01*
X148176190Y-69576190D01*
X148280952Y-69785714D01*
X148385714Y-69890476D01*
X148595238Y-69995238D01*
X148909523Y-69995238D01*
X146919047Y-69995238D02*
X147128571Y-69890476D01*
X147233333Y-69785714D01*
X147338095Y-69576190D01*
X147338095Y-68947619D01*
X147233333Y-68738095D01*
X147128571Y-68633333D01*
X146919047Y-68528571D01*
X146604761Y-68528571D01*
X146395238Y-68633333D01*
X146290476Y-68738095D01*
X146185714Y-68947619D01*
X146185714Y-69576190D01*
X146290476Y-69785714D01*
X146395238Y-69890476D01*
X146604761Y-69995238D01*
X146919047Y-69995238D01*
X144300000Y-69995238D02*
X144300000Y-67795238D01*
X144300000Y-69890476D02*
X144509523Y-69995238D01*
X144928571Y-69995238D01*
X145138095Y-69890476D01*
X145242857Y-69785714D01*
X145347619Y-69576190D01*
X145347619Y-68947619D01*
X145242857Y-68738095D01*
X145138095Y-68633333D01*
X144928571Y-68528571D01*
X144509523Y-68528571D01*
X144300000Y-68633333D01*
X143357142Y-69890476D02*
X143042857Y-69995238D01*
X142519047Y-69995238D01*
X142309523Y-69890476D01*
X142204761Y-69785714D01*
X142100000Y-69576190D01*
X142100000Y-69366666D01*
X142204761Y-69157142D01*
X142309523Y-69052380D01*
X142519047Y-68947619D01*
X142938095Y-68842857D01*
X143147619Y-68738095D01*
X143252380Y-68633333D01*
X143357142Y-68423809D01*
X143357142Y-68214285D01*
X143252380Y-68004761D01*
X143147619Y-67900000D01*
X142938095Y-67795238D01*
X142414285Y-67795238D01*
X142100000Y-67900000D01*
X140214285Y-69995238D02*
X140214285Y-68842857D01*
X140319047Y-68633333D01*
X140528571Y-68528571D01*
X140947619Y-68528571D01*
X141157142Y-68633333D01*
X140214285Y-69890476D02*
X140423809Y-69995238D01*
X140947619Y-69995238D01*
X141157142Y-69890476D01*
X141261904Y-69680952D01*
X141261904Y-69471428D01*
X141157142Y-69261904D01*
X140947619Y-69157142D01*
X140423809Y-69157142D01*
X140214285Y-69052380D01*
X139166666Y-69995238D02*
X139166666Y-68528571D01*
X139166666Y-68738095D02*
X139061904Y-68633333D01*
X138852380Y-68528571D01*
X138538095Y-68528571D01*
X138328571Y-68633333D01*
X138223809Y-68842857D01*
X138223809Y-69995238D01*
X138223809Y-68842857D02*
X138119047Y-68633333D01*
X137909523Y-68528571D01*
X137595238Y-68528571D01*
X137385714Y-68633333D01*
X137280952Y-68842857D01*
X137280952Y-69995238D01*
X136233333Y-68528571D02*
X136233333Y-70728571D01*
X136233333Y-68633333D02*
X136023809Y-68528571D01*
X135604761Y-68528571D01*
X135395238Y-68633333D01*
X135290476Y-68738095D01*
X135185714Y-68947619D01*
X135185714Y-69576190D01*
X135290476Y-69785714D01*
X135395238Y-69890476D01*
X135604761Y-69995238D01*
X136023809Y-69995238D01*
X136233333Y-69890476D01*
X133928571Y-69995238D02*
X134138095Y-69890476D01*
X134242857Y-69680952D01*
X134242857Y-67795238D01*
X132252380Y-69890476D02*
X132461904Y-69995238D01*
X132880952Y-69995238D01*
X133090476Y-69890476D01*
X133195238Y-69680952D01*
X133195238Y-68842857D01*
X133090476Y-68633333D01*
X132880952Y-68528571D01*
X132461904Y-68528571D01*
X132252380Y-68633333D01*
X132147619Y-68842857D01*
X132147619Y-69052380D01*
X133195238Y-69261904D01*
X131204761Y-69995238D02*
X131204761Y-68528571D01*
X131204761Y-68947619D02*
X131100000Y-68738095D01*
X130995238Y-68633333D01*
X130785714Y-68528571D01*
X130576190Y-68528571D01*
D12*
G04 #@! TO.C,J00*
X113625000Y-158510000D02*
X116285000Y-158510000D01*
X113625000Y-117750000D02*
X116285000Y-117750000D01*
X116285000Y-158510000D02*
X116285000Y-155400000D01*
X113625000Y-157940000D02*
X112105000Y-157940000D01*
X113625000Y-158510000D02*
X113625000Y-157940000D01*
X116285000Y-118320000D02*
X116285000Y-117750000D01*
X116285000Y-153880000D02*
X116285000Y-150320000D01*
X116285000Y-148800000D02*
X116285000Y-145240000D01*
X116285000Y-143720000D02*
X116285000Y-140160000D01*
X116285000Y-138640000D02*
X116285000Y-135080000D01*
X116285000Y-133560000D02*
X116285000Y-130000000D01*
X116285000Y-128480000D02*
X116285000Y-124920000D01*
X116285000Y-123400000D02*
X116285000Y-119840000D01*
X113625000Y-156420000D02*
X113625000Y-152860000D01*
X113625000Y-151340000D02*
X113625000Y-147780000D01*
X113625000Y-146260000D02*
X113625000Y-142700000D01*
X113625000Y-141180000D02*
X113625000Y-137620000D01*
X113625000Y-136100000D02*
X113625000Y-132540000D01*
X113625000Y-131020000D02*
X113625000Y-127460000D01*
X113625000Y-125940000D02*
X113625000Y-122380000D01*
X113625000Y-120860000D02*
X113625000Y-117750000D01*
G04 #@! TO.C,C10*
X102837221Y-58510000D02*
X103162779Y-58510000D01*
X102837221Y-57490000D02*
X103162779Y-57490000D01*
G04 #@! TO.C,R10*
X103162779Y-56510000D02*
X102837221Y-56510000D01*
X103162779Y-55490000D02*
X102837221Y-55490000D01*
G04 #@! TO.C,R11*
X102837221Y-60510000D02*
X103162779Y-60510000D01*
X102837221Y-59490000D02*
X103162779Y-59490000D01*
G04 #@! TO.C,C20*
X102837221Y-74510000D02*
X103162779Y-74510000D01*
X102837221Y-73490000D02*
X103162779Y-73490000D01*
G04 #@! TO.C,C30*
X102837221Y-89490000D02*
X103162779Y-89490000D01*
X102837221Y-90510000D02*
X103162779Y-90510000D01*
G04 #@! TO.C,C40*
X102837221Y-106510000D02*
X103162779Y-106510000D01*
X102837221Y-105490000D02*
X103162779Y-105490000D01*
G04 #@! TO.C,C50*
X102837221Y-121490000D02*
X103162779Y-121490000D01*
X102837221Y-122510000D02*
X103162779Y-122510000D01*
G04 #@! TO.C,C60*
X102837221Y-138510000D02*
X103162779Y-138510000D01*
X102837221Y-137490000D02*
X103162779Y-137490000D01*
G04 #@! TO.C,C70*
X102837221Y-153490000D02*
X103162779Y-153490000D01*
X102837221Y-154510000D02*
X103162779Y-154510000D01*
G04 #@! TO.C,R20*
X103162779Y-72510000D02*
X102837221Y-72510000D01*
X103162779Y-71490000D02*
X102837221Y-71490000D01*
G04 #@! TO.C,R21*
X102837221Y-76510000D02*
X103162779Y-76510000D01*
X102837221Y-75490000D02*
X103162779Y-75490000D01*
G04 #@! TO.C,R30*
X103162779Y-88510000D02*
X102837221Y-88510000D01*
X103162779Y-87490000D02*
X102837221Y-87490000D01*
G04 #@! TO.C,R31*
X102837221Y-92510000D02*
X103162779Y-92510000D01*
X102837221Y-91490000D02*
X103162779Y-91490000D01*
G04 #@! TO.C,R40*
X103162779Y-104510000D02*
X102837221Y-104510000D01*
X103162779Y-103490000D02*
X102837221Y-103490000D01*
G04 #@! TO.C,R41*
X102837221Y-108510000D02*
X103162779Y-108510000D01*
X102837221Y-107490000D02*
X103162779Y-107490000D01*
G04 #@! TO.C,R50*
X103162779Y-120510000D02*
X102837221Y-120510000D01*
X103162779Y-119490000D02*
X102837221Y-119490000D01*
G04 #@! TO.C,R51*
X102837221Y-124510000D02*
X103162779Y-124510000D01*
X102837221Y-123490000D02*
X103162779Y-123490000D01*
G04 #@! TO.C,R60*
X103162779Y-136510000D02*
X102837221Y-136510000D01*
X103162779Y-135490000D02*
X102837221Y-135490000D01*
G04 #@! TO.C,R61*
X102837221Y-140510000D02*
X103162779Y-140510000D01*
X102837221Y-139490000D02*
X103162779Y-139490000D01*
G04 #@! TO.C,R70*
X103162779Y-152510000D02*
X102837221Y-152510000D01*
X103162779Y-151490000D02*
X102837221Y-151490000D01*
G04 #@! TO.C,R71*
X102837221Y-156510000D02*
X103162779Y-156510000D01*
X102837221Y-155490000D02*
X103162779Y-155490000D01*
G04 #@! TO.C,J01*
X133970000Y-148300000D02*
X136630000Y-148300000D01*
X133970000Y-117700000D02*
X136630000Y-117700000D01*
X136630000Y-148300000D02*
X136630000Y-145190000D01*
X133970000Y-147730000D02*
X132450000Y-147730000D01*
X133970000Y-148300000D02*
X133970000Y-147730000D01*
X136630000Y-118270000D02*
X136630000Y-117700000D01*
X136630000Y-143670000D02*
X136630000Y-140110000D01*
X136630000Y-138590000D02*
X136630000Y-135030000D01*
X136630000Y-133510000D02*
X136630000Y-129950000D01*
X136630000Y-128430000D02*
X136630000Y-124870000D01*
X136630000Y-123350000D02*
X136630000Y-119790000D01*
X133970000Y-146210000D02*
X133970000Y-142650000D01*
X133970000Y-141130000D02*
X133970000Y-137570000D01*
X133970000Y-136050000D02*
X133970000Y-132490000D01*
X133970000Y-130970000D02*
X133970000Y-127410000D01*
X133970000Y-125890000D02*
X133970000Y-122330000D01*
X133970000Y-120810000D02*
X133970000Y-117700000D01*
G04 #@! TO.C,C80*
X150490000Y-115837221D02*
X150490000Y-116162779D01*
X151510000Y-115837221D02*
X151510000Y-116162779D01*
G04 #@! TO.C,R03*
X140162779Y-156510000D02*
X139837221Y-156510000D01*
X140162779Y-155490000D02*
X139837221Y-155490000D01*
G04 #@! TO.C,R80*
X145510000Y-116162779D02*
X145510000Y-115837221D01*
X144490000Y-116162779D02*
X144490000Y-115837221D01*
G04 #@! TO.C,R81*
X146490000Y-116162779D02*
X146490000Y-115837221D01*
X147510000Y-116162779D02*
X147510000Y-115837221D01*
G04 #@! TO.C,R82*
X149510000Y-116162779D02*
X149510000Y-115837221D01*
X148490000Y-116162779D02*
X148490000Y-115837221D01*
D13*
G04 #@! TO.C,U80*
X145425000Y-120925000D02*
X145475000Y-120925000D01*
X145425000Y-125075000D02*
X145570000Y-125075000D01*
X150575000Y-125075000D02*
X150430000Y-125075000D01*
X150575000Y-120925000D02*
X150430000Y-120925000D01*
X145425000Y-120925000D02*
X145425000Y-125075000D01*
X150575000Y-120925000D02*
X150575000Y-125075000D01*
X145475000Y-120925000D02*
X145475000Y-119525000D01*
D12*
G04 #@! TO.C,D00*
X148066063Y-157328805D02*
X150813173Y-154581695D01*
X150813173Y-154581695D02*
X152418305Y-156186827D01*
X152418305Y-156186827D02*
X149671195Y-158933937D01*
D13*
G04 #@! TO.C,BT80*
X143400001Y-133300001D02*
G75*
G03X152599999Y-133300001I4599999J-5699999D01*
G01*
D12*
G04 #@! TO.C,Q00*
X145580000Y-153710000D02*
X144650000Y-153710000D01*
X142420000Y-153710000D02*
X143350000Y-153710000D01*
X142420000Y-153710000D02*
X142420000Y-151550000D01*
X145580000Y-153710000D02*
X145580000Y-152250000D01*
G04 #@! TO.C,R04*
X139837221Y-153510000D02*
X140162779Y-153510000D01*
X139837221Y-152490000D02*
X140162779Y-152490000D01*
D14*
G04 #@! TO.C,REF\002A\002A*
G36*
X140253465Y-74633172D02*
X140140883Y-75230363D01*
X139725469Y-75401610D01*
X139310056Y-75572857D01*
X138811698Y-75233978D01*
X138672132Y-75139622D01*
X138545972Y-75055375D01*
X138439105Y-74985083D01*
X138357418Y-74932592D01*
X138306799Y-74901749D01*
X138293014Y-74895098D01*
X138268180Y-74912203D01*
X138215112Y-74959489D01*
X138139760Y-75030917D01*
X138048071Y-75120445D01*
X137945993Y-75222034D01*
X137839474Y-75329643D01*
X137734464Y-75437232D01*
X137636909Y-75538760D01*
X137552758Y-75628186D01*
X137487960Y-75699471D01*
X137448462Y-75746573D01*
X137439020Y-75762337D01*
X137452609Y-75791398D01*
X137490707Y-75855066D01*
X137549306Y-75947112D01*
X137624403Y-76061309D01*
X137711991Y-76191429D01*
X137762746Y-76265646D01*
X137855255Y-76401167D01*
X137937460Y-76523461D01*
X138005370Y-76626440D01*
X138055000Y-76704018D01*
X138082360Y-76750106D01*
X138086471Y-76759792D01*
X138077151Y-76787319D01*
X138051746Y-76851473D01*
X138014089Y-76943235D01*
X137968014Y-77053584D01*
X137917354Y-77173500D01*
X137865941Y-77293964D01*
X137817611Y-77405954D01*
X137776194Y-77500452D01*
X137745526Y-77568437D01*
X137729438Y-77600888D01*
X137728489Y-77602165D01*
X137703228Y-77608362D01*
X137635954Y-77622185D01*
X137533640Y-77642277D01*
X137403259Y-77667279D01*
X137251784Y-77695831D01*
X137163406Y-77712296D01*
X137001548Y-77743114D01*
X136855351Y-77772439D01*
X136732213Y-77798666D01*
X136639531Y-77820191D01*
X136584699Y-77835410D01*
X136573677Y-77840238D01*
X136562881Y-77872919D01*
X136554171Y-77946730D01*
X136547540Y-78053037D01*
X136542982Y-78183212D01*
X136540491Y-78328621D01*
X136540062Y-78480635D01*
X136541689Y-78630622D01*
X136545365Y-78769951D01*
X136551085Y-78889990D01*
X136558842Y-78982110D01*
X136568632Y-79037677D01*
X136574504Y-79049245D01*
X136609601Y-79063110D01*
X136683972Y-79082933D01*
X136787777Y-79106384D01*
X136911181Y-79131136D01*
X136954259Y-79139143D01*
X137161953Y-79177186D01*
X137326016Y-79207824D01*
X137451870Y-79232274D01*
X137544935Y-79251754D01*
X137610633Y-79267481D01*
X137654383Y-79280673D01*
X137681608Y-79292549D01*
X137697728Y-79304325D01*
X137699983Y-79306653D01*
X137722497Y-79344145D01*
X137756842Y-79417110D01*
X137799589Y-79516612D01*
X137847308Y-79633718D01*
X137896570Y-79759493D01*
X137943945Y-79885002D01*
X137986005Y-80001310D01*
X138019320Y-80099484D01*
X138040459Y-80170588D01*
X138045995Y-80205687D01*
X138045534Y-80206917D01*
X138026777Y-80235606D01*
X137984224Y-80298730D01*
X137922347Y-80389718D01*
X137845618Y-80502000D01*
X137758509Y-80629005D01*
X137733701Y-80665098D01*
X137645247Y-80795948D01*
X137567412Y-80915336D01*
X137504434Y-81016407D01*
X137460555Y-81092304D01*
X137440015Y-81136172D01*
X137439020Y-81141562D01*
X137456278Y-81169889D01*
X137503964Y-81226006D01*
X137575950Y-81303882D01*
X137666103Y-81397485D01*
X137768295Y-81500786D01*
X137876394Y-81607751D01*
X137984272Y-81712351D01*
X138085796Y-81808554D01*
X138174838Y-81890329D01*
X138245267Y-81951645D01*
X138290953Y-81986471D01*
X138303591Y-81992157D01*
X138333009Y-81978765D01*
X138393239Y-81942644D01*
X138474470Y-81889881D01*
X138536970Y-81847412D01*
X138650215Y-81769485D01*
X138784326Y-81677729D01*
X138918845Y-81586120D01*
X138991167Y-81537091D01*
X139235962Y-81371515D01*
X139441449Y-81482620D01*
X139535064Y-81531293D01*
X139614670Y-81569126D01*
X139668533Y-81590703D01*
X139682243Y-81593706D01*
X139698730Y-81571538D01*
X139731255Y-81508894D01*
X139777391Y-81411554D01*
X139834710Y-81285294D01*
X139900784Y-81135895D01*
X139973185Y-80969133D01*
X140049484Y-80790787D01*
X140127254Y-80606636D01*
X140204066Y-80422457D01*
X140277494Y-80244030D01*
X140345108Y-80077132D01*
X140404480Y-79927542D01*
X140453184Y-79801038D01*
X140488790Y-79703399D01*
X140508870Y-79640402D01*
X140512100Y-79618766D01*
X140486504Y-79591169D01*
X140430461Y-79546370D01*
X140355689Y-79493679D01*
X140349413Y-79489510D01*
X140156155Y-79334814D01*
X140000326Y-79154336D01*
X139883276Y-78953847D01*
X139806355Y-78739119D01*
X139770914Y-78515922D01*
X139778303Y-78290026D01*
X139829873Y-78067204D01*
X139926974Y-77853224D01*
X139955542Y-77806409D01*
X140104132Y-77617363D01*
X140279673Y-77465557D01*
X140476090Y-77351779D01*
X140687307Y-77276820D01*
X140907247Y-77241467D01*
X141129837Y-77246512D01*
X141348999Y-77292744D01*
X141558658Y-77380951D01*
X141752739Y-77511924D01*
X141812774Y-77565082D01*
X141965565Y-77731484D01*
X142076903Y-77906657D01*
X142153277Y-78103011D01*
X142195813Y-78297462D01*
X142206314Y-78516087D01*
X142171299Y-78735797D01*
X142094327Y-78949165D01*
X141978953Y-79148767D01*
X141828734Y-79327174D01*
X141647227Y-79476962D01*
X141623373Y-79492751D01*
X141547799Y-79544457D01*
X141490349Y-79589257D01*
X141462883Y-79617862D01*
X141462483Y-79618766D01*
X141468380Y-79649709D01*
X141491755Y-79719936D01*
X141530179Y-79823670D01*
X141581223Y-79955135D01*
X141642458Y-80108552D01*
X141711456Y-80278146D01*
X141785786Y-80458138D01*
X141863022Y-80642753D01*
X141940732Y-80826213D01*
X142016489Y-81002741D01*
X142087863Y-81166559D01*
X142152426Y-81311892D01*
X142207748Y-81432962D01*
X142251400Y-81523992D01*
X142280954Y-81579205D01*
X142292856Y-81593706D01*
X142329223Y-81582414D01*
X142397270Y-81552130D01*
X142485263Y-81508265D01*
X142533649Y-81482620D01*
X142739137Y-81371515D01*
X142983932Y-81537091D01*
X143108894Y-81621915D01*
X143245705Y-81715261D01*
X143373911Y-81803153D01*
X143438129Y-81847412D01*
X143528449Y-81908063D01*
X143604929Y-81956126D01*
X143657593Y-81985515D01*
X143674698Y-81991727D01*
X143699595Y-81974968D01*
X143754695Y-81928181D01*
X143834657Y-81856225D01*
X143934139Y-81763957D01*
X144047800Y-81656235D01*
X144119685Y-81587071D01*
X144245449Y-81463502D01*
X144354137Y-81352979D01*
X144441355Y-81260230D01*
X144502711Y-81189982D01*
X144533809Y-81146965D01*
X144536792Y-81138235D01*
X144522947Y-81105029D01*
X144484688Y-81037887D01*
X144426258Y-80943608D01*
X144351903Y-80828990D01*
X144265865Y-80700828D01*
X144241397Y-80665098D01*
X144152245Y-80535234D01*
X144072262Y-80418314D01*
X144005920Y-80320907D01*
X143957689Y-80249584D01*
X143932043Y-80210915D01*
X143929565Y-80206917D01*
X143933271Y-80176100D01*
X143952939Y-80108344D01*
X143985140Y-80012584D01*
X144026445Y-79897754D01*
X144073425Y-79772789D01*
X144122651Y-79646624D01*
X144170692Y-79528193D01*
X144214119Y-79426430D01*
X144249504Y-79350271D01*
X144273416Y-79308649D01*
X144275116Y-79306653D01*
X144289738Y-79294758D01*
X144314435Y-79282995D01*
X144354628Y-79270146D01*
X144415737Y-79254994D01*
X144503183Y-79236321D01*
X144622388Y-79212910D01*
X144778773Y-79183542D01*
X144977757Y-79147000D01*
X145020840Y-79139143D01*
X145148529Y-79114472D01*
X145259847Y-79090338D01*
X145344955Y-79069069D01*
X145394017Y-79052993D01*
X145400595Y-79049245D01*
X145411436Y-79016018D01*
X145420247Y-78941766D01*
X145427024Y-78835121D01*
X145431760Y-78704712D01*
X145434450Y-78559172D01*
X145435087Y-78407131D01*
X145433666Y-78257221D01*
X145430180Y-78118073D01*
X145424624Y-77998317D01*
X145416992Y-77906586D01*
X145407278Y-77851511D01*
X145401422Y-77840238D01*
X145368820Y-77828868D01*
X145294582Y-77810369D01*
X145186104Y-77786347D01*
X145050783Y-77758407D01*
X144896015Y-77728153D01*
X144811692Y-77712296D01*
X144651704Y-77682389D01*
X144509033Y-77655295D01*
X144390652Y-77632376D01*
X144303535Y-77614988D01*
X144254655Y-77604492D01*
X144246610Y-77602165D01*
X144233013Y-77575931D01*
X144204271Y-77512740D01*
X144164215Y-77421622D01*
X144116676Y-77311602D01*
X144065485Y-77191710D01*
X144014474Y-77070972D01*
X143967474Y-76958416D01*
X143928316Y-76863071D01*
X143900831Y-76793962D01*
X143888851Y-76760119D01*
X143888628Y-76758640D01*
X143902209Y-76731942D01*
X143940285Y-76670505D01*
X143998853Y-76580434D01*
X144073912Y-76467835D01*
X144161460Y-76338815D01*
X144212353Y-76264706D01*
X144305091Y-76128822D01*
X144387459Y-76005454D01*
X144455439Y-75900842D01*
X144505012Y-75821228D01*
X144532158Y-75772852D01*
X144536079Y-75762007D01*
X144519225Y-75736765D01*
X144472632Y-75682869D01*
X144402251Y-75606358D01*
X144314035Y-75513268D01*
X144213935Y-75409640D01*
X144107902Y-75301509D01*
X144001889Y-75194915D01*
X143901848Y-75095895D01*
X143813730Y-75010487D01*
X143743487Y-74944730D01*
X143697072Y-74904661D01*
X143681544Y-74895098D01*
X143656261Y-74908545D01*
X143595789Y-74946320D01*
X143506008Y-75004580D01*
X143392797Y-75079479D01*
X143262036Y-75167170D01*
X143163400Y-75233978D01*
X142665043Y-75572857D01*
X142249629Y-75401610D01*
X141834216Y-75230363D01*
X141721634Y-74633172D01*
X141609051Y-74035980D01*
X140366048Y-74035980D01*
X140253465Y-74633172D01*
X140253465Y-74633172D01*
G37*
X140253465Y-74633172D02*
X140140883Y-75230363D01*
X139725469Y-75401610D01*
X139310056Y-75572857D01*
X138811698Y-75233978D01*
X138672132Y-75139622D01*
X138545972Y-75055375D01*
X138439105Y-74985083D01*
X138357418Y-74932592D01*
X138306799Y-74901749D01*
X138293014Y-74895098D01*
X138268180Y-74912203D01*
X138215112Y-74959489D01*
X138139760Y-75030917D01*
X138048071Y-75120445D01*
X137945993Y-75222034D01*
X137839474Y-75329643D01*
X137734464Y-75437232D01*
X137636909Y-75538760D01*
X137552758Y-75628186D01*
X137487960Y-75699471D01*
X137448462Y-75746573D01*
X137439020Y-75762337D01*
X137452609Y-75791398D01*
X137490707Y-75855066D01*
X137549306Y-75947112D01*
X137624403Y-76061309D01*
X137711991Y-76191429D01*
X137762746Y-76265646D01*
X137855255Y-76401167D01*
X137937460Y-76523461D01*
X138005370Y-76626440D01*
X138055000Y-76704018D01*
X138082360Y-76750106D01*
X138086471Y-76759792D01*
X138077151Y-76787319D01*
X138051746Y-76851473D01*
X138014089Y-76943235D01*
X137968014Y-77053584D01*
X137917354Y-77173500D01*
X137865941Y-77293964D01*
X137817611Y-77405954D01*
X137776194Y-77500452D01*
X137745526Y-77568437D01*
X137729438Y-77600888D01*
X137728489Y-77602165D01*
X137703228Y-77608362D01*
X137635954Y-77622185D01*
X137533640Y-77642277D01*
X137403259Y-77667279D01*
X137251784Y-77695831D01*
X137163406Y-77712296D01*
X137001548Y-77743114D01*
X136855351Y-77772439D01*
X136732213Y-77798666D01*
X136639531Y-77820191D01*
X136584699Y-77835410D01*
X136573677Y-77840238D01*
X136562881Y-77872919D01*
X136554171Y-77946730D01*
X136547540Y-78053037D01*
X136542982Y-78183212D01*
X136540491Y-78328621D01*
X136540062Y-78480635D01*
X136541689Y-78630622D01*
X136545365Y-78769951D01*
X136551085Y-78889990D01*
X136558842Y-78982110D01*
X136568632Y-79037677D01*
X136574504Y-79049245D01*
X136609601Y-79063110D01*
X136683972Y-79082933D01*
X136787777Y-79106384D01*
X136911181Y-79131136D01*
X136954259Y-79139143D01*
X137161953Y-79177186D01*
X137326016Y-79207824D01*
X137451870Y-79232274D01*
X137544935Y-79251754D01*
X137610633Y-79267481D01*
X137654383Y-79280673D01*
X137681608Y-79292549D01*
X137697728Y-79304325D01*
X137699983Y-79306653D01*
X137722497Y-79344145D01*
X137756842Y-79417110D01*
X137799589Y-79516612D01*
X137847308Y-79633718D01*
X137896570Y-79759493D01*
X137943945Y-79885002D01*
X137986005Y-80001310D01*
X138019320Y-80099484D01*
X138040459Y-80170588D01*
X138045995Y-80205687D01*
X138045534Y-80206917D01*
X138026777Y-80235606D01*
X137984224Y-80298730D01*
X137922347Y-80389718D01*
X137845618Y-80502000D01*
X137758509Y-80629005D01*
X137733701Y-80665098D01*
X137645247Y-80795948D01*
X137567412Y-80915336D01*
X137504434Y-81016407D01*
X137460555Y-81092304D01*
X137440015Y-81136172D01*
X137439020Y-81141562D01*
X137456278Y-81169889D01*
X137503964Y-81226006D01*
X137575950Y-81303882D01*
X137666103Y-81397485D01*
X137768295Y-81500786D01*
X137876394Y-81607751D01*
X137984272Y-81712351D01*
X138085796Y-81808554D01*
X138174838Y-81890329D01*
X138245267Y-81951645D01*
X138290953Y-81986471D01*
X138303591Y-81992157D01*
X138333009Y-81978765D01*
X138393239Y-81942644D01*
X138474470Y-81889881D01*
X138536970Y-81847412D01*
X138650215Y-81769485D01*
X138784326Y-81677729D01*
X138918845Y-81586120D01*
X138991167Y-81537091D01*
X139235962Y-81371515D01*
X139441449Y-81482620D01*
X139535064Y-81531293D01*
X139614670Y-81569126D01*
X139668533Y-81590703D01*
X139682243Y-81593706D01*
X139698730Y-81571538D01*
X139731255Y-81508894D01*
X139777391Y-81411554D01*
X139834710Y-81285294D01*
X139900784Y-81135895D01*
X139973185Y-80969133D01*
X140049484Y-80790787D01*
X140127254Y-80606636D01*
X140204066Y-80422457D01*
X140277494Y-80244030D01*
X140345108Y-80077132D01*
X140404480Y-79927542D01*
X140453184Y-79801038D01*
X140488790Y-79703399D01*
X140508870Y-79640402D01*
X140512100Y-79618766D01*
X140486504Y-79591169D01*
X140430461Y-79546370D01*
X140355689Y-79493679D01*
X140349413Y-79489510D01*
X140156155Y-79334814D01*
X140000326Y-79154336D01*
X139883276Y-78953847D01*
X139806355Y-78739119D01*
X139770914Y-78515922D01*
X139778303Y-78290026D01*
X139829873Y-78067204D01*
X139926974Y-77853224D01*
X139955542Y-77806409D01*
X140104132Y-77617363D01*
X140279673Y-77465557D01*
X140476090Y-77351779D01*
X140687307Y-77276820D01*
X140907247Y-77241467D01*
X141129837Y-77246512D01*
X141348999Y-77292744D01*
X141558658Y-77380951D01*
X141752739Y-77511924D01*
X141812774Y-77565082D01*
X141965565Y-77731484D01*
X142076903Y-77906657D01*
X142153277Y-78103011D01*
X142195813Y-78297462D01*
X142206314Y-78516087D01*
X142171299Y-78735797D01*
X142094327Y-78949165D01*
X141978953Y-79148767D01*
X141828734Y-79327174D01*
X141647227Y-79476962D01*
X141623373Y-79492751D01*
X141547799Y-79544457D01*
X141490349Y-79589257D01*
X141462883Y-79617862D01*
X141462483Y-79618766D01*
X141468380Y-79649709D01*
X141491755Y-79719936D01*
X141530179Y-79823670D01*
X141581223Y-79955135D01*
X141642458Y-80108552D01*
X141711456Y-80278146D01*
X141785786Y-80458138D01*
X141863022Y-80642753D01*
X141940732Y-80826213D01*
X142016489Y-81002741D01*
X142087863Y-81166559D01*
X142152426Y-81311892D01*
X142207748Y-81432962D01*
X142251400Y-81523992D01*
X142280954Y-81579205D01*
X142292856Y-81593706D01*
X142329223Y-81582414D01*
X142397270Y-81552130D01*
X142485263Y-81508265D01*
X142533649Y-81482620D01*
X142739137Y-81371515D01*
X142983932Y-81537091D01*
X143108894Y-81621915D01*
X143245705Y-81715261D01*
X143373911Y-81803153D01*
X143438129Y-81847412D01*
X143528449Y-81908063D01*
X143604929Y-81956126D01*
X143657593Y-81985515D01*
X143674698Y-81991727D01*
X143699595Y-81974968D01*
X143754695Y-81928181D01*
X143834657Y-81856225D01*
X143934139Y-81763957D01*
X144047800Y-81656235D01*
X144119685Y-81587071D01*
X144245449Y-81463502D01*
X144354137Y-81352979D01*
X144441355Y-81260230D01*
X144502711Y-81189982D01*
X144533809Y-81146965D01*
X144536792Y-81138235D01*
X144522947Y-81105029D01*
X144484688Y-81037887D01*
X144426258Y-80943608D01*
X144351903Y-80828990D01*
X144265865Y-80700828D01*
X144241397Y-80665098D01*
X144152245Y-80535234D01*
X144072262Y-80418314D01*
X144005920Y-80320907D01*
X143957689Y-80249584D01*
X143932043Y-80210915D01*
X143929565Y-80206917D01*
X143933271Y-80176100D01*
X143952939Y-80108344D01*
X143985140Y-80012584D01*
X144026445Y-79897754D01*
X144073425Y-79772789D01*
X144122651Y-79646624D01*
X144170692Y-79528193D01*
X144214119Y-79426430D01*
X144249504Y-79350271D01*
X144273416Y-79308649D01*
X144275116Y-79306653D01*
X144289738Y-79294758D01*
X144314435Y-79282995D01*
X144354628Y-79270146D01*
X144415737Y-79254994D01*
X144503183Y-79236321D01*
X144622388Y-79212910D01*
X144778773Y-79183542D01*
X144977757Y-79147000D01*
X145020840Y-79139143D01*
X145148529Y-79114472D01*
X145259847Y-79090338D01*
X145344955Y-79069069D01*
X145394017Y-79052993D01*
X145400595Y-79049245D01*
X145411436Y-79016018D01*
X145420247Y-78941766D01*
X145427024Y-78835121D01*
X145431760Y-78704712D01*
X145434450Y-78559172D01*
X145435087Y-78407131D01*
X145433666Y-78257221D01*
X145430180Y-78118073D01*
X145424624Y-77998317D01*
X145416992Y-77906586D01*
X145407278Y-77851511D01*
X145401422Y-77840238D01*
X145368820Y-77828868D01*
X145294582Y-77810369D01*
X145186104Y-77786347D01*
X145050783Y-77758407D01*
X144896015Y-77728153D01*
X144811692Y-77712296D01*
X144651704Y-77682389D01*
X144509033Y-77655295D01*
X144390652Y-77632376D01*
X144303535Y-77614988D01*
X144254655Y-77604492D01*
X144246610Y-77602165D01*
X144233013Y-77575931D01*
X144204271Y-77512740D01*
X144164215Y-77421622D01*
X144116676Y-77311602D01*
X144065485Y-77191710D01*
X144014474Y-77070972D01*
X143967474Y-76958416D01*
X143928316Y-76863071D01*
X143900831Y-76793962D01*
X143888851Y-76760119D01*
X143888628Y-76758640D01*
X143902209Y-76731942D01*
X143940285Y-76670505D01*
X143998853Y-76580434D01*
X144073912Y-76467835D01*
X144161460Y-76338815D01*
X144212353Y-76264706D01*
X144305091Y-76128822D01*
X144387459Y-76005454D01*
X144455439Y-75900842D01*
X144505012Y-75821228D01*
X144532158Y-75772852D01*
X144536079Y-75762007D01*
X144519225Y-75736765D01*
X144472632Y-75682869D01*
X144402251Y-75606358D01*
X144314035Y-75513268D01*
X144213935Y-75409640D01*
X144107902Y-75301509D01*
X144001889Y-75194915D01*
X143901848Y-75095895D01*
X143813730Y-75010487D01*
X143743487Y-74944730D01*
X143697072Y-74904661D01*
X143681544Y-74895098D01*
X143656261Y-74908545D01*
X143595789Y-74946320D01*
X143506008Y-75004580D01*
X143392797Y-75079479D01*
X143262036Y-75167170D01*
X143163400Y-75233978D01*
X142665043Y-75572857D01*
X142249629Y-75401610D01*
X141834216Y-75230363D01*
X141721634Y-74633172D01*
X141609051Y-74035980D01*
X140366048Y-74035980D01*
X140253465Y-74633172D01*
G36*
X137436363Y-82887472D02*
X137350710Y-82913641D01*
X137295563Y-82946707D01*
X137277599Y-82972855D01*
X137282543Y-83003852D01*
X137314628Y-83052547D01*
X137341757Y-83087035D01*
X137397683Y-83149383D01*
X137439701Y-83175615D01*
X137475520Y-83173903D01*
X137581776Y-83146863D01*
X137659811Y-83148091D01*
X137723180Y-83178735D01*
X137744454Y-83196670D01*
X137812549Y-83259779D01*
X137812549Y-84083922D01*
X138086471Y-84083922D01*
X138086471Y-82888628D01*
X137949510Y-82888628D01*
X137867281Y-82891879D01*
X137824856Y-82903426D01*
X137812555Y-82925952D01*
X137812549Y-82926620D01*
X137806740Y-82950215D01*
X137780469Y-82947138D01*
X137744069Y-82930115D01*
X137668889Y-82898439D01*
X137607842Y-82879381D01*
X137529292Y-82874496D01*
X137436363Y-82887472D01*
X137436363Y-82887472D01*
G37*
X137436363Y-82887472D02*
X137350710Y-82913641D01*
X137295563Y-82946707D01*
X137277599Y-82972855D01*
X137282543Y-83003852D01*
X137314628Y-83052547D01*
X137341757Y-83087035D01*
X137397683Y-83149383D01*
X137439701Y-83175615D01*
X137475520Y-83173903D01*
X137581776Y-83146863D01*
X137659811Y-83148091D01*
X137723180Y-83178735D01*
X137744454Y-83196670D01*
X137812549Y-83259779D01*
X137812549Y-84083922D01*
X138086471Y-84083922D01*
X138086471Y-82888628D01*
X137949510Y-82888628D01*
X137867281Y-82891879D01*
X137824856Y-82903426D01*
X137812555Y-82925952D01*
X137812549Y-82926620D01*
X137806740Y-82950215D01*
X137780469Y-82947138D01*
X137744069Y-82930115D01*
X137668889Y-82898439D01*
X137607842Y-82879381D01*
X137529292Y-82874496D01*
X137436363Y-82887472D01*
G36*
X142493240Y-82909199D02*
X142431264Y-82938802D01*
X142371241Y-82981561D01*
X142325514Y-83030775D01*
X142292207Y-83093544D01*
X142269445Y-83176971D01*
X142255353Y-83288159D01*
X142248058Y-83434209D01*
X142245682Y-83622223D01*
X142245645Y-83641912D01*
X142245098Y-84083922D01*
X142519020Y-84083922D01*
X142519020Y-83676435D01*
X142519215Y-83525471D01*
X142520564Y-83416056D01*
X142524212Y-83339933D01*
X142531304Y-83288848D01*
X142542987Y-83254545D01*
X142560406Y-83228768D01*
X142584671Y-83203298D01*
X142669565Y-83148571D01*
X142762239Y-83138416D01*
X142850527Y-83173017D01*
X142881230Y-83198770D01*
X142903771Y-83222982D01*
X142919954Y-83248912D01*
X142930832Y-83284708D01*
X142937458Y-83338519D01*
X142940885Y-83418493D01*
X142942166Y-83532779D01*
X142942353Y-83671907D01*
X142942353Y-84083922D01*
X143216275Y-84083922D01*
X143216275Y-82888628D01*
X143079314Y-82888628D01*
X142997084Y-82891879D01*
X142954660Y-82903426D01*
X142942359Y-82925952D01*
X142942353Y-82926620D01*
X142936646Y-82948681D01*
X142911473Y-82946177D01*
X142861422Y-82921937D01*
X142747906Y-82886271D01*
X142618055Y-82882305D01*
X142493240Y-82909199D01*
X142493240Y-82909199D01*
G37*
X142493240Y-82909199D02*
X142431264Y-82938802D01*
X142371241Y-82981561D01*
X142325514Y-83030775D01*
X142292207Y-83093544D01*
X142269445Y-83176971D01*
X142255353Y-83288159D01*
X142248058Y-83434209D01*
X142245682Y-83622223D01*
X142245645Y-83641912D01*
X142245098Y-84083922D01*
X142519020Y-84083922D01*
X142519020Y-83676435D01*
X142519215Y-83525471D01*
X142520564Y-83416056D01*
X142524212Y-83339933D01*
X142531304Y-83288848D01*
X142542987Y-83254545D01*
X142560406Y-83228768D01*
X142584671Y-83203298D01*
X142669565Y-83148571D01*
X142762239Y-83138416D01*
X142850527Y-83173017D01*
X142881230Y-83198770D01*
X142903771Y-83222982D01*
X142919954Y-83248912D01*
X142930832Y-83284708D01*
X142937458Y-83338519D01*
X142940885Y-83418493D01*
X142942166Y-83532779D01*
X142942353Y-83671907D01*
X142942353Y-84083922D01*
X143216275Y-84083922D01*
X143216275Y-82888628D01*
X143079314Y-82888628D01*
X142997084Y-82891879D01*
X142954660Y-82903426D01*
X142942359Y-82925952D01*
X142942353Y-82926620D01*
X142936646Y-82948681D01*
X142911473Y-82946177D01*
X142861422Y-82921937D01*
X142747906Y-82886271D01*
X142618055Y-82882305D01*
X142493240Y-82909199D01*
G36*
X135696713Y-82884355D02*
X135632949Y-82899845D01*
X135510700Y-82956569D01*
X135406166Y-83043202D01*
X135333820Y-83147074D01*
X135323881Y-83170396D01*
X135310246Y-83231484D01*
X135300702Y-83321853D01*
X135297451Y-83413190D01*
X135297451Y-83585882D01*
X135658530Y-83585882D01*
X135807454Y-83586445D01*
X135912368Y-83589864D01*
X135979063Y-83598731D01*
X136013334Y-83615641D01*
X136020972Y-83643189D01*
X136007771Y-83683968D01*
X135984123Y-83731683D01*
X135918157Y-83811314D01*
X135826488Y-83850987D01*
X135714445Y-83849695D01*
X135587528Y-83806514D01*
X135477842Y-83753224D01*
X135386827Y-83825191D01*
X135295812Y-83897157D01*
X135381437Y-83976269D01*
X135495750Y-84051017D01*
X135636334Y-84096084D01*
X135787551Y-84108696D01*
X135933764Y-84086079D01*
X135957353Y-84078405D01*
X136085859Y-84011296D01*
X136181449Y-83911247D01*
X136246139Y-83775271D01*
X136281943Y-83600380D01*
X136282360Y-83596632D01*
X136285566Y-83406032D01*
X136272607Y-83338035D01*
X136019608Y-83338035D01*
X135996373Y-83348491D01*
X135933290Y-83356500D01*
X135840294Y-83361073D01*
X135781362Y-83361765D01*
X135671463Y-83361332D01*
X135602748Y-83358578D01*
X135566595Y-83351321D01*
X135554385Y-83337376D01*
X135557496Y-83314562D01*
X135560106Y-83305735D01*
X135604656Y-83222800D01*
X135674721Y-83155960D01*
X135736554Y-83126589D01*
X135818699Y-83128362D01*
X135901938Y-83164990D01*
X135971762Y-83225634D01*
X136013663Y-83299456D01*
X136019608Y-83338035D01*
X136272607Y-83338035D01*
X136253615Y-83238395D01*
X136190227Y-83097711D01*
X136099122Y-82987974D01*
X135984022Y-82913174D01*
X135848645Y-82877304D01*
X135696713Y-82884355D01*
X135696713Y-82884355D01*
G37*
X135696713Y-82884355D02*
X135632949Y-82899845D01*
X135510700Y-82956569D01*
X135406166Y-83043202D01*
X135333820Y-83147074D01*
X135323881Y-83170396D01*
X135310246Y-83231484D01*
X135300702Y-83321853D01*
X135297451Y-83413190D01*
X135297451Y-83585882D01*
X135658530Y-83585882D01*
X135807454Y-83586445D01*
X135912368Y-83589864D01*
X135979063Y-83598731D01*
X136013334Y-83615641D01*
X136020972Y-83643189D01*
X136007771Y-83683968D01*
X135984123Y-83731683D01*
X135918157Y-83811314D01*
X135826488Y-83850987D01*
X135714445Y-83849695D01*
X135587528Y-83806514D01*
X135477842Y-83753224D01*
X135386827Y-83825191D01*
X135295812Y-83897157D01*
X135381437Y-83976269D01*
X135495750Y-84051017D01*
X135636334Y-84096084D01*
X135787551Y-84108696D01*
X135933764Y-84086079D01*
X135957353Y-84078405D01*
X136085859Y-84011296D01*
X136181449Y-83911247D01*
X136246139Y-83775271D01*
X136281943Y-83600380D01*
X136282360Y-83596632D01*
X136285566Y-83406032D01*
X136272607Y-83338035D01*
X136019608Y-83338035D01*
X135996373Y-83348491D01*
X135933290Y-83356500D01*
X135840294Y-83361073D01*
X135781362Y-83361765D01*
X135671463Y-83361332D01*
X135602748Y-83358578D01*
X135566595Y-83351321D01*
X135554385Y-83337376D01*
X135557496Y-83314562D01*
X135560106Y-83305735D01*
X135604656Y-83222800D01*
X135674721Y-83155960D01*
X135736554Y-83126589D01*
X135818699Y-83128362D01*
X135901938Y-83164990D01*
X135971762Y-83225634D01*
X136013663Y-83299456D01*
X136019608Y-83338035D01*
X136272607Y-83338035D01*
X136253615Y-83238395D01*
X136190227Y-83097711D01*
X136099122Y-82987974D01*
X135984022Y-82913174D01*
X135848645Y-82877304D01*
X135696713Y-82884355D01*
G36*
X136609024Y-82899056D02*
X136464744Y-82960348D01*
X136419301Y-82990185D01*
X136361221Y-83036036D01*
X136324762Y-83072089D01*
X136318432Y-83083832D01*
X136336307Y-83109889D01*
X136382050Y-83154105D01*
X136418672Y-83184965D01*
X136518912Y-83265520D01*
X136598065Y-83198918D01*
X136659231Y-83155921D01*
X136718871Y-83141079D01*
X136787128Y-83144704D01*
X136895518Y-83171652D01*
X136970128Y-83227587D01*
X137015470Y-83318014D01*
X137036053Y-83448435D01*
X137036058Y-83448517D01*
X137034278Y-83594290D01*
X137006613Y-83701245D01*
X136951429Y-83774064D01*
X136913808Y-83798723D01*
X136813895Y-83829431D01*
X136707178Y-83829449D01*
X136614331Y-83799655D01*
X136592353Y-83785098D01*
X136537235Y-83747914D01*
X136494141Y-83741820D01*
X136447665Y-83769496D01*
X136396284Y-83819205D01*
X136314954Y-83903116D01*
X136405251Y-83977546D01*
X136544764Y-84061549D01*
X136702088Y-84102947D01*
X136866497Y-84099950D01*
X136974469Y-84072500D01*
X137100669Y-84004620D01*
X137201599Y-83897831D01*
X137247452Y-83822451D01*
X137284590Y-83714297D01*
X137303173Y-83577318D01*
X137303316Y-83428864D01*
X137285135Y-83286281D01*
X137248745Y-83166918D01*
X137243013Y-83154680D01*
X137158135Y-83034655D01*
X137043218Y-82947267D01*
X136907341Y-82894329D01*
X136759583Y-82877654D01*
X136609024Y-82899056D01*
X136609024Y-82899056D01*
G37*
X136609024Y-82899056D02*
X136464744Y-82960348D01*
X136419301Y-82990185D01*
X136361221Y-83036036D01*
X136324762Y-83072089D01*
X136318432Y-83083832D01*
X136336307Y-83109889D01*
X136382050Y-83154105D01*
X136418672Y-83184965D01*
X136518912Y-83265520D01*
X136598065Y-83198918D01*
X136659231Y-83155921D01*
X136718871Y-83141079D01*
X136787128Y-83144704D01*
X136895518Y-83171652D01*
X136970128Y-83227587D01*
X137015470Y-83318014D01*
X137036053Y-83448435D01*
X137036058Y-83448517D01*
X137034278Y-83594290D01*
X137006613Y-83701245D01*
X136951429Y-83774064D01*
X136913808Y-83798723D01*
X136813895Y-83829431D01*
X136707178Y-83829449D01*
X136614331Y-83799655D01*
X136592353Y-83785098D01*
X136537235Y-83747914D01*
X136494141Y-83741820D01*
X136447665Y-83769496D01*
X136396284Y-83819205D01*
X136314954Y-83903116D01*
X136405251Y-83977546D01*
X136544764Y-84061549D01*
X136702088Y-84102947D01*
X136866497Y-84099950D01*
X136974469Y-84072500D01*
X137100669Y-84004620D01*
X137201599Y-83897831D01*
X137247452Y-83822451D01*
X137284590Y-83714297D01*
X137303173Y-83577318D01*
X137303316Y-83428864D01*
X137285135Y-83286281D01*
X137248745Y-83166918D01*
X137243013Y-83154680D01*
X137158135Y-83034655D01*
X137043218Y-82947267D01*
X136907341Y-82894329D01*
X136759583Y-82877654D01*
X136609024Y-82899056D01*
G36*
X139032746Y-83276245D02*
X139030392Y-83458879D01*
X139021793Y-83597600D01*
X139004640Y-83698147D01*
X138976626Y-83766254D01*
X138935443Y-83807659D01*
X138878783Y-83828097D01*
X138808628Y-83833318D01*
X138735152Y-83827468D01*
X138679343Y-83806093D01*
X138638891Y-83763458D01*
X138611491Y-83693825D01*
X138594833Y-83591460D01*
X138586611Y-83450624D01*
X138584510Y-83276245D01*
X138584510Y-82888628D01*
X138310589Y-82888628D01*
X138310589Y-84083922D01*
X138447549Y-84083922D01*
X138530116Y-84080576D01*
X138572632Y-84068826D01*
X138584510Y-84046520D01*
X138591664Y-84026654D01*
X138620135Y-84030857D01*
X138677524Y-84058971D01*
X138809055Y-84102342D01*
X138948562Y-84099270D01*
X139082235Y-84052174D01*
X139145892Y-84014971D01*
X139194447Y-83974691D01*
X139229919Y-83924291D01*
X139254326Y-83856729D01*
X139269687Y-83764965D01*
X139278018Y-83641955D01*
X139281338Y-83480659D01*
X139281765Y-83355928D01*
X139281765Y-82888628D01*
X139032746Y-82888628D01*
X139032746Y-83276245D01*
X139032746Y-83276245D01*
G37*
X139032746Y-83276245D02*
X139030392Y-83458879D01*
X139021793Y-83597600D01*
X139004640Y-83698147D01*
X138976626Y-83766254D01*
X138935443Y-83807659D01*
X138878783Y-83828097D01*
X138808628Y-83833318D01*
X138735152Y-83827468D01*
X138679343Y-83806093D01*
X138638891Y-83763458D01*
X138611491Y-83693825D01*
X138594833Y-83591460D01*
X138586611Y-83450624D01*
X138584510Y-83276245D01*
X138584510Y-82888628D01*
X138310589Y-82888628D01*
X138310589Y-84083922D01*
X138447549Y-84083922D01*
X138530116Y-84080576D01*
X138572632Y-84068826D01*
X138584510Y-84046520D01*
X138591664Y-84026654D01*
X138620135Y-84030857D01*
X138677524Y-84058971D01*
X138809055Y-84102342D01*
X138948562Y-84099270D01*
X139082235Y-84052174D01*
X139145892Y-84014971D01*
X139194447Y-83974691D01*
X139229919Y-83924291D01*
X139254326Y-83856729D01*
X139269687Y-83764965D01*
X139278018Y-83641955D01*
X139281338Y-83480659D01*
X139281765Y-83355928D01*
X139281765Y-82888628D01*
X139032746Y-82888628D01*
X139032746Y-83276245D01*
G36*
X139790453Y-82903364D02*
X139664498Y-82971959D01*
X139565953Y-83080245D01*
X139519522Y-83168315D01*
X139499588Y-83246101D01*
X139486672Y-83356993D01*
X139481137Y-83484738D01*
X139483346Y-83613084D01*
X139493663Y-83725779D01*
X139505714Y-83785969D01*
X139546366Y-83868311D01*
X139616770Y-83955770D01*
X139701618Y-84032251D01*
X139785603Y-84081655D01*
X139787651Y-84082439D01*
X139891866Y-84104027D01*
X140015373Y-84104562D01*
X140132739Y-84084908D01*
X140178058Y-84069155D01*
X140294780Y-84002966D01*
X140378376Y-83916246D01*
X140433299Y-83801438D01*
X140464005Y-83650982D01*
X140470953Y-83572173D01*
X140470067Y-83473145D01*
X140203138Y-83473145D01*
X140194146Y-83617645D01*
X140168264Y-83727760D01*
X140127132Y-83798116D01*
X140097828Y-83818235D01*
X140022749Y-83832265D01*
X139933506Y-83828111D01*
X139856350Y-83807922D01*
X139836117Y-83796815D01*
X139782735Y-83732123D01*
X139747500Y-83633119D01*
X139732502Y-83512632D01*
X139739828Y-83383494D01*
X139756201Y-83305775D01*
X139803210Y-83215771D01*
X139877418Y-83159509D01*
X139966791Y-83140057D01*
X140059293Y-83160481D01*
X140130347Y-83210437D01*
X140167688Y-83251655D01*
X140189482Y-83292281D01*
X140199870Y-83347264D01*
X140202994Y-83431549D01*
X140203138Y-83473145D01*
X140470067Y-83473145D01*
X140469070Y-83361874D01*
X140434820Y-83189423D01*
X140368198Y-83054814D01*
X140269201Y-82958040D01*
X140137825Y-82899094D01*
X140109615Y-82892259D01*
X139940074Y-82876213D01*
X139790453Y-82903364D01*
X139790453Y-82903364D01*
G37*
X139790453Y-82903364D02*
X139664498Y-82971959D01*
X139565953Y-83080245D01*
X139519522Y-83168315D01*
X139499588Y-83246101D01*
X139486672Y-83356993D01*
X139481137Y-83484738D01*
X139483346Y-83613084D01*
X139493663Y-83725779D01*
X139505714Y-83785969D01*
X139546366Y-83868311D01*
X139616770Y-83955770D01*
X139701618Y-84032251D01*
X139785603Y-84081655D01*
X139787651Y-84082439D01*
X139891866Y-84104027D01*
X140015373Y-84104562D01*
X140132739Y-84084908D01*
X140178058Y-84069155D01*
X140294780Y-84002966D01*
X140378376Y-83916246D01*
X140433299Y-83801438D01*
X140464005Y-83650982D01*
X140470953Y-83572173D01*
X140470067Y-83473145D01*
X140203138Y-83473145D01*
X140194146Y-83617645D01*
X140168264Y-83727760D01*
X140127132Y-83798116D01*
X140097828Y-83818235D01*
X140022749Y-83832265D01*
X139933506Y-83828111D01*
X139856350Y-83807922D01*
X139836117Y-83796815D01*
X139782735Y-83732123D01*
X139747500Y-83633119D01*
X139732502Y-83512632D01*
X139739828Y-83383494D01*
X139756201Y-83305775D01*
X139803210Y-83215771D01*
X139877418Y-83159509D01*
X139966791Y-83140057D01*
X140059293Y-83160481D01*
X140130347Y-83210437D01*
X140167688Y-83251655D01*
X140189482Y-83292281D01*
X140199870Y-83347264D01*
X140202994Y-83431549D01*
X140203138Y-83473145D01*
X140470067Y-83473145D01*
X140469070Y-83361874D01*
X140434820Y-83189423D01*
X140368198Y-83054814D01*
X140269201Y-82958040D01*
X140137825Y-82899094D01*
X140109615Y-82892259D01*
X139940074Y-82876213D01*
X139790453Y-82903364D01*
G36*
X140972241Y-82884345D02*
X140877941Y-82902229D01*
X140780110Y-82939633D01*
X140769657Y-82944402D01*
X140695469Y-82983412D01*
X140644090Y-83019664D01*
X140627483Y-83042887D01*
X140643298Y-83080761D01*
X140681712Y-83136644D01*
X140698763Y-83157505D01*
X140769031Y-83239618D01*
X140859621Y-83186168D01*
X140945836Y-83150561D01*
X141045451Y-83131529D01*
X141140981Y-83130326D01*
X141214939Y-83148210D01*
X141232688Y-83159373D01*
X141266488Y-83210553D01*
X141270596Y-83269509D01*
X141245304Y-83315567D01*
X141230344Y-83324499D01*
X141185514Y-83335592D01*
X141106714Y-83348630D01*
X141009574Y-83361088D01*
X140991654Y-83363042D01*
X140835635Y-83390030D01*
X140722477Y-83435873D01*
X140647431Y-83504803D01*
X140605747Y-83601054D01*
X140592762Y-83718617D01*
X140610701Y-83852254D01*
X140668950Y-83957195D01*
X140767745Y-84033630D01*
X140907318Y-84081748D01*
X141062255Y-84100732D01*
X141188602Y-84100504D01*
X141291087Y-84083262D01*
X141361079Y-84059457D01*
X141449517Y-84017978D01*
X141531246Y-83969842D01*
X141560295Y-83948655D01*
X141635000Y-83887676D01*
X141544902Y-83796508D01*
X141454804Y-83705339D01*
X141352368Y-83773128D01*
X141249626Y-83824042D01*
X141139913Y-83850673D01*
X141034449Y-83853483D01*
X140944454Y-83832935D01*
X140881146Y-83789493D01*
X140860704Y-83752838D01*
X140863771Y-83694053D01*
X140914566Y-83649099D01*
X141012952Y-83618057D01*
X141120744Y-83603710D01*
X141286635Y-83576337D01*
X141409876Y-83524693D01*
X141492114Y-83447266D01*
X141534999Y-83342544D01*
X141540940Y-83218387D01*
X141511594Y-83088702D01*
X141444691Y-82990677D01*
X141339629Y-82923866D01*
X141195810Y-82887820D01*
X141089262Y-82880754D01*
X140972241Y-82884345D01*
X140972241Y-82884345D01*
G37*
X140972241Y-82884345D02*
X140877941Y-82902229D01*
X140780110Y-82939633D01*
X140769657Y-82944402D01*
X140695469Y-82983412D01*
X140644090Y-83019664D01*
X140627483Y-83042887D01*
X140643298Y-83080761D01*
X140681712Y-83136644D01*
X140698763Y-83157505D01*
X140769031Y-83239618D01*
X140859621Y-83186168D01*
X140945836Y-83150561D01*
X141045451Y-83131529D01*
X141140981Y-83130326D01*
X141214939Y-83148210D01*
X141232688Y-83159373D01*
X141266488Y-83210553D01*
X141270596Y-83269509D01*
X141245304Y-83315567D01*
X141230344Y-83324499D01*
X141185514Y-83335592D01*
X141106714Y-83348630D01*
X141009574Y-83361088D01*
X140991654Y-83363042D01*
X140835635Y-83390030D01*
X140722477Y-83435873D01*
X140647431Y-83504803D01*
X140605747Y-83601054D01*
X140592762Y-83718617D01*
X140610701Y-83852254D01*
X140668950Y-83957195D01*
X140767745Y-84033630D01*
X140907318Y-84081748D01*
X141062255Y-84100732D01*
X141188602Y-84100504D01*
X141291087Y-84083262D01*
X141361079Y-84059457D01*
X141449517Y-84017978D01*
X141531246Y-83969842D01*
X141560295Y-83948655D01*
X141635000Y-83887676D01*
X141544902Y-83796508D01*
X141454804Y-83705339D01*
X141352368Y-83773128D01*
X141249626Y-83824042D01*
X141139913Y-83850673D01*
X141034449Y-83853483D01*
X140944454Y-83832935D01*
X140881146Y-83789493D01*
X140860704Y-83752838D01*
X140863771Y-83694053D01*
X140914566Y-83649099D01*
X141012952Y-83618057D01*
X141120744Y-83603710D01*
X141286635Y-83576337D01*
X141409876Y-83524693D01*
X141492114Y-83447266D01*
X141534999Y-83342544D01*
X141540940Y-83218387D01*
X141511594Y-83088702D01*
X141444691Y-82990677D01*
X141339629Y-82923866D01*
X141195810Y-82887820D01*
X141089262Y-82880754D01*
X140972241Y-82884345D01*
G36*
X143686796Y-82916354D02*
X143661981Y-82928037D01*
X143576094Y-82990951D01*
X143494879Y-83082769D01*
X143434236Y-83183868D01*
X143416988Y-83230349D01*
X143401251Y-83313376D01*
X143391867Y-83413713D01*
X143390728Y-83455147D01*
X143390589Y-83585882D01*
X144143047Y-83585882D01*
X144127007Y-83654363D01*
X144087637Y-83735355D01*
X144018806Y-83805351D01*
X143936919Y-83850441D01*
X143884737Y-83859804D01*
X143813971Y-83848441D01*
X143729540Y-83819943D01*
X143700858Y-83806831D01*
X143594791Y-83753858D01*
X143504272Y-83822901D01*
X143452039Y-83869597D01*
X143424247Y-83908140D01*
X143422840Y-83919452D01*
X143447668Y-83946868D01*
X143502083Y-83988532D01*
X143551472Y-84021037D01*
X143684748Y-84079468D01*
X143834161Y-84105915D01*
X143982249Y-84099039D01*
X144100295Y-84063096D01*
X144221982Y-83986101D01*
X144308460Y-83884728D01*
X144362559Y-83753570D01*
X144387109Y-83587224D01*
X144389286Y-83511108D01*
X144380573Y-83336685D01*
X144379503Y-83331611D01*
X144130173Y-83331611D01*
X144123306Y-83347968D01*
X144095083Y-83356988D01*
X144036873Y-83360854D01*
X143940042Y-83361749D01*
X143902757Y-83361765D01*
X143789317Y-83360413D01*
X143717378Y-83355505D01*
X143678687Y-83345760D01*
X143664995Y-83329899D01*
X143664510Y-83324805D01*
X143680137Y-83284326D01*
X143719247Y-83227621D01*
X143736061Y-83207766D01*
X143798481Y-83151611D01*
X143863547Y-83129532D01*
X143898603Y-83127686D01*
X143993442Y-83150766D01*
X144072973Y-83212759D01*
X144123423Y-83302802D01*
X144124317Y-83305735D01*
X144130173Y-83331611D01*
X144379503Y-83331611D01*
X144351601Y-83199343D01*
X144299410Y-83089461D01*
X144235579Y-83011461D01*
X144117567Y-82926882D01*
X143978842Y-82881686D01*
X143831290Y-82877600D01*
X143686796Y-82916354D01*
X143686796Y-82916354D01*
G37*
X143686796Y-82916354D02*
X143661981Y-82928037D01*
X143576094Y-82990951D01*
X143494879Y-83082769D01*
X143434236Y-83183868D01*
X143416988Y-83230349D01*
X143401251Y-83313376D01*
X143391867Y-83413713D01*
X143390728Y-83455147D01*
X143390589Y-83585882D01*
X144143047Y-83585882D01*
X144127007Y-83654363D01*
X144087637Y-83735355D01*
X144018806Y-83805351D01*
X143936919Y-83850441D01*
X143884737Y-83859804D01*
X143813971Y-83848441D01*
X143729540Y-83819943D01*
X143700858Y-83806831D01*
X143594791Y-83753858D01*
X143504272Y-83822901D01*
X143452039Y-83869597D01*
X143424247Y-83908140D01*
X143422840Y-83919452D01*
X143447668Y-83946868D01*
X143502083Y-83988532D01*
X143551472Y-84021037D01*
X143684748Y-84079468D01*
X143834161Y-84105915D01*
X143982249Y-84099039D01*
X144100295Y-84063096D01*
X144221982Y-83986101D01*
X144308460Y-83884728D01*
X144362559Y-83753570D01*
X144387109Y-83587224D01*
X144389286Y-83511108D01*
X144380573Y-83336685D01*
X144379503Y-83331611D01*
X144130173Y-83331611D01*
X144123306Y-83347968D01*
X144095083Y-83356988D01*
X144036873Y-83360854D01*
X143940042Y-83361749D01*
X143902757Y-83361765D01*
X143789317Y-83360413D01*
X143717378Y-83355505D01*
X143678687Y-83345760D01*
X143664995Y-83329899D01*
X143664510Y-83324805D01*
X143680137Y-83284326D01*
X143719247Y-83227621D01*
X143736061Y-83207766D01*
X143798481Y-83151611D01*
X143863547Y-83129532D01*
X143898603Y-83127686D01*
X143993442Y-83150766D01*
X144072973Y-83212759D01*
X144123423Y-83302802D01*
X144124317Y-83305735D01*
X144130173Y-83331611D01*
X144379503Y-83331611D01*
X144351601Y-83199343D01*
X144299410Y-83089461D01*
X144235579Y-83011461D01*
X144117567Y-82926882D01*
X143978842Y-82881686D01*
X143831290Y-82877600D01*
X143686796Y-82916354D01*
G36*
X146026753Y-82901568D02*
X145896478Y-82959163D01*
X145797581Y-83055334D01*
X145729918Y-83190229D01*
X145693345Y-83363996D01*
X145690724Y-83391126D01*
X145688670Y-83582408D01*
X145715301Y-83750073D01*
X145768999Y-83885967D01*
X145797753Y-83929681D01*
X145897909Y-84022198D01*
X146025463Y-84082119D01*
X146168163Y-84106985D01*
X146313760Y-84094339D01*
X146424438Y-84055391D01*
X146519616Y-83989755D01*
X146597406Y-83903699D01*
X146598751Y-83901685D01*
X146630343Y-83848570D01*
X146650873Y-83795160D01*
X146663305Y-83727754D01*
X146670603Y-83632653D01*
X146673818Y-83554666D01*
X146675156Y-83483944D01*
X146426186Y-83483944D01*
X146423753Y-83554348D01*
X146414920Y-83648068D01*
X146399336Y-83708214D01*
X146371234Y-83751006D01*
X146344914Y-83776002D01*
X146251608Y-83828338D01*
X146153980Y-83835333D01*
X146063058Y-83797676D01*
X146017598Y-83755479D01*
X145984838Y-83712956D01*
X145965677Y-83672267D01*
X145957267Y-83619314D01*
X145956763Y-83539997D01*
X145959355Y-83466950D01*
X145964929Y-83362601D01*
X145973766Y-83294920D01*
X145989693Y-83250774D01*
X146016538Y-83217031D01*
X146037811Y-83197746D01*
X146126794Y-83147086D01*
X146222789Y-83144560D01*
X146303281Y-83174567D01*
X146371947Y-83237231D01*
X146412856Y-83340168D01*
X146426186Y-83483944D01*
X146675156Y-83483944D01*
X146676754Y-83399582D01*
X146671740Y-83283600D01*
X146656717Y-83196367D01*
X146629624Y-83127530D01*
X146588400Y-83066737D01*
X146573115Y-83048686D01*
X146477546Y-82958746D01*
X146375039Y-82906211D01*
X146249679Y-82884201D01*
X146188550Y-82882402D01*
X146026753Y-82901568D01*
X146026753Y-82901568D01*
G37*
X146026753Y-82901568D02*
X145896478Y-82959163D01*
X145797581Y-83055334D01*
X145729918Y-83190229D01*
X145693345Y-83363996D01*
X145690724Y-83391126D01*
X145688670Y-83582408D01*
X145715301Y-83750073D01*
X145768999Y-83885967D01*
X145797753Y-83929681D01*
X145897909Y-84022198D01*
X146025463Y-84082119D01*
X146168163Y-84106985D01*
X146313760Y-84094339D01*
X146424438Y-84055391D01*
X146519616Y-83989755D01*
X146597406Y-83903699D01*
X146598751Y-83901685D01*
X146630343Y-83848570D01*
X146650873Y-83795160D01*
X146663305Y-83727754D01*
X146670603Y-83632653D01*
X146673818Y-83554666D01*
X146675156Y-83483944D01*
X146426186Y-83483944D01*
X146423753Y-83554348D01*
X146414920Y-83648068D01*
X146399336Y-83708214D01*
X146371234Y-83751006D01*
X146344914Y-83776002D01*
X146251608Y-83828338D01*
X146153980Y-83835333D01*
X146063058Y-83797676D01*
X146017598Y-83755479D01*
X145984838Y-83712956D01*
X145965677Y-83672267D01*
X145957267Y-83619314D01*
X145956763Y-83539997D01*
X145959355Y-83466950D01*
X145964929Y-83362601D01*
X145973766Y-83294920D01*
X145989693Y-83250774D01*
X146016538Y-83217031D01*
X146037811Y-83197746D01*
X146126794Y-83147086D01*
X146222789Y-83144560D01*
X146303281Y-83174567D01*
X146371947Y-83237231D01*
X146412856Y-83340168D01*
X146426186Y-83483944D01*
X146675156Y-83483944D01*
X146676754Y-83399582D01*
X146671740Y-83283600D01*
X146656717Y-83196367D01*
X146629624Y-83127530D01*
X146588400Y-83066737D01*
X146573115Y-83048686D01*
X146477546Y-82958746D01*
X146375039Y-82906211D01*
X146249679Y-82884201D01*
X146188550Y-82882402D01*
X146026753Y-82901568D01*
G36*
X136974693Y-84762784D02*
X136855663Y-84793731D01*
X136755979Y-84857600D01*
X136707712Y-84905313D01*
X136628592Y-85018106D01*
X136583248Y-85148950D01*
X136567670Y-85309792D01*
X136567590Y-85322794D01*
X136567451Y-85453530D01*
X137319909Y-85453530D01*
X137303870Y-85522010D01*
X137274909Y-85584031D01*
X137224222Y-85648654D01*
X137213621Y-85658971D01*
X137122506Y-85714805D01*
X137018600Y-85724275D01*
X136899000Y-85687540D01*
X136878726Y-85677647D01*
X136816544Y-85647574D01*
X136774894Y-85630440D01*
X136767627Y-85628855D01*
X136742260Y-85644242D01*
X136693880Y-85681887D01*
X136669321Y-85702459D01*
X136618430Y-85749714D01*
X136601719Y-85780917D01*
X136613317Y-85809620D01*
X136619517Y-85817468D01*
X136661507Y-85851819D01*
X136730794Y-85893565D01*
X136779118Y-85917935D01*
X136916289Y-85960873D01*
X137068153Y-85974786D01*
X137211976Y-85958300D01*
X137252255Y-85946496D01*
X137376922Y-85879689D01*
X137469329Y-85776892D01*
X137530010Y-85637105D01*
X137559502Y-85459330D01*
X137562740Y-85366373D01*
X137553286Y-85231033D01*
X137314510Y-85231033D01*
X137291416Y-85241038D01*
X137229338Y-85248888D01*
X137139086Y-85253521D01*
X137077942Y-85254314D01*
X136967960Y-85253549D01*
X136898543Y-85249970D01*
X136860462Y-85241649D01*
X136844485Y-85226657D01*
X136841373Y-85204903D01*
X136862722Y-85137892D01*
X136916471Y-85071664D01*
X136987178Y-85020832D01*
X137057911Y-85000038D01*
X137153984Y-85018484D01*
X137237151Y-85071811D01*
X137294814Y-85148677D01*
X137314510Y-85231033D01*
X137553286Y-85231033D01*
X137548972Y-85169291D01*
X137506480Y-85012271D01*
X137434365Y-84894069D01*
X137331727Y-84813440D01*
X137197668Y-84769139D01*
X137125043Y-84760607D01*
X136974693Y-84762784D01*
X136974693Y-84762784D01*
G37*
X136974693Y-84762784D02*
X136855663Y-84793731D01*
X136755979Y-84857600D01*
X136707712Y-84905313D01*
X136628592Y-85018106D01*
X136583248Y-85148950D01*
X136567670Y-85309792D01*
X136567590Y-85322794D01*
X136567451Y-85453530D01*
X137319909Y-85453530D01*
X137303870Y-85522010D01*
X137274909Y-85584031D01*
X137224222Y-85648654D01*
X137213621Y-85658971D01*
X137122506Y-85714805D01*
X137018600Y-85724275D01*
X136899000Y-85687540D01*
X136878726Y-85677647D01*
X136816544Y-85647574D01*
X136774894Y-85630440D01*
X136767627Y-85628855D01*
X136742260Y-85644242D01*
X136693880Y-85681887D01*
X136669321Y-85702459D01*
X136618430Y-85749714D01*
X136601719Y-85780917D01*
X136613317Y-85809620D01*
X136619517Y-85817468D01*
X136661507Y-85851819D01*
X136730794Y-85893565D01*
X136779118Y-85917935D01*
X136916289Y-85960873D01*
X137068153Y-85974786D01*
X137211976Y-85958300D01*
X137252255Y-85946496D01*
X137376922Y-85879689D01*
X137469329Y-85776892D01*
X137530010Y-85637105D01*
X137559502Y-85459330D01*
X137562740Y-85366373D01*
X137553286Y-85231033D01*
X137314510Y-85231033D01*
X137291416Y-85241038D01*
X137229338Y-85248888D01*
X137139086Y-85253521D01*
X137077942Y-85254314D01*
X136967960Y-85253549D01*
X136898543Y-85249970D01*
X136860462Y-85241649D01*
X136844485Y-85226657D01*
X136841373Y-85204903D01*
X136862722Y-85137892D01*
X136916471Y-85071664D01*
X136987178Y-85020832D01*
X137057911Y-85000038D01*
X137153984Y-85018484D01*
X137237151Y-85071811D01*
X137294814Y-85148677D01*
X137314510Y-85231033D01*
X137553286Y-85231033D01*
X137548972Y-85169291D01*
X137506480Y-85012271D01*
X137434365Y-84894069D01*
X137331727Y-84813440D01*
X137197668Y-84769139D01*
X137125043Y-84760607D01*
X136974693Y-84762784D01*
G36*
X137761554Y-84755883D02*
X137665823Y-84774755D01*
X137611323Y-84802699D01*
X137553992Y-84849123D01*
X137635559Y-84952111D01*
X137685850Y-85014479D01*
X137719999Y-85044907D01*
X137753937Y-85049555D01*
X137803594Y-85034586D01*
X137826904Y-85026117D01*
X137921937Y-85013622D01*
X138008968Y-85040406D01*
X138072862Y-85100915D01*
X138083241Y-85120208D01*
X138094544Y-85171314D01*
X138103268Y-85265500D01*
X138109003Y-85396089D01*
X138111340Y-85556405D01*
X138111373Y-85579211D01*
X138111373Y-85976471D01*
X138385295Y-85976471D01*
X138385295Y-84756275D01*
X138248334Y-84756275D01*
X138169362Y-84758337D01*
X138128221Y-84767513D01*
X138113008Y-84788290D01*
X138111373Y-84807886D01*
X138111373Y-84859497D01*
X138045760Y-84807886D01*
X137970525Y-84772675D01*
X137869456Y-84755265D01*
X137761554Y-84755883D01*
X137761554Y-84755883D01*
G37*
X137761554Y-84755883D02*
X137665823Y-84774755D01*
X137611323Y-84802699D01*
X137553992Y-84849123D01*
X137635559Y-84952111D01*
X137685850Y-85014479D01*
X137719999Y-85044907D01*
X137753937Y-85049555D01*
X137803594Y-85034586D01*
X137826904Y-85026117D01*
X137921937Y-85013622D01*
X138008968Y-85040406D01*
X138072862Y-85100915D01*
X138083241Y-85120208D01*
X138094544Y-85171314D01*
X138103268Y-85265500D01*
X138109003Y-85396089D01*
X138111340Y-85556405D01*
X138111373Y-85579211D01*
X138111373Y-85976471D01*
X138385295Y-85976471D01*
X138385295Y-84756275D01*
X138248334Y-84756275D01*
X138169362Y-84758337D01*
X138128221Y-84767513D01*
X138113008Y-84788290D01*
X138111373Y-84807886D01*
X138111373Y-84859497D01*
X138045760Y-84807886D01*
X137970525Y-84772675D01*
X137869456Y-84755265D01*
X137761554Y-84755883D01*
G36*
X138943541Y-84763669D02*
X138838580Y-84789163D01*
X138808239Y-84802669D01*
X138749427Y-84838046D01*
X138704291Y-84877890D01*
X138670894Y-84929120D01*
X138647299Y-84998654D01*
X138631567Y-85093409D01*
X138621761Y-85220305D01*
X138615943Y-85386258D01*
X138613734Y-85497108D01*
X138605604Y-85976471D01*
X138744469Y-85976471D01*
X138828713Y-85972938D01*
X138872116Y-85960866D01*
X138883334Y-85940594D01*
X138889256Y-85918674D01*
X138915734Y-85922865D01*
X138951814Y-85940441D01*
X139042138Y-85967382D01*
X139158223Y-85974642D01*
X139280320Y-85962767D01*
X139388679Y-85932305D01*
X139398398Y-85928077D01*
X139497432Y-85858505D01*
X139562719Y-85761789D01*
X139592760Y-85648738D01*
X139590465Y-85608122D01*
X139345367Y-85608122D01*
X139323771Y-85662782D01*
X139259741Y-85701952D01*
X139156435Y-85722974D01*
X139101226Y-85725766D01*
X139009218Y-85718620D01*
X138948059Y-85690848D01*
X138933138Y-85677647D01*
X138892713Y-85605829D01*
X138883334Y-85540686D01*
X138883334Y-85453530D01*
X139004731Y-85453530D01*
X139145847Y-85460722D01*
X139244827Y-85483345D01*
X139307367Y-85522964D01*
X139321369Y-85540628D01*
X139345367Y-85608122D01*
X139590465Y-85608122D01*
X139586059Y-85530157D01*
X139541120Y-85416855D01*
X139479804Y-85340285D01*
X139442668Y-85307181D01*
X139406313Y-85285425D01*
X139359010Y-85272161D01*
X139289027Y-85264528D01*
X139184636Y-85259670D01*
X139143230Y-85258273D01*
X138883334Y-85249780D01*
X138883715Y-85171116D01*
X138893781Y-85088428D01*
X138930171Y-85038431D01*
X139003689Y-85006489D01*
X139005661Y-85005920D01*
X139109895Y-84993361D01*
X139211892Y-85009766D01*
X139287695Y-85049657D01*
X139318110Y-85069354D01*
X139350868Y-85066629D01*
X139401279Y-85038091D01*
X139430881Y-85017950D01*
X139488782Y-84974919D01*
X139524648Y-84942662D01*
X139530403Y-84933427D01*
X139506705Y-84885636D01*
X139436687Y-84828562D01*
X139406275Y-84809305D01*
X139318845Y-84776140D01*
X139201017Y-84757350D01*
X139070134Y-84753129D01*
X138943541Y-84763669D01*
X138943541Y-84763669D01*
G37*
X138943541Y-84763669D02*
X138838580Y-84789163D01*
X138808239Y-84802669D01*
X138749427Y-84838046D01*
X138704291Y-84877890D01*
X138670894Y-84929120D01*
X138647299Y-84998654D01*
X138631567Y-85093409D01*
X138621761Y-85220305D01*
X138615943Y-85386258D01*
X138613734Y-85497108D01*
X138605604Y-85976471D01*
X138744469Y-85976471D01*
X138828713Y-85972938D01*
X138872116Y-85960866D01*
X138883334Y-85940594D01*
X138889256Y-85918674D01*
X138915734Y-85922865D01*
X138951814Y-85940441D01*
X139042138Y-85967382D01*
X139158223Y-85974642D01*
X139280320Y-85962767D01*
X139388679Y-85932305D01*
X139398398Y-85928077D01*
X139497432Y-85858505D01*
X139562719Y-85761789D01*
X139592760Y-85648738D01*
X139590465Y-85608122D01*
X139345367Y-85608122D01*
X139323771Y-85662782D01*
X139259741Y-85701952D01*
X139156435Y-85722974D01*
X139101226Y-85725766D01*
X139009218Y-85718620D01*
X138948059Y-85690848D01*
X138933138Y-85677647D01*
X138892713Y-85605829D01*
X138883334Y-85540686D01*
X138883334Y-85453530D01*
X139004731Y-85453530D01*
X139145847Y-85460722D01*
X139244827Y-85483345D01*
X139307367Y-85522964D01*
X139321369Y-85540628D01*
X139345367Y-85608122D01*
X139590465Y-85608122D01*
X139586059Y-85530157D01*
X139541120Y-85416855D01*
X139479804Y-85340285D01*
X139442668Y-85307181D01*
X139406313Y-85285425D01*
X139359010Y-85272161D01*
X139289027Y-85264528D01*
X139184636Y-85259670D01*
X139143230Y-85258273D01*
X138883334Y-85249780D01*
X138883715Y-85171116D01*
X138893781Y-85088428D01*
X138930171Y-85038431D01*
X139003689Y-85006489D01*
X139005661Y-85005920D01*
X139109895Y-84993361D01*
X139211892Y-85009766D01*
X139287695Y-85049657D01*
X139318110Y-85069354D01*
X139350868Y-85066629D01*
X139401279Y-85038091D01*
X139430881Y-85017950D01*
X139488782Y-84974919D01*
X139524648Y-84942662D01*
X139530403Y-84933427D01*
X139506705Y-84885636D01*
X139436687Y-84828562D01*
X139406275Y-84809305D01*
X139318845Y-84776140D01*
X139201017Y-84757350D01*
X139070134Y-84753129D01*
X138943541Y-84763669D01*
G36*
X140442472Y-84761332D02*
X140343986Y-84768726D01*
X140215224Y-85154706D01*
X140086463Y-85540686D01*
X140046089Y-85403726D01*
X140021793Y-85319083D01*
X139989833Y-85204697D01*
X139955321Y-85078963D01*
X139937072Y-85011520D01*
X139868429Y-84756275D01*
X139585227Y-84756275D01*
X139669878Y-85023971D01*
X139711565Y-85155638D01*
X139761926Y-85314458D01*
X139814519Y-85480128D01*
X139861470Y-85627843D01*
X139968411Y-85964020D01*
X140199339Y-85979044D01*
X140261950Y-85772316D01*
X140300562Y-85643896D01*
X140342700Y-85502322D01*
X140379528Y-85377285D01*
X140380982Y-85372309D01*
X140408489Y-85287586D01*
X140432758Y-85229778D01*
X140449757Y-85207918D01*
X140453250Y-85210446D01*
X140465510Y-85244336D01*
X140488805Y-85316930D01*
X140520300Y-85419101D01*
X140557158Y-85541720D01*
X140577101Y-85609167D01*
X140685105Y-85976471D01*
X140914321Y-85976471D01*
X141097561Y-85397500D01*
X141149037Y-85235091D01*
X141195930Y-85087602D01*
X141236023Y-84961960D01*
X141267103Y-84865095D01*
X141286955Y-84803934D01*
X141292989Y-84786065D01*
X141288212Y-84767768D01*
X141250703Y-84759755D01*
X141172645Y-84760557D01*
X141160426Y-84761163D01*
X141015674Y-84768726D01*
X140920870Y-85117353D01*
X140886023Y-85244497D01*
X140854883Y-85356265D01*
X140830191Y-85442953D01*
X140814688Y-85494856D01*
X140811824Y-85503318D01*
X140799954Y-85493587D01*
X140776017Y-85443172D01*
X140742761Y-85358935D01*
X140702936Y-85247741D01*
X140669270Y-85147297D01*
X140540959Y-84753939D01*
X140442472Y-84761332D01*
X140442472Y-84761332D01*
G37*
X140442472Y-84761332D02*
X140343986Y-84768726D01*
X140215224Y-85154706D01*
X140086463Y-85540686D01*
X140046089Y-85403726D01*
X140021793Y-85319083D01*
X139989833Y-85204697D01*
X139955321Y-85078963D01*
X139937072Y-85011520D01*
X139868429Y-84756275D01*
X139585227Y-84756275D01*
X139669878Y-85023971D01*
X139711565Y-85155638D01*
X139761926Y-85314458D01*
X139814519Y-85480128D01*
X139861470Y-85627843D01*
X139968411Y-85964020D01*
X140199339Y-85979044D01*
X140261950Y-85772316D01*
X140300562Y-85643896D01*
X140342700Y-85502322D01*
X140379528Y-85377285D01*
X140380982Y-85372309D01*
X140408489Y-85287586D01*
X140432758Y-85229778D01*
X140449757Y-85207918D01*
X140453250Y-85210446D01*
X140465510Y-85244336D01*
X140488805Y-85316930D01*
X140520300Y-85419101D01*
X140557158Y-85541720D01*
X140577101Y-85609167D01*
X140685105Y-85976471D01*
X140914321Y-85976471D01*
X141097561Y-85397500D01*
X141149037Y-85235091D01*
X141195930Y-85087602D01*
X141236023Y-84961960D01*
X141267103Y-84865095D01*
X141286955Y-84803934D01*
X141292989Y-84786065D01*
X141288212Y-84767768D01*
X141250703Y-84759755D01*
X141172645Y-84760557D01*
X141160426Y-84761163D01*
X141015674Y-84768726D01*
X140920870Y-85117353D01*
X140886023Y-85244497D01*
X140854883Y-85356265D01*
X140830191Y-85442953D01*
X140814688Y-85494856D01*
X140811824Y-85503318D01*
X140799954Y-85493587D01*
X140776017Y-85443172D01*
X140742761Y-85358935D01*
X140702936Y-85247741D01*
X140669270Y-85147297D01*
X140540959Y-84753939D01*
X140442472Y-84761332D01*
G36*
X141398432Y-85976471D02*
X141535393Y-85976471D01*
X141614889Y-85974140D01*
X141656292Y-85964488D01*
X141671199Y-85943525D01*
X141672353Y-85929351D01*
X141674867Y-85900927D01*
X141690720Y-85895475D01*
X141732379Y-85912998D01*
X141764776Y-85929351D01*
X141889151Y-85968103D01*
X142024354Y-85970346D01*
X142134274Y-85941444D01*
X142236634Y-85871619D01*
X142314660Y-85768555D01*
X142357386Y-85646989D01*
X142358474Y-85640192D01*
X142364822Y-85566032D01*
X142367979Y-85459570D01*
X142367725Y-85379052D01*
X142095711Y-85379052D01*
X142089410Y-85486070D01*
X142075075Y-85574278D01*
X142055669Y-85624090D01*
X141982254Y-85692162D01*
X141895086Y-85716564D01*
X141805196Y-85696831D01*
X141728383Y-85637968D01*
X141699292Y-85598379D01*
X141682283Y-85551138D01*
X141674316Y-85482181D01*
X141672353Y-85378607D01*
X141675866Y-85276039D01*
X141685143Y-85185921D01*
X141698294Y-85125613D01*
X141700486Y-85120208D01*
X141753522Y-85055940D01*
X141830933Y-85020656D01*
X141917546Y-85014959D01*
X141998193Y-85039453D01*
X142057703Y-85094742D01*
X142063876Y-85105743D01*
X142083199Y-85172827D01*
X142093726Y-85269284D01*
X142095711Y-85379052D01*
X142367725Y-85379052D01*
X142367596Y-85338225D01*
X142365806Y-85272918D01*
X142353627Y-85111355D01*
X142328315Y-84990053D01*
X142286207Y-84900379D01*
X142223641Y-84833699D01*
X142162900Y-84794557D01*
X142078036Y-84767040D01*
X141972485Y-84757603D01*
X141864402Y-84765290D01*
X141771942Y-84789146D01*
X141723090Y-84817685D01*
X141672353Y-84863601D01*
X141672353Y-84283137D01*
X141398432Y-84283137D01*
X141398432Y-85976471D01*
X141398432Y-85976471D01*
G37*
X141398432Y-85976471D02*
X141535393Y-85976471D01*
X141614889Y-85974140D01*
X141656292Y-85964488D01*
X141671199Y-85943525D01*
X141672353Y-85929351D01*
X141674867Y-85900927D01*
X141690720Y-85895475D01*
X141732379Y-85912998D01*
X141764776Y-85929351D01*
X141889151Y-85968103D01*
X142024354Y-85970346D01*
X142134274Y-85941444D01*
X142236634Y-85871619D01*
X142314660Y-85768555D01*
X142357386Y-85646989D01*
X142358474Y-85640192D01*
X142364822Y-85566032D01*
X142367979Y-85459570D01*
X142367725Y-85379052D01*
X142095711Y-85379052D01*
X142089410Y-85486070D01*
X142075075Y-85574278D01*
X142055669Y-85624090D01*
X141982254Y-85692162D01*
X141895086Y-85716564D01*
X141805196Y-85696831D01*
X141728383Y-85637968D01*
X141699292Y-85598379D01*
X141682283Y-85551138D01*
X141674316Y-85482181D01*
X141672353Y-85378607D01*
X141675866Y-85276039D01*
X141685143Y-85185921D01*
X141698294Y-85125613D01*
X141700486Y-85120208D01*
X141753522Y-85055940D01*
X141830933Y-85020656D01*
X141917546Y-85014959D01*
X141998193Y-85039453D01*
X142057703Y-85094742D01*
X142063876Y-85105743D01*
X142083199Y-85172827D01*
X142093726Y-85269284D01*
X142095711Y-85379052D01*
X142367725Y-85379052D01*
X142367596Y-85338225D01*
X142365806Y-85272918D01*
X142353627Y-85111355D01*
X142328315Y-84990053D01*
X142286207Y-84900379D01*
X142223641Y-84833699D01*
X142162900Y-84794557D01*
X142078036Y-84767040D01*
X141972485Y-84757603D01*
X141864402Y-84765290D01*
X141771942Y-84789146D01*
X141723090Y-84817685D01*
X141672353Y-84863601D01*
X141672353Y-84283137D01*
X141398432Y-84283137D01*
X141398432Y-85976471D01*
G36*
X142967236Y-84758921D02*
X142929970Y-84770091D01*
X142917957Y-84794633D01*
X142917451Y-84805712D01*
X142915296Y-84836572D01*
X142900449Y-84841417D01*
X142860343Y-84820260D01*
X142836520Y-84805806D01*
X142761362Y-84774850D01*
X142671594Y-84759544D01*
X142577471Y-84758367D01*
X142489246Y-84769799D01*
X142417174Y-84792320D01*
X142371508Y-84824409D01*
X142362502Y-84864545D01*
X142367047Y-84875415D01*
X142400179Y-84920534D01*
X142451555Y-84976026D01*
X142460848Y-84984996D01*
X142509818Y-85026245D01*
X142552069Y-85039572D01*
X142611159Y-85030271D01*
X142634831Y-85024090D01*
X142708496Y-85009246D01*
X142760290Y-85015921D01*
X142804031Y-85039465D01*
X142844098Y-85071061D01*
X142873608Y-85110798D01*
X142894116Y-85166252D01*
X142907176Y-85245003D01*
X142914344Y-85354629D01*
X142917176Y-85502706D01*
X142917451Y-85592111D01*
X142917451Y-85976471D01*
X143166471Y-85976471D01*
X143166471Y-84756275D01*
X143041961Y-84756275D01*
X142967236Y-84758921D01*
X142967236Y-84758921D01*
G37*
X142967236Y-84758921D02*
X142929970Y-84770091D01*
X142917957Y-84794633D01*
X142917451Y-84805712D01*
X142915296Y-84836572D01*
X142900449Y-84841417D01*
X142860343Y-84820260D01*
X142836520Y-84805806D01*
X142761362Y-84774850D01*
X142671594Y-84759544D01*
X142577471Y-84758367D01*
X142489246Y-84769799D01*
X142417174Y-84792320D01*
X142371508Y-84824409D01*
X142362502Y-84864545D01*
X142367047Y-84875415D01*
X142400179Y-84920534D01*
X142451555Y-84976026D01*
X142460848Y-84984996D01*
X142509818Y-85026245D01*
X142552069Y-85039572D01*
X142611159Y-85030271D01*
X142634831Y-85024090D01*
X142708496Y-85009246D01*
X142760290Y-85015921D01*
X142804031Y-85039465D01*
X142844098Y-85071061D01*
X142873608Y-85110798D01*
X142894116Y-85166252D01*
X142907176Y-85245003D01*
X142914344Y-85354629D01*
X142917176Y-85502706D01*
X142917451Y-85592111D01*
X142917451Y-85976471D01*
X143166471Y-85976471D01*
X143166471Y-84756275D01*
X143041961Y-84756275D01*
X142967236Y-84758921D01*
G36*
X143741280Y-84765922D02*
X143624130Y-84797180D01*
X143534949Y-84853837D01*
X143472016Y-84928045D01*
X143452452Y-84959716D01*
X143438008Y-84992891D01*
X143427911Y-85035329D01*
X143421385Y-85094788D01*
X143417658Y-85179029D01*
X143415954Y-85295810D01*
X143415500Y-85452890D01*
X143415491Y-85494565D01*
X143415491Y-85976471D01*
X143535020Y-85976471D01*
X143611261Y-85971131D01*
X143667634Y-85957604D01*
X143681758Y-85949262D01*
X143720370Y-85934864D01*
X143759808Y-85949262D01*
X143824738Y-85967237D01*
X143919055Y-85974472D01*
X144023593Y-85971333D01*
X144119189Y-85958186D01*
X144175000Y-85941318D01*
X144283002Y-85871986D01*
X144350497Y-85775772D01*
X144380841Y-85647844D01*
X144381123Y-85644559D01*
X144378460Y-85587808D01*
X144137647Y-85587808D01*
X144116595Y-85652358D01*
X144082303Y-85688686D01*
X144013468Y-85716162D01*
X143922610Y-85727129D01*
X143829958Y-85721731D01*
X143755744Y-85700110D01*
X143734951Y-85686239D01*
X143698619Y-85622143D01*
X143689412Y-85549278D01*
X143689412Y-85453530D01*
X143827173Y-85453530D01*
X143958047Y-85463605D01*
X144057259Y-85492148D01*
X144118977Y-85536639D01*
X144137647Y-85587808D01*
X144378460Y-85587808D01*
X144374564Y-85504790D01*
X144328466Y-85394282D01*
X144241800Y-85310712D01*
X144229821Y-85303110D01*
X144178345Y-85278357D01*
X144114632Y-85263368D01*
X144025565Y-85256082D01*
X143919755Y-85254407D01*
X143689412Y-85254314D01*
X143689412Y-85157755D01*
X143699183Y-85082836D01*
X143724116Y-85032644D01*
X143727035Y-85029972D01*
X143782519Y-85008015D01*
X143866273Y-84999505D01*
X143958833Y-85003687D01*
X144040730Y-85019809D01*
X144089327Y-85043990D01*
X144115659Y-85063359D01*
X144143465Y-85067057D01*
X144181839Y-85051188D01*
X144239875Y-85011855D01*
X144326669Y-84945164D01*
X144334635Y-84938916D01*
X144330553Y-84915800D01*
X144296499Y-84877352D01*
X144244740Y-84834627D01*
X144187545Y-84798679D01*
X144169575Y-84790191D01*
X144104028Y-84773252D01*
X144007980Y-84761170D01*
X143900671Y-84756323D01*
X143895653Y-84756313D01*
X143741280Y-84765922D01*
X143741280Y-84765922D01*
G37*
X143741280Y-84765922D02*
X143624130Y-84797180D01*
X143534949Y-84853837D01*
X143472016Y-84928045D01*
X143452452Y-84959716D01*
X143438008Y-84992891D01*
X143427911Y-85035329D01*
X143421385Y-85094788D01*
X143417658Y-85179029D01*
X143415954Y-85295810D01*
X143415500Y-85452890D01*
X143415491Y-85494565D01*
X143415491Y-85976471D01*
X143535020Y-85976471D01*
X143611261Y-85971131D01*
X143667634Y-85957604D01*
X143681758Y-85949262D01*
X143720370Y-85934864D01*
X143759808Y-85949262D01*
X143824738Y-85967237D01*
X143919055Y-85974472D01*
X144023593Y-85971333D01*
X144119189Y-85958186D01*
X144175000Y-85941318D01*
X144283002Y-85871986D01*
X144350497Y-85775772D01*
X144380841Y-85647844D01*
X144381123Y-85644559D01*
X144378460Y-85587808D01*
X144137647Y-85587808D01*
X144116595Y-85652358D01*
X144082303Y-85688686D01*
X144013468Y-85716162D01*
X143922610Y-85727129D01*
X143829958Y-85721731D01*
X143755744Y-85700110D01*
X143734951Y-85686239D01*
X143698619Y-85622143D01*
X143689412Y-85549278D01*
X143689412Y-85453530D01*
X143827173Y-85453530D01*
X143958047Y-85463605D01*
X144057259Y-85492148D01*
X144118977Y-85536639D01*
X144137647Y-85587808D01*
X144378460Y-85587808D01*
X144374564Y-85504790D01*
X144328466Y-85394282D01*
X144241800Y-85310712D01*
X144229821Y-85303110D01*
X144178345Y-85278357D01*
X144114632Y-85263368D01*
X144025565Y-85256082D01*
X143919755Y-85254407D01*
X143689412Y-85254314D01*
X143689412Y-85157755D01*
X143699183Y-85082836D01*
X143724116Y-85032644D01*
X143727035Y-85029972D01*
X143782519Y-85008015D01*
X143866273Y-84999505D01*
X143958833Y-85003687D01*
X144040730Y-85019809D01*
X144089327Y-85043990D01*
X144115659Y-85063359D01*
X144143465Y-85067057D01*
X144181839Y-85051188D01*
X144239875Y-85011855D01*
X144326669Y-84945164D01*
X144334635Y-84938916D01*
X144330553Y-84915800D01*
X144296499Y-84877352D01*
X144244740Y-84834627D01*
X144187545Y-84798679D01*
X144169575Y-84790191D01*
X144104028Y-84773252D01*
X144007980Y-84761170D01*
X143900671Y-84756323D01*
X143895653Y-84756313D01*
X143741280Y-84765922D01*
G36*
X144780091Y-82909560D02*
X144727588Y-82935499D01*
X144662842Y-82980700D01*
X144615653Y-83029991D01*
X144583335Y-83091885D01*
X144563203Y-83174896D01*
X144552570Y-83287538D01*
X144548753Y-83438324D01*
X144548530Y-83503149D01*
X144549182Y-83645221D01*
X144551888Y-83746757D01*
X144557776Y-83817015D01*
X144567973Y-83865256D01*
X144583606Y-83900738D01*
X144599872Y-83924943D01*
X144703705Y-84027929D01*
X144825979Y-84089874D01*
X144957886Y-84108506D01*
X145090616Y-84081549D01*
X145132667Y-84062486D01*
X145233334Y-84010015D01*
X145233334Y-84832259D01*
X145159865Y-84794267D01*
X145063059Y-84764872D01*
X144944072Y-84757342D01*
X144825255Y-84771245D01*
X144735527Y-84802476D01*
X144661101Y-84861954D01*
X144597510Y-84947066D01*
X144592729Y-84955805D01*
X144572563Y-84996966D01*
X144557835Y-85038454D01*
X144547697Y-85088713D01*
X144541301Y-85156184D01*
X144537799Y-85249309D01*
X144536342Y-85376531D01*
X144536079Y-85519701D01*
X144536079Y-85976471D01*
X144810000Y-85976471D01*
X144810000Y-85134231D01*
X144886617Y-85069763D01*
X144966207Y-85018194D01*
X145041578Y-85008818D01*
X145117367Y-85032947D01*
X145157759Y-85056574D01*
X145187821Y-85090227D01*
X145209203Y-85141087D01*
X145223550Y-85216334D01*
X145232510Y-85323146D01*
X145237730Y-85468704D01*
X145239569Y-85565588D01*
X145245785Y-85964020D01*
X145376520Y-85971547D01*
X145507255Y-85979073D01*
X145507255Y-83506582D01*
X145233334Y-83506582D01*
X145226350Y-83644423D01*
X145202818Y-83740107D01*
X145158865Y-83799641D01*
X145090618Y-83829029D01*
X145021667Y-83834902D01*
X144943614Y-83828154D01*
X144891811Y-83801594D01*
X144859417Y-83766499D01*
X144833916Y-83728752D01*
X144818735Y-83686700D01*
X144811981Y-83627779D01*
X144811759Y-83539428D01*
X144814032Y-83465448D01*
X144819251Y-83354000D01*
X144827021Y-83280833D01*
X144840105Y-83234422D01*
X144861268Y-83203244D01*
X144881240Y-83185223D01*
X144964686Y-83145925D01*
X145063449Y-83139579D01*
X145120159Y-83153116D01*
X145176308Y-83201233D01*
X145213501Y-83294833D01*
X145231528Y-83433254D01*
X145233334Y-83506582D01*
X145507255Y-83506582D01*
X145507255Y-82888628D01*
X145370295Y-82888628D01*
X145288065Y-82891879D01*
X145245640Y-82903426D01*
X145233339Y-82925952D01*
X145233334Y-82926620D01*
X145227626Y-82948681D01*
X145202453Y-82946176D01*
X145152402Y-82921935D01*
X145035781Y-82884851D01*
X144904571Y-82880953D01*
X144780091Y-82909560D01*
X144780091Y-82909560D01*
G37*
X144780091Y-82909560D02*
X144727588Y-82935499D01*
X144662842Y-82980700D01*
X144615653Y-83029991D01*
X144583335Y-83091885D01*
X144563203Y-83174896D01*
X144552570Y-83287538D01*
X144548753Y-83438324D01*
X144548530Y-83503149D01*
X144549182Y-83645221D01*
X144551888Y-83746757D01*
X144557776Y-83817015D01*
X144567973Y-83865256D01*
X144583606Y-83900738D01*
X144599872Y-83924943D01*
X144703705Y-84027929D01*
X144825979Y-84089874D01*
X144957886Y-84108506D01*
X145090616Y-84081549D01*
X145132667Y-84062486D01*
X145233334Y-84010015D01*
X145233334Y-84832259D01*
X145159865Y-84794267D01*
X145063059Y-84764872D01*
X144944072Y-84757342D01*
X144825255Y-84771245D01*
X144735527Y-84802476D01*
X144661101Y-84861954D01*
X144597510Y-84947066D01*
X144592729Y-84955805D01*
X144572563Y-84996966D01*
X144557835Y-85038454D01*
X144547697Y-85088713D01*
X144541301Y-85156184D01*
X144537799Y-85249309D01*
X144536342Y-85376531D01*
X144536079Y-85519701D01*
X144536079Y-85976471D01*
X144810000Y-85976471D01*
X144810000Y-85134231D01*
X144886617Y-85069763D01*
X144966207Y-85018194D01*
X145041578Y-85008818D01*
X145117367Y-85032947D01*
X145157759Y-85056574D01*
X145187821Y-85090227D01*
X145209203Y-85141087D01*
X145223550Y-85216334D01*
X145232510Y-85323146D01*
X145237730Y-85468704D01*
X145239569Y-85565588D01*
X145245785Y-85964020D01*
X145376520Y-85971547D01*
X145507255Y-85979073D01*
X145507255Y-83506582D01*
X145233334Y-83506582D01*
X145226350Y-83644423D01*
X145202818Y-83740107D01*
X145158865Y-83799641D01*
X145090618Y-83829029D01*
X145021667Y-83834902D01*
X144943614Y-83828154D01*
X144891811Y-83801594D01*
X144859417Y-83766499D01*
X144833916Y-83728752D01*
X144818735Y-83686700D01*
X144811981Y-83627779D01*
X144811759Y-83539428D01*
X144814032Y-83465448D01*
X144819251Y-83354000D01*
X144827021Y-83280833D01*
X144840105Y-83234422D01*
X144861268Y-83203244D01*
X144881240Y-83185223D01*
X144964686Y-83145925D01*
X145063449Y-83139579D01*
X145120159Y-83153116D01*
X145176308Y-83201233D01*
X145213501Y-83294833D01*
X145231528Y-83433254D01*
X145233334Y-83506582D01*
X145507255Y-83506582D01*
X145507255Y-82888628D01*
X145370295Y-82888628D01*
X145288065Y-82891879D01*
X145245640Y-82903426D01*
X145233339Y-82925952D01*
X145233334Y-82926620D01*
X145227626Y-82948681D01*
X145202453Y-82946176D01*
X145152402Y-82921935D01*
X145035781Y-82884851D01*
X144904571Y-82880953D01*
X144780091Y-82909560D01*
G04 #@! TO.C,G\002A\002A\002A*
G36*
X146961998Y-57644403D02*
X146946774Y-57672368D01*
X146941635Y-57710609D01*
X146943159Y-57729625D01*
X146963650Y-57819986D01*
X146999146Y-57906238D01*
X147051157Y-57991008D01*
X147121191Y-58076922D01*
X147174199Y-58131791D01*
X147211584Y-58167648D01*
X147250164Y-58202751D01*
X147291920Y-58238636D01*
X147338836Y-58276835D01*
X147392892Y-58318884D01*
X147456070Y-58366316D01*
X147530351Y-58420665D01*
X147617718Y-58483467D01*
X147720151Y-58556254D01*
X147746769Y-58575076D01*
X147876761Y-58667832D01*
X147990189Y-58750829D01*
X148088549Y-58825338D01*
X148173341Y-58892634D01*
X148246062Y-58953989D01*
X148308212Y-59010678D01*
X148361289Y-59063972D01*
X148406790Y-59115145D01*
X148446214Y-59165470D01*
X148453572Y-59175644D01*
X148500966Y-59247985D01*
X148533663Y-59313267D01*
X148553891Y-59377143D01*
X148563877Y-59445269D01*
X148564723Y-59457803D01*
X148562606Y-59559852D01*
X148544243Y-59649384D01*
X148510312Y-59725620D01*
X148461494Y-59787779D01*
X148398467Y-59835083D01*
X148321909Y-59866751D01*
X148232501Y-59882002D01*
X148194190Y-59883333D01*
X148083366Y-59873157D01*
X147968503Y-59842973D01*
X147850731Y-59793301D01*
X147731183Y-59724658D01*
X147610991Y-59637563D01*
X147554952Y-59590708D01*
X147507897Y-59552264D01*
X147471913Y-59529154D01*
X147446752Y-59521897D01*
X147432163Y-59531009D01*
X147427898Y-59557009D01*
X147433706Y-59600416D01*
X147449340Y-59661746D01*
X147474550Y-59741518D01*
X147477761Y-59751041D01*
X147554931Y-59952530D01*
X147648855Y-60152931D01*
X147757789Y-60349979D01*
X147879993Y-60541409D01*
X148013725Y-60724958D01*
X148157242Y-60898361D01*
X148308803Y-61059353D01*
X148466666Y-61205670D01*
X148629089Y-61335048D01*
X148769117Y-61429813D01*
X148919257Y-61513329D01*
X149076081Y-61582222D01*
X149234634Y-61634517D01*
X149349126Y-61661170D01*
X149416387Y-61672421D01*
X149482888Y-61680880D01*
X149544445Y-61686254D01*
X149596874Y-61688251D01*
X149635990Y-61686577D01*
X149654521Y-61682554D01*
X149676066Y-61668743D01*
X149679516Y-61652365D01*
X149664325Y-61632863D01*
X149629947Y-61609680D01*
X149575838Y-61582257D01*
X149541363Y-61566846D01*
X149485357Y-61539666D01*
X149426928Y-61506541D01*
X149376022Y-61473207D01*
X149365537Y-61465437D01*
X149266627Y-61380775D01*
X149172900Y-61283481D01*
X149088255Y-61178344D01*
X149016589Y-61070154D01*
X148967287Y-60976078D01*
X148935856Y-60899124D01*
X148905162Y-60809960D01*
X148876341Y-60713235D01*
X148850530Y-60613601D01*
X148828864Y-60515710D01*
X148812479Y-60424211D01*
X148802510Y-60343756D01*
X148799917Y-60290628D01*
X148800459Y-60250000D01*
X148802826Y-60226172D01*
X148808132Y-60214787D01*
X148817490Y-60211489D01*
X148820158Y-60211416D01*
X148835108Y-60218782D01*
X148854949Y-60241975D01*
X148881006Y-60282642D01*
X148890366Y-60298729D01*
X148927615Y-60354750D01*
X148977180Y-60416375D01*
X149034423Y-60478826D01*
X149094705Y-60537323D01*
X149153388Y-60587089D01*
X149205015Y-60622866D01*
X149301860Y-60671742D01*
X149394363Y-60702215D01*
X149481301Y-60714106D01*
X149561453Y-60707238D01*
X149627618Y-60684460D01*
X149688968Y-60643102D01*
X149740110Y-60586471D01*
X149779129Y-60518766D01*
X149804114Y-60444186D01*
X149813153Y-60366930D01*
X149805161Y-60294605D01*
X149795159Y-60257334D01*
X149782366Y-60220499D01*
X149765341Y-60181408D01*
X149742643Y-60137368D01*
X149712831Y-60085684D01*
X149674465Y-60023664D01*
X149626103Y-59948614D01*
X149593545Y-59899023D01*
X149549550Y-59831146D01*
X149506624Y-59762765D01*
X149467132Y-59697811D01*
X149433440Y-59640215D01*
X149407916Y-59593909D01*
X149397787Y-59573776D01*
X149371144Y-59512333D01*
X149347213Y-59447477D01*
X149327631Y-59384555D01*
X149314033Y-59328914D01*
X149308057Y-59285900D01*
X149307917Y-59280154D01*
X149310702Y-59253122D01*
X149319556Y-59241705D01*
X149335230Y-59246473D01*
X149358475Y-59267995D01*
X149390042Y-59306841D01*
X149430682Y-59363582D01*
X149444498Y-59383798D01*
X149522243Y-59487435D01*
X149615139Y-59590777D01*
X149724783Y-59695418D01*
X149852774Y-59802955D01*
X149905875Y-59844390D01*
X149969768Y-59893349D01*
X150042631Y-59949199D01*
X150116663Y-60005958D01*
X150184062Y-60057646D01*
X150202032Y-60071430D01*
X150291053Y-60142906D01*
X150378049Y-60218742D01*
X150459807Y-60295791D01*
X150533111Y-60370905D01*
X150594749Y-60440938D01*
X150639678Y-60500051D01*
X150695086Y-60586772D01*
X150738967Y-60669653D01*
X150772575Y-60752960D01*
X150797164Y-60840963D01*
X150813989Y-60937929D01*
X150824302Y-61048126D01*
X150828541Y-61142750D01*
X150831873Y-61230850D01*
X150836356Y-61299601D01*
X150842313Y-61350806D01*
X150850065Y-61386267D01*
X150859935Y-61407784D01*
X150872246Y-61417161D01*
X150877796Y-61417916D01*
X150893201Y-61409414D01*
X150909359Y-61383419D01*
X150926516Y-61339202D01*
X150944918Y-61276033D01*
X150964809Y-61193180D01*
X150984339Y-61100416D01*
X151016648Y-60896547D01*
X151029903Y-60701399D01*
X151023929Y-60514125D01*
X150998549Y-60333877D01*
X150953591Y-60159804D01*
X150888877Y-59991060D01*
X150804234Y-59826796D01*
X150699486Y-59666162D01*
X150684111Y-59645135D01*
X150567210Y-59502604D01*
X150430607Y-59363597D01*
X150275608Y-59229043D01*
X150103519Y-59099873D01*
X149915645Y-58977016D01*
X149713292Y-58861404D01*
X149497765Y-58753966D01*
X149329084Y-58679656D01*
X149271791Y-58656374D01*
X149213817Y-58634195D01*
X149152928Y-58612440D01*
X149086889Y-58590428D01*
X149013467Y-58567478D01*
X148930427Y-58542911D01*
X148835535Y-58516045D01*
X148726557Y-58486202D01*
X148601257Y-58452699D01*
X148471834Y-58418634D01*
X148382120Y-58394899D01*
X148292221Y-58370655D01*
X148205950Y-58346963D01*
X148127124Y-58324885D01*
X148059555Y-58305483D01*
X148007061Y-58289821D01*
X147990292Y-58284570D01*
X147804538Y-58220073D01*
X147637535Y-58151190D01*
X147487120Y-58076796D01*
X147351130Y-57995767D01*
X147227402Y-57906977D01*
X147164792Y-57855292D01*
X147121429Y-57816019D01*
X147090354Y-57782735D01*
X147066539Y-57749256D01*
X147044958Y-57709397D01*
X147043084Y-57705554D01*
X147022523Y-57665688D01*
X147006894Y-57642418D01*
X146993675Y-57632530D01*
X146985140Y-57631761D01*
X146961998Y-57644403D01*
X146961998Y-57644403D01*
G37*
X146961998Y-57644403D02*
X146946774Y-57672368D01*
X146941635Y-57710609D01*
X146943159Y-57729625D01*
X146963650Y-57819986D01*
X146999146Y-57906238D01*
X147051157Y-57991008D01*
X147121191Y-58076922D01*
X147174199Y-58131791D01*
X147211584Y-58167648D01*
X147250164Y-58202751D01*
X147291920Y-58238636D01*
X147338836Y-58276835D01*
X147392892Y-58318884D01*
X147456070Y-58366316D01*
X147530351Y-58420665D01*
X147617718Y-58483467D01*
X147720151Y-58556254D01*
X147746769Y-58575076D01*
X147876761Y-58667832D01*
X147990189Y-58750829D01*
X148088549Y-58825338D01*
X148173341Y-58892634D01*
X148246062Y-58953989D01*
X148308212Y-59010678D01*
X148361289Y-59063972D01*
X148406790Y-59115145D01*
X148446214Y-59165470D01*
X148453572Y-59175644D01*
X148500966Y-59247985D01*
X148533663Y-59313267D01*
X148553891Y-59377143D01*
X148563877Y-59445269D01*
X148564723Y-59457803D01*
X148562606Y-59559852D01*
X148544243Y-59649384D01*
X148510312Y-59725620D01*
X148461494Y-59787779D01*
X148398467Y-59835083D01*
X148321909Y-59866751D01*
X148232501Y-59882002D01*
X148194190Y-59883333D01*
X148083366Y-59873157D01*
X147968503Y-59842973D01*
X147850731Y-59793301D01*
X147731183Y-59724658D01*
X147610991Y-59637563D01*
X147554952Y-59590708D01*
X147507897Y-59552264D01*
X147471913Y-59529154D01*
X147446752Y-59521897D01*
X147432163Y-59531009D01*
X147427898Y-59557009D01*
X147433706Y-59600416D01*
X147449340Y-59661746D01*
X147474550Y-59741518D01*
X147477761Y-59751041D01*
X147554931Y-59952530D01*
X147648855Y-60152931D01*
X147757789Y-60349979D01*
X147879993Y-60541409D01*
X148013725Y-60724958D01*
X148157242Y-60898361D01*
X148308803Y-61059353D01*
X148466666Y-61205670D01*
X148629089Y-61335048D01*
X148769117Y-61429813D01*
X148919257Y-61513329D01*
X149076081Y-61582222D01*
X149234634Y-61634517D01*
X149349126Y-61661170D01*
X149416387Y-61672421D01*
X149482888Y-61680880D01*
X149544445Y-61686254D01*
X149596874Y-61688251D01*
X149635990Y-61686577D01*
X149654521Y-61682554D01*
X149676066Y-61668743D01*
X149679516Y-61652365D01*
X149664325Y-61632863D01*
X149629947Y-61609680D01*
X149575838Y-61582257D01*
X149541363Y-61566846D01*
X149485357Y-61539666D01*
X149426928Y-61506541D01*
X149376022Y-61473207D01*
X149365537Y-61465437D01*
X149266627Y-61380775D01*
X149172900Y-61283481D01*
X149088255Y-61178344D01*
X149016589Y-61070154D01*
X148967287Y-60976078D01*
X148935856Y-60899124D01*
X148905162Y-60809960D01*
X148876341Y-60713235D01*
X148850530Y-60613601D01*
X148828864Y-60515710D01*
X148812479Y-60424211D01*
X148802510Y-60343756D01*
X148799917Y-60290628D01*
X148800459Y-60250000D01*
X148802826Y-60226172D01*
X148808132Y-60214787D01*
X148817490Y-60211489D01*
X148820158Y-60211416D01*
X148835108Y-60218782D01*
X148854949Y-60241975D01*
X148881006Y-60282642D01*
X148890366Y-60298729D01*
X148927615Y-60354750D01*
X148977180Y-60416375D01*
X149034423Y-60478826D01*
X149094705Y-60537323D01*
X149153388Y-60587089D01*
X149205015Y-60622866D01*
X149301860Y-60671742D01*
X149394363Y-60702215D01*
X149481301Y-60714106D01*
X149561453Y-60707238D01*
X149627618Y-60684460D01*
X149688968Y-60643102D01*
X149740110Y-60586471D01*
X149779129Y-60518766D01*
X149804114Y-60444186D01*
X149813153Y-60366930D01*
X149805161Y-60294605D01*
X149795159Y-60257334D01*
X149782366Y-60220499D01*
X149765341Y-60181408D01*
X149742643Y-60137368D01*
X149712831Y-60085684D01*
X149674465Y-60023664D01*
X149626103Y-59948614D01*
X149593545Y-59899023D01*
X149549550Y-59831146D01*
X149506624Y-59762765D01*
X149467132Y-59697811D01*
X149433440Y-59640215D01*
X149407916Y-59593909D01*
X149397787Y-59573776D01*
X149371144Y-59512333D01*
X149347213Y-59447477D01*
X149327631Y-59384555D01*
X149314033Y-59328914D01*
X149308057Y-59285900D01*
X149307917Y-59280154D01*
X149310702Y-59253122D01*
X149319556Y-59241705D01*
X149335230Y-59246473D01*
X149358475Y-59267995D01*
X149390042Y-59306841D01*
X149430682Y-59363582D01*
X149444498Y-59383798D01*
X149522243Y-59487435D01*
X149615139Y-59590777D01*
X149724783Y-59695418D01*
X149852774Y-59802955D01*
X149905875Y-59844390D01*
X149969768Y-59893349D01*
X150042631Y-59949199D01*
X150116663Y-60005958D01*
X150184062Y-60057646D01*
X150202032Y-60071430D01*
X150291053Y-60142906D01*
X150378049Y-60218742D01*
X150459807Y-60295791D01*
X150533111Y-60370905D01*
X150594749Y-60440938D01*
X150639678Y-60500051D01*
X150695086Y-60586772D01*
X150738967Y-60669653D01*
X150772575Y-60752960D01*
X150797164Y-60840963D01*
X150813989Y-60937929D01*
X150824302Y-61048126D01*
X150828541Y-61142750D01*
X150831873Y-61230850D01*
X150836356Y-61299601D01*
X150842313Y-61350806D01*
X150850065Y-61386267D01*
X150859935Y-61407784D01*
X150872246Y-61417161D01*
X150877796Y-61417916D01*
X150893201Y-61409414D01*
X150909359Y-61383419D01*
X150926516Y-61339202D01*
X150944918Y-61276033D01*
X150964809Y-61193180D01*
X150984339Y-61100416D01*
X151016648Y-60896547D01*
X151029903Y-60701399D01*
X151023929Y-60514125D01*
X150998549Y-60333877D01*
X150953591Y-60159804D01*
X150888877Y-59991060D01*
X150804234Y-59826796D01*
X150699486Y-59666162D01*
X150684111Y-59645135D01*
X150567210Y-59502604D01*
X150430607Y-59363597D01*
X150275608Y-59229043D01*
X150103519Y-59099873D01*
X149915645Y-58977016D01*
X149713292Y-58861404D01*
X149497765Y-58753966D01*
X149329084Y-58679656D01*
X149271791Y-58656374D01*
X149213817Y-58634195D01*
X149152928Y-58612440D01*
X149086889Y-58590428D01*
X149013467Y-58567478D01*
X148930427Y-58542911D01*
X148835535Y-58516045D01*
X148726557Y-58486202D01*
X148601257Y-58452699D01*
X148471834Y-58418634D01*
X148382120Y-58394899D01*
X148292221Y-58370655D01*
X148205950Y-58346963D01*
X148127124Y-58324885D01*
X148059555Y-58305483D01*
X148007061Y-58289821D01*
X147990292Y-58284570D01*
X147804538Y-58220073D01*
X147637535Y-58151190D01*
X147487120Y-58076796D01*
X147351130Y-57995767D01*
X147227402Y-57906977D01*
X147164792Y-57855292D01*
X147121429Y-57816019D01*
X147090354Y-57782735D01*
X147066539Y-57749256D01*
X147044958Y-57709397D01*
X147043084Y-57705554D01*
X147022523Y-57665688D01*
X147006894Y-57642418D01*
X146993675Y-57632530D01*
X146985140Y-57631761D01*
X146961998Y-57644403D01*
G36*
X132166619Y-61870218D02*
X132048506Y-61880359D01*
X131933785Y-61898128D01*
X131853355Y-61916316D01*
X131813667Y-61926732D01*
X131813667Y-62402927D01*
X131911563Y-62394609D01*
X131992087Y-62389567D01*
X132076539Y-62387417D01*
X132159394Y-62388066D01*
X132235129Y-62391423D01*
X132298222Y-62397396D01*
X132324061Y-62401479D01*
X132377002Y-62415783D01*
X132429127Y-62436747D01*
X132450952Y-62448339D01*
X132483317Y-62470113D01*
X132507308Y-62493918D01*
X132528869Y-62526551D01*
X132543808Y-62554562D01*
X132580959Y-62627497D01*
X132584303Y-62948748D01*
X132587647Y-63270000D01*
X131898334Y-63270000D01*
X131898334Y-63672166D01*
X132586167Y-63672166D01*
X132588855Y-64976562D01*
X132591542Y-66280958D01*
X132872713Y-66283773D01*
X132947831Y-66284261D01*
X133015923Y-66284198D01*
X133074145Y-66283627D01*
X133119653Y-66282593D01*
X133149605Y-66281139D01*
X133161109Y-66279363D01*
X133162021Y-66268068D01*
X133162900Y-66236895D01*
X133163738Y-66187130D01*
X133164529Y-66120063D01*
X133165265Y-66036981D01*
X133165939Y-65939171D01*
X133166545Y-65827923D01*
X133167074Y-65704524D01*
X133167521Y-65570261D01*
X133167877Y-65426424D01*
X133168136Y-65274299D01*
X133168290Y-65115174D01*
X133168334Y-64972152D01*
X133168334Y-63672166D01*
X133750417Y-63672166D01*
X133750417Y-63270000D01*
X133170796Y-63270000D01*
X133165693Y-62918104D01*
X133164227Y-62821601D01*
X133162789Y-62743472D01*
X133161182Y-62680925D01*
X133159206Y-62631168D01*
X133156663Y-62591410D01*
X133153355Y-62558859D01*
X133149084Y-62530723D01*
X133143650Y-62504210D01*
X133136855Y-62476529D01*
X133133351Y-62463140D01*
X133091162Y-62340232D01*
X133033186Y-62231253D01*
X132959326Y-62136118D01*
X132869483Y-62054738D01*
X132763560Y-61987026D01*
X132641457Y-61932896D01*
X132503077Y-61892260D01*
X132484531Y-61888104D01*
X132390311Y-61873837D01*
X132282447Y-61867960D01*
X132166619Y-61870218D01*
X132166619Y-61870218D01*
G37*
X132166619Y-61870218D02*
X132048506Y-61880359D01*
X131933785Y-61898128D01*
X131853355Y-61916316D01*
X131813667Y-61926732D01*
X131813667Y-62402927D01*
X131911563Y-62394609D01*
X131992087Y-62389567D01*
X132076539Y-62387417D01*
X132159394Y-62388066D01*
X132235129Y-62391423D01*
X132298222Y-62397396D01*
X132324061Y-62401479D01*
X132377002Y-62415783D01*
X132429127Y-62436747D01*
X132450952Y-62448339D01*
X132483317Y-62470113D01*
X132507308Y-62493918D01*
X132528869Y-62526551D01*
X132543808Y-62554562D01*
X132580959Y-62627497D01*
X132584303Y-62948748D01*
X132587647Y-63270000D01*
X131898334Y-63270000D01*
X131898334Y-63672166D01*
X132586167Y-63672166D01*
X132588855Y-64976562D01*
X132591542Y-66280958D01*
X132872713Y-66283773D01*
X132947831Y-66284261D01*
X133015923Y-66284198D01*
X133074145Y-66283627D01*
X133119653Y-66282593D01*
X133149605Y-66281139D01*
X133161109Y-66279363D01*
X133162021Y-66268068D01*
X133162900Y-66236895D01*
X133163738Y-66187130D01*
X133164529Y-66120063D01*
X133165265Y-66036981D01*
X133165939Y-65939171D01*
X133166545Y-65827923D01*
X133167074Y-65704524D01*
X133167521Y-65570261D01*
X133167877Y-65426424D01*
X133168136Y-65274299D01*
X133168290Y-65115174D01*
X133168334Y-64972152D01*
X133168334Y-63672166D01*
X133750417Y-63672166D01*
X133750417Y-63270000D01*
X133170796Y-63270000D01*
X133165693Y-62918104D01*
X133164227Y-62821601D01*
X133162789Y-62743472D01*
X133161182Y-62680925D01*
X133159206Y-62631168D01*
X133156663Y-62591410D01*
X133153355Y-62558859D01*
X133149084Y-62530723D01*
X133143650Y-62504210D01*
X133136855Y-62476529D01*
X133133351Y-62463140D01*
X133091162Y-62340232D01*
X133033186Y-62231253D01*
X132959326Y-62136118D01*
X132869483Y-62054738D01*
X132763560Y-61987026D01*
X132641457Y-61932896D01*
X132503077Y-61892260D01*
X132484531Y-61888104D01*
X132390311Y-61873837D01*
X132282447Y-61867960D01*
X132166619Y-61870218D01*
G36*
X134374834Y-66286250D02*
X134946334Y-66286250D01*
X134946334Y-61957666D01*
X134374834Y-61957666D01*
X134374834Y-66286250D01*
X134374834Y-66286250D01*
G37*
X134374834Y-66286250D02*
X134946334Y-66286250D01*
X134946334Y-61957666D01*
X134374834Y-61957666D01*
X134374834Y-66286250D01*
G36*
X141424004Y-61957815D02*
X141273104Y-61958254D01*
X141135366Y-61958970D01*
X141011899Y-61959949D01*
X140903811Y-61961179D01*
X140812212Y-61962646D01*
X140738208Y-61964337D01*
X140682911Y-61966239D01*
X140647426Y-61968340D01*
X140642396Y-61968826D01*
X140431016Y-62000810D01*
X140232186Y-62049397D01*
X140046165Y-62114418D01*
X139873214Y-62195706D01*
X139713593Y-62293092D01*
X139567561Y-62406408D01*
X139435380Y-62535486D01*
X139317308Y-62680158D01*
X139213607Y-62840257D01*
X139170190Y-62920229D01*
X139083951Y-63110899D01*
X139014129Y-63312692D01*
X138960787Y-63523291D01*
X138923986Y-63740381D01*
X138903790Y-63961647D01*
X138900261Y-64184773D01*
X138913463Y-64407443D01*
X138943457Y-64627342D01*
X138990306Y-64842155D01*
X139054074Y-65049565D01*
X139108775Y-65189024D01*
X139196262Y-65367991D01*
X139297939Y-65531255D01*
X139413723Y-65678749D01*
X139543532Y-65810401D01*
X139687284Y-65926142D01*
X139844897Y-66025902D01*
X140016289Y-66109612D01*
X140201377Y-66177202D01*
X140305878Y-66206689D01*
X140354402Y-66218945D01*
X140399055Y-66229737D01*
X140441490Y-66239166D01*
X140483360Y-66247332D01*
X140526319Y-66254337D01*
X140572020Y-66260280D01*
X140622116Y-66265264D01*
X140678260Y-66269388D01*
X140742107Y-66272753D01*
X140815310Y-66275460D01*
X140899520Y-66277609D01*
X140996393Y-66279303D01*
X141107582Y-66280640D01*
X141234739Y-66281723D01*
X141379518Y-66282651D01*
X141543572Y-66283526D01*
X141568855Y-66283653D01*
X142428750Y-66287967D01*
X142428750Y-65758399D01*
X141825500Y-65758399D01*
X141251355Y-65754214D01*
X141125478Y-65753256D01*
X141018830Y-65752318D01*
X140929473Y-65751321D01*
X140855469Y-65750192D01*
X140794881Y-65748852D01*
X140745771Y-65747225D01*
X140706201Y-65745236D01*
X140674234Y-65742809D01*
X140647932Y-65739866D01*
X140625357Y-65736331D01*
X140604571Y-65732129D01*
X140587250Y-65728070D01*
X140423286Y-65679135D01*
X140274634Y-65615906D01*
X140140558Y-65537886D01*
X140020319Y-65444578D01*
X139913179Y-65335486D01*
X139818981Y-65210985D01*
X139733589Y-65065675D01*
X139663778Y-64909341D01*
X139609325Y-64741122D01*
X139570007Y-64560155D01*
X139545601Y-64365579D01*
X139535884Y-64156532D01*
X139535678Y-64116666D01*
X139539465Y-63952043D01*
X139550949Y-63802806D01*
X139570776Y-63664385D01*
X139599596Y-63532206D01*
X139636113Y-63407583D01*
X139699680Y-63243380D01*
X139777613Y-63093370D01*
X139869268Y-62958202D01*
X139974003Y-62838525D01*
X140091175Y-62734988D01*
X140220141Y-62648239D01*
X140360260Y-62578929D01*
X140505905Y-62529060D01*
X140549509Y-62517617D01*
X140591470Y-62507937D01*
X140633986Y-62499876D01*
X140679258Y-62493290D01*
X140729486Y-62488033D01*
X140786870Y-62483962D01*
X140853609Y-62480932D01*
X140931904Y-62478799D01*
X141023954Y-62477419D01*
X141131960Y-62476646D01*
X141258121Y-62476338D01*
X141309563Y-62476312D01*
X141825500Y-62476250D01*
X141825500Y-65758399D01*
X142428750Y-65758399D01*
X142428750Y-61957666D01*
X141586958Y-61957666D01*
X141424004Y-61957815D01*
X141424004Y-61957815D01*
G37*
X141424004Y-61957815D02*
X141273104Y-61958254D01*
X141135366Y-61958970D01*
X141011899Y-61959949D01*
X140903811Y-61961179D01*
X140812212Y-61962646D01*
X140738208Y-61964337D01*
X140682911Y-61966239D01*
X140647426Y-61968340D01*
X140642396Y-61968826D01*
X140431016Y-62000810D01*
X140232186Y-62049397D01*
X140046165Y-62114418D01*
X139873214Y-62195706D01*
X139713593Y-62293092D01*
X139567561Y-62406408D01*
X139435380Y-62535486D01*
X139317308Y-62680158D01*
X139213607Y-62840257D01*
X139170190Y-62920229D01*
X139083951Y-63110899D01*
X139014129Y-63312692D01*
X138960787Y-63523291D01*
X138923986Y-63740381D01*
X138903790Y-63961647D01*
X138900261Y-64184773D01*
X138913463Y-64407443D01*
X138943457Y-64627342D01*
X138990306Y-64842155D01*
X139054074Y-65049565D01*
X139108775Y-65189024D01*
X139196262Y-65367991D01*
X139297939Y-65531255D01*
X139413723Y-65678749D01*
X139543532Y-65810401D01*
X139687284Y-65926142D01*
X139844897Y-66025902D01*
X140016289Y-66109612D01*
X140201377Y-66177202D01*
X140305878Y-66206689D01*
X140354402Y-66218945D01*
X140399055Y-66229737D01*
X140441490Y-66239166D01*
X140483360Y-66247332D01*
X140526319Y-66254337D01*
X140572020Y-66260280D01*
X140622116Y-66265264D01*
X140678260Y-66269388D01*
X140742107Y-66272753D01*
X140815310Y-66275460D01*
X140899520Y-66277609D01*
X140996393Y-66279303D01*
X141107582Y-66280640D01*
X141234739Y-66281723D01*
X141379518Y-66282651D01*
X141543572Y-66283526D01*
X141568855Y-66283653D01*
X142428750Y-66287967D01*
X142428750Y-65758399D01*
X141825500Y-65758399D01*
X141251355Y-65754214D01*
X141125478Y-65753256D01*
X141018830Y-65752318D01*
X140929473Y-65751321D01*
X140855469Y-65750192D01*
X140794881Y-65748852D01*
X140745771Y-65747225D01*
X140706201Y-65745236D01*
X140674234Y-65742809D01*
X140647932Y-65739866D01*
X140625357Y-65736331D01*
X140604571Y-65732129D01*
X140587250Y-65728070D01*
X140423286Y-65679135D01*
X140274634Y-65615906D01*
X140140558Y-65537886D01*
X140020319Y-65444578D01*
X139913179Y-65335486D01*
X139818981Y-65210985D01*
X139733589Y-65065675D01*
X139663778Y-64909341D01*
X139609325Y-64741122D01*
X139570007Y-64560155D01*
X139545601Y-64365579D01*
X139535884Y-64156532D01*
X139535678Y-64116666D01*
X139539465Y-63952043D01*
X139550949Y-63802806D01*
X139570776Y-63664385D01*
X139599596Y-63532206D01*
X139636113Y-63407583D01*
X139699680Y-63243380D01*
X139777613Y-63093370D01*
X139869268Y-62958202D01*
X139974003Y-62838525D01*
X140091175Y-62734988D01*
X140220141Y-62648239D01*
X140360260Y-62578929D01*
X140505905Y-62529060D01*
X140549509Y-62517617D01*
X140591470Y-62507937D01*
X140633986Y-62499876D01*
X140679258Y-62493290D01*
X140729486Y-62488033D01*
X140786870Y-62483962D01*
X140853609Y-62480932D01*
X140931904Y-62478799D01*
X141023954Y-62477419D01*
X141131960Y-62476646D01*
X141258121Y-62476338D01*
X141309563Y-62476312D01*
X141825500Y-62476250D01*
X141825500Y-65758399D01*
X142428750Y-65758399D01*
X142428750Y-61957666D01*
X141586958Y-61957666D01*
X141424004Y-61957815D01*
G36*
X148313084Y-62793750D02*
X149657167Y-62793750D01*
X149657167Y-66286250D01*
X150853084Y-66286250D01*
X150853084Y-62793750D01*
X152197167Y-62793750D01*
X152197167Y-61957666D01*
X148313084Y-61957666D01*
X148313084Y-62793750D01*
X148313084Y-62793750D01*
G37*
X148313084Y-62793750D02*
X149657167Y-62793750D01*
X149657167Y-66286250D01*
X150853084Y-66286250D01*
X150853084Y-62793750D01*
X152197167Y-62793750D01*
X152197167Y-61957666D01*
X148313084Y-61957666D01*
X148313084Y-62793750D01*
G36*
X130486599Y-62465285D02*
X130484904Y-62494371D01*
X130483397Y-62540056D01*
X130482124Y-62600057D01*
X130481132Y-62672090D01*
X130480468Y-62753872D01*
X130480177Y-62843120D01*
X130480167Y-62862541D01*
X130480167Y-63270000D01*
X129792250Y-63270000D01*
X129792250Y-63672166D01*
X130480167Y-63672166D01*
X130480064Y-64685520D01*
X130479960Y-65698875D01*
X130455282Y-65751868D01*
X130415714Y-65812772D01*
X130359736Y-65863845D01*
X130301340Y-65897176D01*
X130254988Y-65911118D01*
X130192940Y-65920261D01*
X130120116Y-65924593D01*
X130041439Y-65924102D01*
X129961831Y-65918776D01*
X129886211Y-65908602D01*
X129837230Y-65898326D01*
X129813417Y-65892372D01*
X129813417Y-66115769D01*
X129813775Y-66181959D01*
X129814775Y-66240368D01*
X129816309Y-66287910D01*
X129818265Y-66321500D01*
X129820536Y-66338052D01*
X129821355Y-66339251D01*
X129834391Y-66340526D01*
X129864034Y-66343935D01*
X129905889Y-66348961D01*
X129955563Y-66355085D01*
X129955890Y-66355126D01*
X130040755Y-66363052D01*
X130137455Y-66367722D01*
X130238442Y-66369079D01*
X130336171Y-66367061D01*
X130423094Y-66361610D01*
X130448417Y-66359013D01*
X130568004Y-66339164D01*
X130677184Y-66308887D01*
X130773380Y-66269200D01*
X130854019Y-66221121D01*
X130903803Y-66179105D01*
X130950692Y-66124480D01*
X130987951Y-66062379D01*
X131018444Y-65987490D01*
X131033452Y-65938631D01*
X131037114Y-65925260D01*
X131040365Y-65911917D01*
X131043233Y-65897307D01*
X131045749Y-65880138D01*
X131047942Y-65859116D01*
X131049839Y-65832948D01*
X131051470Y-65800341D01*
X131052864Y-65760001D01*
X131054050Y-65710636D01*
X131055057Y-65650952D01*
X131055914Y-65579655D01*
X131056651Y-65495453D01*
X131057295Y-65397052D01*
X131057876Y-65283159D01*
X131058423Y-65152481D01*
X131058965Y-65003725D01*
X131059531Y-64835597D01*
X131059763Y-64764895D01*
X131063341Y-63672166D01*
X131570250Y-63672166D01*
X131570250Y-63270000D01*
X131062561Y-63270000D01*
X131056959Y-62630830D01*
X130776832Y-62542957D01*
X130703479Y-62520036D01*
X130636707Y-62499344D01*
X130579183Y-62481694D01*
X130533574Y-62467897D01*
X130502546Y-62458767D01*
X130488766Y-62455115D01*
X130488436Y-62455083D01*
X130486599Y-62465285D01*
X130486599Y-62465285D01*
G37*
X130486599Y-62465285D02*
X130484904Y-62494371D01*
X130483397Y-62540056D01*
X130482124Y-62600057D01*
X130481132Y-62672090D01*
X130480468Y-62753872D01*
X130480177Y-62843120D01*
X130480167Y-62862541D01*
X130480167Y-63270000D01*
X129792250Y-63270000D01*
X129792250Y-63672166D01*
X130480167Y-63672166D01*
X130480064Y-64685520D01*
X130479960Y-65698875D01*
X130455282Y-65751868D01*
X130415714Y-65812772D01*
X130359736Y-65863845D01*
X130301340Y-65897176D01*
X130254988Y-65911118D01*
X130192940Y-65920261D01*
X130120116Y-65924593D01*
X130041439Y-65924102D01*
X129961831Y-65918776D01*
X129886211Y-65908602D01*
X129837230Y-65898326D01*
X129813417Y-65892372D01*
X129813417Y-66115769D01*
X129813775Y-66181959D01*
X129814775Y-66240368D01*
X129816309Y-66287910D01*
X129818265Y-66321500D01*
X129820536Y-66338052D01*
X129821355Y-66339251D01*
X129834391Y-66340526D01*
X129864034Y-66343935D01*
X129905889Y-66348961D01*
X129955563Y-66355085D01*
X129955890Y-66355126D01*
X130040755Y-66363052D01*
X130137455Y-66367722D01*
X130238442Y-66369079D01*
X130336171Y-66367061D01*
X130423094Y-66361610D01*
X130448417Y-66359013D01*
X130568004Y-66339164D01*
X130677184Y-66308887D01*
X130773380Y-66269200D01*
X130854019Y-66221121D01*
X130903803Y-66179105D01*
X130950692Y-66124480D01*
X130987951Y-66062379D01*
X131018444Y-65987490D01*
X131033452Y-65938631D01*
X131037114Y-65925260D01*
X131040365Y-65911917D01*
X131043233Y-65897307D01*
X131045749Y-65880138D01*
X131047942Y-65859116D01*
X131049839Y-65832948D01*
X131051470Y-65800341D01*
X131052864Y-65760001D01*
X131054050Y-65710636D01*
X131055057Y-65650952D01*
X131055914Y-65579655D01*
X131056651Y-65495453D01*
X131057295Y-65397052D01*
X131057876Y-65283159D01*
X131058423Y-65152481D01*
X131058965Y-65003725D01*
X131059531Y-64835597D01*
X131059763Y-64764895D01*
X131063341Y-63672166D01*
X131570250Y-63672166D01*
X131570250Y-63270000D01*
X131062561Y-63270000D01*
X131056959Y-62630830D01*
X130776832Y-62542957D01*
X130703479Y-62520036D01*
X130636707Y-62499344D01*
X130579183Y-62481694D01*
X130533574Y-62467897D01*
X130502546Y-62458767D01*
X130488766Y-62455115D01*
X130488436Y-62455083D01*
X130486599Y-62465285D01*
G36*
X136904436Y-63187660D02*
X136818274Y-63190738D01*
X136738994Y-63196176D01*
X136671828Y-63203882D01*
X136634375Y-63210679D01*
X136483749Y-63252019D01*
X136348625Y-63305075D01*
X136225899Y-63371472D01*
X136112467Y-63452833D01*
X136028554Y-63527623D01*
X135925108Y-63642576D01*
X135836729Y-63772102D01*
X135763345Y-63916346D01*
X135704881Y-64075453D01*
X135661266Y-64249569D01*
X135659304Y-64259541D01*
X135652137Y-64310178D01*
X135646201Y-64381868D01*
X135641495Y-64474634D01*
X135638018Y-64588503D01*
X135637411Y-64616729D01*
X135631943Y-64889250D01*
X137772084Y-64889250D01*
X137772048Y-64918354D01*
X137771086Y-64940454D01*
X137768509Y-64978044D01*
X137764727Y-65025541D01*
X137760907Y-65069166D01*
X137738941Y-65233325D01*
X137704561Y-65381238D01*
X137657909Y-65512686D01*
X137599126Y-65627451D01*
X137528353Y-65725316D01*
X137445733Y-65806062D01*
X137351405Y-65869471D01*
X137245512Y-65915325D01*
X137204804Y-65927435D01*
X137138100Y-65940123D01*
X137057559Y-65947679D01*
X136969896Y-65950030D01*
X136881828Y-65947104D01*
X136800069Y-65938829D01*
X136761375Y-65932205D01*
X136651006Y-65900464D01*
X136554411Y-65852726D01*
X136471521Y-65788918D01*
X136402265Y-65708969D01*
X136346573Y-65612806D01*
X136304375Y-65500357D01*
X136290002Y-65445425D01*
X136266641Y-65344333D01*
X135665041Y-65344333D01*
X135671857Y-65384020D01*
X135708665Y-65543636D01*
X135761839Y-65689910D01*
X135831145Y-65822630D01*
X135916349Y-65941588D01*
X136017215Y-66046570D01*
X136133509Y-66137367D01*
X136264996Y-66213768D01*
X136411442Y-66275562D01*
X136572611Y-66322538D01*
X136748270Y-66354484D01*
X136752503Y-66355044D01*
X136813463Y-66361151D01*
X136887040Y-66365622D01*
X136966798Y-66368332D01*
X137046301Y-66369156D01*
X137119114Y-66367968D01*
X137178801Y-66364643D01*
X137190000Y-66363562D01*
X137343128Y-66338790D01*
X137491503Y-66298431D01*
X137630986Y-66243903D01*
X137757436Y-66176625D01*
X137782650Y-66160546D01*
X137831581Y-66124308D01*
X137887499Y-66076555D01*
X137944675Y-66022696D01*
X137997384Y-65968139D01*
X138039896Y-65918293D01*
X138041796Y-65915833D01*
X138129135Y-65784920D01*
X138202162Y-65638511D01*
X138260833Y-65476743D01*
X138305110Y-65299749D01*
X138334949Y-65107667D01*
X138350311Y-64900630D01*
X138350341Y-64899833D01*
X138350168Y-64696612D01*
X138334374Y-64502209D01*
X138331837Y-64487083D01*
X137758900Y-64487083D01*
X136237500Y-64487083D01*
X136237710Y-64420937D01*
X136247925Y-64278841D01*
X136276930Y-64139108D01*
X136323608Y-64006615D01*
X136341140Y-63968500D01*
X136400216Y-63868862D01*
X136472532Y-63784157D01*
X136556620Y-63715911D01*
X136618500Y-63680306D01*
X136725084Y-63638190D01*
X136839460Y-63611408D01*
X136957301Y-63600088D01*
X137074282Y-63604356D01*
X137186077Y-63624337D01*
X137288359Y-63660158D01*
X137289601Y-63660726D01*
X137395706Y-63720745D01*
X137489077Y-63797318D01*
X137569336Y-63889812D01*
X137636101Y-63997594D01*
X137688995Y-64120031D01*
X137727638Y-64256490D01*
X137751651Y-64406338D01*
X137754575Y-64436812D01*
X137758900Y-64487083D01*
X138331837Y-64487083D01*
X138303399Y-64317560D01*
X138257684Y-64143601D01*
X138197669Y-63981267D01*
X138123794Y-63831493D01*
X138036501Y-63695216D01*
X137936229Y-63573371D01*
X137823419Y-63466893D01*
X137698511Y-63376718D01*
X137609737Y-63326628D01*
X137527863Y-63290119D01*
X137432892Y-63255923D01*
X137332892Y-63226602D01*
X137235931Y-63204717D01*
X137213255Y-63200731D01*
X137151889Y-63193476D01*
X137076476Y-63188938D01*
X136992247Y-63187030D01*
X136904436Y-63187660D01*
X136904436Y-63187660D01*
G37*
X136904436Y-63187660D02*
X136818274Y-63190738D01*
X136738994Y-63196176D01*
X136671828Y-63203882D01*
X136634375Y-63210679D01*
X136483749Y-63252019D01*
X136348625Y-63305075D01*
X136225899Y-63371472D01*
X136112467Y-63452833D01*
X136028554Y-63527623D01*
X135925108Y-63642576D01*
X135836729Y-63772102D01*
X135763345Y-63916346D01*
X135704881Y-64075453D01*
X135661266Y-64249569D01*
X135659304Y-64259541D01*
X135652137Y-64310178D01*
X135646201Y-64381868D01*
X135641495Y-64474634D01*
X135638018Y-64588503D01*
X135637411Y-64616729D01*
X135631943Y-64889250D01*
X137772084Y-64889250D01*
X137772048Y-64918354D01*
X137771086Y-64940454D01*
X137768509Y-64978044D01*
X137764727Y-65025541D01*
X137760907Y-65069166D01*
X137738941Y-65233325D01*
X137704561Y-65381238D01*
X137657909Y-65512686D01*
X137599126Y-65627451D01*
X137528353Y-65725316D01*
X137445733Y-65806062D01*
X137351405Y-65869471D01*
X137245512Y-65915325D01*
X137204804Y-65927435D01*
X137138100Y-65940123D01*
X137057559Y-65947679D01*
X136969896Y-65950030D01*
X136881828Y-65947104D01*
X136800069Y-65938829D01*
X136761375Y-65932205D01*
X136651006Y-65900464D01*
X136554411Y-65852726D01*
X136471521Y-65788918D01*
X136402265Y-65708969D01*
X136346573Y-65612806D01*
X136304375Y-65500357D01*
X136290002Y-65445425D01*
X136266641Y-65344333D01*
X135665041Y-65344333D01*
X135671857Y-65384020D01*
X135708665Y-65543636D01*
X135761839Y-65689910D01*
X135831145Y-65822630D01*
X135916349Y-65941588D01*
X136017215Y-66046570D01*
X136133509Y-66137367D01*
X136264996Y-66213768D01*
X136411442Y-66275562D01*
X136572611Y-66322538D01*
X136748270Y-66354484D01*
X136752503Y-66355044D01*
X136813463Y-66361151D01*
X136887040Y-66365622D01*
X136966798Y-66368332D01*
X137046301Y-66369156D01*
X137119114Y-66367968D01*
X137178801Y-66364643D01*
X137190000Y-66363562D01*
X137343128Y-66338790D01*
X137491503Y-66298431D01*
X137630986Y-66243903D01*
X137757436Y-66176625D01*
X137782650Y-66160546D01*
X137831581Y-66124308D01*
X137887499Y-66076555D01*
X137944675Y-66022696D01*
X137997384Y-65968139D01*
X138039896Y-65918293D01*
X138041796Y-65915833D01*
X138129135Y-65784920D01*
X138202162Y-65638511D01*
X138260833Y-65476743D01*
X138305110Y-65299749D01*
X138334949Y-65107667D01*
X138350311Y-64900630D01*
X138350341Y-64899833D01*
X138350168Y-64696612D01*
X138334374Y-64502209D01*
X138331837Y-64487083D01*
X137758900Y-64487083D01*
X136237500Y-64487083D01*
X136237710Y-64420937D01*
X136247925Y-64278841D01*
X136276930Y-64139108D01*
X136323608Y-64006615D01*
X136341140Y-63968500D01*
X136400216Y-63868862D01*
X136472532Y-63784157D01*
X136556620Y-63715911D01*
X136618500Y-63680306D01*
X136725084Y-63638190D01*
X136839460Y-63611408D01*
X136957301Y-63600088D01*
X137074282Y-63604356D01*
X137186077Y-63624337D01*
X137288359Y-63660158D01*
X137289601Y-63660726D01*
X137395706Y-63720745D01*
X137489077Y-63797318D01*
X137569336Y-63889812D01*
X137636101Y-63997594D01*
X137688995Y-64120031D01*
X137727638Y-64256490D01*
X137751651Y-64406338D01*
X137754575Y-64436812D01*
X137758900Y-64487083D01*
X138331837Y-64487083D01*
X138303399Y-64317560D01*
X138257684Y-64143601D01*
X138197669Y-63981267D01*
X138123794Y-63831493D01*
X138036501Y-63695216D01*
X137936229Y-63573371D01*
X137823419Y-63466893D01*
X137698511Y-63376718D01*
X137609737Y-63326628D01*
X137527863Y-63290119D01*
X137432892Y-63255923D01*
X137332892Y-63226602D01*
X137235931Y-63204717D01*
X137213255Y-63200731D01*
X137151889Y-63193476D01*
X137076476Y-63188938D01*
X136992247Y-63187030D01*
X136904436Y-63187660D01*
G36*
X146553826Y-63383770D02*
X146550747Y-64809875D01*
X146522466Y-64912638D01*
X146477062Y-65043322D01*
X146416944Y-65159631D01*
X146342580Y-65260985D01*
X146254441Y-65346802D01*
X146152997Y-65416501D01*
X146088958Y-65448994D01*
X146020514Y-65476608D01*
X145953048Y-65496531D01*
X145880480Y-65510016D01*
X145796733Y-65518316D01*
X145738194Y-65521345D01*
X145634135Y-65522673D01*
X145544393Y-65517386D01*
X145462946Y-65504723D01*
X145383768Y-65483921D01*
X145348060Y-65471981D01*
X145258214Y-65434735D01*
X145180050Y-65389351D01*
X145106324Y-65331211D01*
X145063555Y-65290639D01*
X144984295Y-65197088D01*
X144920957Y-65090663D01*
X144873272Y-64970764D01*
X144840971Y-64836793D01*
X144831548Y-64773110D01*
X144829774Y-64747497D01*
X144828146Y-64701142D01*
X144826667Y-64634471D01*
X144825341Y-64547909D01*
X144824171Y-64441879D01*
X144823160Y-64316809D01*
X144822311Y-64173121D01*
X144821627Y-64011241D01*
X144821112Y-63831595D01*
X144820769Y-63634607D01*
X144820601Y-63420701D01*
X144820584Y-63320548D01*
X144820584Y-61957666D01*
X143624667Y-61957666D01*
X143624861Y-63399645D01*
X143624892Y-63610627D01*
X143624951Y-63801593D01*
X143625075Y-63973691D01*
X143625301Y-64128072D01*
X143625668Y-64265886D01*
X143626213Y-64388282D01*
X143626973Y-64496410D01*
X143627986Y-64591421D01*
X143629289Y-64674463D01*
X143630920Y-64746687D01*
X143632916Y-64809242D01*
X143635316Y-64863279D01*
X143638156Y-64909947D01*
X143641473Y-64950395D01*
X143645307Y-64985775D01*
X143649694Y-65017235D01*
X143654671Y-65045926D01*
X143660276Y-65072996D01*
X143666547Y-65099597D01*
X143673521Y-65126878D01*
X143681236Y-65155988D01*
X143682324Y-65160071D01*
X143737774Y-65329559D01*
X143810597Y-65487141D01*
X143900530Y-65632619D01*
X144007312Y-65765797D01*
X144130683Y-65886480D01*
X144270382Y-65994470D01*
X144426147Y-66089570D01*
X144597719Y-66171585D01*
X144784835Y-66240318D01*
X144987235Y-66295572D01*
X145204658Y-66337150D01*
X145254988Y-66344513D01*
X145298392Y-66349146D01*
X145357753Y-66353528D01*
X145429025Y-66357539D01*
X145508163Y-66361057D01*
X145591121Y-66363961D01*
X145673851Y-66366130D01*
X145752309Y-66367444D01*
X145822449Y-66367780D01*
X145880223Y-66367020D01*
X145921587Y-66365040D01*
X145926542Y-66364589D01*
X146020469Y-66354820D01*
X146098331Y-66345871D01*
X146165177Y-66337053D01*
X146226055Y-66327680D01*
X146286014Y-66317063D01*
X146312834Y-66311931D01*
X146518925Y-66263240D01*
X146710431Y-66200515D01*
X146886994Y-66124052D01*
X147048260Y-66034149D01*
X147193872Y-65931100D01*
X147323474Y-65815202D01*
X147436709Y-65686751D01*
X147533222Y-65546043D01*
X147612657Y-65393374D01*
X147674658Y-65229041D01*
X147693504Y-65163856D01*
X147701506Y-65133824D01*
X147708744Y-65106063D01*
X147715256Y-65079420D01*
X147721081Y-65052741D01*
X147726256Y-65024874D01*
X147730820Y-64994667D01*
X147734812Y-64960965D01*
X147738270Y-64922618D01*
X147741232Y-64878470D01*
X147743737Y-64827371D01*
X147745824Y-64768167D01*
X147747529Y-64699705D01*
X147748893Y-64620833D01*
X147749954Y-64530397D01*
X147750749Y-64427246D01*
X147751317Y-64310225D01*
X147751697Y-64178183D01*
X147751927Y-64029966D01*
X147752046Y-63864422D01*
X147752092Y-63680397D01*
X147752102Y-63476740D01*
X147752105Y-63404937D01*
X147752167Y-61957666D01*
X146556906Y-61957666D01*
X146553826Y-63383770D01*
X146553826Y-63383770D01*
G37*
X146553826Y-63383770D02*
X146550747Y-64809875D01*
X146522466Y-64912638D01*
X146477062Y-65043322D01*
X146416944Y-65159631D01*
X146342580Y-65260985D01*
X146254441Y-65346802D01*
X146152997Y-65416501D01*
X146088958Y-65448994D01*
X146020514Y-65476608D01*
X145953048Y-65496531D01*
X145880480Y-65510016D01*
X145796733Y-65518316D01*
X145738194Y-65521345D01*
X145634135Y-65522673D01*
X145544393Y-65517386D01*
X145462946Y-65504723D01*
X145383768Y-65483921D01*
X145348060Y-65471981D01*
X145258214Y-65434735D01*
X145180050Y-65389351D01*
X145106324Y-65331211D01*
X145063555Y-65290639D01*
X144984295Y-65197088D01*
X144920957Y-65090663D01*
X144873272Y-64970764D01*
X144840971Y-64836793D01*
X144831548Y-64773110D01*
X144829774Y-64747497D01*
X144828146Y-64701142D01*
X144826667Y-64634471D01*
X144825341Y-64547909D01*
X144824171Y-64441879D01*
X144823160Y-64316809D01*
X144822311Y-64173121D01*
X144821627Y-64011241D01*
X144821112Y-63831595D01*
X144820769Y-63634607D01*
X144820601Y-63420701D01*
X144820584Y-63320548D01*
X144820584Y-61957666D01*
X143624667Y-61957666D01*
X143624861Y-63399645D01*
X143624892Y-63610627D01*
X143624951Y-63801593D01*
X143625075Y-63973691D01*
X143625301Y-64128072D01*
X143625668Y-64265886D01*
X143626213Y-64388282D01*
X143626973Y-64496410D01*
X143627986Y-64591421D01*
X143629289Y-64674463D01*
X143630920Y-64746687D01*
X143632916Y-64809242D01*
X143635316Y-64863279D01*
X143638156Y-64909947D01*
X143641473Y-64950395D01*
X143645307Y-64985775D01*
X143649694Y-65017235D01*
X143654671Y-65045926D01*
X143660276Y-65072996D01*
X143666547Y-65099597D01*
X143673521Y-65126878D01*
X143681236Y-65155988D01*
X143682324Y-65160071D01*
X143737774Y-65329559D01*
X143810597Y-65487141D01*
X143900530Y-65632619D01*
X144007312Y-65765797D01*
X144130683Y-65886480D01*
X144270382Y-65994470D01*
X144426147Y-66089570D01*
X144597719Y-66171585D01*
X144784835Y-66240318D01*
X144987235Y-66295572D01*
X145204658Y-66337150D01*
X145254988Y-66344513D01*
X145298392Y-66349146D01*
X145357753Y-66353528D01*
X145429025Y-66357539D01*
X145508163Y-66361057D01*
X145591121Y-66363961D01*
X145673851Y-66366130D01*
X145752309Y-66367444D01*
X145822449Y-66367780D01*
X145880223Y-66367020D01*
X145921587Y-66365040D01*
X145926542Y-66364589D01*
X146020469Y-66354820D01*
X146098331Y-66345871D01*
X146165177Y-66337053D01*
X146226055Y-66327680D01*
X146286014Y-66317063D01*
X146312834Y-66311931D01*
X146518925Y-66263240D01*
X146710431Y-66200515D01*
X146886994Y-66124052D01*
X147048260Y-66034149D01*
X147193872Y-65931100D01*
X147323474Y-65815202D01*
X147436709Y-65686751D01*
X147533222Y-65546043D01*
X147612657Y-65393374D01*
X147674658Y-65229041D01*
X147693504Y-65163856D01*
X147701506Y-65133824D01*
X147708744Y-65106063D01*
X147715256Y-65079420D01*
X147721081Y-65052741D01*
X147726256Y-65024874D01*
X147730820Y-64994667D01*
X147734812Y-64960965D01*
X147738270Y-64922618D01*
X147741232Y-64878470D01*
X147743737Y-64827371D01*
X147745824Y-64768167D01*
X147747529Y-64699705D01*
X147748893Y-64620833D01*
X147749954Y-64530397D01*
X147750749Y-64427246D01*
X147751317Y-64310225D01*
X147751697Y-64178183D01*
X147751927Y-64029966D01*
X147752046Y-63864422D01*
X147752092Y-63680397D01*
X147752102Y-63476740D01*
X147752105Y-63404937D01*
X147752167Y-61957666D01*
X146556906Y-61957666D01*
X146553826Y-63383770D01*
G04 #@! TO.C,J00*
D13*
X115764523Y-158962380D02*
X115764523Y-159676666D01*
X115812142Y-159819523D01*
X115907380Y-159914761D01*
X116050238Y-159962380D01*
X116145476Y-159962380D01*
X115097857Y-158962380D02*
X115002619Y-158962380D01*
X114907380Y-159010000D01*
X114859761Y-159057619D01*
X114812142Y-159152857D01*
X114764523Y-159343333D01*
X114764523Y-159581428D01*
X114812142Y-159771904D01*
X114859761Y-159867142D01*
X114907380Y-159914761D01*
X115002619Y-159962380D01*
X115097857Y-159962380D01*
X115193095Y-159914761D01*
X115240714Y-159867142D01*
X115288333Y-159771904D01*
X115335952Y-159581428D01*
X115335952Y-159343333D01*
X115288333Y-159152857D01*
X115240714Y-159057619D01*
X115193095Y-159010000D01*
X115097857Y-158962380D01*
X114145476Y-158962380D02*
X114050238Y-158962380D01*
X113955000Y-159010000D01*
X113907380Y-159057619D01*
X113859761Y-159152857D01*
X113812142Y-159343333D01*
X113812142Y-159581428D01*
X113859761Y-159771904D01*
X113907380Y-159867142D01*
X113955000Y-159914761D01*
X114050238Y-159962380D01*
X114145476Y-159962380D01*
X114240714Y-159914761D01*
X114288333Y-159867142D01*
X114335952Y-159771904D01*
X114383571Y-159581428D01*
X114383571Y-159343333D01*
X114335952Y-159152857D01*
X114288333Y-159057619D01*
X114240714Y-159010000D01*
X114145476Y-158962380D01*
G04 #@! TO.C,C10*
X106642857Y-58357142D02*
X106690476Y-58404761D01*
X106833333Y-58452380D01*
X106928571Y-58452380D01*
X107071428Y-58404761D01*
X107166666Y-58309523D01*
X107214285Y-58214285D01*
X107261904Y-58023809D01*
X107261904Y-57880952D01*
X107214285Y-57690476D01*
X107166666Y-57595238D01*
X107071428Y-57500000D01*
X106928571Y-57452380D01*
X106833333Y-57452380D01*
X106690476Y-57500000D01*
X106642857Y-57547619D01*
X105690476Y-58452380D02*
X106261904Y-58452380D01*
X105976190Y-58452380D02*
X105976190Y-57452380D01*
X106071428Y-57595238D01*
X106166666Y-57690476D01*
X106261904Y-57738095D01*
X105071428Y-57452380D02*
X104976190Y-57452380D01*
X104880952Y-57500000D01*
X104833333Y-57547619D01*
X104785714Y-57642857D01*
X104738095Y-57833333D01*
X104738095Y-58071428D01*
X104785714Y-58261904D01*
X104833333Y-58357142D01*
X104880952Y-58404761D01*
X104976190Y-58452380D01*
X105071428Y-58452380D01*
X105166666Y-58404761D01*
X105214285Y-58357142D01*
X105261904Y-58261904D01*
X105309523Y-58071428D01*
X105309523Y-57833333D01*
X105261904Y-57642857D01*
X105214285Y-57547619D01*
X105166666Y-57500000D01*
X105071428Y-57452380D01*
G04 #@! TO.C,R10*
X106642857Y-56452380D02*
X106976190Y-55976190D01*
X107214285Y-56452380D02*
X107214285Y-55452380D01*
X106833333Y-55452380D01*
X106738095Y-55500000D01*
X106690476Y-55547619D01*
X106642857Y-55642857D01*
X106642857Y-55785714D01*
X106690476Y-55880952D01*
X106738095Y-55928571D01*
X106833333Y-55976190D01*
X107214285Y-55976190D01*
X105690476Y-56452380D02*
X106261904Y-56452380D01*
X105976190Y-56452380D02*
X105976190Y-55452380D01*
X106071428Y-55595238D01*
X106166666Y-55690476D01*
X106261904Y-55738095D01*
X105071428Y-55452380D02*
X104976190Y-55452380D01*
X104880952Y-55500000D01*
X104833333Y-55547619D01*
X104785714Y-55642857D01*
X104738095Y-55833333D01*
X104738095Y-56071428D01*
X104785714Y-56261904D01*
X104833333Y-56357142D01*
X104880952Y-56404761D01*
X104976190Y-56452380D01*
X105071428Y-56452380D01*
X105166666Y-56404761D01*
X105214285Y-56357142D01*
X105261904Y-56261904D01*
X105309523Y-56071428D01*
X105309523Y-55833333D01*
X105261904Y-55642857D01*
X105214285Y-55547619D01*
X105166666Y-55500000D01*
X105071428Y-55452380D01*
G04 #@! TO.C,R11*
X106642857Y-60452380D02*
X106976190Y-59976190D01*
X107214285Y-60452380D02*
X107214285Y-59452380D01*
X106833333Y-59452380D01*
X106738095Y-59500000D01*
X106690476Y-59547619D01*
X106642857Y-59642857D01*
X106642857Y-59785714D01*
X106690476Y-59880952D01*
X106738095Y-59928571D01*
X106833333Y-59976190D01*
X107214285Y-59976190D01*
X105690476Y-60452380D02*
X106261904Y-60452380D01*
X105976190Y-60452380D02*
X105976190Y-59452380D01*
X106071428Y-59595238D01*
X106166666Y-59690476D01*
X106261904Y-59738095D01*
X104738095Y-60452380D02*
X105309523Y-60452380D01*
X105023809Y-60452380D02*
X105023809Y-59452380D01*
X105119047Y-59595238D01*
X105214285Y-59690476D01*
X105309523Y-59738095D01*
G04 #@! TO.C,C20*
X106642857Y-74357142D02*
X106690476Y-74404761D01*
X106833333Y-74452380D01*
X106928571Y-74452380D01*
X107071428Y-74404761D01*
X107166666Y-74309523D01*
X107214285Y-74214285D01*
X107261904Y-74023809D01*
X107261904Y-73880952D01*
X107214285Y-73690476D01*
X107166666Y-73595238D01*
X107071428Y-73500000D01*
X106928571Y-73452380D01*
X106833333Y-73452380D01*
X106690476Y-73500000D01*
X106642857Y-73547619D01*
X106261904Y-73547619D02*
X106214285Y-73500000D01*
X106119047Y-73452380D01*
X105880952Y-73452380D01*
X105785714Y-73500000D01*
X105738095Y-73547619D01*
X105690476Y-73642857D01*
X105690476Y-73738095D01*
X105738095Y-73880952D01*
X106309523Y-74452380D01*
X105690476Y-74452380D01*
X105071428Y-73452380D02*
X104976190Y-73452380D01*
X104880952Y-73500000D01*
X104833333Y-73547619D01*
X104785714Y-73642857D01*
X104738095Y-73833333D01*
X104738095Y-74071428D01*
X104785714Y-74261904D01*
X104833333Y-74357142D01*
X104880952Y-74404761D01*
X104976190Y-74452380D01*
X105071428Y-74452380D01*
X105166666Y-74404761D01*
X105214285Y-74357142D01*
X105261904Y-74261904D01*
X105309523Y-74071428D01*
X105309523Y-73833333D01*
X105261904Y-73642857D01*
X105214285Y-73547619D01*
X105166666Y-73500000D01*
X105071428Y-73452380D01*
G04 #@! TO.C,C30*
X106642857Y-90357142D02*
X106690476Y-90404761D01*
X106833333Y-90452380D01*
X106928571Y-90452380D01*
X107071428Y-90404761D01*
X107166666Y-90309523D01*
X107214285Y-90214285D01*
X107261904Y-90023809D01*
X107261904Y-89880952D01*
X107214285Y-89690476D01*
X107166666Y-89595238D01*
X107071428Y-89500000D01*
X106928571Y-89452380D01*
X106833333Y-89452380D01*
X106690476Y-89500000D01*
X106642857Y-89547619D01*
X106309523Y-89452380D02*
X105690476Y-89452380D01*
X106023809Y-89833333D01*
X105880952Y-89833333D01*
X105785714Y-89880952D01*
X105738095Y-89928571D01*
X105690476Y-90023809D01*
X105690476Y-90261904D01*
X105738095Y-90357142D01*
X105785714Y-90404761D01*
X105880952Y-90452380D01*
X106166666Y-90452380D01*
X106261904Y-90404761D01*
X106309523Y-90357142D01*
X105071428Y-89452380D02*
X104976190Y-89452380D01*
X104880952Y-89500000D01*
X104833333Y-89547619D01*
X104785714Y-89642857D01*
X104738095Y-89833333D01*
X104738095Y-90071428D01*
X104785714Y-90261904D01*
X104833333Y-90357142D01*
X104880952Y-90404761D01*
X104976190Y-90452380D01*
X105071428Y-90452380D01*
X105166666Y-90404761D01*
X105214285Y-90357142D01*
X105261904Y-90261904D01*
X105309523Y-90071428D01*
X105309523Y-89833333D01*
X105261904Y-89642857D01*
X105214285Y-89547619D01*
X105166666Y-89500000D01*
X105071428Y-89452380D01*
G04 #@! TO.C,C40*
X106642857Y-106357142D02*
X106690476Y-106404761D01*
X106833333Y-106452380D01*
X106928571Y-106452380D01*
X107071428Y-106404761D01*
X107166666Y-106309523D01*
X107214285Y-106214285D01*
X107261904Y-106023809D01*
X107261904Y-105880952D01*
X107214285Y-105690476D01*
X107166666Y-105595238D01*
X107071428Y-105500000D01*
X106928571Y-105452380D01*
X106833333Y-105452380D01*
X106690476Y-105500000D01*
X106642857Y-105547619D01*
X105785714Y-105785714D02*
X105785714Y-106452380D01*
X106023809Y-105404761D02*
X106261904Y-106119047D01*
X105642857Y-106119047D01*
X105071428Y-105452380D02*
X104976190Y-105452380D01*
X104880952Y-105500000D01*
X104833333Y-105547619D01*
X104785714Y-105642857D01*
X104738095Y-105833333D01*
X104738095Y-106071428D01*
X104785714Y-106261904D01*
X104833333Y-106357142D01*
X104880952Y-106404761D01*
X104976190Y-106452380D01*
X105071428Y-106452380D01*
X105166666Y-106404761D01*
X105214285Y-106357142D01*
X105261904Y-106261904D01*
X105309523Y-106071428D01*
X105309523Y-105833333D01*
X105261904Y-105642857D01*
X105214285Y-105547619D01*
X105166666Y-105500000D01*
X105071428Y-105452380D01*
G04 #@! TO.C,C50*
X106642857Y-122357142D02*
X106690476Y-122404761D01*
X106833333Y-122452380D01*
X106928571Y-122452380D01*
X107071428Y-122404761D01*
X107166666Y-122309523D01*
X107214285Y-122214285D01*
X107261904Y-122023809D01*
X107261904Y-121880952D01*
X107214285Y-121690476D01*
X107166666Y-121595238D01*
X107071428Y-121500000D01*
X106928571Y-121452380D01*
X106833333Y-121452380D01*
X106690476Y-121500000D01*
X106642857Y-121547619D01*
X105738095Y-121452380D02*
X106214285Y-121452380D01*
X106261904Y-121928571D01*
X106214285Y-121880952D01*
X106119047Y-121833333D01*
X105880952Y-121833333D01*
X105785714Y-121880952D01*
X105738095Y-121928571D01*
X105690476Y-122023809D01*
X105690476Y-122261904D01*
X105738095Y-122357142D01*
X105785714Y-122404761D01*
X105880952Y-122452380D01*
X106119047Y-122452380D01*
X106214285Y-122404761D01*
X106261904Y-122357142D01*
X105071428Y-121452380D02*
X104976190Y-121452380D01*
X104880952Y-121500000D01*
X104833333Y-121547619D01*
X104785714Y-121642857D01*
X104738095Y-121833333D01*
X104738095Y-122071428D01*
X104785714Y-122261904D01*
X104833333Y-122357142D01*
X104880952Y-122404761D01*
X104976190Y-122452380D01*
X105071428Y-122452380D01*
X105166666Y-122404761D01*
X105214285Y-122357142D01*
X105261904Y-122261904D01*
X105309523Y-122071428D01*
X105309523Y-121833333D01*
X105261904Y-121642857D01*
X105214285Y-121547619D01*
X105166666Y-121500000D01*
X105071428Y-121452380D01*
G04 #@! TO.C,C60*
X106642857Y-138357142D02*
X106690476Y-138404761D01*
X106833333Y-138452380D01*
X106928571Y-138452380D01*
X107071428Y-138404761D01*
X107166666Y-138309523D01*
X107214285Y-138214285D01*
X107261904Y-138023809D01*
X107261904Y-137880952D01*
X107214285Y-137690476D01*
X107166666Y-137595238D01*
X107071428Y-137500000D01*
X106928571Y-137452380D01*
X106833333Y-137452380D01*
X106690476Y-137500000D01*
X106642857Y-137547619D01*
X105785714Y-137452380D02*
X105976190Y-137452380D01*
X106071428Y-137500000D01*
X106119047Y-137547619D01*
X106214285Y-137690476D01*
X106261904Y-137880952D01*
X106261904Y-138261904D01*
X106214285Y-138357142D01*
X106166666Y-138404761D01*
X106071428Y-138452380D01*
X105880952Y-138452380D01*
X105785714Y-138404761D01*
X105738095Y-138357142D01*
X105690476Y-138261904D01*
X105690476Y-138023809D01*
X105738095Y-137928571D01*
X105785714Y-137880952D01*
X105880952Y-137833333D01*
X106071428Y-137833333D01*
X106166666Y-137880952D01*
X106214285Y-137928571D01*
X106261904Y-138023809D01*
X105071428Y-137452380D02*
X104976190Y-137452380D01*
X104880952Y-137500000D01*
X104833333Y-137547619D01*
X104785714Y-137642857D01*
X104738095Y-137833333D01*
X104738095Y-138071428D01*
X104785714Y-138261904D01*
X104833333Y-138357142D01*
X104880952Y-138404761D01*
X104976190Y-138452380D01*
X105071428Y-138452380D01*
X105166666Y-138404761D01*
X105214285Y-138357142D01*
X105261904Y-138261904D01*
X105309523Y-138071428D01*
X105309523Y-137833333D01*
X105261904Y-137642857D01*
X105214285Y-137547619D01*
X105166666Y-137500000D01*
X105071428Y-137452380D01*
G04 #@! TO.C,C70*
X106642857Y-154357142D02*
X106690476Y-154404761D01*
X106833333Y-154452380D01*
X106928571Y-154452380D01*
X107071428Y-154404761D01*
X107166666Y-154309523D01*
X107214285Y-154214285D01*
X107261904Y-154023809D01*
X107261904Y-153880952D01*
X107214285Y-153690476D01*
X107166666Y-153595238D01*
X107071428Y-153500000D01*
X106928571Y-153452380D01*
X106833333Y-153452380D01*
X106690476Y-153500000D01*
X106642857Y-153547619D01*
X106309523Y-153452380D02*
X105642857Y-153452380D01*
X106071428Y-154452380D01*
X105071428Y-153452380D02*
X104976190Y-153452380D01*
X104880952Y-153500000D01*
X104833333Y-153547619D01*
X104785714Y-153642857D01*
X104738095Y-153833333D01*
X104738095Y-154071428D01*
X104785714Y-154261904D01*
X104833333Y-154357142D01*
X104880952Y-154404761D01*
X104976190Y-154452380D01*
X105071428Y-154452380D01*
X105166666Y-154404761D01*
X105214285Y-154357142D01*
X105261904Y-154261904D01*
X105309523Y-154071428D01*
X105309523Y-153833333D01*
X105261904Y-153642857D01*
X105214285Y-153547619D01*
X105166666Y-153500000D01*
X105071428Y-153452380D01*
G04 #@! TO.C,R20*
X106642857Y-72452380D02*
X106976190Y-71976190D01*
X107214285Y-72452380D02*
X107214285Y-71452380D01*
X106833333Y-71452380D01*
X106738095Y-71500000D01*
X106690476Y-71547619D01*
X106642857Y-71642857D01*
X106642857Y-71785714D01*
X106690476Y-71880952D01*
X106738095Y-71928571D01*
X106833333Y-71976190D01*
X107214285Y-71976190D01*
X106261904Y-71547619D02*
X106214285Y-71500000D01*
X106119047Y-71452380D01*
X105880952Y-71452380D01*
X105785714Y-71500000D01*
X105738095Y-71547619D01*
X105690476Y-71642857D01*
X105690476Y-71738095D01*
X105738095Y-71880952D01*
X106309523Y-72452380D01*
X105690476Y-72452380D01*
X105071428Y-71452380D02*
X104976190Y-71452380D01*
X104880952Y-71500000D01*
X104833333Y-71547619D01*
X104785714Y-71642857D01*
X104738095Y-71833333D01*
X104738095Y-72071428D01*
X104785714Y-72261904D01*
X104833333Y-72357142D01*
X104880952Y-72404761D01*
X104976190Y-72452380D01*
X105071428Y-72452380D01*
X105166666Y-72404761D01*
X105214285Y-72357142D01*
X105261904Y-72261904D01*
X105309523Y-72071428D01*
X105309523Y-71833333D01*
X105261904Y-71642857D01*
X105214285Y-71547619D01*
X105166666Y-71500000D01*
X105071428Y-71452380D01*
G04 #@! TO.C,R21*
X106642857Y-76452380D02*
X106976190Y-75976190D01*
X107214285Y-76452380D02*
X107214285Y-75452380D01*
X106833333Y-75452380D01*
X106738095Y-75500000D01*
X106690476Y-75547619D01*
X106642857Y-75642857D01*
X106642857Y-75785714D01*
X106690476Y-75880952D01*
X106738095Y-75928571D01*
X106833333Y-75976190D01*
X107214285Y-75976190D01*
X106261904Y-75547619D02*
X106214285Y-75500000D01*
X106119047Y-75452380D01*
X105880952Y-75452380D01*
X105785714Y-75500000D01*
X105738095Y-75547619D01*
X105690476Y-75642857D01*
X105690476Y-75738095D01*
X105738095Y-75880952D01*
X106309523Y-76452380D01*
X105690476Y-76452380D01*
X104738095Y-76452380D02*
X105309523Y-76452380D01*
X105023809Y-76452380D02*
X105023809Y-75452380D01*
X105119047Y-75595238D01*
X105214285Y-75690476D01*
X105309523Y-75738095D01*
G04 #@! TO.C,R30*
X106642857Y-88452380D02*
X106976190Y-87976190D01*
X107214285Y-88452380D02*
X107214285Y-87452380D01*
X106833333Y-87452380D01*
X106738095Y-87500000D01*
X106690476Y-87547619D01*
X106642857Y-87642857D01*
X106642857Y-87785714D01*
X106690476Y-87880952D01*
X106738095Y-87928571D01*
X106833333Y-87976190D01*
X107214285Y-87976190D01*
X106309523Y-87452380D02*
X105690476Y-87452380D01*
X106023809Y-87833333D01*
X105880952Y-87833333D01*
X105785714Y-87880952D01*
X105738095Y-87928571D01*
X105690476Y-88023809D01*
X105690476Y-88261904D01*
X105738095Y-88357142D01*
X105785714Y-88404761D01*
X105880952Y-88452380D01*
X106166666Y-88452380D01*
X106261904Y-88404761D01*
X106309523Y-88357142D01*
X105071428Y-87452380D02*
X104976190Y-87452380D01*
X104880952Y-87500000D01*
X104833333Y-87547619D01*
X104785714Y-87642857D01*
X104738095Y-87833333D01*
X104738095Y-88071428D01*
X104785714Y-88261904D01*
X104833333Y-88357142D01*
X104880952Y-88404761D01*
X104976190Y-88452380D01*
X105071428Y-88452380D01*
X105166666Y-88404761D01*
X105214285Y-88357142D01*
X105261904Y-88261904D01*
X105309523Y-88071428D01*
X105309523Y-87833333D01*
X105261904Y-87642857D01*
X105214285Y-87547619D01*
X105166666Y-87500000D01*
X105071428Y-87452380D01*
G04 #@! TO.C,R31*
X106642857Y-92452380D02*
X106976190Y-91976190D01*
X107214285Y-92452380D02*
X107214285Y-91452380D01*
X106833333Y-91452380D01*
X106738095Y-91500000D01*
X106690476Y-91547619D01*
X106642857Y-91642857D01*
X106642857Y-91785714D01*
X106690476Y-91880952D01*
X106738095Y-91928571D01*
X106833333Y-91976190D01*
X107214285Y-91976190D01*
X106309523Y-91452380D02*
X105690476Y-91452380D01*
X106023809Y-91833333D01*
X105880952Y-91833333D01*
X105785714Y-91880952D01*
X105738095Y-91928571D01*
X105690476Y-92023809D01*
X105690476Y-92261904D01*
X105738095Y-92357142D01*
X105785714Y-92404761D01*
X105880952Y-92452380D01*
X106166666Y-92452380D01*
X106261904Y-92404761D01*
X106309523Y-92357142D01*
X104738095Y-92452380D02*
X105309523Y-92452380D01*
X105023809Y-92452380D02*
X105023809Y-91452380D01*
X105119047Y-91595238D01*
X105214285Y-91690476D01*
X105309523Y-91738095D01*
G04 #@! TO.C,R40*
X106642857Y-104452380D02*
X106976190Y-103976190D01*
X107214285Y-104452380D02*
X107214285Y-103452380D01*
X106833333Y-103452380D01*
X106738095Y-103500000D01*
X106690476Y-103547619D01*
X106642857Y-103642857D01*
X106642857Y-103785714D01*
X106690476Y-103880952D01*
X106738095Y-103928571D01*
X106833333Y-103976190D01*
X107214285Y-103976190D01*
X105785714Y-103785714D02*
X105785714Y-104452380D01*
X106023809Y-103404761D02*
X106261904Y-104119047D01*
X105642857Y-104119047D01*
X105071428Y-103452380D02*
X104976190Y-103452380D01*
X104880952Y-103500000D01*
X104833333Y-103547619D01*
X104785714Y-103642857D01*
X104738095Y-103833333D01*
X104738095Y-104071428D01*
X104785714Y-104261904D01*
X104833333Y-104357142D01*
X104880952Y-104404761D01*
X104976190Y-104452380D01*
X105071428Y-104452380D01*
X105166666Y-104404761D01*
X105214285Y-104357142D01*
X105261904Y-104261904D01*
X105309523Y-104071428D01*
X105309523Y-103833333D01*
X105261904Y-103642857D01*
X105214285Y-103547619D01*
X105166666Y-103500000D01*
X105071428Y-103452380D01*
G04 #@! TO.C,R41*
X106642857Y-108452380D02*
X106976190Y-107976190D01*
X107214285Y-108452380D02*
X107214285Y-107452380D01*
X106833333Y-107452380D01*
X106738095Y-107500000D01*
X106690476Y-107547619D01*
X106642857Y-107642857D01*
X106642857Y-107785714D01*
X106690476Y-107880952D01*
X106738095Y-107928571D01*
X106833333Y-107976190D01*
X107214285Y-107976190D01*
X105785714Y-107785714D02*
X105785714Y-108452380D01*
X106023809Y-107404761D02*
X106261904Y-108119047D01*
X105642857Y-108119047D01*
X104738095Y-108452380D02*
X105309523Y-108452380D01*
X105023809Y-108452380D02*
X105023809Y-107452380D01*
X105119047Y-107595238D01*
X105214285Y-107690476D01*
X105309523Y-107738095D01*
G04 #@! TO.C,R50*
X106642857Y-120452380D02*
X106976190Y-119976190D01*
X107214285Y-120452380D02*
X107214285Y-119452380D01*
X106833333Y-119452380D01*
X106738095Y-119500000D01*
X106690476Y-119547619D01*
X106642857Y-119642857D01*
X106642857Y-119785714D01*
X106690476Y-119880952D01*
X106738095Y-119928571D01*
X106833333Y-119976190D01*
X107214285Y-119976190D01*
X105738095Y-119452380D02*
X106214285Y-119452380D01*
X106261904Y-119928571D01*
X106214285Y-119880952D01*
X106119047Y-119833333D01*
X105880952Y-119833333D01*
X105785714Y-119880952D01*
X105738095Y-119928571D01*
X105690476Y-120023809D01*
X105690476Y-120261904D01*
X105738095Y-120357142D01*
X105785714Y-120404761D01*
X105880952Y-120452380D01*
X106119047Y-120452380D01*
X106214285Y-120404761D01*
X106261904Y-120357142D01*
X105071428Y-119452380D02*
X104976190Y-119452380D01*
X104880952Y-119500000D01*
X104833333Y-119547619D01*
X104785714Y-119642857D01*
X104738095Y-119833333D01*
X104738095Y-120071428D01*
X104785714Y-120261904D01*
X104833333Y-120357142D01*
X104880952Y-120404761D01*
X104976190Y-120452380D01*
X105071428Y-120452380D01*
X105166666Y-120404761D01*
X105214285Y-120357142D01*
X105261904Y-120261904D01*
X105309523Y-120071428D01*
X105309523Y-119833333D01*
X105261904Y-119642857D01*
X105214285Y-119547619D01*
X105166666Y-119500000D01*
X105071428Y-119452380D01*
G04 #@! TO.C,R51*
X106642857Y-124452380D02*
X106976190Y-123976190D01*
X107214285Y-124452380D02*
X107214285Y-123452380D01*
X106833333Y-123452380D01*
X106738095Y-123500000D01*
X106690476Y-123547619D01*
X106642857Y-123642857D01*
X106642857Y-123785714D01*
X106690476Y-123880952D01*
X106738095Y-123928571D01*
X106833333Y-123976190D01*
X107214285Y-123976190D01*
X105738095Y-123452380D02*
X106214285Y-123452380D01*
X106261904Y-123928571D01*
X106214285Y-123880952D01*
X106119047Y-123833333D01*
X105880952Y-123833333D01*
X105785714Y-123880952D01*
X105738095Y-123928571D01*
X105690476Y-124023809D01*
X105690476Y-124261904D01*
X105738095Y-124357142D01*
X105785714Y-124404761D01*
X105880952Y-124452380D01*
X106119047Y-124452380D01*
X106214285Y-124404761D01*
X106261904Y-124357142D01*
X104738095Y-124452380D02*
X105309523Y-124452380D01*
X105023809Y-124452380D02*
X105023809Y-123452380D01*
X105119047Y-123595238D01*
X105214285Y-123690476D01*
X105309523Y-123738095D01*
G04 #@! TO.C,R60*
X106642857Y-136452380D02*
X106976190Y-135976190D01*
X107214285Y-136452380D02*
X107214285Y-135452380D01*
X106833333Y-135452380D01*
X106738095Y-135500000D01*
X106690476Y-135547619D01*
X106642857Y-135642857D01*
X106642857Y-135785714D01*
X106690476Y-135880952D01*
X106738095Y-135928571D01*
X106833333Y-135976190D01*
X107214285Y-135976190D01*
X105785714Y-135452380D02*
X105976190Y-135452380D01*
X106071428Y-135500000D01*
X106119047Y-135547619D01*
X106214285Y-135690476D01*
X106261904Y-135880952D01*
X106261904Y-136261904D01*
X106214285Y-136357142D01*
X106166666Y-136404761D01*
X106071428Y-136452380D01*
X105880952Y-136452380D01*
X105785714Y-136404761D01*
X105738095Y-136357142D01*
X105690476Y-136261904D01*
X105690476Y-136023809D01*
X105738095Y-135928571D01*
X105785714Y-135880952D01*
X105880952Y-135833333D01*
X106071428Y-135833333D01*
X106166666Y-135880952D01*
X106214285Y-135928571D01*
X106261904Y-136023809D01*
X105071428Y-135452380D02*
X104976190Y-135452380D01*
X104880952Y-135500000D01*
X104833333Y-135547619D01*
X104785714Y-135642857D01*
X104738095Y-135833333D01*
X104738095Y-136071428D01*
X104785714Y-136261904D01*
X104833333Y-136357142D01*
X104880952Y-136404761D01*
X104976190Y-136452380D01*
X105071428Y-136452380D01*
X105166666Y-136404761D01*
X105214285Y-136357142D01*
X105261904Y-136261904D01*
X105309523Y-136071428D01*
X105309523Y-135833333D01*
X105261904Y-135642857D01*
X105214285Y-135547619D01*
X105166666Y-135500000D01*
X105071428Y-135452380D01*
G04 #@! TO.C,R61*
X106642857Y-140452380D02*
X106976190Y-139976190D01*
X107214285Y-140452380D02*
X107214285Y-139452380D01*
X106833333Y-139452380D01*
X106738095Y-139500000D01*
X106690476Y-139547619D01*
X106642857Y-139642857D01*
X106642857Y-139785714D01*
X106690476Y-139880952D01*
X106738095Y-139928571D01*
X106833333Y-139976190D01*
X107214285Y-139976190D01*
X105785714Y-139452380D02*
X105976190Y-139452380D01*
X106071428Y-139500000D01*
X106119047Y-139547619D01*
X106214285Y-139690476D01*
X106261904Y-139880952D01*
X106261904Y-140261904D01*
X106214285Y-140357142D01*
X106166666Y-140404761D01*
X106071428Y-140452380D01*
X105880952Y-140452380D01*
X105785714Y-140404761D01*
X105738095Y-140357142D01*
X105690476Y-140261904D01*
X105690476Y-140023809D01*
X105738095Y-139928571D01*
X105785714Y-139880952D01*
X105880952Y-139833333D01*
X106071428Y-139833333D01*
X106166666Y-139880952D01*
X106214285Y-139928571D01*
X106261904Y-140023809D01*
X104738095Y-140452380D02*
X105309523Y-140452380D01*
X105023809Y-140452380D02*
X105023809Y-139452380D01*
X105119047Y-139595238D01*
X105214285Y-139690476D01*
X105309523Y-139738095D01*
G04 #@! TO.C,R70*
X106642857Y-152452380D02*
X106976190Y-151976190D01*
X107214285Y-152452380D02*
X107214285Y-151452380D01*
X106833333Y-151452380D01*
X106738095Y-151500000D01*
X106690476Y-151547619D01*
X106642857Y-151642857D01*
X106642857Y-151785714D01*
X106690476Y-151880952D01*
X106738095Y-151928571D01*
X106833333Y-151976190D01*
X107214285Y-151976190D01*
X106309523Y-151452380D02*
X105642857Y-151452380D01*
X106071428Y-152452380D01*
X105071428Y-151452380D02*
X104976190Y-151452380D01*
X104880952Y-151500000D01*
X104833333Y-151547619D01*
X104785714Y-151642857D01*
X104738095Y-151833333D01*
X104738095Y-152071428D01*
X104785714Y-152261904D01*
X104833333Y-152357142D01*
X104880952Y-152404761D01*
X104976190Y-152452380D01*
X105071428Y-152452380D01*
X105166666Y-152404761D01*
X105214285Y-152357142D01*
X105261904Y-152261904D01*
X105309523Y-152071428D01*
X105309523Y-151833333D01*
X105261904Y-151642857D01*
X105214285Y-151547619D01*
X105166666Y-151500000D01*
X105071428Y-151452380D01*
G04 #@! TO.C,R71*
X106642857Y-156452380D02*
X106976190Y-155976190D01*
X107214285Y-156452380D02*
X107214285Y-155452380D01*
X106833333Y-155452380D01*
X106738095Y-155500000D01*
X106690476Y-155547619D01*
X106642857Y-155642857D01*
X106642857Y-155785714D01*
X106690476Y-155880952D01*
X106738095Y-155928571D01*
X106833333Y-155976190D01*
X107214285Y-155976190D01*
X106309523Y-155452380D02*
X105642857Y-155452380D01*
X106071428Y-156452380D01*
X104738095Y-156452380D02*
X105309523Y-156452380D01*
X105023809Y-156452380D02*
X105023809Y-155452380D01*
X105119047Y-155595238D01*
X105214285Y-155690476D01*
X105309523Y-155738095D01*
G04 #@! TO.C,J01*
X136109523Y-148752380D02*
X136109523Y-149466666D01*
X136157142Y-149609523D01*
X136252380Y-149704761D01*
X136395238Y-149752380D01*
X136490476Y-149752380D01*
X135442857Y-148752380D02*
X135347619Y-148752380D01*
X135252380Y-148800000D01*
X135204761Y-148847619D01*
X135157142Y-148942857D01*
X135109523Y-149133333D01*
X135109523Y-149371428D01*
X135157142Y-149561904D01*
X135204761Y-149657142D01*
X135252380Y-149704761D01*
X135347619Y-149752380D01*
X135442857Y-149752380D01*
X135538095Y-149704761D01*
X135585714Y-149657142D01*
X135633333Y-149561904D01*
X135680952Y-149371428D01*
X135680952Y-149133333D01*
X135633333Y-148942857D01*
X135585714Y-148847619D01*
X135538095Y-148800000D01*
X135442857Y-148752380D01*
X134157142Y-149752380D02*
X134728571Y-149752380D01*
X134442857Y-149752380D02*
X134442857Y-148752380D01*
X134538095Y-148895238D01*
X134633333Y-148990476D01*
X134728571Y-149038095D01*
G04 #@! TO.C,C80*
X151357142Y-111144642D02*
X151404761Y-111097023D01*
X151452380Y-110954166D01*
X151452380Y-110858928D01*
X151404761Y-110716071D01*
X151309523Y-110620833D01*
X151214285Y-110573214D01*
X151023809Y-110525595D01*
X150880952Y-110525595D01*
X150690476Y-110573214D01*
X150595238Y-110620833D01*
X150500000Y-110716071D01*
X150452380Y-110858928D01*
X150452380Y-110954166D01*
X150500000Y-111097023D01*
X150547619Y-111144642D01*
X150880952Y-111716071D02*
X150833333Y-111620833D01*
X150785714Y-111573214D01*
X150690476Y-111525595D01*
X150642857Y-111525595D01*
X150547619Y-111573214D01*
X150500000Y-111620833D01*
X150452380Y-111716071D01*
X150452380Y-111906547D01*
X150500000Y-112001785D01*
X150547619Y-112049404D01*
X150642857Y-112097023D01*
X150690476Y-112097023D01*
X150785714Y-112049404D01*
X150833333Y-112001785D01*
X150880952Y-111906547D01*
X150880952Y-111716071D01*
X150928571Y-111620833D01*
X150976190Y-111573214D01*
X151071428Y-111525595D01*
X151261904Y-111525595D01*
X151357142Y-111573214D01*
X151404761Y-111620833D01*
X151452380Y-111716071D01*
X151452380Y-111906547D01*
X151404761Y-112001785D01*
X151357142Y-112049404D01*
X151261904Y-112097023D01*
X151071428Y-112097023D01*
X150976190Y-112049404D01*
X150928571Y-112001785D01*
X150880952Y-111906547D01*
X150452380Y-112716071D02*
X150452380Y-112811309D01*
X150500000Y-112906547D01*
X150547619Y-112954166D01*
X150642857Y-113001785D01*
X150833333Y-113049404D01*
X151071428Y-113049404D01*
X151261904Y-113001785D01*
X151357142Y-112954166D01*
X151404761Y-112906547D01*
X151452380Y-112811309D01*
X151452380Y-112716071D01*
X151404761Y-112620833D01*
X151357142Y-112573214D01*
X151261904Y-112525595D01*
X151071428Y-112477976D01*
X150833333Y-112477976D01*
X150642857Y-112525595D01*
X150547619Y-112573214D01*
X150500000Y-112620833D01*
X150452380Y-112716071D01*
G04 #@! TO.C,R03*
X140642857Y-158452380D02*
X140976190Y-157976190D01*
X141214285Y-158452380D02*
X141214285Y-157452380D01*
X140833333Y-157452380D01*
X140738095Y-157500000D01*
X140690476Y-157547619D01*
X140642857Y-157642857D01*
X140642857Y-157785714D01*
X140690476Y-157880952D01*
X140738095Y-157928571D01*
X140833333Y-157976190D01*
X141214285Y-157976190D01*
X140023809Y-157452380D02*
X139928571Y-157452380D01*
X139833333Y-157500000D01*
X139785714Y-157547619D01*
X139738095Y-157642857D01*
X139690476Y-157833333D01*
X139690476Y-158071428D01*
X139738095Y-158261904D01*
X139785714Y-158357142D01*
X139833333Y-158404761D01*
X139928571Y-158452380D01*
X140023809Y-158452380D01*
X140119047Y-158404761D01*
X140166666Y-158357142D01*
X140214285Y-158261904D01*
X140261904Y-158071428D01*
X140261904Y-157833333D01*
X140214285Y-157642857D01*
X140166666Y-157547619D01*
X140119047Y-157500000D01*
X140023809Y-157452380D01*
X139357142Y-157452380D02*
X138738095Y-157452380D01*
X139071428Y-157833333D01*
X138928571Y-157833333D01*
X138833333Y-157880952D01*
X138785714Y-157928571D01*
X138738095Y-158023809D01*
X138738095Y-158261904D01*
X138785714Y-158357142D01*
X138833333Y-158404761D01*
X138928571Y-158452380D01*
X139214285Y-158452380D01*
X139309523Y-158404761D01*
X139357142Y-158357142D01*
G04 #@! TO.C,R80*
X145452380Y-111357142D02*
X144976190Y-111023809D01*
X145452380Y-110785714D02*
X144452380Y-110785714D01*
X144452380Y-111166666D01*
X144500000Y-111261904D01*
X144547619Y-111309523D01*
X144642857Y-111357142D01*
X144785714Y-111357142D01*
X144880952Y-111309523D01*
X144928571Y-111261904D01*
X144976190Y-111166666D01*
X144976190Y-110785714D01*
X144880952Y-111928571D02*
X144833333Y-111833333D01*
X144785714Y-111785714D01*
X144690476Y-111738095D01*
X144642857Y-111738095D01*
X144547619Y-111785714D01*
X144500000Y-111833333D01*
X144452380Y-111928571D01*
X144452380Y-112119047D01*
X144500000Y-112214285D01*
X144547619Y-112261904D01*
X144642857Y-112309523D01*
X144690476Y-112309523D01*
X144785714Y-112261904D01*
X144833333Y-112214285D01*
X144880952Y-112119047D01*
X144880952Y-111928571D01*
X144928571Y-111833333D01*
X144976190Y-111785714D01*
X145071428Y-111738095D01*
X145261904Y-111738095D01*
X145357142Y-111785714D01*
X145404761Y-111833333D01*
X145452380Y-111928571D01*
X145452380Y-112119047D01*
X145404761Y-112214285D01*
X145357142Y-112261904D01*
X145261904Y-112309523D01*
X145071428Y-112309523D01*
X144976190Y-112261904D01*
X144928571Y-112214285D01*
X144880952Y-112119047D01*
X144452380Y-112928571D02*
X144452380Y-113023809D01*
X144500000Y-113119047D01*
X144547619Y-113166666D01*
X144642857Y-113214285D01*
X144833333Y-113261904D01*
X145071428Y-113261904D01*
X145261904Y-113214285D01*
X145357142Y-113166666D01*
X145404761Y-113119047D01*
X145452380Y-113023809D01*
X145452380Y-112928571D01*
X145404761Y-112833333D01*
X145357142Y-112785714D01*
X145261904Y-112738095D01*
X145071428Y-112690476D01*
X144833333Y-112690476D01*
X144642857Y-112738095D01*
X144547619Y-112785714D01*
X144500000Y-112833333D01*
X144452380Y-112928571D01*
G04 #@! TO.C,R81*
X147452380Y-111357142D02*
X146976190Y-111023809D01*
X147452380Y-110785714D02*
X146452380Y-110785714D01*
X146452380Y-111166666D01*
X146500000Y-111261904D01*
X146547619Y-111309523D01*
X146642857Y-111357142D01*
X146785714Y-111357142D01*
X146880952Y-111309523D01*
X146928571Y-111261904D01*
X146976190Y-111166666D01*
X146976190Y-110785714D01*
X146880952Y-111928571D02*
X146833333Y-111833333D01*
X146785714Y-111785714D01*
X146690476Y-111738095D01*
X146642857Y-111738095D01*
X146547619Y-111785714D01*
X146500000Y-111833333D01*
X146452380Y-111928571D01*
X146452380Y-112119047D01*
X146500000Y-112214285D01*
X146547619Y-112261904D01*
X146642857Y-112309523D01*
X146690476Y-112309523D01*
X146785714Y-112261904D01*
X146833333Y-112214285D01*
X146880952Y-112119047D01*
X146880952Y-111928571D01*
X146928571Y-111833333D01*
X146976190Y-111785714D01*
X147071428Y-111738095D01*
X147261904Y-111738095D01*
X147357142Y-111785714D01*
X147404761Y-111833333D01*
X147452380Y-111928571D01*
X147452380Y-112119047D01*
X147404761Y-112214285D01*
X147357142Y-112261904D01*
X147261904Y-112309523D01*
X147071428Y-112309523D01*
X146976190Y-112261904D01*
X146928571Y-112214285D01*
X146880952Y-112119047D01*
X147452380Y-113261904D02*
X147452380Y-112690476D01*
X147452380Y-112976190D02*
X146452380Y-112976190D01*
X146595238Y-112880952D01*
X146690476Y-112785714D01*
X146738095Y-112690476D01*
G04 #@! TO.C,R82*
X149452380Y-111357142D02*
X148976190Y-111023809D01*
X149452380Y-110785714D02*
X148452380Y-110785714D01*
X148452380Y-111166666D01*
X148500000Y-111261904D01*
X148547619Y-111309523D01*
X148642857Y-111357142D01*
X148785714Y-111357142D01*
X148880952Y-111309523D01*
X148928571Y-111261904D01*
X148976190Y-111166666D01*
X148976190Y-110785714D01*
X148880952Y-111928571D02*
X148833333Y-111833333D01*
X148785714Y-111785714D01*
X148690476Y-111738095D01*
X148642857Y-111738095D01*
X148547619Y-111785714D01*
X148500000Y-111833333D01*
X148452380Y-111928571D01*
X148452380Y-112119047D01*
X148500000Y-112214285D01*
X148547619Y-112261904D01*
X148642857Y-112309523D01*
X148690476Y-112309523D01*
X148785714Y-112261904D01*
X148833333Y-112214285D01*
X148880952Y-112119047D01*
X148880952Y-111928571D01*
X148928571Y-111833333D01*
X148976190Y-111785714D01*
X149071428Y-111738095D01*
X149261904Y-111738095D01*
X149357142Y-111785714D01*
X149404761Y-111833333D01*
X149452380Y-111928571D01*
X149452380Y-112119047D01*
X149404761Y-112214285D01*
X149357142Y-112261904D01*
X149261904Y-112309523D01*
X149071428Y-112309523D01*
X148976190Y-112261904D01*
X148928571Y-112214285D01*
X148880952Y-112119047D01*
X148547619Y-112690476D02*
X148500000Y-112738095D01*
X148452380Y-112833333D01*
X148452380Y-113071428D01*
X148500000Y-113166666D01*
X148547619Y-113214285D01*
X148642857Y-113261904D01*
X148738095Y-113261904D01*
X148880952Y-113214285D01*
X149452380Y-112642857D01*
X149452380Y-113261904D01*
G04 #@! TO.C,U80*
X143952380Y-121761904D02*
X144761904Y-121761904D01*
X144857142Y-121809523D01*
X144904761Y-121857142D01*
X144952380Y-121952380D01*
X144952380Y-122142857D01*
X144904761Y-122238095D01*
X144857142Y-122285714D01*
X144761904Y-122333333D01*
X143952380Y-122333333D01*
X144380952Y-122952380D02*
X144333333Y-122857142D01*
X144285714Y-122809523D01*
X144190476Y-122761904D01*
X144142857Y-122761904D01*
X144047619Y-122809523D01*
X144000000Y-122857142D01*
X143952380Y-122952380D01*
X143952380Y-123142857D01*
X144000000Y-123238095D01*
X144047619Y-123285714D01*
X144142857Y-123333333D01*
X144190476Y-123333333D01*
X144285714Y-123285714D01*
X144333333Y-123238095D01*
X144380952Y-123142857D01*
X144380952Y-122952380D01*
X144428571Y-122857142D01*
X144476190Y-122809523D01*
X144571428Y-122761904D01*
X144761904Y-122761904D01*
X144857142Y-122809523D01*
X144904761Y-122857142D01*
X144952380Y-122952380D01*
X144952380Y-123142857D01*
X144904761Y-123238095D01*
X144857142Y-123285714D01*
X144761904Y-123333333D01*
X144571428Y-123333333D01*
X144476190Y-123285714D01*
X144428571Y-123238095D01*
X144380952Y-123142857D01*
X143952380Y-123952380D02*
X143952380Y-124047619D01*
X144000000Y-124142857D01*
X144047619Y-124190476D01*
X144142857Y-124238095D01*
X144333333Y-124285714D01*
X144571428Y-124285714D01*
X144761904Y-124238095D01*
X144857142Y-124190476D01*
X144904761Y-124142857D01*
X144952380Y-124047619D01*
X144952380Y-123952380D01*
X144904761Y-123857142D01*
X144857142Y-123809523D01*
X144761904Y-123761904D01*
X144571428Y-123714285D01*
X144333333Y-123714285D01*
X144142857Y-123761904D01*
X144047619Y-123809523D01*
X144000000Y-123857142D01*
X143952380Y-123952380D01*
G04 #@! TO.C,D00*
X149891577Y-155174317D02*
X149184470Y-154467211D01*
X149016111Y-154635569D01*
X148948768Y-154770256D01*
X148948768Y-154904943D01*
X148982440Y-155005959D01*
X149083455Y-155174317D01*
X149184470Y-155275333D01*
X149352829Y-155376348D01*
X149453844Y-155410020D01*
X149588531Y-155410020D01*
X149723218Y-155342676D01*
X149891577Y-155174317D01*
X148342676Y-155309004D02*
X148275333Y-155376348D01*
X148241661Y-155477363D01*
X148241661Y-155544707D01*
X148275333Y-155645722D01*
X148376348Y-155814081D01*
X148544707Y-155982440D01*
X148713066Y-156083455D01*
X148814081Y-156117127D01*
X148881424Y-156117127D01*
X148982440Y-156083455D01*
X149049783Y-156016111D01*
X149083455Y-155915096D01*
X149083455Y-155847753D01*
X149049783Y-155746737D01*
X148948768Y-155578378D01*
X148780409Y-155410020D01*
X148612050Y-155309004D01*
X148511035Y-155275333D01*
X148443691Y-155275333D01*
X148342676Y-155309004D01*
X147669241Y-155982440D02*
X147601898Y-156049783D01*
X147568226Y-156150798D01*
X147568226Y-156218142D01*
X147601898Y-156319157D01*
X147702913Y-156487516D01*
X147871272Y-156655875D01*
X148039630Y-156756890D01*
X148140646Y-156790562D01*
X148207989Y-156790562D01*
X148309004Y-156756890D01*
X148376348Y-156689546D01*
X148410020Y-156588531D01*
X148410020Y-156521188D01*
X148376348Y-156420172D01*
X148275333Y-156251814D01*
X148106974Y-156083455D01*
X147938615Y-155982440D01*
X147837600Y-155948768D01*
X147770256Y-155948768D01*
X147669241Y-155982440D01*
G04 #@! TO.C,BT80*
X154261904Y-130928571D02*
X154119047Y-130976190D01*
X154071428Y-131023809D01*
X154023809Y-131119047D01*
X154023809Y-131261904D01*
X154071428Y-131357142D01*
X154119047Y-131404761D01*
X154214285Y-131452380D01*
X154595238Y-131452380D01*
X154595238Y-130452380D01*
X154261904Y-130452380D01*
X154166666Y-130500000D01*
X154119047Y-130547619D01*
X154071428Y-130642857D01*
X154071428Y-130738095D01*
X154119047Y-130833333D01*
X154166666Y-130880952D01*
X154261904Y-130928571D01*
X154595238Y-130928571D01*
X153738095Y-130452380D02*
X153166666Y-130452380D01*
X153452380Y-131452380D02*
X153452380Y-130452380D01*
X152690476Y-130880952D02*
X152785714Y-130833333D01*
X152833333Y-130785714D01*
X152880952Y-130690476D01*
X152880952Y-130642857D01*
X152833333Y-130547619D01*
X152785714Y-130500000D01*
X152690476Y-130452380D01*
X152500000Y-130452380D01*
X152404761Y-130500000D01*
X152357142Y-130547619D01*
X152309523Y-130642857D01*
X152309523Y-130690476D01*
X152357142Y-130785714D01*
X152404761Y-130833333D01*
X152500000Y-130880952D01*
X152690476Y-130880952D01*
X152785714Y-130928571D01*
X152833333Y-130976190D01*
X152880952Y-131071428D01*
X152880952Y-131261904D01*
X152833333Y-131357142D01*
X152785714Y-131404761D01*
X152690476Y-131452380D01*
X152500000Y-131452380D01*
X152404761Y-131404761D01*
X152357142Y-131357142D01*
X152309523Y-131261904D01*
X152309523Y-131071428D01*
X152357142Y-130976190D01*
X152404761Y-130928571D01*
X152500000Y-130880952D01*
X151690476Y-130452380D02*
X151595238Y-130452380D01*
X151500000Y-130500000D01*
X151452380Y-130547619D01*
X151404761Y-130642857D01*
X151357142Y-130833333D01*
X151357142Y-131071428D01*
X151404761Y-131261904D01*
X151452380Y-131357142D01*
X151500000Y-131404761D01*
X151595238Y-131452380D01*
X151690476Y-131452380D01*
X151785714Y-131404761D01*
X151833333Y-131357142D01*
X151880952Y-131261904D01*
X151928571Y-131071428D01*
X151928571Y-130833333D01*
X151880952Y-130642857D01*
X151833333Y-130547619D01*
X151785714Y-130500000D01*
X151690476Y-130452380D01*
G04 #@! TO.C,Q00*
X144571428Y-150547619D02*
X144666666Y-150500000D01*
X144761904Y-150404761D01*
X144904761Y-150261904D01*
X145000000Y-150214285D01*
X145095238Y-150214285D01*
X145047619Y-150452380D02*
X145142857Y-150404761D01*
X145238095Y-150309523D01*
X145285714Y-150119047D01*
X145285714Y-149785714D01*
X145238095Y-149595238D01*
X145142857Y-149500000D01*
X145047619Y-149452380D01*
X144857142Y-149452380D01*
X144761904Y-149500000D01*
X144666666Y-149595238D01*
X144619047Y-149785714D01*
X144619047Y-150119047D01*
X144666666Y-150309523D01*
X144761904Y-150404761D01*
X144857142Y-150452380D01*
X145047619Y-150452380D01*
X144000000Y-149452380D02*
X143904761Y-149452380D01*
X143809523Y-149500000D01*
X143761904Y-149547619D01*
X143714285Y-149642857D01*
X143666666Y-149833333D01*
X143666666Y-150071428D01*
X143714285Y-150261904D01*
X143761904Y-150357142D01*
X143809523Y-150404761D01*
X143904761Y-150452380D01*
X144000000Y-150452380D01*
X144095238Y-150404761D01*
X144142857Y-150357142D01*
X144190476Y-150261904D01*
X144238095Y-150071428D01*
X144238095Y-149833333D01*
X144190476Y-149642857D01*
X144142857Y-149547619D01*
X144095238Y-149500000D01*
X144000000Y-149452380D01*
X143047619Y-149452380D02*
X142952380Y-149452380D01*
X142857142Y-149500000D01*
X142809523Y-149547619D01*
X142761904Y-149642857D01*
X142714285Y-149833333D01*
X142714285Y-150071428D01*
X142761904Y-150261904D01*
X142809523Y-150357142D01*
X142857142Y-150404761D01*
X142952380Y-150452380D01*
X143047619Y-150452380D01*
X143142857Y-150404761D01*
X143190476Y-150357142D01*
X143238095Y-150261904D01*
X143285714Y-150071428D01*
X143285714Y-149833333D01*
X143238095Y-149642857D01*
X143190476Y-149547619D01*
X143142857Y-149500000D01*
X143047619Y-149452380D01*
G04 #@! TO.C,R04*
X140642857Y-151452380D02*
X140976190Y-150976190D01*
X141214285Y-151452380D02*
X141214285Y-150452380D01*
X140833333Y-150452380D01*
X140738095Y-150500000D01*
X140690476Y-150547619D01*
X140642857Y-150642857D01*
X140642857Y-150785714D01*
X140690476Y-150880952D01*
X140738095Y-150928571D01*
X140833333Y-150976190D01*
X141214285Y-150976190D01*
X140023809Y-150452380D02*
X139928571Y-150452380D01*
X139833333Y-150500000D01*
X139785714Y-150547619D01*
X139738095Y-150642857D01*
X139690476Y-150833333D01*
X139690476Y-151071428D01*
X139738095Y-151261904D01*
X139785714Y-151357142D01*
X139833333Y-151404761D01*
X139928571Y-151452380D01*
X140023809Y-151452380D01*
X140119047Y-151404761D01*
X140166666Y-151357142D01*
X140214285Y-151261904D01*
X140261904Y-151071428D01*
X140261904Y-150833333D01*
X140214285Y-150642857D01*
X140166666Y-150547619D01*
X140119047Y-150500000D01*
X140023809Y-150452380D01*
X138833333Y-150785714D02*
X138833333Y-151452380D01*
X139071428Y-150404761D02*
X139309523Y-151119047D01*
X138690476Y-151119047D01*
G04 #@! TD*
M02*
