G04 #@! TF.GenerationSoftware,KiCad,Pcbnew,(5.0.1-3-g963ef8bb5)*
G04 #@! TF.CreationDate,2019-06-03T16:35:54+02:00*
G04 #@! TF.ProjectId,foodSampler_v10,666F6F6453616D706C65725F7631302E,rev?*
G04 #@! TF.SameCoordinates,Original*
G04 #@! TF.FileFunction,Legend,Top*
G04 #@! TF.FilePolarity,Positive*
%FSLAX46Y46*%
G04 Gerber Fmt 4.6, Leading zero omitted, Abs format (unit mm)*
G04 Created by KiCad (PCBNEW (5.0.1-3-g963ef8bb5)) date 2019 June 03, Monday 16:35:54*
%MOMM*%
%LPD*%
G01*
G04 APERTURE LIST*
%ADD10C,0.150000*%
%ADD11C,0.010000*%
G04 APERTURE END LIST*
D10*
G04 #@! TO.C,SW10*
X97000000Y-52000000D02*
X109000000Y-52000000D01*
X109000000Y-52000000D02*
X109000000Y-64000000D01*
X109000000Y-64000000D02*
X97000000Y-64000000D01*
X97000000Y-64000000D02*
X97000000Y-52000000D01*
X96500000Y-53500000D02*
X96500000Y-51500000D01*
X96500000Y-51500000D02*
X98000000Y-51500000D01*
X98000000Y-51500000D02*
X98500000Y-51500000D01*
G04 #@! TO.C,SW20*
X98000000Y-67500000D02*
X98500000Y-67500000D01*
X96500000Y-67500000D02*
X98000000Y-67500000D01*
X96500000Y-69500000D02*
X96500000Y-67500000D01*
X97000000Y-80000000D02*
X97000000Y-68000000D01*
X109000000Y-80000000D02*
X97000000Y-80000000D01*
X109000000Y-68000000D02*
X109000000Y-80000000D01*
X97000000Y-68000000D02*
X109000000Y-68000000D01*
G04 #@! TO.C,SW30*
X97000000Y-84000000D02*
X109000000Y-84000000D01*
X109000000Y-84000000D02*
X109000000Y-96000000D01*
X109000000Y-96000000D02*
X97000000Y-96000000D01*
X97000000Y-96000000D02*
X97000000Y-84000000D01*
X96500000Y-85500000D02*
X96500000Y-83500000D01*
X96500000Y-83500000D02*
X98000000Y-83500000D01*
X98000000Y-83500000D02*
X98500000Y-83500000D01*
G04 #@! TO.C,SW40*
X98000000Y-99500000D02*
X98500000Y-99500000D01*
X96500000Y-99500000D02*
X98000000Y-99500000D01*
X96500000Y-101500000D02*
X96500000Y-99500000D01*
X97000000Y-112000000D02*
X97000000Y-100000000D01*
X109000000Y-112000000D02*
X97000000Y-112000000D01*
X109000000Y-100000000D02*
X109000000Y-112000000D01*
X97000000Y-100000000D02*
X109000000Y-100000000D01*
G04 #@! TO.C,SW50*
X97000000Y-116000000D02*
X109000000Y-116000000D01*
X109000000Y-116000000D02*
X109000000Y-128000000D01*
X109000000Y-128000000D02*
X97000000Y-128000000D01*
X97000000Y-128000000D02*
X97000000Y-116000000D01*
X96500000Y-117500000D02*
X96500000Y-115500000D01*
X96500000Y-115500000D02*
X98000000Y-115500000D01*
X98000000Y-115500000D02*
X98500000Y-115500000D01*
G04 #@! TO.C,SW60*
X98000000Y-131500000D02*
X98500000Y-131500000D01*
X96500000Y-131500000D02*
X98000000Y-131500000D01*
X96500000Y-133500000D02*
X96500000Y-131500000D01*
X97000000Y-144000000D02*
X97000000Y-132000000D01*
X109000000Y-144000000D02*
X97000000Y-144000000D01*
X109000000Y-132000000D02*
X109000000Y-144000000D01*
X97000000Y-132000000D02*
X109000000Y-132000000D01*
G04 #@! TO.C,SW70*
X97000000Y-148000000D02*
X109000000Y-148000000D01*
X109000000Y-148000000D02*
X109000000Y-160000000D01*
X109000000Y-160000000D02*
X97000000Y-160000000D01*
X97000000Y-160000000D02*
X97000000Y-148000000D01*
X96500000Y-149500000D02*
X96500000Y-147500000D01*
X96500000Y-147500000D02*
X98000000Y-147500000D01*
X98000000Y-147500000D02*
X98500000Y-147500000D01*
D11*
G04 #@! TO.C,G\002A\002A\002A*
G36*
X99025334Y-41096269D02*
X99035484Y-41114913D01*
X99038910Y-41140407D01*
X99037894Y-41153084D01*
X99024233Y-41213325D01*
X99000569Y-41270826D01*
X98965895Y-41327339D01*
X98919206Y-41384615D01*
X98883867Y-41421195D01*
X98858944Y-41445099D01*
X98833224Y-41468501D01*
X98805386Y-41492424D01*
X98774109Y-41517891D01*
X98738072Y-41545923D01*
X98695953Y-41577544D01*
X98646432Y-41613777D01*
X98588188Y-41655645D01*
X98519899Y-41704170D01*
X98502154Y-41716718D01*
X98415492Y-41778555D01*
X98339874Y-41833886D01*
X98274300Y-41883559D01*
X98217773Y-41928423D01*
X98169292Y-41969327D01*
X98127858Y-42007119D01*
X98092474Y-42042648D01*
X98062140Y-42076764D01*
X98035857Y-42110314D01*
X98030952Y-42117096D01*
X97999356Y-42165324D01*
X97977558Y-42208845D01*
X97964072Y-42251429D01*
X97957415Y-42296846D01*
X97956851Y-42305203D01*
X97958263Y-42373235D01*
X97970505Y-42432923D01*
X97993125Y-42483747D01*
X98025671Y-42525187D01*
X98067689Y-42556722D01*
X98118727Y-42577834D01*
X98178332Y-42588002D01*
X98203873Y-42588889D01*
X98277756Y-42582105D01*
X98354331Y-42561983D01*
X98432846Y-42528868D01*
X98512544Y-42483106D01*
X98592673Y-42425042D01*
X98630032Y-42393806D01*
X98661402Y-42368177D01*
X98685391Y-42352770D01*
X98702165Y-42347932D01*
X98711891Y-42354006D01*
X98714735Y-42371340D01*
X98710862Y-42400278D01*
X98700440Y-42441164D01*
X98683633Y-42494346D01*
X98681492Y-42500695D01*
X98630046Y-42635021D01*
X98567430Y-42768621D01*
X98494807Y-42899986D01*
X98413338Y-43027607D01*
X98324183Y-43149972D01*
X98228505Y-43265574D01*
X98127465Y-43372902D01*
X98022223Y-43470447D01*
X97913940Y-43556699D01*
X97820588Y-43619876D01*
X97720495Y-43675553D01*
X97615946Y-43721482D01*
X97510244Y-43756345D01*
X97433916Y-43774114D01*
X97389075Y-43781614D01*
X97344741Y-43787254D01*
X97303703Y-43790837D01*
X97268751Y-43792168D01*
X97242673Y-43791052D01*
X97230319Y-43788370D01*
X97215956Y-43779162D01*
X97213656Y-43768244D01*
X97223783Y-43755243D01*
X97246702Y-43739787D01*
X97282775Y-43721505D01*
X97305758Y-43711231D01*
X97343095Y-43693111D01*
X97382048Y-43671028D01*
X97415985Y-43648805D01*
X97422975Y-43643625D01*
X97488915Y-43587184D01*
X97551400Y-43522321D01*
X97607830Y-43452230D01*
X97655607Y-43380103D01*
X97688475Y-43317386D01*
X97709429Y-43266083D01*
X97729892Y-43206640D01*
X97749106Y-43142157D01*
X97766313Y-43075735D01*
X97780757Y-43010474D01*
X97791681Y-42949474D01*
X97798327Y-42895838D01*
X97800055Y-42860419D01*
X97799694Y-42833334D01*
X97798116Y-42817448D01*
X97794578Y-42809858D01*
X97788340Y-42807660D01*
X97786561Y-42807611D01*
X97776595Y-42812522D01*
X97763367Y-42827984D01*
X97745996Y-42855095D01*
X97739756Y-42865820D01*
X97714923Y-42903167D01*
X97681880Y-42944251D01*
X97643718Y-42985884D01*
X97603530Y-43024883D01*
X97564408Y-43058060D01*
X97529990Y-43081911D01*
X97465426Y-43114495D01*
X97403758Y-43134810D01*
X97345799Y-43142738D01*
X97292364Y-43138159D01*
X97248255Y-43122974D01*
X97207354Y-43095402D01*
X97173260Y-43057648D01*
X97147247Y-43012511D01*
X97130590Y-42962791D01*
X97124565Y-42911287D01*
X97129893Y-42863071D01*
X97136560Y-42838223D01*
X97145089Y-42813667D01*
X97156439Y-42787606D01*
X97171571Y-42758246D01*
X97191446Y-42723790D01*
X97217023Y-42682443D01*
X97249265Y-42632410D01*
X97270970Y-42599349D01*
X97300300Y-42554098D01*
X97328917Y-42508511D01*
X97355245Y-42465208D01*
X97377706Y-42426811D01*
X97394723Y-42395940D01*
X97401475Y-42382518D01*
X97419237Y-42341556D01*
X97435191Y-42298319D01*
X97448246Y-42256371D01*
X97457311Y-42219277D01*
X97461295Y-42190601D01*
X97461388Y-42186770D01*
X97459532Y-42168748D01*
X97453629Y-42161137D01*
X97443180Y-42164316D01*
X97427683Y-42178664D01*
X97406638Y-42204561D01*
X97379545Y-42242388D01*
X97370335Y-42255866D01*
X97318504Y-42324957D01*
X97256574Y-42393852D01*
X97183478Y-42463613D01*
X97098150Y-42535304D01*
X97062750Y-42562927D01*
X97020155Y-42595566D01*
X96971579Y-42632800D01*
X96922225Y-42670639D01*
X96877292Y-42705098D01*
X96865312Y-42714287D01*
X96805964Y-42761938D01*
X96747967Y-42812495D01*
X96693462Y-42863861D01*
X96644592Y-42913937D01*
X96603501Y-42960626D01*
X96573548Y-43000034D01*
X96536609Y-43057849D01*
X96507355Y-43113102D01*
X96484950Y-43168641D01*
X96468557Y-43227309D01*
X96457341Y-43291953D01*
X96450465Y-43365418D01*
X96447639Y-43428500D01*
X96445418Y-43487234D01*
X96442429Y-43533068D01*
X96438458Y-43567205D01*
X96433290Y-43590845D01*
X96426710Y-43605190D01*
X96418503Y-43611441D01*
X96414802Y-43611945D01*
X96404533Y-43606276D01*
X96393760Y-43588947D01*
X96382322Y-43559469D01*
X96370055Y-43517356D01*
X96356794Y-43462120D01*
X96343774Y-43400278D01*
X96322234Y-43264365D01*
X96313398Y-43134267D01*
X96317381Y-43009417D01*
X96334300Y-42889252D01*
X96364273Y-42773203D01*
X96407415Y-42660707D01*
X96463844Y-42551198D01*
X96533676Y-42444108D01*
X96543926Y-42430090D01*
X96621860Y-42335070D01*
X96712928Y-42242398D01*
X96816261Y-42152696D01*
X96930987Y-42066582D01*
X97056236Y-41984678D01*
X97191139Y-41907603D01*
X97334823Y-41835978D01*
X97447277Y-41786438D01*
X97485473Y-41770916D01*
X97524122Y-41756131D01*
X97564715Y-41741627D01*
X97608740Y-41726952D01*
X97657688Y-41711653D01*
X97713048Y-41695274D01*
X97776310Y-41677364D01*
X97848962Y-41657468D01*
X97932495Y-41635133D01*
X98018777Y-41612423D01*
X98078586Y-41596600D01*
X98138519Y-41580437D01*
X98196033Y-41564642D01*
X98248584Y-41549924D01*
X98293630Y-41536989D01*
X98328626Y-41526548D01*
X98339805Y-41523047D01*
X98463641Y-41480049D01*
X98574976Y-41434127D01*
X98675253Y-41384531D01*
X98765913Y-41330512D01*
X98848399Y-41271319D01*
X98890138Y-41236862D01*
X98919047Y-41210680D01*
X98939764Y-41188490D01*
X98955640Y-41166171D01*
X98970028Y-41139599D01*
X98971277Y-41137036D01*
X98984985Y-41110459D01*
X98995404Y-41094946D01*
X99004217Y-41088354D01*
X99009906Y-41087841D01*
X99025334Y-41096269D01*
X99025334Y-41096269D01*
G37*
X99025334Y-41096269D02*
X99035484Y-41114913D01*
X99038910Y-41140407D01*
X99037894Y-41153084D01*
X99024233Y-41213325D01*
X99000569Y-41270826D01*
X98965895Y-41327339D01*
X98919206Y-41384615D01*
X98883867Y-41421195D01*
X98858944Y-41445099D01*
X98833224Y-41468501D01*
X98805386Y-41492424D01*
X98774109Y-41517891D01*
X98738072Y-41545923D01*
X98695953Y-41577544D01*
X98646432Y-41613777D01*
X98588188Y-41655645D01*
X98519899Y-41704170D01*
X98502154Y-41716718D01*
X98415492Y-41778555D01*
X98339874Y-41833886D01*
X98274300Y-41883559D01*
X98217773Y-41928423D01*
X98169292Y-41969327D01*
X98127858Y-42007119D01*
X98092474Y-42042648D01*
X98062140Y-42076764D01*
X98035857Y-42110314D01*
X98030952Y-42117096D01*
X97999356Y-42165324D01*
X97977558Y-42208845D01*
X97964072Y-42251429D01*
X97957415Y-42296846D01*
X97956851Y-42305203D01*
X97958263Y-42373235D01*
X97970505Y-42432923D01*
X97993125Y-42483747D01*
X98025671Y-42525187D01*
X98067689Y-42556722D01*
X98118727Y-42577834D01*
X98178332Y-42588002D01*
X98203873Y-42588889D01*
X98277756Y-42582105D01*
X98354331Y-42561983D01*
X98432846Y-42528868D01*
X98512544Y-42483106D01*
X98592673Y-42425042D01*
X98630032Y-42393806D01*
X98661402Y-42368177D01*
X98685391Y-42352770D01*
X98702165Y-42347932D01*
X98711891Y-42354006D01*
X98714735Y-42371340D01*
X98710862Y-42400278D01*
X98700440Y-42441164D01*
X98683633Y-42494346D01*
X98681492Y-42500695D01*
X98630046Y-42635021D01*
X98567430Y-42768621D01*
X98494807Y-42899986D01*
X98413338Y-43027607D01*
X98324183Y-43149972D01*
X98228505Y-43265574D01*
X98127465Y-43372902D01*
X98022223Y-43470447D01*
X97913940Y-43556699D01*
X97820588Y-43619876D01*
X97720495Y-43675553D01*
X97615946Y-43721482D01*
X97510244Y-43756345D01*
X97433916Y-43774114D01*
X97389075Y-43781614D01*
X97344741Y-43787254D01*
X97303703Y-43790837D01*
X97268751Y-43792168D01*
X97242673Y-43791052D01*
X97230319Y-43788370D01*
X97215956Y-43779162D01*
X97213656Y-43768244D01*
X97223783Y-43755243D01*
X97246702Y-43739787D01*
X97282775Y-43721505D01*
X97305758Y-43711231D01*
X97343095Y-43693111D01*
X97382048Y-43671028D01*
X97415985Y-43648805D01*
X97422975Y-43643625D01*
X97488915Y-43587184D01*
X97551400Y-43522321D01*
X97607830Y-43452230D01*
X97655607Y-43380103D01*
X97688475Y-43317386D01*
X97709429Y-43266083D01*
X97729892Y-43206640D01*
X97749106Y-43142157D01*
X97766313Y-43075735D01*
X97780757Y-43010474D01*
X97791681Y-42949474D01*
X97798327Y-42895838D01*
X97800055Y-42860419D01*
X97799694Y-42833334D01*
X97798116Y-42817448D01*
X97794578Y-42809858D01*
X97788340Y-42807660D01*
X97786561Y-42807611D01*
X97776595Y-42812522D01*
X97763367Y-42827984D01*
X97745996Y-42855095D01*
X97739756Y-42865820D01*
X97714923Y-42903167D01*
X97681880Y-42944251D01*
X97643718Y-42985884D01*
X97603530Y-43024883D01*
X97564408Y-43058060D01*
X97529990Y-43081911D01*
X97465426Y-43114495D01*
X97403758Y-43134810D01*
X97345799Y-43142738D01*
X97292364Y-43138159D01*
X97248255Y-43122974D01*
X97207354Y-43095402D01*
X97173260Y-43057648D01*
X97147247Y-43012511D01*
X97130590Y-42962791D01*
X97124565Y-42911287D01*
X97129893Y-42863071D01*
X97136560Y-42838223D01*
X97145089Y-42813667D01*
X97156439Y-42787606D01*
X97171571Y-42758246D01*
X97191446Y-42723790D01*
X97217023Y-42682443D01*
X97249265Y-42632410D01*
X97270970Y-42599349D01*
X97300300Y-42554098D01*
X97328917Y-42508511D01*
X97355245Y-42465208D01*
X97377706Y-42426811D01*
X97394723Y-42395940D01*
X97401475Y-42382518D01*
X97419237Y-42341556D01*
X97435191Y-42298319D01*
X97448246Y-42256371D01*
X97457311Y-42219277D01*
X97461295Y-42190601D01*
X97461388Y-42186770D01*
X97459532Y-42168748D01*
X97453629Y-42161137D01*
X97443180Y-42164316D01*
X97427683Y-42178664D01*
X97406638Y-42204561D01*
X97379545Y-42242388D01*
X97370335Y-42255866D01*
X97318504Y-42324957D01*
X97256574Y-42393852D01*
X97183478Y-42463613D01*
X97098150Y-42535304D01*
X97062750Y-42562927D01*
X97020155Y-42595566D01*
X96971579Y-42632800D01*
X96922225Y-42670639D01*
X96877292Y-42705098D01*
X96865312Y-42714287D01*
X96805964Y-42761938D01*
X96747967Y-42812495D01*
X96693462Y-42863861D01*
X96644592Y-42913937D01*
X96603501Y-42960626D01*
X96573548Y-43000034D01*
X96536609Y-43057849D01*
X96507355Y-43113102D01*
X96484950Y-43168641D01*
X96468557Y-43227309D01*
X96457341Y-43291953D01*
X96450465Y-43365418D01*
X96447639Y-43428500D01*
X96445418Y-43487234D01*
X96442429Y-43533068D01*
X96438458Y-43567205D01*
X96433290Y-43590845D01*
X96426710Y-43605190D01*
X96418503Y-43611441D01*
X96414802Y-43611945D01*
X96404533Y-43606276D01*
X96393760Y-43588947D01*
X96382322Y-43559469D01*
X96370055Y-43517356D01*
X96356794Y-43462120D01*
X96343774Y-43400278D01*
X96322234Y-43264365D01*
X96313398Y-43134267D01*
X96317381Y-43009417D01*
X96334300Y-42889252D01*
X96364273Y-42773203D01*
X96407415Y-42660707D01*
X96463844Y-42551198D01*
X96533676Y-42444108D01*
X96543926Y-42430090D01*
X96621860Y-42335070D01*
X96712928Y-42242398D01*
X96816261Y-42152696D01*
X96930987Y-42066582D01*
X97056236Y-41984678D01*
X97191139Y-41907603D01*
X97334823Y-41835978D01*
X97447277Y-41786438D01*
X97485473Y-41770916D01*
X97524122Y-41756131D01*
X97564715Y-41741627D01*
X97608740Y-41726952D01*
X97657688Y-41711653D01*
X97713048Y-41695274D01*
X97776310Y-41677364D01*
X97848962Y-41657468D01*
X97932495Y-41635133D01*
X98018777Y-41612423D01*
X98078586Y-41596600D01*
X98138519Y-41580437D01*
X98196033Y-41564642D01*
X98248584Y-41549924D01*
X98293630Y-41536989D01*
X98328626Y-41526548D01*
X98339805Y-41523047D01*
X98463641Y-41480049D01*
X98574976Y-41434127D01*
X98675253Y-41384531D01*
X98765913Y-41330512D01*
X98848399Y-41271319D01*
X98890138Y-41236862D01*
X98919047Y-41210680D01*
X98939764Y-41188490D01*
X98955640Y-41166171D01*
X98970028Y-41139599D01*
X98971277Y-41137036D01*
X98984985Y-41110459D01*
X98995404Y-41094946D01*
X99004217Y-41088354D01*
X99009906Y-41087841D01*
X99025334Y-41096269D01*
G36*
X108888920Y-43913479D02*
X108967663Y-43920240D01*
X109044143Y-43932086D01*
X109097763Y-43944211D01*
X109124222Y-43951155D01*
X109124222Y-44268618D01*
X109058958Y-44263073D01*
X109005275Y-44259712D01*
X108948974Y-44258278D01*
X108893737Y-44258711D01*
X108843247Y-44260949D01*
X108801185Y-44264931D01*
X108783959Y-44267653D01*
X108748665Y-44277189D01*
X108713915Y-44291165D01*
X108699365Y-44298893D01*
X108677789Y-44313409D01*
X108661794Y-44329279D01*
X108647420Y-44351034D01*
X108637461Y-44369708D01*
X108612694Y-44418332D01*
X108610465Y-44632499D01*
X108608235Y-44846667D01*
X109067777Y-44846667D01*
X109067777Y-45114778D01*
X108609222Y-45114778D01*
X108605638Y-46853972D01*
X108418191Y-46855849D01*
X108368112Y-46856174D01*
X108322718Y-46856132D01*
X108283903Y-46855752D01*
X108253564Y-46855063D01*
X108233597Y-46854093D01*
X108225927Y-46852909D01*
X108225319Y-46845379D01*
X108224733Y-46824597D01*
X108224174Y-46791421D01*
X108223647Y-46746709D01*
X108223156Y-46691321D01*
X108222707Y-46626115D01*
X108222303Y-46551949D01*
X108221950Y-46469683D01*
X108221653Y-46380175D01*
X108221415Y-46284283D01*
X108221243Y-46182866D01*
X108221140Y-46076783D01*
X108221111Y-45981435D01*
X108221111Y-45114778D01*
X107833055Y-45114778D01*
X107833055Y-44846667D01*
X108219469Y-44846667D01*
X108222871Y-44612070D01*
X108223849Y-44547734D01*
X108224807Y-44495648D01*
X108225879Y-44453950D01*
X108227196Y-44420779D01*
X108228891Y-44394274D01*
X108231096Y-44372573D01*
X108233944Y-44353816D01*
X108237567Y-44336141D01*
X108242096Y-44317687D01*
X108244432Y-44308760D01*
X108272559Y-44226822D01*
X108311209Y-44154169D01*
X108360449Y-44090746D01*
X108420344Y-44036492D01*
X108490960Y-43991351D01*
X108572362Y-43955264D01*
X108664615Y-43928174D01*
X108676979Y-43925403D01*
X108739793Y-43915892D01*
X108811702Y-43911974D01*
X108888920Y-43913479D01*
X108888920Y-43913479D01*
G37*
X108888920Y-43913479D02*
X108967663Y-43920240D01*
X109044143Y-43932086D01*
X109097763Y-43944211D01*
X109124222Y-43951155D01*
X109124222Y-44268618D01*
X109058958Y-44263073D01*
X109005275Y-44259712D01*
X108948974Y-44258278D01*
X108893737Y-44258711D01*
X108843247Y-44260949D01*
X108801185Y-44264931D01*
X108783959Y-44267653D01*
X108748665Y-44277189D01*
X108713915Y-44291165D01*
X108699365Y-44298893D01*
X108677789Y-44313409D01*
X108661794Y-44329279D01*
X108647420Y-44351034D01*
X108637461Y-44369708D01*
X108612694Y-44418332D01*
X108610465Y-44632499D01*
X108608235Y-44846667D01*
X109067777Y-44846667D01*
X109067777Y-45114778D01*
X108609222Y-45114778D01*
X108605638Y-46853972D01*
X108418191Y-46855849D01*
X108368112Y-46856174D01*
X108322718Y-46856132D01*
X108283903Y-46855752D01*
X108253564Y-46855063D01*
X108233597Y-46854093D01*
X108225927Y-46852909D01*
X108225319Y-46845379D01*
X108224733Y-46824597D01*
X108224174Y-46791421D01*
X108223647Y-46746709D01*
X108223156Y-46691321D01*
X108222707Y-46626115D01*
X108222303Y-46551949D01*
X108221950Y-46469683D01*
X108221653Y-46380175D01*
X108221415Y-46284283D01*
X108221243Y-46182866D01*
X108221140Y-46076783D01*
X108221111Y-45981435D01*
X108221111Y-45114778D01*
X107833055Y-45114778D01*
X107833055Y-44846667D01*
X108219469Y-44846667D01*
X108222871Y-44612070D01*
X108223849Y-44547734D01*
X108224807Y-44495648D01*
X108225879Y-44453950D01*
X108227196Y-44420779D01*
X108228891Y-44394274D01*
X108231096Y-44372573D01*
X108233944Y-44353816D01*
X108237567Y-44336141D01*
X108242096Y-44317687D01*
X108244432Y-44308760D01*
X108272559Y-44226822D01*
X108311209Y-44154169D01*
X108360449Y-44090746D01*
X108420344Y-44036492D01*
X108490960Y-43991351D01*
X108572362Y-43955264D01*
X108664615Y-43928174D01*
X108676979Y-43925403D01*
X108739793Y-43915892D01*
X108811702Y-43911974D01*
X108888920Y-43913479D01*
G36*
X107416777Y-46857500D02*
X107035777Y-46857500D01*
X107035777Y-43971778D01*
X107416777Y-43971778D01*
X107416777Y-46857500D01*
X107416777Y-46857500D01*
G37*
X107416777Y-46857500D02*
X107035777Y-46857500D01*
X107035777Y-43971778D01*
X107416777Y-43971778D01*
X107416777Y-46857500D01*
G36*
X102717330Y-43971877D02*
X102817930Y-43972170D01*
X102909756Y-43972647D01*
X102992067Y-43973300D01*
X103064126Y-43974120D01*
X103125192Y-43975098D01*
X103174528Y-43976225D01*
X103211393Y-43977493D01*
X103235049Y-43978894D01*
X103238403Y-43979218D01*
X103379322Y-44000541D01*
X103511876Y-44032932D01*
X103635890Y-44076279D01*
X103751191Y-44130471D01*
X103857605Y-44195395D01*
X103954959Y-44270939D01*
X104043080Y-44356991D01*
X104121794Y-44453439D01*
X104190928Y-44560172D01*
X104219873Y-44613486D01*
X104277366Y-44740600D01*
X104323914Y-44875128D01*
X104359475Y-45015528D01*
X104384009Y-45160255D01*
X104397473Y-45307765D01*
X104399826Y-45456516D01*
X104391025Y-45604963D01*
X104371029Y-45751562D01*
X104339796Y-45894770D01*
X104297284Y-46033044D01*
X104260817Y-46126016D01*
X104202492Y-46245328D01*
X104134707Y-46354171D01*
X104057518Y-46452500D01*
X103970979Y-46540268D01*
X103875144Y-46617428D01*
X103770069Y-46683935D01*
X103655807Y-46739742D01*
X103532415Y-46784802D01*
X103462748Y-46804460D01*
X103430398Y-46812630D01*
X103400630Y-46819825D01*
X103372340Y-46826111D01*
X103344427Y-46831555D01*
X103315787Y-46836225D01*
X103285320Y-46840187D01*
X103251923Y-46843510D01*
X103214493Y-46846259D01*
X103171928Y-46848502D01*
X103123127Y-46850307D01*
X103066986Y-46851740D01*
X103002404Y-46852869D01*
X102928279Y-46853761D01*
X102843507Y-46854482D01*
X102746988Y-46855101D01*
X102637618Y-46855684D01*
X102620763Y-46855769D01*
X102047500Y-46858645D01*
X102047500Y-46505600D01*
X102449666Y-46505600D01*
X102832430Y-46502810D01*
X102916348Y-46502171D01*
X102987447Y-46501546D01*
X103047018Y-46500881D01*
X103096354Y-46500128D01*
X103136746Y-46499235D01*
X103169486Y-46498151D01*
X103195866Y-46496825D01*
X103217177Y-46495206D01*
X103234712Y-46493244D01*
X103249762Y-46490888D01*
X103263619Y-46488087D01*
X103275166Y-46485380D01*
X103384476Y-46452757D01*
X103483577Y-46410605D01*
X103572961Y-46358591D01*
X103653120Y-46296386D01*
X103724547Y-46223658D01*
X103787346Y-46140657D01*
X103844274Y-46043784D01*
X103890814Y-45939561D01*
X103927116Y-45827415D01*
X103953328Y-45706770D01*
X103969599Y-45577053D01*
X103976077Y-45437688D01*
X103976214Y-45411111D01*
X103973690Y-45301362D01*
X103966034Y-45201871D01*
X103952816Y-45109590D01*
X103933603Y-45021471D01*
X103909258Y-44938389D01*
X103866880Y-44828921D01*
X103814925Y-44728914D01*
X103753821Y-44638802D01*
X103683998Y-44559017D01*
X103605883Y-44489992D01*
X103519906Y-44432160D01*
X103426493Y-44385953D01*
X103329397Y-44352707D01*
X103300327Y-44345079D01*
X103272353Y-44338625D01*
X103244009Y-44333251D01*
X103213828Y-44328860D01*
X103180342Y-44325356D01*
X103142087Y-44322642D01*
X103097594Y-44320622D01*
X103045397Y-44319200D01*
X102984030Y-44318280D01*
X102912026Y-44317765D01*
X102827919Y-44317559D01*
X102793625Y-44317542D01*
X102449666Y-44317500D01*
X102449666Y-46505600D01*
X102047500Y-46505600D01*
X102047500Y-43971778D01*
X102608694Y-43971778D01*
X102717330Y-43971877D01*
X102717330Y-43971877D01*
G37*
X102717330Y-43971877D02*
X102817930Y-43972170D01*
X102909756Y-43972647D01*
X102992067Y-43973300D01*
X103064126Y-43974120D01*
X103125192Y-43975098D01*
X103174528Y-43976225D01*
X103211393Y-43977493D01*
X103235049Y-43978894D01*
X103238403Y-43979218D01*
X103379322Y-44000541D01*
X103511876Y-44032932D01*
X103635890Y-44076279D01*
X103751191Y-44130471D01*
X103857605Y-44195395D01*
X103954959Y-44270939D01*
X104043080Y-44356991D01*
X104121794Y-44453439D01*
X104190928Y-44560172D01*
X104219873Y-44613486D01*
X104277366Y-44740600D01*
X104323914Y-44875128D01*
X104359475Y-45015528D01*
X104384009Y-45160255D01*
X104397473Y-45307765D01*
X104399826Y-45456516D01*
X104391025Y-45604963D01*
X104371029Y-45751562D01*
X104339796Y-45894770D01*
X104297284Y-46033044D01*
X104260817Y-46126016D01*
X104202492Y-46245328D01*
X104134707Y-46354171D01*
X104057518Y-46452500D01*
X103970979Y-46540268D01*
X103875144Y-46617428D01*
X103770069Y-46683935D01*
X103655807Y-46739742D01*
X103532415Y-46784802D01*
X103462748Y-46804460D01*
X103430398Y-46812630D01*
X103400630Y-46819825D01*
X103372340Y-46826111D01*
X103344427Y-46831555D01*
X103315787Y-46836225D01*
X103285320Y-46840187D01*
X103251923Y-46843510D01*
X103214493Y-46846259D01*
X103171928Y-46848502D01*
X103123127Y-46850307D01*
X103066986Y-46851740D01*
X103002404Y-46852869D01*
X102928279Y-46853761D01*
X102843507Y-46854482D01*
X102746988Y-46855101D01*
X102637618Y-46855684D01*
X102620763Y-46855769D01*
X102047500Y-46858645D01*
X102047500Y-46505600D01*
X102449666Y-46505600D01*
X102832430Y-46502810D01*
X102916348Y-46502171D01*
X102987447Y-46501546D01*
X103047018Y-46500881D01*
X103096354Y-46500128D01*
X103136746Y-46499235D01*
X103169486Y-46498151D01*
X103195866Y-46496825D01*
X103217177Y-46495206D01*
X103234712Y-46493244D01*
X103249762Y-46490888D01*
X103263619Y-46488087D01*
X103275166Y-46485380D01*
X103384476Y-46452757D01*
X103483577Y-46410605D01*
X103572961Y-46358591D01*
X103653120Y-46296386D01*
X103724547Y-46223658D01*
X103787346Y-46140657D01*
X103844274Y-46043784D01*
X103890814Y-45939561D01*
X103927116Y-45827415D01*
X103953328Y-45706770D01*
X103969599Y-45577053D01*
X103976077Y-45437688D01*
X103976214Y-45411111D01*
X103973690Y-45301362D01*
X103966034Y-45201871D01*
X103952816Y-45109590D01*
X103933603Y-45021471D01*
X103909258Y-44938389D01*
X103866880Y-44828921D01*
X103814925Y-44728914D01*
X103753821Y-44638802D01*
X103683998Y-44559017D01*
X103605883Y-44489992D01*
X103519906Y-44432160D01*
X103426493Y-44385953D01*
X103329397Y-44352707D01*
X103300327Y-44345079D01*
X103272353Y-44338625D01*
X103244009Y-44333251D01*
X103213828Y-44328860D01*
X103180342Y-44325356D01*
X103142087Y-44322642D01*
X103097594Y-44320622D01*
X103045397Y-44319200D01*
X102984030Y-44318280D01*
X102912026Y-44317765D01*
X102827919Y-44317559D01*
X102793625Y-44317542D01*
X102449666Y-44317500D01*
X102449666Y-46505600D01*
X102047500Y-46505600D01*
X102047500Y-43971778D01*
X102608694Y-43971778D01*
X102717330Y-43971877D01*
G36*
X98124611Y-44529167D02*
X97228555Y-44529167D01*
X97228555Y-46857500D01*
X96431277Y-46857500D01*
X96431277Y-44529167D01*
X95535222Y-44529167D01*
X95535222Y-43971778D01*
X98124611Y-43971778D01*
X98124611Y-44529167D01*
X98124611Y-44529167D01*
G37*
X98124611Y-44529167D02*
X97228555Y-44529167D01*
X97228555Y-46857500D01*
X96431277Y-46857500D01*
X96431277Y-44529167D01*
X95535222Y-44529167D01*
X95535222Y-43971778D01*
X98124611Y-43971778D01*
X98124611Y-44529167D01*
G36*
X110008934Y-44310191D02*
X110010064Y-44329581D01*
X110011069Y-44360038D01*
X110011917Y-44400038D01*
X110012578Y-44448061D01*
X110013021Y-44502582D01*
X110013215Y-44562080D01*
X110013222Y-44575028D01*
X110013222Y-44846667D01*
X110471833Y-44846667D01*
X110471833Y-45114778D01*
X110013222Y-45114778D01*
X110013291Y-45790347D01*
X110013360Y-46465917D01*
X110029812Y-46501246D01*
X110056191Y-46541848D01*
X110093509Y-46575897D01*
X110132440Y-46598118D01*
X110163341Y-46607413D01*
X110204707Y-46613508D01*
X110253256Y-46616396D01*
X110305707Y-46616069D01*
X110358779Y-46612518D01*
X110409192Y-46605735D01*
X110441847Y-46598884D01*
X110457722Y-46594915D01*
X110457722Y-46743846D01*
X110457483Y-46787973D01*
X110456816Y-46826912D01*
X110455794Y-46858607D01*
X110454490Y-46881000D01*
X110452976Y-46892035D01*
X110452430Y-46892834D01*
X110443739Y-46893684D01*
X110423977Y-46895957D01*
X110396074Y-46899308D01*
X110362958Y-46903390D01*
X110362740Y-46903418D01*
X110306163Y-46908702D01*
X110241697Y-46911815D01*
X110174372Y-46912720D01*
X110109219Y-46911375D01*
X110051270Y-46907740D01*
X110034388Y-46906009D01*
X109954664Y-46892776D01*
X109881877Y-46872592D01*
X109817746Y-46846134D01*
X109763987Y-46814081D01*
X109730798Y-46786071D01*
X109699539Y-46749654D01*
X109674699Y-46708253D01*
X109654371Y-46658327D01*
X109644365Y-46625754D01*
X109641924Y-46616841D01*
X109639757Y-46607945D01*
X109637844Y-46598205D01*
X109636167Y-46586759D01*
X109634705Y-46572744D01*
X109633441Y-46555299D01*
X109632353Y-46533561D01*
X109631424Y-46506668D01*
X109630633Y-46473758D01*
X109629962Y-46433968D01*
X109629390Y-46386437D01*
X109628899Y-46330302D01*
X109628470Y-46264702D01*
X109628083Y-46188773D01*
X109627718Y-46101655D01*
X109627357Y-46002484D01*
X109626979Y-45890398D01*
X109626825Y-45843264D01*
X109624439Y-45114778D01*
X109286500Y-45114778D01*
X109286500Y-44846667D01*
X109624959Y-44846667D01*
X109626827Y-44633610D01*
X109628694Y-44420554D01*
X109815445Y-44361972D01*
X109864347Y-44346691D01*
X109908862Y-44332897D01*
X109947211Y-44321130D01*
X109977617Y-44311932D01*
X109998302Y-44305845D01*
X110007489Y-44303411D01*
X110007709Y-44303389D01*
X110008934Y-44310191D01*
X110008934Y-44310191D01*
G37*
X110008934Y-44310191D02*
X110010064Y-44329581D01*
X110011069Y-44360038D01*
X110011917Y-44400038D01*
X110012578Y-44448061D01*
X110013021Y-44502582D01*
X110013215Y-44562080D01*
X110013222Y-44575028D01*
X110013222Y-44846667D01*
X110471833Y-44846667D01*
X110471833Y-45114778D01*
X110013222Y-45114778D01*
X110013291Y-45790347D01*
X110013360Y-46465917D01*
X110029812Y-46501246D01*
X110056191Y-46541848D01*
X110093509Y-46575897D01*
X110132440Y-46598118D01*
X110163341Y-46607413D01*
X110204707Y-46613508D01*
X110253256Y-46616396D01*
X110305707Y-46616069D01*
X110358779Y-46612518D01*
X110409192Y-46605735D01*
X110441847Y-46598884D01*
X110457722Y-46594915D01*
X110457722Y-46743846D01*
X110457483Y-46787973D01*
X110456816Y-46826912D01*
X110455794Y-46858607D01*
X110454490Y-46881000D01*
X110452976Y-46892035D01*
X110452430Y-46892834D01*
X110443739Y-46893684D01*
X110423977Y-46895957D01*
X110396074Y-46899308D01*
X110362958Y-46903390D01*
X110362740Y-46903418D01*
X110306163Y-46908702D01*
X110241697Y-46911815D01*
X110174372Y-46912720D01*
X110109219Y-46911375D01*
X110051270Y-46907740D01*
X110034388Y-46906009D01*
X109954664Y-46892776D01*
X109881877Y-46872592D01*
X109817746Y-46846134D01*
X109763987Y-46814081D01*
X109730798Y-46786071D01*
X109699539Y-46749654D01*
X109674699Y-46708253D01*
X109654371Y-46658327D01*
X109644365Y-46625754D01*
X109641924Y-46616841D01*
X109639757Y-46607945D01*
X109637844Y-46598205D01*
X109636167Y-46586759D01*
X109634705Y-46572744D01*
X109633441Y-46555299D01*
X109632353Y-46533561D01*
X109631424Y-46506668D01*
X109630633Y-46473758D01*
X109629962Y-46433968D01*
X109629390Y-46386437D01*
X109628899Y-46330302D01*
X109628470Y-46264702D01*
X109628083Y-46188773D01*
X109627718Y-46101655D01*
X109627357Y-46002484D01*
X109626979Y-45890398D01*
X109626825Y-45843264D01*
X109624439Y-45114778D01*
X109286500Y-45114778D01*
X109286500Y-44846667D01*
X109624959Y-44846667D01*
X109626827Y-44633610D01*
X109628694Y-44420554D01*
X109815445Y-44361972D01*
X109864347Y-44346691D01*
X109908862Y-44332897D01*
X109947211Y-44321130D01*
X109977617Y-44311932D01*
X109998302Y-44305845D01*
X110007489Y-44303411D01*
X110007709Y-44303389D01*
X110008934Y-44310191D01*
G36*
X105730376Y-44791774D02*
X105787817Y-44793826D01*
X105840671Y-44797451D01*
X105885448Y-44802589D01*
X105910416Y-44807120D01*
X106010834Y-44834680D01*
X106100916Y-44870051D01*
X106182734Y-44914315D01*
X106258355Y-44968556D01*
X106314297Y-45018416D01*
X106383261Y-45095051D01*
X106442180Y-45181402D01*
X106491103Y-45277564D01*
X106530079Y-45383636D01*
X106559156Y-45499713D01*
X106560464Y-45506361D01*
X106565242Y-45540119D01*
X106569199Y-45587912D01*
X106572336Y-45649757D01*
X106574655Y-45725669D01*
X106575059Y-45744486D01*
X106578704Y-45926167D01*
X105151944Y-45926167D01*
X105151968Y-45945570D01*
X105152609Y-45960303D01*
X105154327Y-45985363D01*
X105156849Y-46017028D01*
X105159395Y-46046111D01*
X105174039Y-46155551D01*
X105196959Y-46254159D01*
X105228061Y-46341791D01*
X105267249Y-46418301D01*
X105314431Y-46483544D01*
X105369511Y-46537375D01*
X105432397Y-46579648D01*
X105502992Y-46610217D01*
X105530130Y-46618290D01*
X105574600Y-46626749D01*
X105628294Y-46631787D01*
X105686736Y-46633354D01*
X105745448Y-46631403D01*
X105799954Y-46625886D01*
X105825750Y-46621471D01*
X105899329Y-46600310D01*
X105963726Y-46568484D01*
X106018986Y-46525946D01*
X106065157Y-46472646D01*
X106102285Y-46408538D01*
X106130416Y-46333572D01*
X106139999Y-46296951D01*
X106155572Y-46229556D01*
X106556639Y-46229556D01*
X106552095Y-46256014D01*
X106527557Y-46362424D01*
X106492107Y-46459940D01*
X106445903Y-46548421D01*
X106389101Y-46627726D01*
X106321857Y-46697714D01*
X106244327Y-46758245D01*
X106156669Y-46809179D01*
X106059039Y-46850375D01*
X105951592Y-46881692D01*
X105834486Y-46902990D01*
X105831665Y-46903363D01*
X105791024Y-46907434D01*
X105741973Y-46910415D01*
X105688801Y-46912222D01*
X105635799Y-46912771D01*
X105587257Y-46911979D01*
X105547466Y-46909762D01*
X105540000Y-46909042D01*
X105437915Y-46892527D01*
X105338998Y-46865621D01*
X105246009Y-46829269D01*
X105161709Y-46784417D01*
X105144900Y-46773698D01*
X105112279Y-46749539D01*
X105075001Y-46717704D01*
X105036883Y-46681798D01*
X105001744Y-46645427D01*
X104973403Y-46612196D01*
X104972136Y-46610556D01*
X104913910Y-46523280D01*
X104865225Y-46425675D01*
X104826111Y-46317829D01*
X104796593Y-46199833D01*
X104776700Y-46071778D01*
X104766459Y-45933754D01*
X104766439Y-45933222D01*
X104766555Y-45797742D01*
X104777084Y-45668140D01*
X104778775Y-45658056D01*
X105160733Y-45658056D01*
X106175000Y-45658056D01*
X106174860Y-45613959D01*
X106168050Y-45519228D01*
X106148713Y-45426073D01*
X106117594Y-45337744D01*
X106105907Y-45312334D01*
X106066523Y-45245909D01*
X106018312Y-45189439D01*
X105962253Y-45143941D01*
X105921000Y-45120205D01*
X105849944Y-45092127D01*
X105773693Y-45074273D01*
X105695133Y-45066726D01*
X105617145Y-45069571D01*
X105542615Y-45082892D01*
X105474427Y-45106773D01*
X105473599Y-45107151D01*
X105402862Y-45147164D01*
X105340615Y-45198213D01*
X105287109Y-45259875D01*
X105242599Y-45331730D01*
X105207336Y-45413354D01*
X105181574Y-45504327D01*
X105165566Y-45604226D01*
X105163616Y-45624542D01*
X105160733Y-45658056D01*
X104778775Y-45658056D01*
X104797734Y-45545041D01*
X104828211Y-45429068D01*
X104868221Y-45320845D01*
X104917470Y-45220996D01*
X104975666Y-45130144D01*
X105042514Y-45048914D01*
X105117721Y-44977929D01*
X105200992Y-44917813D01*
X105260175Y-44884419D01*
X105314758Y-44860080D01*
X105378072Y-44837283D01*
X105444738Y-44817735D01*
X105509379Y-44803145D01*
X105524497Y-44800488D01*
X105565407Y-44795651D01*
X105615682Y-44792626D01*
X105671835Y-44791354D01*
X105730376Y-44791774D01*
X105730376Y-44791774D01*
G37*
X105730376Y-44791774D02*
X105787817Y-44793826D01*
X105840671Y-44797451D01*
X105885448Y-44802589D01*
X105910416Y-44807120D01*
X106010834Y-44834680D01*
X106100916Y-44870051D01*
X106182734Y-44914315D01*
X106258355Y-44968556D01*
X106314297Y-45018416D01*
X106383261Y-45095051D01*
X106442180Y-45181402D01*
X106491103Y-45277564D01*
X106530079Y-45383636D01*
X106559156Y-45499713D01*
X106560464Y-45506361D01*
X106565242Y-45540119D01*
X106569199Y-45587912D01*
X106572336Y-45649757D01*
X106574655Y-45725669D01*
X106575059Y-45744486D01*
X106578704Y-45926167D01*
X105151944Y-45926167D01*
X105151968Y-45945570D01*
X105152609Y-45960303D01*
X105154327Y-45985363D01*
X105156849Y-46017028D01*
X105159395Y-46046111D01*
X105174039Y-46155551D01*
X105196959Y-46254159D01*
X105228061Y-46341791D01*
X105267249Y-46418301D01*
X105314431Y-46483544D01*
X105369511Y-46537375D01*
X105432397Y-46579648D01*
X105502992Y-46610217D01*
X105530130Y-46618290D01*
X105574600Y-46626749D01*
X105628294Y-46631787D01*
X105686736Y-46633354D01*
X105745448Y-46631403D01*
X105799954Y-46625886D01*
X105825750Y-46621471D01*
X105899329Y-46600310D01*
X105963726Y-46568484D01*
X106018986Y-46525946D01*
X106065157Y-46472646D01*
X106102285Y-46408538D01*
X106130416Y-46333572D01*
X106139999Y-46296951D01*
X106155572Y-46229556D01*
X106556639Y-46229556D01*
X106552095Y-46256014D01*
X106527557Y-46362424D01*
X106492107Y-46459940D01*
X106445903Y-46548421D01*
X106389101Y-46627726D01*
X106321857Y-46697714D01*
X106244327Y-46758245D01*
X106156669Y-46809179D01*
X106059039Y-46850375D01*
X105951592Y-46881692D01*
X105834486Y-46902990D01*
X105831665Y-46903363D01*
X105791024Y-46907434D01*
X105741973Y-46910415D01*
X105688801Y-46912222D01*
X105635799Y-46912771D01*
X105587257Y-46911979D01*
X105547466Y-46909762D01*
X105540000Y-46909042D01*
X105437915Y-46892527D01*
X105338998Y-46865621D01*
X105246009Y-46829269D01*
X105161709Y-46784417D01*
X105144900Y-46773698D01*
X105112279Y-46749539D01*
X105075001Y-46717704D01*
X105036883Y-46681798D01*
X105001744Y-46645427D01*
X104973403Y-46612196D01*
X104972136Y-46610556D01*
X104913910Y-46523280D01*
X104865225Y-46425675D01*
X104826111Y-46317829D01*
X104796593Y-46199833D01*
X104776700Y-46071778D01*
X104766459Y-45933754D01*
X104766439Y-45933222D01*
X104766555Y-45797742D01*
X104777084Y-45668140D01*
X104778775Y-45658056D01*
X105160733Y-45658056D01*
X106175000Y-45658056D01*
X106174860Y-45613959D01*
X106168050Y-45519228D01*
X106148713Y-45426073D01*
X106117594Y-45337744D01*
X106105907Y-45312334D01*
X106066523Y-45245909D01*
X106018312Y-45189439D01*
X105962253Y-45143941D01*
X105921000Y-45120205D01*
X105849944Y-45092127D01*
X105773693Y-45074273D01*
X105695133Y-45066726D01*
X105617145Y-45069571D01*
X105542615Y-45082892D01*
X105474427Y-45106773D01*
X105473599Y-45107151D01*
X105402862Y-45147164D01*
X105340615Y-45198213D01*
X105287109Y-45259875D01*
X105242599Y-45331730D01*
X105207336Y-45413354D01*
X105181574Y-45504327D01*
X105165566Y-45604226D01*
X105163616Y-45624542D01*
X105160733Y-45658056D01*
X104778775Y-45658056D01*
X104797734Y-45545041D01*
X104828211Y-45429068D01*
X104868221Y-45320845D01*
X104917470Y-45220996D01*
X104975666Y-45130144D01*
X105042514Y-45048914D01*
X105117721Y-44977929D01*
X105200992Y-44917813D01*
X105260175Y-44884419D01*
X105314758Y-44860080D01*
X105378072Y-44837283D01*
X105444738Y-44817735D01*
X105509379Y-44803145D01*
X105524497Y-44800488D01*
X105565407Y-44795651D01*
X105615682Y-44792626D01*
X105671835Y-44791354D01*
X105730376Y-44791774D01*
G36*
X99299502Y-45873250D02*
X99318356Y-45941759D01*
X99348625Y-46028882D01*
X99388704Y-46106421D01*
X99438280Y-46173991D01*
X99497039Y-46231202D01*
X99564668Y-46277668D01*
X99607361Y-46299330D01*
X99652990Y-46317739D01*
X99697968Y-46331021D01*
X99746346Y-46340011D01*
X99802178Y-46345545D01*
X99841204Y-46347564D01*
X99910576Y-46348449D01*
X99970404Y-46344924D01*
X100024703Y-46336482D01*
X100077488Y-46322614D01*
X100101293Y-46314654D01*
X100161191Y-46289824D01*
X100213300Y-46259568D01*
X100262451Y-46220808D01*
X100290963Y-46193760D01*
X100343803Y-46131392D01*
X100386028Y-46060442D01*
X100417818Y-45980510D01*
X100439352Y-45891196D01*
X100445634Y-45848741D01*
X100446817Y-45831665D01*
X100447903Y-45800762D01*
X100448888Y-45756315D01*
X100449772Y-45698606D01*
X100450553Y-45627920D01*
X100451227Y-45544540D01*
X100451793Y-45448748D01*
X100452248Y-45340828D01*
X100452592Y-45221064D01*
X100452820Y-45089738D01*
X100452932Y-44947135D01*
X100452944Y-44880366D01*
X100452944Y-43971778D01*
X101250222Y-43971778D01*
X101250092Y-44933097D01*
X101250072Y-45073752D01*
X101250033Y-45201062D01*
X101249950Y-45315795D01*
X101249799Y-45418715D01*
X101249554Y-45510591D01*
X101249191Y-45592188D01*
X101248685Y-45664274D01*
X101248009Y-45727614D01*
X101247141Y-45782976D01*
X101246053Y-45831125D01*
X101244722Y-45872829D01*
X101243123Y-45908853D01*
X101241229Y-45939965D01*
X101239018Y-45966931D01*
X101236462Y-45990517D01*
X101233537Y-46011491D01*
X101230219Y-46030618D01*
X101226482Y-46048665D01*
X101222302Y-46066399D01*
X101217652Y-46084586D01*
X101212509Y-46103993D01*
X101211784Y-46106715D01*
X101174817Y-46219707D01*
X101126269Y-46324761D01*
X101066313Y-46421746D01*
X100995125Y-46510532D01*
X100912878Y-46590987D01*
X100819745Y-46662980D01*
X100715902Y-46726381D01*
X100601521Y-46781057D01*
X100476776Y-46826879D01*
X100341843Y-46863715D01*
X100196894Y-46891434D01*
X100163341Y-46896342D01*
X100134405Y-46899431D01*
X100094831Y-46902353D01*
X100047316Y-46905027D01*
X99994558Y-46907372D01*
X99939253Y-46909308D01*
X99884099Y-46910754D01*
X99831794Y-46911630D01*
X99785034Y-46911854D01*
X99746518Y-46911347D01*
X99718942Y-46910027D01*
X99715638Y-46909727D01*
X99653021Y-46903214D01*
X99601113Y-46897248D01*
X99556549Y-46891369D01*
X99515963Y-46885121D01*
X99475990Y-46878042D01*
X99458111Y-46874621D01*
X99320716Y-46842160D01*
X99193046Y-46800344D01*
X99075337Y-46749369D01*
X98967826Y-46689433D01*
X98870752Y-46620734D01*
X98784351Y-46543468D01*
X98708860Y-46457834D01*
X98644518Y-46364029D01*
X98591562Y-46262250D01*
X98550228Y-46152694D01*
X98537664Y-46109238D01*
X98532329Y-46089217D01*
X98527504Y-46070709D01*
X98523162Y-46052947D01*
X98519279Y-46035161D01*
X98515829Y-46016583D01*
X98512786Y-45996445D01*
X98510125Y-45973977D01*
X98507820Y-45948412D01*
X98505845Y-45918981D01*
X98504175Y-45884915D01*
X98502784Y-45845445D01*
X98501647Y-45799804D01*
X98500738Y-45747223D01*
X98500031Y-45686932D01*
X98499501Y-45618164D01*
X98499122Y-45540151D01*
X98498868Y-45452122D01*
X98498715Y-45353311D01*
X98498636Y-45242948D01*
X98498605Y-45120265D01*
X98498598Y-44984494D01*
X98498597Y-44936625D01*
X98498555Y-43971778D01*
X99295396Y-43971778D01*
X99299502Y-45873250D01*
X99299502Y-45873250D01*
G37*
X99299502Y-45873250D02*
X99318356Y-45941759D01*
X99348625Y-46028882D01*
X99388704Y-46106421D01*
X99438280Y-46173991D01*
X99497039Y-46231202D01*
X99564668Y-46277668D01*
X99607361Y-46299330D01*
X99652990Y-46317739D01*
X99697968Y-46331021D01*
X99746346Y-46340011D01*
X99802178Y-46345545D01*
X99841204Y-46347564D01*
X99910576Y-46348449D01*
X99970404Y-46344924D01*
X100024703Y-46336482D01*
X100077488Y-46322614D01*
X100101293Y-46314654D01*
X100161191Y-46289824D01*
X100213300Y-46259568D01*
X100262451Y-46220808D01*
X100290963Y-46193760D01*
X100343803Y-46131392D01*
X100386028Y-46060442D01*
X100417818Y-45980510D01*
X100439352Y-45891196D01*
X100445634Y-45848741D01*
X100446817Y-45831665D01*
X100447903Y-45800762D01*
X100448888Y-45756315D01*
X100449772Y-45698606D01*
X100450553Y-45627920D01*
X100451227Y-45544540D01*
X100451793Y-45448748D01*
X100452248Y-45340828D01*
X100452592Y-45221064D01*
X100452820Y-45089738D01*
X100452932Y-44947135D01*
X100452944Y-44880366D01*
X100452944Y-43971778D01*
X101250222Y-43971778D01*
X101250092Y-44933097D01*
X101250072Y-45073752D01*
X101250033Y-45201062D01*
X101249950Y-45315795D01*
X101249799Y-45418715D01*
X101249554Y-45510591D01*
X101249191Y-45592188D01*
X101248685Y-45664274D01*
X101248009Y-45727614D01*
X101247141Y-45782976D01*
X101246053Y-45831125D01*
X101244722Y-45872829D01*
X101243123Y-45908853D01*
X101241229Y-45939965D01*
X101239018Y-45966931D01*
X101236462Y-45990517D01*
X101233537Y-46011491D01*
X101230219Y-46030618D01*
X101226482Y-46048665D01*
X101222302Y-46066399D01*
X101217652Y-46084586D01*
X101212509Y-46103993D01*
X101211784Y-46106715D01*
X101174817Y-46219707D01*
X101126269Y-46324761D01*
X101066313Y-46421746D01*
X100995125Y-46510532D01*
X100912878Y-46590987D01*
X100819745Y-46662980D01*
X100715902Y-46726381D01*
X100601521Y-46781057D01*
X100476776Y-46826879D01*
X100341843Y-46863715D01*
X100196894Y-46891434D01*
X100163341Y-46896342D01*
X100134405Y-46899431D01*
X100094831Y-46902353D01*
X100047316Y-46905027D01*
X99994558Y-46907372D01*
X99939253Y-46909308D01*
X99884099Y-46910754D01*
X99831794Y-46911630D01*
X99785034Y-46911854D01*
X99746518Y-46911347D01*
X99718942Y-46910027D01*
X99715638Y-46909727D01*
X99653021Y-46903214D01*
X99601113Y-46897248D01*
X99556549Y-46891369D01*
X99515963Y-46885121D01*
X99475990Y-46878042D01*
X99458111Y-46874621D01*
X99320716Y-46842160D01*
X99193046Y-46800344D01*
X99075337Y-46749369D01*
X98967826Y-46689433D01*
X98870752Y-46620734D01*
X98784351Y-46543468D01*
X98708860Y-46457834D01*
X98644518Y-46364029D01*
X98591562Y-46262250D01*
X98550228Y-46152694D01*
X98537664Y-46109238D01*
X98532329Y-46089217D01*
X98527504Y-46070709D01*
X98523162Y-46052947D01*
X98519279Y-46035161D01*
X98515829Y-46016583D01*
X98512786Y-45996445D01*
X98510125Y-45973977D01*
X98507820Y-45948412D01*
X98505845Y-45918981D01*
X98504175Y-45884915D01*
X98502784Y-45845445D01*
X98501647Y-45799804D01*
X98500738Y-45747223D01*
X98500031Y-45686932D01*
X98499501Y-45618164D01*
X98499122Y-45540151D01*
X98498868Y-45452122D01*
X98498715Y-45353311D01*
X98498636Y-45242948D01*
X98498605Y-45120265D01*
X98498598Y-44984494D01*
X98498597Y-44936625D01*
X98498555Y-43971778D01*
X99295396Y-43971778D01*
X99299502Y-45873250D01*
G04 #@! TO.C,SW10*
D10*
X105190476Y-53404761D02*
X105333333Y-53452380D01*
X105571428Y-53452380D01*
X105666666Y-53404761D01*
X105714285Y-53357142D01*
X105761904Y-53261904D01*
X105761904Y-53166666D01*
X105714285Y-53071428D01*
X105666666Y-53023809D01*
X105571428Y-52976190D01*
X105380952Y-52928571D01*
X105285714Y-52880952D01*
X105238095Y-52833333D01*
X105190476Y-52738095D01*
X105190476Y-52642857D01*
X105238095Y-52547619D01*
X105285714Y-52500000D01*
X105380952Y-52452380D01*
X105619047Y-52452380D01*
X105761904Y-52500000D01*
X106095238Y-52452380D02*
X106333333Y-53452380D01*
X106523809Y-52738095D01*
X106714285Y-53452380D01*
X106952380Y-52452380D01*
X107857142Y-53452380D02*
X107285714Y-53452380D01*
X107571428Y-53452380D02*
X107571428Y-52452380D01*
X107476190Y-52595238D01*
X107380952Y-52690476D01*
X107285714Y-52738095D01*
X108476190Y-52452380D02*
X108571428Y-52452380D01*
X108666666Y-52500000D01*
X108714285Y-52547619D01*
X108761904Y-52642857D01*
X108809523Y-52833333D01*
X108809523Y-53071428D01*
X108761904Y-53261904D01*
X108714285Y-53357142D01*
X108666666Y-53404761D01*
X108571428Y-53452380D01*
X108476190Y-53452380D01*
X108380952Y-53404761D01*
X108333333Y-53357142D01*
X108285714Y-53261904D01*
X108238095Y-53071428D01*
X108238095Y-52833333D01*
X108285714Y-52642857D01*
X108333333Y-52547619D01*
X108380952Y-52500000D01*
X108476190Y-52452380D01*
G04 #@! TO.C,SW20*
X105190476Y-69404761D02*
X105333333Y-69452380D01*
X105571428Y-69452380D01*
X105666666Y-69404761D01*
X105714285Y-69357142D01*
X105761904Y-69261904D01*
X105761904Y-69166666D01*
X105714285Y-69071428D01*
X105666666Y-69023809D01*
X105571428Y-68976190D01*
X105380952Y-68928571D01*
X105285714Y-68880952D01*
X105238095Y-68833333D01*
X105190476Y-68738095D01*
X105190476Y-68642857D01*
X105238095Y-68547619D01*
X105285714Y-68500000D01*
X105380952Y-68452380D01*
X105619047Y-68452380D01*
X105761904Y-68500000D01*
X106095238Y-68452380D02*
X106333333Y-69452380D01*
X106523809Y-68738095D01*
X106714285Y-69452380D01*
X106952380Y-68452380D01*
X107285714Y-68547619D02*
X107333333Y-68500000D01*
X107428571Y-68452380D01*
X107666666Y-68452380D01*
X107761904Y-68500000D01*
X107809523Y-68547619D01*
X107857142Y-68642857D01*
X107857142Y-68738095D01*
X107809523Y-68880952D01*
X107238095Y-69452380D01*
X107857142Y-69452380D01*
X108476190Y-68452380D02*
X108571428Y-68452380D01*
X108666666Y-68500000D01*
X108714285Y-68547619D01*
X108761904Y-68642857D01*
X108809523Y-68833333D01*
X108809523Y-69071428D01*
X108761904Y-69261904D01*
X108714285Y-69357142D01*
X108666666Y-69404761D01*
X108571428Y-69452380D01*
X108476190Y-69452380D01*
X108380952Y-69404761D01*
X108333333Y-69357142D01*
X108285714Y-69261904D01*
X108238095Y-69071428D01*
X108238095Y-68833333D01*
X108285714Y-68642857D01*
X108333333Y-68547619D01*
X108380952Y-68500000D01*
X108476190Y-68452380D01*
G04 #@! TO.C,SW30*
X105190476Y-85404761D02*
X105333333Y-85452380D01*
X105571428Y-85452380D01*
X105666666Y-85404761D01*
X105714285Y-85357142D01*
X105761904Y-85261904D01*
X105761904Y-85166666D01*
X105714285Y-85071428D01*
X105666666Y-85023809D01*
X105571428Y-84976190D01*
X105380952Y-84928571D01*
X105285714Y-84880952D01*
X105238095Y-84833333D01*
X105190476Y-84738095D01*
X105190476Y-84642857D01*
X105238095Y-84547619D01*
X105285714Y-84500000D01*
X105380952Y-84452380D01*
X105619047Y-84452380D01*
X105761904Y-84500000D01*
X106095238Y-84452380D02*
X106333333Y-85452380D01*
X106523809Y-84738095D01*
X106714285Y-85452380D01*
X106952380Y-84452380D01*
X107238095Y-84452380D02*
X107857142Y-84452380D01*
X107523809Y-84833333D01*
X107666666Y-84833333D01*
X107761904Y-84880952D01*
X107809523Y-84928571D01*
X107857142Y-85023809D01*
X107857142Y-85261904D01*
X107809523Y-85357142D01*
X107761904Y-85404761D01*
X107666666Y-85452380D01*
X107380952Y-85452380D01*
X107285714Y-85404761D01*
X107238095Y-85357142D01*
X108476190Y-84452380D02*
X108571428Y-84452380D01*
X108666666Y-84500000D01*
X108714285Y-84547619D01*
X108761904Y-84642857D01*
X108809523Y-84833333D01*
X108809523Y-85071428D01*
X108761904Y-85261904D01*
X108714285Y-85357142D01*
X108666666Y-85404761D01*
X108571428Y-85452380D01*
X108476190Y-85452380D01*
X108380952Y-85404761D01*
X108333333Y-85357142D01*
X108285714Y-85261904D01*
X108238095Y-85071428D01*
X108238095Y-84833333D01*
X108285714Y-84642857D01*
X108333333Y-84547619D01*
X108380952Y-84500000D01*
X108476190Y-84452380D01*
G04 #@! TO.C,SW40*
X105190476Y-101404761D02*
X105333333Y-101452380D01*
X105571428Y-101452380D01*
X105666666Y-101404761D01*
X105714285Y-101357142D01*
X105761904Y-101261904D01*
X105761904Y-101166666D01*
X105714285Y-101071428D01*
X105666666Y-101023809D01*
X105571428Y-100976190D01*
X105380952Y-100928571D01*
X105285714Y-100880952D01*
X105238095Y-100833333D01*
X105190476Y-100738095D01*
X105190476Y-100642857D01*
X105238095Y-100547619D01*
X105285714Y-100500000D01*
X105380952Y-100452380D01*
X105619047Y-100452380D01*
X105761904Y-100500000D01*
X106095238Y-100452380D02*
X106333333Y-101452380D01*
X106523809Y-100738095D01*
X106714285Y-101452380D01*
X106952380Y-100452380D01*
X107761904Y-100785714D02*
X107761904Y-101452380D01*
X107523809Y-100404761D02*
X107285714Y-101119047D01*
X107904761Y-101119047D01*
X108476190Y-100452380D02*
X108571428Y-100452380D01*
X108666666Y-100500000D01*
X108714285Y-100547619D01*
X108761904Y-100642857D01*
X108809523Y-100833333D01*
X108809523Y-101071428D01*
X108761904Y-101261904D01*
X108714285Y-101357142D01*
X108666666Y-101404761D01*
X108571428Y-101452380D01*
X108476190Y-101452380D01*
X108380952Y-101404761D01*
X108333333Y-101357142D01*
X108285714Y-101261904D01*
X108238095Y-101071428D01*
X108238095Y-100833333D01*
X108285714Y-100642857D01*
X108333333Y-100547619D01*
X108380952Y-100500000D01*
X108476190Y-100452380D01*
G04 #@! TO.C,SW60*
X105190476Y-133404761D02*
X105333333Y-133452380D01*
X105571428Y-133452380D01*
X105666666Y-133404761D01*
X105714285Y-133357142D01*
X105761904Y-133261904D01*
X105761904Y-133166666D01*
X105714285Y-133071428D01*
X105666666Y-133023809D01*
X105571428Y-132976190D01*
X105380952Y-132928571D01*
X105285714Y-132880952D01*
X105238095Y-132833333D01*
X105190476Y-132738095D01*
X105190476Y-132642857D01*
X105238095Y-132547619D01*
X105285714Y-132500000D01*
X105380952Y-132452380D01*
X105619047Y-132452380D01*
X105761904Y-132500000D01*
X106095238Y-132452380D02*
X106333333Y-133452380D01*
X106523809Y-132738095D01*
X106714285Y-133452380D01*
X106952380Y-132452380D01*
X107761904Y-132452380D02*
X107571428Y-132452380D01*
X107476190Y-132500000D01*
X107428571Y-132547619D01*
X107333333Y-132690476D01*
X107285714Y-132880952D01*
X107285714Y-133261904D01*
X107333333Y-133357142D01*
X107380952Y-133404761D01*
X107476190Y-133452380D01*
X107666666Y-133452380D01*
X107761904Y-133404761D01*
X107809523Y-133357142D01*
X107857142Y-133261904D01*
X107857142Y-133023809D01*
X107809523Y-132928571D01*
X107761904Y-132880952D01*
X107666666Y-132833333D01*
X107476190Y-132833333D01*
X107380952Y-132880952D01*
X107333333Y-132928571D01*
X107285714Y-133023809D01*
X108476190Y-132452380D02*
X108571428Y-132452380D01*
X108666666Y-132500000D01*
X108714285Y-132547619D01*
X108761904Y-132642857D01*
X108809523Y-132833333D01*
X108809523Y-133071428D01*
X108761904Y-133261904D01*
X108714285Y-133357142D01*
X108666666Y-133404761D01*
X108571428Y-133452380D01*
X108476190Y-133452380D01*
X108380952Y-133404761D01*
X108333333Y-133357142D01*
X108285714Y-133261904D01*
X108238095Y-133071428D01*
X108238095Y-132833333D01*
X108285714Y-132642857D01*
X108333333Y-132547619D01*
X108380952Y-132500000D01*
X108476190Y-132452380D01*
G04 #@! TO.C,SW70*
X105190476Y-149404761D02*
X105333333Y-149452380D01*
X105571428Y-149452380D01*
X105666666Y-149404761D01*
X105714285Y-149357142D01*
X105761904Y-149261904D01*
X105761904Y-149166666D01*
X105714285Y-149071428D01*
X105666666Y-149023809D01*
X105571428Y-148976190D01*
X105380952Y-148928571D01*
X105285714Y-148880952D01*
X105238095Y-148833333D01*
X105190476Y-148738095D01*
X105190476Y-148642857D01*
X105238095Y-148547619D01*
X105285714Y-148500000D01*
X105380952Y-148452380D01*
X105619047Y-148452380D01*
X105761904Y-148500000D01*
X106095238Y-148452380D02*
X106333333Y-149452380D01*
X106523809Y-148738095D01*
X106714285Y-149452380D01*
X106952380Y-148452380D01*
X107238095Y-148452380D02*
X107904761Y-148452380D01*
X107476190Y-149452380D01*
X108476190Y-148452380D02*
X108571428Y-148452380D01*
X108666666Y-148500000D01*
X108714285Y-148547619D01*
X108761904Y-148642857D01*
X108809523Y-148833333D01*
X108809523Y-149071428D01*
X108761904Y-149261904D01*
X108714285Y-149357142D01*
X108666666Y-149404761D01*
X108571428Y-149452380D01*
X108476190Y-149452380D01*
X108380952Y-149404761D01*
X108333333Y-149357142D01*
X108285714Y-149261904D01*
X108238095Y-149071428D01*
X108238095Y-148833333D01*
X108285714Y-148642857D01*
X108333333Y-148547619D01*
X108380952Y-148500000D01*
X108476190Y-148452380D01*
G04 #@! TD*
M02*
